<?xml version="1.0" encoding="utf-8"?>
<svg xmlns="http://www.w3.org/2000/svg" version="1.2" viewBox="0 0 1431 944">
 <title>Three lines of musical notation with the lyrics “Poor Rosy, poor gal; Poor Rosy, poor gal; Rosy break my poor heart, Heav’n shall-a-be my home.”</title>
 <polyline class="StaffLines" points="0 35.978 1431 35.978" fill="none" stroke="#000" stroke-linejoin="bevel" stroke-width="2.73"/>
 <polyline class="StaffLines" points="0 60.818 1431 60.818" fill="none" stroke="#000" stroke-linejoin="bevel" stroke-width="2.73"/>
 <polyline class="StaffLines" points="0 85.658 1431 85.658" fill="none" stroke="#000" stroke-linejoin="bevel" stroke-width="2.73"/>
 <polyline class="StaffLines" points="0 110.5 1431 110.5" fill="none" stroke="#000" stroke-linejoin="bevel" stroke-width="2.73"/>
 <polyline class="StaffLines" points="0 135.34 1431 135.34" fill="none" stroke="#000" stroke-linejoin="bevel" stroke-width="2.73"/>
 <polyline class="StaffLines" points="0 383.74 1431 383.74" fill="none" stroke="#000" stroke-linejoin="bevel" stroke-width="2.73"/>
 <polyline class="StaffLines" points="0 408.58 1431 408.58" fill="none" stroke="#000" stroke-linejoin="bevel" stroke-width="2.73"/>
 <polyline class="StaffLines" points="0 433.42 1431 433.42" fill="none" stroke="#000" stroke-linejoin="bevel" stroke-width="2.73"/>
 <polyline class="StaffLines" points="0 458.26 1431 458.26" fill="none" stroke="#000" stroke-linejoin="bevel" stroke-width="2.73"/>
 <polyline class="StaffLines" points="0 483.1 1431 483.1" fill="none" stroke="#000" stroke-linejoin="bevel" stroke-width="2.73"/>
 <polyline class="StaffLines" points="0 731.5 1431 731.5" fill="none" stroke="#000" stroke-linejoin="bevel" stroke-width="2.73"/>
 <polyline class="StaffLines" points="0 756.34 1431 756.34" fill="none" stroke="#000" stroke-linejoin="bevel" stroke-width="2.73"/>
 <polyline class="StaffLines" points="0 781.18 1431 781.18" fill="none" stroke="#000" stroke-linejoin="bevel" stroke-width="2.73"/>
 <polyline class="StaffLines" points="0 806.02 1431 806.02" fill="none" stroke="#000" stroke-linejoin="bevel" stroke-width="2.73"/>
 <polyline class="StaffLines" points="0 830.86 1431 830.86" fill="none" stroke="#000" stroke-linejoin="bevel" stroke-width="2.73"/>
 <polyline class="BarLine" points="608.08 34.612 608.08 136.7" fill="none" stroke="#000" stroke-linejoin="bevel" stroke-width="4.47"/>
 <polyline class="BarLine" points="978.01 34.612 978.01 136.7" fill="none" stroke="#000" stroke-linejoin="bevel" stroke-width="4.47"/>
 <polyline class="BarLine" points="1428.8 34.612 1428.8 136.7" fill="none" stroke="#000" stroke-linejoin="bevel" stroke-width="4.47"/>
 <polyline class="BarLine" points="490.99 382.37 490.99 484.46" fill="none" stroke="#000" stroke-linejoin="bevel" stroke-width="4.47"/>
 <polyline class="BarLine" points="1019.5 382.37 1019.5 484.46" fill="none" stroke="#000" stroke-linejoin="bevel" stroke-width="4.47"/>
 <polyline class="BarLine" points="1428.8 382.37 1428.8 484.46" fill="none" stroke="#000" stroke-linejoin="bevel" stroke-width="4.47"/>
 <polyline class="BarLine" points="934.97 730.13 934.97 832.23" fill="none" stroke="#000" stroke-linejoin="bevel" stroke-width="4.47"/>
 <polyline class="BarLine" points="1406.8 730.13 1406.8 832.23" fill="none" stroke="#000" stroke-linejoin="bevel" stroke-width="13.66"/>
 <polyline class="BarLine" points="1424.2 730.13 1424.2 832.23" fill="none" stroke="#000" stroke-linejoin="bevel" stroke-width="13.66"/>
 <polyline class="LedgerLine" points="1244.9 507.94 1294.6 507.94" fill="none" stroke="#000" stroke-linejoin="bevel" stroke-width="3.97"/>
 <polyline class="LedgerLine" points="359.61 855.7 409.28 855.7" fill="none" stroke="#000" stroke-linejoin="bevel" stroke-width="3.97"/>
 <polyline class="LedgerLine" points="468.15 855.7 517.82 855.7" fill="none" stroke="#000" stroke-linejoin="bevel" stroke-width="3.97"/>
 <polyline class="Stem" points="250.96 64.156 250.96 144.65" fill="none" stroke="#000" stroke-linejoin="bevel" stroke-width="2.73"/>
 <polyline class="Stem" points="409.3 88.996 409.3 172.6" fill="none" stroke="#000" stroke-linejoin="bevel" stroke-width="2.73"/>
 <polyline class="Stem" points="508.25 64.156 508.25 147.76" fill="none" stroke="#000" stroke-linejoin="bevel" stroke-width="2.73"/>
 <polyline class="Stem" points="700.1 82.478 700.1 11.138" fill="none" stroke="#000" stroke-linejoin="bevel" stroke-width="2.73"/>
 <polyline class="Stem" points="785.26 94.898 785.26 17.348" fill="none" stroke="#000" stroke-linejoin="bevel" stroke-width="2.73"/>
 <polyline class="Stem" points="870.43 107.32 870.43 26.663" fill="none" stroke="#000" stroke-linejoin="bevel" stroke-width="2.73"/>
 <polyline class="Stem" points="1071.9 82.478 1071.9 8.033" fill="none" stroke="#000" stroke-linejoin="bevel" stroke-width="2.73"/>
 <polyline class="Stem" points="1243.2 94.898 1243.2 17.348" fill="none" stroke="#000" stroke-linejoin="bevel" stroke-width="2.73"/>
 <polyline class="Stem" points="1350.4 82.478 1350.4 8.033" fill="none" stroke="#000" stroke-linejoin="bevel" stroke-width="2.73"/>
 <polyline class="Stem" points="225.55 455.08 225.55 383.74" fill="none" stroke="#000" stroke-linejoin="bevel" stroke-width="2.73"/>
 <polyline class="Stem" points="307.25 467.5 307.25 389.95" fill="none" stroke="#000" stroke-linejoin="bevel" stroke-width="2.73"/>
 <polyline class="Stem" points="388.95 479.92 388.95 396.16" fill="none" stroke="#000" stroke-linejoin="bevel" stroke-width="2.73"/>
 <polyline class="Stem" points="566.63 455.08 566.63 374.42" fill="none" stroke="#000" stroke-linejoin="bevel" stroke-width="2.73"/>
 <polyline class="Stem" points="687.03 455.08 687.03 374.42" fill="none" stroke="#000" stroke-linejoin="bevel" stroke-width="2.73"/>
 <polyline class="Stem" points="807.42 467.5 807.42 383.74" fill="none" stroke="#000" stroke-linejoin="bevel" stroke-width="2.73"/>
 <polyline class="Stem" points="927.82 479.92 927.82 396.16" fill="none" stroke="#000" stroke-linejoin="bevel" stroke-width="2.73"/>
 <polyline class="Stem" points="1111.6 455.08 1111.6 374.42" fill="none" stroke="#000" stroke-linejoin="bevel" stroke-width="2.73"/>
 <polyline class="Stem" points="1284.5 517.18 1284.5 433.42" fill="none" stroke="#000" stroke-linejoin="bevel" stroke-width="2.73"/>
 <polyline class="Stem" points="225.55 840.1 225.55 756.34" fill="none" stroke="#000" stroke-linejoin="bevel" stroke-width="2.73"/>
 <polyline class="Stem" points="399.22 864.94 399.22 781.18" fill="none" stroke="#000" stroke-linejoin="bevel" stroke-width="2.73"/>
 <polyline class="Stem" points="507.76 864.94 507.76 781.18" fill="none" stroke="#000" stroke-linejoin="bevel" stroke-width="2.73"/>
 <polyline class="Stem" points="616.31 840.1 616.31 756.34" fill="none" stroke="#000" stroke-linejoin="bevel" stroke-width="2.73"/>
 <polyline class="Stem" points="789.98 840.1 789.98 756.34" fill="none" stroke="#000" stroke-linejoin="bevel" stroke-width="2.73"/>
 <polyline class="Stem" points="1036.8 827.68 1036.8 743.92" fill="none" stroke="#000" stroke-linejoin="bevel" stroke-width="2.73"/>
 <path class="Note" d="m280.89 52.77c-1.7885-3.2789-5.5642-5.0674-10.135-5.0674-3.3782 0-7.0546.9936-10.632 2.8814-6.5578 3.4776-10.532 9.3398-10.532 14.407 0 1.391.29808 2.7821.9936 4.0738 1.7885 3.2789 5.5642 4.968 10.135 4.968 3.3782 0 7.0546-.89424 10.632-2.7821 6.5578-3.4776 10.532-9.3398 10.532-14.407 0-1.391-.29808-2.7821-.9936-4.0738" stroke-width=".9936"/>
 <path class="Note" d="m439.23 77.61c-1.7885-3.2789-5.5642-5.0674-10.135-5.0674-3.3782 0-7.0546.9936-10.632 2.8814-6.5578 3.4776-10.532 9.3398-10.532 14.407 0 1.391.29808 2.7821.9936 4.0738 1.7885 3.2789 5.5642 4.968 10.135 4.968 3.3782 0 7.0546-.89424 10.632-2.7821 6.5578-3.4776 10.532-9.3398 10.532-14.407 0-1.391-.29808-2.7821-.9936-4.0738" stroke-width=".9936"/>
 <path class="Note" d="m538.19 52.77c-1.7885-3.2789-5.5642-5.0674-10.135-5.0674-3.3782 0-7.0546.9936-10.632 2.8814-6.5578 3.4776-10.532 9.3398-10.532 14.407 0 1.391.29808 2.7821.9936 4.0738 1.7885 3.2789 5.5642 4.968 10.135 4.968 3.3782 0 7.0546-.89424 10.632-2.7821 6.5578-3.4776 10.532-9.3398 10.532-14.407 0-1.391-.29808-2.7821-.9936-4.0738" stroke-width=".9936"/>
 <path class="Note" d="m700.48 77.61c-1.7885-3.2789-5.5642-5.0674-10.135-5.0674-3.3782 0-7.0546.9936-10.632 2.8814-6.5578 3.4776-10.532 9.3398-10.532 14.407 0 1.391.29808 2.7821.9936 4.0738 1.7885 3.2789 5.5642 4.968 10.135 4.968 3.3782 0 7.0546-.89424 10.632-2.7821 6.5578-3.4776 10.532-9.3398 10.532-14.407 0-1.391-.29808-2.7821-.9936-4.0738" stroke-width=".9936"/>
 <path class="Note" d="m785.65 90.03c-1.7885-3.2789-5.5642-5.0674-10.135-5.0674-3.3782 0-7.0546.9936-10.632 2.8814-6.5578 3.4776-10.532 9.3398-10.532 14.407 0 1.391.29808 2.7821.9936 4.0738 1.7885 3.2789 5.5642 4.968 10.135 4.968 3.3782 0 7.0546-.89424 10.632-2.7821 6.5578-3.4776 10.532-9.3398 10.532-14.407 0-1.391-.29808-2.7821-.9936-4.0738" stroke-width=".9936"/>
 <path class="Note" d="m870.81 102.45c-1.7885-3.2789-5.5642-5.0674-10.135-5.0674-3.3782 0-7.0546.9936-10.632 2.8814-6.5578 3.4776-10.532 9.3398-10.532 14.407 0 1.391.29808 2.7821.9936 4.0738 1.7885 3.2789 5.5642 4.968 10.135 4.968 3.3782 0 7.0546-.89424 10.632-2.7821 6.5578-3.4776 10.532-9.3398 10.532-14.407 0-1.391-.29808-2.7821-.9936-4.0738" stroke-width=".9936"/>
 <path class="Note" d="m1072.3 77.61c-1.7885-3.2789-5.5642-5.0674-10.135-5.0674-3.3783 0-7.0546.9936-10.632 2.8814-6.5578 3.4776-10.532 9.3398-10.532 14.407 0 1.391.2981 2.7821.9936 4.0738 1.7885 3.2789 5.5642 4.968 10.135 4.968 3.3783 0 7.0546-.89424 10.632-2.7821 6.5578-3.4776 10.532-9.3398 10.532-14.407 0-1.391-.2981-2.7821-.9936-4.0738" stroke-width=".9936"/>
 <path class="Note" d="m1243.6 90.03c-1.7885-3.2789-5.5642-5.0674-10.135-5.0674-3.3783 0-7.0546.9936-10.632 2.8814-6.5578 3.4776-10.532 9.3398-10.532 14.407 0 1.391.2981 2.7821.9936 4.0738 1.7885 3.2789 5.5642 4.968 10.135 4.968 3.3783 0 7.0546-.89424 10.632-2.7821 6.5578-3.4776 10.532-9.3398 10.532-14.407 0-1.391-.2981-2.7821-.9936-4.0738" stroke-width=".9936"/>
 <path class="Note" d="m1350.7 77.61c-1.7885-3.2789-5.5642-5.0674-10.135-5.0674-3.3783 0-7.0546.9936-10.632 2.8814-6.5578 3.4776-10.532 9.3398-10.532 14.407 0 1.391.2981 2.7821.9936 4.0738 1.7885 3.2789 5.5642 4.968 10.135 4.968 3.3783 0 7.0546-.89424 10.632-2.7821 6.5578-3.4776 10.532-9.3398 10.532-14.407 0-1.391-.2981-2.7821-.9936-4.0738" stroke-width=".9936"/>
 <path class="Note" d="m225.93 450.21c-1.7885-3.2789-5.5642-5.0674-10.135-5.0674-3.3782 0-7.0546.9936-10.632 2.8814-6.5578 3.4776-10.532 9.3398-10.532 14.407 0 1.391.29808 2.7821.9936 4.0738 1.7885 3.2789 5.5642 4.968 10.135 4.968 3.3782 0 7.0546-.89424 10.632-2.7821 6.5578-3.4776 10.532-9.3398 10.532-14.407 0-1.391-.29808-2.7821-.9936-4.0738" stroke-width=".9936"/>
 <path class="Note" d="m307.63 462.63c-1.7885-3.2789-5.5642-5.0674-10.135-5.0674-3.3782 0-7.0546.9936-10.632 2.8814-6.5578 3.4776-10.532 9.3398-10.532 14.407 0 1.391.29808 2.7821.9936 4.0738 1.7885 3.2789 5.5642 4.968 10.135 4.968 3.3782 0 7.0546-.89424 10.632-2.7821 6.5578-3.4776 10.532-9.3398 10.532-14.407 0-1.391-.29808-2.7821-.9936-4.0738" stroke-width=".9936"/>
 <path class="Note" d="m389.33 475.05c-1.7885-3.2789-5.5642-5.0674-10.135-5.0674-3.3782 0-7.0546.9936-10.632 2.8814-6.5578 3.4776-10.532 9.3398-10.532 14.407 0 1.391.29808 2.7821.9936 4.0738 1.7885 3.2789 5.5642 4.968 10.135 4.968 3.3782 0 7.0546-.89424 10.632-2.7821 6.5578-3.4776 10.532-9.3398 10.532-14.407 0-1.391-.29808-2.7821-.9936-4.0738" stroke-width=".9936"/>
 <path class="Note" d="m567.01 450.21c-1.7885-3.2789-5.5642-5.0674-10.135-5.0674-3.3782 0-7.0546.9936-10.632 2.8814-6.5578 3.4776-10.532 9.3398-10.532 14.407 0 1.391.29808 2.7821.9936 4.0738 1.7885 3.2789 5.5642 4.968 10.135 4.968 3.3782 0 7.0546-.89424 10.632-2.7821 6.5578-3.4776 10.532-9.3398 10.532-14.407 0-1.391-.29808-2.7821-.9936-4.0738" stroke-width=".9936"/>
 <path class="Note" d="m687.41 450.21c-1.7885-3.2789-5.5642-5.0674-10.135-5.0674-3.3782 0-7.0546.9936-10.632 2.8814-6.5578 3.4776-10.532 9.3398-10.532 14.407 0 1.391.29808 2.7821.9936 4.0738 1.7885 3.2789 5.5642 4.968 10.135 4.968 3.3782 0 7.0546-.89424 10.632-2.7821 6.5578-3.4776 10.532-9.3398 10.532-14.407 0-1.391-.29808-2.7821-.9936-4.0738" stroke-width=".9936"/>
 <path class="Note" d="m807.81 462.63c-1.7885-3.2789-5.5642-5.0674-10.135-5.0674-3.3782 0-7.0546.9936-10.632 2.8814-6.5578 3.4776-10.532 9.3398-10.532 14.407 0 1.391.29808 2.7821.9936 4.0738 1.7885 3.2789 5.5642 4.968 10.135 4.968 3.3782 0 7.0546-.89424 10.632-2.7821 6.5578-3.4776 10.532-9.3398 10.532-14.407 0-1.391-.29808-2.7821-.9936-4.0738" stroke-width=".9936"/>
 <path class="Note" d="m928.2 475.05c-1.7885-3.2789-5.5642-5.0674-10.135-5.0674-3.3782 0-7.0546.9936-10.632 2.8814-6.5578 3.4776-10.532 9.3398-10.532 14.407 0 1.391.29808 2.7821.9936 4.0738 1.7885 3.2789 5.5642 4.968 10.135 4.968 3.3782 0 7.0546-.89424 10.632-2.7821 6.5578-3.4776 10.532-9.3398 10.532-14.407 0-1.391-.29808-2.7821-.9936-4.0738" stroke-width=".9936"/>
 <path class="Note" d="m1111.9 450.21c-1.7885-3.2789-5.5642-5.0674-10.135-5.0674-3.3783 0-7.0546.9936-10.632 2.8814-6.5578 3.4776-10.532 9.3398-10.532 14.407 0 1.391.2981 2.7821.9936 4.0738 1.7885 3.2789 5.5642 4.968 10.135 4.968 3.3783 0 7.0546-.89424 10.632-2.7821 6.5578-3.4776 10.532-9.3398 10.532-14.407 0-1.391-.2981-2.7821-.9936-4.0738" stroke-width=".9936"/>
 <path class="Note" d="m1284.9 512.31c-1.7885-3.2789-5.5642-5.0674-10.135-5.0674-3.3783 0-7.0546.9936-10.632 2.8814-6.5578 3.4776-10.532 9.3398-10.532 14.407 0 1.391.2981 2.7821.9936 4.0738 1.7885 3.2789 5.5642 4.968 10.135 4.968 3.3783 0 7.0546-.89424 10.632-2.7821 6.5578-3.4776 10.532-9.3398 10.532-14.407 0-1.391-.2981-2.7821-.9936-4.0738" stroke-width=".9936"/>
 <path class="Note" d="m225.93 835.23c-1.7885-3.2789-5.5642-5.0674-10.135-5.0674-3.3782 0-7.0546.9936-10.632 2.8814-6.5578 3.4776-10.532 9.3398-10.532 14.407 0 1.391.29808 2.7821.9936 4.0738 1.7885 3.2789 5.5642 4.968 10.135 4.968 3.3782 0 7.0546-.89424 10.632-2.7821 6.5578-3.4776 10.532-9.3398 10.532-14.407 0-1.391-.29808-2.7821-.9936-4.0738" stroke-width=".9936"/>
 <path class="Note" d="m399.6 860.07c-1.7885-3.2789-5.5642-5.0674-10.135-5.0674-3.3782 0-7.0546.9936-10.632 2.8814-6.5578 3.4776-10.532 9.3398-10.532 14.407 0 1.391.29808 2.7821.9936 4.0738 1.7885 3.2789 5.5642 4.968 10.135 4.968 3.3782 0 7.0546-.89424 10.632-2.7821 6.5578-3.4776 10.532-9.3398 10.532-14.407 0-1.391-.29808-2.7821-.9936-4.0738" stroke-width=".9936"/>
 <path class="Note" d="m508.14 860.07c-1.7885-3.2789-5.5642-5.0674-10.135-5.0674-3.3782 0-7.0546.9936-10.632 2.8814-6.5578 3.4776-10.532 9.3398-10.532 14.407 0 1.391.29808 2.7821.9936 4.0738 1.7885 3.2789 5.5642 4.968 10.135 4.968 3.3782 0 7.0546-.89424 10.632-2.7821 6.5578-3.4776 10.532-9.3398 10.532-14.407 0-1.391-.29808-2.7821-.9936-4.0738" stroke-width=".9936"/>
 <path class="Note" d="m616.69 835.23c-1.7885-3.2789-5.5642-5.0674-10.135-5.0674-3.3782 0-7.0546.9936-10.632 2.8814-6.5578 3.4776-10.532 9.3398-10.532 14.407 0 1.391.29808 2.7821.9936 4.0738 1.7885 3.2789 5.5642 4.968 10.135 4.968 3.3782 0 7.0546-.89424 10.632-2.7821 6.5578-3.4776 10.532-9.3398 10.532-14.407 0-1.391-.29808-2.7821-.9936-4.0738" stroke-width=".9936"/>
 <path class="Note" d="m790.36 835.23c-1.7885-3.2789-5.5642-5.0674-10.135-5.0674-3.3782 0-7.0546.9936-10.632 2.8814-6.5578 3.4776-10.532 9.3398-10.532 14.407 0 1.391.29808 2.7821.9936 4.0738 1.7885 3.2789 5.5642 4.968 10.135 4.968 3.3782 0 7.0546-.89424 10.632-2.7821 6.5578-3.4776 10.532-9.3398 10.532-14.407 0-1.391-.29808-2.7821-.9936-4.0738" stroke-width=".9936"/>
 <path class="Note" d="m1037.2 822.81c-1.7885-3.2789-5.5642-5.0674-10.135-5.0674-3.3783 0-7.0546.9936-10.632 2.8814-6.5578 3.4776-10.532 9.3398-10.532 14.407 0 1.391.2981 2.7821.9936 4.0738 1.7885 3.2789 5.5642 4.968 10.135 4.968 3.3783 0 7.0546-.89424 10.632-2.7821 6.5578-3.4776 10.532-9.3398 10.532-14.407 0-1.391-.2981-2.7821-.9936-4.0738" stroke-width=".9936"/>
 <path class="Clef" d="m82.817 104.67c-1.2221-5.3953-3.8452-9.1908-4.6202-10.224-3.1696-4.2427-7.1539-7.0744-11.814-8.4158-3.0901-.8842-6.0709-.9936-8.4754-.81475-1.0333-5.9715-2.0269-11.814-2.9311-17.229 5.4151-6.1306 9.012-11.893 11.277-16.166 3.4478-6.5378 4.5904-11.088 4.6401-11.287 1.709-5.1768 2.0667-12.827.97373-20.985-1.0035-7.5017-3.0802-14.169-5.4151-17.398-1.0234-1.4208-2.0667-2.1462-3.1-2.1462-1.2122 0-3.7061 1.2321-6.5776 3.9843-2.2853 2.1859-5.5344 6.051-8.078 12.023-2.9808 7.0149-3.1895 16.444-2.8417 23.121.37757 7.2235 1.4805 12.877 1.4904 12.927.01987.08933.27821 1.5797.72533 4.1333-.22853.22853-.46699.44712-.71539.68568-1.0333.9936-2.2157 2.1262-3.5869 3.4974-.8545.8546-1.7984 1.7587-2.792 2.7225-8.3959 8.088-21.104 20.329-21.104 39.356 0 4.6699.89424 9.0616 2.6628 13.046 1.5799 3.577 3.8651 6.836 6.7764 9.6876 7.6805 7.5017 18.203 10.691 25.218 10.532 2.9311-.0696 5.5443-.30811 7.919-.75523 1.8183 9.5386 2.951 16.524 2.9907 21.829.03974 6.4683-1.5997 10.413-5.4747 13.165-2.4144 1.7189-5.2065 2.6628-8.2866 2.8119-2.5734.11923-4.819-.34776-6.2398-.75504h-.0099s-.28814-.0795-.29808-.27821c-.0099-.17894.33782-.22862.34776-.22862h.01987c1.9077-.43709 5.4549-1.6592 7.7998-4.9381 1.7885-2.5039 2.6529-7.0944.82469-11.009-1.1029-2.3746-3.5968-5.3057-9.1809-5.7528-2.4741-.19872-4.7295.30792-6.7167 1.5002-1.7984 1.0731-3.2888 2.7026-4.3321 4.6898-2.4443 4.6699-1.9872 10.363 1.1228 14.179 2.9411 3.5968 7.5315 5.892 12.927 6.4682.84456.0895 1.6891.12917 2.5337.12917 4.4016 0 8.7735-1.1923 12.321-3.3882 3.6366-2.5536 5.743-6.5081 6.4187-12.102.55642-4.6104.16891-10.482-1.2221-18.501-.3577-2.0766-.89424-5.0872-1.55-8.8231 5.7132-1.9078 9.8466-5.455 13.592-11.268 3.2689-5.7032 4.2029-11.764 2.7821-18.024m-33.991 26.022c-4.6103-1.2122-9.012-3.6962-12.748-7.1738-1.3016-1.2221-3.1596-3.3782-4.6202-6.7465-1.3612-3.1398-2.017-6.5479-1.9673-10.115.06957-4.66 1.3712-9.4492 3.8651-14.208 2.9013-5.5444 7.4321-11.039 13.453-16.335 1.4407-1.2717 2.802-2.5435 4.0837-3.8154.75514 4.2328 1.5798 8.8927 2.4542 13.742-3.8254 1.2618-8.545 4.3916-11.635 10.005-3.5173 6.528-3.3782 12.013-2.6529 15.47.93398 4.4315 3.4478 8.1674 6.8856 10.244.92405.55632 5.0276 2.6727 6.8558 2.0964.36763-.11923.6359-.33782.77501-.66571.50674-1.1625-.50674-1.7983-2.0568-2.7523-.59616-.36756-1.2619-.78489-1.9872-1.3115-3.2988-2.4741-4.7395-6.8956-3.6763-11.248.57629-2.3846 1.8481-4.5309 3.6763-6.22 1.6593-1.5401 3.6863-2.633 6.051-3.2688 2.0269 11.168 4.0738 22.247 5.7033 30.553.12917.68549.26827 1.3512.39744 2.0169-4.352.92405-8.6741.83472-12.857-.26827m11.248-32.968c10.284-.46699 14.526 6.9254 15.411 11.725.46699 2.5138.45706 6.9254-1.0731 11.108-1.1625 3.1596-3.6068 7.2036-8.7039 9.2505-.06955-.41731-.14904-.84456-.22853-1.2719-1.5301-8.7138-3.4577-19.634-5.4052-30.812m-7.2732-70.486c1.7686-5.7032 4.4911-8.9324 6.4683-10.651 1.7388-1.5103 3.3782-2.2158 4.2924-2.2158.1391 0 .25834.01987.3577.04968.45706.1391.98366.70556 1.4507 1.57 2.2952 4.2624 1.56 10.93.22853 15.341-1.6196 5.3654-4.5209 10.949-13.265 20.498-.16891-1.1029-.32789-2.1462-.47693-3.1198-1.242-8.237-.92405-15.461.94392-21.472" stroke-width=".9936"/>
 <path class="Clef" d="m82.817 452.43c-1.2221-5.3953-3.8452-9.1908-4.6202-10.224-3.1696-4.2427-7.1539-7.0744-11.814-8.4158-3.0901-.88421-6.0709-.9936-8.4754-.81475-1.0333-5.9715-2.0269-11.814-2.9311-17.229 5.4151-6.1306 9.012-11.893 11.277-16.166 3.4478-6.5378 4.5904-11.088 4.6401-11.287 1.709-5.1768 2.0667-12.827.97373-20.985-1.0035-7.5017-3.0802-14.169-5.4151-17.398-1.0234-1.4208-2.0667-2.1462-3.1-2.1462-1.2122 0-3.7061 1.2321-6.5776 3.9843-2.2853 2.1859-5.5344 6.051-8.078 12.023-2.9808 7.0149-3.1895 16.444-2.8417 23.121.37757 7.2235 1.4805 12.877 1.4904 12.927.01987.0893.27821 1.5797.72533 4.1333-.22853.22853-.46699.44712-.71539.68568-1.0333.9936-2.2157 2.1262-3.5869 3.4974-.8545.85459-1.7984 1.7587-2.792 2.7225-8.3959 8.088-21.104 20.329-21.104 39.356 0 4.6699.89424 9.0616 2.6628 13.046 1.5799 3.577 3.8651 6.836 6.7764 9.6876 7.6805 7.5017 18.203 10.691 25.218 10.532 2.9311-.0695 5.5443-.30811 7.919-.75523 1.8183 9.5386 2.951 16.524 2.9907 21.829.03974 6.4683-1.5997 10.413-5.4747 13.165-2.4144 1.7189-5.2065 2.6628-8.2866 2.8119-2.5734.11923-4.819-.34776-6.2398-.75504h-.0099s-.28814-.0795-.29808-.27821c-.0099-.17894.33782-.22862.34776-.22862h.01987c1.9077-.43709 5.4549-1.6592 7.7998-4.9381 1.7885-2.5039 2.6529-7.0944.82469-11.009-1.1029-2.3746-3.5968-5.3057-9.1809-5.7528-2.4741-.19872-4.7295.30792-6.7167 1.5002-1.7984 1.0731-3.2888 2.7026-4.3321 4.6898-2.4443 4.6699-1.9872 10.363 1.1228 14.179 2.9411 3.5968 7.5315 5.892 12.927 6.4682.84456.0895 1.6891.12917 2.5337.12917 4.4016 0 8.7735-1.1923 12.321-3.3882 3.6366-2.5536 5.743-6.5081 6.4187-12.102.55642-4.6104.16891-10.482-1.2221-18.501-.3577-2.0766-.89424-5.0872-1.55-8.8231 5.7132-1.9078 9.8466-5.455 13.592-11.268 3.2689-5.7032 4.2029-11.764 2.7821-18.024m-33.991 26.022c-4.6103-1.2122-9.012-3.6962-12.748-7.1738-1.3016-1.2221-3.1596-3.3782-4.6202-6.7465-1.3612-3.1398-2.017-6.5479-1.9673-10.115.06957-4.66 1.3712-9.4492 3.8651-14.208 2.9013-5.5444 7.4321-11.039 13.453-16.335 1.4407-1.2717 2.802-2.5435 4.0837-3.8154.75514 4.2328 1.5798 8.8927 2.4542 13.742-3.8254 1.2618-8.545 4.3916-11.635 10.005-3.5173 6.528-3.3782 12.013-2.6529 15.47.93398 4.4315 3.4478 8.1674 6.8856 10.244.92405.55632 5.0276 2.6727 6.8558 2.0964.36763-.11923.6359-.33782.77501-.66571.50674-1.1625-.50674-1.7983-2.0568-2.7523-.59616-.36756-1.2619-.78489-1.9872-1.3115-3.2988-2.4741-4.7395-6.8956-3.6763-11.248.57629-2.3846 1.8481-4.5309 3.6763-6.22 1.6593-1.5401 3.6863-2.633 6.051-3.2688 2.0269 11.168 4.0738 22.247 5.7033 30.553.12917.68549.26827 1.3512.39744 2.0169-4.352.92405-8.6741.83472-12.857-.26827m11.248-32.968c10.284-.46699 14.526 6.9254 15.411 11.725.46699 2.5138.45706 6.9254-1.0731 11.108-1.1625 3.1596-3.6068 7.2036-8.7039 9.2505-.06955-.41731-.14904-.84456-.22853-1.2719-1.5301-8.7138-3.4577-19.634-5.4052-30.812m-7.2732-70.486c1.7686-5.7032 4.4911-8.9324 6.4683-10.651 1.7388-1.5103 3.3782-2.2158 4.2924-2.2158.1391 0 .25834.0199.3577.0497.45706.1391.98366.70555 1.4507 1.57 2.2952 4.2624 1.56 10.93.22853 15.341-1.6196 5.3654-4.5209 10.949-13.265 20.498-.16891-1.1029-.32789-2.1462-.47693-3.1198-1.242-8.237-.92405-15.461.94392-21.472" stroke-width=".9936"/>
 <path class="Clef" d="m82.817 800.19c-1.2221-5.3953-3.8452-9.1908-4.6202-10.224-3.1696-4.2427-7.1539-7.0744-11.814-8.4158-3.0901-.88421-6.0709-.9936-8.4754-.81475-1.0333-5.9715-2.0269-11.814-2.9311-17.229 5.4151-6.1306 9.012-11.893 11.277-16.166 3.4478-6.5378 4.5904-11.088 4.6401-11.287 1.709-5.1768 2.0667-12.827.97373-20.985-1.0035-7.5017-3.0802-14.169-5.4151-17.398-1.0234-1.4208-2.0667-2.1462-3.1-2.1462-1.2122 0-3.7061 1.2321-6.5776 3.9843-2.2853 2.1859-5.5344 6.051-8.078 12.023-2.9808 7.0149-3.1895 16.444-2.8417 23.121.37757 7.2235 1.4805 12.877 1.4904 12.927.01987.0893.27821 1.5797.72533 4.1333-.22853.22853-.46699.44712-.71539.68568-1.0333.9936-2.2157 2.1262-3.5869 3.4974-.8545.85459-1.7984 1.7587-2.792 2.7225-8.3959 8.088-21.104 20.329-21.104 39.356 0 4.6699.89424 9.0616 2.6628 13.046 1.5799 3.577 3.8651 6.836 6.7764 9.6876 7.6805 7.5017 18.203 10.691 25.218 10.532 2.9311-.0695 5.5443-.30811 7.919-.75523 1.8183 9.5386 2.951 16.524 2.9907 21.829.03974 6.4683-1.5997 10.413-5.4747 13.165-2.4144 1.7189-5.2065 2.6628-8.2866 2.8119-2.5734.11923-4.819-.34776-6.2398-.75504h-.0099s-.28814-.0795-.29808-.27821c-.0099-.17894.33782-.22862.34776-.22862h.01987c1.9077-.43709 5.4549-1.6592 7.7998-4.9381 1.7885-2.5039 2.6529-7.0944.82469-11.009-1.1029-2.3746-3.5968-5.3057-9.1809-5.7528-2.4741-.19872-4.7295.30792-6.7167 1.5002-1.7984 1.0731-3.2888 2.7026-4.3321 4.6898-2.4443 4.6699-1.9872 10.363 1.1228 14.179 2.9411 3.5968 7.5315 5.892 12.927 6.4682.84456.0895 1.6891.12917 2.5337.12917 4.4016 0 8.7735-1.1923 12.321-3.3882 3.6366-2.5536 5.743-6.5081 6.4187-12.102.55642-4.6104.16891-10.482-1.2221-18.501-.3577-2.0766-.89424-5.0872-1.55-8.8231 5.7132-1.9078 9.8466-5.455 13.592-11.268 3.2689-5.7032 4.2029-11.764 2.7821-18.024m-33.991 26.022c-4.6103-1.2122-9.012-3.6962-12.748-7.1738-1.3016-1.2221-3.1596-3.3782-4.6202-6.7465-1.3612-3.1398-2.017-6.5479-1.9673-10.115.06957-4.66 1.3712-9.4492 3.8651-14.208 2.9013-5.5444 7.4321-11.039 13.453-16.335 1.4407-1.2717 2.802-2.5435 4.0837-3.8154.75514 4.2328 1.5798 8.8927 2.4542 13.742-3.8254 1.2618-8.545 4.3916-11.635 10.005-3.5173 6.528-3.3782 12.013-2.6529 15.47.93398 4.4315 3.4478 8.1674 6.8856 10.244.92405.55632 5.0276 2.6727 6.8558 2.0964.36763-.11923.6359-.33782.77501-.66571.50674-1.1625-.50674-1.7983-2.0568-2.7523-.59616-.36756-1.2619-.78489-1.9872-1.3115-3.2988-2.4741-4.7395-6.8956-3.6763-11.248.57629-2.3846 1.8481-4.5309 3.6763-6.22 1.6593-1.5401 3.6863-2.633 6.051-3.2688 2.0269 11.168 4.0738 22.247 5.7033 30.553.12917.68549.26827 1.3512.39744 2.0169-4.352.92405-8.6741.83472-12.857-.26827m11.248-32.968c10.284-.46699 14.526 6.9254 15.411 11.725.46699 2.5138.45706 6.9254-1.0731 11.108-1.1625 3.1596-3.6068 7.2036-8.7039 9.2505-.06955-.41731-.14904-.84456-.22853-1.2719-1.5301-8.7138-3.4577-19.634-5.4052-30.812m-7.2732-70.486c1.7686-5.7032 4.4911-8.9324 6.4683-10.651 1.7388-1.5103 3.3782-2.2158 4.2924-2.2158.1391 0 .25834.0199.3577.0497.45706.1391.98366.70555 1.4507 1.57 2.2952 4.2624 1.56 10.93.22853 15.341-1.6196 5.3654-4.5209 10.949-13.265 20.498-.16891-1.1029-.32789-2.1462-.47693-3.1198-1.242-8.237-.92405-15.461.94392-21.472" stroke-width=".9936"/>
 <path class="KeySig" d="m131.44 25.446c.59616-.09936 1.093-.79488 1.093-1.391v-5.8622c0-.79488-.59616-1.391-1.391-1.391h-.19872l-3.2789.69552v-14.805h-2.7821v15.401l-8.843 1.7885v-14.01h-2.7821v14.606l-3.875.79488c-.59616.09936-1.093.79488-1.093 1.391v5.9616-.19872c0 .79488.59616 1.391 1.391 1.391h.29808l3.2789-.69552v16.394l-3.875.79488c-.59616.09936-1.093.79488-1.093 1.391v5.7629c0 .79488.59616 1.391 1.391 1.391h.29808l3.2789-.69552v14.805h2.7821v-15.401l8.843-1.7885v14.01h2.7821v-14.606l3.7757-.69552c.59616-.09936 1.093-.79488 1.093-1.391v-5.8622c0-.79488-.59616-1.391-1.391-1.391h-.19872l-3.2789.69552v-16.394l3.7757-.69552m-15.401 19.574v-16.494l8.843-1.7885v16.394l-8.843 1.8878" stroke-width=".9936"/>
 <path class="KeySig" d="m131.44 373.21c.59616-.0994 1.093-.79488 1.093-1.391v-5.8622c0-.79488-.59616-1.391-1.391-1.391h-.19872l-3.2789.69552v-14.805h-2.7821v15.401l-8.843 1.7885v-14.01h-2.7821v14.606l-3.875.79488c-.59616.0994-1.093.79488-1.093 1.391v5.9616-.19872c0 .79488.59616 1.391 1.391 1.391h.29808l3.2789-.69552v16.394l-3.875.79488c-.59616.0994-1.093.79488-1.093 1.391v5.7629c0 .79488.59616 1.391 1.391 1.391h.29808l3.2789-.69552v14.805h2.7821v-15.401l8.843-1.7885v14.01h2.7821v-14.606l3.7757-.69552c.59616-.0994 1.093-.79488 1.093-1.391v-5.8622c0-.79488-.59616-1.391-1.391-1.391h-.19872l-3.2789.69552v-16.394l3.7757-.69552m-15.401 19.574v-16.494l8.843-1.7885v16.394l-8.843 1.8878" stroke-width=".9936"/>
 <path class="KeySig" d="m131.44 720.97c.59616-.0994 1.093-.79488 1.093-1.391v-5.8622c0-.79488-.59616-1.391-1.391-1.391h-.19872l-3.2789.69552v-14.805h-2.7821v15.401l-8.843 1.7885v-14.01h-2.7821v14.606l-3.875.79488c-.59616.0994-1.093.79488-1.093 1.391v5.9616-.19872c0 .79488.59616 1.391 1.391 1.391h.29808l3.2789-.69552v16.394l-3.875.79488c-.59616.0994-1.093.79488-1.093 1.391v5.7629c0 .79488.59616 1.391 1.391 1.391h.29808l3.2789-.69552v14.805h2.7821v-15.401l8.843-1.7885v14.01h2.7821v-14.606l3.7757-.69552c.59616-.0994 1.093-.79488 1.093-1.391v-5.8622c0-.79488-.59616-1.391-1.391-1.391h-.19872l-3.2789.69552v-16.394l3.7757-.69552m-15.401 19.574v-16.494l8.843-1.7885v16.394l-8.843 1.8878" stroke-width=".9936"/>
 <path class="TimeSig" d="m193.26 65.19c-.79488 2.1859-2.7821 9.3398-7.6507 9.3398-6.4584 0-7.8494-3.9744-13.215-3.9744-.79488 0-1.5898.09936-2.5834.29808 0 0 2.484-3.7757 13.016-7.0546s13.215-8.4456 13.215-14.407c0-4.1731-1.8878-12.42-16.891-12.42s-17.785 9.0418-17.785 13.612c0 4.0738 3.3782 7.3526 7.452 7.3526s7.3526-3.2789 7.3526-7.3526c0-2.7821-1.9872-5.8622-4.5706-6.8558-.29808-.09936-.69552-.59616-.69552-1.093 0-.59616.4968-1.2917 2.2853-1.7885.4968-.19872 1.8878-.4968 3.3782-.4968 1.391 0 2.9808.29808 4.1731 1.093 1.8878 1.1923 2.5834 2.9808 2.5834 7.452 0 11.625-13.811 14.109-19.574 22.753 0 0-2.9808 4.1731-2.9808 8.843s2.3846 4.968 3.577 4.968c1.5898 0 3.2789-1.2917 3.2789-3.0802 0-.39744-.0994-.79488-.29808-1.2917-.59616-1.391-.79488-2.484-.79488-3.2789 0-.29808 0-.59616.0994-.89424.0994-.59616.89424-1.5898 3.2789-1.5898 2.8814 0 3.9744 3.3782 5.7629 5.9616s4.5706 4.1731 7.7501 4.1731 7.452-2.2853 9.2405-5.9616 4.0738-11.128 4.0738-13.811c0-1.2917-.79488-1.8878-1.6891-1.8878-.69552 0-1.391.39744-1.7885 1.391" stroke-width=".9936"/>
 <path class="TimeSig" d="m159.57 122.94h17.07v7.3725h-8.1773c-.7749 0-1.4009.62597-1.4009 1.401v1.8978c0 .77501.62597 1.401 1.4009 1.401h30.056c.77501 0 1.401-.62597 1.401-1.401v-1.8978c0-.775-.62597-1.401-1.401-1.401h-8.8828v-7.3725h8.8828c.77501 0 1.401-.62597 1.401-1.401v-1.8978c0-.77498-.62597-1.4009-1.401-1.4009h-8.8828v-15.858c0-.53648-.29808-1.0134-.77501-1.2519l-1.2022-.59616c-.52661-.25834-1.1527-.16892-1.5799.2285l-8.9921 8.2668c-.28804.26829-.45695.63594-.45695 1.0334v8.1773h-11.436s11.049-11.953 22.813-27.622c.86443-1.1426.36763-2.1859.17874-2.3747l-2.1561-2.1959c-.26827-.25834-.62597-.40738-.9936-.40738-.59616 0-14.059.01987-14.775 0-.71529-.01987-1.2519.59616-1.3215 1.2122 0 0-.53644 7.3129-3.1198 15.391-2.5834 8.068-5.5046 13.016-8.1475 16.623 0 0-.53659.9837-.17893 1.7189.34776.7452.97381 1.8282.97381 1.8282s.25829.52661 1.1028.52661" stroke-width=".9936"/>
 <path class="Rest" d="m1226 797.97-.1987-.29808c-.099-.0994-.2981-.29808-.5962-.69552l-11.426-14.109c-.298-.29808-.1987-1.093 0-1.4904l10.135-15.301c.099-.19872.1987-.4968.1987-.69552v-.89424c0-.29808-.099-.59616-.2981-.79488l-16.096-21.76s-.7949-1.1923-1.7885-.29808c-.9936.79488-.1987 2.0866-.1987 2.0866l7.5513 10.333c.3975.59616.3975 1.7885 0 2.3846l-10.035 15.301c-.099.19872-.1987.59616-.1987.79488v.89424c0 .29808.099.59616.298.79488l11.128 13.811c-.3975-.0994-1.2917-.29808-2.484-.29808-1.6892 0-3.8751.39744-5.6636 1.9872-2.1859 1.9872-3.3782 4.7693-3.3782 7.2533 0 1.391.2981 2.7821 1.093 3.875 2.0865 3.1795 9.5385 12.619 9.5385 12.619s.8943 1.093 1.7885.39744.6955-1.5898.3974-2.0866c-.298-.4968-3.4776-6.2597-3.4776-6.2597s-.6955-1.391-.6955-3.1795c0-1.2917.3975-2.8814 1.6891-4.1731 1.1924-1.1923 2.5834-1.5898 3.8751-1.5898s2.3846.39744 3.1795.89424l3.875 2.484s1.1924.59616 1.7885-.29808c.4968-.79488.2981-1.1923 0-1.6891" stroke-width=".9936"/>
 <path class="Beam" d="m698.73 4.7123 87.9 6.41v12.452l-87.9-6.409v-12.453" fill-rule="evenodd"/>
 <path class="Beam" d="m224.18 377.3 84.434 6.418v12.456l-84.434-6.418v-12.456" fill-rule="evenodd"/>
 <path class="Hook" d="m410.41 173c0-.19872.89424-3.577.9936-3.875.0994-.39744 1.8878-6.061 5.5642-11.724 2.6827-4.1731 12.122-16.394 11.824-16.394 0 0 7.3526-9.4392 7.8494-22.257v-2.2853c0-6.061-.79488-14.606-4.2725-23.25-.39744-.9936-.79488-1.9872-1.8878-1.5898s-.79488 1.5898-.4968 2.6827c1.7885 6.9552 2.7821 14.109 2.7821 21.263 0 8.3462-2.9808 12.519-4.7693 15.6-6.5578 11.029-15.103 16.394-19.276 17.785-.4968.19872-.79488.59616-.79488 1.093v22.455c0 .69552.59616 1.2917 1.2917 1.2917.4968 0 1.093-.39744 1.1923-.79488" stroke-width=".9936"/>
 <path class="Hook" d="m509.37 148.16c0-.19872.89424-3.577.9936-3.875.0994-.39744 1.8878-6.061 5.5642-11.724 2.6827-4.1731 12.122-16.394 11.824-16.394 0 0 7.3526-9.4392 7.8494-22.257v-2.2853c0-6.061-.79488-14.606-4.2725-23.25-.39744-.9936-.79488-1.9872-1.8878-1.5898s-.79488 1.5898-.4968 2.6827c1.7885 6.9552 2.7821 14.109 2.7821 21.263 0 8.3462-2.9808 12.519-4.7693 15.6-6.5578 11.029-15.103 16.394-19.276 17.785-.4968.19872-.79488.59616-.79488 1.093v22.455c0 .69552.59616 1.2917 1.2917 1.2917.4968 0 1.093-.39744 1.1923-.79488" stroke-width=".9936"/>
 <path class="Hook" d="m1245.4 20.826c-.099-.29808-.9936-3.7757-.9936-3.9744-.099-.39744-.6955-.69552-1.1923-.69552-.6955 0-1.2917.59616-1.2917 1.2917v22.455c0 .4968.3974.89424.7949 1.093 4.1731 1.2917 12.817 6.7565 19.276 17.785 1.7885 3.0802 4.6699 7.2533 4.6699 15.6 0 7.1539-1.0929 14.705-2.8814 21.66-.2981 1.093-.5962 2.0866.4968 2.484s1.4904-.39744 1.8878-1.391c3.577-8.7437 4.4712-17.885 4.4712-24.045v-1.8878c-.4968-12.817-7.8494-22.257-7.8494-22.257.2981 0-9.1411-12.221-11.824-16.394-3.6764-5.6635-5.4648-11.327-5.5642-11.724" stroke-width=".9936"/>
 <path class="Hook" d="m1352.5 11.511c-.099-.29808-.9936-3.7757-.9936-3.9744-.099-.39744-.6955-.69552-1.1923-.69552-.6955 0-1.2917.59616-1.2917 1.2917v22.455c0 .4968.3974.89424.7949 1.093 4.1731 1.2917 12.817 6.7565 19.276 17.785 1.7885 3.0802 4.6699 7.2533 4.6699 15.6 0 7.1539-1.0929 14.705-2.8814 21.66-.2981 1.093-.5962 2.0866.4968 2.484s1.4904-.39744 1.8878-1.391c3.577-8.7437 4.4712-17.885 4.4712-24.045v-1.8878c-.4968-12.817-7.8494-22.257-7.8494-22.257.2981 0-9.1411-12.221-11.824-16.394-3.6764-5.6635-5.4648-11.327-5.5642-11.724" stroke-width=".9936"/>
 <path class="Hook" d="m568.75 377.9c-.0994-.29808-.9936-3.7757-.9936-3.9744-.0994-.39744-.69552-.69552-1.1923-.69552-.69552 0-1.2917.59616-1.2917 1.2917v22.455c0 .4968.39744.89424.79488 1.093 4.1731 1.2917 12.817 6.7565 19.276 17.785 1.7885 3.0802 4.6699 7.2533 4.6699 15.6 0 7.1539-1.093 14.705-2.8814 21.66-.29808 1.093-.59616 2.0866.4968 2.484s1.4904-.39744 1.8878-1.391c3.577-8.7437 4.4712-17.885 4.4712-24.045v-1.8878c-.4968-12.817-7.8494-22.257-7.8494-22.257.29808 0-9.1411-12.221-11.824-16.394-3.6763-5.6635-5.4648-11.327-5.5642-11.724" stroke-width=".9936"/>
 <path class="Hook" d="m689.14 377.9c-.0994-.29808-.9936-3.7757-.9936-3.9744-.0994-.39744-.69552-.69552-1.1923-.69552-.69552 0-1.2917.59616-1.2917 1.2917v22.455c0 .4968.39744.89424.79488 1.093 4.1731 1.2917 12.817 6.7565 19.276 17.785 1.7885 3.0802 4.6699 7.2533 4.6699 15.6 0 7.1539-1.093 14.705-2.8814 21.66-.29808 1.093-.59616 2.0866.4968 2.484s1.4904-.39744 1.8878-1.391c3.577-8.7437 4.4712-17.885 4.4712-24.045v-1.8878c-.4968-12.817-7.8494-22.257-7.8494-22.257.29808 0-9.1411-12.221-11.824-16.394-3.6763-5.6635-5.4648-11.327-5.5642-11.724" stroke-width=".9936"/>
 <path class="Hook" d="m809.54 387.22c-.0994-.29808-.9936-3.7757-.9936-3.9744-.0994-.39744-.69552-.69552-1.1923-.69552-.69552 0-1.2917.59616-1.2917 1.2917v22.455c0 .4968.39744.89424.79488 1.093 4.1731 1.2917 12.817 6.7565 19.276 17.785 1.7885 3.0802 4.6699 7.2533 4.6699 15.6 0 7.1539-1.093 14.705-2.8814 21.66-.29808 1.093-.59616 2.0866.4968 2.484s1.4904-.39744 1.8878-1.391c3.577-8.7437 4.4712-17.885 4.4712-24.045v-1.8878c-.4968-12.817-7.8494-22.257-7.8494-22.257.29808 0-9.1411-12.221-11.824-16.394-3.6763-5.6635-5.4648-11.327-5.5642-11.724" stroke-width=".9936"/>
 <path class="Hook" d="m929.93 399.64c-.0994-.29808-.9936-3.7757-.9936-3.9744-.0994-.39744-.69552-.69552-1.1923-.69552-.69552 0-1.2917.59616-1.2917 1.2917v22.455c0 .4968.39744.89424.79488 1.093 4.1731 1.2917 12.817 6.7565 19.276 17.785 1.7885 3.0802 4.6699 7.2533 4.6699 15.6 0 7.1539-1.093 14.705-2.8814 21.66-.29808 1.093-.59616 2.0866.4968 2.484s1.4904-.39744 1.8878-1.391c3.577-8.7437 4.4712-17.885 4.4712-24.045v-1.8878c-.4968-12.817-7.8494-22.257-7.8494-22.257.29808 0-9.1411-12.221-11.824-16.394-3.6763-5.6635-5.4648-11.327-5.5642-11.724" stroke-width=".9936"/>
 <path class="Hook" d="m227.66 759.82c-.0994-.29808-.9936-3.7757-.9936-3.9744-.0994-.39744-.69552-.69552-1.1923-.69552-.69552 0-1.2917.59616-1.2917 1.2917v22.455c0 .4968.39744.89424.79488 1.093 4.1731 1.2917 12.817 6.7565 19.276 17.785 1.7885 3.0802 4.6699 7.2533 4.6699 15.6 0 7.1539-1.093 14.705-2.8814 21.66-.29808 1.093-.59616 2.0866.4968 2.484s1.4904-.39744 1.8878-1.391c3.577-8.7437 4.4712-17.885 4.4712-24.045v-1.8878c-.4968-12.817-7.8494-22.257-7.8494-22.257.29808 0-9.1411-12.221-11.824-16.394-3.6763-5.6635-5.4648-11.327-5.5642-11.724" stroke-width=".9936"/>
 <path class="Hook" d="m425.67 826.39c-.0994-5.1667-1.2917-10.532-4.7693-15.003-4.7693-6.1603-11.029-9.2405-14.805-14.705s-5.3654-16.096-5.3654-16.096c-.0994-.69552-.29808-1.1923-1.4904-1.1923s-1.391.4968-1.391 1.1923v38.055c0 .19872.69552.79488 1.391.9936 2.5834.9936 10.433 5.8622 16.394 14.705 3.577 5.4648 4.1731 9.1411 4.1731 12.718v1.093c-.0994 2.484-.69552 7.5514-2.1859 11.526-.29808.89424-.79488 2.1859.19872 2.6827s1.5898-.59616 2.0866-1.2917c1.7885-2.8814 4.3718-8.1475 4.3718-13.811 0-2.7821-.19872-5.2661-.4968-7.3526.9936-3.577 1.8878-8.0482 1.8878-12.718v-.79488m-7.0546 1.391c-2.6827-3.4776-5.6635-6.6571-10.532-11.526-3.875-3.875-5.6635-7.2533-6.359-9.8366-.0994-.19872-.0994-.59616-.19872-.89424l.0994.39744c4.4712.39744 10.532 4.8686 14.308 9.4392 4.4712 5.3654 5.3654 9.5386 5.3654 13.414 0 .9936 0 1.8878-.0994 2.8814-.59616-1.093-1.7885-2.8814-2.5834-3.875" stroke-width=".9936"/>
 <path class="Hook" d="m534.22 826.39c-.0994-5.1667-1.2917-10.532-4.7693-15.003-4.7693-6.1603-11.029-9.2405-14.805-14.705s-5.3654-16.096-5.3654-16.096c-.0994-.69552-.29808-1.1923-1.4904-1.1923s-1.391.4968-1.391 1.1923v38.055c0 .19872.69552.79488 1.391.9936 2.5834.9936 10.433 5.8622 16.394 14.705 3.577 5.4648 4.1731 9.1411 4.1731 12.718v1.093c-.0994 2.484-.69552 7.5514-2.1859 11.526-.29808.89424-.79488 2.1859.19872 2.6827s1.5898-.59616 2.0866-1.2917c1.7885-2.8814 4.3718-8.1475 4.3718-13.811 0-2.7821-.19872-5.2661-.4968-7.3526.9936-3.577 1.8878-8.0482 1.8878-12.718v-.79488m-7.0546 1.391c-2.6827-3.4776-5.6635-6.6571-10.532-11.526-3.875-3.875-5.6635-7.2533-6.359-9.8366-.0994-.19872-.0994-.59616-.19872-.89424l.0994.39744c4.4712.39744 10.532 4.8686 14.308 9.4392 4.4712 5.3654 5.3654 9.5386 5.3654 13.414 0 .9936 0 1.8878-.0994 2.8814-.59616-1.093-1.7885-2.8814-2.5834-3.875" stroke-width=".9936"/>
 <path class="Hook" d="m618.42 759.82c-.0994-.29808-.9936-3.7757-.9936-3.9744-.0994-.39744-.69552-.69552-1.1923-.69552-.69552 0-1.2917.59616-1.2917 1.2917v22.455c0 .4968.39744.89424.79488 1.093 4.1731 1.2917 12.817 6.7565 19.276 17.785 1.7885 3.0802 4.6699 7.2533 4.6699 15.6 0 7.1539-1.093 14.705-2.8814 21.66-.29808 1.093-.59616 2.0866.4968 2.484s1.4904-.39744 1.8878-1.391c3.577-8.7437 4.4712-17.885 4.4712-24.045v-1.8878c-.4968-12.817-7.8494-22.257-7.8494-22.257.29808 0-9.1411-12.221-11.824-16.394-3.6763-5.6635-5.4648-11.327-5.5642-11.724" stroke-width=".9936"/>
 <path class="Hook" d="m792.09 759.82c-.0994-.29808-.9936-3.7757-.9936-3.9744-.0994-.39744-.69552-.69552-1.1923-.69552-.69552 0-1.2917.59616-1.2917 1.2917v22.455c0 .4968.39744.89424.79488 1.093 4.1731 1.2917 12.817 6.7565 19.276 17.785 1.7885 3.0802 4.6699 7.2533 4.6699 15.6 0 7.1539-1.093 14.705-2.8814 21.66-.29808 1.093-.59616 2.0866.4968 2.484s1.4904-.39744 1.8878-1.391c3.577-8.7437 4.4712-17.885 4.4712-24.045v-1.8878c-.4968-12.817-7.8494-22.257-7.8494-22.257.29808 0-9.1411-12.221-11.824-16.394-3.6763-5.6635-5.4648-11.327-5.5642-11.724" stroke-width=".9936"/>
 <path class="Lyrics" d="m233.08 214.84h4.52c3.6 0 5.48-.28 7.12-1.04 2.8-1.36 4.4-3.92 4.4-7.08 0-3.04-1.4-5.36-4.04-6.68-1.56-.8-4.04-1.24-6.8-1.24h-14v1.88h.72c2.28.04 3.04.16 3.36.56.24.36.24.44.24 2.48v19.04c0 2.04 0 2.12-.24 2.48-.32.4-1.08.56-3.36.56h-.72v1.88h13.44v-1.88h-1.04c-2.28 0-3.04-.16-3.36-.56-.24-.36-.24-.44-.24-2.48v-7.92m0-1.88v-10.24c0-1.84.2-2.04 2.44-2.04h2.56c4.16 0 6.12 1.96 6.12 6.2 0 4.12-2.04 6.08-6.28 6.08h-4.84m25.676-4.52c-4.92 0-8.72 4.36-8.72 9.96 0 5.48 3.84 9.88 8.64 9.88s8.64-4.4 8.64-9.92c0-5.48-3.84-9.92-8.56-9.92m0 1.72c2.8 0 4.36 2.92 4.36 8.2 0 5.32-1.56 8.2-4.44 8.2s-4.44-2.88-4.44-8.16c0-5.44 1.52-8.24 4.52-8.24m20-1.72c-4.92 0-8.72 4.36-8.72 9.96 0 5.48 3.84 9.88 8.64 9.88s8.64-4.4 8.64-9.92c0-5.48-3.84-9.92-8.56-9.92m0 1.72c2.8 0 4.36 2.92 4.36 8.2 0 5.32-1.56 8.2-4.44 8.2s-4.44-2.88-4.44-8.16c0-5.44 1.52-8.24 4.52-8.24m17.84-1.12-7.08.44v1.72h1.64c1.52.04 1.72.28 1.72 2v11.44c-.04.6-.08.84-.24 1.04-.28.36-1.08.52-2.8.56h-.16v1.44h10.68v-1.44h-.72c-2.68-.08-3.04-.28-3.04-1.72v-2.16c.04-6.72 2.44-11.84 5.56-12-.56.64-.72 1.04-.72 1.8 0 1.28.92 2.2 2.2 2.2 1.48 0 2.44-1.08 2.44-2.68 0-1.96-1.36-3.24-3.48-3.24-2.52 0-4.68 2-6 5.56v-4.96"/>
 <path class="Lyrics" d="m409.65 213.68h2.32c4.04.16 5.64 1.8 6.08 6.2l.2 2.04c.48 4.52 1.96 6.36 5.12 6.36 3.28 0 4.84-2.2 4.96-7h-1.68c-.16 2.76-.64 3.96-1.72 3.96-.92 0-1.32-.68-2-3.44l-.64-2.52c-.88-3.68-2.44-5.36-5.56-6.16 5.76-.8 8.52-3.12 8.52-7.16 0-4.56-3.84-7.16-10.56-7.16h-13.84v1.88h.72c2.28.04 3.04.16 3.36.56.24.36.24.44.24 2.48v19.08c0 2 0 2.08-.24 2.48-.32.4-1.08.52-3.36.52h-.72v1.88h13.12v-1.88h-.72c-2.28 0-3.04-.12-3.36-.52-.24-.4-.24-.48-.24-2.48v-9.12m0-1.88v-8.8c-.08-2.2.12-2.36 2.76-2.32h2.16c3.96 0 5.76 1.68 5.76 5.32 0 2.04-.52 3.6-1.56 4.44-1 .84-2.8 1.36-4.72 1.36h-4.4m29.63-3.36c-4.92 0-8.72 4.36-8.72 9.96 0 5.48 3.84 9.88 8.64 9.88s8.64-4.4 8.64-9.92c0-5.48-3.84-9.92-8.56-9.92m0 1.72c2.8 0 4.36 2.92 4.36 8.2 0 5.32-1.56 8.2-4.44 8.2s-4.44-2.88-4.44-8.16c0-5.44 1.52-8.24 4.52-8.24"/>
 <path class="Lyrics" d="m518.82 208.6h-1.4l-1.16 1.44c-1.44-1.12-2.88-1.6-4.88-1.6-3.52 0-5.84 2.28-5.84 5.8 0 1.56.52 2.88 1.4 3.68.92.84 1.84 1.24 4.24 1.8l2.12.48c3.16.76 4.28 1.56 4.28 3.16 0 1.88-1.64 3.2-3.96 3.2-3.4 0-5.8-2.16-6.76-6.16h-1.6v7.56h1.4l1.4-1.64c1.64 1.32 3.44 1.96 5.48 1.96 3.92 0 6.52-2.44 6.52-6.16 0-1.76-.56-3.12-1.68-4.04-.96-.84-1.76-1.16-4.2-1.68l-2-.44c-2.2-.48-2.2-.48-2.92-.88-.88-.4-1.4-1.24-1.4-2.12 0-1.64 1.52-2.76 3.72-2.76 1.52 0 2.76.52 3.88 1.6.88.88 1.32 1.68 1.96 3.52h1.4v-6.72m14.556 14-4.4-10.28c-.16-.4-.24-.6-.24-.8 0-.76.48-1.04 1.84-1.04h.84v-1.44h-9.52v1.44h.44c1.36.04 1.88.44 2.72 2.16l6.52 14.76-.68 1.4c-1.44 3.04-3.32 5.16-4.6 5.16-.36 0-.64-.16-.64-.4 0-.08.04-.2.08-.36.12-.36.2-.72.2-1.04 0-1.04-.84-1.8-2.04-1.8-1.4 0-2.4 1.04-2.4 2.48 0 1.8 1.52 3.08 3.64 3.08s3.92-1.04 5.52-3.2c1.24-1.64 2.04-3.32 3.8-7.68l4.56-11.32c.92-2.32 1.8-3.2 3.36-3.24h.24v-1.44h-8v1.44h.64c1.52 0 2.16.44 2.16 1.48 0 .44-.12.92-.4 1.6l-3.64 9.04m9.996 12.44c3.6-2.48 5.24-4.92 5.24-7.72 0-2.4-1.32-3.96-3.28-3.96-1.48 0-2.6 1.04-2.6 2.4 0 1.44 1.08 2.36 2.76 2.36.2 0 .48 0 .6-.04h.12c.2 0 .28.12.28.36 0 1.68-1.36 3.56-4.04 5.44l.92 1.16"/>
 <path class="Lyrics" d="m652.65 209.04-6.92.44v1.72h1.44c1.52.04 1.72.28 1.72 2v19.56c-.04.56-.08.8-.24 1-.28.36-1.04.52-2.76.56h-.16v1.44h10.4v-1.44h-.44c-2.68-.08-3.04-.28-3.04-1.72v-7.56c1.32 2.32 2.8 3.24 5.28 3.24 2.44 0 4.44-1.04 5.884-3 1.4-1.92 2.2-4.4 2.2-7s-.8-5.04-2.28-6.96c-1.484-1.92-3.324-2.88-5.564-2.88-2.48 0-4.12 1.04-5.52 3.44v-2.84m4.8 1.56c2.76 0 4.36 2.76 4.36 7.44 0 5.16-1.6 8.08-4.48 8.08s-4.72-2.96-4.72-7.56c0-5 1.8-7.96 4.84-7.96m20.194-2.16c-4.92 0-8.72 4.36-8.72 9.96 0 5.48 3.84 9.88 8.64 9.88s8.64-4.4 8.64-9.92c0-5.48-3.84-9.92-8.56-9.92m0 1.72c2.8 0 4.36 2.92 4.36 8.2 0 5.32-1.56 8.2-4.44 8.2s-4.44-2.88-4.44-8.16c0-5.44 1.52-8.24 4.52-8.24m20-1.72c-4.92 0-8.72 4.36-8.72 9.96 0 5.48 3.84 9.88 8.64 9.88s8.64-4.4 8.64-9.92c0-5.48-3.84-9.92-8.56-9.92m0 1.72c2.8 0 4.36 2.92 4.36 8.2 0 5.32-1.56 8.2-4.44 8.2s-4.44-2.88-4.44-8.16c0-5.44 1.52-8.24 4.52-8.24m17.84-1.12-7.08.44v1.72h1.64c1.52.04 1.72.28 1.72 2v11.44c-.04.6-.08.84-.24 1.04-.28.36-1.08.52-2.8.56h-.16v1.44h10.68v-1.44h-.72c-2.68-.08-3.04-.28-3.04-1.72v-2.16c.04-6.72 2.44-11.84 5.56-12-.56.64-.72 1.04-.72 1.8 0 1.28.92 2.2 2.2 2.2 1.48 0 2.44-1.08 2.44-2.68 0-1.96-1.36-3.24-3.48-3.24-2.52 0-4.68 2-6 5.56v-4.96"/>
 <path class="Lyrics" d="m835.47 224.72c-2.2-.04-2.32-.08-2.8-.36-.28-.16-.48-.6-.48-1.04 0-1.2 1.08-1.72 3.76-1.8 3.76-.08 4.36-.16 5.72-.76 2.4-1.08 3.72-3.16 3.72-5.8 0-1.6-.36-2.6-1.44-3.92.68-.72 1.04-.96 1.36-.96.2 0 .32.12.4.56.16.96.8 1.48 1.8 1.48 1.04 0 1.8-.84 1.8-1.92 0-1.36-1.08-2.32-2.64-2.32-1.28 0-2 .4-3.84 2.08-1.68-1.12-2.96-1.52-4.96-1.52-4.76 0-7.88 2.64-7.88 6.64 0 2.36 1.28 4.36 3.36 5.36-2.68.6-3.8 1.8-3.8 4 0 1.76.8 2.8 2.68 3.44-2.48.92-3.68 2.16-3.68 3.8 0 1.2.8 2.32 2.08 3 1.56.8 3.48 1.12 6.36 1.12 6.68 0 10-2.12 10-6.32 0-2-.92-3.6-2.36-4.2-1.08-.4-2.36-.56-5.08-.56h-4.08m2.36-14.56c2.48 0 3.88 1.72 3.88 4.84s-1.52 5-4.04 5c-2.48 0-4.04-1.88-4.04-4.88 0-3.16 1.52-4.96 4.2-4.96m-.36 18c3.32 0 3.56 0 4.12.08 1.64.16 2.6 1.04 2.6 2.32 0 2.28-2.6 3.6-7.04 3.6-3.4 0-5.28-1-5.28-2.8 0-1.32.72-2.2 2.64-3.2h2.96m29.47-13.36c0-2.52-.44-3.8-1.6-4.76-1.32-1.08-3.28-1.6-5.84-1.6-4.52 0-7.8 2.12-7.8 5.04 0 1.48.92 2.44 2.32 2.44 1.28 0 2.16-.84 2.16-2.04 0-.52-.2-1.08-.6-1.64-.24-.28-.28-.36-.28-.56 0-.8 1.6-1.52 3.52-1.52 1.28 0 2.68.4 3.32 1 .76.64 1.04 1.6 1.04 3.4v1.56c-4.16.72-5.48 1.04-7.44 1.8-3.48 1.28-5.12 3.12-5.12 5.68 0 2.88 2.24 4.68 5.8 4.68 2.76 0 5.24-1.12 6.96-3.16.64 2.04 1.64 2.84 3.52 2.84 1.8 0 3.68-1.16 3.68-2.32 0-.28-.16-.48-.4-.48-.16 0-.32.04-.6.16-.56.24-.8.28-1.12.28-1.12 0-1.52-.72-1.52-2.76v-8.04m-3.76 4.88c0 2.4-.12 2.96-.8 4-1 1.48-2.8 2.48-4.56 2.48-1.84 0-3.16-1.32-3.16-3.12 0-1.68.84-2.88 2.6-3.72 1.24-.56 2.8-.96 5.92-1.48v1.84m16.08-21.48-7.4.44v1.72h1.96c1.48.04 1.68.28 1.68 2v22.28c-.04.6-.08.84-.24 1.04-.28.36-1.04.52-2.76.56h-.28v1.44h10.36v-1.44h-.28c-2.68-.08-3.04-.28-3.04-1.72v-26.32m8.23 36.84c3.6-2.48 5.24-4.92 5.24-7.72 0-2.4-1.32-3.96-3.28-3.96-1.48 0-2.6 1.04-2.6 2.4 0 1.44 1.08 2.36 2.76 2.36.2 0 .48 0 .6-.04h.12c.2 0 .28.12.28.36 0 1.68-1.36 3.56-4.04 5.44l.92 1.16m2.2-26.24c-1.4 0-2.52 1.12-2.52 2.48 0 1.4 1.12 2.52 2.48 2.52 1.4 0 2.52-1.12 2.52-2.52 0-1.36-1.12-2.48-2.48-2.48"/>
 <path class="Lyrics" d="m1024.4 214.84h4.52c3.6 0 5.48-.28 7.12-1.04 2.8-1.36 4.4-3.92 4.4-7.08 0-3.04-1.4-5.36-4.04-6.68-1.56-.8-4.04-1.24-6.8-1.24h-14v1.88h.72c2.28.04 3.04.16 3.36.56.24.36.24.44.24 2.48v19.04c0 2.04 0 2.12-.24 2.48-.32.4-1.08.56-3.36.56h-.72v1.88h13.44v-1.88h-1.04c-2.28 0-3.04-.16-3.36-.56-.24-.36-.24-.44-.24-2.48v-7.92m0-1.88v-10.24c0-1.84.2-2.04 2.44-2.04h2.56c4.16 0 6.12 1.96 6.12 6.2 0 4.12-2.04 6.08-6.28 6.08h-4.84m25.67-4.52c-4.92 0-8.72 4.36-8.72 9.96 0 5.48 3.84 9.88 8.64 9.88s8.64-4.4 8.64-9.92c0-5.48-3.84-9.92-8.56-9.92m0 1.72c2.8 0 4.36 2.92 4.36 8.2 0 5.32-1.56 8.2-4.44 8.2s-4.44-2.88-4.44-8.16c0-5.44 1.52-8.24 4.52-8.24m20-1.72c-4.92 0-8.72 4.36-8.72 9.96 0 5.48 3.84 9.88 8.64 9.88s8.64-4.4 8.64-9.92c0-5.48-3.84-9.92-8.56-9.92m0 1.72c2.8 0 4.36 2.92 4.36 8.2 0 5.32-1.56 8.2-4.44 8.2s-4.44-2.88-4.44-8.16c0-5.44 1.52-8.24 4.52-8.24m17.84-1.12-7.08.44v1.72h1.64c1.52.04 1.72.28 1.72 2v11.44c-.04.6-.08.84-.24 1.04-.28.36-1.08.52-2.8.56h-.16v1.44h10.68v-1.44h-.72c-2.68-.08-3.04-.28-3.04-1.72v-2.16c.04-6.72 2.44-11.84 5.56-12-.56.64-.72 1.04-.72 1.8 0 1.28.92 2.2 2.2 2.2 1.48 0 2.44-1.08 2.44-2.68 0-1.96-1.36-3.24-3.48-3.24-2.52 0-4.68 2-6 5.56v-4.96"/>
 <path class="Lyrics" d="m1214 213.68h2.32c4.04.16 5.64 1.8 6.08 6.2l.2 2.04c.48 4.52 1.96 6.36 5.12 6.36 3.28 0 4.84-2.2 4.96-7h-1.68c-.16 2.76-.64 3.96-1.72 3.96-.92 0-1.32-.68-2-3.44l-.64-2.52c-.88-3.68-2.44-5.36-5.56-6.16 5.76-.8 8.52-3.12 8.52-7.16 0-4.56-3.84-7.16-10.56-7.16h-13.84v1.88h.72c2.28.04 3.04.16 3.36.56.24.36.24.44.24 2.48v19.08c0 2 0 2.08-.24 2.48-.32.4-1.08.52-3.36.52h-.72v1.88h13.12v-1.88h-.72c-2.28 0-3.04-.12-3.36-.52-.24-.4-.24-.48-.24-2.48v-9.12m0-1.88v-8.8c-.08-2.2.12-2.36 2.76-2.32h2.16c3.96 0 5.76 1.68 5.76 5.32 0 2.04-.52 3.6-1.56 4.44-1 .84-2.8 1.36-4.72 1.36h-4.4m29.63-3.36c-4.92 0-8.72 4.36-8.72 9.96 0 5.48 3.84 9.88 8.64 9.88s8.64-4.4 8.64-9.92c0-5.48-3.84-9.92-8.56-9.92m0 1.72c2.8 0 4.36 2.92 4.36 8.2 0 5.32-1.56 8.2-4.44 8.2s-4.44-2.88-4.44-8.16c0-5.44 1.52-8.24 4.52-8.24"/>
 <path class="Lyrics" d="m1331.4 208.6h-1.4l-1.16 1.44c-1.44-1.12-2.88-1.6-4.88-1.6-3.52 0-5.84 2.28-5.84 5.8 0 1.56.52 2.88 1.4 3.68.92.84 1.84 1.24 4.24 1.8l2.12.48c3.16.76 4.28 1.56 4.28 3.16 0 1.88-1.64 3.2-3.96 3.2-3.4 0-5.8-2.16-6.76-6.16h-1.6v7.56h1.4l1.4-1.64c1.64 1.32 3.44 1.96 5.48 1.96 3.92 0 6.52-2.44 6.52-6.16 0-1.76-.56-3.12-1.68-4.04-.96-.84-1.76-1.16-4.2-1.68l-2-.44c-2.2-.48-2.2-.48-2.92-.88-.88-.4-1.4-1.24-1.4-2.12 0-1.64 1.52-2.76 3.72-2.76 1.52 0 2.76.52 3.88 1.6.88.88 1.32 1.68 1.96 3.52h1.4v-6.72m14.55 14-4.4-10.28c-.16-.4-.24-.6-.24-.8 0-.76.48-1.04 1.84-1.04h.84v-1.44h-9.52v1.44h.44c1.36.04 1.88.44 2.72 2.16l6.52 14.76-.68 1.4c-1.44 3.04-3.32 5.16-4.6 5.16-.36 0-.64-.16-.64-.4 0-.08.04-.2.08-.36.12-.36.2-.72.2-1.04 0-1.04-.84-1.8-2.04-1.8-1.4 0-2.4 1.04-2.4 2.48 0 1.8 1.52 3.08 3.64 3.08s3.92-1.04 5.52-3.2c1.24-1.64 2.04-3.32 3.8-7.68l4.56-11.32c.92-2.32 1.8-3.2 3.36-3.24h.24v-1.44h-8v1.44h.64c1.52 0 2.16.44 2.16 1.48 0 .44-.12.92-.4 1.6l-3.64 9.04m10 12.44c3.6-2.48 5.24-4.92 5.24-7.72 0-2.4-1.32-3.96-3.28-3.96-1.48 0-2.6 1.04-2.6 2.4 0 1.44 1.08 2.36 2.76 2.36.2 0 .48 0 .6-.04h.12c.2 0 .28.12.28.36 0 1.68-1.36 3.56-4.04 5.44l.92 1.16"/>
 <path class="Lyrics" d="m178.09 569.44-6.92.44v1.72h1.44c1.52.04 1.72.28 1.72 2v19.56c-.04.56-.08.8-.24 1-.28.36-1.04.52-2.76.56h-.16v1.44h10.4v-1.44h-.44c-2.68-.08-3.04-.28-3.04-1.72v-7.56c1.32 2.32 2.8 3.24 5.28 3.24 2.44 0 4.44-1.04 5.88-3 1.4-1.92 2.2-4.4 2.2-7s-.8-5.04-2.28-6.96-3.32-2.88-5.56-2.88c-2.48 0-4.12 1.04-5.52 3.44v-2.84m4.8 1.56c2.76 0 4.36 2.76 4.36 7.44 0 5.16-1.6 8.08-4.48 8.08s-4.72-2.96-4.72-7.56c0-5 1.8-7.96 4.84-7.96m20.193-2.16c-4.92 0-8.72 4.36-8.72 9.96 0 5.48 3.84 9.88 8.64 9.88s8.64-4.4 8.64-9.92c0-5.48-3.84-9.92-8.56-9.92m0 1.72c2.8 0 4.36 2.92 4.36 8.2 0 5.32-1.56 8.2-4.44 8.2s-4.44-2.88-4.44-8.16c0-5.44 1.52-8.24 4.52-8.24m20-1.72c-4.92 0-8.72 4.36-8.72 9.96 0 5.48 3.84 9.88 8.64 9.88s8.64-4.4 8.64-9.92c0-5.48-3.84-9.92-8.56-9.92m0 1.72c2.8 0 4.36 2.92 4.36 8.2 0 5.32-1.56 8.2-4.44 8.2s-4.44-2.88-4.44-8.16c0-5.44 1.52-8.24 4.52-8.24m17.84-1.12-7.08.44v1.72h1.64c1.52.04 1.72.28 1.72 2v11.44c-.04.6-.08.84-.24 1.04-.28.36-1.08.52-2.8.56h-.16v1.44h10.68v-1.44h-.72c-2.68-.08-3.04-.28-3.04-1.72v-2.16c.04-6.72 2.44-11.84 5.56-12-.56.64-.72 1.04-.72 1.8 0 1.28.92 2.2 2.2 2.2 1.48 0 2.44-1.08 2.44-2.68 0-1.96-1.36-3.24-3.48-3.24-2.52 0-4.68 2-6 5.56v-4.96"/>
 <path class="Lyrics" d="m353.99 585.12c-2.2-.04-2.32-.08-2.8-.36-.28-.16-.48-.6-.48-1.04 0-1.2 1.08-1.72 3.76-1.8 3.76-.08 4.36-.16 5.72-.76 2.4-1.08 3.72-3.16 3.72-5.8 0-1.6-.36-2.6-1.44-3.92.68-.72 1.04-.96 1.36-.96.2 0 .32.12.4.56.16.96.8 1.48 1.8 1.48 1.04 0 1.8-.84 1.8-1.92 0-1.36-1.08-2.32-2.64-2.32-1.28 0-2 .4-3.84 2.08-1.68-1.12-2.96-1.52-4.96-1.52-4.76 0-7.88 2.64-7.88 6.64 0 2.36 1.28 4.36 3.36 5.36-2.68.6-3.8 1.8-3.8 4 0 1.76.8 2.8 2.68 3.44-2.48.92-3.68 2.16-3.68 3.8 0 1.2.8 2.32 2.08 3 1.56.8 3.48 1.12 6.36 1.12 6.68 0 10-2.12 10-6.32 0-2-.92-3.6-2.36-4.2-1.08-.4-2.36-.56-5.08-.56h-4.08m2.36-14.56c2.48 0 3.88 1.72 3.88 4.84s-1.52 5-4.04 5c-2.48 0-4.04-1.88-4.04-4.88 0-3.16 1.52-4.96 4.2-4.96m-.36 18c3.32 0 3.56 0 4.12.08 1.64.16 2.6 1.04 2.6 2.32 0 2.28-2.6 3.6-7.04 3.6-3.4 0-5.28-1-5.28-2.8 0-1.32.72-2.2 2.64-3.2h2.96m29.474-13.36c0-2.52-.44-3.8-1.6-4.76-1.32-1.08-3.28-1.6-5.84-1.6-4.52 0-7.8 2.12-7.8 5.04 0 1.48.92 2.44 2.32 2.44 1.28 0 2.16-.84 2.16-2.04 0-.52-.2-1.08-.6-1.64-.24-.28-.28-.36-.28-.56 0-.8 1.6-1.52 3.52-1.52 1.28 0 2.68.4 3.32 1 .76.64 1.04 1.6 1.04 3.4v1.56c-4.16.72-5.48 1.04-7.44 1.8-3.48 1.28-5.12 3.12-5.12 5.68 0 2.88 2.24 4.68 5.8 4.68 2.76 0 5.24-1.12 6.96-3.16.64 2.04 1.64 2.84 3.52 2.84 1.8 0 3.68-1.16 3.68-2.32 0-.28-.16-.48-.4-.48-.16 0-.32.04-.6.16-.56.24-.8.28-1.12.28-1.12 0-1.52-.72-1.52-2.76v-8.04m-3.76 4.88c0 2.4-.12 2.96-.8 4-1 1.48-2.8 2.48-4.56 2.48-1.84 0-3.16-1.32-3.16-3.12 0-1.68.84-2.88 2.6-3.72 1.24-.56 2.8-.96 5.92-1.48v1.84m16.074-21.48-7.4.44v1.72h1.96c1.48.04 1.68.28 1.68 2v22.28c-.04.6-.08.84-.24 1.04-.28.36-1.04.52-2.76.56h-.28v1.44h10.36v-1.44h-.28c-2.68-.08-3.04-.28-3.04-1.72v-26.32m8.234 36.84c3.6-2.48 5.24-4.92 5.24-7.72 0-2.4-1.32-3.96-3.28-3.96-1.48 0-2.6 1.04-2.6 2.4 0 1.44 1.08 2.36 2.76 2.36.2 0 .48 0 .6-.04h.12c.2 0 .28.12.28.36 0 1.68-1.36 3.56-4.04 5.44l.92 1.16m2.2-26.24c-1.4 0-2.52 1.12-2.52 2.48 0 1.4 1.12 2.52 2.48 2.52 1.4 0 2.52-1.12 2.52-2.52 0-1.36-1.12-2.48-2.48-2.48"/>
 <path class="Lyrics" d="m537.43 574.08h2.32c4.04.16 5.64 1.8 6.08 6.2l.2 2.04c.48 4.52 1.96 6.36 5.12 6.36 3.28 0 4.84-2.2 4.96-7h-1.68c-.16 2.76-.64 3.96-1.72 3.96-.92 0-1.32-.68-2-3.44l-.64-2.52c-.88-3.68-2.44-5.36-5.56-6.16 5.76-.8 8.52-3.12 8.52-7.16 0-4.56-3.84-7.16-10.56-7.16h-13.84v1.88h.72c2.28.04 3.04.16 3.36.56.24.36.24.44.24 2.48v19.08c0 2 0 2.08-.24 2.48-.32.4-1.08.52-3.36.52h-.72v1.88h13.12v-1.88h-.72c-2.28 0-3.04-.12-3.36-.52-.24-.4-.24-.48-.24-2.48v-9.12m0-1.88v-8.8c-.08-2.2.12-2.36 2.76-2.32h2.16c3.96 0 5.76 1.68 5.76 5.32 0 2.04-.52 3.6-1.56 4.44-1 .84-2.8 1.36-4.72 1.36h-4.4m29.631-3.36c-4.92 0-8.72 4.36-8.72 9.96 0 5.48 3.84 9.88 8.64 9.88s8.64-4.4 8.64-9.92c0-5.48-3.84-9.92-8.56-9.92m0 1.72c2.8 0 4.36 2.92 4.36 8.2 0 5.32-1.56 8.2-4.44 8.2s-4.44-2.88-4.44-8.16c0-5.44 1.52-8.24 4.52-8.24"/>
 <path class="Lyrics" d="m666.98 569h-1.4l-1.16 1.44c-1.442-1.12-2.882-1.6-4.882-1.6-3.52 0-5.84 2.28-5.84 5.8 0 1.56.52 2.88 1.4 3.68.92.84 1.84 1.24 4.24 1.8l2.12.48c3.162.76 4.282 1.56 4.282 3.16 0 1.88-1.64 3.2-3.962 3.2-3.4 0-5.8-2.16-6.76-6.16h-1.6v7.56h1.4l1.4-1.64c1.64 1.32 3.44 1.96 5.48 1.96 3.922 0 6.522-2.44 6.522-6.16 0-1.76-.56-3.12-1.68-4.04-.96-.84-1.76-1.16-4.202-1.68l-2-.44c-2.2-.48-2.2-.48-2.92-.88-.88-.4-1.4-1.24-1.4-2.12 0-1.64 1.52-2.76 3.72-2.76 1.52 0 2.76.52 3.882 1.6.88.88 1.32 1.68 1.96 3.52h1.4v-6.72m14.55 14-4.4-10.28c-.16-.4-.24-.6-.24-.8 0-.76.48-1.04 1.84-1.04h.84v-1.44h-9.52v1.44h.44c1.36.04 1.88.44 2.72 2.16l6.52 14.76-.68 1.4c-1.44 3.04-3.32 5.16-4.6 5.16-.36 0-.64-.16-.64-.4 0-.08.04-.2.08-.36.12-.36.2-.72.2-1.04 0-1.04-.84-1.8-2.04-1.8-1.4 0-2.4 1.04-2.4 2.48 0 1.8 1.52 3.08 3.64 3.08s3.92-1.04 5.52-3.2c1.24-1.64 2.04-3.32 3.8-7.68l4.56-11.32c.92-2.32 1.8-3.2 3.36-3.24h.24v-1.44h-8v1.44h.64c1.52 0 2.16.44 2.16 1.48 0 .44-.12.92-.4 1.6l-3.64 9.04"/>
 <path class="Lyrics" d="m746.86 558.6-6.88.44v1.72h1.4c1.52.04 1.72.28 1.72 2v15.56c0 5.56-.24 8.6-.72 10.32h1.52l1.96-3.12c1.64 2.16 3.52 3.16 6 3.16 4.96 0 8.6-4.24 8.6-10.04 0-5.76-3.36-9.8-8.16-9.8-2.44 0-3.92.84-5.44 3.12v-13.36m4.72 12.28c3 0 4.68 2.92 4.68 8.16 0 5.08-1.64 7.92-4.56 7.92-3.16 0-5.04-2.92-5.04-7.84 0-5.36 1.72-8.24 4.92-8.24m18.24-1.44-7.08.44v1.72h1.64c1.52.04 1.72.28 1.72 2v11.44c-.04.6-.08.84-.24 1.04-.28.36-1.08.52-2.8.56h-.16v1.44h10.68v-1.44h-.72c-2.68-.08-3.04-.28-3.04-1.72v-2.16c.04-6.72 2.44-11.84 5.56-12-.56.64-.72 1.04-.72 1.8 0 1.28.92 2.2 2.2 2.2 1.48 0 2.44-1.08 2.44-2.68 0-1.96-1.36-3.24-3.48-3.24-2.52 0-4.68 2-6 5.56v-4.96m28.19 9.64c.04-6-3.36-10.24-8.24-10.24-5.12 0-8.96 4.44-8.96 10.44 0 5.64 3.64 9.4 9.04 9.4 3.84 0 6.52-1.88 8.16-5.68l-1.4-.76c-1.64 3.08-3.32 4.28-6 4.28-2.04 0-3.52-.84-4.56-2.64-.72-1.2-1.04-2.6-1-4.8h12.96m-12.92-1.72c0-1.24.16-2.12.56-3.24.84-2.4 2.12-3.56 4.08-3.56 2.4 0 4 2.12 4 5.36 0 1.12-.36 1.44-1.64 1.44h-7m32.17-2.16c0-2.52-.44-3.8-1.6-4.76-1.32-1.08-3.28-1.6-5.84-1.6-4.52 0-7.8 2.12-7.8 5.04 0 1.48.92 2.44 2.32 2.44 1.28 0 2.16-.84 2.16-2.04 0-.52-.2-1.08-.6-1.64-.24-.28-.28-.36-.28-.56 0-.8 1.6-1.52 3.52-1.52 1.28 0 2.68.4 3.32 1 .76.64 1.04 1.6 1.04 3.4v1.56c-4.16.72-5.48 1.04-7.44 1.8-3.48 1.28-5.12 3.12-5.12 5.68 0 2.88 2.24 4.68 5.8 4.68 2.76 0 5.24-1.12 6.96-3.16.64 2.04 1.64 2.84 3.52 2.84 1.8 0 3.68-1.16 3.68-2.32 0-.28-.16-.48-.4-.48-.16 0-.32.04-.6.16-.56.24-.8.28-1.12.28-1.12 0-1.52-.72-1.52-2.76v-8.04m-3.76 4.88c0 2.4-.12 2.96-.8 4-1 1.48-2.8 2.48-4.56 2.48-1.84 0-3.16-1.32-3.16-3.12 0-1.68.84-2.88 2.6-3.72 1.24-.56 2.8-.96 5.92-1.48v1.84m15.87-1.68v-19.8l-7.4.44v1.72h1.92c1.52.04 1.72.28 1.72 2v22.32c-.04.56-.08.8-.24 1-.28.36-1.04.52-2.76.56h-.16v1.44h10.12v-1.44h-.16c-2.68-.08-3.04-.28-3.04-1.72v-4.04l2.44-2.32 4.76 6.68c.2.32.28.52.28.68 0 .56-.44.72-1.76.72h-.76v1.44h10.56v-1.44c-2.24-.2-3.04-.68-4.68-2.76l-5.68-7.76 1.8-1.76c2.36-2.28 4.04-3.16 6.76-3.48v-1.44h-10.52v1.44h1.24c1.28 0 1.88.24 1.88.76 0 .44-.28.92-.92 1.56l-5.4 5.2"/>
 <path class="Lyrics" d="m892.26 569.44-7.12.44v1.72h1.64c1.52.04 1.72.28 1.72 2v11.44c-.04.6-.08.84-.24 1.04-.28.36-1.04.52-2.76.56h-.16v1.44h10.08v-1.44h-.16c-2.64-.08-3-.28-3-1.76v-7.4c0-3.56 1.96-6.2 4.56-6.2 2.28 0 3.44 1.64 3.44 4.88v8.92c-.04.52-.08.8-.28 1-.24.36-1.04.52-2.76.56h-.16v1.44h10.12v-1.44h-.16c-2.64-.08-3-.28-3-1.72v-7.08c0-4 1.8-6.56 4.6-6.56 2.28 0 3.4 1.72 3.4 5.32v8.44c-.04.56-.08.84-.28 1.04-.24.36-1.04.52-2.76.56h-.16v1.44h10.12v-1.44h-.16c-2.64-.08-3-.28-3-1.76v-9.08c0-2.48-.24-3.32-1.28-4.68-1.16-1.48-2.8-2.28-4.72-2.28-2.6 0-4.52 1.24-6.24 4-.68-2.4-2.84-4-5.52-4-2.44 0-4.2 1.16-5.76 3.68v-3.08m37.74 13.56-4.4-10.28c-.16-.4-.24-.6-.24-.8 0-.76.48-1.04 1.84-1.04h.84v-1.44h-9.52v1.44h.44c1.36.04 1.88.44 2.72 2.16l6.52 14.76-.68 1.4c-1.44 3.04-3.32 5.16-4.6 5.16-.36 0-.64-.16-.64-.4 0-.08.04-.2.08-.36.12-.36.2-.72.2-1.04 0-1.04-.84-1.8-2.04-1.8-1.4 0-2.4 1.04-2.4 2.48 0 1.8 1.52 3.08 3.64 3.08s3.92-1.04 5.52-3.2c1.24-1.64 2.04-3.32 3.8-7.68l4.56-11.32c.92-2.32 1.8-3.2 3.36-3.24h.24v-1.44h-8v1.44h.64c1.52 0 2.16.44 2.16 1.48 0 .44-.12.92-.4 1.6l-3.64 9.04"/>
 <path class="Lyrics" d="m1064.1 569.44-6.92.44v1.72h1.44c1.52.04 1.72.28 1.72 2v19.56c-.04.56-.08.8-.24 1-.28.36-1.04.52-2.76.56h-.16v1.44h10.4v-1.44h-.44c-2.68-.08-3.04-.28-3.04-1.72v-7.56c1.32 2.32 2.8 3.24 5.28 3.24 2.44 0 4.44-1.04 5.88-3 1.4-1.92 2.2-4.4 2.2-7s-.8-5.04-2.28-6.96-3.32-2.88-5.56-2.88c-2.48 0-4.12 1.04-5.52 3.44v-2.84m4.8 1.56c2.76 0 4.36 2.76 4.36 7.44 0 5.16-1.6 8.08-4.48 8.08s-4.72-2.96-4.72-7.56c0-5 1.8-7.96 4.84-7.96m20.2-2.16c-4.92 0-8.72 4.36-8.72 9.96 0 5.48 3.84 9.88 8.64 9.88s8.64-4.4 8.64-9.92c0-5.48-3.84-9.92-8.56-9.92m0 1.72c2.8 0 4.36 2.92 4.36 8.2 0 5.32-1.56 8.2-4.44 8.2s-4.44-2.88-4.44-8.16c0-5.44 1.52-8.24 4.52-8.24m20-1.72c-4.92 0-8.72 4.36-8.72 9.96 0 5.48 3.84 9.88 8.64 9.88s8.64-4.4 8.64-9.92c0-5.48-3.84-9.92-8.56-9.92m0 1.72c2.8 0 4.36 2.92 4.36 8.2 0 5.32-1.56 8.2-4.44 8.2s-4.44-2.88-4.44-8.16c0-5.44 1.52-8.24 4.52-8.24m17.84-1.12-7.08.44v1.72h1.64c1.52.04 1.72.28 1.72 2v11.44c-.04.6-.08.84-.24 1.04-.28.36-1.08.52-2.8.56h-.16v1.44h10.68v-1.44h-.72c-2.68-.08-3.04-.28-3.04-1.72v-2.16c.04-6.72 2.44-11.84 5.56-12-.56.64-.72 1.04-.72 1.8 0 1.28.92 2.2 2.2 2.2 1.48 0 2.44-1.08 2.44-2.68 0-1.96-1.36-3.24-3.48-3.24-2.52 0-4.68 2-6 5.56v-4.96"/>
 <path class="Lyrics" d="m1227.5 558.6-7.4.44v1.72h1.92c1.52.04 1.72.28 1.72 2v22.32c-.04.56-.08.8-.24 1-.28.36-1.04.52-2.76.56h-.16v1.44h10.12v-1.44h-.16c-2.68-.08-3.04-.28-3.04-1.72v-5.92c0-1.96.28-3.76.72-4.68.88-1.8 2.64-3.04 4.36-3.04 1.04 0 2.24.6 2.8 1.4.64.88.92 2.08.92 4.04v8.36c-.04.56-.08.8-.24 1-.28.36-1.08.52-2.8.56h-.16v1.44h10.12v-1.44h-.16c-2.64-.08-3-.28-3-1.72v-8.04c0-2.88-.12-3.6-.84-4.96-1-1.96-3-3.08-5.4-3.08-2.6 0-4.52 1.16-6.32 3.84v-14.08m35.04 20.48c.04-6-3.36-10.24-8.24-10.24-5.12 0-8.96 4.44-8.96 10.44 0 5.64 3.64 9.4 9.04 9.4 3.84 0 6.52-1.88 8.16-5.68l-1.4-.76c-1.64 3.08-3.32 4.28-6 4.28-2.04 0-3.52-.84-4.56-2.64-.72-1.2-1.04-2.6-1-4.8h12.96m-12.92-1.72c0-1.24.16-2.12.56-3.24.84-2.4 2.12-3.56 4.08-3.56 2.4 0 4 2.12 4 5.36 0 1.12-.36 1.44-1.64 1.44h-7m32.16-2.16c0-2.52-.44-3.8-1.6-4.76-1.32-1.08-3.28-1.6-5.84-1.6-4.52 0-7.8 2.12-7.8 5.04 0 1.48.92 2.44 2.32 2.44 1.28 0 2.16-.84 2.16-2.04 0-.52-.2-1.08-.6-1.64-.24-.28-.28-.36-.28-.56 0-.8 1.6-1.52 3.52-1.52 1.28 0 2.68.4 3.32 1 .76.64 1.04 1.6 1.04 3.4v1.56c-4.16.72-5.48 1.04-7.44 1.8-3.48 1.28-5.12 3.12-5.12 5.68 0 2.88 2.24 4.68 5.8 4.68 2.76 0 5.24-1.12 6.96-3.16.64 2.04 1.64 2.84 3.52 2.84 1.8 0 3.68-1.16 3.68-2.32 0-.28-.16-.48-.4-.48-.16 0-.32.04-.6.16-.56.24-.8.28-1.12.28-1.12 0-1.52-.72-1.52-2.76v-8.04m-3.76 4.88c0 2.4-.12 2.96-.8 4-1 1.48-2.8 2.48-4.56 2.48-1.84 0-3.16-1.32-3.16-3.12 0-1.68.84-2.88 2.6-3.72 1.24-.56 2.8-.96 5.92-1.48v1.84m15.84-10.64-7.08.44v1.72h1.64c1.52.04 1.72.28 1.72 2v11.44c-.04.6-.08.84-.24 1.04-.28.36-1.08.52-2.8.56h-.16v1.44h10.68v-1.44h-.72c-2.68-.08-3.04-.28-3.04-1.72v-2.16c.04-6.72 2.44-11.84 5.56-12-.56.64-.72 1.04-.72 1.8 0 1.28.92 2.2 2.2 2.2 1.48 0 2.44-1.08 2.44-2.68 0-1.96-1.36-3.24-3.48-3.24-2.52 0-4.68 2-6 5.56v-4.96m18.35 0v-7.92h-1.64c-.4 5.2-2.16 7.84-5.4 8.08v1.56h3.28v10.2c0 2.8.08 3.8.48 4.72.64 1.68 2.24 2.6 4.56 2.6 3.6 0 5.92-2.72 5.92-6.96 0-.24 0-.52-.04-.92h-1.68c-.12 3.6-1.16 5.44-3.12 5.44-.92 0-1.72-.48-2-1.16-.24-.56-.36-1.56-.36-3v-10.92h5.88v-1.72h-5.88m11.68 26c3.6-2.48 5.24-4.92 5.24-7.72 0-2.4-1.32-3.96-3.28-3.96-1.48 0-2.6 1.04-2.6 2.4 0 1.44 1.08 2.36 2.76 2.36.2 0 .48 0 .6-.04h.12c.2 0 .28.12.28.36 0 1.68-1.36 3.56-4.04 5.44l.92 1.16"/>
 <path class="Lyrics" d="m169.12 921.96v8.96c0 2.04 0 2.12-.24 2.48-.32.4-1.08.56-3.36.56h-.72v1.88h13.12v-1.88h-.72c-2.28 0-3.04-.16-3.36-.56-.24-.36-.24-.4-.24-2.48v-19.04c0-2.08 0-2.12.24-2.48.36-.44 1.08-.56 3.36-.56h.72v-1.88h-12.96v1.88h.56c2.28 0 3 .12 3.36.56.24.36.24.44.24 2.48v7.92h-13.4v-7.92c0-2.04 0-2.12.28-2.48.32-.44 1.04-.56 3.32-.56h.76v-1.88h-13.16v1.88h.72c2.28 0 3 .12 3.36.56.24.36.24.44.24 2.48v19.04c0 2 0 2.12-.24 2.48-.32.4-1.08.56-3.36.56h-.72v1.88h13.16v-1.88h-.76c-2.28-.04-3-.16-3.32-.56-.28-.36-.28-.44-.28-2.48v-8.96h13.4m28.552 4.88c.04-6-3.36-10.24-8.24-10.24-5.12 0-8.96 4.44-8.96 10.44 0 5.64 3.64 9.4 9.04 9.4 3.84 0 6.52-1.88 8.16-5.68l-1.4-.76c-1.64 3.08-3.32 4.28-6 4.28-2.04 0-3.52-.84-4.56-2.64-.72-1.2-1.04-2.6-1-4.8h12.96m-12.92-1.72c0-1.24.16-2.12.56-3.24.84-2.4 2.12-3.56 4.08-3.56 2.4 0 4 2.12 4 5.36 0 1.12-.36 1.44-1.64 1.44h-7m32.166-2.16c0-2.52-.44-3.8-1.6-4.76-1.32-1.08-3.28-1.6-5.84-1.6-4.52 0-7.8 2.12-7.8 5.04 0 1.48.92 2.44 2.32 2.44 1.28 0 2.16-.84 2.16-2.04 0-.52-.2-1.08-.6-1.64-.24-.28-.28-.36-.28-.56 0-.8 1.6-1.52 3.52-1.52 1.28 0 2.68.4 3.32 1 .76.64 1.04 1.6 1.04 3.4v1.56c-4.16.72-5.48 1.04-7.44 1.8-3.48 1.28-5.12 3.12-5.12 5.68 0 2.88 2.24 4.68 5.8 4.68 2.76 0 5.24-1.12 6.96-3.16.64 2.04 1.64 2.84 3.52 2.84 1.8 0 3.68-1.16 3.68-2.32 0-.28-.16-.48-.4-.48-.16 0-.32.04-.6.16-.56.24-.8.28-1.12.28-1.12 0-1.52-.72-1.52-2.76v-8.04m-3.76 4.88c0 2.4-.12 2.96-.8 4-1 1.48-2.8 2.48-4.56 2.48-1.84 0-3.16-1.32-3.16-3.12 0-1.68.84-2.88 2.6-3.72 1.24-.56 2.8-.96 5.92-1.48v1.84m18.48 3.16-4.56-10.56c-.12-.32-.2-.64-.2-.88 0-.68.52-.92 2.16-.92h.56v-1.44h-9.44v1.44h.32c1.52 0 2.08.4 2.64 1.72l6.88 16.08h1.4l5.68-14.04c1.12-2.72 2.08-3.64 3.72-3.76h.16v-1.44h-8v1.44h.56c1.4 0 2.16.48 2.16 1.4 0 .48-.12 1.08-.36 1.68l-3.68 9.28m11.549-13.16c1.48-1.08 2.36-1.76 2.64-2 1.56-1.4 2.6-3.72 2.6-5.84 0-2.24-1.36-3.8-3.28-3.8-1.48 0-2.6 1.04-2.6 2.4 0 1.48 1.04 2.36 2.88 2.36.24 0 .32 0 .48-.04h.12c.2 0 .28.12.28.32 0 1.92-1.36 3.8-4.04 5.48l.92 1.12m14.276-.64-6.92.44v1.72h1.44c1.52.04 1.72.28 1.72 2v11.44c-.04.6-.08.84-.24 1.04-.28.36-1.04.52-2.76.56h-.16v1.44h10.12v-1.44h-.16c-2.68-.08-3.04-.28-3.04-1.72v-5.92c0-1.96.28-3.76.72-4.68.84-1.8 2.64-3.04 4.36-3.04 1.04 0 2.24.56 2.84 1.4.6.88.88 2.08.88 4v8.36c-.04.6-.08.84-.24 1.04-.28.36-1.08.52-2.8.56h-.16v1.44h10.12v-1.44h-.16c-2.64-.08-3-.28-3-1.72v-8.04c0-2.88-.12-3.6-.84-4.96-1-1.92-3-3.08-5.4-3.08-2.6 0-4.56 1.2-6.32 3.84v-3.24"/>
 <path class="Lyrics" d="m354.4 916.76h-1.4l-1.16 1.44c-1.44-1.12-2.88-1.6-4.88-1.6-3.52 0-5.84 2.28-5.84 5.8 0 1.56.52 2.88 1.4 3.68.92.84 1.84 1.24 4.24 1.8l2.12.48c3.16.76 4.28 1.56 4.28 3.16 0 1.88-1.64 3.2-3.96 3.2-3.4 0-5.8-2.16-6.76-6.16h-1.6v7.56h1.4l1.4-1.64c1.64 1.32 3.44 1.96 5.48 1.96 3.92 0 6.52-2.44 6.52-6.16 0-1.76-.56-3.12-1.68-4.04-.96-.84-1.76-1.16-4.2-1.68l-2-.44c-2.2-.48-2.2-.48-2.92-.88-.88-.4-1.4-1.24-1.4-2.12 0-1.64 1.52-2.76 3.72-2.76 1.52 0 2.76.52 3.88 1.6.88.88 1.32 1.68 1.96 3.52h1.4v-6.72m10.915-10.4-7.4.44v1.72h1.92c1.52.04 1.72.28 1.72 2v22.32c-.04.56-.08.8-.24 1-.28.36-1.04.52-2.76.56h-.16v1.44h10.12v-1.44h-.16c-2.68-.08-3.04-.28-3.04-1.72v-5.92c0-1.96.28-3.76.72-4.68.88-1.8 2.64-3.04 4.36-3.04 1.04 0 2.24.6 2.8 1.4.64.88.92 2.08.92 4.04v8.36c-.04.56-.08.8-.24 1-.28.36-1.08.52-2.8.56h-.16v1.44h10.12v-1.44h-.16c-2.64-.08-3-.28-3-1.72v-8.04c0-2.88-.12-3.6-.84-4.96-1-1.96-3-3.08-5.4-3.08-2.6 0-4.52 1.16-6.32 3.84v-14.08m34.518 16.6c0-2.52-.44-3.8-1.6-4.76-1.32-1.08-3.28-1.6-5.84-1.6-4.52 0-7.8 2.12-7.8 5.04 0 1.48.92 2.44 2.32 2.44 1.28 0 2.16-.84 2.16-2.04 0-.52-.2-1.08-.6-1.64-.24-.28-.28-.36-.28-.56 0-.8 1.6-1.52 3.52-1.52 1.28 0 2.68.4 3.32 1 .76.64 1.04 1.6 1.04 3.4v1.56c-4.16.72-5.48 1.04-7.44 1.8-3.48 1.28-5.12 3.12-5.12 5.68 0 2.88 2.24 4.68 5.8 4.68 2.76 0 5.24-1.12 6.96-3.16.64 2.04 1.64 2.84 3.52 2.84 1.8 0 3.68-1.16 3.68-2.32 0-.28-.16-.48-.4-.48-.16 0-.32.04-.6.16-.56.24-.8.28-1.12.28-1.12 0-1.52-.72-1.52-2.76v-8.04m-3.76 4.88c0 2.4-.12 2.96-.8 4-1 1.48-2.8 2.48-4.56 2.48-1.84 0-3.16-1.32-3.16-3.12 0-1.68.84-2.88 2.6-3.72 1.24-.56 2.8-.96 5.92-1.48v1.84m16.074-21.48-7.4.44v1.72h1.96c1.48.04 1.68.28 1.68 2v22.28c-.04.6-.08.84-.24 1.04-.28.36-1.04.52-2.76.56h-.28v1.44h10.36v-1.44h-.28c-2.68-.08-3.04-.28-3.04-1.72v-26.32m12.594 0-7.4.44v1.72h1.96c1.48.04 1.68.28 1.68 2v22.28c-.04.6-.08.84-.24 1.04-.28.36-1.04.52-2.76.56h-.28v1.44h10.36v-1.44h-.28c-2.68-.08-3.04-.28-3.04-1.72v-26.32"/>
 <path class="Lyrics" d="m499.35 922.96c0-2.52-.44-3.8-1.6-4.76-1.32-1.08-3.28-1.6-5.84-1.6-4.52 0-7.8 2.12-7.8 5.04 0 1.48.92 2.44 2.32 2.44 1.28 0 2.16-.84 2.16-2.04 0-.52-.2-1.08-.6-1.64-.24-.28-.28-.36-.28-.56 0-.8 1.6-1.52 3.52-1.52 1.28 0 2.68.4 3.32 1 .76.64 1.04 1.6 1.04 3.4v1.56c-4.16.72-5.48 1.04-7.44 1.8-3.48 1.28-5.12 3.12-5.12 5.68 0 2.88 2.24 4.68 5.8 4.68 2.76 0 5.24-1.12 6.96-3.16.64 2.04 1.64 2.84 3.52 2.84 1.8 0 3.68-1.16 3.68-2.32 0-.28-.16-.48-.4-.48-.16 0-.32.04-.6.16-.56.24-.8.28-1.12.28-1.12 0-1.52-.72-1.52-2.76v-8.04m-3.76 4.88c0 2.4-.12 2.96-.8 4-1 1.48-2.8 2.48-4.56 2.48-1.84 0-3.16-1.32-3.16-3.12 0-1.68.84-2.88 2.6-3.72 1.24-.56 2.8-.96 5.92-1.48v1.84"/>
 <path class="Lyrics" d="m588.15 906.36-6.88.44v1.72h1.4c1.52.04 1.72.28 1.72 2v15.56c0 5.56-.24 8.6-.72 10.32h1.52l1.96-3.12c1.64 2.16 3.52 3.16 6 3.16 4.96 0 8.6-4.24 8.6-10.04 0-5.76-3.36-9.8-8.16-9.8-2.44 0-3.92.84-5.44 3.12v-13.36m4.72 12.28c3 0 4.68 2.92 4.68 8.16 0 5.08-1.64 7.92-4.56 7.92-3.16 0-5.04-2.92-5.04-7.84 0-5.36 1.72-8.24 4.92-8.24m28.914 8.2c.04-6-3.36-10.24-8.24-10.24-5.12 0-8.96 4.44-8.96 10.44 0 5.64 3.64 9.4 9.04 9.4 3.84 0 6.52-1.88 8.16-5.68l-1.4-.76c-1.64 3.08-3.32 4.28-6 4.28-2.04 0-3.52-.84-4.56-2.64-.72-1.2-1.04-2.6-1-4.8h12.96m-12.92-1.72c0-1.24.16-2.12.56-3.24.84-2.4 2.12-3.56 4.08-3.56 2.4 0 4 2.12 4 5.36 0 1.12-.36 1.44-1.64 1.44h-7"/>
 <path class="Lyrics" d="m754.41 917.2-7.12.44v1.72h1.64c1.52.04 1.72.28 1.72 2v11.44c-.04.6-.08.84-.24 1.04-.28.36-1.04.52-2.76.56h-.16v1.44h10.08v-1.44h-.16c-2.64-.08-3-.28-3-1.76v-7.4c0-3.56 1.96-6.2 4.56-6.2 2.28 0 3.44 1.64 3.44 4.88v8.92c-.04.52-.08.8-.28 1-.24.36-1.04.52-2.76.56h-.16v1.44h10.12v-1.44h-.16c-2.64-.08-3-.28-3-1.72v-7.08c0-4 1.8-6.56 4.6-6.56 2.28 0 3.4 1.72 3.4 5.32v8.44c-.04.56-.08.84-.28 1.04-.24.36-1.04.52-2.76.56h-.16v1.44h10.12v-1.44h-.16c-2.64-.08-3-.28-3-1.76v-9.08c0-2.48-.24-3.32-1.28-4.68-1.16-1.48-2.8-2.28-4.72-2.28-2.6 0-4.52 1.24-6.24 4-.68-2.4-2.84-4-5.52-4-2.44 0-4.2 1.16-5.76 3.68v-3.08m37.75 13.56-4.4-10.28c-.16-.4-.24-.6-.24-.8 0-.76.48-1.04 1.84-1.04h.84v-1.44h-9.52v1.44h.44c1.36.04 1.88.44 2.72 2.16l6.52 14.76-.68 1.4c-1.44 3.04-3.32 5.16-4.6 5.16-.36 0-.64-.16-.64-.4 0-.08.04-.2.08-.36.12-.36.2-.72.2-1.04 0-1.04-.84-1.8-2.04-1.8-1.4 0-2.4 1.04-2.4 2.48 0 1.8 1.52 3.08 3.64 3.08s3.92-1.04 5.52-3.2c1.24-1.64 2.04-3.32 3.8-7.68l4.56-11.32c.92-2.32 1.8-3.2 3.36-3.24h.24v-1.44h-8v1.44h.64c1.52 0 2.16.44 2.16 1.48 0 .44-.12.92-.4 1.6l-3.64 9.04"/>
 <path class="Lyrics" d="m980.01 906.36-7.4.44v1.72h1.92c1.52.04 1.72.28 1.72 2v22.32c-.04.56-.08.8-.24 1-.28.36-1.04.52-2.76.56h-.16v1.44h10.12v-1.44h-.16c-2.68-.08-3.04-.28-3.04-1.72v-5.92c0-1.96.28-3.76.72-4.68.88-1.8 2.64-3.04 4.36-3.04 1.04 0 2.24.6 2.8 1.4.64.88.92 2.08.92 4.04v8.36c-.04.56-.08.8-.24 1-.28.36-1.08.52-2.8.56h-.16v1.44h10.12v-1.44h-.16c-2.64-.08-3-.28-3-1.72v-8.04c0-2.88-.12-3.6-.84-4.96-1-1.96-3-3.08-5.4-3.08-2.6 0-4.52 1.16-6.32 3.84v-14.08m26.51 10.24c-4.92 0-8.72 4.36-8.72 9.96 0 5.48 3.84 9.88 8.64 9.88s8.64-4.4 8.64-9.92c0-5.48-3.84-9.92-8.56-9.92m0 1.72c2.8 0 4.36 2.92 4.36 8.2 0 5.32-1.56 8.2-4.44 8.2s-4.44-2.88-4.44-8.16c0-5.44 1.52-8.24 4.52-8.24m17.96-1.12-7.12.44v1.72h1.64c1.52.04 1.72.28 1.72 2v11.44c-.04.6-.08.84-.24 1.04-.28.36-1.04.52-2.76.56h-.16v1.44h10.08v-1.44h-.16c-2.64-.08-3-.28-3-1.76v-7.4c0-3.56 1.96-6.2 4.56-6.2 2.28 0 3.44 1.64 3.44 4.88v8.92c-.04.52-.08.8-.28 1-.24.36-1.04.52-2.76.56h-.16v1.44h10.12v-1.44h-.16c-2.64-.08-3-.28-3-1.72v-7.08c0-4 1.8-6.56 4.6-6.56 2.28 0 3.4 1.72 3.4 5.32v8.44c-.04.56-.08.84-.28 1.04-.24.36-1.04.52-2.76.56h-.16v1.44h10.12v-1.44h-.16c-2.64-.08-3-.28-3-1.76v-9.08c0-2.48-.24-3.32-1.28-4.68-1.16-1.48-2.8-2.28-4.72-2.28-2.6 0-4.52 1.24-6.24 4-.68-2.4-2.84-4-5.52-4-2.44 0-4.2 1.16-5.76 3.68v-3.08m46.11 9.64c.04-6-3.36-10.24-8.24-10.24-5.12 0-8.96 4.44-8.96 10.44 0 5.64 3.64 9.4 9.04 9.4 3.84 0 6.52-1.88 8.16-5.68l-1.4-.76c-1.64 3.08-3.32 4.28-6 4.28-2.04 0-3.52-.84-4.56-2.64-.72-1.2-1.04-2.6-1-4.8h12.96m-12.92-1.72c0-1.24.16-2.12.56-3.24.84-2.4 2.12-3.56 4.08-3.56 2.4 0 4 2.12 4 5.36 0 1.12-.36 1.44-1.64 1.44h-7m19.49 6.28c-1.4 0-2.52 1.12-2.52 2.48 0 1.4 1.12 2.52 2.48 2.52 1.4 0 2.52-1.12 2.52-2.52 0-1.36-1.12-2.48-2.48-2.48"/>
 <polyline class="LyricsLineSegment" points="445.6 926.09 465.47 926.09" fill="none" stroke="#000" stroke-linejoin="bevel" stroke-width="3.73"/>
 <polyline class="LyricsLineSegment" points="532.17 926.09 552.05 926.09" fill="none" stroke="#000" stroke-linejoin="bevel" stroke-width="3.73"/>
</svg>
