<?xml version="1.0" encoding="utf-8"?>
<svg xmlns="http://www.w3.org/2000/svg" version="1.2" viewBox="0 0 1431 534">
	<title>Two lines of musical notation representing a phrase of melody.</title>
	<polyline class="StaffLines" fill="none" points="0 35.978 1431 35.978" stroke="#000" stroke-linejoin="bevel" stroke-width="2.73"/>
	<polyline class="StaffLines" fill="none" points="0 60.818 1431 60.818" stroke="#000" stroke-linejoin="bevel" stroke-width="2.73"/>
	<polyline class="StaffLines" fill="none" points="0 85.658 1431 85.658" stroke="#000" stroke-linejoin="bevel" stroke-width="2.73"/>
	<polyline class="StaffLines" fill="none" points="0 110.5 1431 110.5" stroke="#000" stroke-linejoin="bevel" stroke-width="2.73"/>
	<polyline class="StaffLines" fill="none" points="0 135.34 1431 135.34" stroke="#000" stroke-linejoin="bevel" stroke-width="2.73"/>
	<polyline class="StaffLines" fill="none" points="0 383.74 1431 383.74" stroke="#000" stroke-linejoin="bevel" stroke-width="2.73"/>
	<polyline class="StaffLines" fill="none" points="0 408.58 1431 408.58" stroke="#000" stroke-linejoin="bevel" stroke-width="2.73"/>
	<polyline class="StaffLines" fill="none" points="0 433.42 1431 433.42" stroke="#000" stroke-linejoin="bevel" stroke-width="2.73"/>
	<polyline class="StaffLines" fill="none" points="0 458.26 1431 458.26" stroke="#000" stroke-linejoin="bevel" stroke-width="2.73"/>
	<polyline class="StaffLines" fill="none" points="0 483.1 1431 483.1" stroke="#000" stroke-linejoin="bevel" stroke-width="2.73"/>
	<polyline class="BarLine" fill="none" points="621.66 34.612 621.66 136.7" stroke="#000" stroke-linejoin="bevel" stroke-width="4.47"/>
	<polyline class="BarLine" fill="none" points="937.85 34.612 937.85 136.7" stroke="#000" stroke-linejoin="bevel" stroke-width="4.47"/>
	<polyline class="BarLine" fill="none" points="1428.8 34.612 1428.8 136.7" stroke="#000" stroke-linejoin="bevel" stroke-width="4.47"/>
	<polyline class="BarLine" fill="none" points="585.67 382.37 585.67 484.46" stroke="#000" stroke-linejoin="bevel" stroke-width="4.47"/>
	<polyline class="BarLine" fill="none" points="881.26 382.37 881.26 484.46" stroke="#000" stroke-linejoin="bevel" stroke-width="4.47"/>
	<polyline class="BarLine" fill="none" points="1282 382.37 1282 484.46" stroke="#000" stroke-linejoin="bevel" stroke-width="4.47"/>
	<polyline class="LedgerLine" fill="none" points="299.34 507.94 349.02 507.94" stroke="#000" stroke-linejoin="bevel" stroke-width="3.97"/>
	<polyline class="LedgerLine" fill="none" points="995.66 507.94 1045.3 507.94" stroke="#000" stroke-linejoin="bevel" stroke-width="3.97"/>
	<polyline class="Stem" fill="none" points="305.35 144.58 305.35 60.818" stroke="#000" stroke-linejoin="bevel" stroke-width="2.73"/>
	<polyline class="Stem" fill="none" points="390.91 144.58 390.91 60.818" stroke="#000" stroke-linejoin="bevel" stroke-width="2.73"/>
	<polyline class="Stem" fill="none" points="446.92 64.156 446.92 147.76" stroke="#000" stroke-linejoin="bevel" stroke-width="2.73"/>
	<polyline class="Stem" fill="none" points="551.24 88.996 551.24 172.6" stroke="#000" stroke-linejoin="bevel" stroke-width="2.73"/>
	<polyline class="Stem" fill="none" points="687.1 94.898 687.1 17.348" stroke="#000" stroke-linejoin="bevel" stroke-width="2.73"/>
	<polyline class="Stem" fill="none" points="756.78 119.74 756.78 35.978" stroke="#000" stroke-linejoin="bevel" stroke-width="2.73"/>
	<polyline class="Stem" fill="none" points="868.27 144.58 868.27 60.818" stroke="#000" stroke-linejoin="bevel" stroke-width="2.73"/>
	<polyline class="Stem" fill="none" points="1003.3 132.16 1003.3 48.398" stroke="#000" stroke-linejoin="bevel" stroke-width="2.73"/>
	<polyline class="Stem" fill="none" points="1110.2 132.16 1110.2 48.398" stroke="#000" stroke-linejoin="bevel" stroke-width="2.73"/>
	<polyline class="Stem" fill="none" points="1176.9 132.16 1176.9 48.398" stroke="#000" stroke-linejoin="bevel" stroke-width="2.73"/>
	<polyline class="Stem" fill="none" points="1243.7 119.74 1243.7 35.978" stroke="#000" stroke-linejoin="bevel" stroke-width="2.73"/>
	<polyline class="Stem" fill="none" points="1350.6 119.74 1350.6 35.978" stroke="#000" stroke-linejoin="bevel" stroke-width="2.73"/>
	<polyline class="Stem" fill="none" points="250.39 492.34 250.39 408.58" stroke="#000" stroke-linejoin="bevel" stroke-width="2.73"/>
	<polyline class="Stem" fill="none" points="338.96 517.18 338.96 433.42" stroke="#000" stroke-linejoin="bevel" stroke-width="2.73"/>
	<polyline class="Stem" fill="none" points="427.53 492.34 427.53 408.58" stroke="#000" stroke-linejoin="bevel" stroke-width="2.73"/>
	<polyline class="Stem" fill="none" points="516.1 467.5 516.1 383.74" stroke="#000" stroke-linejoin="bevel" stroke-width="2.73"/>
	<polyline class="Stem" fill="none" points="651.12 479.92 651.12 396.16" stroke="#000" stroke-linejoin="bevel" stroke-width="2.73"/>
	<polyline class="Stem" fill="none" points="736.69 467.5 736.69 383.74" stroke="#000" stroke-linejoin="bevel" stroke-width="2.73"/>
	<polyline class="Stem" fill="none" points="812.59 479.92 812.59 396.16" stroke="#000" stroke-linejoin="bevel" stroke-width="2.73"/>
	<polyline class="Stem" fill="none" points="946.71 492.34 946.71 408.58" stroke="#000" stroke-linejoin="bevel" stroke-width="2.73"/>
	<polyline class="Stem" fill="none" points="1035.3 517.18 1035.3 433.42" stroke="#000" stroke-linejoin="bevel" stroke-width="2.73"/>
	<polyline class="Stem" fill="none" points="1123.8 492.34 1123.8 408.58" stroke="#000" stroke-linejoin="bevel" stroke-width="2.73"/>
	<polyline class="Stem" fill="none" points="1212.4 492.34 1212.4 408.58" stroke="#000" stroke-linejoin="bevel" stroke-width="2.73"/>
	<polyline class="Stem" fill="none" points="1347.4 492.34 1347.4 408.58" stroke="#000" stroke-linejoin="bevel" stroke-width="2.73"/>
	<path class="Note" d="m305.73 139.71c-1.7885-3.2789-5.5642-5.0674-10.135-5.0674-3.3782 0-7.0546.9936-10.632 2.8814-6.5578 3.4776-10.532 9.3398-10.532 14.407 0 1.391.29808 2.7821.9936 4.0738 1.7885 3.2789 5.5642 4.968 10.135 4.968 3.3782 0 7.0546-.89424 10.632-2.7821 6.5578-3.4776 10.532-9.3398 10.532-14.407 0-1.391-.29808-2.7821-.9936-4.0738" stroke-width=".9936"/>
	<path class="Note" d="m391.29 139.71c-1.7885-3.2789-5.5642-5.0674-10.135-5.0674-3.3782 0-7.0546.9936-10.632 2.8814-6.5578 3.4776-10.532 9.3398-10.532 14.407 0 1.391.29808 2.7821.9936 4.0738 1.7885 3.2789 5.5642 4.968 10.135 4.968 3.3782 0 7.0546-.89424 10.632-2.7821 6.5578-3.4776 10.532-9.3398 10.532-14.407 0-1.391-.29808-2.7821-.9936-4.0738" stroke-width=".9936"/>
	<path class="Note" d="m476.85 52.77c-1.7885-3.2789-5.5642-5.0674-10.135-5.0674-3.3782 0-7.0546.9936-10.632 2.8814-6.5578 3.4776-10.532 9.3398-10.532 14.407 0 1.391.29808 2.7821.9936 4.0738 1.7885 3.2789 5.5642 4.968 10.135 4.968 3.3782 0 7.0546-.89424 10.632-2.7821 6.5578-3.4776 10.532-9.3398 10.532-14.407 0-1.391-.29808-2.7821-.9936-4.0738" stroke-width=".9936"/>
	<path class="Note" d="m581.18 77.61c-1.7885-3.2789-5.5642-5.0674-10.135-5.0674-3.3782 0-7.0546.9936-10.632 2.8814-6.5578 3.4776-10.532 9.3398-10.532 14.407 0 1.391.29808 2.7821.9936 4.0738 1.7885 3.2789 5.5642 4.968 10.135 4.968 3.3782 0 7.0546-.89424 10.632-2.7821 6.5578-3.4776 10.532-9.3398 10.532-14.407 0-1.391-.29808-2.7821-.9936-4.0738" stroke-width=".9936"/>
	<path class="Note" d="m687.48 90.03c-1.7885-3.2789-5.5642-5.0674-10.135-5.0674-3.3782 0-7.0546.9936-10.632 2.8814-6.5578 3.4776-10.532 9.3398-10.532 14.407 0 1.391.29808 2.7821.9936 4.0738 1.7885 3.2789 5.5642 4.968 10.135 4.968 3.3782 0 7.0546-.89424 10.632-2.7821 6.5578-3.4776 10.532-9.3398 10.532-14.407 0-1.391-.29808-2.7821-.9936-4.0738" stroke-width=".9936"/>
	<path class="Note" d="m757.17 114.87c-1.7885-3.2789-5.5642-5.0674-10.135-5.0674-3.3782 0-7.0546.9936-10.632 2.8814-6.5578 3.4776-10.532 9.3398-10.532 14.407 0 1.391.29808 2.7821.9936 4.0738 1.7885 3.2789 5.5642 4.968 10.135 4.968 3.3782 0 7.0546-.89424 10.632-2.7821 6.5578-3.4776 10.532-9.3398 10.532-14.407 0-1.391-.29808-2.7821-.9936-4.0738" stroke-width=".9936"/>
	<path class="Note" d="m868.65 139.71c-1.7885-3.2789-5.5642-5.0674-10.135-5.0674-3.3782 0-7.0546.9936-10.632 2.8814-6.5578 3.4776-10.532 9.3398-10.532 14.407 0 1.391.29808 2.7821.9936 4.0738 1.7885 3.2789 5.5642 4.968 10.135 4.968 3.3782 0 7.0546-.89424 10.632-2.7821 6.5578-3.4776 10.532-9.3398 10.532-14.407 0-1.391-.29808-2.7821-.9936-4.0738" stroke-width=".9936"/>
	<path class="Note" d="m1003.7 127.29c-1.7885-3.2789-5.5642-5.0674-10.135-5.0674-3.3782 0-7.0546.9936-10.632 2.8814-6.5578 3.4776-10.532 9.3398-10.532 14.407 0 1.391.29808 2.7821.9936 4.0738 1.7885 3.2789 5.5642 4.968 10.135 4.968 3.3782 0 7.0546-.89424 10.632-2.7821 6.5578-3.4776 10.532-9.3398 10.532-14.407 0-1.391-.2981-2.7821-.9936-4.0738" stroke-width=".9936"/>
	<path class="Note" d="m1110.5 127.29c-1.7885-3.2789-5.5642-5.0674-10.135-5.0674-3.3783 0-7.0546.9936-10.632 2.8814-6.5578 3.4776-10.532 9.3398-10.532 14.407 0 1.391.2981 2.7821.9936 4.0738 1.7885 3.2789 5.5642 4.968 10.135 4.968 3.3783 0 7.0546-.89424 10.632-2.7821 6.5578-3.4776 10.532-9.3398 10.532-14.407 0-1.391-.2981-2.7821-.9936-4.0738" stroke-width=".9936"/>
	<path class="Note" d="m1177.3 127.29c-1.7885-3.2789-5.5642-5.0674-10.135-5.0674-3.3783 0-7.0546.9936-10.632 2.8814-6.5578 3.4776-10.532 9.3398-10.532 14.407 0 1.391.2981 2.7821.9936 4.0738 1.7885 3.2789 5.5642 4.968 10.135 4.968 3.3783 0 7.0546-.89424 10.632-2.7821 6.5578-3.4776 10.532-9.3398 10.532-14.407 0-1.391-.2981-2.7821-.9936-4.0738" stroke-width=".9936"/>
	<path class="Note" d="m1244.1 114.87c-1.7885-3.2789-5.5642-5.0674-10.135-5.0674-3.3783 0-7.0546.9936-10.632 2.8814-6.5578 3.4776-10.532 9.3398-10.532 14.407 0 1.391.2981 2.7821.9936 4.0738 1.7885 3.2789 5.5642 4.968 10.135 4.968 3.3783 0 7.0546-.89424 10.632-2.7821 6.5578-3.4776 10.532-9.3398 10.532-14.407 0-1.391-.2981-2.7821-.9936-4.0738" stroke-width=".9936"/>
	<path class="Note" d="m1351 114.87c-1.7885-3.2789-5.5642-5.0674-10.135-5.0674-3.3783 0-7.0546.9936-10.632 2.8814-6.5578 3.4776-10.532 9.3398-10.532 14.407 0 1.391.2981 2.7821.9936 4.0738 1.7885 3.2789 5.5642 4.968 10.135 4.968 3.3783 0 7.0546-.89424 10.632-2.7821 6.5578-3.4776 10.532-9.3398 10.532-14.407 0-1.391-.2981-2.7821-.9936-4.0738" stroke-width=".9936"/>
	<path class="Note" d="m250.77 487.47c-1.7885-3.2789-5.5642-5.0674-10.135-5.0674-3.3782 0-7.0546.9936-10.632 2.8814-6.5578 3.4776-10.532 9.3398-10.532 14.407 0 1.391.29808 2.7821.9936 4.0738 1.7885 3.2789 5.5642 4.968 10.135 4.968 3.3782 0 7.0546-.89424 10.632-2.7821 6.5578-3.4776 10.532-9.3398 10.532-14.407 0-1.391-.29808-2.7821-.9936-4.0738" stroke-width=".9936"/>
	<path class="Note" d="m339.34 512.31c-1.7885-3.2789-5.5642-5.0674-10.135-5.0674-3.3782 0-7.0546.9936-10.632 2.8814-6.5578 3.4776-10.532 9.3398-10.532 14.407 0 1.391.29808 2.7821.9936 4.0738 1.7885 3.2789 5.5642 4.968 10.135 4.968 3.3782 0 7.0546-.89424 10.632-2.7821 6.5578-3.4776 10.532-9.3398 10.532-14.407 0-1.391-.29808-2.7821-.9936-4.0738" stroke-width=".9936"/>
	<path class="Note" d="m427.91 487.47c-1.7885-3.2789-5.5642-5.0674-10.135-5.0674-3.3782 0-7.0546.9936-10.632 2.8814-6.5578 3.4776-10.532 9.3398-10.532 14.407 0 1.391.29808 2.7821.9936 4.0738 1.7885 3.2789 5.5642 4.968 10.135 4.968 3.3782 0 7.0546-.89424 10.632-2.7821 6.5578-3.4776 10.532-9.3398 10.532-14.407 0-1.391-.29808-2.7821-.9936-4.0738" stroke-width=".9936"/>
	<path class="Note" d="m516.48 462.63c-1.7885-3.2789-5.5642-5.0674-10.135-5.0674-3.3782 0-7.0546.9936-10.632 2.8814-6.5578 3.4776-10.532 9.3398-10.532 14.407 0 1.391.29808 2.7821.9936 4.0738 1.7885 3.2789 5.5642 4.968 10.135 4.968 3.3782 0 7.0546-.89424 10.632-2.7821 6.5578-3.4776 10.532-9.3398 10.532-14.407 0-1.391-.29808-2.7821-.9936-4.0738" stroke-width=".9936"/>
	<path class="Note" d="m651.5 475.05c-1.7885-3.2789-5.5642-5.0674-10.135-5.0674-3.3782 0-7.0546.9936-10.632 2.8814-6.5578 3.4776-10.532 9.3398-10.532 14.407 0 1.391.29808 2.7821.9936 4.0738 1.7885 3.2789 5.5642 4.968 10.135 4.968 3.3782 0 7.0546-.89424 10.632-2.7821 6.5578-3.4776 10.532-9.3398 10.532-14.407 0-1.391-.29808-2.7821-.9936-4.0738" stroke-width=".9936"/>
	<path class="Note" d="m737.08 462.63c-1.7885-3.2789-5.5642-5.0674-10.135-5.0674-3.3782 0-7.0546.9936-10.632 2.8814-6.5578 3.4776-10.532 9.3398-10.532 14.407 0 1.391.29808 2.7821.9936 4.0738 1.7885 3.2789 5.5642 4.968 10.135 4.968 3.3782 0 7.0546-.89424 10.632-2.7821 6.5578-3.4776 10.532-9.3398 10.532-14.407 0-1.391-.29808-2.7821-.9936-4.0738" stroke-width=".9936"/>
	<path class="Note" d="m812.97 475.05c-1.7885-3.2789-5.5642-5.0674-10.135-5.0674-3.3782 0-7.0546.9936-10.632 2.8814-6.5578 3.4776-10.532 9.3398-10.532 14.407 0 1.391.29808 2.7821.9936 4.0738 1.7885 3.2789 5.5642 4.968 10.135 4.968 3.3782 0 7.0546-.89424 10.632-2.7821 6.5578-3.4776 10.532-9.3398 10.532-14.407 0-1.391-.29808-2.7821-.9936-4.0738" stroke-width=".9936"/>
	<path class="Note" d="m947.09 487.47c-1.7885-3.2789-5.5642-5.0674-10.135-5.0674-3.3782 0-7.0546.9936-10.632 2.8814-6.5578 3.4776-10.532 9.3398-10.532 14.407 0 1.391.29808 2.7821.9936 4.0738 1.7885 3.2789 5.5642 4.968 10.135 4.968 3.3782 0 7.0546-.89424 10.632-2.7821 6.5578-3.4776 10.532-9.3398 10.532-14.407 0-1.391-.29808-2.7821-.9936-4.0738" stroke-width=".9936"/>
	<path class="Note" d="m1035.7 512.31c-1.7885-3.2789-5.5642-5.0674-10.135-5.0674-3.3783 0-7.0546.9936-10.632 2.8814-6.5578 3.4776-10.532 9.3398-10.532 14.407 0 1.391.2981 2.7821.9936 4.0738 1.7885 3.2789 5.5642 4.968 10.135 4.968 3.3783 0 7.0546-.89424 10.632-2.7821 6.5578-3.4776 10.532-9.3398 10.532-14.407 0-1.391-.2981-2.7821-.9936-4.0738" stroke-width=".9936"/>
	<path class="Note" d="m1124.2 487.47c-1.7885-3.2789-5.5642-5.0674-10.135-5.0674-3.3783 0-7.0546.9936-10.632 2.8814-6.5578 3.4776-10.532 9.3398-10.532 14.407 0 1.391.2981 2.7821.9936 4.0738 1.7885 3.2789 5.5642 4.968 10.135 4.968 3.3783 0 7.0546-.89424 10.632-2.7821 6.5578-3.4776 10.532-9.3398 10.532-14.407 0-1.391-.2981-2.7821-.9936-4.0738" stroke-width=".9936"/>
	<path class="Note" d="m1212.8 487.47c-1.7885-3.2789-5.5642-5.0674-10.135-5.0674-3.3783 0-7.0546.9936-10.632 2.8814-6.5578 3.4776-10.532 9.3398-10.532 14.407 0 1.391.2981 2.7821.9936 4.0738 1.7885 3.2789 5.5642 4.968 10.135 4.968 3.3783 0 7.0546-.89424 10.632-2.7821 6.5578-3.4776 10.532-9.3398 10.532-14.407 0-1.391-.2981-2.7821-.9936-4.0738" stroke-width=".9936"/>
	<path class="Note" d="m1347.8 487.47c-1.7885-3.2789-5.5642-5.0674-10.135-5.0674-3.3783 0-7.0546.9936-10.632 2.8814-6.5578 3.4776-10.532 9.3398-10.532 14.407 0 1.391.2981 2.7821.9936 4.0738 1.7885 3.2789 5.5642 4.968 10.135 4.968 3.3783 0 7.0546-.89424 10.632-2.7821 6.5578-3.4776 10.532-9.3398 10.532-14.407 0-1.391-.2981-2.7821-.9936-4.0738" stroke-width=".9936"/>
	<path class="Clef" d="m82.817 104.67c-1.2221-5.3953-3.8452-9.1908-4.6202-10.224-3.1696-4.2427-7.1539-7.0744-11.814-8.4158-3.0901-.8842-6.0709-.9936-8.4754-.81475-1.0333-5.9715-2.0269-11.814-2.9311-17.229 5.4151-6.1306 9.012-11.893 11.277-16.166 3.4478-6.5378 4.5904-11.088 4.6401-11.287 1.709-5.1768 2.0667-12.827.97373-20.985-1.0035-7.5017-3.0802-14.169-5.4151-17.398-1.0234-1.4208-2.0667-2.1462-3.1-2.1462-1.2122 0-3.7061 1.2321-6.5776 3.9843-2.2853 2.1859-5.5344 6.051-8.078 12.023-2.9808 7.0149-3.1895 16.444-2.8417 23.121.37757 7.2235 1.4805 12.877 1.4904 12.927.01987.08933.27821 1.5797.72533 4.1333-.22853.22853-.46699.44712-.71539.68568-1.0333.9936-2.2157 2.1262-3.5869 3.4974-.8545.8546-1.7984 1.7587-2.792 2.7225-8.3959 8.088-21.104 20.329-21.104 39.356 0 4.6699.89424 9.0616 2.6628 13.046 1.5799 3.577 3.8651 6.836 6.7764 9.6876 7.6805 7.5017 18.203 10.691 25.218 10.532 2.9311-.0696 5.5443-.30811 7.919-.75523 1.8183 9.5386 2.951 16.524 2.9907 21.829.03974 6.4683-1.5997 10.413-5.4747 13.165-2.4144 1.7189-5.2065 2.6628-8.2866 2.8119-2.5734.11923-4.819-.34776-6.2398-.75504h-.0099s-.28814-.0795-.29808-.27821c-.0099-.17894.33782-.22862.34776-.22862h.01987c1.9077-.43709 5.4549-1.6592 7.7998-4.9381 1.7885-2.5039 2.6529-7.0944.82469-11.009-1.1029-2.3746-3.5968-5.3057-9.1809-5.7528-2.4741-.19872-4.7295.30792-6.7167 1.5002-1.7984 1.0731-3.2888 2.7026-4.3321 4.6898-2.4443 4.6699-1.9872 10.363 1.1228 14.179 2.9411 3.5968 7.5315 5.892 12.927 6.4682.84456.0895 1.6891.12917 2.5337.12917 4.4016 0 8.7735-1.1923 12.321-3.3882 3.6366-2.5536 5.743-6.5081 6.4187-12.102.55642-4.6104.16891-10.482-1.2221-18.501-.3577-2.0766-.89424-5.0872-1.55-8.8231 5.7132-1.9078 9.8466-5.455 13.592-11.268 3.2689-5.7032 4.2029-11.764 2.7821-18.024m-33.991 26.022c-4.6103-1.2122-9.012-3.6962-12.748-7.1738-1.3016-1.2221-3.1596-3.3782-4.6202-6.7465-1.3612-3.1398-2.017-6.5479-1.9673-10.115.06957-4.66 1.3712-9.4492 3.8651-14.208 2.9013-5.5444 7.4321-11.039 13.453-16.335 1.4407-1.2717 2.802-2.5435 4.0837-3.8154.75514 4.2328 1.5798 8.8927 2.4542 13.742-3.8254 1.2618-8.545 4.3916-11.635 10.005-3.5173 6.528-3.3782 12.013-2.6529 15.47.93398 4.4315 3.4478 8.1674 6.8856 10.244.92405.55632 5.0276 2.6727 6.8558 2.0964.36763-.11923.6359-.33782.77501-.66571.50674-1.1625-.50674-1.7983-2.0568-2.7523-.59616-.36756-1.2619-.78489-1.9872-1.3115-3.2988-2.4741-4.7395-6.8956-3.6763-11.248.57629-2.3846 1.8481-4.5309 3.6763-6.22 1.6593-1.5401 3.6863-2.633 6.051-3.2688 2.0269 11.168 4.0738 22.247 5.7033 30.553.12917.68549.26827 1.3512.39744 2.0169-4.352.92405-8.6741.83472-12.857-.26827m11.248-32.968c10.284-.46699 14.526 6.9254 15.411 11.725.46699 2.5138.45706 6.9254-1.0731 11.108-1.1625 3.1596-3.6068 7.2036-8.7039 9.2505-.06955-.41731-.14904-.84456-.22853-1.2719-1.5301-8.7138-3.4577-19.634-5.4052-30.812m-7.2732-70.486c1.7686-5.7032 4.4911-8.9324 6.4683-10.651 1.7388-1.5103 3.3782-2.2158 4.2924-2.2158.1391 0 .25834.01987.3577.04968.45706.1391.98366.70556 1.4507 1.57 2.2952 4.2624 1.56 10.93.22853 15.341-1.6196 5.3654-4.5209 10.949-13.265 20.498-.16891-1.1029-.32789-2.1462-.47693-3.1198-1.242-8.237-.92405-15.461.94392-21.472" stroke-width=".9936"/>
	<path class="Clef" d="m82.817 452.43c-1.2221-5.3953-3.8452-9.1908-4.6202-10.224-3.1696-4.2427-7.1539-7.0744-11.814-8.4158-3.0901-.88421-6.0709-.9936-8.4754-.81475-1.0333-5.9715-2.0269-11.814-2.9311-17.229 5.4151-6.1306 9.012-11.893 11.277-16.166 3.4478-6.5378 4.5904-11.088 4.6401-11.287 1.709-5.1768 2.0667-12.827.97373-20.985-1.0035-7.5017-3.0802-14.169-5.4151-17.398-1.0234-1.4208-2.0667-2.1462-3.1-2.1462-1.2122 0-3.7061 1.2321-6.5776 3.9843-2.2853 2.1859-5.5344 6.051-8.078 12.023-2.9808 7.0149-3.1895 16.444-2.8417 23.121.37757 7.2235 1.4805 12.877 1.4904 12.927.01987.0893.27821 1.5797.72533 4.1333-.22853.22853-.46699.44712-.71539.68568-1.0333.9936-2.2157 2.1262-3.5869 3.4974-.8545.85459-1.7984 1.7587-2.792 2.7225-8.3959 8.088-21.104 20.329-21.104 39.356 0 4.6699.89424 9.0616 2.6628 13.046 1.5799 3.577 3.8651 6.836 6.7764 9.6876 7.6805 7.5017 18.203 10.691 25.218 10.532 2.9311-.0695 5.5443-.30811 7.919-.75523 1.8183 9.5386 2.951 16.524 2.9907 21.829.03974 6.4683-1.5997 10.413-5.4747 13.165-2.4144 1.7189-5.2065 2.6628-8.2866 2.8119-2.5734.11923-4.819-.34776-6.2398-.75504h-.0099s-.28814-.0795-.29808-.27821c-.0099-.17894.33782-.22862.34776-.22862h.01987c1.9077-.43709 5.4549-1.6592 7.7998-4.9381 1.7885-2.5039 2.6529-7.0944.82469-11.009-1.1029-2.3746-3.5968-5.3057-9.1809-5.7528-2.4741-.19872-4.7295.30792-6.7167 1.5002-1.7984 1.0731-3.2888 2.7026-4.3321 4.6898-2.4443 4.6699-1.9872 10.363 1.1228 14.179 2.9411 3.5968 7.5315 5.892 12.927 6.4682.84456.0895 1.6891.12917 2.5337.12917 4.4016 0 8.7735-1.1923 12.321-3.3882 3.6366-2.5536 5.743-6.5081 6.4187-12.102.55642-4.6104.16891-10.482-1.2221-18.501-.3577-2.0766-.89424-5.0872-1.55-8.8231 5.7132-1.9078 9.8466-5.455 13.592-11.268 3.2689-5.7032 4.2029-11.764 2.7821-18.024m-33.991 26.022c-4.6103-1.2122-9.012-3.6962-12.748-7.1738-1.3016-1.2221-3.1596-3.3782-4.6202-6.7465-1.3612-3.1398-2.017-6.5479-1.9673-10.115.06957-4.66 1.3712-9.4492 3.8651-14.208 2.9013-5.5444 7.4321-11.039 13.453-16.335 1.4407-1.2717 2.802-2.5435 4.0837-3.8154.75514 4.2328 1.5798 8.8927 2.4542 13.742-3.8254 1.2618-8.545 4.3916-11.635 10.005-3.5173 6.528-3.3782 12.013-2.6529 15.47.93398 4.4315 3.4478 8.1674 6.8856 10.244.92405.55632 5.0276 2.6727 6.8558 2.0964.36763-.11923.6359-.33782.77501-.66571.50674-1.1625-.50674-1.7983-2.0568-2.7523-.59616-.36756-1.2619-.78489-1.9872-1.3115-3.2988-2.4741-4.7395-6.8956-3.6763-11.248.57629-2.3846 1.8481-4.5309 3.6763-6.22 1.6593-1.5401 3.6863-2.633 6.051-3.2688 2.0269 11.168 4.0738 22.247 5.7033 30.553.12917.68549.26827 1.3512.39744 2.0169-4.352.92405-8.6741.83472-12.857-.26827m11.248-32.968c10.284-.46699 14.526 6.9254 15.411 11.725.46699 2.5138.45706 6.9254-1.0731 11.108-1.1625 3.1596-3.6068 7.2036-8.7039 9.2505-.06955-.41731-.14904-.84456-.22853-1.2719-1.5301-8.7138-3.4577-19.634-5.4052-30.812m-7.2732-70.486c1.7686-5.7032 4.4911-8.9324 6.4683-10.651 1.7388-1.5103 3.3782-2.2158 4.2924-2.2158.1391 0 .25834.0199.3577.0497.45706.1391.98366.70555 1.4507 1.57 2.2952 4.2624 1.56 10.93.22853 15.341-1.6196 5.3654-4.5209 10.949-13.265 20.498-.16891-1.1029-.32789-2.1462-.47693-3.1198-1.242-8.237-.92405-15.461.94392-21.472" stroke-width=".9936"/>
	<path class="KeySig" d="m156.28 62.706c.59616-.09936 1.093-.79488 1.093-1.391v-5.8622c0-.79488-.59616-1.391-1.391-1.391h-.19872l-3.2789.69552v-14.805h-2.7821v15.401l-8.843 1.7885v-14.01h-2.7821v14.606l-3.875.79488c-.59616.09936-1.093.79488-1.093 1.391v5.9616-.19872c0 .79488.59616 1.391 1.391 1.391h.29808l3.2789-.69552v16.394l-3.875.79488c-.59616.09936-1.093.79488-1.093 1.391v5.7629c0 .79488.59616 1.391 1.391 1.391h.29808l3.2789-.69552v14.805h2.7821v-15.401l8.843-1.7885v14.01h2.7821v-14.606l3.7757-.69552c.59616-.09936 1.093-.79488 1.093-1.391v-5.8622c0-.79488-.59616-1.391-1.391-1.391h-.19872l-3.2789.69552v-16.394l3.7757-.69552m-15.401 19.574v-16.494l8.843-1.7885v16.394l-8.843 1.8878" stroke-width=".9936"/>
	<path class="KeySig" d="m131.44 25.446c.59616-.09936 1.093-.79488 1.093-1.391v-5.8622c0-.79488-.59616-1.391-1.391-1.391h-.19872l-3.2789.69552v-14.805h-2.7821v15.401l-8.843 1.7885v-14.01h-2.7821v14.606l-3.875.79488c-.59616.09936-1.093.79488-1.093 1.391v5.9616-.19872c0 .79488.59616 1.391 1.391 1.391h.29808l3.2789-.69552v16.394l-3.875.79488c-.59616.09936-1.093.79488-1.093 1.391v5.7629c0 .79488.59616 1.391 1.391 1.391h.29808l3.2789-.69552v14.805h2.7821v-15.401l8.843-1.7885v14.01h2.7821v-14.606l3.7757-.69552c.59616-.09936 1.093-.79488 1.093-1.391v-5.8622c0-.79488-.59616-1.391-1.391-1.391h-.19872l-3.2789.69552v-16.394l3.7757-.69552m-15.401 19.574v-16.494l8.843-1.7885v16.394l-8.843 1.8878" stroke-width=".9936"/>
	<path class="KeySig" d="m156.28 410.47c.59616-.0994 1.093-.79488 1.093-1.391v-5.8622c0-.79488-.59616-1.391-1.391-1.391h-.19872l-3.2789.69552v-14.805h-2.7821v15.401l-8.843 1.7885v-14.01h-2.7821v14.606l-3.875.79488c-.59616.0994-1.093.79488-1.093 1.391v5.9616-.19872c0 .79488.59616 1.391 1.391 1.391h.29808l3.2789-.69552v16.394l-3.875.79488c-.59616.0994-1.093.79488-1.093 1.391v5.7629c0 .79488.59616 1.391 1.391 1.391h.29808l3.2789-.69552v14.805h2.7821v-15.401l8.843-1.7885v14.01h2.7821v-14.606l3.7757-.69552c.59616-.0994 1.093-.79488 1.093-1.391v-5.8622c0-.79488-.59616-1.391-1.391-1.391h-.19872l-3.2789.69552v-16.394l3.7757-.69552m-15.401 19.574v-16.494l8.843-1.7885v16.394l-8.843 1.8878" stroke-width=".9936"/>
	<path class="KeySig" d="m131.44 373.21c.59616-.0994 1.093-.79488 1.093-1.391v-5.8622c0-.79488-.59616-1.391-1.391-1.391h-.19872l-3.2789.69552v-14.805h-2.7821v15.401l-8.843 1.7885v-14.01h-2.7821v14.606l-3.875.79488c-.59616.0994-1.093.79488-1.093 1.391v5.9616-.19872c0 .79488.59616 1.391 1.391 1.391h.29808l3.2789-.69552v16.394l-3.875.79488c-.59616.0994-1.093.79488-1.093 1.391v5.7629c0 .79488.59616 1.391 1.391 1.391h.29808l3.2789-.69552v14.805h2.7821v-15.401l8.843-1.7885v14.01h2.7821v-14.606l3.7757-.69552c.59616-.0994 1.093-.79488 1.093-1.391v-5.8622c0-.79488-.59616-1.391-1.391-1.391h-.19872l-3.2789.69552v-16.394l3.7757-.69552m-15.401 19.574v-16.494l8.843-1.7885v16.394l-8.843 1.8878" stroke-width=".9936"/>
	<path class="TimeSig" d="m218.1 65.19c-.79488 2.1859-2.7821 9.3398-7.6507 9.3398-6.4584 0-7.8494-3.9744-13.215-3.9744-.79488 0-1.5898.09936-2.5834.29808 0 0 2.484-3.7757 13.016-7.0546s13.215-8.4456 13.215-14.407c0-4.1731-1.8878-12.42-16.891-12.42s-17.785 9.0418-17.785 13.612c0 4.0738 3.3782 7.3526 7.452 7.3526s7.3526-3.2789 7.3526-7.3526c0-2.7821-1.9872-5.8622-4.5706-6.8558-.29808-.09936-.69552-.59616-.69552-1.093 0-.59616.4968-1.2917 2.2853-1.7885.4968-.19872 1.8878-.4968 3.3782-.4968 1.391 0 2.9808.29808 4.1731 1.093 1.8878 1.1923 2.5834 2.9808 2.5834 7.452 0 11.625-13.811 14.109-19.574 22.753 0 0-2.9808 4.1731-2.9808 8.843s2.3846 4.968 3.577 4.968c1.5898 0 3.2789-1.2917 3.2789-3.0802 0-.39744-.0994-.79488-.29808-1.2917-.59616-1.391-.79488-2.484-.79488-3.2789 0-.29808 0-.59616.0994-.89424.0994-.59616.89424-1.5898 3.2789-1.5898 2.8814 0 3.9744 3.3782 5.7629 5.9616s4.5706 4.1731 7.7501 4.1731 7.452-2.2853 9.2405-5.9616 4.0738-11.128 4.0738-13.811c0-1.2917-.79488-1.8878-1.6891-1.8878-.69552 0-1.391.39744-1.7885 1.391" stroke-width=".9936"/>
	<path class="TimeSig" d="m184.41 122.94h17.07v7.3725h-8.1773c-.7749 0-1.4009.62597-1.4009 1.401v1.8978c0 .77501.62597 1.401 1.4009 1.401h30.056c.77501 0 1.401-.62597 1.401-1.401v-1.8978c0-.775-.62597-1.401-1.401-1.401h-8.8828v-7.3725h8.8828c.77501 0 1.401-.62597 1.401-1.401v-1.8978c0-.77498-.62597-1.4009-1.401-1.4009h-8.8828v-15.858c0-.53648-.29808-1.0134-.77501-1.2519l-1.2022-.59616c-.52661-.25834-1.1527-.16892-1.5799.2285l-8.9921 8.2668c-.28804.26829-.45695.63594-.45695 1.0334v8.1773h-11.436s11.049-11.953 22.813-27.622c.86443-1.1426.36763-2.1859.17874-2.3747l-2.1561-2.1959c-.26827-.25834-.62597-.40738-.9936-.40738-.59616 0-14.059.01987-14.775 0-.71529-.01987-1.2519.59616-1.3215 1.2122 0 0-.53644 7.3129-3.1198 15.391-2.5834 8.068-5.5046 13.016-8.1475 16.623 0 0-.53659.9837-.17893 1.7189.34776.7452.97381 1.8282.97381 1.8282s.25829.52661 1.1028.52661" stroke-width=".9936"/>
	<path class="Hook" d="m307.46 64.296c-.0994-.29808-.9936-3.7757-.9936-3.9744-.0994-.39744-.69552-.69552-1.1923-.69552-.69552 0-1.2917.59616-1.2917 1.2917v22.455c0 .4968.39744.89424.79488 1.093 4.1731 1.2917 12.817 6.7565 19.276 17.785 1.7885 3.0802 4.6699 7.2533 4.6699 15.6 0 7.1539-1.093 14.705-2.8814 21.66-.29808 1.093-.59616 2.0866.4968 2.484s1.4904-.39744 1.8878-1.391c3.577-8.7437 4.4712-17.885 4.4712-24.045v-1.8878c-.4968-12.817-7.8494-22.257-7.8494-22.257.29808 0-9.1411-12.221-11.824-16.394-3.6763-5.6635-5.4648-11.327-5.5642-11.724" stroke-width=".9936"/>
	<path class="Hook" d="m393.02 64.296c-.0994-.29808-.9936-3.7757-.9936-3.9744-.0994-.39744-.69552-.69552-1.1923-.69552-.69552 0-1.2917.59616-1.2917 1.2917v22.455c0 .4968.39744.89424.79488 1.093 4.1731 1.2917 12.817 6.7565 19.276 17.785 1.7885 3.0802 4.6699 7.2533 4.6699 15.6 0 7.1539-1.093 14.705-2.8814 21.66-.29808 1.093-.59616 2.0866.4968 2.484s1.4904-.39744 1.8878-1.391c3.577-8.7437 4.4712-17.885 4.4712-24.045v-1.8878c-.4968-12.817-7.8494-22.257-7.8494-22.257.29808 0-9.1411-12.221-11.824-16.394-3.6763-5.6635-5.4648-11.327-5.5642-11.724" stroke-width=".9936"/>
	<path class="Hook" d="m448.04 148.16c0-.19872.89424-3.577.9936-3.875.0994-.39744 1.8878-6.061 5.5642-11.724 2.6827-4.1731 12.122-16.394 11.824-16.394 0 0 7.3526-9.4392 7.8494-22.257v-2.2853c0-6.061-.79488-14.606-4.2725-23.25-.39744-.9936-.79488-1.9872-1.8878-1.5898s-.79488 1.5898-.4968 2.6827c1.7885 6.9552 2.7821 14.109 2.7821 21.263 0 8.3462-2.9808 12.519-4.7693 15.6-6.5578 11.029-15.103 16.394-19.276 17.785-.4968.19872-.79488.59616-.79488 1.093v22.455c0 .69552.59616 1.2917 1.2917 1.2917.4968 0 1.093-.39744 1.1923-.79488" stroke-width=".9936"/>
	<path class="Hook" d="m549.83 173.37c0 .67659.32098 1.2301 1.4676 1.2301 1.1466 0 1.3533-.50476 1.4675-1.2301 0 0 1.548-10.555 5.3466-16.066 3.7985-5.5105 9.9598-8.6443 14.766-14.767 3.4827-4.4344 4.7285-9.7601 4.8229-14.947.0894-4.9412-.87139-9.7264-1.9364-13.525.33187-2.1024.52949-4.5199.52949-7.3526 0-5.6258-2.5714-10.999-4.3977-13.847-.47097-.73328-.97373-1.7885-2.02-1.248-1.0462.54042-.58026 1.7467-.24343 2.6827 1.4487 4.0011 2.1273 9.0418 2.2069 11.517.12708 3.9615-.17288 7.8286-4.1573 13.777-5.9436 8.8728-13.811 13.811-16.384 14.762-.67369.23241-1.4676.70546-1.4676.95088v38.062m23.35-51.14c.35074 4.7842.41433 9.5624-5.1984 16.371-3.7757 4.5776-9.8467 9.0906-14.302 9.4472l-.0994.40847c.0626-.32997.12517-.62805.18678-.86543.65186-2.5318 2.477-5.9894 6.367-9.8962 4.8816-4.9025 7.8375-8.0482 10.524-11.544.79339-1.0204 1.9249-2.7774 2.5257-3.9217h-.004" stroke-width=".9936"/>
	<path class="Hook" d="m689.22 20.826c-.0994-.29808-.9936-3.7757-.9936-3.9744-.0994-.39744-.69552-.69552-1.1923-.69552-.69552 0-1.2917.59616-1.2917 1.2917v22.455c0 .4968.39744.89424.79488 1.093 4.1731 1.2917 12.817 6.7565 19.276 17.785 1.7885 3.0802 4.6699 7.2533 4.6699 15.6 0 7.1539-1.093 14.705-2.8814 21.66-.29808 1.093-.59616 2.0866.4968 2.484s1.4904-.39744 1.8878-1.391c3.577-8.7437 4.4712-17.885 4.4712-24.045v-1.8878c-.4968-12.817-7.8494-22.257-7.8494-22.257.29808 0-9.1411-12.221-11.824-16.394-3.6763-5.6635-5.4648-11.327-5.5642-11.724" stroke-width=".9936"/>
	<path class="Hook" d="m870.39 64.296c-.0994-.29808-.9936-3.7757-.9936-3.9744-.0994-.39744-.69552-.69552-1.1923-.69552-.69552 0-1.2917.59616-1.2917 1.2917v22.455c0 .4968.39744.89424.79488 1.093 4.1731 1.2917 12.817 6.7565 19.276 17.785 1.7885 3.0802 4.6699 7.2533 4.6699 15.6 0 7.1539-1.093 14.705-2.8814 21.66-.29808 1.093-.59616 2.0866.4968 2.484s1.4904-.39744 1.8878-1.391c3.577-8.7437 4.4712-17.885 4.4712-24.045v-1.8878c-.4968-12.817-7.8494-22.257-7.8494-22.257.29808 0-9.1411-12.221-11.824-16.394-3.6763-5.6635-5.4648-11.327-5.5642-11.724" stroke-width=".9936"/>
	<path class="Hook" d="m1005.4 51.876c-.099-.29808-.9936-3.7757-.9936-3.9744-.099-.39744-.6955-.69552-1.1923-.69552-.6955 0-1.2917.59616-1.2917 1.2917v22.455c0 .4968.3974.89424.7949 1.093 4.1731 1.2917 12.817 6.7565 19.276 17.785 1.7885 3.0802 4.6699 7.2533 4.6699 15.6 0 7.1539-1.0929 14.705-2.8814 21.66-.2981 1.093-.5962 2.0866.4968 2.484s1.4904-.39744 1.8878-1.391c3.577-8.7437 4.4712-17.885 4.4712-24.045v-1.8878c-.4968-12.817-7.8494-22.257-7.8494-22.257.2981 0-9.1411-12.221-11.824-16.394-3.6764-5.6635-5.4648-11.327-5.5642-11.724" stroke-width=".9936"/>
	<path class="Hook" d="m1136.6 93.607c-.099-5.1667-1.2917-10.532-4.7693-15.003-4.7693-6.1603-11.029-9.2405-14.805-14.705s-5.3655-16.096-5.3655-16.096c-.099-.69552-.298-1.1923-1.4904-1.1923-1.1923 0-1.391.4968-1.391 1.1923v38.055c0 .19872.6955.79488 1.391.9936 2.5834.9936 10.433 5.8622 16.394 14.705 3.577 5.4648 4.1732 9.1411 4.1732 12.718v1.093c-.099 2.484-.6956 7.5514-2.186 11.526-.298.89424-.7948 2.1859.1988 2.6827s1.5897-.59616 2.0865-1.2917c1.7885-2.8814 4.3719-8.1475 4.3719-13.811 0-2.7821-.1988-5.2661-.4968-7.3526.9936-3.577 1.8878-8.0482 1.8878-12.718v-.79488m-7.0546 1.391c-2.6827-3.4776-5.6635-6.6571-10.532-11.526-3.8751-3.875-5.6635-7.2533-6.3591-9.8366-.099-.19872-.099-.59616-.1987-.89424l.099.39744c4.4712.39744 10.532 4.8686 14.308 9.4392 4.4712 5.3654 5.3655 9.5386 5.3655 13.414 0 .9936 0 1.8878-.099 2.8814-.5962-1.093-1.7885-2.8814-2.5834-3.875" stroke-width=".9936"/>
	<path class="Hook" d="m1203.4 93.607c-.099-5.1667-1.2917-10.532-4.7693-15.003-4.7693-6.1603-11.029-9.2405-14.805-14.705s-5.3655-16.096-5.3655-16.096c-.099-.69552-.298-1.1923-1.4904-1.1923-1.1923 0-1.391.4968-1.391 1.1923v38.055c0 .19872.6955.79488 1.391.9936 2.5834.9936 10.433 5.8622 16.394 14.705 3.577 5.4648 4.1732 9.1411 4.1732 12.718v1.093c-.099 2.484-.6956 7.5514-2.186 11.526-.298.89424-.7948 2.1859.1988 2.6827s1.5897-.59616 2.0865-1.2917c1.7885-2.8814 4.3719-8.1475 4.3719-13.811 0-2.7821-.1988-5.2661-.4968-7.3526.9936-3.577 1.8878-8.0482 1.8878-12.718v-.79488m-7.0546 1.391c-2.6827-3.4776-5.6635-6.6571-10.532-11.526-3.8751-3.875-5.6635-7.2533-6.3591-9.8366-.099-.19872-.099-.59616-.1987-.89424l.099.39744c4.4712.39744 10.532 4.8686 14.308 9.4392 4.4712 5.3654 5.3655 9.5386 5.3655 13.414 0 .9936 0 1.8878-.099 2.8814-.5962-1.093-1.7885-2.8814-2.5834-3.875" stroke-width=".9936"/>
	<path class="Hook" d="m1245.8 39.456c-.099-.29808-.9936-3.7757-.9936-3.9744-.099-.39744-.6955-.69552-1.1923-.69552-.6955 0-1.2917.59616-1.2917 1.2917v22.455c0 .4968.3974.89424.7949 1.093 4.1731 1.2917 12.817 6.7565 19.276 17.785 1.7885 3.0802 4.6699 7.2533 4.6699 15.6 0 7.1539-1.0929 14.705-2.8814 21.66-.2981 1.093-.5962 2.0866.4968 2.484s1.4904-.39744 1.8878-1.391c3.577-8.7437 4.4712-17.885 4.4712-24.045v-1.8878c-.4968-12.817-7.8494-22.257-7.8494-22.257.2981 0-9.1411-12.221-11.824-16.394-3.6764-5.6635-5.4648-11.327-5.5642-11.724" stroke-width=".9936"/>
	<path class="Hook" d="m1352.7 39.456c-.099-.29808-.9936-3.7757-.9936-3.9744-.099-.39744-.6955-.69552-1.1923-.69552-.6955 0-1.2917.59616-1.2917 1.2917v22.455c0 .4968.3974.89424.7949 1.093 4.1731 1.2917 12.817 6.7565 19.276 17.785 1.7885 3.0802 4.6699 7.2533 4.6699 15.6 0 7.1539-1.0929 14.705-2.8814 21.66-.2981 1.093-.5962 2.0866.4968 2.484s1.4904-.39744 1.8878-1.391c3.577-8.7437 4.4712-17.885 4.4712-24.045v-1.8878c-.4968-12.817-7.8494-22.257-7.8494-22.257.2981 0-9.1411-12.221-11.824-16.394-3.6764-5.6635-5.4648-11.327-5.5642-11.724" stroke-width=".9936"/>
	<path class="Hook" d="m252.5 412.06c-.0994-.29808-.9936-3.7757-.9936-3.9744-.0994-.39744-.69552-.69552-1.1923-.69552-.69552 0-1.2917.59616-1.2917 1.2917v22.455c0 .4968.39744.89424.79488 1.093 4.1731 1.2917 12.817 6.7565 19.276 17.785 1.7885 3.0802 4.6699 7.2533 4.6699 15.6 0 7.1539-1.093 14.705-2.8814 21.66-.29808 1.093-.59616 2.0866.4968 2.484s1.4904-.39744 1.8878-1.391c3.577-8.7437 4.4712-17.885 4.4712-24.045v-1.8878c-.4968-12.817-7.8494-22.257-7.8494-22.257.29808 0-9.1411-12.221-11.824-16.394-3.6763-5.6635-5.4648-11.327-5.5642-11.724" stroke-width=".9936"/>
	<path class="Hook" d="m341.07 436.9c-.0994-.29808-.9936-3.7757-.9936-3.9744-.0994-.39744-.69552-.69552-1.1923-.69552-.69552 0-1.2917.59616-1.2917 1.2917v22.455c0 .4968.39744.89424.79488 1.093 4.1731 1.2917 12.817 6.7565 19.276 17.785 1.7885 3.0802 4.6699 7.2533 4.6699 15.6 0 7.1539-1.093 14.705-2.8814 21.66-.29808 1.093-.59616 2.0866.4968 2.484s1.4904-.39744 1.8878-1.391c3.577-8.7437 4.4712-17.885 4.4712-24.045v-1.8878c-.4968-12.817-7.8494-22.257-7.8494-22.257.29808 0-9.1411-12.221-11.824-16.394-3.6763-5.6635-5.4648-11.327-5.5642-11.724" stroke-width=".9936"/>
	<path class="Hook" d="m429.64 412.06c-.0994-.29808-.9936-3.7757-.9936-3.9744-.0994-.39744-.69552-.69552-1.1923-.69552-.69552 0-1.2917.59616-1.2917 1.2917v22.455c0 .4968.39744.89424.79488 1.093 4.1731 1.2917 12.817 6.7565 19.276 17.785 1.7885 3.0802 4.6699 7.2533 4.6699 15.6 0 7.1539-1.093 14.705-2.8814 21.66-.29808 1.093-.59616 2.0866.4968 2.484s1.4904-.39744 1.8878-1.391c3.577-8.7437 4.4712-17.885 4.4712-24.045v-1.8878c-.4968-12.817-7.8494-22.257-7.8494-22.257.29808 0-9.1411-12.221-11.824-16.394-3.6763-5.6635-5.4648-11.327-5.5642-11.724" stroke-width=".9936"/>
	<path class="Hook" d="m518.21 387.22c-.0994-.29808-.9936-3.7757-.9936-3.9744-.0994-.39744-.69552-.69552-1.1923-.69552-.69552 0-1.2917.59616-1.2917 1.2917v22.455c0 .4968.39744.89424.79488 1.093 4.1731 1.2917 12.817 6.7565 19.276 17.785 1.7885 3.0802 4.6699 7.2533 4.6699 15.6 0 7.1539-1.093 14.705-2.8814 21.66-.29808 1.093-.59616 2.0866.4968 2.484s1.4904-.39744 1.8878-1.391c3.577-8.7437 4.4712-17.885 4.4712-24.045v-1.8878c-.4968-12.817-7.8494-22.257-7.8494-22.257.29808 0-9.1411-12.221-11.824-16.394-3.6763-5.6635-5.4648-11.327-5.5642-11.724" stroke-width=".9936"/>
	<path class="Hook" d="m738.81 387.22c-.0994-.29808-.9936-3.7757-.9936-3.9744-.0994-.39744-.69552-.69552-1.1923-.69552-.69552 0-1.2917.59616-1.2917 1.2917v22.455c0 .4968.39744.89424.79488 1.093 4.1731 1.2917 12.817 6.7565 19.276 17.785 1.7885 3.0802 4.6699 7.2533 4.6699 15.6 0 7.1539-1.093 14.705-2.8814 21.66-.29808 1.093-.59616 2.0866.4968 2.484s1.4904-.39744 1.8878-1.391c3.577-8.7437 4.4712-17.885 4.4712-24.045v-1.8878c-.4968-12.817-7.8494-22.257-7.8494-22.257.29808 0-9.1411-12.221-11.824-16.394-3.6763-5.6635-5.4648-11.327-5.5642-11.724" stroke-width=".9936"/>
	<path class="Hook" d="m839.04 441.37c-.0994-5.1667-1.2917-10.532-4.7693-15.003-4.7693-6.1603-11.029-9.2405-14.805-14.705s-5.3654-16.096-5.3654-16.096c-.0994-.69552-.29808-1.1923-1.4904-1.1923s-1.391.4968-1.391 1.1923v38.055c0 .19872.69552.79488 1.391.9936 2.5834.9936 10.433 5.8622 16.394 14.705 3.577 5.4648 4.1731 9.1411 4.1731 12.718v1.093c-.0994 2.484-.69552 7.5514-2.1859 11.526-.29808.89424-.79488 2.1859.19872 2.6827s1.5898-.59616 2.0866-1.2917c1.7885-2.8814 4.3718-8.1475 4.3718-13.811 0-2.7821-.19872-5.2661-.4968-7.3526.9936-3.577 1.8878-8.0482 1.8878-12.718v-.79488m-7.0546 1.391c-2.6827-3.4776-5.6635-6.6571-10.532-11.526-3.875-3.875-5.6635-7.2533-6.359-9.8366-.0994-.19872-.0994-.59616-.19872-.89424l.0994.39744c4.4712.39744 10.532 4.8686 14.308 9.4392 4.4712 5.3654 5.3654 9.5386 5.3654 13.414 0 .9936 0 1.8878-.0994 2.8814-.59616-1.093-1.7885-2.8814-2.5834-3.875" stroke-width=".9936"/>
	<path class="Hook" d="m948.82 412.06c-.0994-.29808-.9936-3.7757-.9936-3.9744-.0994-.39744-.69552-.69552-1.1923-.69552-.69552 0-1.2917.59616-1.2917 1.2917v22.455c0 .4968.39744.89424.79488 1.093 4.1731 1.2917 12.817 6.7565 19.276 17.785 1.7885 3.0802 4.6699 7.2533 4.6699 15.6 0 7.1539-1.093 14.705-2.8814 21.66-.29808 1.093-.59616 2.0866.4968 2.484s1.4904-.39744 1.8878-1.391c3.577-8.7437 4.4712-17.885 4.4712-24.045v-1.8878c-.4968-12.817-7.8494-22.257-7.8494-22.257.29808 0-9.1411-12.221-11.824-16.394-3.6763-5.6635-5.4648-11.327-5.5642-11.724" stroke-width=".9936"/>
	<path class="Hook" d="m1037.4 436.9c-.099-.29808-.9936-3.7757-.9936-3.9744-.099-.39744-.6955-.69552-1.1923-.69552-.6955 0-1.2917.59616-1.2917 1.2917v22.455c0 .4968.3974.89424.7949 1.093 4.1731 1.2917 12.817 6.7565 19.276 17.785 1.7885 3.0802 4.6699 7.2533 4.6699 15.6 0 7.1539-1.0929 14.705-2.8814 21.66-.2981 1.093-.5962 2.0866.4968 2.484s1.4904-.39744 1.8878-1.391c3.577-8.7437 4.4712-17.885 4.4712-24.045v-1.8878c-.4968-12.817-7.8494-22.257-7.8494-22.257.2981 0-9.1411-12.221-11.824-16.394-3.6764-5.6635-5.4648-11.327-5.5642-11.724" stroke-width=".9936"/>
	<path class="Hook" d="m1126 412.06c-.099-.29808-.9936-3.7757-.9936-3.9744-.099-.39744-.6955-.69552-1.1923-.69552-.6955 0-1.2917.59616-1.2917 1.2917v22.455c0 .4968.3974.89424.7949 1.093 4.1731 1.2917 12.817 6.7565 19.276 17.785 1.7885 3.0802 4.6699 7.2533 4.6699 15.6 0 7.1539-1.0929 14.705-2.8814 21.66-.2981 1.093-.5962 2.0866.4968 2.484s1.4904-.39744 1.8878-1.391c3.577-8.7437 4.4712-17.885 4.4712-24.045v-1.8878c-.4968-12.817-7.8494-22.257-7.8494-22.257.2981 0-9.1411-12.221-11.824-16.394-3.6764-5.6635-5.4648-11.327-5.5642-11.724" stroke-width=".9936"/>
	<path class="Hook" d="m1214.5 412.06c-.099-.29808-.9936-3.7757-.9936-3.9744-.099-.39744-.6955-.69552-1.1923-.69552-.6955 0-1.2917.59616-1.2917 1.2917v22.455c0 .4968.3974.89424.7949 1.093 4.1731 1.2917 12.817 6.7565 19.276 17.785 1.7885 3.0802 4.6699 7.2533 4.6699 15.6 0 7.1539-1.0929 14.705-2.8814 21.66-.2981 1.093-.5962 2.0866.4968 2.484s1.4904-.39744 1.8878-1.391c3.577-8.7437 4.4712-17.885 4.4712-24.045v-1.8878c-.4968-12.817-7.8494-22.257-7.8494-22.257.2981 0-9.1411-12.221-11.824-16.394-3.6764-5.6635-5.4648-11.327-5.5642-11.724" stroke-width=".9936"/>
	<path class="NoteDot" d="m490.26 48.397c0 2.7438 2.2242 4.968 4.968 4.968s4.968-2.2242 4.968-4.968c0-2.7438-2.2242-4.968-4.968-4.968s-4.968 2.2242-4.968 4.968" stroke-width=".9936"/>
	<path class="NoteDot" d="m750.48 470.68c0 2.7438 2.2242 4.968 4.968 4.968s4.968-2.2242 4.968-4.968c0-2.7438-2.2242-4.968-4.968-4.968s-4.968 2.2242-4.968 4.968" stroke-width=".9936"/>
</svg>
