<?xml version="1.0" encoding="UTF-8"?>
<svg version="1.2" viewBox="0 0 1431 912.31" xmlns="http://www.w3.org/2000/svg" xmlns:cc="http://creativecommons.org/ns#" xmlns:dc="http://purl.org/dc/elements/1.1/" xmlns:rdf="http://www.w3.org/1999/02/22-rdf-syntax-ns#">
 <metadata>
  <rdf:RDF>
   <cc:Work rdf:about="">
    <dc:format>image/svg+xml</dc:format>
    <dc:type rdf:resource="http://purl.org/dc/dcmitype/StillImage"/>
    <dc:title>Du_Bois_7</dc:title>
   </cc:Work>
  </rdf:RDF>
 </metadata>
 <title>Du_Bois_7</title>
 <desc>Generated by MuseScore 3.6.2</desc>
 <polyline class="StaffLines" points="0 35.978 1431 35.978" fill="none" stroke="#000" stroke-linejoin="bevel" stroke-width="2.73"/>
 <polyline class="StaffLines" points="0 60.818 1431 60.818" fill="none" stroke="#000" stroke-linejoin="bevel" stroke-width="2.73"/>
 <polyline class="StaffLines" points="0 85.658 1431 85.658" fill="none" stroke="#000" stroke-linejoin="bevel" stroke-width="2.73"/>
 <polyline class="StaffLines" points="0 110.5 1431 110.5" fill="none" stroke="#000" stroke-linejoin="bevel" stroke-width="2.73"/>
 <polyline class="StaffLines" points="0 135.34 1431 135.34" fill="none" stroke="#000" stroke-linejoin="bevel" stroke-width="2.73"/>
 <polyline class="StaffLines" points="0 383.74 1431 383.74" fill="none" stroke="#000" stroke-linejoin="bevel" stroke-width="2.73"/>
 <polyline class="StaffLines" points="0 408.58 1431 408.58" fill="none" stroke="#000" stroke-linejoin="bevel" stroke-width="2.73"/>
 <polyline class="StaffLines" points="0 433.42 1431 433.42" fill="none" stroke="#000" stroke-linejoin="bevel" stroke-width="2.73"/>
 <polyline class="StaffLines" points="0 458.26 1431 458.26" fill="none" stroke="#000" stroke-linejoin="bevel" stroke-width="2.73"/>
 <polyline class="StaffLines" points="0 483.1 1431 483.1" fill="none" stroke="#000" stroke-linejoin="bevel" stroke-width="2.73"/>
 <polyline class="StaffLines" points="0 731.5 1431 731.5" fill="none" stroke="#000" stroke-linejoin="bevel" stroke-width="2.73"/>
 <polyline class="StaffLines" points="0 756.34 1431 756.34" fill="none" stroke="#000" stroke-linejoin="bevel" stroke-width="2.73"/>
 <polyline class="StaffLines" points="0 781.18 1431 781.18" fill="none" stroke="#000" stroke-linejoin="bevel" stroke-width="2.73"/>
 <polyline class="StaffLines" points="0 806.02 1431 806.02" fill="none" stroke="#000" stroke-linejoin="bevel" stroke-width="2.73"/>
 <polyline class="StaffLines" points="0 830.86 1431 830.86" fill="none" stroke="#000" stroke-linejoin="bevel" stroke-width="2.73"/>
 <path class="SlurSegment" d="m217.78 530.29c70.533 45.753 272.31 32.582 336.3-21.951-63.534 61.474-265.31 74.644-336.3 21.951" fill-rule="evenodd" stroke="#000" stroke-linecap="round" stroke-linejoin="round" stroke-width="1.74"/>
 <path class="SlurSegment" d="m1221.5 847.41c-70.42 59.65-262.07 86.03-359.64 32.98 97.89 56.51 289.53 30.14 359.64-32.98" fill-rule="evenodd" stroke="#000" stroke-linecap="round" stroke-linejoin="round" stroke-width="1.74"/>
 <path class="SlurSegment" d="m263.78 207.37c33.432 25.223 94.536 19.013 122.21-12.42-26.97 38.353-88.074 44.563-122.21 12.42" fill-rule="evenodd" stroke="#000" stroke-linecap="round" stroke-linejoin="round" stroke-width="1.74"/>
 <path class="SlurSegment" d="m217.78 423.48c62.026-57.552 252.47-62.509 317.41-8.262-64.756-47.294-255.2-42.337-317.41 8.262" fill-rule="evenodd" stroke="#000" stroke-linecap="round" stroke-linejoin="round" stroke-width="1.74"/>
 <path class="SlurSegment" d="m859.33 737.71c73.09-63.48 301.16-74.66 380.11-18.63-78.61-49.08-306.68-37.9-380.11 18.63" fill-rule="evenodd" stroke="#000" stroke-linecap="round" stroke-linejoin="round" stroke-width="1.74"/>
 <polyline class="BarLine" points="470.34 34.612 470.34 136.7" stroke="#000" stroke-linejoin="bevel" stroke-width="4.47"/>
 <polyline class="BarLine" points="949.55 34.612 949.55 136.7" stroke="#000" stroke-linejoin="bevel" stroke-width="4.47"/>
 <polyline class="BarLine" points="1428.8 34.612 1428.8 136.7" stroke="#000" stroke-linejoin="bevel" stroke-width="4.47"/>
 <polyline class="BarLine" points="488.13 382.37 488.13 484.46" stroke="#000" stroke-linejoin="bevel" stroke-width="4.47"/>
 <polyline class="BarLine" points="856.82 382.37 856.82 484.46" stroke="#000" stroke-linejoin="bevel" stroke-width="4.47"/>
 <polyline class="BarLine" points="1428.8 382.37 1428.8 484.46" stroke="#000" stroke-linejoin="bevel" stroke-width="4.47"/>
 <polyline class="BarLine" points="775.13 730.13 775.13 832.23" stroke="#000" stroke-linejoin="bevel" stroke-width="4.47"/>
 <polyline class="BarLine" points="1181.3 730.13 1181.3 832.23" stroke="#000" stroke-linejoin="bevel" stroke-width="4.47"/>
 <polyline class="LedgerLine" points="238.94 185.02 288.62 185.02" stroke="#000" stroke-linejoin="bevel" stroke-width="3.97"/>
 <polyline class="LedgerLine" points="238.94 160.18 288.62 160.18" stroke="#000" stroke-linejoin="bevel" stroke-width="3.97"/>
 <polyline class="LedgerLine" points="361.15 160.18 410.83 160.18" stroke="#000" stroke-linejoin="bevel" stroke-width="3.97"/>
 <polyline class="LedgerLine" points="504.87 160.18 554.54 160.18" stroke="#000" stroke-linejoin="bevel" stroke-width="3.97"/>
 <polyline class="LedgerLine" points="504.87 160.18 554.54 160.18" stroke="#000" stroke-linejoin="bevel" stroke-width="3.97"/>
 <polyline class="LedgerLine" points="706.84 160.18 756.51 160.18" stroke="#000" stroke-linejoin="bevel" stroke-width="3.97"/>
 <polyline class="LedgerLine" points="706.84 160.18 756.51 160.18" stroke="#000" stroke-linejoin="bevel" stroke-width="3.97"/>
 <polyline class="LedgerLine" points="984.08 160.18 1033.8 160.18" stroke="#000" stroke-linejoin="bevel" stroke-width="3.97"/>
 <polyline class="LedgerLine" points="984.08 160.18 1033.8 160.18" stroke="#000" stroke-linejoin="bevel" stroke-width="3.97"/>
 <polyline class="LedgerLine" points="1319.6 160.18 1369.2 160.18" stroke="#000" stroke-linejoin="bevel" stroke-width="3.97"/>
 <polyline class="LedgerLine" points="190.55 507.94 245 507.94" stroke="#000" stroke-linejoin="bevel" stroke-width="3.97"/>
 <polyline class="LedgerLine" points="522.66 507.94 572.33 507.94" stroke="#000" stroke-linejoin="bevel" stroke-width="3.97"/>
 <polyline class="LedgerLine" points="665.94 855.7 715.61 855.7" stroke="#000" stroke-linejoin="bevel" stroke-width="3.97"/>
 <polyline class="LedgerLine" points="809.66 855.7 859.33 855.7" stroke="#000" stroke-linejoin="bevel" stroke-width="3.97"/>
 <polyline class="Stem" points="514.93 163.52 514.93 219.17" stroke="#000" stroke-linejoin="bevel" stroke-width="2.73"/>
 <polyline class="Stem" points="648.46 151.1 648.46 234.7" stroke="#000" stroke-linejoin="bevel" stroke-width="2.73"/>
 <polyline class="Stem" points="716.9 163.52 716.9 219.17" stroke="#000" stroke-linejoin="bevel" stroke-width="2.73"/>
 <polyline class="Stem" points="850.43 151.1 850.43 234.7" stroke="#000" stroke-linejoin="bevel" stroke-width="2.73"/>
 <polyline class="Stem" points="994.14 163.52 994.14 219.17" stroke="#000" stroke-linejoin="bevel" stroke-width="2.73"/>
 <polyline class="Stem" points="1127.7 138.68 1127.7 222.28" stroke="#000" stroke-linejoin="bevel" stroke-width="2.73"/>
 <polyline class="Stem" points="1196.1 126.26 1196.1 191.23" stroke="#000" stroke-linejoin="bevel" stroke-width="2.73"/>
 <polyline class="Stem" points="1359.2 157 1359.2 73.238" stroke="#000" stroke-linejoin="bevel" stroke-width="2.73"/>
 <polyline class="Stem" points="562.27 504.76 562.27 421" stroke="#000" stroke-linejoin="bevel" stroke-width="2.73"/>
 <polyline class="Stem" points="723.88 467.5 723.88 383.74" stroke="#000" stroke-linejoin="bevel" stroke-width="2.73"/>
 <polyline class="Stem" points="922.26 479.92 922.26 396.16" stroke="#000" stroke-linejoin="bevel" stroke-width="2.73"/>
 <polyline class="Stem" points="1096.2 479.92 1096.2 396.16" stroke="#000" stroke-linejoin="bevel" stroke-width="2.73"/>
 <polyline class="Stem" points="1185.3 479.92 1185.3 396.16" stroke="#000" stroke-linejoin="bevel" stroke-width="2.73"/>
 <polyline class="Stem" points="1359.2 479.92 1359.2 396.16" stroke="#000" stroke-linejoin="bevel" stroke-width="2.73"/>
 <polyline class="Stem" points="191.92 821.78 191.92 886.75" stroke="#000" stroke-linejoin="bevel" stroke-width="2.73"/>
 <polyline class="Stem" points="371.84 821.78 371.84 886.75" stroke="#000" stroke-linejoin="bevel" stroke-width="2.73"/>
 <polyline class="Stem" points="522.2 815.26 522.2 731.5" stroke="#000" stroke-linejoin="bevel" stroke-width="2.73"/>
 <polyline class="Stem" points="705.55 852.52 705.55 768.76" stroke="#000" stroke-linejoin="bevel" stroke-width="2.73"/>
 <polyline class="Stem" points="849.27 852.52 849.27 768.76" stroke="#000" stroke-linejoin="bevel" stroke-width="2.73"/>
 <polyline class="Stem" points="1029.6 827.68 1029.6 743.92" stroke="#000" stroke-linejoin="bevel" stroke-width="2.73"/>
 <polyline class="Stem" points="1246.8 815.26 1246.8 731.5" stroke="#000" stroke-linejoin="bevel" stroke-width="2.73"/>
 <polyline class="Stem" points="278.56 181.84 278.56 85.658" stroke="#000" stroke-linejoin="bevel" stroke-width="2.73"/>
 <polyline class="Stem" points="400.77 169.42 400.77 85.658" stroke="#000" stroke-linejoin="bevel" stroke-width="2.73"/>
 <polyline class="Stem" points="544.48 157 544.48 73.238" stroke="#000" stroke-linejoin="bevel" stroke-width="2.73"/>
 <polyline class="Stem" points="678.01 144.58 678.01 60.818" stroke="#000" stroke-linejoin="bevel" stroke-width="2.73"/>
 <polyline class="Stem" points="746.45 157 746.45 73.238" stroke="#000" stroke-linejoin="bevel" stroke-width="2.73"/>
 <polyline class="Stem" points="879.98 144.58 879.98 60.818" stroke="#000" stroke-linejoin="bevel" stroke-width="2.73"/>
 <polyline class="Stem" points="1023.7 157 1023.7 73.238" stroke="#000" stroke-linejoin="bevel" stroke-width="2.73"/>
 <polyline class="Stem" points="1157.2 132.16 1157.2 48.398" stroke="#000" stroke-linejoin="bevel" stroke-width="2.73"/>
 <polyline class="Stem" points="1225.7 119.74 1225.7 35.978" stroke="#000" stroke-linejoin="bevel" stroke-width="2.73"/>
 <polyline class="Stem" points="1359.2 107.32 1359.2 26.663" stroke="#000" stroke-linejoin="bevel" stroke-width="2.73"/>
 <polyline class="Stem" points="562.27 442.66 562.27 365.11" stroke="#000" stroke-linejoin="bevel" stroke-width="2.73"/>
 <polyline class="Stem" points="723.88 442.66 723.88 365.11" stroke="#000" stroke-linejoin="bevel" stroke-width="2.73"/>
 <polyline class="Stem" points="922.26 455.08 922.26 374.42" stroke="#000" stroke-linejoin="bevel" stroke-width="2.73"/>
 <polyline class="Stem" points="1096.2 455.08 1096.2 374.42" stroke="#000" stroke-linejoin="bevel" stroke-width="2.73"/>
 <polyline class="Stem" points="1185.3 455.08 1185.3 374.42" stroke="#000" stroke-linejoin="bevel" stroke-width="2.73"/>
 <polyline class="Stem" points="1359.2 455.08 1359.2 374.42" stroke="#000" stroke-linejoin="bevel" stroke-width="2.73"/>
 <polyline class="Stem" points="221.47 815.26 221.47 731.5" stroke="#000" stroke-linejoin="bevel" stroke-width="2.73"/>
 <polyline class="Stem" points="371.84 802.84 371.84 722.18" stroke="#000" stroke-linejoin="bevel" stroke-width="2.73"/>
 <polyline class="Stem" points="522.2 790.42 522.2 712.87" stroke="#000" stroke-linejoin="bevel" stroke-width="2.73"/>
 <polyline class="Stem" points="705.55 802.84 705.55 722.18" stroke="#000" stroke-linejoin="bevel" stroke-width="2.73"/>
 <polyline class="Stem" points="849.27 815.26 849.27 731.5" stroke="#000" stroke-linejoin="bevel" stroke-width="2.73"/>
 <polyline class="Stem" points="1029.6 802.84 1029.6 722.18" stroke="#000" stroke-linejoin="bevel" stroke-width="2.73"/>
 <polyline class="Stem" points="1246.8 790.42 1246.8 712.87" stroke="#000" stroke-linejoin="bevel" stroke-width="2.73"/>
 <path class="Note" d="m544.86 152.13c-1.7885-3.2789-5.5642-5.0674-10.135-5.0674-3.3782 0-7.0546.9936-10.632 2.8814-6.5578 3.4776-10.532 9.3398-10.532 14.407 0 1.391.29808 2.7821.9936 4.0738 1.7885 3.2789 5.5642 4.968 10.135 4.968 3.3782 0 7.0546-.89424 10.632-2.7821 6.5578-3.4776 10.532-9.3398 10.532-14.407 0-1.391-.29808-2.7821-.9936-4.0738" stroke-width=".9936"/>
 <path class="Note" d="m678.39 139.71c-1.7885-3.2789-5.5642-5.0674-10.135-5.0674-3.3782 0-7.0546.9936-10.632 2.8814-6.5578 3.4776-10.532 9.3398-10.532 14.407 0 1.391.29808 2.7821.9936 4.0738 1.7885 3.2789 5.5642 4.968 10.135 4.968 3.3782 0 7.0546-.89424 10.632-2.7821 6.5578-3.4776 10.532-9.3398 10.532-14.407 0-1.391-.29808-2.7821-.9936-4.0738" stroke-width=".9936"/>
 <path class="Note" d="m746.83 152.13c-1.7885-3.2789-5.5642-5.0674-10.135-5.0674-3.3782 0-7.0546.9936-10.632 2.8814-6.5578 3.4776-10.532 9.3398-10.532 14.407 0 1.391.29808 2.7821.9936 4.0738 1.7885 3.2789 5.5642 4.968 10.135 4.968 3.3782 0 7.0546-.89424 10.632-2.7821 6.5578-3.4776 10.532-9.3398 10.532-14.407 0-1.391-.29808-2.7821-.9936-4.0738" stroke-width=".9936"/>
 <path class="Note" d="m880.36 139.71c-1.7885-3.2789-5.5642-5.0674-10.135-5.0674-3.3782 0-7.0546.9936-10.632 2.8814-6.5578 3.4776-10.532 9.3398-10.532 14.407 0 1.391.29808 2.7821.9936 4.0738 1.7885 3.2789 5.5642 4.968 10.135 4.968 3.3782 0 7.0546-.89424 10.632-2.7821 6.5578-3.4776 10.532-9.3398 10.532-14.407 0-1.391-.29808-2.7821-.9936-4.0738" stroke-width=".9936"/>
 <path class="Note" d="m1024.1 152.13c-1.7885-3.2789-5.5642-5.0674-10.135-5.0674-3.3783 0-7.0546.9936-10.632 2.8814-6.5578 3.4776-10.532 9.3398-10.532 14.407 0 1.391.29808 2.7821.9936 4.0738 1.7885 3.2789 5.5642 4.968 10.135 4.968 3.3783 0 7.0546-.89424 10.632-2.7821 6.5578-3.4776 10.532-9.3398 10.532-14.407 0-1.391-.2981-2.7821-.9936-4.0738" stroke-width=".9936"/>
 <path class="Note" d="m1157.6 127.29c-1.7885-3.2789-5.5642-5.0674-10.135-5.0674-3.3783 0-7.0546.9936-10.632 2.8814-6.5578 3.4776-10.532 9.3398-10.532 14.407 0 1.391.2981 2.7821.9936 4.0738 1.7885 3.2789 5.5642 4.968 10.135 4.968 3.3783 0 7.0546-.89424 10.632-2.7821 6.5578-3.4776 10.532-9.3398 10.532-14.407 0-1.391-.2981-2.7821-.9936-4.0738" stroke-width=".9936"/>
 <path class="Note" d="m1226 114.87c-1.7885-3.2789-5.5642-5.0674-10.135-5.0674-3.3783 0-7.0546.9936-10.632 2.8814-6.5578 3.4776-10.532 9.3398-10.532 14.407 0 1.391.2981 2.7821.9936 4.0738 1.7885 3.2789 5.5642 4.968 10.135 4.968 3.3783 0 7.0546-.89424 10.632-2.7821 6.5578-3.4776 10.532-9.3398 10.532-14.407 0-1.391-.2981-2.7821-.9936-4.0738" stroke-width=".9936"/>
 <path class="Note" d="m1359.6 152.13c-1.7885-3.2789-5.5642-5.0674-10.135-5.0674-3.3783 0-7.0546.9936-10.632 2.8814-6.5578 3.4776-10.532 9.3398-10.532 14.407 0 1.391.2981 2.7821.9936 4.0738 1.7885 3.2789 5.5642 4.968 10.135 4.968 3.3783 0 7.0546-.89424 10.632-2.7821 6.5578-3.4776 10.532-9.3398 10.532-14.407 0-1.391-.2981-2.7821-.9936-4.0738" stroke-width=".9936"/>
 <path class="Note" d="m217.83 494.43c-13.712 0-18.58 6.9552-18.58 13.414s4.8686 13.414 18.58 13.414 18.481-6.9552 18.481-13.414-4.7693-13.414-18.481-13.414m-8.2469 9.0418c-.0994-.39744-.0994-.79488-.0994-1.1923 0-.79488.19872-1.5898.59616-2.2853.69552-.9936 1.8878-1.6891 3.3782-1.9872 1.2917-.29808 1.9872-.4968 4.5706-.4968h.0994c3.9744 0 5.2661 3.6763 6.359 7.452l.29808.9936c.79488 2.5834 1.1923 4.7693 1.1923 6.4584 0 1.1923-.19872 2.2853-.59616 3.0802-.59616 1.093-1.5898 1.7885-3.2789 2.1859-.89424.19872-2.3846.29808-2.3846.29808-.4968 0-.89424.0994-1.2917.0994-3.1795 0-5.1667-1.1923-6.5578-5.4648-1.1923-3.6763-1.391-4.7693-2.2853-9.1411" stroke-width=".9936"/>
 <path class="Note" d="m562.65 499.89c-1.7885-3.2789-5.5642-5.0674-10.135-5.0674-3.3782 0-7.0546.9936-10.632 2.8814-6.5578 3.4776-10.532 9.3398-10.532 14.407 0 1.391.29808 2.7821.9936 4.0738 1.7885 3.2789 5.5642 4.968 10.135 4.968 3.3782 0 7.0546-.89424 10.632-2.7821 6.5578-3.4776 10.532-9.3398 10.532-14.407 0-1.391-.29808-2.7821-.9936-4.0738m-4.2725 6.7565c-1.6891 1.6891-5.0674 3.7757-8.6443 5.7629s-7.1539 3.4776-9.5386 3.9744c-.4968.0994-.9936.19872-1.4904.19872-1.5898 0-2.7821-.59616-3.4776-1.8878-.29808-.4968-.4968-1.093-.4968-1.6891 0-1.093.69552-2.3846 1.7885-3.4776 1.6891-1.6891 4.968-3.7757 8.545-5.7629s7.1539-3.4776 9.5386-3.9744c.4968-.0994.9936-.19872 1.4904-.19872 1.5898 0 2.8814.59616 3.577 1.8878.29808.4968.39744 1.093.39744 1.6891 0 1.093-.59616 2.2853-1.6891 3.4776" stroke-width=".9936"/>
 <path class="Note" d="m724.27 462.63c-1.7885-3.2789-5.5642-5.0674-10.135-5.0674-3.3782 0-7.0546.9936-10.632 2.8814-6.5578 3.4776-10.532 9.3398-10.532 14.407 0 1.391.29808 2.7821.9936 4.0738 1.7885 3.2789 5.5642 4.968 10.135 4.968 3.3782 0 7.0546-.89424 10.632-2.7821 6.5578-3.4776 10.532-9.3398 10.532-14.407 0-1.391-.29808-2.7821-.9936-4.0738m-4.2725 6.7565c-1.6891 1.6891-5.0674 3.7757-8.6443 5.7629s-7.1539 3.4776-9.5386 3.9744c-.4968.0994-.9936.19872-1.4904.19872-1.5898 0-2.7821-.59616-3.4776-1.8878-.29808-.4968-.4968-1.093-.4968-1.6891 0-1.093.69552-2.3846 1.7885-3.4776 1.6891-1.6891 4.968-3.7757 8.545-5.7629s7.1539-3.4776 9.5386-3.9744c.4968-.0994.9936-.19872 1.4904-.19872 1.5898 0 2.8814.59616 3.577 1.8878.29808.4968.39744 1.093.39744 1.6891 0 1.093-.59616 2.2853-1.6891 3.4776" stroke-width=".9936"/>
 <path class="Note" d="m922.64 475.05c-1.7885-3.2789-5.5642-5.0674-10.135-5.0674-3.3782 0-7.0546.9936-10.632 2.8814-6.5578 3.4776-10.532 9.3398-10.532 14.407 0 1.391.29808 2.7821.9936 4.0738 1.7885 3.2789 5.5642 4.968 10.135 4.968 3.3782 0 7.0546-.89424 10.632-2.7821 6.5578-3.4776 10.532-9.3398 10.532-14.407 0-1.391-.29808-2.7821-.9936-4.0738" stroke-width=".9936"/>
 <path class="Note" d="m1096.5 475.05c-1.7885-3.2789-5.5642-5.0674-10.135-5.0674-3.3783 0-7.0546.9936-10.632 2.8814-6.5578 3.4776-10.532 9.3398-10.532 14.407 0 1.391.2981 2.7821.9936 4.0738 1.7885 3.2789 5.5642 4.968 10.135 4.968 3.3783 0 7.0546-.89424 10.632-2.7821 6.5578-3.4776 10.532-9.3398 10.532-14.407 0-1.391-.2981-2.7821-.9936-4.0738" stroke-width=".9936"/>
 <path class="Note" d="m1185.7 475.05c-1.7885-3.2789-5.5642-5.0674-10.135-5.0674-3.3783 0-7.0546.9936-10.632 2.8814-6.5578 3.4776-10.532 9.3398-10.532 14.407 0 1.391.2981 2.7821.9936 4.0738 1.7885 3.2789 5.5642 4.968 10.135 4.968 3.3783 0 7.0546-.89424 10.632-2.7821 6.5578-3.4776 10.532-9.3398 10.532-14.407 0-1.391-.2981-2.7821-.9936-4.0738" stroke-width=".9936"/>
 <path class="Note" d="m1359.6 475.05c-1.7885-3.2789-5.5642-5.0674-10.135-5.0674-3.3783 0-7.0546.9936-10.632 2.8814-6.5578 3.4776-10.532 9.3398-10.532 14.407 0 1.391.2981 2.7821.9936 4.0738 1.7885 3.2789 5.5642 4.968 10.135 4.968 3.3783 0 7.0546-.89424 10.632-2.7821 6.5578-3.4776 10.532-9.3398 10.532-14.407 0-1.391-.2981-2.7821-.9936-4.0738" stroke-width=".9936"/>
 <path class="Note" d="m221.85 810.39c-1.7885-3.2789-5.5642-5.0674-10.135-5.0674-3.3782 0-7.0546.9936-10.632 2.8814-6.5578 3.4776-10.532 9.3398-10.532 14.407 0 1.391.29808 2.7821.9936 4.0738 1.7885 3.2789 5.5642 4.968 10.135 4.968 3.3782 0 7.0546-.89424 10.632-2.7821 6.5578-3.4776 10.532-9.3398 10.532-14.407 0-1.391-.29808-2.7821-.9936-4.0738" stroke-width=".9936"/>
 <path class="Note" d="m401.77 810.39c-1.7885-3.2789-5.5642-5.0674-10.135-5.0674-3.3782 0-7.0546.9936-10.632 2.8814-6.5578 3.4776-10.532 9.3398-10.532 14.407 0 1.391.29808 2.7821.9936 4.0738 1.7885 3.2789 5.5642 4.968 10.135 4.968 3.3782 0 7.0546-.89424 10.632-2.7821 6.5578-3.4776 10.532-9.3398 10.532-14.407 0-1.391-.29808-2.7821-.9936-4.0738" stroke-width=".9936"/>
 <path class="Note" d="m522.58 810.39c-1.7885-3.2789-5.5642-5.0674-10.135-5.0674-3.3782 0-7.0546.9936-10.632 2.8814-6.5578 3.4776-10.532 9.3398-10.532 14.407 0 1.391.29808 2.7821.9936 4.0738 1.7885 3.2789 5.5642 4.968 10.135 4.968 3.3782 0 7.0546-.89424 10.632-2.7821 6.5578-3.4776 10.532-9.3398 10.532-14.407 0-1.391-.29808-2.7821-.9936-4.0738" stroke-width=".9936"/>
 <path class="Note" d="m705.93 847.65c-1.7885-3.2789-5.5642-5.0674-10.135-5.0674-3.3782 0-7.0546.9936-10.632 2.8814-6.5578 3.4776-10.532 9.3398-10.532 14.407 0 1.391.29808 2.7821.9936 4.0738 1.7885 3.2789 5.5642 4.968 10.135 4.968 3.3782 0 7.0546-.89424 10.632-2.7821 6.5578-3.4776 10.532-9.3398 10.532-14.407 0-1.391-.29808-2.7821-.9936-4.0738" stroke-width=".9936"/>
 <path class="Note" d="m849.65 847.65c-1.7885-3.2789-5.5642-5.0674-10.135-5.0674-3.3782 0-7.0546.9936-10.632 2.8814-6.5578 3.4776-10.532 9.3398-10.532 14.407 0 1.391.29808 2.7821.9936 4.0738 1.7885 3.2789 5.5642 4.968 10.135 4.968 3.3782 0 7.0546-.89424 10.632-2.7821 6.5578-3.4776 10.532-9.3398 10.532-14.407 0-1.391-.29808-2.7821-.9936-4.0738m-4.2725 6.7565c-1.6891 1.6891-5.0674 3.7757-8.6443 5.7629s-7.1539 3.4776-9.5386 3.9744c-.4968.0994-.9936.19872-1.4904.19872-1.5898 0-2.7821-.59616-3.4776-1.8878-.29808-.4968-.4968-1.093-.4968-1.6891 0-1.093.69552-2.3846 1.7885-3.4776 1.6891-1.6891 4.968-3.7757 8.545-5.7629s7.1539-3.4776 9.5386-3.9744c.4968-.0994.9936-.19872 1.4904-.19872 1.5898 0 2.8814.59616 3.577 1.8878.29808.4968.39744 1.093.39744 1.6891 0 1.093-.59616 2.2853-1.6891 3.4776" stroke-width=".9936"/>
 <path class="Note" d="m1030 822.81c-1.7885-3.2789-5.5642-5.0674-10.135-5.0674-3.3783 0-7.0546.9936-10.632 2.8814-6.5578 3.4776-10.532 9.3398-10.532 14.407 0 1.391.29808 2.7821.9936 4.0738 1.7885 3.2789 5.5642 4.968 10.135 4.968 3.3783 0 7.0546-.89424 10.632-2.7821 6.5578-3.4776 10.532-9.3398 10.532-14.407 0-1.391-.2981-2.7821-.9936-4.0738m-4.2725 6.7565c-1.6891 1.6891-5.0673 3.7757-8.6443 5.7629s-7.1539 3.4776-9.5386 3.9744c-.4968.0994-.9936.19872-1.4904.19872-1.5897 0-2.782-.59616-3.4776-1.8878-.298-.4968-.4968-1.093-.4968-1.6891 0-1.093.6956-2.3846 1.7885-3.4776 1.6891-1.6891 4.968-3.7757 8.545-5.7629 3.5769-1.9872 7.1539-3.4776 9.5385-3.9744.4968-.0994.9936-.19872 1.4904-.19872 1.5898 0 2.8815.59616 3.577 1.8878.2981.4968.3974 1.093.3974 1.6891 0 1.093-.5961 2.2853-1.6891 3.4776" stroke-width=".9936"/>
 <path class="Note" d="m1247.1 810.39c-1.7885-3.2789-5.5642-5.0674-10.135-5.0674-3.3783 0-7.0546.9936-10.632 2.8814-6.5578 3.4776-10.532 9.3398-10.532 14.407 0 1.391.2981 2.7821.9936 4.0738 1.7885 3.2789 5.5642 4.968 10.135 4.968 3.3783 0 7.0546-.89424 10.632-2.7821 6.5578-3.4776 10.532-9.3398 10.532-14.407 0-1.391-.2981-2.7821-.9936-4.0738m-4.2725 6.7565c-1.6891 1.6891-5.0673 3.7757-8.6443 5.7629s-7.1539 3.4776-9.5386 3.9744c-.4968.0994-.9936.19872-1.4904.19872-1.5897 0-2.782-.59616-3.4776-1.8878-.298-.4968-.4968-1.093-.4968-1.6891 0-1.093.6956-2.3846 1.7885-3.4776 1.6891-1.6891 4.968-3.7757 8.545-5.7629 3.5769-1.9872 7.1539-3.4776 9.5385-3.9744.4968-.0994.9936-.19872 1.4904-.19872 1.5898 0 2.8815.59616 3.577 1.8878.2981.4968.3974 1.093.3974 1.6891 0 1.093-.5961 2.2853-1.6891 3.4776" stroke-width=".9936"/>
 <path class="Note" d="m278.94 176.97c-1.7885-3.2789-5.5642-5.0674-10.135-5.0674-3.3782 0-7.0546.9936-10.632 2.8814-6.5578 3.4776-10.532 9.3398-10.532 14.407 0 1.391.29808 2.7821.9936 4.0738 1.7885 3.2789 5.5642 4.968 10.135 4.968 3.3782 0 7.0546-.89424 10.632-2.7821 6.5578-3.4776 10.532-9.3398 10.532-14.407 0-1.391-.29808-2.7821-.9936-4.0738" stroke-width=".9936"/>
 <path class="Note" d="m401.15 164.55c-1.7885-3.2789-5.5642-5.0674-10.135-5.0674-3.3782 0-7.0546.9936-10.632 2.8814-6.5578 3.4776-10.532 9.3398-10.532 14.407 0 1.391.29808 2.7821.9936 4.0738 1.7885 3.2789 5.5642 4.968 10.135 4.968 3.3782 0 7.0546-.89424 10.632-2.7821 6.5578-3.4776 10.532-9.3398 10.532-14.407 0-1.391-.29808-2.7821-.9936-4.0738" stroke-width=".9936"/>
 <path class="Note" d="m544.86 152.13c-1.7885-3.2789-5.5642-5.0674-10.135-5.0674-3.3782 0-7.0546.9936-10.632 2.8814-6.5578 3.4776-10.532 9.3398-10.532 14.407 0 1.391.29808 2.7821.9936 4.0738 1.7885 3.2789 5.5642 4.968 10.135 4.968 3.3782 0 7.0546-.89424 10.632-2.7821 6.5578-3.4776 10.532-9.3398 10.532-14.407 0-1.391-.29808-2.7821-.9936-4.0738" stroke-width=".9936"/>
 <path class="Note" d="m678.39 139.71c-1.7885-3.2789-5.5642-5.0674-10.135-5.0674-3.3782 0-7.0546.9936-10.632 2.8814-6.5578 3.4776-10.532 9.3398-10.532 14.407 0 1.391.29808 2.7821.9936 4.0738 1.7885 3.2789 5.5642 4.968 10.135 4.968 3.3782 0 7.0546-.89424 10.632-2.7821 6.5578-3.4776 10.532-9.3398 10.532-14.407 0-1.391-.29808-2.7821-.9936-4.0738" stroke-width=".9936"/>
 <path class="Note" d="m746.83 152.13c-1.7885-3.2789-5.5642-5.0674-10.135-5.0674-3.3782 0-7.0546.9936-10.632 2.8814-6.5578 3.4776-10.532 9.3398-10.532 14.407 0 1.391.29808 2.7821.9936 4.0738 1.7885 3.2789 5.5642 4.968 10.135 4.968 3.3782 0 7.0546-.89424 10.632-2.7821 6.5578-3.4776 10.532-9.3398 10.532-14.407 0-1.391-.29808-2.7821-.9936-4.0738" stroke-width=".9936"/>
 <path class="Note" d="m880.36 139.71c-1.7885-3.2789-5.5642-5.0674-10.135-5.0674-3.3782 0-7.0546.9936-10.632 2.8814-6.5578 3.4776-10.532 9.3398-10.532 14.407 0 1.391.29808 2.7821.9936 4.0738 1.7885 3.2789 5.5642 4.968 10.135 4.968 3.3782 0 7.0546-.89424 10.632-2.7821 6.5578-3.4776 10.532-9.3398 10.532-14.407 0-1.391-.29808-2.7821-.9936-4.0738" stroke-width=".9936"/>
 <path class="Note" d="m1024.1 152.13c-1.7885-3.2789-5.5642-5.0674-10.135-5.0674-3.3783 0-7.0546.9936-10.632 2.8814-6.5578 3.4776-10.532 9.3398-10.532 14.407 0 1.391.29808 2.7821.9936 4.0738 1.7885 3.2789 5.5642 4.968 10.135 4.968 3.3783 0 7.0546-.89424 10.632-2.7821 6.5578-3.4776 10.532-9.3398 10.532-14.407 0-1.391-.2981-2.7821-.9936-4.0738" stroke-width=".9936"/>
 <path class="Note" d="m1157.6 127.29c-1.7885-3.2789-5.5642-5.0674-10.135-5.0674-3.3783 0-7.0546.9936-10.632 2.8814-6.5578 3.4776-10.532 9.3398-10.532 14.407 0 1.391.2981 2.7821.9936 4.0738 1.7885 3.2789 5.5642 4.968 10.135 4.968 3.3783 0 7.0546-.89424 10.632-2.7821 6.5578-3.4776 10.532-9.3398 10.532-14.407 0-1.391-.2981-2.7821-.9936-4.0738" stroke-width=".9936"/>
 <path class="Note" d="m1226 114.87c-1.7885-3.2789-5.5642-5.0674-10.135-5.0674-3.3783 0-7.0546.9936-10.632 2.8814-6.5578 3.4776-10.532 9.3398-10.532 14.407 0 1.391.2981 2.7821.9936 4.0738 1.7885 3.2789 5.5642 4.968 10.135 4.968 3.3783 0 7.0546-.89424 10.632-2.7821 6.5578-3.4776 10.532-9.3398 10.532-14.407 0-1.391-.2981-2.7821-.9936-4.0738" stroke-width=".9936"/>
 <path class="Note" d="m1359.6 102.45c-1.7885-3.2789-5.5642-5.0674-10.135-5.0674-3.3783 0-7.0546.9936-10.632 2.8814-6.5578 3.4776-10.532 9.3398-10.532 14.407 0 1.391.2981 2.7821.9936 4.0738 1.7885 3.2789 5.5642 4.968 10.135 4.968 3.3783 0 7.0546-.89424 10.632-2.7821 6.5578-3.4776 10.532-9.3398 10.532-14.407 0-1.391-.2981-2.7821-.9936-4.0738" stroke-width=".9936"/>
 <path class="Note" d="m217.83 432.33c-13.712 0-18.58 6.9552-18.58 13.414s4.8686 13.414 18.58 13.414 18.481-6.9552 18.481-13.414-4.7693-13.414-18.481-13.414m-8.2469 9.0418c-.0994-.39744-.0994-.79488-.0994-1.1923 0-.79488.19872-1.5898.59616-2.2853.69552-.9936 1.8878-1.6891 3.3782-1.9872 1.2917-.29808 1.9872-.4968 4.5706-.4968h.0994c3.9744 0 5.2661 3.6763 6.359 7.452l.29808.9936c.79488 2.5834 1.1923 4.7693 1.1923 6.4584 0 1.1923-.19872 2.2853-.59616 3.0802-.59616 1.093-1.5898 1.7885-3.2789 2.1859-.89424.19872-2.3846.29808-2.3846.29808-.4968 0-.89424.0994-1.2917.0994-3.1795 0-5.1667-1.1923-6.5578-5.4648-1.1923-3.6763-1.391-4.7693-2.2853-9.1411" stroke-width=".9936"/>
 <path class="Note" d="m562.65 437.79c-1.7885-3.2789-5.5642-5.0674-10.135-5.0674-3.3782 0-7.0546.9936-10.632 2.8814-6.5578 3.4776-10.532 9.3398-10.532 14.407 0 1.391.29808 2.7821.9936 4.0738 1.7885 3.2789 5.5642 4.968 10.135 4.968 3.3782 0 7.0546-.89424 10.632-2.7821 6.5578-3.4776 10.532-9.3398 10.532-14.407 0-1.391-.29808-2.7821-.9936-4.0738m-4.2725 6.7565c-1.6891 1.6891-5.0674 3.7757-8.6443 5.7629s-7.1539 3.4776-9.5386 3.9744c-.4968.0994-.9936.19872-1.4904.19872-1.5898 0-2.7821-.59616-3.4776-1.8878-.29808-.4968-.4968-1.093-.4968-1.6891 0-1.093.69552-2.3846 1.7885-3.4776 1.6891-1.6891 4.968-3.7757 8.545-5.7629s7.1539-3.4776 9.5386-3.9744c.4968-.0994.9936-.19872 1.4904-.19872 1.5898 0 2.8814.59616 3.577 1.8878.29808.4968.39744 1.093.39744 1.6891 0 1.093-.59616 2.2853-1.6891 3.4776" stroke-width=".9936"/>
 <path class="Note" d="m724.27 437.79c-1.7885-3.2789-5.5642-5.0674-10.135-5.0674-3.3782 0-7.0546.9936-10.632 2.8814-6.5578 3.4776-10.532 9.3398-10.532 14.407 0 1.391.29808 2.7821.9936 4.0738 1.7885 3.2789 5.5642 4.968 10.135 4.968 3.3782 0 7.0546-.89424 10.632-2.7821 6.5578-3.4776 10.532-9.3398 10.532-14.407 0-1.391-.29808-2.7821-.9936-4.0738m-4.2725 6.7565c-1.6891 1.6891-5.0674 3.7757-8.6443 5.7629s-7.1539 3.4776-9.5386 3.9744c-.4968.0994-.9936.19872-1.4904.19872-1.5898 0-2.7821-.59616-3.4776-1.8878-.29808-.4968-.4968-1.093-.4968-1.6891 0-1.093.69552-2.3846 1.7885-3.4776 1.6891-1.6891 4.968-3.7757 8.545-5.7629s7.1539-3.4776 9.5386-3.9744c.4968-.0994.9936-.19872 1.4904-.19872 1.5898 0 2.8814.59616 3.577 1.8878.29808.4968.39744 1.093.39744 1.6891 0 1.093-.59616 2.2853-1.6891 3.4776" stroke-width=".9936"/>
 <path class="Note" d="m922.64 450.21c-1.7885-3.2789-5.5642-5.0674-10.135-5.0674-3.3782 0-7.0546.9936-10.632 2.8814-6.5578 3.4776-10.532 9.3398-10.532 14.407 0 1.391.29808 2.7821.9936 4.0738 1.7885 3.2789 5.5642 4.968 10.135 4.968 3.3782 0 7.0546-.89424 10.632-2.7821 6.5578-3.4776 10.532-9.3398 10.532-14.407 0-1.391-.29808-2.7821-.9936-4.0738" stroke-width=".9936"/>
 <path class="Note" d="m1096.5 450.21c-1.7885-3.2789-5.5642-5.0674-10.135-5.0674-3.3783 0-7.0546.9936-10.632 2.8814-6.5578 3.4776-10.532 9.3398-10.532 14.407 0 1.391.2981 2.7821.9936 4.0738 1.7885 3.2789 5.5642 4.968 10.135 4.968 3.3783 0 7.0546-.89424 10.632-2.7821 6.5578-3.4776 10.532-9.3398 10.532-14.407 0-1.391-.2981-2.7821-.9936-4.0738" stroke-width=".9936"/>
 <path class="Note" d="m1185.7 450.21c-1.7885-3.2789-5.5642-5.0674-10.135-5.0674-3.3783 0-7.0546.9936-10.632 2.8814-6.5578 3.4776-10.532 9.3398-10.532 14.407 0 1.391.2981 2.7821.9936 4.0738 1.7885 3.2789 5.5642 4.968 10.135 4.968 3.3783 0 7.0546-.89424 10.632-2.7821 6.5578-3.4776 10.532-9.3398 10.532-14.407 0-1.391-.2981-2.7821-.9936-4.0738" stroke-width=".9936"/>
 <path class="Note" d="m1359.6 450.21c-1.7885-3.2789-5.5642-5.0674-10.135-5.0674-3.3783 0-7.0546.9936-10.632 2.8814-6.5578 3.4776-10.532 9.3398-10.532 14.407 0 1.391.2981 2.7821.9936 4.0738 1.7885 3.2789 5.5642 4.968 10.135 4.968 3.3783 0 7.0546-.89424 10.632-2.7821 6.5578-3.4776 10.532-9.3398 10.532-14.407 0-1.391-.2981-2.7821-.9936-4.0738" stroke-width=".9936"/>
 <path class="Note" d="m221.85 810.39c-1.7885-3.2789-5.5642-5.0674-10.135-5.0674-3.3782 0-7.0546.9936-10.632 2.8814-6.5578 3.4776-10.532 9.3398-10.532 14.407 0 1.391.29808 2.7821.9936 4.0738 1.7885 3.2789 5.5642 4.968 10.135 4.968 3.3782 0 7.0546-.89424 10.632-2.7821 6.5578-3.4776 10.532-9.3398 10.532-14.407 0-1.391-.29808-2.7821-.9936-4.0738" stroke-width=".9936"/>
 <path class="Note" d="m372.22 797.97c-1.7885-3.2789-5.5642-5.0674-10.135-5.0674-3.3782 0-7.0546.9936-10.632 2.8814-6.5578 3.4776-10.532 9.3398-10.532 14.407 0 1.391.29808 2.7821.9936 4.0738 1.7885 3.2789 5.5642 4.968 10.135 4.968 3.3782 0 7.0546-.89424 10.632-2.7821 6.5578-3.4776 10.532-9.3398 10.532-14.407 0-1.391-.29808-2.7821-.9936-4.0738" stroke-width=".9936"/>
 <path class="Note" d="m522.58 785.55c-1.7885-3.2789-5.5642-5.0674-10.135-5.0674-3.3782 0-7.0546.9936-10.632 2.8814-6.5578 3.4776-10.532 9.3398-10.532 14.407 0 1.391.29808 2.7821.9936 4.0738 1.7885 3.2789 5.5642 4.968 10.135 4.968 3.3782 0 7.0546-.89424 10.632-2.7821 6.5578-3.4776 10.532-9.3398 10.532-14.407 0-1.391-.29808-2.7821-.9936-4.0738" stroke-width=".9936"/>
 <path class="Note" d="m705.93 797.97c-1.7885-3.2789-5.5642-5.0674-10.135-5.0674-3.3782 0-7.0546.9936-10.632 2.8814-6.5578 3.4776-10.532 9.3398-10.532 14.407 0 1.391.29808 2.7821.9936 4.0738 1.7885 3.2789 5.5642 4.968 10.135 4.968 3.3782 0 7.0546-.89424 10.632-2.7821 6.5578-3.4776 10.532-9.3398 10.532-14.407 0-1.391-.29808-2.7821-.9936-4.0738" stroke-width=".9936"/>
 <path class="Note" d="m849.65 810.39c-1.7885-3.2789-5.5642-5.0674-10.135-5.0674-3.3782 0-7.0546.9936-10.632 2.8814-6.5578 3.4776-10.532 9.3398-10.532 14.407 0 1.391.29808 2.7821.9936 4.0738 1.7885 3.2789 5.5642 4.968 10.135 4.968 3.3782 0 7.0546-.89424 10.632-2.7821 6.5578-3.4776 10.532-9.3398 10.532-14.407 0-1.391-.29808-2.7821-.9936-4.0738m-4.2725 6.7565c-1.6891 1.6891-5.0674 3.7757-8.6443 5.7629s-7.1539 3.4776-9.5386 3.9744c-.4968.0994-.9936.19872-1.4904.19872-1.5898 0-2.7821-.59616-3.4776-1.8878-.29808-.4968-.4968-1.093-.4968-1.6891 0-1.093.69552-2.3846 1.7885-3.4776 1.6891-1.6891 4.968-3.7757 8.545-5.7629s7.1539-3.4776 9.5386-3.9744c.4968-.0994.9936-.19872 1.4904-.19872 1.5898 0 2.8814.59616 3.577 1.8878.29808.4968.39744 1.093.39744 1.6891 0 1.093-.59616 2.2853-1.6891 3.4776" stroke-width=".9936"/>
 <path class="Note" d="m1030 797.97c-1.7885-3.2789-5.5642-5.0674-10.135-5.0674-3.3783 0-7.0546.9936-10.632 2.8814-6.5578 3.4776-10.532 9.3398-10.532 14.407 0 1.391.29808 2.7821.9936 4.0738 1.7885 3.2789 5.5642 4.968 10.135 4.968 3.3783 0 7.0546-.89424 10.632-2.7821 6.5578-3.4776 10.532-9.3398 10.532-14.407 0-1.391-.2981-2.7821-.9936-4.0738m-4.2725 6.7565c-1.6891 1.6891-5.0673 3.7757-8.6443 5.7629s-7.1539 3.4776-9.5386 3.9744c-.4968.0994-.9936.19872-1.4904.19872-1.5897 0-2.782-.59616-3.4776-1.8878-.298-.4968-.4968-1.093-.4968-1.6891 0-1.093.6956-2.3846 1.7885-3.4776 1.6891-1.6891 4.968-3.7757 8.545-5.7629 3.5769-1.9872 7.1539-3.4776 9.5385-3.9744.4968-.0994.9936-.19872 1.4904-.19872 1.5898 0 2.8815.59616 3.577 1.8878.2981.4968.3974 1.093.3974 1.6891 0 1.093-.5961 2.2853-1.6891 3.4776" stroke-width=".9936"/>
 <path class="Note" d="m1247.1 785.55c-1.7885-3.2789-5.5642-5.0674-10.135-5.0674-3.3783 0-7.0546.9936-10.632 2.8814-6.5578 3.4776-10.532 9.3398-10.532 14.407 0 1.391.2981 2.7821.9936 4.0738 1.7885 3.2789 5.5642 4.968 10.135 4.968 3.3783 0 7.0546-.89424 10.632-2.7821 6.5578-3.4776 10.532-9.3398 10.532-14.407 0-1.391-.2981-2.7821-.9936-4.0738m-4.2725 6.7565c-1.6891 1.6891-5.0673 3.7757-8.6443 5.7629s-7.1539 3.4776-9.5386 3.9744c-.4968.0994-.9936.19872-1.4904.19872-1.5897 0-2.782-.59616-3.4776-1.8878-.298-.4968-.4968-1.093-.4968-1.6891 0-1.093.6956-2.3846 1.7885-3.4776 1.6891-1.6891 4.968-3.7757 8.545-5.7629 3.5769-1.9872 7.1539-3.4776 9.5385-3.9744.4968-.0994.9936-.19872 1.4904-.19872 1.5898 0 2.8815.59616 3.577 1.8878.2981.4968.3974 1.093.3974 1.6891 0 1.093-.5961 2.2853-1.6891 3.4776" stroke-width=".9936"/>
 <path class="Clef" d="m82.817 104.67c-1.2221-5.3953-3.8452-9.1908-4.6202-10.224-3.1696-4.2427-7.1539-7.0744-11.814-8.4158-3.0901-.8842-6.0709-.9936-8.4754-.81475-1.0333-5.9715-2.0269-11.814-2.9311-17.229 5.4151-6.1306 9.012-11.893 11.277-16.166 3.4478-6.5378 4.5904-11.088 4.6401-11.287 1.709-5.1768 2.0667-12.827.97373-20.985-1.0035-7.5017-3.0802-14.169-5.4151-17.398-1.0234-1.4208-2.0667-2.1462-3.1-2.1462-1.2122 0-3.7061 1.2321-6.5776 3.9843-2.2853 2.1859-5.5344 6.051-8.078 12.023-2.9808 7.0149-3.1895 16.444-2.8417 23.121.37757 7.2235 1.4805 12.877 1.4904 12.927.01987.08933.27821 1.5797.72533 4.1333-.22853.22853-.46699.44712-.71539.68568-1.0333.9936-2.2157 2.1262-3.5869 3.4974-.8545.8546-1.7984 1.7587-2.792 2.7225-8.3959 8.088-21.104 20.329-21.104 39.356 0 4.6699.89424 9.0616 2.6628 13.046 1.5799 3.577 3.8651 6.836 6.7764 9.6876 7.6805 7.5017 18.203 10.691 25.218 10.532 2.9311-.0696 5.5443-.30811 7.919-.75523 1.8183 9.5386 2.951 16.524 2.9907 21.829.03974 6.4683-1.5997 10.413-5.4747 13.165-2.4144 1.7189-5.2065 2.6628-8.2866 2.8119-2.5734.11923-4.819-.34776-6.2398-.75504h-.0099s-.28814-.0795-.29808-.27821c-.0099-.17894.33782-.22862.34776-.22862h.01987c1.9077-.43709 5.4549-1.6592 7.7998-4.9381 1.7885-2.5039 2.6529-7.0944.82469-11.009-1.1029-2.3746-3.5968-5.3057-9.1809-5.7528-2.4741-.19872-4.7295.30792-6.7167 1.5002-1.7984 1.0731-3.2888 2.7026-4.3321 4.6898-2.4443 4.6699-1.9872 10.363 1.1228 14.179 2.9411 3.5968 7.5315 5.892 12.927 6.4682.84456.0895 1.6891.12917 2.5337.12917 4.4016 0 8.7735-1.1923 12.321-3.3882 3.6366-2.5536 5.743-6.5081 6.4187-12.102.55642-4.6104.16891-10.482-1.2221-18.501-.3577-2.0766-.89424-5.0872-1.55-8.8231 5.7132-1.9078 9.8466-5.455 13.592-11.268 3.2689-5.7032 4.2029-11.764 2.7821-18.024m-33.991 26.022c-4.6103-1.2122-9.012-3.6962-12.748-7.1738-1.3016-1.2221-3.1596-3.3782-4.6202-6.7465-1.3612-3.1398-2.017-6.5479-1.9673-10.115.06957-4.66 1.3712-9.4492 3.8651-14.208 2.9013-5.5444 7.4321-11.039 13.453-16.335 1.4407-1.2717 2.802-2.5435 4.0837-3.8154.75514 4.2328 1.5798 8.8927 2.4542 13.742-3.8254 1.2618-8.545 4.3916-11.635 10.005-3.5173 6.528-3.3782 12.013-2.6529 15.47.93398 4.4315 3.4478 8.1674 6.8856 10.244.92405.55632 5.0276 2.6727 6.8558 2.0964.36763-.11923.6359-.33782.77501-.66571.50674-1.1625-.50674-1.7983-2.0568-2.7523-.59616-.36756-1.2619-.78489-1.9872-1.3115-3.2988-2.4741-4.7395-6.8956-3.6763-11.248.57629-2.3846 1.8481-4.5309 3.6763-6.22 1.6593-1.5401 3.6863-2.633 6.051-3.2688 2.0269 11.168 4.0738 22.247 5.7033 30.553.12917.68549.26827 1.3512.39744 2.0169-4.352.92405-8.6741.83472-12.857-.26827m11.248-32.968c10.284-.46699 14.526 6.9254 15.411 11.725.46699 2.5138.45706 6.9254-1.0731 11.108-1.1625 3.1596-3.6068 7.2036-8.7039 9.2505-.06955-.41731-.14904-.84456-.22853-1.2719-1.5301-8.7138-3.4577-19.634-5.4052-30.812m-7.2732-70.486c1.7686-5.7032 4.4911-8.9324 6.4683-10.651 1.7388-1.5103 3.3782-2.2158 4.2924-2.2158.1391 0 .25834.01987.3577.04968.45706.1391.98366.70556 1.4507 1.57 2.2952 4.2624 1.56 10.93.22853 15.341-1.6196 5.3654-4.5209 10.949-13.265 20.498-.16891-1.1029-.32789-2.1462-.47693-3.1198-1.242-8.237-.92405-15.461.94392-21.472" stroke-width=".9936"/>
 <path class="Clef" d="m82.817 452.43c-1.2221-5.3953-3.8452-9.1908-4.6202-10.224-3.1696-4.2427-7.1539-7.0744-11.814-8.4158-3.0901-.88421-6.0709-.9936-8.4754-.81475-1.0333-5.9715-2.0269-11.814-2.9311-17.229 5.4151-6.1306 9.012-11.893 11.277-16.166 3.4478-6.5378 4.5904-11.088 4.6401-11.287 1.709-5.1768 2.0667-12.827.97373-20.985-1.0035-7.5017-3.0802-14.169-5.4151-17.398-1.0234-1.4208-2.0667-2.1462-3.1-2.1462-1.2122 0-3.7061 1.2321-6.5776 3.9843-2.2853 2.1859-5.5344 6.051-8.078 12.023-2.9808 7.0149-3.1895 16.444-2.8417 23.121.37757 7.2235 1.4805 12.877 1.4904 12.927.01987.0893.27821 1.5797.72533 4.1333-.22853.22853-.46699.44712-.71539.68568-1.0333.9936-2.2157 2.1262-3.5869 3.4974-.8545.85459-1.7984 1.7587-2.792 2.7225-8.3959 8.088-21.104 20.329-21.104 39.356 0 4.6699.89424 9.0616 2.6628 13.046 1.5799 3.577 3.8651 6.836 6.7764 9.6876 7.6805 7.5017 18.203 10.691 25.218 10.532 2.9311-.0695 5.5443-.30811 7.919-.75523 1.8183 9.5386 2.951 16.524 2.9907 21.829.03974 6.4683-1.5997 10.413-5.4747 13.165-2.4144 1.7189-5.2065 2.6628-8.2866 2.8119-2.5734.11923-4.819-.34776-6.2398-.75504h-.0099s-.28814-.0795-.29808-.27821c-.0099-.17894.33782-.22862.34776-.22862h.01987c1.9077-.43709 5.4549-1.6592 7.7998-4.9381 1.7885-2.5039 2.6529-7.0944.82469-11.009-1.1029-2.3746-3.5968-5.3057-9.1809-5.7528-2.4741-.19872-4.7295.30792-6.7167 1.5002-1.7984 1.0731-3.2888 2.7026-4.3321 4.6898-2.4443 4.6699-1.9872 10.363 1.1228 14.179 2.9411 3.5968 7.5315 5.892 12.927 6.4682.84456.0895 1.6891.12917 2.5337.12917 4.4016 0 8.7735-1.1923 12.321-3.3882 3.6366-2.5536 5.743-6.5081 6.4187-12.102.55642-4.6104.16891-10.482-1.2221-18.501-.3577-2.0766-.89424-5.0872-1.55-8.8231 5.7132-1.9078 9.8466-5.455 13.592-11.268 3.2689-5.7032 4.2029-11.764 2.7821-18.024m-33.991 26.022c-4.6103-1.2122-9.012-3.6962-12.748-7.1738-1.3016-1.2221-3.1596-3.3782-4.6202-6.7465-1.3612-3.1398-2.017-6.5479-1.9673-10.115.06957-4.66 1.3712-9.4492 3.8651-14.208 2.9013-5.5444 7.4321-11.039 13.453-16.335 1.4407-1.2717 2.802-2.5435 4.0837-3.8154.75514 4.2328 1.5798 8.8927 2.4542 13.742-3.8254 1.2618-8.545 4.3916-11.635 10.005-3.5173 6.528-3.3782 12.013-2.6529 15.47.93398 4.4315 3.4478 8.1674 6.8856 10.244.92405.55632 5.0276 2.6727 6.8558 2.0964.36763-.11923.6359-.33782.77501-.66571.50674-1.1625-.50674-1.7983-2.0568-2.7523-.59616-.36756-1.2619-.78489-1.9872-1.3115-3.2988-2.4741-4.7395-6.8956-3.6763-11.248.57629-2.3846 1.8481-4.5309 3.6763-6.22 1.6593-1.5401 3.6863-2.633 6.051-3.2688 2.0269 11.168 4.0738 22.247 5.7033 30.553.12917.68549.26827 1.3512.39744 2.0169-4.352.92405-8.6741.83472-12.857-.26827m11.248-32.968c10.284-.46699 14.526 6.9254 15.411 11.725.46699 2.5138.45706 6.9254-1.0731 11.108-1.1625 3.1596-3.6068 7.2036-8.7039 9.2505-.06955-.41731-.14904-.84456-.22853-1.2719-1.5301-8.7138-3.4577-19.634-5.4052-30.812m-7.2732-70.486c1.7686-5.7032 4.4911-8.9324 6.4683-10.651 1.7388-1.5103 3.3782-2.2158 4.2924-2.2158.1391 0 .25834.0199.3577.0497.45706.1391.98366.70555 1.4507 1.57 2.2952 4.2624 1.56 10.93.22853 15.341-1.6196 5.3654-4.5209 10.949-13.265 20.498-.16891-1.1029-.32789-2.1462-.47693-3.1198-1.242-8.237-.92405-15.461.94392-21.472" stroke-width=".9936"/>
 <path class="Clef" d="m82.817 800.19c-1.2221-5.3953-3.8452-9.1908-4.6202-10.224-3.1696-4.2427-7.1539-7.0744-11.814-8.4158-3.0901-.88421-6.0709-.9936-8.4754-.81475-1.0333-5.9715-2.0269-11.814-2.9311-17.229 5.4151-6.1306 9.012-11.893 11.277-16.166 3.4478-6.5378 4.5904-11.088 4.6401-11.287 1.709-5.1768 2.0667-12.827.97373-20.985-1.0035-7.5017-3.0802-14.169-5.4151-17.398-1.0234-1.4208-2.0667-2.1462-3.1-2.1462-1.2122 0-3.7061 1.2321-6.5776 3.9843-2.2853 2.1859-5.5344 6.051-8.078 12.023-2.9808 7.0149-3.1895 16.444-2.8417 23.121.37757 7.2235 1.4805 12.877 1.4904 12.927.01987.0893.27821 1.5797.72533 4.1333-.22853.22853-.46699.44712-.71539.68568-1.0333.9936-2.2157 2.1262-3.5869 3.4974-.8545.85459-1.7984 1.7587-2.792 2.7225-8.3959 8.088-21.104 20.329-21.104 39.356 0 4.6699.89424 9.0616 2.6628 13.046 1.5799 3.577 3.8651 6.836 6.7764 9.6876 7.6805 7.5017 18.203 10.691 25.218 10.532 2.9311-.0695 5.5443-.30811 7.919-.75523 1.8183 9.5386 2.951 16.524 2.9907 21.829.03974 6.4683-1.5997 10.413-5.4747 13.165-2.4144 1.7189-5.2065 2.6628-8.2866 2.8119-2.5734.11923-4.819-.34776-6.2398-.75504h-.0099s-.28814-.0795-.29808-.27821c-.0099-.17894.33782-.22862.34776-.22862h.01987c1.9077-.43709 5.4549-1.6592 7.7998-4.9381 1.7885-2.5039 2.6529-7.0944.82469-11.009-1.1029-2.3746-3.5968-5.3057-9.1809-5.7528-2.4741-.19872-4.7295.30792-6.7167 1.5002-1.7984 1.0731-3.2888 2.7026-4.3321 4.6898-2.4443 4.6699-1.9872 10.363 1.1228 14.179 2.9411 3.5968 7.5315 5.892 12.927 6.4682.84456.0895 1.6891.12917 2.5337.12917 4.4016 0 8.7735-1.1923 12.321-3.3882 3.6366-2.5536 5.743-6.5081 6.4187-12.102.55642-4.6104.16891-10.482-1.2221-18.501-.3577-2.0766-.89424-5.0872-1.55-8.8231 5.7132-1.9078 9.8466-5.455 13.592-11.268 3.2689-5.7032 4.2029-11.764 2.7821-18.024m-33.991 26.022c-4.6103-1.2122-9.012-3.6962-12.748-7.1738-1.3016-1.2221-3.1596-3.3782-4.6202-6.7465-1.3612-3.1398-2.017-6.5479-1.9673-10.115.06957-4.66 1.3712-9.4492 3.8651-14.208 2.9013-5.5444 7.4321-11.039 13.453-16.335 1.4407-1.2717 2.802-2.5435 4.0837-3.8154.75514 4.2328 1.5798 8.8927 2.4542 13.742-3.8254 1.2618-8.545 4.3916-11.635 10.005-3.5173 6.528-3.3782 12.013-2.6529 15.47.93398 4.4315 3.4478 8.1674 6.8856 10.244.92405.55632 5.0276 2.6727 6.8558 2.0964.36763-.11923.6359-.33782.77501-.66571.50674-1.1625-.50674-1.7983-2.0568-2.7523-.59616-.36756-1.2619-.78489-1.9872-1.3115-3.2988-2.4741-4.7395-6.8956-3.6763-11.248.57629-2.3846 1.8481-4.5309 3.6763-6.22 1.6593-1.5401 3.6863-2.633 6.051-3.2688 2.0269 11.168 4.0738 22.247 5.7033 30.553.12917.68549.26827 1.3512.39744 2.0169-4.352.92405-8.6741.83472-12.857-.26827m11.248-32.968c10.284-.46699 14.526 6.9254 15.411 11.725.46699 2.5138.45706 6.9254-1.0731 11.108-1.1625 3.1596-3.6068 7.2036-8.7039 9.2505-.06955-.41731-.14904-.84456-.22853-1.2719-1.5301-8.7138-3.4577-19.634-5.4052-30.812m-7.2732-70.486c1.7686-5.7032 4.4911-8.9324 6.4683-10.651 1.7388-1.5103 3.3782-2.2158 4.2924-2.2158.1391 0 .25834.0199.3577.0497.45706.1391.98366.70555 1.4507 1.57 2.2952 4.2624 1.56 10.93.22853 15.341-1.6196 5.3654-4.5209 10.949-13.265 20.498-.16891-1.1029-.32789-2.1462-.47693-3.1198-1.242-8.237-.92405-15.461.94392-21.472" stroke-width=".9936"/>
 <path class="KeySig" d="m128.26 77.809c-.59616-3.875-2.9808-7.5514-8.0482-7.5514-4.968 0-7.8494 3.0802-8.3462 3.6763l.39744-31.895c0-.79488-.59616-1.391-1.391-1.391h-1.1923c-.79488 0-1.391.59616-1.391 1.391l.4968 59.715c0 .79488.59616 1.391 1.391 1.391.19872 0 .59616-.0994.79488-.19872.39744-.19872 6.8558-3.3782 12.221-9.4392 3.7757-4.2725 5.2661-9.1411 5.2661-13.215 0-.89424-.0994-1.6891-.19872-2.484m-6.8558 3.875c0 1.4904-.39744 6.061-2.8814 9.8366-1.6891 2.5834-5.0674 5.2661-6.9552 6.7565l.29808-19.375c.19872-.89424 1.6891-3.7757 5.6635-3.7757 3.577 0 3.875 3.3782 3.875 5.4648v1.093" stroke-width=".9936"/>
 <path class="KeySig" d="m128.26 425.57c-.59616-3.875-2.9808-7.5514-8.0482-7.5514-4.968 0-7.8494 3.0802-8.3462 3.6763l.39744-31.895c0-.79488-.59616-1.391-1.391-1.391h-1.1923c-.79488 0-1.391.59616-1.391 1.391l.4968 59.715c0 .79488.59616 1.391 1.391 1.391.19872 0 .59616-.0994.79488-.19872.39744-.19872 6.8558-3.3782 12.221-9.4392 3.7757-4.2725 5.2661-9.1411 5.2661-13.215 0-.89424-.0994-1.6891-.19872-2.484m-6.8558 3.875c0 1.4904-.39744 6.061-2.8814 9.8366-1.6891 2.5834-5.0674 5.2661-6.9552 6.7565l.29808-19.375c.19872-.89424 1.6891-3.7757 5.6635-3.7757 3.577 0 3.875 3.3782 3.875 5.4648v1.093" stroke-width=".9936"/>
 <path class="KeySig" d="m128.26 773.33c-.59616-3.875-2.9808-7.5514-8.0482-7.5514-4.968 0-7.8494 3.0802-8.3462 3.6763l.39744-31.895c0-.79488-.59616-1.391-1.391-1.391h-1.1923c-.79488 0-1.391.59616-1.391 1.391l.4968 59.715c0 .79488.59616 1.391 1.391 1.391.19872 0 .59616-.0994.79488-.19872.39744-.19872 6.8558-3.3782 12.221-9.4392 3.7757-4.2725 5.2661-9.1411 5.2661-13.215 0-.89424-.0994-1.6891-.19872-2.484m-6.8558 3.875c0 1.4904-.39744 6.061-2.8814 9.8366-1.6891 2.5834-5.0674 5.2661-6.9552 6.7565l.29808-19.375c.19872-.89424 1.6891-3.7757 5.6635-3.7757 3.577 0 3.875 3.3782 3.875 5.4648v1.093" stroke-width=".9936"/>
 <path class="TimeSig" d="m185.79 65.19c-.79488 2.1859-2.7821 9.3398-7.6507 9.3398-6.4584 0-7.8494-3.9744-13.215-3.9744-.79488 0-1.5898.09936-2.5834.29808 0 0 2.484-3.7757 13.016-7.0546s13.215-8.4456 13.215-14.407c0-4.1731-1.8878-12.42-16.891-12.42s-17.785 9.0418-17.785 13.612c0 4.0738 3.3782 7.3526 7.452 7.3526s7.3526-3.2789 7.3526-7.3526c0-2.7821-1.9872-5.8622-4.5706-6.8558-.29808-.09936-.69552-.59616-.69552-1.093 0-.59616.4968-1.2917 2.2853-1.7885.4968-.19872 1.8878-.4968 3.3782-.4968 1.391 0 2.9808.29808 4.1731 1.093 1.8878 1.1923 2.5834 2.9808 2.5834 7.452 0 11.625-13.811 14.109-19.574 22.753 0 0-2.9808 4.1731-2.9808 8.843s2.3846 4.968 3.577 4.968c1.5898 0 3.2789-1.2917 3.2789-3.0802 0-.39744-.0994-.79488-.29808-1.2917-.59616-1.391-.79488-2.484-.79488-3.2789 0-.29808 0-.59616.0994-.89424.0994-.59616.89424-1.5898 3.2789-1.5898 2.8814 0 3.9744 3.3782 5.7629 5.9616s4.5706 4.1731 7.7501 4.1731 7.452-2.2853 9.2405-5.9616 4.0738-11.128 4.0738-13.811c0-1.2917-.79488-1.8878-1.6891-1.8878-.69552 0-1.391.39744-1.7885 1.391" stroke-width=".9936"/>
 <path class="TimeSig" d="m185.79 113.88c-.79488 2.1859-2.7821 9.3398-7.6507 9.3398-6.4584 0-7.8494-3.9744-13.215-3.9744-.79488 0-1.5898.0994-2.5834.29808 0 0 2.484-3.7757 13.016-7.0546s13.215-8.4456 13.215-14.407c0-4.1731-1.8878-12.42-16.891-12.42s-17.785 9.0418-17.785 13.612c0 4.0738 3.3782 7.3526 7.452 7.3526s7.3526-3.2789 7.3526-7.3526c0-2.7821-1.9872-5.8622-4.5706-6.8558-.29808-.09936-.69552-.59616-.69552-1.093 0-.59616.4968-1.2917 2.2853-1.7885.4968-.19872 1.8878-.4968 3.3782-.4968 1.391 0 2.9808.29808 4.1731 1.093 1.8878 1.1923 2.5834 2.9808 2.5834 7.452 0 11.625-13.811 14.109-19.574 22.753 0 0-2.9808 4.1731-2.9808 8.843s2.3846 4.968 3.577 4.968c1.5898 0 3.2789-1.2917 3.2789-3.0802 0-.39744-.0994-.79488-.29808-1.2917-.59616-1.391-.79488-2.484-.79488-3.2789 0-.29808 0-.59616.0994-.89424.0994-.59616.89424-1.5898 3.2789-1.5898 2.8814 0 3.9744 3.3782 5.7629 5.9616s4.5706 4.1731 7.7501 4.1731 7.452-2.2853 9.2405-5.9616 4.0738-11.128 4.0738-13.811c0-1.2917-.79488-1.8878-1.6891-1.8878-.69552 0-1.391.39744-1.7885 1.391" stroke-width=".9936"/>
 <path class="Hook" d="m649.58 235.1c0-.19872.89424-3.577.9936-3.875.0994-.39744 1.8878-6.061 5.5642-11.724 2.6827-4.1731 12.122-16.394 11.824-16.394 0 0 7.3526-9.4392 7.8494-22.257v-2.2853c0-6.061-.79488-14.606-4.2725-23.25-.39744-.9936-.79488-1.9872-1.8878-1.5898s-.79488 1.5898-.4968 2.6827c1.7885 6.9552 2.7821 14.109 2.7821 21.263 0 8.3462-2.9808 12.519-4.7693 15.6-6.5578 11.029-15.103 16.394-19.276 17.785-.4968.19872-.79488.59616-.79488 1.093v22.455c0 .69552.59616 1.2917 1.2917 1.2917.4968 0 1.093-.39744 1.1923-.79488" stroke-width=".9936"/>
 <path class="Hook" d="m851.54 235.1c0-.19872.89424-3.577.9936-3.875.0994-.39744 1.8878-6.061 5.5642-11.724 2.6827-4.1731 12.122-16.394 11.824-16.394 0 0 7.3526-9.4392 7.8494-22.257v-2.2853c0-6.061-.79488-14.606-4.2725-23.25-.39744-.9936-.79488-1.9872-1.8878-1.5898s-.79488 1.5898-.4968 2.6827c1.7885 6.9552 2.7821 14.109 2.7821 21.263 0 8.3462-2.9808 12.519-4.7693 15.6-6.5578 11.029-15.103 16.394-19.276 17.785-.4968.19872-.79488.59616-.79488 1.093v22.455c0 .69552.59616 1.2917 1.2917 1.2917.4968 0 1.093-.39744 1.1923-.79488" stroke-width=".9936"/>
 <path class="Hook" d="m1128.8 222.68c0-.19872.8942-3.577.9936-3.875.099-.39744 1.8878-6.061 5.5642-11.724 2.6827-4.1731 12.122-16.394 11.824-16.394 0 0 7.3526-9.4392 7.8494-22.257v-2.2853c0-6.061-.7948-14.606-4.2724-23.25-.3975-.9936-.7949-1.9872-1.8879-1.5898-1.0929.39744-.7949 1.5898-.4968 2.6827 1.7885 6.9552 2.7821 14.109 2.7821 21.263 0 8.3462-2.9808 12.519-4.7693 15.6-6.5577 11.029-15.103 16.394-19.276 17.785-.4968.19872-.7949.59616-.7949 1.093v22.455c0 .69552.5962 1.2917 1.2917 1.2917.4968 0 1.0929-.39744 1.1923-.79488" stroke-width=".9936"/>
 <path class="Hook" d="m402.88 89.136c-.0994-.29808-.9936-3.7757-.9936-3.9744-.0994-.39744-.69552-.69552-1.1923-.69552-.69552 0-1.2917.59616-1.2917 1.2917v22.455c0 .4968.39744.89424.79488 1.093 4.1731 1.2917 12.817 6.7565 19.276 17.785 1.7885 3.0802 4.6699 7.2533 4.6699 15.6 0 7.1539-1.093 14.705-2.8814 21.66-.29808 1.093-.59616 2.0866.4968 2.484s1.4904-.39744 1.8878-1.391c3.577-8.7437 4.4712-17.885 4.4712-24.045v-1.8878c-.4968-12.817-7.8494-22.257-7.8494-22.257.29808 0-9.1411-12.221-11.824-16.394-3.6763-5.6635-5.4648-11.327-5.5642-11.724" stroke-width=".9936"/>
 <path class="Hook" d="m680.12 64.296c-.0994-.29808-.9936-3.7757-.9936-3.9744-.0994-.39744-.69552-.69552-1.1923-.69552-.69552 0-1.2917.59616-1.2917 1.2917v22.455c0 .4968.39744.89424.79488 1.093 4.1731 1.2917 12.817 6.7565 19.276 17.785 1.7885 3.0802 4.6699 7.2533 4.6699 15.6 0 7.1539-1.093 14.705-2.8814 21.66-.29808 1.093-.59616 2.0866.4968 2.484s1.4904-.39744 1.8878-1.391c3.577-8.7437 4.4712-17.885 4.4712-24.045v-1.8878c-.4968-12.817-7.8494-22.257-7.8494-22.257.29808 0-9.1411-12.221-11.824-16.394-3.6763-5.6635-5.4648-11.327-5.5642-11.724" stroke-width=".9936"/>
 <path class="Hook" d="m882.09 64.296c-.0994-.29808-.9936-3.7757-.9936-3.9744-.0994-.39744-.69552-.69552-1.1923-.69552-.69552 0-1.2917.59616-1.2917 1.2917v22.455c0 .4968.39744.89424.79488 1.093 4.1731 1.2917 12.817 6.7565 19.276 17.785 1.7885 3.0802 4.6699 7.2533 4.6699 15.6 0 7.1539-1.093 14.705-2.8814 21.66-.29808 1.093-.59616 2.0866.4968 2.484s1.4904-.39744 1.8878-1.391c3.577-8.7437 4.4712-17.885 4.4712-24.045v-1.8878c-.4968-12.817-7.8494-22.257-7.8494-22.257.29808 0-9.1411-12.221-11.824-16.394-3.6763-5.6635-5.4648-11.327-5.5642-11.724" stroke-width=".9936"/>
 <path class="Hook" d="m1159.3 51.876c-.099-.29808-.9936-3.7757-.9936-3.9744-.099-.39744-.6955-.69552-1.1923-.69552-.6955 0-1.2917.59616-1.2917 1.2917v22.455c0 .4968.3974.89424.7949 1.093 4.1731 1.2917 12.817 6.7565 19.276 17.785 1.7885 3.0802 4.6699 7.2533 4.6699 15.6 0 7.1539-1.0929 14.705-2.8814 21.66-.2981 1.093-.5962 2.0866.4968 2.484s1.4904-.39744 1.8878-1.391c3.577-8.7437 4.4712-17.885 4.4712-24.045v-1.8878c-.4968-12.817-7.8494-22.257-7.8494-22.257.2981 0-9.1411-12.221-11.824-16.394-3.6764-5.6635-5.4648-11.327-5.5642-11.724" stroke-width=".9936"/>
 <path class="Hook" d="m1361.3 30.141c-.099-.29808-.9936-3.7757-.9936-3.9744-.099-.39744-.6955-.69552-1.1923-.69552-.6955 0-1.2917.59616-1.2917 1.2917v22.455c0 .4968.3974.89424.7949 1.093 4.1731 1.2917 12.817 6.7565 19.276 17.785 1.7885 3.0802 4.6699 7.2533 4.6699 15.6 0 7.1539-1.0929 14.705-2.8814 21.66-.2981 1.093-.5962 2.0866.4968 2.484s1.4904-.39744 1.8878-1.391c3.577-8.7437 4.4712-17.885 4.4712-24.045v-1.8878c-.4968-12.817-7.8494-22.257-7.8494-22.257.2981 0-9.1411-12.221-11.824-16.394-3.6764-5.6635-5.4648-11.327-5.5642-11.724" stroke-width=".9936"/>
 <path class="Hook" d="m1098.3 377.9c-.099-.29808-.9936-3.7757-.9936-3.9744-.099-.39744-.6955-.69552-1.1923-.69552-.6955 0-1.2917.59616-1.2917 1.2917v22.455c0 .4968.3974.89424.7949 1.093 4.1731 1.2917 12.817 6.7565 19.276 17.785 1.7885 3.0802 4.6699 7.2533 4.6699 15.6 0 7.1539-1.0929 14.705-2.8814 21.66-.2981 1.093-.5962 2.0866.4968 2.484s1.4904-.39744 1.8878-1.391c3.577-8.7437 4.4712-17.885 4.4712-24.045v-1.8878c-.4968-12.817-7.8494-22.257-7.8494-22.257.2981 0-9.1411-12.221-11.824-16.394-3.6764-5.6635-5.4648-11.327-5.5642-11.724" stroke-width=".9936"/>
 <path class="Hook" d="m1361.3 377.9c-.099-.29808-.9936-3.7757-.9936-3.9744-.099-.39744-.6955-.69552-1.1923-.69552-.6955 0-1.2917.59616-1.2917 1.2917v22.455c0 .4968.3974.89424.7949 1.093 4.1731 1.2917 12.817 6.7565 19.276 17.785 1.7885 3.0802 4.6699 7.2533 4.6699 15.6 0 7.1539-1.0929 14.705-2.8814 21.66-.2981 1.093-.5962 2.0866.4968 2.484s1.4904-.39744 1.8878-1.391c3.577-8.7437 4.4712-17.885 4.4712-24.045v-1.8878c-.4968-12.817-7.8494-22.257-7.8494-22.257.2981 0-9.1411-12.221-11.824-16.394-3.6764-5.6635-5.4648-11.327-5.5642-11.724" stroke-width=".9936"/>
 <path class="Hook" d="m707.67 725.66c-.0994-.29808-.9936-3.7757-.9936-3.9744-.0994-.39744-.69552-.69552-1.1923-.69552-.69552 0-1.2917.59616-1.2917 1.2917v22.455c0 .4968.39744.89424.79488 1.093 4.1731 1.2917 12.817 6.7565 19.276 17.785 1.7885 3.0802 4.6699 7.2533 4.6699 15.6 0 7.1539-1.093 14.705-2.8814 21.66-.29808 1.093-.59616 2.0866.4968 2.484s1.4904-.39744 1.8878-1.391c3.577-8.7437 4.4712-17.885 4.4712-24.045v-1.8878c-.4968-12.817-7.8494-22.257-7.8494-22.257.29808 0-9.1411-12.221-11.824-16.394-3.6763-5.6635-5.4648-11.327-5.5642-11.724" stroke-width=".9936"/>
 <path class="NoteDot" d="m1239.4 122.92c0 2.7438 2.2242 4.968 4.968 4.968s4.968-2.2242 4.968-4.968c0-2.7438-2.2242-4.968-4.968-4.968s-4.968 2.2242-4.968 4.968" stroke-width=".9936"/>
 <path class="NoteDot" d="m936.05 495.52c0 2.7438 2.2242 4.968 4.968 4.968s4.968-2.2242 4.968-4.968c0-2.7438-2.2242-4.968-4.968-4.968s-4.968 2.2242-4.968 4.968" stroke-width=".9936"/>
 <path class="NoteDot" d="m1199.1 495.52c0 2.7438 2.2242 4.968 4.968 4.968s4.968-2.2242 4.968-4.968c0-2.7438-2.2242-4.968-4.968-4.968s-4.968 2.2242-4.968 4.968" stroke-width=".9936"/>
 <path class="NoteDot" d="m535.99 818.44c0 2.7438 2.2242 4.968 4.968 4.968s4.968-2.2242 4.968-4.968c0-2.7438-2.2242-4.968-4.968-4.968s-4.968 2.2242-4.968 4.968" stroke-width=".9936"/>
 <path class="NoteDot" d="m292.34 172.6c0 2.7438 2.2242 4.968 4.968 4.968s4.968-2.2242 4.968-4.968c0-2.7438-2.2242-4.968-4.968-4.968s-4.968 2.2242-4.968 4.968" stroke-width=".9936"/>
 <path class="NoteDot" d="m558.27 147.76c0 2.7438 2.2242 4.968 4.968 4.968s4.968-2.2242 4.968-4.968c0-2.7438-2.2242-4.968-4.968-4.968s-4.968 2.2242-4.968 4.968" stroke-width=".9936"/>
 <path class="NoteDot" d="m760.24 147.76c0 2.7438 2.2242 4.968 4.968 4.968s4.968-2.2242 4.968-4.968c0-2.7438-2.2242-4.968-4.968-4.968s-4.968 2.2242-4.968 4.968" stroke-width=".9936"/>
 <path class="NoteDot" d="m1037.5 147.76c0 2.7438 2.2242 4.968 4.968 4.968s4.968-2.2242 4.968-4.968c0-2.7438-2.2242-4.968-4.968-4.968s-4.968 2.2242-4.968 4.968" stroke-width=".9936"/>
 <path class="NoteDot" d="m936.05 445.84c0 2.7438 2.2242 4.968 4.968 4.968s4.968-2.2242 4.968-4.968c0-2.7438-2.2242-4.968-4.968-4.968s-4.968 2.2242-4.968 4.968" stroke-width=".9936"/>
 <path class="NoteDot" d="m1199.1 445.84c0 2.7438 2.2242 4.968 4.968 4.968s4.968-2.2242 4.968-4.968c0-2.7438-2.2242-4.968-4.968-4.968s-4.968 2.2242-4.968 4.968" stroke-width=".9936"/>
 <path class="NoteDot" d="m535.99 793.6c0 2.7438 2.2242 4.968 4.968 4.968s4.968-2.2242 4.968-4.968c0-2.7438-2.2242-4.968-4.968-4.968s-4.968 2.2242-4.968 4.968" stroke-width=".9936"/>
</svg>
