<?xml version="1.0" encoding="utf-8"?>
<svg xmlns="http://www.w3.org/2000/svg" version="1.2" viewBox="0 0 1431 534">
 <title>Two lines of musical notation representing a brief melody.</title>
 <polyline class="StaffLines" points="0 35.978 1431 35.978" fill="none" stroke="#000" stroke-linejoin="bevel" stroke-width="2.73"/>
 <polyline class="StaffLines" points="0 60.818 1431 60.818" fill="none" stroke="#000" stroke-linejoin="bevel" stroke-width="2.73"/>
 <polyline class="StaffLines" points="0 85.658 1431 85.658" fill="none" stroke="#000" stroke-linejoin="bevel" stroke-width="2.73"/>
 <polyline class="StaffLines" points="0 110.5 1431 110.5" fill="none" stroke="#000" stroke-linejoin="bevel" stroke-width="2.73"/>
 <polyline class="StaffLines" points="0 135.34 1431 135.34" fill="none" stroke="#000" stroke-linejoin="bevel" stroke-width="2.73"/>
 <polyline class="StaffLines" points="0 383.74 1431 383.74" fill="none" stroke="#000" stroke-linejoin="bevel" stroke-width="2.73"/>
 <polyline class="StaffLines" points="0 408.58 1431 408.58" fill="none" stroke="#000" stroke-linejoin="bevel" stroke-width="2.73"/>
 <polyline class="StaffLines" points="0 433.42 1431 433.42" fill="none" stroke="#000" stroke-linejoin="bevel" stroke-width="2.73"/>
 <polyline class="StaffLines" points="0 458.26 1431 458.26" fill="none" stroke="#000" stroke-linejoin="bevel" stroke-width="2.73"/>
 <polyline class="StaffLines" points="0 483.1 1431 483.1" fill="none" stroke="#000" stroke-linejoin="bevel" stroke-width="2.73"/>
 <polyline class="BarLine" points="883.95 34.612 883.95 136.7" fill="none" stroke="#000" stroke-linejoin="bevel" stroke-width="4.47"/>
 <polyline class="BarLine" points="1428.8 34.612 1428.8 136.7" fill="none" stroke="#000" stroke-linejoin="bevel" stroke-width="4.47"/>
 <polyline class="BarLine" points="891.71 382.37 891.71 484.46" fill="none" stroke="#000" stroke-linejoin="bevel" stroke-width="4.47"/>
 <polyline class="BarLine" points="1424.2 382.37 1424.2 484.46" fill="none" stroke="#000" stroke-linejoin="bevel" stroke-width="13.66"/>
 <polyline class="LedgerLine" points="352.52 507.94 402.19 507.94" fill="none" stroke="#000" stroke-linejoin="bevel" stroke-width="3.97"/>
 <polyline class="LedgerLine" points="443.98 507.94 493.65 507.94" fill="none" stroke="#000" stroke-linejoin="bevel" stroke-width="3.97"/>
 <polyline class="Stem" points="246.31 492.34 246.31 408.58" fill="none" stroke="#000" stroke-linejoin="bevel" stroke-width="2.73"/>
 <polyline class="Stem" points="392.13 504.76 392.13 421" fill="none" stroke="#000" stroke-linejoin="bevel" stroke-width="2.73"/>
 <polyline class="Stem" points="483.59 517.18 483.59 433.42" fill="none" stroke="#000" stroke-linejoin="bevel" stroke-width="2.73"/>
 <polyline class="Stem" points="575.05 492.34 575.05 408.58" fill="none" stroke="#000" stroke-linejoin="bevel" stroke-width="2.73"/>
 <polyline class="Stem" points="666.51 455.08 666.51 374.42" fill="none" stroke="#000" stroke-linejoin="bevel" stroke-width="2.73"/>
 <polyline class="Stem" points="757.97 455.08 757.97 371.32" fill="none" stroke="#000" stroke-linejoin="bevel" stroke-width="2.73"/>
 <polyline class="Stem" points="823.03 455.08 823.03 371.32" fill="none" stroke="#000" stroke-linejoin="bevel" stroke-width="2.73"/>
 <polyline class="Stem" points="957.15 467.5 957.15 383.74" fill="none" stroke="#000" stroke-linejoin="bevel" stroke-width="2.73"/>
 <polyline class="Stem" points="1036.4 467.5 1036.4 383.74" fill="none" stroke="#000" stroke-linejoin="bevel" stroke-width="2.73"/>
 <polyline class="Stem" points="1115.6 479.92 1115.6 396.16" fill="none" stroke="#000" stroke-linejoin="bevel" stroke-width="2.73"/>
 <polyline class="Stem" points="1194.8 479.92 1194.8 396.16" fill="none" stroke="#000" stroke-linejoin="bevel" stroke-width="2.73"/>
 <polyline class="Stem" points="1274 492.34 1274 408.58" fill="none" stroke="#000" stroke-linejoin="bevel" stroke-width="2.73"/>
 <polyline class="Stem" points="301.28 119.74 301.28 35.978" fill="none" stroke="#000" stroke-linejoin="bevel" stroke-width="2.73"/>
 <polyline class="Stem" points="472.87 132.16 472.87 48.398" fill="none" stroke="#000" stroke-linejoin="bevel" stroke-width="2.73"/>
 <polyline class="Stem" points="560.82 144.58 560.82 60.818" fill="none" stroke="#000" stroke-linejoin="bevel" stroke-width="2.73"/>
 <polyline class="Stem" points="648.78 119.74 648.78 35.978" fill="none" stroke="#000" stroke-linejoin="bevel" stroke-width="2.73"/>
 <polyline class="Stem" points="707.18 88.996 707.18 172.6" fill="none" stroke="#000" stroke-linejoin="bevel" stroke-width="2.73"/>
 <polyline class="Stem" points="795.13 88.996 795.13 172.6" fill="none" stroke="#000" stroke-linejoin="bevel" stroke-width="2.73"/>
 <polyline class="Stem" points="919.84 76.576 919.84 153.97" fill="none" stroke="#000" stroke-linejoin="bevel" stroke-width="2.73"/>
 <polyline class="Stem" points="1050.1 88.996 1050.1 172.6" fill="none" stroke="#000" stroke-linejoin="bevel" stroke-width="2.73"/>
 <polyline class="Stem" points="1101.1 76.576 1101.1 160.18" fill="none" stroke="#000" stroke-linejoin="bevel" stroke-width="2.73"/>
 <polyline class="Stem" points="1152.2 64.156 1152.2 147.76" fill="none" stroke="#000" stroke-linejoin="bevel" stroke-width="2.73"/>
 <polyline class="Stem" points="1233.9 76.576 1233.9 160.18" fill="none" stroke="#000" stroke-linejoin="bevel" stroke-width="2.73"/>
 <polyline class="Stem" points="246.31 467.5 246.31 383.74" fill="none" stroke="#000" stroke-linejoin="bevel" stroke-width="2.73"/>
 <polyline class="Stem" points="392.13 479.92 392.13 396.16" fill="none" stroke="#000" stroke-linejoin="bevel" stroke-width="2.73"/>
 <polyline class="Stem" points="483.59 492.34 483.59 408.58" fill="none" stroke="#000" stroke-linejoin="bevel" stroke-width="2.73"/>
 <polyline class="Stem" points="575.05 467.5 575.05 383.74" fill="none" stroke="#000" stroke-linejoin="bevel" stroke-width="2.73"/>
 <polyline class="Stem" points="666.51 392.98 666.51 321.64" fill="none" stroke="#000" stroke-linejoin="bevel" stroke-width="2.73"/>
 <polyline class="Stem" points="757.97 392.98 757.97 309.22" fill="none" stroke="#000" stroke-linejoin="bevel" stroke-width="2.73"/>
 <polyline class="Stem" points="823.03 392.98 823.03 309.22" fill="none" stroke="#000" stroke-linejoin="bevel" stroke-width="2.73"/>
 <polyline class="Stem" points="957.15 405.4 957.15 334.06" fill="none" stroke="#000" stroke-linejoin="bevel" stroke-width="2.73"/>
 <polyline class="Stem" points="1036.4 405.4 1036.4 334.06" fill="none" stroke="#000" stroke-linejoin="bevel" stroke-width="2.73"/>
 <polyline class="Stem" points="1115.6 417.82 1115.6 346.48" fill="none" stroke="#000" stroke-linejoin="bevel" stroke-width="2.73"/>
 <polyline class="Stem" points="1194.8 417.82 1194.8 346.48" fill="none" stroke="#000" stroke-linejoin="bevel" stroke-width="2.73"/>
 <polyline class="Stem" points="1274 430.24 1274 355.79" fill="none" stroke="#000" stroke-linejoin="bevel" stroke-width="2.73"/>
 <path class="Note" d="m246.69 487.47c-1.7885-3.2789-5.5642-5.0674-10.135-5.0674-3.3782 0-7.0546.9936-10.632 2.8814-6.5578 3.4776-10.532 9.3398-10.532 14.407 0 1.391.29808 2.7821.9936 4.0738 1.7885 3.2789 5.5642 4.968 10.135 4.968 3.3782 0 7.0546-.89424 10.632-2.7821 6.5578-3.4776 10.532-9.3398 10.532-14.407 0-1.391-.29808-2.7821-.9936-4.0738" stroke-width=".9936"/>
 <path class="Note" d="m392.51 499.89c-1.7885-3.2789-5.5642-5.0674-10.135-5.0674-3.3782 0-7.0546.9936-10.632 2.8814-6.5578 3.4776-10.532 9.3398-10.532 14.407 0 1.391.29808 2.7821.9936 4.0738 1.7885 3.2789 5.5642 4.968 10.135 4.968 3.3782 0 7.0546-.89424 10.632-2.7821 6.5578-3.4776 10.532-9.3398 10.532-14.407 0-1.391-.29808-2.7821-.9936-4.0738" stroke-width=".9936"/>
 <path class="Note" d="m483.97 512.31c-1.7885-3.2789-5.5642-5.0674-10.135-5.0674-3.3782 0-7.0546.9936-10.632 2.8814-6.5578 3.4776-10.532 9.3398-10.532 14.407 0 1.391.29808 2.7821.9936 4.0738 1.7885 3.2789 5.5642 4.968 10.135 4.968 3.3782 0 7.0546-.89424 10.632-2.7821 6.5578-3.4776 10.532-9.3398 10.532-14.407 0-1.391-.29808-2.7821-.9936-4.0738" stroke-width=".9936"/>
 <path class="Note" d="m575.43 487.47c-1.7885-3.2789-5.5642-5.0674-10.135-5.0674-3.3782 0-7.0546.9936-10.632 2.8814-6.5578 3.4776-10.532 9.3398-10.532 14.407 0 1.391.29808 2.7821.9936 4.0738 1.7885 3.2789 5.5642 4.968 10.135 4.968 3.3782 0 7.0546-.89424 10.632-2.7821 6.5578-3.4776 10.532-9.3398 10.532-14.407 0-1.391-.29808-2.7821-.9936-4.0738" stroke-width=".9936"/>
 <path class="Note" d="m666.89 450.21c-1.7885-3.2789-5.5642-5.0674-10.135-5.0674-3.3782 0-7.0546.9936-10.632 2.8814-6.5578 3.4776-10.532 9.3398-10.532 14.407 0 1.391.29808 2.7821.9936 4.0738 1.7885 3.2789 5.5642 4.968 10.135 4.968 3.3782 0 7.0546-.89424 10.632-2.7821 6.5578-3.4776 10.532-9.3398 10.532-14.407 0-1.391-.29808-2.7821-.9936-4.0738" stroke-width=".9936"/>
 <path class="Note" d="m758.35 450.21c-1.7885-3.2789-5.5642-5.0674-10.135-5.0674-3.3782 0-7.0546.9936-10.632 2.8814-6.5578 3.4776-10.532 9.3398-10.532 14.407 0 1.391.29808 2.7821.9936 4.0738 1.7885 3.2789 5.5642 4.968 10.135 4.968 3.3782 0 7.0546-.89424 10.632-2.7821 6.5578-3.4776 10.532-9.3398 10.532-14.407 0-1.391-.29808-2.7821-.9936-4.0738" stroke-width=".9936"/>
 <path class="Note" d="m823.41 450.21c-1.7885-3.2789-5.5642-5.0674-10.135-5.0674-3.3782 0-7.0546.9936-10.632 2.8814-6.5578 3.4776-10.532 9.3398-10.532 14.407 0 1.391.29808 2.7821.9936 4.0738 1.7885 3.2789 5.5642 4.968 10.135 4.968 3.3782 0 7.0546-.89424 10.632-2.7821 6.5578-3.4776 10.532-9.3398 10.532-14.407 0-1.391-.29808-2.7821-.9936-4.0738" stroke-width=".9936"/>
 <path class="Note" d="m957.53 462.63c-1.7885-3.2789-5.5642-5.0674-10.135-5.0674-3.3782 0-7.0546.9936-10.632 2.8814-6.5578 3.4776-10.532 9.3398-10.532 14.407 0 1.391.29808 2.7821.9936 4.0738 1.7885 3.2789 5.5642 4.968 10.135 4.968 3.3782 0 7.0546-.89424 10.632-2.7821 6.5578-3.4776 10.532-9.3398 10.532-14.407 0-1.391-.29808-2.7821-.9936-4.0738" stroke-width=".9936"/>
 <path class="Note" d="m1036.7 462.63c-1.7885-3.2789-5.5642-5.0674-10.135-5.0674-3.3783 0-7.0546.9936-10.632 2.8814-6.5578 3.4776-10.532 9.3398-10.532 14.407 0 1.391.2981 2.7821.9936 4.0738 1.7885 3.2789 5.5642 4.968 10.135 4.968 3.3783 0 7.0546-.89424 10.632-2.7821 6.5578-3.4776 10.532-9.3398 10.532-14.407 0-1.391-.2981-2.7821-.9936-4.0738" stroke-width=".9936"/>
 <path class="Note" d="m1116 475.05c-1.7885-3.2789-5.5642-5.0674-10.135-5.0674-3.3783 0-7.0546.9936-10.632 2.8814-6.5578 3.4776-10.532 9.3398-10.532 14.407 0 1.391.2981 2.7821.9936 4.0738 1.7885 3.2789 5.5642 4.968 10.135 4.968 3.3783 0 7.0546-.89424 10.632-2.7821 6.5578-3.4776 10.532-9.3398 10.532-14.407 0-1.391-.2981-2.7821-.9936-4.0738" stroke-width=".9936"/>
 <path class="Note" d="m1195.2 475.05c-1.7885-3.2789-5.5642-5.0674-10.135-5.0674-3.3783 0-7.0546.9936-10.632 2.8814-6.5578 3.4776-10.532 9.3398-10.532 14.407 0 1.391.2981 2.7821.9936 4.0738 1.7885 3.2789 5.5642 4.968 10.135 4.968 3.3783 0 7.0546-.89424 10.632-2.7821 6.5578-3.4776 10.532-9.3398 10.532-14.407 0-1.391-.2981-2.7821-.9936-4.0738" stroke-width=".9936"/>
 <path class="Note" d="m1274.4 487.47c-1.7885-3.2789-5.5642-5.0674-10.135-5.0674-3.3783 0-7.0546.9936-10.632 2.8814-6.5578 3.4776-10.532 9.3398-10.532 14.407 0 1.391.2981 2.7821.9936 4.0738 1.7885 3.2789 5.5642 4.968 10.135 4.968 3.3783 0 7.0546-.89424 10.632-2.7821 6.5578-3.4776 10.532-9.3398 10.532-14.407 0-1.391-.2981-2.7821-.9936-4.0738m-4.2725 6.7565c-1.6891 1.6891-5.0673 3.7757-8.6443 5.7629s-7.1539 3.4776-9.5386 3.9744c-.4968.0994-.9936.19872-1.4904.19872-1.5897 0-2.782-.59616-3.4776-1.8878-.298-.4968-.4968-1.093-.4968-1.6891 0-1.093.6956-2.3846 1.7885-3.4776 1.6891-1.6891 4.968-3.7757 8.545-5.7629 3.5769-1.9872 7.1539-3.4776 9.5385-3.9744.4968-.0994.9936-.19872 1.4904-.19872 1.5898 0 2.8815.59616 3.577 1.8878.2981.4968.3974 1.093.3974 1.6891 0 1.093-.5961 2.2853-1.6891 3.4776" stroke-width=".9936"/>
 <path class="Note" d="m301.66 114.87c-1.7885-3.2789-5.5642-5.0674-10.135-5.0674-3.3782 0-7.0546.9936-10.632 2.8814-6.5578 3.4776-10.532 9.3398-10.532 14.407 0 1.391.29808 2.7821.9936 4.0738 1.7885 3.2789 5.5642 4.968 10.135 4.968 3.3782 0 7.0546-.89424 10.632-2.7821 6.5578-3.4776 10.532-9.3398 10.532-14.407 0-1.391-.29808-2.7821-.9936-4.0738" stroke-width=".9936"/>
 <path class="Note" d="m473.25 127.29c-1.7885-3.2789-5.5642-5.0674-10.135-5.0674-3.3782 0-7.0546.9936-10.632 2.8814-6.5578 3.4776-10.532 9.3398-10.532 14.407 0 1.391.29808 2.7821.9936 4.0738 1.7885 3.2789 5.5642 4.968 10.135 4.968 3.3782 0 7.0546-.89424 10.632-2.7821 6.5578-3.4776 10.532-9.3398 10.532-14.407 0-1.391-.29808-2.7821-.9936-4.0738" stroke-width=".9936"/>
 <path class="Note" d="m561.2 139.71c-1.7885-3.2789-5.5642-5.0674-10.135-5.0674-3.3782 0-7.0546.9936-10.632 2.8814-6.5578 3.4776-10.532 9.3398-10.532 14.407 0 1.391.29808 2.7821.9936 4.0738 1.7885 3.2789 5.5642 4.968 10.135 4.968 3.3782 0 7.0546-.89424 10.632-2.7821 6.5578-3.4776 10.532-9.3398 10.532-14.407 0-1.391-.29808-2.7821-.9936-4.0738" stroke-width=".9936"/>
 <path class="Note" d="m649.16 114.87c-1.7885-3.2789-5.5642-5.0674-10.135-5.0674-3.3782 0-7.0546.9936-10.632 2.8814-6.5578 3.4776-10.532 9.3398-10.532 14.407 0 1.391.29808 2.7821.9936 4.0738 1.7885 3.2789 5.5642 4.968 10.135 4.968 3.3782 0 7.0546-.89424 10.632-2.7821 6.5578-3.4776 10.532-9.3398 10.532-14.407 0-1.391-.29808-2.7821-.9936-4.0738" stroke-width=".9936"/>
 <path class="Note" d="m737.11 77.61c-1.7885-3.2789-5.5642-5.0674-10.135-5.0674-3.3782 0-7.0546.9936-10.632 2.8814-6.5578 3.4776-10.532 9.3398-10.532 14.407 0 1.391.29808 2.7821.9936 4.0738 1.7885 3.2789 5.5642 4.968 10.135 4.968 3.3782 0 7.0546-.89424 10.632-2.7821 6.5578-3.4776 10.532-9.3398 10.532-14.407 0-1.391-.29808-2.7821-.9936-4.0738" stroke-width=".9936"/>
 <path class="Note" d="m825.06 77.61c-1.7885-3.2789-5.5642-5.0674-10.135-5.0674-3.3782 0-7.0546.9936-10.632 2.8814-6.5578 3.4776-10.532 9.3398-10.532 14.407 0 1.391.29808 2.7821.9936 4.0738 1.7885 3.2789 5.5642 4.968 10.135 4.968 3.3782 0 7.0546-.89424 10.632-2.7821 6.5578-3.4776 10.532-9.3398 10.532-14.407 0-1.391-.29808-2.7821-.9936-4.0738" stroke-width=".9936"/>
 <path class="Note" d="m949.78 65.19c-1.7885-3.2789-5.5642-5.0674-10.135-5.0674-3.3782 0-7.0546.9936-10.632 2.8814-6.5578 3.4776-10.532 9.3398-10.532 14.407 0 1.391.29808 2.7821.9936 4.0738 1.7885 3.2789 5.5642 4.968 10.135 4.968 3.3782 0 7.0546-.89424 10.632-2.7821 6.5578-3.4776 10.532-9.3398 10.532-14.407 0-1.391-.29808-2.7821-.9936-4.0738" stroke-width=".9936"/>
 <path class="Note" d="m1080 77.61c-1.7885-3.2789-5.5642-5.0674-10.135-5.0674-3.3783 0-7.0546.9936-10.632 2.8814-6.5578 3.4776-10.532 9.3398-10.532 14.407 0 1.391.2981 2.7821.9936 4.0738 1.7885 3.2789 5.5642 4.968 10.135 4.968 3.3783 0 7.0546-.89424 10.632-2.7821 6.5578-3.4776 10.532-9.3398 10.532-14.407 0-1.391-.2981-2.7821-.9936-4.0738" stroke-width=".9936"/>
 <path class="Note" d="m1131.1 65.19c-1.7885-3.2789-5.5642-5.0674-10.135-5.0674-3.3783 0-7.0546.9936-10.632 2.8814-6.5578 3.4776-10.532 9.3398-10.532 14.407 0 1.391.2981 2.7821.9936 4.0738 1.7885 3.2789 5.5642 4.968 10.135 4.968 3.3783 0 7.0546-.89424 10.632-2.7821 6.5578-3.4776 10.532-9.3398 10.532-14.407 0-1.391-.2981-2.7821-.9936-4.0738" stroke-width=".9936"/>
 <path class="Note" d="m1182.1 52.77c-1.7885-3.2789-5.5642-5.0674-10.135-5.0674-3.3783 0-7.0546.9936-10.632 2.8814-6.5578 3.4776-10.532 9.3398-10.532 14.407 0 1.391.2981 2.7821.9936 4.0738 1.7885 3.2789 5.5642 4.968 10.135 4.968 3.3783 0 7.0546-.89424 10.632-2.7821 6.5578-3.4776 10.532-9.3398 10.532-14.407 0-1.391-.2981-2.7821-.9936-4.0738" stroke-width=".9936"/>
 <path class="Note" d="m1263.8 65.19c-1.7885-3.2789-5.5642-5.0674-10.135-5.0674-3.3783 0-7.0546.9936-10.632 2.8814-6.5578 3.4776-10.532 9.3398-10.532 14.407 0 1.391.2981 2.7821.9936 4.0738 1.7885 3.2789 5.5642 4.968 10.135 4.968 3.3783 0 7.0546-.89424 10.632-2.7821 6.5578-3.4776 10.532-9.3398 10.532-14.407 0-1.391-.2981-2.7821-.9936-4.0738" stroke-width=".9936"/>
 <path class="Note" d="m246.69 462.63c-1.7885-3.2789-5.5642-5.0674-10.135-5.0674-3.3782 0-7.0546.9936-10.632 2.8814-6.5578 3.4776-10.532 9.3398-10.532 14.407 0 1.391.29808 2.7821.9936 4.0738 1.7885 3.2789 5.5642 4.968 10.135 4.968 3.3782 0 7.0546-.89424 10.632-2.7821 6.5578-3.4776 10.532-9.3398 10.532-14.407 0-1.391-.29808-2.7821-.9936-4.0738" stroke-width=".9936"/>
 <path class="Note" d="m392.51 475.05c-1.7885-3.2789-5.5642-5.0674-10.135-5.0674-3.3782 0-7.0546.9936-10.632 2.8814-6.5578 3.4776-10.532 9.3398-10.532 14.407 0 1.391.29808 2.7821.9936 4.0738 1.7885 3.2789 5.5642 4.968 10.135 4.968 3.3782 0 7.0546-.89424 10.632-2.7821 6.5578-3.4776 10.532-9.3398 10.532-14.407 0-1.391-.29808-2.7821-.9936-4.0738" stroke-width=".9936"/>
 <path class="Note" d="m483.97 487.47c-1.7885-3.2789-5.5642-5.0674-10.135-5.0674-3.3782 0-7.0546.9936-10.632 2.8814-6.5578 3.4776-10.532 9.3398-10.532 14.407 0 1.391.29808 2.7821.9936 4.0738 1.7885 3.2789 5.5642 4.968 10.135 4.968 3.3782 0 7.0546-.89424 10.632-2.7821 6.5578-3.4776 10.532-9.3398 10.532-14.407 0-1.391-.29808-2.7821-.9936-4.0738" stroke-width=".9936"/>
 <path class="Note" d="m575.43 462.63c-1.7885-3.2789-5.5642-5.0674-10.135-5.0674-3.3782 0-7.0546.9936-10.632 2.8814-6.5578 3.4776-10.532 9.3398-10.532 14.407 0 1.391.29808 2.7821.9936 4.0738 1.7885 3.2789 5.5642 4.968 10.135 4.968 3.3782 0 7.0546-.89424 10.632-2.7821 6.5578-3.4776 10.532-9.3398 10.532-14.407 0-1.391-.29808-2.7821-.9936-4.0738" stroke-width=".9936"/>
 <path class="Note" d="m666.89 388.11c-1.7885-3.2789-5.5642-5.0674-10.135-5.0674-3.3782 0-7.0546.9936-10.632 2.8814-6.5578 3.4776-10.532 9.3398-10.532 14.407 0 1.391.29808 2.7821.9936 4.0738 1.7885 3.2789 5.5642 4.968 10.135 4.968 3.3782 0 7.0546-.89424 10.632-2.7821 6.5578-3.4776 10.532-9.3398 10.532-14.407 0-1.391-.29808-2.7821-.9936-4.0738" stroke-width=".9936"/>
 <path class="Note" d="m758.35 388.11c-1.7885-3.2789-5.5642-5.0674-10.135-5.0674-3.3782 0-7.0546.9936-10.632 2.8814-6.5578 3.4776-10.532 9.3398-10.532 14.407 0 1.391.29808 2.7821.9936 4.0738 1.7885 3.2789 5.5642 4.968 10.135 4.968 3.3782 0 7.0546-.89424 10.632-2.7821 6.5578-3.4776 10.532-9.3398 10.532-14.407 0-1.391-.29808-2.7821-.9936-4.0738" stroke-width=".9936"/>
 <path class="Note" d="m823.41 388.11c-1.7885-3.2789-5.5642-5.0674-10.135-5.0674-3.3782 0-7.0546.9936-10.632 2.8814-6.5578 3.4776-10.532 9.3398-10.532 14.407 0 1.391.29808 2.7821.9936 4.0738 1.7885 3.2789 5.5642 4.968 10.135 4.968 3.3782 0 7.0546-.89424 10.632-2.7821 6.5578-3.4776 10.532-9.3398 10.532-14.407 0-1.391-.29808-2.7821-.9936-4.0738" stroke-width=".9936"/>
 <path class="Note" d="m957.53 400.53c-1.7885-3.2789-5.5642-5.0674-10.135-5.0674-3.3782 0-7.0546.9936-10.632 2.8814-6.5578 3.4776-10.532 9.3398-10.532 14.407 0 1.391.29808 2.7821.9936 4.0738 1.7885 3.2789 5.5642 4.968 10.135 4.968 3.3782 0 7.0546-.89424 10.632-2.7821 6.5578-3.4776 10.532-9.3398 10.532-14.407 0-1.391-.29808-2.7821-.9936-4.0738" stroke-width=".9936"/>
 <path class="Note" d="m1036.7 400.53c-1.7885-3.2789-5.5642-5.0674-10.135-5.0674-3.3783 0-7.0546.9936-10.632 2.8814-6.5578 3.4776-10.532 9.3398-10.532 14.407 0 1.391.2981 2.7821.9936 4.0738 1.7885 3.2789 5.5642 4.968 10.135 4.968 3.3783 0 7.0546-.89424 10.632-2.7821 6.5578-3.4776 10.532-9.3398 10.532-14.407 0-1.391-.2981-2.7821-.9936-4.0738" stroke-width=".9936"/>
 <path class="Note" d="m1116 412.95c-1.7885-3.2789-5.5642-5.0674-10.135-5.0674-3.3783 0-7.0546.9936-10.632 2.8814-6.5578 3.4776-10.532 9.3398-10.532 14.407 0 1.391.2981 2.7821.9936 4.0738 1.7885 3.2789 5.5642 4.968 10.135 4.968 3.3783 0 7.0546-.89424 10.632-2.7821 6.5578-3.4776 10.532-9.3398 10.532-14.407 0-1.391-.2981-2.7821-.9936-4.0738" stroke-width=".9936"/>
 <path class="Note" d="m1195.2 412.95c-1.7885-3.2789-5.5642-5.0674-10.135-5.0674-3.3783 0-7.0546.9936-10.632 2.8814-6.5578 3.4776-10.532 9.3398-10.532 14.407 0 1.391.2981 2.7821.9936 4.0738 1.7885 3.2789 5.5642 4.968 10.135 4.968 3.3783 0 7.0546-.89424 10.632-2.7821 6.5578-3.4776 10.532-9.3398 10.532-14.407 0-1.391-.2981-2.7821-.9936-4.0738" stroke-width=".9936"/>
 <path class="Note" d="m1274.4 425.37c-1.7885-3.2789-5.5642-5.0674-10.135-5.0674-3.3783 0-7.0546.9936-10.632 2.8814-6.5578 3.4776-10.532 9.3398-10.532 14.407 0 1.391.2981 2.7821.9936 4.0738 1.7885 3.2789 5.5642 4.968 10.135 4.968 3.3783 0 7.0546-.89424 10.632-2.7821 6.5578-3.4776 10.532-9.3398 10.532-14.407 0-1.391-.2981-2.7821-.9936-4.0738m-4.2725 6.7565c-1.6891 1.6891-5.0673 3.7757-8.6443 5.7629s-7.1539 3.4776-9.5386 3.9744c-.4968.0994-.9936.19872-1.4904.19872-1.5897 0-2.782-.59616-3.4776-1.8878-.298-.4968-.4968-1.093-.4968-1.6891 0-1.093.6956-2.3846 1.7885-3.4776 1.6891-1.6891 4.968-3.7757 8.545-5.7629 3.5769-1.9872 7.1539-3.4776 9.5385-3.9744.4968-.0994.9936-.19872 1.4904-.19872 1.5898 0 2.8815.59616 3.577 1.8878.2981.4968.3974 1.093.3974 1.6891 0 1.093-.5961 2.2853-1.6891 3.4776" stroke-width=".9936"/>
 <path class="Clef" d="m82.817 104.67c-1.2221-5.3953-3.8452-9.1908-4.6202-10.224-3.1696-4.2427-7.1539-7.0744-11.814-8.4158-3.0901-.8842-6.0709-.9936-8.4754-.81475-1.0333-5.9715-2.0269-11.814-2.9311-17.229 5.4151-6.1306 9.012-11.893 11.277-16.166 3.4478-6.5378 4.5904-11.088 4.6401-11.287 1.709-5.1768 2.0667-12.827.97373-20.985-1.0035-7.5017-3.0802-14.169-5.4151-17.398-1.0234-1.4208-2.0667-2.1462-3.1-2.1462-1.2122 0-3.7061 1.2321-6.5776 3.9843-2.2853 2.1859-5.5344 6.051-8.078 12.023-2.9808 7.0149-3.1895 16.444-2.8417 23.121.37757 7.2235 1.4805 12.877 1.4904 12.927.01987.08933.27821 1.5797.72533 4.1333-.22853.22853-.46699.44712-.71539.68568-1.0333.9936-2.2157 2.1262-3.5869 3.4974-.8545.8546-1.7984 1.7587-2.792 2.7225-8.3959 8.088-21.104 20.329-21.104 39.356 0 4.6699.89424 9.0616 2.6628 13.046 1.5799 3.577 3.8651 6.836 6.7764 9.6876 7.6805 7.5017 18.203 10.691 25.218 10.532 2.9311-.0696 5.5443-.30811 7.919-.75523 1.8183 9.5386 2.951 16.524 2.9907 21.829.03974 6.4683-1.5997 10.413-5.4747 13.165-2.4144 1.7189-5.2065 2.6628-8.2866 2.8119-2.5734.11923-4.819-.34776-6.2398-.75504h-.0099s-.28814-.0795-.29808-.27821c-.0099-.17894.33782-.22862.34776-.22862h.01987c1.9077-.43709 5.4549-1.6592 7.7998-4.9381 1.7885-2.5039 2.6529-7.0944.82469-11.009-1.1029-2.3746-3.5968-5.3057-9.1809-5.7528-2.4741-.19872-4.7295.30792-6.7167 1.5002-1.7984 1.0731-3.2888 2.7026-4.3321 4.6898-2.4443 4.6699-1.9872 10.363 1.1228 14.179 2.9411 3.5968 7.5315 5.892 12.927 6.4682.84456.0895 1.6891.12917 2.5337.12917 4.4016 0 8.7735-1.1923 12.321-3.3882 3.6366-2.5536 5.743-6.5081 6.4187-12.102.55642-4.6104.16891-10.482-1.2221-18.501-.3577-2.0766-.89424-5.0872-1.55-8.8231 5.7132-1.9078 9.8466-5.455 13.592-11.268 3.2689-5.7032 4.2029-11.764 2.7821-18.024m-33.991 26.022c-4.6103-1.2122-9.012-3.6962-12.748-7.1738-1.3016-1.2221-3.1596-3.3782-4.6202-6.7465-1.3612-3.1398-2.017-6.5479-1.9673-10.115.06957-4.66 1.3712-9.4492 3.8651-14.208 2.9013-5.5444 7.4321-11.039 13.453-16.335 1.4407-1.2717 2.802-2.5435 4.0837-3.8154.75514 4.2328 1.5798 8.8927 2.4542 13.742-3.8254 1.2618-8.545 4.3916-11.635 10.005-3.5173 6.528-3.3782 12.013-2.6529 15.47.93398 4.4315 3.4478 8.1674 6.8856 10.244.92405.55632 5.0276 2.6727 6.8558 2.0964.36763-.11923.6359-.33782.77501-.66571.50674-1.1625-.50674-1.7983-2.0568-2.7523-.59616-.36756-1.2619-.78489-1.9872-1.3115-3.2988-2.4741-4.7395-6.8956-3.6763-11.248.57629-2.3846 1.8481-4.5309 3.6763-6.22 1.6593-1.5401 3.6863-2.633 6.051-3.2688 2.0269 11.168 4.0738 22.247 5.7033 30.553.12917.68549.26827 1.3512.39744 2.0169-4.352.92405-8.6741.83472-12.857-.26827m11.248-32.968c10.284-.46699 14.526 6.9254 15.411 11.725.46699 2.5138.45706 6.9254-1.0731 11.108-1.1625 3.1596-3.6068 7.2036-8.7039 9.2505-.06955-.41731-.14904-.84456-.22853-1.2719-1.5301-8.7138-3.4577-19.634-5.4052-30.812m-7.2732-70.486c1.7686-5.7032 4.4911-8.9324 6.4683-10.651 1.7388-1.5103 3.3782-2.2158 4.2924-2.2158.1391 0 .25834.01987.3577.04968.45706.1391.98366.70556 1.4507 1.57 2.2952 4.2624 1.56 10.93.22853 15.341-1.6196 5.3654-4.5209 10.949-13.265 20.498-.16891-1.1029-.32789-2.1462-.47693-3.1198-1.242-8.237-.92405-15.461.94392-21.472" stroke-width=".9936"/>
 <path class="Clef" d="m82.817 452.43c-1.2221-5.3953-3.8452-9.1908-4.6202-10.224-3.1696-4.2427-7.1539-7.0744-11.814-8.4158-3.0901-.88421-6.0709-.9936-8.4754-.81475-1.0333-5.9715-2.0269-11.814-2.9311-17.229 5.4151-6.1306 9.012-11.893 11.277-16.166 3.4478-6.5378 4.5904-11.088 4.6401-11.287 1.709-5.1768 2.0667-12.827.97373-20.985-1.0035-7.5017-3.0802-14.169-5.4151-17.398-1.0234-1.4208-2.0667-2.1462-3.1-2.1462-1.2122 0-3.7061 1.2321-6.5776 3.9843-2.2853 2.1859-5.5344 6.051-8.078 12.023-2.9808 7.0149-3.1895 16.444-2.8417 23.121.37757 7.2235 1.4805 12.877 1.4904 12.927.01987.0893.27821 1.5797.72533 4.1333-.22853.22853-.46699.44712-.71539.68568-1.0333.9936-2.2157 2.1262-3.5869 3.4974-.8545.85459-1.7984 1.7587-2.792 2.7225-8.3959 8.088-21.104 20.329-21.104 39.356 0 4.6699.89424 9.0616 2.6628 13.046 1.5799 3.577 3.8651 6.836 6.7764 9.6876 7.6805 7.5017 18.203 10.691 25.218 10.532 2.9311-.0695 5.5443-.30811 7.919-.75523 1.8183 9.5386 2.951 16.524 2.9907 21.829.03974 6.4683-1.5997 10.413-5.4747 13.165-2.4144 1.7189-5.2065 2.6628-8.2866 2.8119-2.5734.11923-4.819-.34776-6.2398-.75504h-.0099s-.28814-.0795-.29808-.27821c-.0099-.17894.33782-.22862.34776-.22862h.01987c1.9077-.43709 5.4549-1.6592 7.7998-4.9381 1.7885-2.5039 2.6529-7.0944.82469-11.009-1.1029-2.3746-3.5968-5.3057-9.1809-5.7528-2.4741-.19872-4.7295.30792-6.7167 1.5002-1.7984 1.0731-3.2888 2.7026-4.3321 4.6898-2.4443 4.6699-1.9872 10.363 1.1228 14.179 2.9411 3.5968 7.5315 5.892 12.927 6.4682.84456.0895 1.6891.12917 2.5337.12917 4.4016 0 8.7735-1.1923 12.321-3.3882 3.6366-2.5536 5.743-6.5081 6.4187-12.102.55642-4.6104.16891-10.482-1.2221-18.501-.3577-2.0766-.89424-5.0872-1.55-8.8231 5.7132-1.9078 9.8466-5.455 13.592-11.268 3.2689-5.7032 4.2029-11.764 2.7821-18.024m-33.991 26.022c-4.6103-1.2122-9.012-3.6962-12.748-7.1738-1.3016-1.2221-3.1596-3.3782-4.6202-6.7465-1.3612-3.1398-2.017-6.5479-1.9673-10.115.06957-4.66 1.3712-9.4492 3.8651-14.208 2.9013-5.5444 7.4321-11.039 13.453-16.335 1.4407-1.2717 2.802-2.5435 4.0837-3.8154.75514 4.2328 1.5798 8.8927 2.4542 13.742-3.8254 1.2618-8.545 4.3916-11.635 10.005-3.5173 6.528-3.3782 12.013-2.6529 15.47.93398 4.4315 3.4478 8.1674 6.8856 10.244.92405.55632 5.0276 2.6727 6.8558 2.0964.36763-.11923.6359-.33782.77501-.66571.50674-1.1625-.50674-1.7983-2.0568-2.7523-.59616-.36756-1.2619-.78489-1.9872-1.3115-3.2988-2.4741-4.7395-6.8956-3.6763-11.248.57629-2.3846 1.8481-4.5309 3.6763-6.22 1.6593-1.5401 3.6863-2.633 6.051-3.2688 2.0269 11.168 4.0738 22.247 5.7033 30.553.12917.68549.26827 1.3512.39744 2.0169-4.352.92405-8.6741.83472-12.857-.26827m11.248-32.968c10.284-.46699 14.526 6.9254 15.411 11.725.46699 2.5138.45706 6.9254-1.0731 11.108-1.1625 3.1596-3.6068 7.2036-8.7039 9.2505-.06955-.41731-.14904-.84456-.22853-1.2719-1.5301-8.7138-3.4577-19.634-5.4052-30.812m-7.2732-70.486c1.7686-5.7032 4.4911-8.9324 6.4683-10.651 1.7388-1.5103 3.3782-2.2158 4.2924-2.2158.1391 0 .25834.0199.3577.0497.45706.1391.98366.70555 1.4507 1.57 2.2952 4.2624 1.56 10.93.22853 15.341-1.6196 5.3654-4.5209 10.949-13.265 20.498-.16891-1.1029-.32789-2.1462-.47693-3.1198-1.242-8.237-.92405-15.461.94392-21.472" stroke-width=".9936"/>
 <path class="KeySig" d="m153.1 40.549c-.59616-3.875-2.9808-7.5514-8.0482-7.5514-4.968 0-7.8494 3.0802-8.3462 3.6763l.39744-31.895c0-.79488-.59616-1.391-1.391-1.391h-1.1923c-.79488 0-1.391.59616-1.391 1.391l.4968 59.715c0 .79488.59616 1.391 1.391 1.391.19872 0 .59616-.09936.79488-.19872.39744-.19872 6.8558-3.3782 12.221-9.4392 3.7757-4.2725 5.2661-9.1411 5.2661-13.215 0-.89424-.0994-1.6891-.19872-2.484m-6.8558 3.875c0 1.4904-.39744 6.061-2.8814 9.8366-1.6891 2.5834-5.0674 5.2661-6.9552 6.7565l.29808-19.375c.19872-.89424 1.6891-3.7757 5.6635-3.7757 3.577 0 3.875 3.3782 3.875 5.4648v1.093" stroke-width=".9936"/>
 <path class="KeySig" d="m128.26 77.809c-.59616-3.875-2.9808-7.5514-8.0482-7.5514-4.968 0-7.8494 3.0802-8.3462 3.6763l.39744-31.895c0-.79488-.59616-1.391-1.391-1.391h-1.1923c-.79488 0-1.391.59616-1.391 1.391l.4968 59.715c0 .79488.59616 1.391 1.391 1.391.19872 0 .59616-.0994.79488-.19872.39744-.19872 6.8558-3.3782 12.221-9.4392 3.7757-4.2725 5.2661-9.1411 5.2661-13.215 0-.89424-.0994-1.6891-.19872-2.484m-6.8558 3.875c0 1.4904-.39744 6.061-2.8814 9.8366-1.6891 2.5834-5.0674 5.2661-6.9552 6.7565l.29808-19.375c.19872-.89424 1.6891-3.7757 5.6635-3.7757 3.577 0 3.875 3.3782 3.875 5.4648v1.093" stroke-width=".9936"/>
 <path class="KeySig" d="m153.1 388.31c-.59616-3.875-2.9808-7.5514-8.0482-7.5514-4.968 0-7.8494 3.0802-8.3462 3.6763l.39744-31.895c0-.79488-.59616-1.391-1.391-1.391h-1.1923c-.79488 0-1.391.59616-1.391 1.391l.4968 59.715c0 .79488.59616 1.391 1.391 1.391.19872 0 .59616-.0994.79488-.19872.39744-.19872 6.8558-3.3782 12.221-9.4392 3.7757-4.2725 5.2661-9.1411 5.2661-13.215 0-.89424-.0994-1.6891-.19872-2.484m-6.8558 3.875c0 1.4904-.39744 6.061-2.8814 9.8366-1.6891 2.5834-5.0674 5.2661-6.9552 6.7565l.29808-19.375c.19872-.89424 1.6891-3.7757 5.6635-3.7757 3.577 0 3.875 3.3782 3.875 5.4648v1.093" stroke-width=".9936"/>
 <path class="KeySig" d="m128.26 425.57c-.59616-3.875-2.9808-7.5514-8.0482-7.5514-4.968 0-7.8494 3.0802-8.3462 3.6763l.39744-31.895c0-.79488-.59616-1.391-1.391-1.391h-1.1923c-.79488 0-1.391.59616-1.391 1.391l.4968 59.715c0 .79488.59616 1.391 1.391 1.391.19872 0 .59616-.0994.79488-.19872.39744-.19872 6.8558-3.3782 12.221-9.4392 3.7757-4.2725 5.2661-9.1411 5.2661-13.215 0-.89424-.0994-1.6891-.19872-2.484m-6.8558 3.875c0 1.4904-.39744 6.061-2.8814 9.8366-1.6891 2.5834-5.0674 5.2661-6.9552 6.7565l.29808-19.375c.19872-.89424 1.6891-3.7757 5.6635-3.7757 3.577 0 3.875 3.3782 3.875 5.4648v1.093" stroke-width=".9936"/>
 <path class="TimeSig" d="m180.34 73.519h17.07v7.3725h-8.1773c-.7749 0-1.4009.62597-1.4009 1.401v1.8978c0 .77501.62597 1.401 1.4009 1.401h30.056c.77501 0 1.401-.62597 1.401-1.401v-1.8978c0-.77501-.62597-1.401-1.401-1.401h-8.8828v-7.3725h8.8828c.77501 0 1.401-.62597 1.401-1.401v-1.8978c0-.77499-.62597-1.4009-1.401-1.4009h-8.8828v-15.858c0-.53648-.29808-1.0134-.77501-1.2519l-1.2022-.59616c-.52661-.25834-1.1527-.16891-1.5799.22851l-8.9921 8.2668c-.28804.26829-.45695.63594-.45695 1.0334v8.1773h-11.436s11.049-11.953 22.813-27.622c.86443-1.1426.36763-2.1859.17874-2.3747l-2.1561-2.1959c-.26827-.25834-.62597-.40738-.9936-.40738-.59616 0-14.059.01987-14.775 0-.71529-.01987-1.2519.59616-1.3215 1.2122 0 0-.53644 7.3129-3.1198 15.391-2.5834 8.0681-5.5046 13.016-8.1475 16.623 0 0-.53659.9837-.17893 1.7189.34776.7452.97381 1.8282.97381 1.8282s.25829.52661 1.1028.52661" stroke-width=".9936"/>
 <path class="TimeSig" d="m180.34 122.94h17.07v7.3725h-8.1773c-.7749 0-1.4009.62597-1.4009 1.401v1.8978c0 .77501.62597 1.401 1.4009 1.401h30.056c.77501 0 1.401-.62597 1.401-1.401v-1.8978c0-.775-.62597-1.401-1.401-1.401h-8.8828v-7.3725h8.8828c.77501 0 1.401-.62597 1.401-1.401v-1.8978c0-.77498-.62597-1.4009-1.401-1.4009h-8.8828v-15.858c0-.53648-.29808-1.0134-.77501-1.2519l-1.2022-.59616c-.52661-.25834-1.1527-.16892-1.5799.2285l-8.9921 8.2668c-.28804.26829-.45695.63594-.45695 1.0334v8.1773h-11.436s11.049-11.953 22.813-27.622c.86443-1.1426.36763-2.1859.17874-2.3747l-2.1561-2.1959c-.26827-.25834-.62597-.40738-.9936-.40738-.59616 0-14.059.01987-14.775 0-.71529-.01987-1.2519.59616-1.3215 1.2122 0 0-.53644 7.3129-3.1198 15.391-2.5834 8.068-5.5046 13.016-8.1475 16.623 0 0-.53659.9837-.17893 1.7189.34776.7452.97381 1.8282.97381 1.8282s.25829.52661 1.1028.52661" stroke-width=".9936"/>
 <path class="Rest" d="m1337.3 102.45-.1987-.29808c-.099-.0994-.2981-.29808-.5962-.69552l-11.426-14.109c-.298-.29808-.1987-1.093 0-1.4904l10.135-15.301c.099-.19872.1987-.4968.1987-.69552v-.89424c0-.29808-.099-.59616-.2981-.79488l-16.096-21.76s-.7949-1.1923-1.7885-.29808c-.9936.79488-.1987 2.0866-.1987 2.0866l7.5513 10.333c.3975.59616.3975 1.7885 0 2.3846l-10.035 15.301c-.099.19872-.1987.59616-.1987.79488v.89424c0 .29808.099.59616.298.79488l11.128 13.811c-.3975-.09936-1.2917-.29808-2.484-.29808-1.6892 0-3.8751.39744-5.6636 1.9872-2.1859 1.9872-3.3782 4.7693-3.3782 7.2533 0 1.391.2981 2.7821 1.093 3.875 2.0865 3.1795 9.5385 12.619 9.5385 12.619s.8943 1.093 1.7885.39744.6955-1.5898.3974-2.0866c-.298-.4968-3.4776-6.2597-3.4776-6.2597s-.6955-1.391-.6955-3.1795c0-1.2917.3975-2.8814 1.6891-4.1731 1.1924-1.1923 2.5834-1.5898 3.8751-1.5898s2.3846.39744 3.1795.89424l3.875 2.484s1.1924.59616 1.7885-.29808c.4968-.79488.2981-1.1923 0-1.6891" stroke-width=".9936"/>
 <path class="Hook" d="m474.98 51.876c-.0994-.29808-.9936-3.7757-.9936-3.9744-.0994-.39744-.69552-.69552-1.1923-.69552-.69552 0-1.2917.59616-1.2917 1.2917v22.455c0 .4968.39744.89424.79488 1.093 4.1731 1.2917 12.817 6.7565 19.276 17.785 1.7885 3.0802 4.6699 7.2533 4.6699 15.6 0 7.1539-1.093 14.705-2.8814 21.66-.29808 1.093-.59616 2.0866.4968 2.484s1.4904-.39744 1.8878-1.391c3.577-8.7437 4.4712-17.885 4.4712-24.045v-1.8878c-.4968-12.817-7.8494-22.257-7.8494-22.257.29808 0-9.1411-12.221-11.824-16.394-3.6763-5.6635-5.4648-11.327-5.5642-11.724" stroke-width=".9936"/>
 <path class="Hook" d="m562.93 64.296c-.0994-.29808-.9936-3.7757-.9936-3.9744-.0994-.39744-.69552-.69552-1.1923-.69552-.69552 0-1.2917.59616-1.2917 1.2917v22.455c0 .4968.39744.89424.79488 1.093 4.1731 1.2917 12.817 6.7565 19.276 17.785 1.7885 3.0802 4.6699 7.2533 4.6699 15.6 0 7.1539-1.093 14.705-2.8814 21.66-.29808 1.093-.59616 2.0866.4968 2.484s1.4904-.39744 1.8878-1.391c3.577-8.7437 4.4712-17.885 4.4712-24.045v-1.8878c-.4968-12.817-7.8494-22.257-7.8494-22.257.29808 0-9.1411-12.221-11.824-16.394-3.6763-5.6635-5.4648-11.327-5.5642-11.724" stroke-width=".9936"/>
 <path class="Hook" d="m650.89 39.456c-.0994-.29808-.9936-3.7757-.9936-3.9744-.0994-.39744-.69552-.69552-1.1923-.69552-.69552 0-1.2917.59616-1.2917 1.2917v22.455c0 .4968.39744.89424.79488 1.093 4.1731 1.2917 12.817 6.7565 19.276 17.785 1.7885 3.0802 4.6699 7.2533 4.6699 15.6 0 7.1539-1.093 14.705-2.8814 21.66-.29808 1.093-.59616 2.0866.4968 2.484s1.4904-.39744 1.8878-1.391c3.577-8.7437 4.4712-17.885 4.4712-24.045v-1.8878c-.4968-12.817-7.8494-22.257-7.8494-22.257.29808 0-9.1411-12.221-11.824-16.394-3.6763-5.6635-5.4648-11.327-5.5642-11.724" stroke-width=".9936"/>
 <path class="Hook" d="m708.29 173c0-.19872.89424-3.577.9936-3.875.0994-.39744 1.8878-6.061 5.5642-11.724 2.6827-4.1731 12.122-16.394 11.824-16.394 0 0 7.3526-9.4392 7.8494-22.257v-2.2853c0-6.061-.79488-14.606-4.2725-23.25-.39744-.9936-.79488-1.9872-1.8878-1.5898s-.79488 1.5898-.4968 2.6827c1.7885 6.9552 2.7821 14.109 2.7821 21.263 0 8.3462-2.9808 12.519-4.7693 15.6-6.5578 11.029-15.103 16.394-19.276 17.785-.4968.19872-.79488.59616-.79488 1.093v22.455c0 .69552.59616 1.2917 1.2917 1.2917.4968 0 1.093-.39744 1.1923-.79488" stroke-width=".9936"/>
 <path class="Hook" d="m796.24 173c0-.19872.89424-3.577.9936-3.875.0994-.39744 1.8878-6.061 5.5642-11.724 2.6827-4.1731 12.122-16.394 11.824-16.394 0 0 7.3526-9.4392 7.8494-22.257v-2.2853c0-6.061-.79488-14.606-4.2725-23.25-.39744-.9936-.79488-1.9872-1.8878-1.5898s-.79488 1.5898-.4968 2.6827c1.7885 6.9552 2.7821 14.109 2.7821 21.263 0 8.3462-2.9808 12.519-4.7693 15.6-6.5578 11.029-15.103 16.394-19.276 17.785-.4968.19872-.79488.59616-.79488 1.093v22.455c0 .69552.59616 1.2917 1.2917 1.2917.4968 0 1.093-.39744 1.1923-.79488" stroke-width=".9936"/>
 <path class="Hook" d="m1048.7 173.37c0 .67659.321 1.2301 1.4676 1.2301s1.3533-.50476 1.4675-1.2301c0 0 1.5481-10.555 5.3466-16.066 3.7985-5.5105 9.9598-8.6443 14.766-14.767 3.4826-4.4344 4.7285-9.7601 4.8229-14.947.089-4.9412-.8714-9.7264-1.9364-13.525.3318-2.1024.5295-4.5199.5295-7.3526 0-5.6258-2.5715-10.999-4.3977-13.847-.471-.73328-.9737-1.7885-2.02-1.248-1.0462.54042-.5803 1.7467-.2434 2.6827 1.4486 4.0011 2.1273 9.0418 2.2069 11.517.127 3.9615-.1729 7.8286-4.1574 13.777-5.9436 8.8728-13.811 13.811-16.384 14.762-.6737.23241-1.4676.70546-1.4676.95088v38.062m23.35-51.14c.3508 4.7842.4144 9.5624-5.1984 16.371-3.7757 4.5776-9.8467 9.0906-14.302 9.4472l-.099.40847c.063-.32997.1252-.62805.1868-.86543.6518-2.5318 2.477-5.9894 6.367-9.8962 4.8815-4.9025 7.8375-8.0482 10.524-11.544.7934-1.0204 1.9249-2.7774 2.5257-3.9217" stroke-width=".9936"/>
 <path class="Hook" d="m1099.7 160.95c0 .67659.321 1.2301 1.4676 1.2301s1.3533-.50476 1.4675-1.2301c0 0 1.5481-10.555 5.3466-16.066 3.7985-5.5105 9.9598-8.6443 14.766-14.767 3.4826-4.4344 4.7285-9.7601 4.8229-14.947.089-4.9412-.8714-9.7264-1.9364-13.525.3318-2.1025.5295-4.5199.5295-7.3526 0-5.6258-2.5715-10.999-4.3977-13.847-.471-.73328-.9737-1.7885-2.02-1.248-1.0462.54042-.5803 1.7467-.2434 2.6827 1.4486 4.0011 2.1273 9.0418 2.2069 11.517.127 3.9615-.1729 7.8286-4.1574 13.777-5.9436 8.8728-13.811 13.811-16.384 14.762-.6737.23241-1.4676.70546-1.4676.95088v38.062m23.35-51.14c.3508 4.7842.4144 9.5624-5.1984 16.371-3.7757 4.5776-9.8467 9.0906-14.302 9.4472l-.099.40847c.063-.32997.1252-.62805.1868-.86543.6518-2.5318 2.477-5.9894 6.367-9.8962 4.8815-4.9025 7.8375-8.0482 10.524-11.544.7934-1.0204 1.9249-2.7774 2.5257-3.9217" stroke-width=".9936"/>
 <path class="Hook" d="m1153.3 148.16c0-.19872.8942-3.577.9936-3.875.099-.39744 1.8878-6.061 5.5642-11.724 2.6827-4.1731 12.122-16.394 11.824-16.394 0 0 7.3526-9.4392 7.8494-22.257v-2.2853c0-6.061-.7948-14.606-4.2724-23.25-.3975-.9936-.7949-1.9872-1.8879-1.5898-1.0929.39744-.7949 1.5898-.4968 2.6827 1.7885 6.9552 2.7821 14.109 2.7821 21.263 0 8.3462-2.9808 12.519-4.7693 15.6-6.5577 11.029-15.103 16.394-19.276 17.785-.4968.19872-.7949.59616-.7949 1.093v22.455c0 .69552.5962 1.2917 1.2917 1.2917.4968 0 1.0929-.39744 1.1923-.79488" stroke-width=".9936"/>
 <path class="Hook" d="m1235 160.58c0-.19872.8942-3.577.9936-3.875.099-.39744 1.8878-6.061 5.5642-11.724 2.6827-4.1731 12.122-16.394 11.824-16.394 0 0 7.3526-9.4392 7.8494-22.257v-2.2853c0-6.061-.7948-14.606-4.2724-23.25-.3975-.9936-.7949-1.9872-1.8879-1.5898-1.0929.39744-.7949 1.5898-.4968 2.6827 1.7885 6.9552 2.7821 14.109 2.7821 21.263 0 8.3462-2.9808 12.519-4.7693 15.6-6.5577 11.029-15.103 16.394-19.276 17.785-.4968.19872-.7949.59616-.7949 1.093v22.455c0 .69552.5962 1.2917 1.2917 1.2917.4968 0 1.0929-.39744 1.1923-.79488" stroke-width=".9936"/>
 <path class="Hook" d="m394.24 399.64c-.0994-.29808-.9936-3.7757-.9936-3.9744-.0994-.39744-.69552-.69552-1.1923-.69552-.69552 0-1.2917.59616-1.2917 1.2917v22.455c0 .4968.39744.89424.79488 1.093 4.1731 1.2917 12.817 6.7565 19.276 17.785 1.7885 3.0802 4.6699 7.2533 4.6699 15.6 0 7.1539-1.093 14.705-2.8814 21.66-.29808 1.093-.59616 2.0866.4968 2.484s1.4904-.39744 1.8878-1.391c3.577-8.7437 4.4712-17.885 4.4712-24.045v-1.8878c-.4968-12.817-7.8494-22.257-7.8494-22.257.29808 0-9.1411-12.221-11.824-16.394-3.6763-5.6635-5.4648-11.327-5.5642-11.724" stroke-width=".9936"/>
 <path class="Hook" d="m485.7 412.06c-.0994-.29808-.9936-3.7757-.9936-3.9744-.0994-.39744-.69552-.69552-1.1923-.69552-.69552 0-1.2917.59616-1.2917 1.2917v22.455c0 .4968.39744.89424.79488 1.093 4.1731 1.2917 12.817 6.7565 19.276 17.785 1.7885 3.0802 4.6699 7.2533 4.6699 15.6 0 7.1539-1.093 14.705-2.8814 21.66-.29808 1.093-.59616 2.0866.4968 2.484s1.4904-.39744 1.8878-1.391c3.577-8.7437 4.4712-17.885 4.4712-24.045v-1.8878c-.4968-12.817-7.8494-22.257-7.8494-22.257.29808 0-9.1411-12.221-11.824-16.394-3.6763-5.6635-5.4648-11.327-5.5642-11.724" stroke-width=".9936"/>
 <path class="Hook" d="m577.16 387.22c-.0994-.29808-.9936-3.7757-.9936-3.9744-.0994-.39744-.69552-.69552-1.1923-.69552-.69552 0-1.2917.59616-1.2917 1.2917v22.455c0 .4968.39744.89424.79488 1.093 4.1731 1.2917 12.817 6.7565 19.276 17.785 1.7885 3.0802 4.6699 7.2533 4.6699 15.6 0 7.1539-1.093 14.705-2.8814 21.66-.29808 1.093-.59616 2.0866.4968 2.484s1.4904-.39744 1.8878-1.391c3.577-8.7437 4.4712-17.885 4.4712-24.045v-1.8878c-.4968-12.817-7.8494-22.257-7.8494-22.257.29808 0-9.1411-12.221-11.824-16.394-3.6763-5.6635-5.4648-11.327-5.5642-11.724" stroke-width=".9936"/>
 <path class="Hook" d="m668.62 325.12c-.0994-.29808-.9936-3.7757-.9936-3.9744-.0994-.39744-.69552-.69552-1.1923-.69552-.69552 0-1.2917.59616-1.2917 1.2917v22.455c0 .4968.39744.89424.79488 1.093 4.1731 1.2917 12.817 6.7565 19.276 17.785 1.7885 3.0802 4.6699 7.2533 4.6699 15.6 0 7.1539-1.093 14.705-2.8814 21.66-.29808 1.093-.59616 2.0866.4968 2.484s1.4904-.39744 1.8878-1.391c3.577-8.7437 4.4712-17.885 4.4712-24.045v-1.8878c-.4968-12.817-7.8494-22.257-7.8494-22.257.29808 0-9.1411-12.221-11.824-16.394-3.6763-5.6635-5.4648-11.327-5.5642-11.724" stroke-width=".9936"/>
 <path class="Hook" d="m784.42 354.43c-.0994-5.1667-1.2917-10.532-4.7693-15.003-4.7693-6.1603-11.029-9.2405-14.805-14.705s-5.3654-16.096-5.3654-16.096c-.0994-.69552-.29808-1.1923-1.4904-1.1923s-1.391.4968-1.391 1.1923v38.055c0 .19872.69552.79488 1.391.9936 2.5834.9936 10.433 5.8622 16.394 14.705 3.577 5.4648 4.1731 9.1411 4.1731 12.718v1.093c-.0994 2.484-.69552 7.5514-2.1859 11.526-.29808.89424-.79488 2.1859.19872 2.6827s1.5898-.59616 2.0866-1.2917c1.7885-2.8814 4.3718-8.1475 4.3718-13.811 0-2.7821-.19872-5.2661-.4968-7.3526.9936-3.577 1.8878-8.0482 1.8878-12.718v-.79488m-7.0546 1.391c-2.6827-3.4776-5.6635-6.6571-10.532-11.526-3.875-3.875-5.6635-7.2533-6.359-9.8366-.0994-.19872-.0994-.59616-.19872-.89424l.0994.39744c4.4712.39744 10.532 4.8686 14.308 9.4392 4.4712 5.3654 5.3654 9.5386 5.3654 13.414 0 .9936 0 1.8878-.0994 2.8814-.59616-1.093-1.7885-2.8814-2.5834-3.875" stroke-width=".9936"/>
 <path class="Hook" d="m849.49 354.43c-.0994-5.1667-1.2917-10.532-4.7693-15.003-4.7693-6.1603-11.029-9.2405-14.805-14.705s-5.3654-16.096-5.3654-16.096c-.0994-.69552-.29808-1.1923-1.4904-1.1923s-1.391.4968-1.391 1.1923v38.055c0 .19872.69552.79488 1.391.9936 2.5834.9936 10.433 5.8622 16.394 14.705 3.577 5.4648 4.1731 9.1411 4.1731 12.718v1.093c-.0994 2.484-.69552 7.5514-2.1859 11.526-.29808.89424-.79488 2.1859.19872 2.6827s1.5898-.59616 2.0866-1.2917c1.7885-2.8814 4.3718-8.1475 4.3718-13.811 0-2.7821-.19872-5.2661-.4968-7.3526.9936-3.577 1.8878-8.0482 1.8878-12.718v-.79488m-7.0546 1.391c-2.6827-3.4776-5.6635-6.6571-10.532-11.526-3.875-3.875-5.6635-7.2533-6.359-9.8366-.0994-.19872-.0994-.59616-.19872-.89424l.0994.39744c4.4712.39744 10.532 4.8686 14.308 9.4392 4.4712 5.3654 5.3654 9.5386 5.3654 13.414 0 .9936 0 1.8878-.0994 2.8814-.59616-1.093-1.7885-2.8814-2.5834-3.875" stroke-width=".9936"/>
 <path class="Hook" d="m959.27 337.54c-.0994-.29808-.9936-3.7757-.9936-3.9744-.0994-.39744-.69552-.69552-1.1923-.69552-.69552 0-1.2917.59616-1.2917 1.2917v22.455c0 .4968.39744.89424.79488 1.093 4.1731 1.2917 12.817 6.7565 19.276 17.785 1.7885 3.0802 4.6699 7.2533 4.6699 15.6 0 7.1539-1.093 14.705-2.8814 21.66-.29808 1.093-.59616 2.0866.4968 2.484s1.4904-.39744 1.8878-1.391c3.577-8.7437 4.4712-17.885 4.4712-24.045v-1.8878c-.4968-12.817-7.8494-22.257-7.8494-22.257.29808 0-9.1411-12.221-11.824-16.394-3.6763-5.6635-5.4648-11.327-5.5642-11.724" stroke-width=".9936"/>
 <path class="Hook" d="m1038.5 337.54c-.099-.29808-.9936-3.7757-.9936-3.9744-.099-.39744-.6955-.69552-1.1923-.69552-.6955 0-1.2917.59616-1.2917 1.2917v22.455c0 .4968.3974.89424.7949 1.093 4.1731 1.2917 12.817 6.7565 19.276 17.785 1.7885 3.0802 4.6699 7.2533 4.6699 15.6 0 7.1539-1.0929 14.705-2.8814 21.66-.2981 1.093-.5962 2.0866.4968 2.484s1.4904-.39744 1.8878-1.391c3.577-8.7437 4.4712-17.885 4.4712-24.045v-1.8878c-.4968-12.817-7.8494-22.257-7.8494-22.257.2981 0-9.1411-12.221-11.824-16.394-3.6764-5.6635-5.4648-11.327-5.5642-11.724" stroke-width=".9936"/>
 <path class="Hook" d="m1117.7 349.96c-.099-.29808-.9936-3.7757-.9936-3.9744-.099-.39744-.6955-.69552-1.1923-.69552-.6955 0-1.2917.59616-1.2917 1.2917v22.455c0 .4968.3974.89424.7949 1.093 4.1731 1.2917 12.817 6.7565 19.276 17.785 1.7885 3.0802 4.6699 7.2533 4.6699 15.6 0 7.1539-1.0929 14.705-2.8814 21.66-.2981 1.093-.5962 2.0866.4968 2.484s1.4904-.39744 1.8878-1.391c3.577-8.7437 4.4712-17.885 4.4712-24.045v-1.8878c-.4968-12.817-7.8494-22.257-7.8494-22.257.2981 0-9.1411-12.221-11.824-16.394-3.6764-5.6635-5.4648-11.327-5.5642-11.724" stroke-width=".9936"/>
 <path class="Hook" d="m1196.9 349.96c-.099-.29808-.9936-3.7757-.9936-3.9744-.099-.39744-.6955-.69552-1.1923-.69552-.6955 0-1.2917.59616-1.2917 1.2917v22.455c0 .4968.3974.89424.7949 1.093 4.1731 1.2917 12.817 6.7565 19.276 17.785 1.7885 3.0802 4.6699 7.2533 4.6699 15.6 0 7.1539-1.0929 14.705-2.8814 21.66-.2981 1.093-.5962 2.0866.4968 2.484s1.4904-.39744 1.8878-1.391c3.577-8.7437 4.4712-17.885 4.4712-24.045v-1.8878c-.4968-12.817-7.8494-22.257-7.8494-22.257.2981 0-9.1411-12.221-11.824-16.394-3.6764-5.6635-5.4648-11.327-5.5642-11.724" stroke-width=".9936"/>
 <path class="NoteDot" d="m260.1 495.52c0 2.7438 2.2242 4.968 4.968 4.968s4.968-2.2242 4.968-4.968c0-2.7438-2.2242-4.968-4.968-4.968s-4.968 2.2242-4.968 4.968" stroke-width=".9936"/>
 <path class="NoteDot" d="m315.06 122.92c0 2.7438 2.2242 4.968 4.968 4.968s4.968-2.2242 4.968-4.968c0-2.7438-2.2242-4.968-4.968-4.968s-4.968 2.2242-4.968 4.968" stroke-width=".9936"/>
 <path class="NoteDot" d="m963.18 73.237c0 2.7438 2.2242 4.968 4.968 4.968s4.968-2.2242 4.968-4.968c0-2.7438-2.2242-4.968-4.968-4.968s-4.968 2.2242-4.968 4.968" stroke-width=".9936"/>
 <path class="NoteDot" d="m260.1 470.68c0 2.7438 2.2242 4.968 4.968 4.968s4.968-2.2242 4.968-4.968c0-2.7438-2.2242-4.968-4.968-4.968s-4.968 2.2242-4.968 4.968" stroke-width=".9936"/>
 <path class="NoteDot" d="m1397.6 396.99c0 2.7438 2.2242 4.968 4.968 4.968 2.7437 0 4.968-2.2242 4.968-4.968 0-2.7438-2.2243-4.968-4.968-4.968-2.7438 0-4.968 2.2242-4.968 4.968" stroke-width=".9936"/>
 <path class="NoteDot" d="m1397.6 420.78c0 2.7438 2.2242 4.968 4.9679 4.968 2.7438 0 4.9681-2.2242 4.9681-4.968 0-2.7438-2.2243-4.968-4.9681-4.968-2.7437 0-4.9679 2.2242-4.9679 4.968" stroke-width=".9936"/>
 <path class="NoteDot" d="m1397.6 445.72c0 2.7438 2.2243 4.968 4.968 4.968 2.7438 0 4.968-2.2242 4.968-4.968 0-2.7438-2.2242-4.968-4.968-4.968-2.7437 0-4.968 2.2242-4.968 4.968" stroke-width=".9936"/>
 <path class="NoteDot" d="m1397.6 470.13c0 2.7438 2.2243 4.968 4.9681 4.968 2.7437 0 4.9679-2.2242 4.9679-4.968 0-2.7438-2.2242-4.968-4.9679-4.968-2.7438 0-4.9681 2.2242-4.9681 4.968" stroke-width=".9936"/>
</svg>
