<?xml version="1.0" encoding="utf-8"?>
<svg xmlns="http://www.w3.org/2000/svg" version="1.2" viewBox="0 0 1449 184">
 <title>A single line of musical notation representing a phrase of melody.</title>
 <polyline class="StaffLines" points="0 33.984 1449 33.984" fill="none" stroke="#000" stroke-linejoin="bevel" stroke-width="2.34"/>
 <polyline class="StaffLines" points="0 55.224 1449 55.224" fill="none" stroke="#000" stroke-linejoin="bevel" stroke-width="2.34"/>
 <polyline class="StaffLines" points="0 76.464 1449 76.464" fill="none" stroke="#000" stroke-linejoin="bevel" stroke-width="2.34"/>
 <polyline class="StaffLines" points="0 97.704 1449 97.704" fill="none" stroke="#000" stroke-linejoin="bevel" stroke-width="2.34"/>
 <polyline class="StaffLines" points="0 118.94 1449 118.94" fill="none" stroke="#000" stroke-linejoin="bevel" stroke-width="2.34"/>
 <polyline class="BarLine" points="295.24 32.816 295.24 120.11" fill="none" stroke="#000" stroke-linejoin="bevel" stroke-width="3.82"/>
 <polyline class="BarLine" points="997.61 32.816 997.61 120.11" fill="none" stroke="#000" stroke-linejoin="bevel" stroke-width="3.82"/>
 <polyline class="LedgerLine" points="212.89 140.18 255.36 140.18" fill="none" stroke="#000" stroke-linejoin="bevel" stroke-width="3.4"/>
 <polyline class="LedgerLine" points="324.76 140.18 367.24 140.18" fill="none" stroke="#000" stroke-linejoin="bevel" stroke-width="3.4"/>
 <polyline class="LedgerLine" points="424.47 161.42 466.95 161.42" fill="none" stroke="#000" stroke-linejoin="bevel" stroke-width="3.4"/>
 <polyline class="LedgerLine" points="424.47 140.18 466.95 140.18" fill="none" stroke="#000" stroke-linejoin="bevel" stroke-width="3.4"/>
 <polyline class="LedgerLine" points="584.01 140.18 626.49 140.18" fill="none" stroke="#000" stroke-linejoin="bevel" stroke-width="3.4"/>
 <polyline class="LedgerLine" points="683.73 140.18 726.2 140.18" fill="none" stroke="#000" stroke-linejoin="bevel" stroke-width="3.4"/>
 <polyline class="Stem" points="912.13 111.18 912.13 182.66" fill="none" stroke="#000" stroke-linejoin="bevel" stroke-width="2.34"/>
 <polyline class="Stem" points="246.76 137.46 246.76 18.054" fill="none" stroke="#000" stroke-linejoin="bevel" stroke-width="2.34"/>
 <polyline class="Stem" points="358.63 137.46 358.63 18.054" fill="none" stroke="#000" stroke-linejoin="bevel" stroke-width="2.34"/>
 <polyline class="Stem" points="458.34 158.7 458.34 65.844" fill="none" stroke="#000" stroke-linejoin="bevel" stroke-width="2.34"/>
 <polyline class="Stem" points="617.88 148.08 617.88 55.224" fill="none" stroke="#000" stroke-linejoin="bevel" stroke-width="2.34"/>
 <polyline class="Stem" points="717.6 137.46 717.6 33.984" fill="none" stroke="#000" stroke-linejoin="bevel" stroke-width="2.34"/>
 <polyline class="Stem" points="912.13 94.985 912.13 26.019" fill="none" stroke="#000" stroke-linejoin="bevel" stroke-width="2.34"/>
 <polyline class="Stem" points="1053.6 105.61 1053.6 12.744" fill="none" stroke="#000" stroke-linejoin="bevel" stroke-width="2.34"/>
 <polyline class="Stem" points="1207 105.61 1207 12.744" fill="none" stroke="#000" stroke-linejoin="bevel" stroke-width="2.34"/>
 <polyline class="Stem" points="1267.1 105.61 1267.1 18.054" fill="none" stroke="#000" stroke-linejoin="bevel" stroke-width="2.34"/>
 <path class="Note" d="m937.73 101.44c-1.5293-2.8037-4.7578-4.333-8.6659-4.333-2.8886 0-6.0322.8496-9.0907 2.4638-5.6074 2.9736-9.0058 7.9862-9.0058 12.319 0 1.1894.25488 2.3789.8496 3.4834 1.5293 2.8037 4.7578 4.248 8.6659 4.248 2.8886 0 6.0322-.76464 9.0907-2.3789 5.6074-2.9736 9.0058-7.9862 9.0058-12.319 0-1.1894-.25488-2.3789-.8496-3.4834" stroke-width=".8496"/>
 <path class="Note" d="m247.09 133.3c-1.5293-2.8037-4.7578-4.333-8.6659-4.333-2.8886 0-6.0322.8496-9.0907 2.4638-5.6074 2.9736-9.0058 7.9862-9.0058 12.319 0 1.1894.25488 2.3789.8496 3.4834 1.5293 2.8037 4.7578 4.248 8.6659 4.248 2.8886 0 6.0322-.76464 9.0907-2.3789 5.6074-2.9736 9.0058-7.9862 9.0058-12.319 0-1.1894-.25488-2.3789-.8496-3.4834" stroke-width=".8496"/>
 <path class="Note" d="m247.09 101.44c-1.5293-2.8037-4.7578-4.333-8.6659-4.333-2.8886 0-6.0322.8496-9.0907 2.4638-5.6074 2.9736-9.0058 7.9862-9.0058 12.319 0 1.1894.25488 2.3789.8496 3.4834 1.5293 2.8037 4.7578 4.248 8.6659 4.248 2.8886 0 6.0322-.76464 9.0907-2.3789 5.6074-2.9736 9.0058-7.9862 9.0058-12.319 0-1.1894-.25488-2.3789-.8496-3.4834" stroke-width=".8496"/>
 <path class="Note" d="m247.09 80.202c-1.5293-2.8037-4.7578-4.333-8.6659-4.333-2.8886 0-6.0322.8496-9.0907 2.4638-5.6074 2.9736-9.0058 7.9862-9.0058 12.319 0 1.1894.25488 2.3789.8496 3.4834 1.5293 2.8037 4.7578 4.248 8.6659 4.248 2.8886 0 6.0322-.76464 9.0907-2.3789 5.6074-2.9736 9.0058-7.9862 9.0058-12.319 0-1.1894-.25488-2.3789-.8496-3.4834" stroke-width=".8496"/>
 <path class="Note" d="m358.96 133.3c-1.5293-2.8037-4.7578-4.333-8.6659-4.333-2.8886 0-6.0322.8496-9.0907 2.4638-5.6074 2.9736-9.0058 7.9862-9.0058 12.319 0 1.1894.25488 2.3789.8496 3.4834 1.5293 2.8037 4.7578 4.248 8.6659 4.248 2.8886 0 6.0322-.76464 9.0907-2.3789 5.6074-2.9736 9.0058-7.9862 9.0058-12.319 0-1.1894-.25488-2.3789-.8496-3.4834" stroke-width=".8496"/>
 <path class="Note" d="m358.96 101.44c-1.5293-2.8037-4.7578-4.333-8.6659-4.333-2.8886 0-6.0322.8496-9.0907 2.4638-5.6074 2.9736-9.0058 7.9862-9.0058 12.319 0 1.1894.25488 2.3789.8496 3.4834 1.5293 2.8037 4.7578 4.248 8.6659 4.248 2.8886 0 6.0322-.76464 9.0907-2.3789 5.6074-2.9736 9.0058-7.9862 9.0058-12.319 0-1.1894-.25488-2.3789-.8496-3.4834" stroke-width=".8496"/>
 <path class="Note" d="m358.96 80.202c-1.5293-2.8037-4.7578-4.333-8.6659-4.333-2.8886 0-6.0322.8496-9.0907 2.4638-5.6074 2.9736-9.0058 7.9862-9.0058 12.319 0 1.1894.25488 2.3789.8496 3.4834 1.5293 2.8037 4.7578 4.248 8.6659 4.248 2.8886 0 6.0322-.76464 9.0907-2.3789 5.6074-2.9736 9.0058-7.9862 9.0058-12.319 0-1.1894-.25488-2.3789-.8496-3.4834" stroke-width=".8496"/>
 <path class="Note" d="m458.67 154.54c-1.5293-2.8037-4.7578-4.333-8.6659-4.333-2.8886 0-6.0322.8496-9.0907 2.4638-5.6074 2.9736-9.0058 7.9862-9.0058 12.319 0 1.1894.25488 2.3789.8496 3.4834 1.5293 2.8037 4.7578 4.248 8.6659 4.248 2.8886 0 6.0322-.76464 9.0907-2.3789 5.6074-2.9736 9.0058-7.9862 9.0058-12.319 0-1.1894-.25488-2.3789-.8496-3.4834" stroke-width=".8496"/>
 <path class="Note" d="m458.67 133.3c-1.5293-2.8037-4.7578-4.333-8.6659-4.333-2.8886 0-6.0322.8496-9.0907 2.4638-5.6074 2.9736-9.0058 7.9862-9.0058 12.319 0 1.1894.25488 2.3789.8496 3.4834 1.5293 2.8037 4.7578 4.248 8.6659 4.248 2.8886 0 6.0322-.76464 9.0907-2.3789 5.6074-2.9736 9.0058-7.9862 9.0058-12.319 0-1.1894-.25488-2.3789-.8496-3.4834" stroke-width=".8496"/>
 <path class="Note" d="m618.21 143.92c-1.5293-2.8037-4.7578-4.333-8.6659-4.333-2.8886 0-6.0322.8496-9.0907 2.4638-5.6074 2.9736-9.0058 7.9862-9.0058 12.319 0 1.1894.25488 2.3789.8496 3.4834 1.5293 2.8037 4.7578 4.248 8.6659 4.248 2.8886 0 6.0322-.76464 9.0907-2.3789 5.6074-2.9736 9.0058-7.9862 9.0058-12.319 0-1.1894-.25488-2.3789-.8496-3.4834" stroke-width=".8496"/>
 <path class="Note" d="m618.21 122.68c-1.5293-2.8037-4.7578-4.333-8.6659-4.333-2.8886 0-6.0322.8496-9.0907 2.4638-5.6074 2.9736-9.0058 7.9862-9.0058 12.319 0 1.1894.25488 2.3789.8496 3.4834 1.5293 2.8037 4.7578 4.248 8.6659 4.248 2.8886 0 6.0322-.76464 9.0907-2.3789 5.6074-2.9736 9.0058-7.9862 9.0058-12.319 0-1.1894-.25488-2.3789-.8496-3.4834" stroke-width=".8496"/>
 <path class="Note" d="m717.92 133.3c-1.5293-2.8037-4.7578-4.333-8.6659-4.333-2.8886 0-6.0322.8496-9.0907 2.4638-5.6074 2.9736-9.0058 7.9862-9.0058 12.319 0 1.1894.25488 2.3789.8496 3.4834 1.5293 2.8037 4.7578 4.248 8.6659 4.248 2.8886 0 6.0322-.76464 9.0907-2.3789 5.6074-2.9736 9.0058-7.9862 9.0058-12.319 0-1.1894-.25488-2.3789-.8496-3.4834" stroke-width=".8496"/>
 <path class="Note" d="m717.92 101.44c-1.5293-2.8037-4.7578-4.333-8.6659-4.333-2.8886 0-6.0322.8496-9.0907 2.4638-5.6074 2.9736-9.0058 7.9862-9.0058 12.319 0 1.1894.25488 2.3789.8496 3.4834 1.5293 2.8037 4.7578 4.248 8.6659 4.248 2.8886 0 6.0322-.76464 9.0907-2.3789 5.6074-2.9736 9.0058-7.9862 9.0058-12.319 0-1.1894-.25488-2.3789-.8496-3.4834" stroke-width=".8496"/>
 <path class="Note" d="m912.46 90.822c-1.5293-2.8037-4.7578-4.333-8.6659-4.333-2.8886 0-6.0322.8496-9.0907 2.4638-5.6074 2.9736-9.0058 7.9862-9.0058 12.319 0 1.1894.25488 2.3789.8496 3.4834 1.5293 2.8037 4.7578 4.248 8.6659 4.248 2.8886 0 6.0322-.76464 9.0907-2.3789 5.6074-2.9736 9.0058-7.9862 9.0058-12.319 0-1.1894-.25488-2.3789-.8496-3.4834" stroke-width=".8496"/>
 <path class="Note" d="m1053.9 101.44c-1.5293-2.8037-4.7578-4.333-8.6659-4.333-2.8887 0-6.0322.8496-9.0907 2.4638-5.6074 2.9736-9.0058 7.9862-9.0058 12.319 0 1.1894.2549 2.3789.8496 3.4834 1.5293 2.8037 4.7578 4.248 8.6659 4.248 2.8887 0 6.0322-.76464 9.0907-2.3789 5.6074-2.9736 9.0058-7.9862 9.0058-12.319 0-1.1894-.2549-2.3789-.8496-3.4834" stroke-width=".8496"/>
 <path class="Note" d="m1053.9 80.202c-1.5293-2.8037-4.7578-4.333-8.6659-4.333-2.8887 0-6.0322.8496-9.0907 2.4638-5.6074 2.9736-9.0058 7.9862-9.0058 12.319 0 1.1894.2549 2.3789.8496 3.4834 1.5293 2.8037 4.7578 4.248 8.6659 4.248 2.8887 0 6.0322-.76464 9.0907-2.3789 5.6074-2.9736 9.0058-7.9862 9.0058-12.319 0-1.1894-.2549-2.3789-.8496-3.4834" stroke-width=".8496"/>
 <path class="Note" d="m1207.3 101.44c-1.5293-2.8037-4.7578-4.333-8.6659-4.333-2.8887 0-6.0322.8496-9.0907 2.4638-5.6074 2.9736-9.0058 7.9862-9.0058 12.319 0 1.1894.2549 2.3789.8496 3.4834 1.5293 2.8037 4.7578 4.248 8.6659 4.248 2.8887 0 6.0322-.76464 9.0907-2.3789 5.6074-2.9736 9.0058-7.9862 9.0058-12.319 0-1.1894-.2549-2.3789-.8496-3.4834" stroke-width=".8496"/>
 <path class="Note" d="m1207.3 80.202c-1.5293-2.8037-4.7578-4.333-8.6659-4.333-2.8887 0-6.0322.8496-9.0907 2.4638-5.6074 2.9736-9.0058 7.9862-9.0058 12.319 0 1.1894.2549 2.3789.8496 3.4834 1.5293 2.8037 4.7578 4.248 8.6659 4.248 2.8887 0 6.0322-.76464 9.0907-2.3789 5.6074-2.9736 9.0058-7.9862 9.0058-12.319 0-1.1894-.2549-2.3789-.8496-3.4834" stroke-width=".8496"/>
 <path class="Note" d="m1267.5 101.44c-1.5293-2.8037-4.7578-4.333-8.6659-4.333-2.8887 0-6.0322.8496-9.0907 2.4638-5.6074 2.9736-9.0058 7.9862-9.0058 12.319 0 1.1894.2549 2.3789.8496 3.4834 1.5293 2.8037 4.7578 4.248 8.6659 4.248 2.8887 0 6.0322-.76464 9.0907-2.3789 5.6074-2.9736 9.0058-7.9862 9.0058-12.319 0-1.1894-.2549-2.3789-.8496-3.4834m-3.6533 5.7773c-1.4443 1.4443-4.3329 3.2285-7.3915 4.9277s-6.1171 2.9736-8.1562 3.3984c-.4248.085-.8496.16992-1.2744.16992-1.3593 0-2.3788-.50976-2.9736-1.6142-.2548-.4248-.4248-.93456-.4248-1.4443 0-.93456.5948-2.039 1.5293-2.9736 1.4443-1.4443 4.248-3.2285 7.3066-4.9277 3.0585-1.6992 6.1171-2.9736 8.1561-3.3984.4248-.085.8496-.16992 1.2744-.16992 1.3594 0 2.4639.50976 3.0586 1.6142.2549.4248.3398.93456.3398 1.4443 0 .93456-.5097 1.9541-1.4443 2.9736" stroke-width=".8496"/>
 <path class="Note" d="m1267.5 80.202c-1.5293-2.8037-4.7578-4.333-8.6659-4.333-2.8887 0-6.0322.8496-9.0907 2.4638-5.6074 2.9736-9.0058 7.9862-9.0058 12.319 0 1.1894.2549 2.3789.8496 3.4834 1.5293 2.8037 4.7578 4.248 8.6659 4.248 2.8887 0 6.0322-.76464 9.0907-2.3789 5.6074-2.9736 9.0058-7.9862 9.0058-12.319 0-1.1894-.2549-2.3789-.8496-3.4834m-3.6533 5.7773c-1.4443 1.4443-4.3329 3.2285-7.3915 4.9277s-6.1171 2.9736-8.1562 3.3984c-.4248.08496-.8496.16992-1.2744.16992-1.3593 0-2.3788-.50976-2.9736-1.6142-.2548-.4248-.4248-.93456-.4248-1.4443 0-.93456.5948-2.039 1.5293-2.9736 1.4443-1.4443 4.248-3.2285 7.3066-4.9277 3.0585-1.6992 6.1171-2.9736 8.1561-3.3984.4248-.08496.8496-.16992 1.2744-.16992 1.3594 0 2.4639.50976 3.0586 1.6142.2549.4248.3398.93456.3398 1.4443 0 .93456-.5097 1.9541-1.4443 2.9736" stroke-width=".8496"/>
 <path class="Clef" d="m70.814 92.717c-1.045-4.6134-3.288-7.8588-3.9506-8.7425-2.7102-3.6278-6.1171-6.0492-10.102-7.1961-2.6423-.75606-5.1911-.8496-7.2471-.69667-.88358-5.1061-1.7332-10.102-2.5063-14.732 4.6303-5.2421 7.7059-10.17 9.643-13.823 2.9481-5.5903 3.9252-9.4815 3.9676-9.6514 1.4613-4.4265 1.7672-10.968.83261-17.944-.8581-6.4145-2.6338-12.115-4.6303-14.877-.87509-1.2149-1.7672-1.8351-2.6508-1.8351-1.0365 0-3.169 1.0535-5.6244 3.4069-1.9541 1.8691-4.7323 5.1741-6.9072 10.28-2.5488 5.9983-2.7272 14.061-2.4299 19.77.32285 6.1766 1.2659 11.011 1.2744 11.053.01699.07638.23789 1.3508.62021 3.5343-.19541.19541-.39931.38232-.61171.58631-.88358.8496-1.8946 1.8181-3.0671 2.9905-.73066.73074-1.5378 1.5038-2.3874 2.3279-7.1791 6.9158-18.046 17.383-18.046 33.653 0 3.9931.76464 7.7484 2.2769 11.155 1.3509 3.0586 3.305 5.8453 5.7943 8.2836 6.5674 6.4145 15.565 9.1416 21.563 9.0058 2.5063-.0595 4.7408-.26346 6.7713-.64578 1.5548 8.1562 2.5233 14.129 2.5573 18.666.03398 5.5309-1.3679 8.9038-4.6813 11.257-2.0645 1.4698-4.4519 2.2769-7.0857 2.4044-2.2005.10195-4.1206-.29736-5.3355-.64561h-.0085s-.24638-.068-.25488-.23789c-.0085-.15301.28886-.19549.29736-.19549h.01699c1.6312-.37374 4.6643-1.4188 6.6694-4.2224 1.5293-2.141 2.2684-6.0662.70517-9.4136-.94306-2.0305-3.0756-4.5368-7.8503-4.9191-2.1155-.16992-4.0441.26329-5.7433 1.2828-1.5378.91757-2.8122 2.3109-3.7043 4.0101-2.09 3.9931-1.6992 8.8613.96005 12.124 2.5148 3.0756 6.44 5.038 11.053 5.5308.72216.0766 1.4443.11045 2.1665.11045 3.7637 0 7.502-1.0195 10.535-2.8971 3.1095-2.1835 4.9107-5.5649 5.4884-10.348.47578-3.9422.14443-8.9633-1.045-15.82-.30586-1.7757-.76464-4.35-1.3254-7.5444 4.8852-1.6313 8.4195-4.6644 11.623-9.6346 2.7952-4.8766 3.5938-10.059 2.3789-15.412m-29.065 22.251c-3.9421-1.0365-7.7059-3.1605-10.9-6.1341-1.113-1.045-2.7017-2.8886-3.9506-5.7687-1.164-2.6848-1.7247-5.5989-1.6822-8.6489.05949-3.9847 1.1725-8.0798 3.305-12.149 2.4808-4.7409 6.355-9.4391 11.504-13.968 1.2319-1.0874 2.3959-2.1749 3.4919-3.2625.6457 3.6194 1.3509 7.6039 2.0985 11.75-3.271 1.0789-7.3066 3.7551-9.9488 8.5554-3.0076 5.5819-2.8886 10.272-2.2684 13.228.79862 3.7893 2.9481 6.9837 5.8877 8.7594.79013.47569 4.299 2.2853 5.8622 1.7926.31435-.10195.54374-.28886.66269-.56923.4333-.99403-.4333-1.5377-1.7587-2.3534-.50976-.31428-1.079-.67113-1.6992-1.1214-2.8207-2.1155-4.0526-5.8963-3.1435-9.6175.49277-2.039 1.5803-3.8742 3.1435-5.3185 1.4188-1.3169 3.152-2.2514 5.1741-2.7951 1.7332 9.5494 3.4834 19.022 4.8767 26.125.11045.58614.22939 1.1554.33984 1.7246-3.7212.79013-7.417.71375-10.994-.22939m9.6175-28.19c8.7934-.39931 12.421 5.9218 13.177 10.025.39931 2.1495.39082 5.9217-.91757 9.4985-.99403 2.7017-3.084 6.1596-7.4425 7.9099-.05947-.35683-.12744-.72216-.19541-1.0876-1.3084-7.4509-2.9566-16.788-4.6218-26.346m-6.2191-60.271c1.5123-4.8766 3.8402-7.6378 5.5309-9.1076 1.4868-1.2914 2.8886-1.8947 3.6703-1.8947.11894 0 .2209.01699.30586.04248.39082.11894.8411.6033 1.2404 1.3425 1.9626 3.6447 1.3339 9.3456.19541 13.118-1.3848 4.5878-3.8657 9.3626-11.342 17.527-.14443-.94306-.28037-1.8351-.40781-2.6677-1.062-7.0433-.79013-13.22.80712-18.36" stroke-width=".8496"/>
 <path class="KeySig" d="m109.67 69.752c-.50976-3.3134-2.5488-6.457-6.8818-6.457-4.248 0-6.7118 2.6338-7.1366 3.1435l.33984-27.272c0-.67968-.50976-1.1894-1.1894-1.1894h-1.0195c-.67968 0-1.1894.50976-1.1894 1.1894l.4248 51.061c0 .67968.50976 1.1894 1.1894 1.1894.16992 0 .50976-.08496.67968-.16992.33984-.16992 5.8622-2.8886 10.45-8.0712 3.2285-3.6533 4.5029-7.8163 4.5029-11.3 0-.76464-.085-1.4443-.16992-2.124m-5.8622 3.3134c0 1.2744-.33984 5.1826-2.4638 8.411-1.4443 2.209-4.333 4.5029-5.9472 5.7773l.25488-16.567c.16992-.76464 1.4443-3.2285 4.8427-3.2285 3.0586 0 3.3134 2.8886 3.3134 4.6728v.93456" stroke-width=".8496"/>
 <path class="TimeSig" d="m158.69 61.256c-2.124 1.3594-3.6533 3.8232-3.6533 6.5419 0 .33984 0 .67968.085 1.0195.4248 3.4834 3.2285 6.2021 6.7118 6.6269h.93456c4.248 0 7.6464-3.3984 7.6464-7.6464v-.50976c0-.33984-.085-.93456-.16992-1.2744-.76464-3.6533-4.0781-11.47-18.521-11.47-18.521 0-20.645 15.378-20.645 20.9 0 10.11 1.2744 22.769 22.514 22.769 8.411 0 14.953-4.9277 15.293-14.018 0-.4248-.25488-.67968-.67968-.67968h-1.1045c-.33984 0-.67968.33984-.67968.67968-.33984 7.0517-5.3525 11.3-12.829 11.3-7.3915 0-10.96-3.9931-10.96-11.47v-16.227c0-4.7578 1.8691-10.195 9.4306-10.195 3.9931 0 5.7773 1.4443 6.7118 2.8886.16992.33984.16992.59472-.085.76464" stroke-width=".8496"/>
 <path class="Hook" d="m913.09 183c0-.16992.76464-3.0586.8496-3.3134.085-.33984 1.6142-5.1826 4.7578-10.025 2.2939-3.5683 10.365-14.018 10.11-14.018 0 0 6.287-8.0712 6.7118-19.031v-1.9541c0-5.1826-.67968-12.489-3.6533-19.881-.33984-.8496-.67968-1.6992-1.6142-1.3594s-.67968 1.3594-.4248 2.2939c1.5293 5.9472 2.3789 12.064 2.3789 18.181 0 7.1366-2.5488 10.705-4.0781 13.339-5.6074 9.4306-12.914 14.018-16.482 15.208-.4248.16992-.67968.50976-.67968.93456v19.201c0 .59472.50976 1.1045 1.1045 1.1045.4248 0 .93456-.33984 1.0195-.67968" stroke-width=".8496"/>
 <path class="Hook" d="m360.44 21.028c-.085-.25488-.8496-3.2285-.8496-3.3984-.085-.33984-.59472-.59472-1.0195-.59472-.59472 0-1.1045.50976-1.1045 1.1045v19.201c0 .4248.33984.76464.67968.93456 3.5683 1.1045 10.96 5.7773 16.482 15.208 1.5293 2.6338 3.9931 6.2021 3.9931 13.339 0 6.1171-.93456 12.574-2.4638 18.521-.25488.93456-.50976 1.7842.4248 2.124s1.2744-.33984 1.6142-1.1894c3.0586-7.4765 3.8232-15.293 3.8232-20.56v-1.6142c-.4248-10.96-6.7118-19.031-6.7118-19.031.25488 0-7.8163-10.45-10.11-14.018-3.1435-4.8427-4.6728-9.6854-4.7578-10.025" stroke-width=".8496"/>
 <path class="Hook" d="m619.69 58.198c-.085-.25488-.8496-3.2285-.8496-3.3984-.085-.33984-.59472-.59472-1.0195-.59472-.59472 0-1.1045.50976-1.1045 1.1045v19.201c0 .4248.33984.76464.67968.93456 3.5683 1.1045 10.96 5.7773 16.482 15.208 1.5293 2.6338 3.9931 6.2021 3.9931 13.339 0 6.1171-.93456 12.574-2.4638 18.521-.25488.93456-.50976 1.7842.4248 2.124s1.2744-.33984 1.6142-1.1894c3.0586-7.4765 3.8232-15.293 3.8232-20.56v-1.6142c-.4248-10.96-6.7118-19.031-6.7118-19.031.25488 0-7.8163-10.45-10.11-14.018-3.1435-4.8427-4.6728-9.6854-4.7578-10.025" stroke-width=".8496"/>
 <path class="Hook" d="m913.94 28.993c-.085-.25488-.8496-3.2285-.8496-3.3984-.085-.33984-.59472-.59472-1.0195-.59472-.59472 0-1.1045.50976-1.1045 1.1045v19.201c0 .4248.33984.76464.67968.93456 3.5683 1.1045 10.96 5.7773 16.482 15.208 1.5293 2.6338 3.9931 6.2021 3.9931 13.339 0 6.1171-.93456 12.574-2.4638 18.521-.25488.93456-.50976 1.7842.4248 2.124s1.2744-.33984 1.6142-1.1894c3.0586-7.4765 3.8232-15.293 3.8232-20.56v-1.6142c-.4248-10.96-6.7118-19.031-6.7118-19.031.25488 0-7.8163-10.45-10.11-14.018-3.1435-4.8427-4.6728-9.6854-4.7578-10.025" stroke-width=".8496"/>
 <path class="Hook" d="m1055.4 15.718c-.085-.25488-.8496-3.2285-.8496-3.3984-.085-.33984-.5947-.59472-1.0195-.59472-.5947 0-1.1045.50976-1.1045 1.1045v19.201c0 .4248.3398.76464.6797.93456 3.5683 1.1045 10.96 5.7773 16.482 15.208 1.5293 2.6338 3.9931 6.2021 3.9931 13.339 0 6.1171-.9345 12.574-2.4638 18.521-.2549.93456-.5098 1.7842.4248 2.124s1.2744-.33984 1.6142-1.1894c3.0586-7.4765 3.8232-15.293 3.8232-20.56v-1.6142c-.4248-10.96-6.7118-19.031-6.7118-19.031.2549 0-7.8163-10.45-10.11-14.018-3.1436-4.8427-4.6728-9.6854-4.7578-10.025" stroke-width=".8496"/>
 <path class="Hook" d="m1229.6 51.911c0-1.3594-.3398-3.5683-.6797-4.9277.3399-2.5488.6797-5.2675.6797-7.6464v-.8496c-.085-4.4179-1.1045-9.0058-4.0781-12.829-4.0781-5.2675-9.4305-7.9013-12.659-12.574s-4.5879-11.979-4.5879-11.979c-.0849-.59472-.2548-1.1045-1.2744-1.1045-1.0195 0-1.1894.50976-1.1894 1.1045v43.669c0 .16992.5947.59472 1.1894.76464 2.209.8496 8.9208 5.0976 14.018 12.659 3.0586 4.6728 3.5684 7.7314 3.5684 10.79v.93456c-.085 2.124-.5948 6.457-1.8692 9.8554-.2548.76464-.6796 1.8691.17 2.2939s1.3593-.4248 1.7841-1.0195c1.5293-2.4638 3.7383-7.0517 3.7383-11.894v-.25488c0-1.5293-.085-4.0781-.3399-5.6074.7647-3.0586 1.5293-6.7968 1.5293-10.705v-.67968m-8.3261-22.854c3.8232 4.6728 4.5879 8.1562 4.5879 11.47-.2549-.33984-.4248-.59472-.6797-.93456-4.0781-5.2675-7.7314-7.3915-12.489-11.724-2.4639-2.2939-3.3135-5.2675-3.5684-6.8818 3.8232.33984 8.9208 4.163 12.149 8.0712m2.2939 23.534c-2.2939-2.9736-4.7577-5.7773-8.9208-9.9403-3.2284-3.2285-4.8427-6.0322-5.4374-8.1562 3.8232.4248 8.8358 4.0781 12.064 7.9862 3.8232 4.5878 4.5879 8.1562 4.5879 11.47 0 .67968 0 1.2744-.085 1.9541-.5098-1.0195-1.5293-2.4638-2.209-3.3134" stroke-width=".8496"/>
 <path class="NoteDot" d="m729.39 129.56c0 2.3461 1.9019 4.248 4.248 4.248s4.248-1.9019 4.248-4.248-1.9019-4.248-4.248-4.248-4.248 1.9019-4.248 4.248" stroke-width=".8496"/>
 <path class="NoteDot" d="m729.39 108.32c0 2.3461 1.9019 4.248 4.248 4.248s4.248-1.9019 4.248-4.248-1.9019-4.248-4.248-4.248-4.248 1.9019-4.248 4.248" stroke-width=".8496"/>
 <path class="NoteDot" d="m1065.4 108.32c0 2.3461 1.9019 4.248 4.248 4.248s4.248-1.9019 4.248-4.248-1.9019-4.248-4.248-4.248-4.248 1.9019-4.248 4.248" stroke-width=".8496"/>
 <path class="NoteDot" d="m1065.4 87.083c0 2.3461 1.9019 4.248 4.248 4.248s4.248-1.9019 4.248-4.248-1.9019-4.248-4.248-4.248-4.248 1.9019-4.248 4.248" stroke-width=".8496"/>
</svg>
