<?xml version="1.0" encoding="utf-8"?>
<svg xmlns="http://www.w3.org/2000/svg" version="1.2" viewBox="0 0 1431 931">
 <title>Three lines of musical notation with the lyrics “Do bana coba, gene me, gene me!
 Do bana coba, gene me, gene me! Ben d’ nuli, nuli, nuli, nuli, ben d’ le.”</title>
 <polyline class="StaffLines" points="0 35.978 1431 35.978" fill="none" stroke="#000" stroke-linejoin="bevel" stroke-width="2.73"/>
 <polyline class="StaffLines" points="0 60.818 1431 60.818" fill="none" stroke="#000" stroke-linejoin="bevel" stroke-width="2.73"/>
 <polyline class="StaffLines" points="0 85.658 1431 85.658" fill="none" stroke="#000" stroke-linejoin="bevel" stroke-width="2.73"/>
 <polyline class="StaffLines" points="0 110.5 1431 110.5" fill="none" stroke="#000" stroke-linejoin="bevel" stroke-width="2.73"/>
 <polyline class="StaffLines" points="0 135.34 1431 135.34" fill="none" stroke="#000" stroke-linejoin="bevel" stroke-width="2.73"/>
 <polyline class="StaffLines" points="0 383.74 1431 383.74" fill="none" stroke="#000" stroke-linejoin="bevel" stroke-width="2.73"/>
 <polyline class="StaffLines" points="0 408.58 1431 408.58" fill="none" stroke="#000" stroke-linejoin="bevel" stroke-width="2.73"/>
 <polyline class="StaffLines" points="0 433.42 1431 433.42" fill="none" stroke="#000" stroke-linejoin="bevel" stroke-width="2.73"/>
 <polyline class="StaffLines" points="0 458.26 1431 458.26" fill="none" stroke="#000" stroke-linejoin="bevel" stroke-width="2.73"/>
 <polyline class="StaffLines" points="0 483.1 1431 483.1" fill="none" stroke="#000" stroke-linejoin="bevel" stroke-width="2.73"/>
 <polyline class="StaffLines" points="0 731.5 1431 731.5" fill="none" stroke="#000" stroke-linejoin="bevel" stroke-width="2.73"/>
 <polyline class="StaffLines" points="0 756.34 1431 756.34" fill="none" stroke="#000" stroke-linejoin="bevel" stroke-width="2.73"/>
 <polyline class="StaffLines" points="0 781.18 1431 781.18" fill="none" stroke="#000" stroke-linejoin="bevel" stroke-width="2.73"/>
 <polyline class="StaffLines" points="0 806.02 1431 806.02" fill="none" stroke="#000" stroke-linejoin="bevel" stroke-width="2.73"/>
 <polyline class="StaffLines" points="0 830.86 1431 830.86" fill="none" stroke="#000" stroke-linejoin="bevel" stroke-width="2.73"/>
 <polyline class="BarLine" points="967.43 34.612 967.43 136.7" fill="none" stroke="#000" stroke-linejoin="bevel" stroke-width="4.47"/>
 <polyline class="BarLine" points="1428.8 34.612 1428.8 136.7" fill="none" stroke="#000" stroke-linejoin="bevel" stroke-width="4.47"/>
 <polyline class="BarLine" points="938.12 382.37 938.12 484.46" fill="none" stroke="#000" stroke-linejoin="bevel" stroke-width="4.47"/>
 <polyline class="BarLine" points="1428.8 382.37 1428.8 484.46" fill="none" stroke="#000" stroke-linejoin="bevel" stroke-width="4.47"/>
 <polyline class="BarLine" points="1214.2 730.13 1214.2 832.23" fill="none" stroke="#000" stroke-linejoin="bevel" stroke-width="4.47"/>
 <polyline class="BarLine" points="1406.8 730.13 1406.8 832.23" fill="none" stroke="#000" stroke-linejoin="bevel" stroke-width="13.66"/>
 <polyline class="BarLine" points="1424.2 730.13 1424.2 832.23" fill="none" stroke="#000" stroke-linejoin="bevel" stroke-width="13.66"/>
 <polyline class="LedgerLine" points="704.04 160.18 753.71 160.18" fill="none" stroke="#000" stroke-linejoin="bevel" stroke-width="3.97"/>
 <polyline class="LedgerLine" points="788.12 185.02 837.79 185.02" fill="none" stroke="#000" stroke-linejoin="bevel" stroke-width="3.97"/>
 <polyline class="LedgerLine" points="788.12 160.18 837.79 160.18" fill="none" stroke="#000" stroke-linejoin="bevel" stroke-width="3.97"/>
 <polyline class="LedgerLine" points="859.15 185.02 908.82 185.02" fill="none" stroke="#000" stroke-linejoin="bevel" stroke-width="3.97"/>
 <polyline class="LedgerLine" points="859.15 160.18 908.82 160.18" fill="none" stroke="#000" stroke-linejoin="bevel" stroke-width="3.97"/>
 <polyline class="LedgerLine" points="1166 160.18 1215.7 160.18" fill="none" stroke="#000" stroke-linejoin="bevel" stroke-width="3.97"/>
 <polyline class="LedgerLine" points="669.95 507.94 719.62 507.94" fill="none" stroke="#000" stroke-linejoin="bevel" stroke-width="3.97"/>
 <polyline class="LedgerLine" points="758.81 532.78 808.48 532.78" fill="none" stroke="#000" stroke-linejoin="bevel" stroke-width="3.97"/>
 <polyline class="LedgerLine" points="758.81 507.94 808.48 507.94" fill="none" stroke="#000" stroke-linejoin="bevel" stroke-width="3.97"/>
 <polyline class="LedgerLine" points="829.83 532.78 879.5 532.78" fill="none" stroke="#000" stroke-linejoin="bevel" stroke-width="3.97"/>
 <polyline class="LedgerLine" points="829.83 507.94 879.5 507.94" fill="none" stroke="#000" stroke-linejoin="bevel" stroke-width="3.97"/>
 <polyline class="LedgerLine" points="1146.5 507.94 1196.1 507.94" fill="none" stroke="#000" stroke-linejoin="bevel" stroke-width="3.97"/>
 <polyline class="LedgerLine" points="992.18 855.7 1041.8 855.7" fill="none" stroke="#000" stroke-linejoin="bevel" stroke-width="3.97"/>
 <polyline class="LedgerLine" points="1128.2 855.7 1177.8 855.7" fill="none" stroke="#000" stroke-linejoin="bevel" stroke-width="3.97"/>
 <polyline class="Stem" points="375.8 119.74 375.8 35.978" fill="none" stroke="#000" stroke-linejoin="bevel" stroke-width="2.73"/>
 <polyline class="Stem" points="491.41 132.16 491.41 48.398" fill="none" stroke="#000" stroke-linejoin="bevel" stroke-width="2.73"/>
 <polyline class="Stem" points="575.49 119.74 575.49 35.978" fill="none" stroke="#000" stroke-linejoin="bevel" stroke-width="2.73"/>
 <polyline class="Stem" points="659.57 144.58 659.57 60.818" fill="none" stroke="#000" stroke-linejoin="bevel" stroke-width="2.73"/>
 <polyline class="Stem" points="743.65 169.42 743.65 85.658" fill="none" stroke="#000" stroke-linejoin="bevel" stroke-width="2.73"/>
 <polyline class="Stem" points="827.73 181.84 827.73 85.658" fill="none" stroke="#000" stroke-linejoin="bevel" stroke-width="2.73"/>
 <polyline class="Stem" points="898.76 181.84 898.76 85.658" fill="none" stroke="#000" stroke-linejoin="bevel" stroke-width="2.73"/>
 <polyline class="Stem" points="1046.7 144.58 1046.7 60.818" fill="none" stroke="#000" stroke-linejoin="bevel" stroke-width="2.73"/>
 <polyline class="Stem" points="1139.6 144.58 1139.6 60.818" fill="none" stroke="#000" stroke-linejoin="bevel" stroke-width="2.73"/>
 <polyline class="Stem" points="1205.6 169.42 1205.6 85.658" fill="none" stroke="#000" stroke-linejoin="bevel" stroke-width="2.73"/>
 <polyline class="Stem" points="1271.6 144.58 1271.6 60.818" fill="none" stroke="#000" stroke-linejoin="bevel" stroke-width="2.73"/>
 <polyline class="Stem" points="320.83 467.5 320.83 383.74" fill="none" stroke="#000" stroke-linejoin="bevel" stroke-width="2.73"/>
 <polyline class="Stem" points="443 479.92 443 396.16" fill="none" stroke="#000" stroke-linejoin="bevel" stroke-width="2.73"/>
 <polyline class="Stem" points="531.86 467.5 531.86 383.74" fill="none" stroke="#000" stroke-linejoin="bevel" stroke-width="2.73"/>
 <polyline class="Stem" points="620.71 492.34 620.71 408.58" fill="none" stroke="#000" stroke-linejoin="bevel" stroke-width="2.73"/>
 <polyline class="Stem" points="709.56 517.18 709.56 433.42" fill="none" stroke="#000" stroke-linejoin="bevel" stroke-width="2.73"/>
 <polyline class="Stem" points="798.42 529.6 798.42 433.42" fill="none" stroke="#000" stroke-linejoin="bevel" stroke-width="2.73"/>
 <polyline class="Stem" points="869.44 529.6 869.44 433.42" fill="none" stroke="#000" stroke-linejoin="bevel" stroke-width="2.73"/>
 <polyline class="Stem" points="1017.4 492.34 1017.4 408.58" fill="none" stroke="#000" stroke-linejoin="bevel" stroke-width="2.73"/>
 <polyline class="Stem" points="1120.1 492.34 1120.1 408.58" fill="none" stroke="#000" stroke-linejoin="bevel" stroke-width="2.73"/>
 <polyline class="Stem" points="1186.1 517.18 1186.1 433.42" fill="none" stroke="#000" stroke-linejoin="bevel" stroke-width="2.73"/>
 <polyline class="Stem" points="1252 492.34 1252 408.58" fill="none" stroke="#000" stroke-linejoin="bevel" stroke-width="2.73"/>
 <polyline class="Stem" points="320.83 840.1 320.83 756.34" fill="none" stroke="#000" stroke-linejoin="bevel" stroke-width="2.73"/>
 <polyline class="Stem" points="474.17 840.1 474.17 756.34" fill="none" stroke="#000" stroke-linejoin="bevel" stroke-width="2.73"/>
 <polyline class="Stem" points="543.88 840.1 543.88 756.34" fill="none" stroke="#000" stroke-linejoin="bevel" stroke-width="2.73"/>
 <polyline class="Stem" points="613.58 840.1 613.58 756.34" fill="none" stroke="#000" stroke-linejoin="bevel" stroke-width="2.73"/>
 <polyline class="Stem" points="683.28 840.1 683.28 756.34" fill="none" stroke="#000" stroke-linejoin="bevel" stroke-width="2.73"/>
 <polyline class="Stem" points="752.98 840.1 752.98 756.34" fill="none" stroke="#000" stroke-linejoin="bevel" stroke-width="2.73"/>
 <polyline class="Stem" points="822.68 840.1 822.68 756.34" fill="none" stroke="#000" stroke-linejoin="bevel" stroke-width="2.73"/>
 <polyline class="Stem" points="892.39 840.1 892.39 756.34" fill="none" stroke="#000" stroke-linejoin="bevel" stroke-width="2.73"/>
 <polyline class="Stem" points="962.09 840.1 962.09 756.34" fill="none" stroke="#000" stroke-linejoin="bevel" stroke-width="2.73"/>
 <polyline class="Stem" points="1031.8 852.52 1031.8 781.18" fill="none" stroke="#000" stroke-linejoin="bevel" stroke-width="2.73"/>
 <polyline class="Stem" points="1167.8 852.52 1167.8 781.18" fill="none" stroke="#000" stroke-linejoin="bevel" stroke-width="2.73"/>
 <polyline class="Stem" points="1281.8 840.1 1281.8 756.34" fill="none" stroke="#000" stroke-linejoin="bevel" stroke-width="2.73"/>
 <path class="Note" d="m376.18 114.87c-1.7885-3.2789-5.5642-5.0674-10.135-5.0674-3.3782 0-7.0546.9936-10.632 2.8814-6.5578 3.4776-10.532 9.3398-10.532 14.407 0 1.391.29808 2.7821.9936 4.0738 1.7885 3.2789 5.5642 4.968 10.135 4.968 3.3782 0 7.0546-.89424 10.632-2.7821 6.5578-3.4776 10.532-9.3398 10.532-14.407 0-1.391-.29808-2.7821-.9936-4.0738" stroke-width=".9936"/>
 <path class="Note" d="m491.79 127.29c-1.7885-3.2789-5.5642-5.0674-10.135-5.0674-3.3782 0-7.0546.9936-10.632 2.8814-6.5578 3.4776-10.532 9.3398-10.532 14.407 0 1.391.29808 2.7821.9936 4.0738 1.7885 3.2789 5.5642 4.968 10.135 4.968 3.3782 0 7.0546-.89424 10.632-2.7821 6.5578-3.4776 10.532-9.3398 10.532-14.407 0-1.391-.29808-2.7821-.9936-4.0738" stroke-width=".9936"/>
 <path class="Note" d="m575.87 114.87c-1.7885-3.2789-5.5642-5.0674-10.135-5.0674-3.3782 0-7.0546.9936-10.632 2.8814-6.5578 3.4776-10.532 9.3398-10.532 14.407 0 1.391.29808 2.7821.9936 4.0738 1.7885 3.2789 5.5642 4.968 10.135 4.968 3.3782 0 7.0546-.89424 10.632-2.7821 6.5578-3.4776 10.532-9.3398 10.532-14.407 0-1.391-.29808-2.7821-.9936-4.0738" stroke-width=".9936"/>
 <path class="Note" d="m659.95 139.71c-1.7885-3.2789-5.5642-5.0674-10.135-5.0674-3.3782 0-7.0546.9936-10.632 2.8814-6.5578 3.4776-10.532 9.3398-10.532 14.407 0 1.391.29808 2.7821.9936 4.0738 1.7885 3.2789 5.5642 4.968 10.135 4.968 3.3782 0 7.0546-.89424 10.632-2.7821 6.5578-3.4776 10.532-9.3398 10.532-14.407 0-1.391-.29808-2.7821-.9936-4.0738" stroke-width=".9936"/>
 <path class="Note" d="m744.03 164.55c-1.7885-3.2789-5.5642-5.0674-10.135-5.0674-3.3782 0-7.0546.9936-10.632 2.8814-6.5578 3.4776-10.532 9.3398-10.532 14.407 0 1.391.29808 2.7821.9936 4.0738 1.7885 3.2789 5.5642 4.968 10.135 4.968 3.3782 0 7.0546-.89424 10.632-2.7821 6.5578-3.4776 10.532-9.3398 10.532-14.407 0-1.391-.29808-2.7821-.9936-4.0738" stroke-width=".9936"/>
 <path class="Note" d="m828.11 176.97c-1.7885-3.2789-5.5642-5.0674-10.135-5.0674-3.3782 0-7.0546.9936-10.632 2.8814-6.5578 3.4776-10.532 9.3398-10.532 14.407 0 1.391.29808 2.7821.9936 4.0738 1.7885 3.2789 5.5642 4.968 10.135 4.968 3.3782 0 7.0546-.89424 10.632-2.7821 6.5578-3.4776 10.532-9.3398 10.532-14.407 0-1.391-.29808-2.7821-.9936-4.0738" stroke-width=".9936"/>
 <path class="Note" d="m899.14 176.97c-1.7885-3.2789-5.5642-5.0674-10.135-5.0674-3.3782 0-7.0546.9936-10.632 2.8814-6.5578 3.4776-10.532 9.3398-10.532 14.407 0 1.391.29808 2.7821.9936 4.0738 1.7885 3.2789 5.5642 4.968 10.135 4.968 3.3782 0 7.0546-.89424 10.632-2.7821 6.5578-3.4776 10.532-9.3398 10.532-14.407 0-1.391-.29808-2.7821-.9936-4.0738" stroke-width=".9936"/>
 <path class="Note" d="m1047.1 139.71c-1.7885-3.2789-5.5642-5.0674-10.135-5.0674-3.3783 0-7.0546.9936-10.632 2.8814-6.5578 3.4776-10.532 9.3398-10.532 14.407 0 1.391.2981 2.7821.9936 4.0738 1.7885 3.2789 5.5642 4.968 10.135 4.968 3.3783 0 7.0546-.89424 10.632-2.7821 6.5578-3.4776 10.532-9.3398 10.532-14.407 0-1.391-.2981-2.7821-.9936-4.0738" stroke-width=".9936"/>
 <path class="Note" d="m1140 139.71c-1.7885-3.2789-5.5642-5.0674-10.135-5.0674-3.3783 0-7.0546.9936-10.632 2.8814-6.5578 3.4776-10.532 9.3398-10.532 14.407 0 1.391.2981 2.7821.9936 4.0738 1.7885 3.2789 5.5642 4.968 10.135 4.968 3.3783 0 7.0546-.89424 10.632-2.7821 6.5578-3.4776 10.532-9.3398 10.532-14.407 0-1.391-.2981-2.7821-.9936-4.0738" stroke-width=".9936"/>
 <path class="Note" d="m1206 164.55c-1.7885-3.2789-5.5642-5.0674-10.135-5.0674-3.3783 0-7.0546.9936-10.632 2.8814-6.5578 3.4776-10.532 9.3398-10.532 14.407 0 1.391.2981 2.7821.9936 4.0738 1.7885 3.2789 5.5642 4.968 10.135 4.968 3.3783 0 7.0546-.89424 10.632-2.7821 6.5578-3.4776 10.532-9.3398 10.532-14.407 0-1.391-.2981-2.7821-.9936-4.0738" stroke-width=".9936"/>
 <path class="Note" d="m1272 139.71c-1.7885-3.2789-5.5642-5.0674-10.135-5.0674-3.3783 0-7.0546.9936-10.632 2.8814-6.5578 3.4776-10.532 9.3398-10.532 14.407 0 1.391.2981 2.7821.9936 4.0738 1.7885 3.2789 5.5642 4.968 10.135 4.968 3.3783 0 7.0546-.89424 10.632-2.7821 6.5578-3.4776 10.532-9.3398 10.532-14.407 0-1.391-.2981-2.7821-.9936-4.0738" stroke-width=".9936"/>
 <path class="Note" d="m321.21 462.63c-1.7885-3.2789-5.5642-5.0674-10.135-5.0674-3.3782 0-7.0546.9936-10.632 2.8814-6.5578 3.4776-10.532 9.3398-10.532 14.407 0 1.391.29808 2.7821.9936 4.0738 1.7885 3.2789 5.5642 4.968 10.135 4.968 3.3782 0 7.0546-.89424 10.632-2.7821 6.5578-3.4776 10.532-9.3398 10.532-14.407 0-1.391-.29808-2.7821-.9936-4.0738" stroke-width=".9936"/>
 <path class="Note" d="m443.39 475.05c-1.7885-3.2789-5.5642-5.0674-10.135-5.0674-3.3782 0-7.0546.9936-10.632 2.8814-6.5578 3.4776-10.532 9.3398-10.532 14.407 0 1.391.29808 2.7821.9936 4.0738 1.7885 3.2789 5.5642 4.968 10.135 4.968 3.3782 0 7.0546-.89424 10.632-2.7821 6.5578-3.4776 10.532-9.3398 10.532-14.407 0-1.391-.29808-2.7821-.9936-4.0738" stroke-width=".9936"/>
 <path class="Note" d="m532.24 462.63c-1.7885-3.2789-5.5642-5.0674-10.135-5.0674-3.3782 0-7.0546.9936-10.632 2.8814-6.5578 3.4776-10.532 9.3398-10.532 14.407 0 1.391.29808 2.7821.9936 4.0738 1.7885 3.2789 5.5642 4.968 10.135 4.968 3.3782 0 7.0546-.89424 10.632-2.7821 6.5578-3.4776 10.532-9.3398 10.532-14.407 0-1.391-.29808-2.7821-.9936-4.0738" stroke-width=".9936"/>
 <path class="Note" d="m621.09 487.47c-1.7885-3.2789-5.5642-5.0674-10.135-5.0674-3.3782 0-7.0546.9936-10.632 2.8814-6.5578 3.4776-10.532 9.3398-10.532 14.407 0 1.391.29808 2.7821.9936 4.0738 1.7885 3.2789 5.5642 4.968 10.135 4.968 3.3782 0 7.0546-.89424 10.632-2.7821 6.5578-3.4776 10.532-9.3398 10.532-14.407 0-1.391-.29808-2.7821-.9936-4.0738" stroke-width=".9936"/>
 <path class="Note" d="m709.95 512.31c-1.7885-3.2789-5.5642-5.0674-10.135-5.0674-3.3782 0-7.0546.9936-10.632 2.8814-6.5578 3.4776-10.532 9.3398-10.532 14.407 0 1.391.29808 2.7821.9936 4.0738 1.7885 3.2789 5.5642 4.968 10.135 4.968 3.3782 0 7.0546-.89424 10.632-2.7821 6.5578-3.4776 10.532-9.3398 10.532-14.407 0-1.391-.29808-2.7821-.9936-4.0738" stroke-width=".9936"/>
 <path class="Note" d="m798.8 524.73c-1.7885-3.2789-5.5642-5.0674-10.135-5.0674-3.3782 0-7.0546.9936-10.632 2.8814-6.5578 3.4776-10.532 9.3398-10.532 14.407 0 1.391.29808 2.7821.9936 4.0738 1.7885 3.2789 5.5642 4.968 10.135 4.968 3.3782 0 7.0546-.89424 10.632-2.7821 6.5578-3.4776 10.532-9.3398 10.532-14.407 0-1.391-.29808-2.7821-.9936-4.0738" stroke-width=".9936"/>
 <path class="Note" d="m869.83 524.73c-1.7885-3.2789-5.5642-5.0674-10.135-5.0674-3.3782 0-7.0546.9936-10.632 2.8814-6.5578 3.4776-10.532 9.3398-10.532 14.407 0 1.391.29808 2.7821.9936 4.0738 1.7885 3.2789 5.5642 4.968 10.135 4.968 3.3782 0 7.0546-.89424 10.632-2.7821 6.5578-3.4776 10.532-9.3398 10.532-14.407 0-1.391-.29808-2.7821-.9936-4.0738" stroke-width=".9936"/>
 <path class="Note" d="m1017.8 487.47c-1.7885-3.2789-5.5642-5.0674-10.135-5.0674-3.3783 0-7.0546.9936-10.632 2.8814-6.5578 3.4776-10.532 9.3398-10.532 14.407 0 1.391.29808 2.7821.9936 4.0738 1.7885 3.2789 5.5642 4.968 10.135 4.968 3.3783 0 7.0546-.89424 10.631-2.7821 6.5578-3.4776 10.532-9.3398 10.532-14.407 0-1.391-.2981-2.7821-.9936-4.0738" stroke-width=".9936"/>
 <path class="Note" d="m1120.5 487.47c-1.7885-3.2789-5.5642-5.0674-10.135-5.0674-3.3783 0-7.0546.9936-10.632 2.8814-6.5578 3.4776-10.532 9.3398-10.532 14.407 0 1.391.2981 2.7821.9936 4.0738 1.7885 3.2789 5.5642 4.968 10.135 4.968 3.3783 0 7.0546-.89424 10.632-2.7821 6.5578-3.4776 10.532-9.3398 10.532-14.407 0-1.391-.2981-2.7821-.9936-4.0738" stroke-width=".9936"/>
 <path class="Note" d="m1186.4 512.31c-1.7885-3.2789-5.5642-5.0674-10.135-5.0674-3.3783 0-7.0546.9936-10.632 2.8814-6.5578 3.4776-10.532 9.3398-10.532 14.407 0 1.391.2981 2.7821.9936 4.0738 1.7885 3.2789 5.5642 4.968 10.135 4.968 3.3783 0 7.0546-.89424 10.632-2.7821 6.5578-3.4776 10.532-9.3398 10.532-14.407 0-1.391-.2981-2.7821-.9936-4.0738" stroke-width=".9936"/>
 <path class="Note" d="m1252.4 487.47c-1.7885-3.2789-5.5642-5.0674-10.135-5.0674-3.3783 0-7.0546.9936-10.632 2.8814-6.5578 3.4776-10.532 9.3398-10.532 14.407 0 1.391.2981 2.7821.9936 4.0738 1.7885 3.2789 5.5642 4.968 10.135 4.968 3.3783 0 7.0546-.89424 10.632-2.7821 6.5578-3.4776 10.532-9.3398 10.532-14.407 0-1.391-.2981-2.7821-.9936-4.0738" stroke-width=".9936"/>
 <path class="Note" d="m321.21 835.23c-1.7885-3.2789-5.5642-5.0674-10.135-5.0674-3.3782 0-7.0546.9936-10.632 2.8814-6.5578 3.4776-10.532 9.3398-10.532 14.407 0 1.391.29808 2.7821.9936 4.0738 1.7885 3.2789 5.5642 4.968 10.135 4.968 3.3782 0 7.0546-.89424 10.632-2.7821 6.5578-3.4776 10.532-9.3398 10.532-14.407 0-1.391-.29808-2.7821-.9936-4.0738" stroke-width=".9936"/>
 <path class="Note" d="m474.56 835.23c-1.7885-3.2789-5.5642-5.0674-10.135-5.0674-3.3782 0-7.0546.9936-10.632 2.8814-6.5578 3.4776-10.532 9.3398-10.532 14.407 0 1.391.29808 2.7821.9936 4.0738 1.7885 3.2789 5.5642 4.968 10.135 4.968 3.3782 0 7.0546-.89424 10.632-2.7821 6.5578-3.4776 10.532-9.3398 10.532-14.407 0-1.391-.29808-2.7821-.9936-4.0738" stroke-width=".9936"/>
 <path class="Note" d="m544.26 835.23c-1.7885-3.2789-5.5642-5.0674-10.135-5.0674-3.3782 0-7.0546.9936-10.632 2.8814-6.5578 3.4776-10.532 9.3398-10.532 14.407 0 1.391.29808 2.7821.9936 4.0738 1.7885 3.2789 5.5642 4.968 10.135 4.968 3.3782 0 7.0546-.89424 10.632-2.7821 6.5578-3.4776 10.532-9.3398 10.532-14.407 0-1.391-.29808-2.7821-.9936-4.0738" stroke-width=".9936"/>
 <path class="Note" d="m613.96 835.23c-1.7885-3.2789-5.5642-5.0674-10.135-5.0674-3.3782 0-7.0546.9936-10.632 2.8814-6.5578 3.4776-10.532 9.3398-10.532 14.407 0 1.391.29808 2.7821.9936 4.0738 1.7885 3.2789 5.5642 4.968 10.135 4.968 3.3782 0 7.0546-.89424 10.632-2.7821 6.5578-3.4776 10.532-9.3398 10.532-14.407 0-1.391-.29808-2.7821-.9936-4.0738" stroke-width=".9936"/>
 <path class="Note" d="m683.66 835.23c-1.7885-3.2789-5.5642-5.0674-10.135-5.0674-3.3782 0-7.0546.9936-10.632 2.8814-6.5578 3.4776-10.532 9.3398-10.532 14.407 0 1.391.29808 2.7821.9936 4.0738 1.7885 3.2789 5.5642 4.968 10.135 4.968 3.3782 0 7.0546-.89424 10.632-2.7821 6.5578-3.4776 10.532-9.3398 10.532-14.407 0-1.391-.29808-2.7821-.9936-4.0738" stroke-width=".9936"/>
 <path class="Note" d="m753.36 835.23c-1.7885-3.2789-5.5642-5.0674-10.135-5.0674-3.3782 0-7.0546.9936-10.632 2.8814-6.5578 3.4776-10.532 9.3398-10.532 14.407 0 1.391.29808 2.7821.9936 4.0738 1.7885 3.2789 5.5642 4.968 10.135 4.968 3.3782 0 7.0546-.89424 10.632-2.7821 6.5578-3.4776 10.532-9.3398 10.532-14.407 0-1.391-.29808-2.7821-.9936-4.0738" stroke-width=".9936"/>
 <path class="Note" d="m823.07 835.23c-1.7885-3.2789-5.5642-5.0674-10.135-5.0674-3.3782 0-7.0546.9936-10.632 2.8814-6.5578 3.4776-10.532 9.3398-10.532 14.407 0 1.391.29808 2.7821.9936 4.0738 1.7885 3.2789 5.5642 4.968 10.135 4.968 3.3782 0 7.0546-.89424 10.632-2.7821 6.5578-3.4776 10.532-9.3398 10.532-14.407 0-1.391-.29808-2.7821-.9936-4.0738" stroke-width=".9936"/>
 <path class="Note" d="m892.77 835.23c-1.7885-3.2789-5.5642-5.0674-10.135-5.0674-3.3782 0-7.0546.9936-10.632 2.8814-6.5578 3.4776-10.532 9.3398-10.532 14.407 0 1.391.29808 2.7821.9936 4.0738 1.7885 3.2789 5.5642 4.968 10.135 4.968 3.3782 0 7.0546-.89424 10.632-2.7821 6.5578-3.4776 10.532-9.3398 10.532-14.407 0-1.391-.29808-2.7821-.9936-4.0738" stroke-width=".9936"/>
 <path class="Note" d="m962.47 835.23c-1.7885-3.2789-5.5642-5.0674-10.135-5.0674-3.3782 0-7.0546.9936-10.632 2.8814-6.5578 3.4776-10.532 9.3398-10.532 14.407 0 1.391.29808 2.7821.9936 4.0738 1.7885 3.2789 5.5642 4.968 10.135 4.968 3.3782 0 7.0546-.89424 10.632-2.7821 6.5578-3.4776 10.532-9.3398 10.532-14.407 0-1.391-.29808-2.7821-.9936-4.0738" stroke-width=".9936"/>
 <path class="Note" d="m1032.2 847.65c-1.7885-3.2789-5.5642-5.0674-10.135-5.0674-3.3783 0-7.0546.9936-10.632 2.8814-6.5578 3.4776-10.532 9.3398-10.532 14.407 0 1.391.2981 2.7821.9936 4.0738 1.7885 3.2789 5.5642 4.968 10.135 4.968 3.3783 0 7.0546-.89424 10.632-2.7821 6.5578-3.4776 10.532-9.3398 10.532-14.407 0-1.391-.2981-2.7821-.9936-4.0738" stroke-width=".9936"/>
 <path class="Note" d="m1168.2 847.65c-1.7885-3.2789-5.5642-5.0674-10.135-5.0674-3.3783 0-7.0546.9936-10.632 2.8814-6.5578 3.4776-10.532 9.3398-10.532 14.407 0 1.391.2981 2.7821.9936 4.0738 1.7885 3.2789 5.5642 4.968 10.135 4.968 3.3783 0 7.0546-.89424 10.632-2.7821 6.5578-3.4776 10.532-9.3398 10.532-14.407 0-1.391-.2981-2.7821-.9936-4.0738" stroke-width=".9936"/>
 <path class="Note" d="m1282.2 835.23c-1.7885-3.2789-5.5642-5.0674-10.135-5.0674-3.3783 0-7.0546.9936-10.632 2.8814-6.5578 3.4776-10.532 9.3398-10.532 14.407 0 1.391.2981 2.7821.9936 4.0738 1.7885 3.2789 5.5642 4.968 10.135 4.968 3.3783 0 7.0546-.89424 10.632-2.7821 6.5578-3.4776 10.532-9.3398 10.532-14.407 0-1.391-.2981-2.7821-.9936-4.0738m-4.2725 6.7565c-1.6891 1.6891-5.0673 3.7757-8.6443 5.7629s-7.1539 3.4776-9.5386 3.9744c-.4968.0994-.9936.19872-1.4904.19872-1.5897 0-2.782-.59616-3.4776-1.8878-.298-.4968-.4968-1.093-.4968-1.6891 0-1.093.6956-2.3846 1.7885-3.4776 1.6891-1.6891 4.968-3.7757 8.545-5.7629 3.5769-1.9872 7.1539-3.4776 9.5385-3.9744.4968-.0994.9936-.19872 1.4904-.19872 1.5898 0 2.8815.59616 3.577 1.8878.2981.4968.3974 1.093.3974 1.6891 0 1.093-.5961 2.2853-1.6891 3.4776" stroke-width=".9936"/>
 <path class="Clef" d="m82.817 104.67c-1.2221-5.3953-3.8452-9.1908-4.6202-10.224-3.1696-4.2427-7.1539-7.0744-11.814-8.4158-3.0901-.8842-6.0709-.9936-8.4754-.81475-1.0333-5.9715-2.0269-11.814-2.9311-17.229 5.4151-6.1306 9.012-11.893 11.277-16.166 3.4478-6.5378 4.5904-11.088 4.6401-11.287 1.709-5.1768 2.0667-12.827.97373-20.985-1.0035-7.5017-3.0802-14.169-5.4151-17.398-1.0234-1.4208-2.0667-2.1462-3.1-2.1462-1.2122 0-3.7061 1.2321-6.5776 3.9843-2.2853 2.1859-5.5344 6.051-8.078 12.023-2.9808 7.0149-3.1895 16.444-2.8417 23.121.37757 7.2235 1.4805 12.877 1.4904 12.927.01987.08933.27821 1.5797.72533 4.1333-.22853.22853-.46699.44712-.71539.68568-1.0333.9936-2.2157 2.1262-3.5869 3.4974-.8545.8546-1.7984 1.7587-2.792 2.7225-8.3959 8.088-21.104 20.329-21.104 39.356 0 4.6699.89424 9.0616 2.6628 13.046 1.5799 3.577 3.8651 6.836 6.7764 9.6876 7.6805 7.5017 18.203 10.691 25.218 10.532 2.9311-.0696 5.5443-.30811 7.919-.75523 1.8183 9.5386 2.951 16.524 2.9907 21.829.03974 6.4683-1.5997 10.413-5.4747 13.165-2.4144 1.7189-5.2065 2.6628-8.2866 2.8119-2.5734.11923-4.819-.34776-6.2398-.75504h-.0099s-.28814-.0795-.29808-.27821c-.0099-.17894.33782-.22862.34776-.22862h.01987c1.9077-.43709 5.4549-1.6592 7.7998-4.9381 1.7885-2.5039 2.6529-7.0944.82469-11.009-1.1029-2.3746-3.5968-5.3057-9.1809-5.7528-2.4741-.19872-4.7295.30792-6.7167 1.5002-1.7984 1.0731-3.2888 2.7026-4.3321 4.6898-2.4443 4.6699-1.9872 10.363 1.1228 14.179 2.9411 3.5968 7.5315 5.892 12.927 6.4682.84456.0895 1.6891.12917 2.5337.12917 4.4016 0 8.7735-1.1923 12.321-3.3882 3.6366-2.5536 5.743-6.5081 6.4187-12.102.55642-4.6104.16891-10.482-1.2221-18.501-.3577-2.0766-.89424-5.0872-1.55-8.8231 5.7132-1.9078 9.8466-5.455 13.592-11.268 3.2689-5.7032 4.2029-11.764 2.7821-18.024m-33.991 26.022c-4.6103-1.2122-9.012-3.6962-12.748-7.1738-1.3016-1.2221-3.1596-3.3782-4.6202-6.7465-1.3612-3.1398-2.017-6.5479-1.9673-10.115.06957-4.66 1.3712-9.4492 3.8651-14.208 2.9013-5.5444 7.4321-11.039 13.453-16.335 1.4407-1.2717 2.802-2.5435 4.0837-3.8154.75514 4.2328 1.5798 8.8927 2.4542 13.742-3.8254 1.2618-8.545 4.3916-11.635 10.005-3.5173 6.528-3.3782 12.013-2.6529 15.47.93398 4.4315 3.4478 8.1674 6.8856 10.244.92405.55632 5.0276 2.6727 6.8558 2.0964.36763-.11923.6359-.33782.77501-.66571.50674-1.1625-.50674-1.7983-2.0568-2.7523-.59616-.36756-1.2619-.78489-1.9872-1.3115-3.2988-2.4741-4.7395-6.8956-3.6763-11.248.57629-2.3846 1.8481-4.5309 3.6763-6.22 1.6593-1.5401 3.6863-2.633 6.051-3.2688 2.0269 11.168 4.0738 22.247 5.7033 30.553.12917.68549.26827 1.3512.39744 2.0169-4.352.92405-8.6741.83472-12.857-.26827m11.248-32.968c10.284-.46699 14.526 6.9254 15.411 11.725.46699 2.5138.45706 6.9254-1.0731 11.108-1.1625 3.1596-3.6068 7.2036-8.7039 9.2505-.06955-.41731-.14904-.84456-.22853-1.2719-1.5301-8.7138-3.4577-19.634-5.4052-30.812m-7.2732-70.486c1.7686-5.7032 4.4911-8.9324 6.4683-10.651 1.7388-1.5103 3.3782-2.2158 4.2924-2.2158.1391 0 .25834.01987.3577.04968.45706.1391.98366.70556 1.4507 1.57 2.2952 4.2624 1.56 10.93.22853 15.341-1.6196 5.3654-4.5209 10.949-13.265 20.498-.16891-1.1029-.32789-2.1462-.47693-3.1198-1.242-8.237-.92405-15.461.94392-21.472" stroke-width=".9936"/>
 <path class="Clef" d="m82.817 452.43c-1.2221-5.3953-3.8452-9.1908-4.6202-10.224-3.1696-4.2427-7.1539-7.0744-11.814-8.4158-3.0901-.88421-6.0709-.9936-8.4754-.81475-1.0333-5.9715-2.0269-11.814-2.9311-17.229 5.4151-6.1306 9.012-11.893 11.277-16.166 3.4478-6.5378 4.5904-11.088 4.6401-11.287 1.709-5.1768 2.0667-12.827.97373-20.985-1.0035-7.5017-3.0802-14.169-5.4151-17.398-1.0234-1.4208-2.0667-2.1462-3.1-2.1462-1.2122 0-3.7061 1.2321-6.5776 3.9843-2.2853 2.1859-5.5344 6.051-8.078 12.023-2.9808 7.0149-3.1895 16.444-2.8417 23.121.37757 7.2235 1.4805 12.877 1.4904 12.927.01987.0893.27821 1.5797.72533 4.1333-.22853.22853-.46699.44712-.71539.68568-1.0333.9936-2.2157 2.1262-3.5869 3.4974-.8545.85459-1.7984 1.7587-2.792 2.7225-8.3959 8.088-21.104 20.329-21.104 39.356 0 4.6699.89424 9.0616 2.6628 13.046 1.5799 3.577 3.8651 6.836 6.7764 9.6876 7.6805 7.5017 18.203 10.691 25.218 10.532 2.9311-.0695 5.5443-.30811 7.919-.75523 1.8183 9.5386 2.951 16.524 2.9907 21.829.03974 6.4683-1.5997 10.413-5.4747 13.165-2.4144 1.7189-5.2065 2.6628-8.2866 2.8119-2.5734.11923-4.819-.34776-6.2398-.75504h-.0099s-.28814-.0795-.29808-.27821c-.0099-.17894.33782-.22862.34776-.22862h.01987c1.9077-.43709 5.4549-1.6592 7.7998-4.9381 1.7885-2.5039 2.6529-7.0944.82469-11.009-1.1029-2.3746-3.5968-5.3057-9.1809-5.7528-2.4741-.19872-4.7295.30792-6.7167 1.5002-1.7984 1.0731-3.2888 2.7026-4.3321 4.6898-2.4443 4.6699-1.9872 10.363 1.1228 14.179 2.9411 3.5968 7.5315 5.892 12.927 6.4682.84456.0895 1.6891.12917 2.5337.12917 4.4016 0 8.7735-1.1923 12.321-3.3882 3.6366-2.5536 5.743-6.5081 6.4187-12.102.55642-4.6104.16891-10.482-1.2221-18.501-.3577-2.0766-.89424-5.0872-1.55-8.8231 5.7132-1.9078 9.8466-5.455 13.592-11.268 3.2689-5.7032 4.2029-11.764 2.7821-18.024m-33.991 26.022c-4.6103-1.2122-9.012-3.6962-12.748-7.1738-1.3016-1.2221-3.1596-3.3782-4.6202-6.7465-1.3612-3.1398-2.017-6.5479-1.9673-10.115.06957-4.66 1.3712-9.4492 3.8651-14.208 2.9013-5.5444 7.4321-11.039 13.453-16.335 1.4407-1.2717 2.802-2.5435 4.0837-3.8154.75514 4.2328 1.5798 8.8927 2.4542 13.742-3.8254 1.2618-8.545 4.3916-11.635 10.005-3.5173 6.528-3.3782 12.013-2.6529 15.47.93398 4.4315 3.4478 8.1674 6.8856 10.244.92405.55632 5.0276 2.6727 6.8558 2.0964.36763-.11923.6359-.33782.77501-.66571.50674-1.1625-.50674-1.7983-2.0568-2.7523-.59616-.36756-1.2619-.78489-1.9872-1.3115-3.2988-2.4741-4.7395-6.8956-3.6763-11.248.57629-2.3846 1.8481-4.5309 3.6763-6.22 1.6593-1.5401 3.6863-2.633 6.051-3.2688 2.0269 11.168 4.0738 22.247 5.7033 30.553.12917.68549.26827 1.3512.39744 2.0169-4.352.92405-8.6741.83472-12.857-.26827m11.248-32.968c10.284-.46699 14.526 6.9254 15.411 11.725.46699 2.5138.45706 6.9254-1.0731 11.108-1.1625 3.1596-3.6068 7.2036-8.7039 9.2505-.06955-.41731-.14904-.84456-.22853-1.2719-1.5301-8.7138-3.4577-19.634-5.4052-30.812m-7.2732-70.486c1.7686-5.7032 4.4911-8.9324 6.4683-10.651 1.7388-1.5103 3.3782-2.2158 4.2924-2.2158.1391 0 .25834.0199.3577.0497.45706.1391.98366.70555 1.4507 1.57 2.2952 4.2624 1.56 10.93.22853 15.341-1.6196 5.3654-4.5209 10.949-13.265 20.498-.16891-1.1029-.32789-2.1462-.47693-3.1198-1.242-8.237-.92405-15.461.94392-21.472" stroke-width=".9936"/>
 <path class="Clef" d="m82.817 800.19c-1.2221-5.3953-3.8452-9.1908-4.6202-10.224-3.1696-4.2427-7.1539-7.0744-11.814-8.4158-3.0901-.88421-6.0709-.9936-8.4754-.81475-1.0333-5.9715-2.0269-11.814-2.9311-17.229 5.4151-6.1306 9.012-11.893 11.277-16.166 3.4478-6.5378 4.5904-11.088 4.6401-11.287 1.709-5.1768 2.0667-12.827.97373-20.985-1.0035-7.5017-3.0802-14.169-5.4151-17.398-1.0234-1.4208-2.0667-2.1462-3.1-2.1462-1.2122 0-3.7061 1.2321-6.5776 3.9843-2.2853 2.1859-5.5344 6.051-8.078 12.023-2.9808 7.0149-3.1895 16.444-2.8417 23.121.37757 7.2235 1.4805 12.877 1.4904 12.927.01987.0893.27821 1.5797.72533 4.1333-.22853.22853-.46699.44712-.71539.68568-1.0333.9936-2.2157 2.1262-3.5869 3.4974-.8545.85459-1.7984 1.7587-2.792 2.7225-8.3959 8.088-21.104 20.329-21.104 39.356 0 4.6699.89424 9.0616 2.6628 13.046 1.5799 3.577 3.8651 6.836 6.7764 9.6876 7.6805 7.5017 18.203 10.691 25.218 10.532 2.9311-.0695 5.5443-.30811 7.919-.75523 1.8183 9.5386 2.951 16.524 2.9907 21.829.03974 6.4683-1.5997 10.413-5.4747 13.165-2.4144 1.7189-5.2065 2.6628-8.2866 2.8119-2.5734.11923-4.819-.34776-6.2398-.75504h-.0099s-.28814-.0795-.29808-.27821c-.0099-.17894.33782-.22862.34776-.22862h.01987c1.9077-.43709 5.4549-1.6592 7.7998-4.9381 1.7885-2.5039 2.6529-7.0944.82469-11.009-1.1029-2.3746-3.5968-5.3057-9.1809-5.7528-2.4741-.19872-4.7295.30792-6.7167 1.5002-1.7984 1.0731-3.2888 2.7026-4.3321 4.6898-2.4443 4.6699-1.9872 10.363 1.1228 14.179 2.9411 3.5968 7.5315 5.892 12.927 6.4682.84456.0895 1.6891.12917 2.5337.12917 4.4016 0 8.7735-1.1923 12.321-3.3882 3.6366-2.5536 5.743-6.5081 6.4187-12.102.55642-4.6104.16891-10.482-1.2221-18.501-.3577-2.0766-.89424-5.0872-1.55-8.8231 5.7132-1.9078 9.8466-5.455 13.592-11.268 3.2689-5.7032 4.2029-11.764 2.7821-18.024m-33.991 26.022c-4.6103-1.2122-9.012-3.6962-12.748-7.1738-1.3016-1.2221-3.1596-3.3782-4.6202-6.7465-1.3612-3.1398-2.017-6.5479-1.9673-10.115.06957-4.66 1.3712-9.4492 3.8651-14.208 2.9013-5.5444 7.4321-11.039 13.453-16.335 1.4407-1.2717 2.802-2.5435 4.0837-3.8154.75514 4.2328 1.5798 8.8927 2.4542 13.742-3.8254 1.2618-8.545 4.3916-11.635 10.005-3.5173 6.528-3.3782 12.013-2.6529 15.47.93398 4.4315 3.4478 8.1674 6.8856 10.244.92405.55632 5.0276 2.6727 6.8558 2.0964.36763-.11923.6359-.33782.77501-.66571.50674-1.1625-.50674-1.7983-2.0568-2.7523-.59616-.36756-1.2619-.78489-1.9872-1.3115-3.2988-2.4741-4.7395-6.8956-3.6763-11.248.57629-2.3846 1.8481-4.5309 3.6763-6.22 1.6593-1.5401 3.6863-2.633 6.051-3.2688 2.0269 11.168 4.0738 22.247 5.7033 30.553.12917.68549.26827 1.3512.39744 2.0169-4.352.92405-8.6741.83472-12.857-.26827m11.248-32.968c10.284-.46699 14.526 6.9254 15.411 11.725.46699 2.5138.45706 6.9254-1.0731 11.108-1.1625 3.1596-3.6068 7.2036-8.7039 9.2505-.06955-.41731-.14904-.84456-.22853-1.2719-1.5301-8.7138-3.4577-19.634-5.4052-30.812m-7.2732-70.486c1.7686-5.7032 4.4911-8.9324 6.4683-10.651 1.7388-1.5103 3.3782-2.2158 4.2924-2.2158.1391 0 .25834.0199.3577.0497.45706.1391.98366.70555 1.4507 1.57 2.2952 4.2624 1.56 10.93.22853 15.341-1.6196 5.3654-4.5209 10.949-13.265 20.498-.16891-1.1029-.32789-2.1462-.47693-3.1198-1.242-8.237-.92405-15.461.94392-21.472" stroke-width=".9936"/>
 <path class="KeySig" d="m227.62 102.65c-.59616-3.875-2.9808-7.5514-8.0482-7.5514-4.968 0-7.8494 3.0802-8.3462 3.6763l.39744-31.895c0-.79488-.59616-1.391-1.391-1.391h-1.1923c-.79488 0-1.391.59616-1.391 1.391l.4968 59.715c0 .79488.59616 1.391 1.391 1.391.19872 0 .59616-.0994.79488-.19872.39744-.19872 6.8558-3.3782 12.221-9.4392 3.7757-4.2725 5.2661-9.1411 5.2661-13.215 0-.89424-.0994-1.6891-.19872-2.484m-6.8558 3.875c0 1.4904-.39744 6.061-2.8814 9.8366-1.6891 2.5834-5.0674 5.2661-6.9552 6.7565l.29808-19.375c.19872-.89424 1.6891-3.7757 5.6635-3.7757 3.577 0 3.875 3.3782 3.875 5.4648v1.093" stroke-width=".9936"/>
 <path class="KeySig" d="m202.78 52.969c-.59616-3.875-2.9808-7.5514-8.0482-7.5514-4.968 0-7.8494 3.0802-8.3462 3.6763l.39744-31.895c0-.79488-.59616-1.391-1.391-1.391h-1.1923c-.79488 0-1.391.59616-1.391 1.391l.4968 59.715c0 .79488.59616 1.391 1.391 1.391.19872 0 .59616-.09936.79488-.19872.39744-.19872 6.8558-3.3782 12.221-9.4392 3.7757-4.2725 5.2661-9.1411 5.2661-13.215 0-.89424-.0994-1.6891-.19872-2.484m-6.8558 3.875c0 1.4904-.39744 6.061-2.8814 9.8366-1.6891 2.5834-5.0674 5.2661-6.9552 6.7565l.29808-19.375c.19872-.89424 1.6891-3.7757 5.6635-3.7757 3.577 0 3.875 3.3782 3.875 5.4648v1.093" stroke-width=".9936"/>
 <path class="KeySig" d="m177.94 90.229c-.59616-3.875-2.9808-7.5514-8.0482-7.5514-4.968 0-7.8494 3.0802-8.3462 3.6763l.39744-31.895c0-.79488-.59616-1.391-1.391-1.391h-1.1923c-.79488 0-1.391.59616-1.391 1.391l.4968 59.715c0 .79488.59616 1.391 1.391 1.391.19872 0 .59616-.0994.79488-.19872.39744-.19872 6.8558-3.3782 12.221-9.4392 3.7757-4.2725 5.2661-9.1411 5.2661-13.215 0-.89424-.0994-1.6891-.19872-2.484m-6.8558 3.875c0 1.4904-.39744 6.061-2.8814 9.8366-1.6891 2.5834-5.0674 5.2661-6.9552 6.7565l.29808-19.375c.19872-.89424 1.6891-3.7757 5.6635-3.7757 3.577 0 3.875 3.3782 3.875 5.4648v1.093" stroke-width=".9936"/>
 <path class="KeySig" d="m153.1 40.549c-.59616-3.875-2.9808-7.5514-8.0482-7.5514-4.968 0-7.8494 3.0802-8.3462 3.6763l.39744-31.895c0-.79488-.59616-1.391-1.391-1.391h-1.1923c-.79488 0-1.391.59616-1.391 1.391l.4968 59.715c0 .79488.59616 1.391 1.391 1.391.19872 0 .59616-.09936.79488-.19872.39744-.19872 6.8558-3.3782 12.221-9.4392 3.7757-4.2725 5.2661-9.1411 5.2661-13.215 0-.89424-.0994-1.6891-.19872-2.484m-6.8558 3.875c0 1.4904-.39744 6.061-2.8814 9.8366-1.6891 2.5834-5.0674 5.2661-6.9552 6.7565l.29808-19.375c.19872-.89424 1.6891-3.7757 5.6635-3.7757 3.577 0 3.875 3.3782 3.875 5.4648v1.093" stroke-width=".9936"/>
 <path class="KeySig" d="m128.26 77.809c-.59616-3.875-2.9808-7.5514-8.0482-7.5514-4.968 0-7.8494 3.0802-8.3462 3.6763l.39744-31.895c0-.79488-.59616-1.391-1.391-1.391h-1.1923c-.79488 0-1.391.59616-1.391 1.391l.4968 59.715c0 .79488.59616 1.391 1.391 1.391.19872 0 .59616-.0994.79488-.19872.39744-.19872 6.8558-3.3782 12.221-9.4392 3.7757-4.2725 5.2661-9.1411 5.2661-13.215 0-.89424-.0994-1.6891-.19872-2.484m-6.8558 3.875c0 1.4904-.39744 6.061-2.8814 9.8366-1.6891 2.5834-5.0674 5.2661-6.9552 6.7565l.29808-19.375c.19872-.89424 1.6891-3.7757 5.6635-3.7757 3.577 0 3.875 3.3782 3.875 5.4648v1.093" stroke-width=".9936"/>
 <path class="KeySig" d="m227.62 450.41c-.59616-3.875-2.9808-7.5514-8.0482-7.5514-4.968 0-7.8494 3.0802-8.3462 3.6763l.39744-31.895c0-.79488-.59616-1.391-1.391-1.391h-1.1923c-.79488 0-1.391.59616-1.391 1.391l.4968 59.715c0 .79488.59616 1.391 1.391 1.391.19872 0 .59616-.0994.79488-.19872.39744-.19872 6.8558-3.3782 12.221-9.4392 3.7757-4.2725 5.2661-9.1411 5.2661-13.215 0-.89424-.0994-1.6891-.19872-2.484m-6.8558 3.875c0 1.4904-.39744 6.061-2.8814 9.8366-1.6891 2.5834-5.0674 5.2661-6.9552 6.7565l.29808-19.375c.19872-.89424 1.6891-3.7757 5.6635-3.7757 3.577 0 3.875 3.3782 3.875 5.4648v1.093" stroke-width=".9936"/>
 <path class="KeySig" d="m202.78 400.73c-.59616-3.875-2.9808-7.5514-8.0482-7.5514-4.968 0-7.8494 3.0802-8.3462 3.6763l.39744-31.895c0-.79488-.59616-1.391-1.391-1.391h-1.1923c-.79488 0-1.391.59616-1.391 1.391l.4968 59.715c0 .79488.59616 1.391 1.391 1.391.19872 0 .59616-.0994.79488-.19872.39744-.19872 6.8558-3.3782 12.221-9.4392 3.7757-4.2725 5.2661-9.1411 5.2661-13.215 0-.89424-.0994-1.6891-.19872-2.484m-6.8558 3.875c0 1.4904-.39744 6.061-2.8814 9.8366-1.6891 2.5834-5.0674 5.2661-6.9552 6.7565l.29808-19.375c.19872-.89424 1.6891-3.7757 5.6635-3.7757 3.577 0 3.875 3.3782 3.875 5.4648v1.093" stroke-width=".9936"/>
 <path class="KeySig" d="m177.94 437.99c-.59616-3.875-2.9808-7.5514-8.0482-7.5514-4.968 0-7.8494 3.0802-8.3462 3.6763l.39744-31.895c0-.79488-.59616-1.391-1.391-1.391h-1.1923c-.79488 0-1.391.59616-1.391 1.391l.4968 59.715c0 .79488.59616 1.391 1.391 1.391.19872 0 .59616-.0994.79488-.19872.39744-.19872 6.8558-3.3782 12.221-9.4392 3.7757-4.2725 5.2661-9.1411 5.2661-13.215 0-.89424-.0994-1.6891-.19872-2.484m-6.8558 3.875c0 1.4904-.39744 6.061-2.8814 9.8366-1.6891 2.5834-5.0674 5.2661-6.9552 6.7565l.29808-19.375c.19872-.89424 1.6891-3.7757 5.6635-3.7757 3.577 0 3.875 3.3782 3.875 5.4648v1.093" stroke-width=".9936"/>
 <path class="KeySig" d="m153.1 388.31c-.59616-3.875-2.9808-7.5514-8.0482-7.5514-4.968 0-7.8494 3.0802-8.3462 3.6763l.39744-31.895c0-.79488-.59616-1.391-1.391-1.391h-1.1923c-.79488 0-1.391.59616-1.391 1.391l.4968 59.715c0 .79488.59616 1.391 1.391 1.391.19872 0 .59616-.0994.79488-.19872.39744-.19872 6.8558-3.3782 12.221-9.4392 3.7757-4.2725 5.2661-9.1411 5.2661-13.215 0-.89424-.0994-1.6891-.19872-2.484m-6.8558 3.875c0 1.4904-.39744 6.061-2.8814 9.8366-1.6891 2.5834-5.0674 5.2661-6.9552 6.7565l.29808-19.375c.19872-.89424 1.6891-3.7757 5.6635-3.7757 3.577 0 3.875 3.3782 3.875 5.4648v1.093" stroke-width=".9936"/>
 <path class="KeySig" d="m128.26 425.57c-.59616-3.875-2.9808-7.5514-8.0482-7.5514-4.968 0-7.8494 3.0802-8.3462 3.6763l.39744-31.895c0-.79488-.59616-1.391-1.391-1.391h-1.1923c-.79488 0-1.391.59616-1.391 1.391l.4968 59.715c0 .79488.59616 1.391 1.391 1.391.19872 0 .59616-.0994.79488-.19872.39744-.19872 6.8558-3.3782 12.221-9.4392 3.7757-4.2725 5.2661-9.1411 5.2661-13.215 0-.89424-.0994-1.6891-.19872-2.484m-6.8558 3.875c0 1.4904-.39744 6.061-2.8814 9.8366-1.6891 2.5834-5.0674 5.2661-6.9552 6.7565l.29808-19.375c.19872-.89424 1.6891-3.7757 5.6635-3.7757 3.577 0 3.875 3.3782 3.875 5.4648v1.093" stroke-width=".9936"/>
 <path class="KeySig" d="m227.62 798.17c-.59616-3.875-2.9808-7.5514-8.0482-7.5514-4.968 0-7.8494 3.0802-8.3462 3.6763l.39744-31.895c0-.79488-.59616-1.391-1.391-1.391h-1.1923c-.79488 0-1.391.59616-1.391 1.391l.4968 59.715c0 .79488.59616 1.391 1.391 1.391.19872 0 .59616-.0994.79488-.19872.39744-.19872 6.8558-3.3782 12.221-9.4392 3.7757-4.2725 5.2661-9.1411 5.2661-13.215 0-.89424-.0994-1.6891-.19872-2.484m-6.8558 3.875c0 1.4904-.39744 6.061-2.8814 9.8366-1.6891 2.5834-5.0674 5.2661-6.9552 6.7565l.29808-19.375c.19872-.89424 1.6891-3.7757 5.6635-3.7757 3.577 0 3.875 3.3782 3.875 5.4648v1.093" stroke-width=".9936"/>
 <path class="KeySig" d="m202.78 748.49c-.59616-3.875-2.9808-7.5514-8.0482-7.5514-4.968 0-7.8494 3.0802-8.3462 3.6763l.39744-31.895c0-.79488-.59616-1.391-1.391-1.391h-1.1923c-.79488 0-1.391.59616-1.391 1.391l.4968 59.715c0 .79488.59616 1.391 1.391 1.391.19872 0 .59616-.0994.79488-.19872.39744-.19872 6.8558-3.3782 12.221-9.4392 3.7757-4.2725 5.2661-9.1411 5.2661-13.215 0-.89424-.0994-1.6891-.19872-2.484m-6.8558 3.875c0 1.4904-.39744 6.061-2.8814 9.8366-1.6891 2.5834-5.0674 5.2661-6.9552 6.7565l.29808-19.375c.19872-.89424 1.6891-3.7757 5.6635-3.7757 3.577 0 3.875 3.3782 3.875 5.4648v1.093" stroke-width=".9936"/>
 <path class="KeySig" d="m177.94 785.75c-.59616-3.875-2.9808-7.5514-8.0482-7.5514-4.968 0-7.8494 3.0802-8.3462 3.6763l.39744-31.895c0-.79488-.59616-1.391-1.391-1.391h-1.1923c-.79488 0-1.391.59616-1.391 1.391l.4968 59.715c0 .79488.59616 1.391 1.391 1.391.19872 0 .59616-.0994.79488-.19872.39744-.19872 6.8558-3.3782 12.221-9.4392 3.7757-4.2725 5.2661-9.1411 5.2661-13.215 0-.89424-.0994-1.6891-.19872-2.484m-6.8558 3.875c0 1.4904-.39744 6.061-2.8814 9.8366-1.6891 2.5834-5.0674 5.2661-6.9552 6.7565l.29808-19.375c.19872-.89424 1.6891-3.7757 5.6635-3.7757 3.577 0 3.875 3.3782 3.875 5.4648v1.093" stroke-width=".9936"/>
 <path class="KeySig" d="m153.1 736.07c-.59616-3.875-2.9808-7.5514-8.0482-7.5514-4.968 0-7.8494 3.0802-8.3462 3.6763l.39744-31.895c0-.79488-.59616-1.391-1.391-1.391h-1.1923c-.79488 0-1.391.59616-1.391 1.391l.4968 59.715c0 .79488.59616 1.391 1.391 1.391.19872 0 .59616-.0994.79488-.19872.39744-.19872 6.8558-3.3782 12.221-9.4392 3.7757-4.2725 5.2661-9.1411 5.2661-13.215 0-.89424-.0994-1.6891-.19872-2.484m-6.8558 3.875c0 1.4904-.39744 6.061-2.8814 9.8366-1.6891 2.5834-5.0674 5.2661-6.9552 6.7565l.29808-19.375c.19872-.89424 1.6891-3.7757 5.6635-3.7757 3.577 0 3.875 3.3782 3.875 5.4648v1.093" stroke-width=".9936"/>
 <path class="KeySig" d="m128.26 773.33c-.59616-3.875-2.9808-7.5514-8.0482-7.5514-4.968 0-7.8494 3.0802-8.3462 3.6763l.39744-31.895c0-.79488-.59616-1.391-1.391-1.391h-1.1923c-.79488 0-1.391.59616-1.391 1.391l.4968 59.715c0 .79488.59616 1.391 1.391 1.391.19872 0 .59616-.0994.79488-.19872.39744-.19872 6.8558-3.3782 12.221-9.4392 3.7757-4.2725 5.2661-9.1411 5.2661-13.215 0-.89424-.0994-1.6891-.19872-2.484m-6.8558 3.875c0 1.4904-.39744 6.061-2.8814 9.8366-1.6891 2.5834-5.0674 5.2661-6.9552 6.7565l.29808-19.375c.19872-.89424 1.6891-3.7757 5.6635-3.7757 3.577 0 3.875 3.3782 3.875 5.4648v1.093" stroke-width=".9936"/>
 <path class="TimeSig" d="m254.86 73.519h17.07v7.3725h-8.1773c-.7749 0-1.4009.62597-1.4009 1.401v1.8978c0 .77501.62597 1.401 1.4009 1.401h30.056c.77501 0 1.401-.62597 1.401-1.401v-1.8978c0-.77501-.62597-1.401-1.401-1.401h-8.8828v-7.3725h8.8828c.77501 0 1.401-.62597 1.401-1.401v-1.8978c0-.77499-.62597-1.4009-1.401-1.4009h-8.8828v-15.858c0-.53648-.29808-1.0134-.77501-1.2519l-1.2022-.59616c-.52661-.25834-1.1527-.16891-1.5799.22851l-8.9921 8.2668c-.28804.26829-.45695.63594-.45695 1.0334v8.1773h-11.436s11.049-11.953 22.813-27.622c.86443-1.1426.36763-2.1859.17874-2.3747l-2.1561-2.1959c-.26827-.25834-.62597-.40738-.9936-.40738-.59616 0-14.059.01987-14.775 0-.71529-.01987-1.2519.59616-1.3215 1.2122 0 0-.53644 7.3129-3.1198 15.391-2.5834 8.0681-5.5046 13.016-8.1475 16.623 0 0-.53659.9837-.17893 1.7189.34776.7452.97381 1.8282.97381 1.8282s.25829.52661 1.1028.52661" stroke-width=".9936"/>
 <path class="TimeSig" d="m254.86 122.94h17.07v7.3725h-8.1773c-.7749 0-1.4009.62597-1.4009 1.401v1.8978c0 .77501.62597 1.401 1.4009 1.401h30.056c.77501 0 1.401-.62597 1.401-1.401v-1.8978c0-.775-.62597-1.401-1.401-1.401h-8.8828v-7.3725h8.8828c.77501 0 1.401-.62597 1.401-1.401v-1.8978c0-.77498-.62597-1.4009-1.401-1.4009h-8.8828v-15.858c0-.53648-.29808-1.0134-.77501-1.2519l-1.2022-.59616c-.52661-.25834-1.1527-.16892-1.5799.2285l-8.9921 8.2668c-.28804.26829-.45695.63594-.45695 1.0334v8.1773h-11.436s11.049-11.953 22.813-27.622c.86443-1.1426.36763-2.1859.17874-2.3747l-2.1561-2.1959c-.26827-.25834-.62597-.40738-.9936-.40738-.59616 0-14.059.01987-14.775 0-.71529-.01987-1.2519.59616-1.3215 1.2122 0 0-.53644 7.3129-3.1198 15.391-2.5834 8.068-5.5046 13.016-8.1475 16.623 0 0-.53659.9837-.17893 1.7189.34776.7452.97381 1.8282.97381 1.8282s.25829.52661 1.1028.52661" stroke-width=".9936"/>
 <path class="Rest" d="m1356.6 102.45-.1987-.29808c-.099-.0994-.2981-.29808-.5962-.69552l-11.426-14.109c-.298-.29808-.1987-1.093 0-1.4904l10.135-15.301c.099-.19872.1987-.4968.1987-.69552v-.89424c0-.29808-.099-.59616-.2981-.79488l-16.096-21.76s-.7949-1.1923-1.7885-.29808c-.9936.79488-.1987 2.0866-.1987 2.0866l7.5513 10.333c.3975.59616.3975 1.7885 0 2.3846l-10.035 15.301c-.099.19872-.1987.59616-.1987.79488v.89424c0 .29808.099.59616.298.79488l11.128 13.811c-.3975-.09936-1.2917-.29808-2.484-.29808-1.6892 0-3.8751.39744-5.6636 1.9872-2.1859 1.9872-3.3782 4.7693-3.3782 7.2533 0 1.391.2981 2.7821 1.093 3.875 2.0865 3.1795 9.5385 12.619 9.5385 12.619s.8943 1.093 1.7885.39744.6955-1.5898.3974-2.0866c-.298-.4968-3.4776-6.2597-3.4776-6.2597s-.6955-1.391-.6955-3.1795c0-1.2917.3975-2.8814 1.6891-4.1731 1.1924-1.1923 2.5834-1.5898 3.8751-1.5898s2.3846.39744 3.1795.89424l3.875 2.484s1.1924.59616 1.7885-.29808c.4968-.79488.2981-1.1923 0-1.6891" stroke-width=".9936"/>
 <path class="Rest" d="m1346.9 450.21-.1987-.29808c-.099-.0994-.2981-.29808-.5962-.69552l-11.426-14.109c-.298-.29808-.1987-1.093 0-1.4904l10.135-15.301c.099-.19872.1987-.4968.1987-.69552v-.89424c0-.29808-.099-.59616-.2981-.79488l-16.096-21.76s-.7949-1.1923-1.7885-.29808c-.9936.79488-.1987 2.0866-.1987 2.0866l7.5513 10.333c.3975.59616.3975 1.7885 0 2.3846l-10.035 15.301c-.099.19872-.1987.59616-.1987.79488v.89424c0 .29808.099.59616.298.79488l11.128 13.811c-.3975-.0994-1.2917-.29808-2.484-.29808-1.6892 0-3.8751.39744-5.6636 1.9872-2.1859 1.9872-3.3782 4.7693-3.3782 7.2533 0 1.391.2981 2.7821 1.093 3.875 2.0865 3.1795 9.5385 12.619 9.5385 12.619s.8943 1.093 1.7885.39744.6955-1.5898.3974-2.0866c-.298-.4968-3.4776-6.2597-3.4776-6.2597s-.6955-1.391-.6955-3.1795c0-1.2917.3975-2.8814 1.6891-4.1731 1.1924-1.1923 2.5834-1.5898 3.8751-1.5898s2.3846.39744 3.1795.89424l3.875 2.484s1.1924.59616 1.7885-.29808c.4968-.79488.2981-1.1923 0-1.6891" stroke-width=".9936"/>
 <path class="Rest" d="m1325.4 769.45v10.731c0 1.391 0 1.391 1.391 1.391h29.51c1.391 0 1.391 0 1.391-1.391v-10.731c0-1.391 0-1.391-1.391-1.391h-29.51c-1.391 0-1.391 0-1.391 1.391" stroke-width=".9936"/>
 <path class="Beam" d="m1030.4 774.97h138.72v12.42h-138.72v-12.42" fill-rule="evenodd"/>
 <path class="Beam" d="m1169.1 793.6h-32.29v12.42h32.29v-12.42" fill-rule="evenodd"/>
 <path class="Hook" d="m493.52 51.876c-.0994-.29808-.9936-3.7757-.9936-3.9744-.0994-.39744-.69552-.69552-1.1923-.69552-.69552 0-1.2917.59616-1.2917 1.2917v22.455c0 .4968.39744.89424.79488 1.093 4.1731 1.2917 12.817 6.7565 19.276 17.785 1.7885 3.0802 4.6699 7.2533 4.6699 15.6 0 7.1539-1.093 14.705-2.8814 21.66-.29808 1.093-.59616 2.0866.4968 2.484s1.4904-.39744 1.8878-1.391c3.577-8.7437 4.4712-17.885 4.4712-24.045v-1.8878c-.4968-12.817-7.8494-22.257-7.8494-22.257.29808 0-9.1411-12.221-11.824-16.394-3.6763-5.6635-5.4648-11.327-5.5642-11.724" stroke-width=".9936"/>
 <path class="Hook" d="m577.6 39.456c-.0994-.29808-.9936-3.7757-.9936-3.9744-.0994-.39744-.69552-.69552-1.1923-.69552-.69552 0-1.2917.59616-1.2917 1.2917v22.455c0 .4968.39744.89424.79488 1.093 4.1731 1.2917 12.817 6.7565 19.276 17.785 1.7885 3.0802 4.6699 7.2533 4.6699 15.6 0 7.1539-1.093 14.705-2.8814 21.66-.29808 1.093-.59616 2.0866.4968 2.484s1.4904-.39744 1.8878-1.391c3.577-8.7437 4.4712-17.885 4.4712-24.045v-1.8878c-.4968-12.817-7.8494-22.257-7.8494-22.257.29808 0-9.1411-12.221-11.824-16.394-3.6763-5.6635-5.4648-11.327-5.5642-11.724" stroke-width=".9936"/>
 <path class="Hook" d="m661.68 64.296c-.0994-.29808-.9936-3.7757-.9936-3.9744-.0994-.39744-.69552-.69552-1.1923-.69552-.69552 0-1.2917.59616-1.2917 1.2917v22.455c0 .4968.39744.89424.79488 1.093 4.1731 1.2917 12.817 6.7565 19.276 17.785 1.7885 3.0802 4.6699 7.2533 4.6699 15.6 0 7.1539-1.093 14.705-2.8814 21.66-.29808 1.093-.59616 2.0866.4968 2.484s1.4904-.39744 1.8878-1.391c3.577-8.7437 4.4712-17.885 4.4712-24.045v-1.8878c-.4968-12.817-7.8494-22.257-7.8494-22.257.29808 0-9.1411-12.221-11.824-16.394-3.6763-5.6635-5.4648-11.327-5.5642-11.724" stroke-width=".9936"/>
 <path class="Hook" d="m745.77 89.136c-.0994-.29808-.9936-3.7757-.9936-3.9744-.0994-.39744-.69552-.69552-1.1923-.69552-.69552 0-1.2917.59616-1.2917 1.2917v22.455c0 .4968.39744.89424.79488 1.093 4.1731 1.2917 12.817 6.7565 19.276 17.785 1.7885 3.0802 4.6699 7.2533 4.6699 15.6 0 7.1539-1.093 14.705-2.8814 21.66-.29808 1.093-.59616 2.0866.4968 2.484s1.4904-.39744 1.8878-1.391c3.577-8.7437 4.4712-17.885 4.4712-24.045v-1.8878c-.4968-12.817-7.8494-22.257-7.8494-22.257.29808 0-9.1411-12.221-11.824-16.394-3.6763-5.6635-5.4648-11.327-5.5642-11.724" stroke-width=".9936"/>
 <path class="Hook" d="m854.19 130.87c-.0994-5.1667-1.2917-10.532-4.7693-15.003-4.7693-6.1603-11.029-9.2405-14.805-14.705-3.7757-5.4648-5.3654-16.096-5.3654-16.096-.0994-.69552-.29808-1.1923-1.4904-1.1923s-1.391.4968-1.391 1.1923v38.055c0 .19872.69552.79488 1.391.9936 2.5834.9936 10.433 5.8622 16.394 14.705 3.577 5.4648 4.1731 9.1411 4.1731 12.718v1.093c-.0994 2.484-.69552 7.5514-2.1859 11.526-.29808.89424-.79488 2.1859.19872 2.6827s1.5898-.59616 2.0866-1.2917c1.7885-2.8814 4.3718-8.1475 4.3718-13.811 0-2.7821-.19872-5.2661-.4968-7.3526.9936-3.577 1.8878-8.0482 1.8878-12.718v-.79488m-7.0546 1.391c-2.6827-3.4776-5.6635-6.6571-10.532-11.526-3.875-3.875-5.6635-7.2533-6.359-9.8366-.0994-.19872-.0994-.59616-.19872-.89424l.0994.39744c4.4712.39744 10.532 4.8686 14.308 9.4392 4.4712 5.3654 5.3654 9.5386 5.3654 13.414 0 .9936 0 1.8878-.0994 2.8814-.59616-1.093-1.7885-2.8814-2.5834-3.875" stroke-width=".9936"/>
 <path class="Hook" d="m925.21 130.87c-.0994-5.1667-1.2917-10.532-4.7693-15.003-4.7693-6.1603-11.029-9.2405-14.805-14.705-3.7757-5.4648-5.3654-16.096-5.3654-16.096-.0994-.69552-.29808-1.1923-1.4904-1.1923s-1.391.4968-1.391 1.1923v38.055c0 .19872.69552.79488 1.391.9936 2.5834.9936 10.433 5.8622 16.394 14.705 3.577 5.4648 4.1731 9.1411 4.1731 12.718v1.093c-.0994 2.484-.69552 7.5514-2.1859 11.526-.29808.89424-.79488 2.1859.19872 2.6827s1.5898-.59616 2.0866-1.2917c1.7885-2.8814 4.3718-8.1475 4.3718-13.811 0-2.7821-.19872-5.2661-.4968-7.3526.9936-3.577 1.8878-8.0482 1.8878-12.718v-.79488m-7.0546 1.391c-2.6827-3.4776-5.6635-6.6571-10.532-11.526-3.875-3.875-5.6635-7.2533-6.359-9.8366-.0994-.19872-.0994-.59616-.19872-.89424l.0994.39744c4.4712.39744 10.532 4.8686 14.308 9.4392 4.4712 5.3654 5.3654 9.5386 5.3654 13.414 0 .9936 0 1.8878-.0994 2.8814-.59616-1.093-1.7885-2.8814-2.5834-3.875" stroke-width=".9936"/>
 <path class="Hook" d="m1141.8 64.296c-.099-.29808-.9936-3.7757-.9936-3.9744-.099-.39744-.6955-.69552-1.1923-.69552-.6955 0-1.2917.59616-1.2917 1.2917v22.455c0 .4968.3974.89424.7949 1.093 4.1731 1.2917 12.817 6.7565 19.276 17.785 1.7885 3.0802 4.6699 7.2533 4.6699 15.6 0 7.1539-1.0929 14.705-2.8814 21.66-.2981 1.093-.5962 2.0866.4968 2.484s1.4904-.39744 1.8878-1.391c3.577-8.7437 4.4712-17.885 4.4712-24.045v-1.8878c-.4968-12.817-7.8494-22.257-7.8494-22.257.2981 0-9.1411-12.221-11.824-16.394-3.6764-5.6635-5.4648-11.327-5.5642-11.724" stroke-width=".9936"/>
 <path class="Hook" d="m1207.7 89.136c-.099-.29808-.9936-3.7757-.9936-3.9744-.099-.39744-.6955-.69552-1.1923-.69552-.6955 0-1.2917.59616-1.2917 1.2917v22.455c0 .4968.3974.89424.7949 1.093 4.1731 1.2917 12.817 6.7565 19.276 17.785 1.7885 3.0802 4.6699 7.2533 4.6699 15.6 0 7.1539-1.0929 14.705-2.8814 21.66-.2981 1.093-.5962 2.0866.4968 2.484s1.4904-.39744 1.8878-1.391c3.577-8.7437 4.4712-17.885 4.4712-24.045v-1.8878c-.4968-12.817-7.8494-22.257-7.8494-22.257.2981 0-9.1411-12.221-11.824-16.394-3.6764-5.6635-5.4648-11.327-5.5642-11.724" stroke-width=".9936"/>
 <path class="Hook" d="m445.12 399.64c-.0994-.29808-.9936-3.7757-.9936-3.9744-.0994-.39744-.69552-.69552-1.1923-.69552-.69552 0-1.2917.59616-1.2917 1.2917v22.455c0 .4968.39744.89424.79488 1.093 4.1731 1.2917 12.817 6.7565 19.276 17.785 1.7885 3.0802 4.6699 7.2533 4.6699 15.6 0 7.1539-1.093 14.705-2.8814 21.66-.29808 1.093-.59616 2.0866.4968 2.484s1.4904-.39744 1.8878-1.391c3.577-8.7437 4.4712-17.885 4.4712-24.045v-1.8878c-.4968-12.817-7.8494-22.257-7.8494-22.257.29808 0-9.1411-12.221-11.824-16.394-3.6763-5.6635-5.4648-11.327-5.5642-11.724" stroke-width=".9936"/>
 <path class="Hook" d="m533.97 387.22c-.0994-.29808-.9936-3.7757-.9936-3.9744-.0994-.39744-.69552-.69552-1.1923-.69552-.69552 0-1.2917.59616-1.2917 1.2917v22.455c0 .4968.39744.89424.79488 1.093 4.1731 1.2917 12.817 6.7565 19.276 17.785 1.7885 3.0802 4.6699 7.2533 4.6699 15.6 0 7.1539-1.093 14.705-2.8814 21.66-.29808 1.093-.59616 2.0866.4968 2.484s1.4904-.39744 1.8878-1.391c3.577-8.7437 4.4712-17.885 4.4712-24.045v-1.8878c-.4968-12.817-7.8494-22.257-7.8494-22.257.29808 0-9.1411-12.221-11.824-16.394-3.6763-5.6635-5.4648-11.327-5.5642-11.724" stroke-width=".9936"/>
 <path class="Hook" d="m622.82 412.06c-.0994-.29808-.9936-3.7757-.9936-3.9744-.0994-.39744-.69552-.69552-1.1923-.69552-.69552 0-1.2917.59616-1.2917 1.2917v22.455c0 .4968.39744.89424.79488 1.093 4.1731 1.2917 12.817 6.7565 19.276 17.785 1.7885 3.0802 4.6699 7.2533 4.6699 15.6 0 7.1539-1.093 14.705-2.8814 21.66-.29808 1.093-.59616 2.0866.4968 2.484s1.4904-.39744 1.8878-1.391c3.577-8.7437 4.4712-17.885 4.4712-24.045v-1.8878c-.4968-12.817-7.8494-22.257-7.8494-22.257.29808 0-9.1411-12.221-11.824-16.394-3.6763-5.6635-5.4648-11.327-5.5642-11.724" stroke-width=".9936"/>
 <path class="Hook" d="m711.68 436.9c-.0994-.29808-.9936-3.7757-.9936-3.9744-.0994-.39744-.69552-.69552-1.1923-.69552-.69552 0-1.2917.59616-1.2917 1.2917v22.455c0 .4968.39744.89424.79488 1.093 4.1731 1.2917 12.817 6.7565 19.276 17.785 1.7885 3.0802 4.6699 7.2533 4.6699 15.6 0 7.1539-1.093 14.705-2.8814 21.66-.29808 1.093-.59616 2.0866.4968 2.484s1.4904-.39744 1.8878-1.391c3.577-8.7437 4.4712-17.885 4.4712-24.045v-1.8878c-.4968-12.817-7.8494-22.257-7.8494-22.257.29808 0-9.1411-12.221-11.824-16.394-3.6763-5.6635-5.4648-11.327-5.5642-11.724" stroke-width=".9936"/>
 <path class="Hook" d="m824.87 478.63c-.0994-5.1667-1.2917-10.532-4.7693-15.003-4.7693-6.1603-11.029-9.2405-14.805-14.705s-5.3654-16.096-5.3654-16.096c-.0994-.69552-.29808-1.1923-1.4904-1.1923s-1.391.4968-1.391 1.1923v38.055c0 .19872.69552.79488 1.391.9936 2.5834.9936 10.433 5.8622 16.394 14.705 3.577 5.4648 4.1731 9.1411 4.1731 12.718v1.093c-.0994 2.484-.69552 7.5514-2.1859 11.526-.29808.89424-.79488 2.1859.19872 2.6827s1.5898-.59616 2.0866-1.2917c1.7885-2.8814 4.3718-8.1475 4.3718-13.811 0-2.7821-.19872-5.2661-.4968-7.3526.9936-3.577 1.8878-8.0482 1.8878-12.718v-.79488m-7.0546 1.391c-2.6827-3.4776-5.6635-6.6571-10.532-11.526-3.875-3.875-5.6635-7.2533-6.359-9.8366-.0994-.19872-.0994-.59616-.19872-.89424l.0994.39744c4.4712.39744 10.532 4.8686 14.308 9.4392 4.4712 5.3654 5.3654 9.5386 5.3654 13.414 0 .9936 0 1.8878-.0994 2.8814-.59616-1.093-1.7885-2.8814-2.5834-3.875" stroke-width=".9936"/>
 <path class="Hook" d="m895.9 478.63c-.0994-5.1667-1.2917-10.532-4.7693-15.003-4.7693-6.1603-11.029-9.2405-14.805-14.705s-5.3654-16.096-5.3654-16.096c-.0994-.69552-.29808-1.1923-1.4904-1.1923s-1.391.4968-1.391 1.1923v38.055c0 .19872.69552.79488 1.391.9936 2.5834.9936 10.433 5.8622 16.394 14.705 3.577 5.4648 4.1731 9.1411 4.1731 12.718v1.093c-.0994 2.484-.69552 7.5514-2.1859 11.526-.29808.89424-.79488 2.1859.19872 2.6827s1.5898-.59616 2.0866-1.2917c1.7885-2.8814 4.3718-8.1475 4.3718-13.811 0-2.7821-.19872-5.2661-.4968-7.3526.9936-3.577 1.8878-8.0482 1.8878-12.718v-.79488m-7.0546 1.391c-2.6827-3.4776-5.6635-6.6571-10.532-11.526-3.875-3.875-5.6635-7.2533-6.359-9.8366-.0994-.19872-.0994-.59616-.19872-.89424l.0994.39744c4.4712.39744 10.532 4.8686 14.308 9.4392 4.4712 5.3654 5.3654 9.5386 5.3654 13.414 0 .9936 0 1.8878-.0994 2.8814-.59616-1.093-1.7885-2.8814-2.5834-3.875" stroke-width=".9936"/>
 <path class="Hook" d="m1122.2 412.06c-.099-.29808-.9936-3.7757-.9936-3.9744-.099-.39744-.6955-.69552-1.1923-.69552-.6955 0-1.2917.59616-1.2917 1.2917v22.455c0 .4968.3974.89424.7949 1.093 4.1731 1.2917 12.817 6.7565 19.276 17.785 1.7885 3.0802 4.6699 7.2533 4.6699 15.6 0 7.1539-1.0929 14.705-2.8814 21.66-.2981 1.093-.5962 2.0866.4968 2.484s1.4904-.39744 1.8878-1.391c3.577-8.7437 4.4712-17.885 4.4712-24.045v-1.8878c-.4968-12.817-7.8494-22.257-7.8494-22.257.2981 0-9.1411-12.221-11.824-16.394-3.6764-5.6635-5.4648-11.327-5.5642-11.724" stroke-width=".9936"/>
 <path class="Hook" d="m1188.2 436.9c-.099-.29808-.9936-3.7757-.9936-3.9744-.099-.39744-.6955-.69552-1.1923-.69552-.6955 0-1.2917.59616-1.2917 1.2917v22.455c0 .4968.3974.89424.7949 1.093 4.1731 1.2917 12.817 6.7565 19.276 17.785 1.7885 3.0802 4.6699 7.2533 4.6699 15.6 0 7.1539-1.0929 14.705-2.8814 21.66-.2981 1.093-.5962 2.0866.4968 2.484s1.4904-.39744 1.8878-1.391c3.577-8.7437 4.4712-17.885 4.4712-24.045v-1.8878c-.4968-12.817-7.8494-22.257-7.8494-22.257.2981 0-9.1411-12.221-11.824-16.394-3.6764-5.6635-5.4648-11.327-5.5642-11.724" stroke-width=".9936"/>
 <path class="Hook" d="m500.63 801.55c-.0994-5.1667-1.2917-10.532-4.7693-15.003-4.7693-6.1603-11.029-9.2405-14.805-14.705s-5.3654-16.096-5.3654-16.096c-.0994-.69552-.29808-1.1923-1.4904-1.1923s-1.391.4968-1.391 1.1923v38.055c0 .19872.69552.79488 1.391.9936 2.5834.9936 10.433 5.8622 16.394 14.705 3.577 5.4648 4.1731 9.1411 4.1731 12.718v1.093c-.0994 2.484-.69552 7.5514-2.1859 11.526-.29808.89424-.79488 2.1859.19872 2.6827s1.5898-.59616 2.0866-1.2917c1.7885-2.8814 4.3718-8.1475 4.3718-13.811 0-2.7821-.19872-5.2661-.4968-7.3526.9936-3.577 1.8878-8.0482 1.8878-12.718v-.79488m-7.0546 1.391c-2.6827-3.4776-5.6635-6.6571-10.532-11.526-3.875-3.875-5.6635-7.2533-6.359-9.8366-.0994-.19872-.0994-.59616-.19872-.89424l.0994.39744c4.4712.39744 10.532 4.8686 14.308 9.4392 4.4712 5.3654 5.3654 9.5386 5.3654 13.414 0 .9936 0 1.8878-.0994 2.8814-.59616-1.093-1.7885-2.8814-2.5834-3.875" stroke-width=".9936"/>
 <path class="Hook" d="m570.33 801.55c-.0994-5.1667-1.2917-10.532-4.7693-15.003-4.7693-6.1603-11.029-9.2405-14.805-14.705s-5.3654-16.096-5.3654-16.096c-.0994-.69552-.29808-1.1923-1.4904-1.1923s-1.391.4968-1.391 1.1923v38.055c0 .19872.69552.79488 1.391.9936 2.5834.9936 10.433 5.8622 16.394 14.705 3.577 5.4648 4.1731 9.1411 4.1731 12.718v1.093c-.0994 2.484-.69552 7.5514-2.1859 11.526-.29808.89424-.79488 2.1859.19872 2.6827s1.5898-.59616 2.0866-1.2917c1.7885-2.8814 4.3718-8.1475 4.3718-13.811 0-2.7821-.19872-5.2661-.4968-7.3526.9936-3.577 1.8878-8.0482 1.8878-12.718v-.79488m-7.0546 1.391c-2.6827-3.4776-5.6635-6.6571-10.532-11.526-3.875-3.875-5.6635-7.2533-6.359-9.8366-.0994-.19872-.0994-.59616-.19872-.89424l.0994.39744c4.4712.39744 10.532 4.8686 14.308 9.4392 4.4712 5.3654 5.3654 9.5386 5.3654 13.414 0 .9936 0 1.8878-.0994 2.8814-.59616-1.093-1.7885-2.8814-2.5834-3.875" stroke-width=".9936"/>
 <path class="Hook" d="m640.03 801.55c-.0994-5.1667-1.2917-10.532-4.7693-15.003-4.7693-6.1603-11.029-9.2405-14.805-14.705s-5.3654-16.096-5.3654-16.096c-.0994-.69552-.29808-1.1923-1.4904-1.1923s-1.391.4968-1.391 1.1923v38.055c0 .19872.69552.79488 1.391.9936 2.5834.9936 10.433 5.8622 16.394 14.705 3.577 5.4648 4.1731 9.1411 4.1731 12.718v1.093c-.0994 2.484-.69552 7.5514-2.1859 11.526-.29808.89424-.79488 2.1859.19872 2.6827s1.5898-.59616 2.0866-1.2917c1.7885-2.8814 4.3718-8.1475 4.3718-13.811 0-2.7821-.19872-5.2661-.4968-7.3526.9936-3.577 1.8878-8.0482 1.8878-12.718v-.79488m-7.0546 1.391c-2.6827-3.4776-5.6635-6.6571-10.532-11.526-3.875-3.875-5.6635-7.2533-6.359-9.8366-.0994-.19872-.0994-.59616-.19872-.89424l.0994.39744c4.4712.39744 10.532 4.8686 14.308 9.4392 4.4712 5.3654 5.3654 9.5386 5.3654 13.414 0 .9936 0 1.8878-.0994 2.8814-.59616-1.093-1.7885-2.8814-2.5834-3.875" stroke-width=".9936"/>
 <path class="Hook" d="m709.73 801.55c-.0994-5.1667-1.2917-10.532-4.7693-15.003-4.7693-6.1603-11.029-9.2405-14.805-14.705s-5.3654-16.096-5.3654-16.096c-.0994-.69552-.29808-1.1923-1.4904-1.1923s-1.391.4968-1.391 1.1923v38.055c0 .19872.69552.79488 1.391.9936 2.5834.9936 10.433 5.8622 16.394 14.705 3.577 5.4648 4.1731 9.1411 4.1731 12.718v1.093c-.0994 2.484-.69552 7.5514-2.1859 11.526-.29808.89424-.79488 2.1859.19872 2.6827s1.5898-.59616 2.0866-1.2917c1.7885-2.8814 4.3718-8.1475 4.3718-13.811 0-2.7821-.19872-5.2661-.4968-7.3526.9936-3.577 1.8878-8.0482 1.8878-12.718v-.79488m-7.0546 1.391c-2.6827-3.4776-5.6635-6.6571-10.532-11.526-3.875-3.875-5.6635-7.2533-6.359-9.8366-.0994-.19872-.0994-.59616-.19872-.89424l.0994.39744c4.4712.39744 10.532 4.8686 14.308 9.4392 4.4712 5.3654 5.3654 9.5386 5.3654 13.414 0 .9936 0 1.8878-.0994 2.8814-.59616-1.093-1.7885-2.8814-2.5834-3.875" stroke-width=".9936"/>
 <path class="Hook" d="m779.44 801.55c-.0994-5.1667-1.2917-10.532-4.7693-15.003-4.7693-6.1603-11.029-9.2405-14.805-14.705s-5.3654-16.096-5.3654-16.096c-.0994-.69552-.29808-1.1923-1.4904-1.1923s-1.391.4968-1.391 1.1923v38.055c0 .19872.69552.79488 1.391.9936 2.5834.9936 10.433 5.8622 16.394 14.705 3.577 5.4648 4.1731 9.1411 4.1731 12.718v1.093c-.0994 2.484-.69552 7.5514-2.1859 11.526-.29808.89424-.79488 2.1859.19872 2.6827s1.5898-.59616 2.0866-1.2917c1.7885-2.8814 4.3718-8.1475 4.3718-13.811 0-2.7821-.19872-5.2661-.4968-7.3526.9936-3.577 1.8878-8.0482 1.8878-12.718v-.79488m-7.0546 1.391c-2.6827-3.4776-5.6635-6.6571-10.532-11.526-3.875-3.875-5.6635-7.2533-6.359-9.8366-.0994-.19872-.0994-.59616-.19872-.89424l.0994.39744c4.4712.39744 10.532 4.8686 14.308 9.4392 4.4712 5.3654 5.3654 9.5386 5.3654 13.414 0 .9936 0 1.8878-.0994 2.8814-.59616-1.093-1.7885-2.8814-2.5834-3.875" stroke-width=".9936"/>
 <path class="Hook" d="m849.14 801.55c-.0994-5.1667-1.2917-10.532-4.7693-15.003-4.7693-6.1603-11.029-9.2405-14.805-14.705s-5.3654-16.096-5.3654-16.096c-.0994-.69552-.29808-1.1923-1.4904-1.1923s-1.391.4968-1.391 1.1923v38.055c0 .19872.69552.79488 1.391.9936 2.5834.9936 10.433 5.8622 16.394 14.705 3.577 5.4648 4.1731 9.1411 4.1731 12.718v1.093c-.0994 2.484-.69552 7.5514-2.1859 11.526-.29808.89424-.79488 2.1859.19872 2.6827s1.5898-.59616 2.0866-1.2917c1.7885-2.8814 4.3718-8.1475 4.3718-13.811 0-2.7821-.19872-5.2661-.4968-7.3526.9936-3.577 1.8878-8.0482 1.8878-12.718v-.79488m-7.0546 1.391c-2.6827-3.4776-5.6635-6.6571-10.532-11.526-3.875-3.875-5.6635-7.2533-6.359-9.8366-.0994-.19872-.0994-.59616-.19872-.89424l.0994.39744c4.4712.39744 10.532 4.8686 14.308 9.4392 4.4712 5.3654 5.3654 9.5386 5.3654 13.414 0 .9936 0 1.8878-.0994 2.8814-.59616-1.093-1.7885-2.8814-2.5834-3.875" stroke-width=".9936"/>
 <path class="Hook" d="m918.84 801.55c-.0994-5.1667-1.2917-10.532-4.7693-15.003-4.7693-6.1603-11.029-9.2405-14.805-14.705s-5.3654-16.096-5.3654-16.096c-.0994-.69552-.29808-1.1923-1.4904-1.1923s-1.391.4968-1.391 1.1923v38.055c0 .19872.69552.79488 1.391.9936 2.5834.9936 10.433 5.8622 16.394 14.705 3.577 5.4648 4.1731 9.1411 4.1731 12.718v1.093c-.0994 2.484-.69552 7.5514-2.1859 11.526-.29808.89424-.79488 2.1859.19872 2.6827s1.5898-.59616 2.0866-1.2917c1.7885-2.8814 4.3718-8.1475 4.3718-13.811 0-2.7821-.19872-5.2661-.4968-7.3526.9936-3.577 1.8878-8.0482 1.8878-12.718v-.79488m-7.0546 1.391c-2.6827-3.4776-5.6635-6.6571-10.532-11.526-3.875-3.875-5.6635-7.2533-6.359-9.8366-.0994-.19872-.0994-.59616-.19872-.89424l.0994.39744c4.4712.39744 10.532 4.8686 14.308 9.4392 4.4712 5.3654 5.3654 9.5386 5.3654 13.414 0 .9936 0 1.8878-.0994 2.8814-.59616-1.093-1.7885-2.8814-2.5834-3.875" stroke-width=".9936"/>
 <path class="Hook" d="m988.54 801.55c-.0994-5.1667-1.2917-10.532-4.7693-15.003-4.7693-6.1603-11.029-9.2405-14.805-14.705s-5.3654-16.096-5.3654-16.096c-.0994-.69552-.29808-1.1923-1.4904-1.1923s-1.391.4968-1.391 1.1923v38.055c0 .19872.69552.79488 1.391.9936 2.5834.9936 10.433 5.8622 16.394 14.705 3.577 5.4648 4.1731 9.1411 4.1731 12.718v1.093c-.0994 2.484-.69552 7.5514-2.1859 11.526-.29808.89424-.79488 2.1859.19872 2.6827s1.5898-.59616 2.0866-1.2917c1.7885-2.8814 4.3718-8.1475 4.3718-13.811 0-2.7821-.19872-5.2661-.4968-7.3526.9936-3.577 1.8878-8.0482 1.8878-12.718v-.79488m-7.0546 1.391c-2.6827-3.4776-5.6635-6.6571-10.532-11.526-3.875-3.875-5.6635-7.2533-6.359-9.8366-.0994-.19872-.0994-.59616-.19872-.89424l.0994.39744c4.4712.39744 10.532 4.8686 14.308 9.4392 4.4712 5.3654 5.3654 9.5386 5.3654 13.414 0 .9936 0 1.8878-.0994 2.8814-.59616-1.093-1.7885-2.8814-2.5834-3.875" stroke-width=".9936"/>
 <path class="Lyrics" d="m336.74 243.07h13.44c3.56 0 6.28-.56 8.4-1.76 4.04-2.28 6.28-6.84 6.28-12.84 0-5.52-2-9.84-5.68-12.24-2.2-1.4-5.16-2.04-9.72-2.04h-12.72v1.88h.76c2.24.04 3 .16 3.32.56.24.36.24.44.24 2.48v19.04c0 2.04 0 2.12-.24 2.48-.32.4-1.08.52-3.32.56h-.76v1.88m11.08-1.88c-2.04 0-2.28-.24-2.28-2.2v-20.68c0-1.96.28-2.24 2.28-2.24h2.08c6.84 0 9.68 3.72 9.68 12.56 0 8.96-2.56 12.56-9.04 12.56h-2.72m29.027-17.36c-4.92 0-8.72 4.36-8.72 9.96 0 5.48 3.84 9.88 8.64 9.88s8.64-4.4 8.64-9.92c0-5.48-3.84-9.92-8.56-9.92m0 1.72c2.8 0 4.36 2.92 4.36 8.2 0 5.32-1.56 8.2-4.44 8.2s-4.44-2.88-4.44-8.16c0-5.44 1.52-8.24 4.52-8.24"/>
 <path class="Lyrics" d="m461.71 213.59-6.88.44v1.72h1.4c1.52.04 1.72.28 1.72 2v15.56c0 5.56-.24 8.6-.72 10.32h1.52l1.96-3.12c1.64 2.16 3.52 3.16 6 3.16 4.96 0 8.6-4.24 8.6-10.04 0-5.76-3.36-9.8-8.16-9.8-2.44 0-3.92.84-5.44 3.12v-13.36m4.72 12.28c3 0 4.68 2.92 4.68 8.16 0 5.08-1.64 7.92-4.56 7.92-3.16 0-5.04-2.92-5.04-7.84 0-5.36 1.72-8.24 4.92-8.24m28.395 4.32c0-2.52-.44-3.8-1.6-4.76-1.32-1.08-3.28-1.6-5.84-1.6-4.52 0-7.8 2.12-7.8 5.04 0 1.48.92 2.44 2.32 2.44 1.28 0 2.16-.84 2.16-2.04 0-.52-.2-1.08-.6-1.64-.24-.28-.28-.36-.28-.56 0-.8 1.6-1.52 3.52-1.52 1.28 0 2.68.4 3.32 1 .76.64 1.04 1.6 1.04 3.4v1.56c-4.16.72-5.48 1.04-7.44 1.8-3.48 1.28-5.12 3.12-5.12 5.68 0 2.88 2.24 4.68 5.8 4.68 2.76 0 5.24-1.12 6.96-3.16.64 2.04 1.64 2.84 3.52 2.84 1.8 0 3.68-1.16 3.68-2.32 0-.28-.16-.48-.4-.48-.16 0-.32.04-.6.16-.56.24-.8.28-1.12.28-1.12 0-1.52-.72-1.52-2.76v-8.04m-3.76 4.88c0 2.4-.12 2.96-.8 4-1 1.48-2.8 2.48-4.56 2.48-1.84 0-3.16-1.32-3.16-3.12 0-1.68.84-2.88 2.6-3.72 1.24-.56 2.8-.96 5.92-1.48v1.84"/>
 <path class="Lyrics" d="m545.1 224.43-6.92.44v1.72h1.44c1.52.04 1.72.28 1.72 2v11.44c-.04.6-.08.84-.24 1.04-.28.36-1.04.52-2.76.56h-.16v1.44h10.12v-1.44h-.16c-2.68-.08-3.04-.28-3.04-1.72v-5.92c0-1.96.28-3.76.72-4.68.84-1.8 2.64-3.04 4.36-3.04 1.04 0 2.24.56 2.84 1.4.6.88.88 2.08.88 4v8.36c-.04.6-.08.84-.24 1.04-.28.36-1.08.52-2.8.56h-.16v1.44h10.12v-1.44h-.16c-2.64-.08-3-.28-3-1.72v-8.04c0-2.88-.12-3.6-.84-4.96-1-1.92-3-3.08-5.4-3.08-2.6 0-4.56 1.2-6.32 3.84v-3.24m34.517 5.76c0-2.52-.44-3.8-1.6-4.76-1.32-1.08-3.28-1.6-5.84-1.6-4.52 0-7.8 2.12-7.8 5.04 0 1.48.92 2.44 2.32 2.44 1.28 0 2.16-.84 2.16-2.04 0-.52-.2-1.08-.6-1.64-.24-.28-.28-.36-.28-.56 0-.8 1.6-1.52 3.52-1.52 1.28 0 2.68.4 3.32 1 .76.64 1.04 1.6 1.04 3.4v1.56c-4.16.72-5.48 1.04-7.44 1.8-3.48 1.28-5.12 3.12-5.12 5.68 0 2.88 2.24 4.68 5.8 4.68 2.76 0 5.24-1.12 6.96-3.16.64 2.04 1.64 2.84 3.52 2.84 1.8 0 3.68-1.16 3.68-2.32 0-.28-.16-.48-.4-.48-.16 0-.32.04-.6.16-.56.24-.8.28-1.12.28-1.12 0-1.52-.72-1.52-2.76v-8.04m-3.76 4.88c0 2.4-.12 2.96-.8 4-1 1.48-2.8 2.48-4.56 2.48-1.84 0-3.16-1.32-3.16-3.12 0-1.68.84-2.88 2.6-3.72 1.24-.56 2.8-.96 5.92-1.48v1.84"/>
 <path class="Lyrics" d="m641.42 237.19c-1.28 2.88-2.64 4.04-4.72 4.04-3.2 0-5.2-2.92-5.2-7.6 0-4.88 1.96-8.08 4.92-8.08 1.2 0 2.24.56 2.24 1.2 0 .12-.04.24-.24.48-.64.76-.8 1.16-.8 1.84 0 1.32 1 2.24 2.4 2.24 1.44 0 2.44-1.12 2.44-2.72 0-2.72-2.68-4.76-6.24-4.76-5.2 0-8.92 4.24-8.92 10.24 0 5.68 3.4 9.6 8.36 9.6 3.56 0 5.6-1.64 7.32-5.88l-1.56-.6m12.303-13.36c-4.92 0-8.72 4.36-8.72 9.96 0 5.48 3.84 9.88 8.64 9.88s8.64-4.4 8.64-9.92c0-5.48-3.84-9.92-8.56-9.92m0 1.72c2.8 0 4.36 2.92 4.36 8.2 0 5.32-1.56 8.2-4.44 8.2s-4.44-2.88-4.44-8.16c0-5.44 1.52-8.24 4.52-8.24"/>
 <path class="Lyrics" d="m713.85 213.59-6.88.44v1.72h1.4c1.52.04 1.72.28 1.72 2v15.56c0 5.56-.24 8.6-.72 10.32h1.52l1.96-3.12c1.64 2.16 3.52 3.16 6 3.16 4.96 0 8.6-4.24 8.6-10.04 0-5.76-3.36-9.8-8.16-9.8-2.44 0-3.92.84-5.44 3.12v-13.36m4.72 12.28c3 0 4.68 2.92 4.68 8.16 0 5.08-1.64 7.92-4.56 7.92-3.16 0-5.04-2.92-5.04-7.84 0-5.36 1.72-8.24 4.92-8.24m28.39 4.32c0-2.52-.44-3.8-1.6-4.76-1.32-1.08-3.28-1.6-5.84-1.6-4.52 0-7.8 2.12-7.8 5.04 0 1.48.92 2.44 2.32 2.44 1.28 0 2.16-.84 2.16-2.04 0-.52-.2-1.08-.6-1.64-.24-.28-.28-.36-.28-.56 0-.8 1.6-1.52 3.52-1.52 1.28 0 2.68.4 3.32 1 .76.64 1.04 1.6 1.04 3.4v1.56c-4.16.72-5.48 1.04-7.44 1.8-3.48 1.28-5.12 3.12-5.12 5.68 0 2.88 2.24 4.68 5.8 4.68 2.76 0 5.24-1.12 6.96-3.16.64 2.04 1.64 2.84 3.52 2.84 1.8 0 3.68-1.16 3.68-2.32 0-.28-.16-.48-.4-.48-.16 0-.32.04-.6.16-.56.24-.8.28-1.12.28-1.12 0-1.52-.72-1.52-2.76v-8.04m-3.76 4.88c0 2.4-.12 2.96-.8 4-1 1.48-2.8 2.48-4.56 2.48-1.84 0-3.16-1.32-3.16-3.12 0-1.68.84-2.88 2.6-3.72 1.24-.56 2.8-.96 5.92-1.48v1.84m11.27 15.36c3.6-2.48 5.24-4.92 5.24-7.72 0-2.4-1.32-3.96-3.28-3.96-1.48 0-2.6 1.04-2.6 2.4 0 1.44 1.08 2.36 2.76 2.36.2 0 .48 0 .6-.04h.12c.2 0 .28.12.28.36 0 1.68-1.36 3.56-4.04 5.44l.92 1.16"/>
 <path class="Lyrics" d="m800.3 240.11c-2.2-.04-2.32-.08-2.8-.36-.28-.16-.48-.6-.48-1.04 0-1.2 1.08-1.72 3.76-1.8 3.76-.08 4.36-.16 5.72-.76 2.4-1.08 3.72-3.16 3.72-5.8 0-1.6-.36-2.6-1.44-3.92.68-.72 1.04-.96 1.36-.96.2 0 .32.12.4.56.16.96.8 1.48 1.8 1.48 1.04 0 1.8-.84 1.8-1.92 0-1.36-1.08-2.32-2.64-2.32-1.28 0-2 .4-3.84 2.08-1.68-1.12-2.96-1.52-4.96-1.52-4.76 0-7.88 2.64-7.88 6.64 0 2.36 1.28 4.36 3.36 5.36-2.68.6-3.8 1.8-3.8 4 0 1.76.8 2.8 2.68 3.44-2.48.92-3.68 2.16-3.68 3.8 0 1.2.8 2.32 2.08 3 1.56.8 3.48 1.12 6.36 1.12 6.68 0 10-2.12 10-6.32 0-2-.92-3.6-2.36-4.2-1.08-.4-2.36-.56-5.08-.56h-4.08m2.36-14.56c2.48 0 3.88 1.72 3.88 4.84s-1.52 5-4.04 5c-2.48 0-4.04-1.88-4.04-4.88 0-3.16 1.52-4.96 4.2-4.96m-.36 18c3.32 0 3.56 0 4.12.08 1.64.16 2.6 1.04 2.6 2.32 0 2.28-2.6 3.6-7.04 3.6-3.4 0-5.28-1-5.28-2.8 0-1.32.72-2.2 2.64-3.2h2.96m29.79-9.48c.04-6-3.36-10.24-8.24-10.24-5.12 0-8.96 4.44-8.96 10.44 0 5.64 3.64 9.4 9.04 9.4 3.84 0 6.52-1.88 8.16-5.68l-1.4-.76c-1.64 3.08-3.32 4.28-6 4.28-2.04 0-3.52-.84-4.56-2.64-.72-1.2-1.04-2.6-1-4.8h12.96m-12.92-1.72c0-1.24.16-2.12.56-3.24.84-2.4 2.12-3.56 4.08-3.56 2.4 0 4 2.12 4 5.36 0 1.12-.36 1.44-1.64 1.44h-7"/>
 <path class="Lyrics" d="m869.92 224.43-6.92.44v1.72h1.44c1.52.04 1.72.28 1.72 2v11.44c-.04.6-.08.84-.24 1.04-.28.36-1.04.52-2.76.56h-.16v1.44h10.12v-1.44h-.16c-2.68-.08-3.04-.28-3.04-1.72v-5.92c0-1.96.28-3.76.72-4.68.84-1.8 2.64-3.04 4.36-3.04 1.04 0 2.24.56 2.84 1.4.6.88.88 2.08.88 4v8.36c-.04.6-.08.84-.24 1.04-.28.36-1.08.52-2.8.56h-.16v1.44h10.12v-1.44h-.16c-2.64-.08-3-.28-3-1.72v-8.04c0-2.88-.12-3.6-.84-4.96-1-1.92-3-3.08-5.4-3.08-2.6 0-4.56 1.2-6.32 3.84v-3.24m35.04 9.64c.04-6-3.36-10.24-8.24-10.24-5.12 0-8.96 4.44-8.96 10.44 0 5.64 3.64 9.4 9.04 9.4 3.84 0 6.52-1.88 8.16-5.68l-1.4-.76c-1.64 3.08-3.32 4.28-6 4.28-2.04 0-3.52-.84-4.56-2.64-.72-1.2-1.04-2.6-1-4.8h12.96m-12.92-1.72c0-1.24.16-2.12.56-3.24.84-2.4 2.12-3.56 4.08-3.56 2.4 0 4 2.12 4 5.36 0 1.12-.36 1.44-1.64 1.44h-7"/>
 <path class="Lyrics" d="m1012.2 224.43-7.12.44v1.72h1.64c1.52.04 1.72.28 1.72 2v11.44c-.04.6-.08.84-.24 1.04-.28.36-1.04.52-2.76.56h-.16v1.44h10.08v-1.44h-.16c-2.64-.08-3-.28-3-1.76v-7.4c0-3.56 1.96-6.2 4.56-6.2 2.28 0 3.44 1.64 3.44 4.88v8.92c-.04.52-.08.8-.28 1-.24.36-1.04.52-2.76.56h-.16v1.44h10.12v-1.44h-.16c-2.64-.08-3-.28-3-1.72v-7.08c0-4 1.8-6.56 4.6-6.56 2.28 0 3.4 1.72 3.4 5.32v8.44c-.04.56-.08.84-.28 1.04-.24.36-1.04.52-2.76.56h-.16v1.44h10.12v-1.44h-.16c-2.64-.08-3-.28-3-1.76v-9.08c0-2.48-.24-3.32-1.28-4.68-1.16-1.48-2.8-2.28-4.72-2.28-2.6 0-4.52 1.24-6.24 4-.68-2.4-2.84-4-5.52-4-2.44 0-4.2 1.16-5.76 3.68v-3.08m46.11 9.64c.04-6-3.36-10.24-8.24-10.24-5.12 0-8.96 4.44-8.96 10.44 0 5.64 3.64 9.4 9.04 9.4 3.84 0 6.52-1.88 8.16-5.68l-1.4-.76c-1.64 3.08-3.32 4.28-6 4.28-2.04 0-3.52-.84-4.56-2.64-.72-1.2-1.04-2.6-1-4.8h12.96m-12.92-1.72c0-1.24.16-2.12.56-3.24.84-2.4 2.12-3.56 4.08-3.56 2.4 0 4 2.12 4 5.36 0 1.12-.36 1.44-1.64 1.44h-7m17.59 18.08c3.6-2.48 5.24-4.92 5.24-7.72 0-2.4-1.32-3.96-3.28-3.96-1.48 0-2.6 1.04-2.6 2.4 0 1.44 1.08 2.36 2.76 2.36.2 0 .48 0 .6-.04h.12c.2 0 .28.12.28.36 0 1.68-1.36 3.56-4.04 5.44l.92 1.16"/>
 <path class="Lyrics" d="m1112.2 240.11c-2.2-.04-2.32-.08-2.8-.36-.28-.16-.48-.6-.48-1.04 0-1.2 1.08-1.72 3.76-1.8 3.76-.08 4.36-.16 5.72-.76 2.4-1.08 3.72-3.16 3.72-5.8 0-1.6-.36-2.6-1.44-3.92.68-.72 1.04-.96 1.36-.96.2 0 .32.12.4.56.16.96.8 1.48 1.8 1.48 1.04 0 1.8-.84 1.8-1.92 0-1.36-1.08-2.32-2.64-2.32-1.28 0-2 .4-3.84 2.08-1.68-1.12-2.96-1.52-4.96-1.52-4.76 0-7.88 2.64-7.88 6.64 0 2.36 1.28 4.36 3.36 5.36-2.68.6-3.8 1.8-3.8 4 0 1.76.8 2.8 2.68 3.44-2.48.92-3.68 2.16-3.68 3.8 0 1.2.8 2.32 2.08 3 1.56.8 3.48 1.12 6.36 1.12 6.68 0 10-2.12 10-6.32 0-2-.92-3.6-2.36-4.2-1.08-.4-2.36-.56-5.08-.56h-4.08m2.36-14.56c2.48 0 3.88 1.72 3.88 4.84s-1.52 5-4.04 5c-2.48 0-4.04-1.88-4.04-4.88 0-3.16 1.52-4.96 4.2-4.96m-.36 18c3.32 0 3.56 0 4.12.08 1.64.16 2.6 1.04 2.6 2.32 0 2.28-2.6 3.6-7.04 3.6-3.4 0-5.28-1-5.28-2.8 0-1.32.72-2.2 2.64-3.2h2.96m29.79-9.48c.04-6-3.36-10.24-8.24-10.24-5.12 0-8.96 4.44-8.96 10.44 0 5.64 3.64 9.4 9.04 9.4 3.84 0 6.52-1.88 8.16-5.68l-1.4-.76c-1.64 3.08-3.32 4.28-6 4.28-2.04 0-3.52-.84-4.56-2.64-.72-1.2-1.04-2.6-1-4.8h12.96m-12.92-1.72c0-1.24.16-2.12.56-3.24.84-2.4 2.12-3.56 4.08-3.56 2.4 0 4 2.12 4 5.36 0 1.12-.36 1.44-1.64 1.44h-7"/>
 <path class="Lyrics" d="m1176.8 224.43-6.92.44v1.72h1.44c1.52.04 1.72.28 1.72 2v11.44c-.04.6-.08.84-.24 1.04-.28.36-1.04.52-2.76.56h-.16v1.44h10.12v-1.44h-.16c-2.68-.08-3.04-.28-3.04-1.72v-5.92c0-1.96.28-3.76.72-4.68.84-1.8 2.64-3.04 4.36-3.04 1.04 0 2.24.56 2.84 1.4.6.88.88 2.08.88 4v8.36c-.04.6-.08.84-.24 1.04-.28.36-1.08.52-2.8.56h-.16v1.44h10.12v-1.44h-.16c-2.64-.08-3-.28-3-1.72v-8.04c0-2.88-.12-3.6-.84-4.96-1-1.92-3-3.08-5.4-3.08-2.6 0-4.56 1.2-6.32 3.84v-3.24m35.04 9.64c.04-6-3.36-10.24-8.24-10.24-5.12 0-8.96 4.44-8.96 10.44 0 5.64 3.64 9.4 9.04 9.4 3.84 0 6.52-1.88 8.16-5.68l-1.4-.76c-1.64 3.08-3.32 4.28-6 4.28-2.04 0-3.52-.84-4.56-2.64-.72-1.2-1.04-2.6-1-4.8h12.96m-12.92-1.72c0-1.24.16-2.12.56-3.24.84-2.4 2.12-3.56 4.08-3.56 2.4 0 4 2.12 4 5.36 0 1.12-.36 1.44-1.64 1.44h-7"/>
 <path class="Lyrics" d="m1237.1 224.43-7.12.44v1.72h1.64c1.52.04 1.72.28 1.72 2v11.44c-.04.6-.08.84-.24 1.04-.28.36-1.04.52-2.76.56h-.16v1.44h10.08v-1.44h-.16c-2.64-.08-3-.28-3-1.76v-7.4c0-3.56 1.96-6.2 4.56-6.2 2.28 0 3.44 1.64 3.44 4.88v8.92c-.04.52-.08.8-.28 1-.24.36-1.04.52-2.76.56h-.16v1.44h10.12v-1.44h-.16c-2.64-.08-3-.28-3-1.72v-7.08c0-4 1.8-6.56 4.6-6.56 2.28 0 3.4 1.72 3.4 5.32v8.44c-.04.56-.08.84-.28 1.04-.24.36-1.04.52-2.76.56h-.16v1.44h10.12v-1.44h-.16c-2.64-.08-3-.28-3-1.76v-9.08c0-2.48-.24-3.32-1.28-4.68-1.16-1.48-2.8-2.28-4.72-2.28-2.6 0-4.52 1.24-6.24 4-.68-2.4-2.84-4-5.52-4-2.44 0-4.2 1.16-5.76 3.68v-3.08m46.11 9.64c.04-6-3.36-10.24-8.24-10.24-5.12 0-8.96 4.44-8.96 10.44 0 5.64 3.64 9.4 9.04 9.4 3.84 0 6.52-1.88 8.16-5.68l-1.4-.76c-1.64 3.08-3.32 4.28-6 4.28-2.04 0-3.52-.84-4.56-2.64-.72-1.2-1.04-2.6-1-4.8h12.96m-12.92-1.72c0-1.24.16-2.12.56-3.24.84-2.4 2.12-3.56 4.08-3.56 2.4 0 4 2.12 4 5.36 0 1.12-.36 1.44-1.64 1.44h-7m20.24 3.08c.04-7.08.2-9.04.96-12.8.56-2.76.72-4 .72-5.2 0-2.56-.8-3.8-2.44-3.8s-2.48 1.28-2.48 3.76c0 1.2.16 2.44.72 5.24.76 3.76.88 5.64.96 12.8h1.56m-.76 3.2c-1.4 0-2.52 1.12-2.52 2.48 0 1.4 1.12 2.52 2.48 2.52 1.4 0 2.52-1.12 2.52-2.52 0-1.36-1.12-2.48-2.48-2.48"/>
 <path class="Lyrics" d="m281.78 590.83h13.44c3.56 0 6.28-.56 8.4-1.76 4.04-2.28 6.28-6.84 6.28-12.84 0-5.52-2-9.84-5.68-12.24-2.2-1.4-5.16-2.04-9.72-2.04h-12.72v1.88h.76c2.24.04 3 .16 3.32.56.24.36.24.44.24 2.48v19.04c0 2.04 0 2.12-.24 2.48-.32.4-1.08.52-3.32.56h-.76v1.88m11.08-1.88c-2.04 0-2.28-.24-2.28-2.2v-20.68c0-1.96.28-2.24 2.28-2.24h2.08c6.84 0 9.68 3.72 9.68 12.56 0 8.96-2.56 12.56-9.04 12.56h-2.72m29.028-17.36c-4.92 0-8.72 4.36-8.72 9.96 0 5.48 3.84 9.88 8.64 9.88s8.64-4.4 8.64-9.92c0-5.48-3.84-9.92-8.56-9.92m0 1.72c2.8 0 4.36 2.92 4.36 8.2 0 5.32-1.56 8.2-4.44 8.2s-4.44-2.88-4.44-8.16c0-5.44 1.52-8.24 4.52-8.24"/>
 <path class="Lyrics" d="m413.3 561.35-6.88.44v1.72h1.4c1.52.04 1.72.28 1.72 2v15.56c0 5.56-.24 8.6-.72 10.32h1.52l1.96-3.12c1.64 2.16 3.52 3.16 6 3.16 4.96 0 8.6-4.24 8.6-10.04 0-5.76-3.36-9.8-8.16-9.8-2.44 0-3.92.84-5.44 3.12v-13.36m4.72 12.28c3 0 4.68 2.92 4.68 8.16 0 5.08-1.64 7.92-4.56 7.92-3.16 0-5.04-2.92-5.04-7.84 0-5.36 1.72-8.24 4.92-8.24m28.394 4.32c0-2.52-.44-3.8-1.6-4.76-1.32-1.08-3.28-1.6-5.84-1.6-4.52 0-7.8 2.12-7.8 5.04 0 1.48.92 2.44 2.32 2.44 1.28 0 2.16-.84 2.16-2.04 0-.52-.2-1.08-.6-1.64-.24-.28-.28-.36-.28-.56 0-.8 1.6-1.52 3.52-1.52 1.28 0 2.68.4 3.32 1 .76.64 1.04 1.6 1.04 3.4v1.56c-4.16.72-5.48 1.04-7.44 1.8-3.48 1.28-5.12 3.12-5.12 5.68 0 2.88 2.24 4.68 5.8 4.68 2.76 0 5.24-1.12 6.96-3.16.64 2.04 1.64 2.84 3.52 2.84 1.8 0 3.68-1.16 3.68-2.32 0-.28-.16-.48-.4-.48-.16 0-.32.04-.6.16-.56.24-.8.28-1.12.28-1.12 0-1.52-.72-1.52-2.76v-8.04m-3.76 4.88c0 2.4-.12 2.96-.8 4-1 1.48-2.8 2.48-4.56 2.48-1.84 0-3.16-1.32-3.16-3.12 0-1.68.84-2.88 2.6-3.72 1.24-.56 2.8-.96 5.92-1.48v1.84"/>
 <path class="Lyrics" d="m501.47 572.19-6.92.44v1.72h1.44c1.52.04 1.72.28 1.72 2v11.44c-.04.6-.08.84-.24 1.04-.28.36-1.04.52-2.76.56h-.16v1.44h10.12v-1.44h-.16c-2.68-.08-3.04-.28-3.04-1.72v-5.92c0-1.96.28-3.76.72-4.68.84-1.8 2.64-3.04 4.36-3.04 1.04 0 2.24.56 2.84 1.4.6.88.88 2.08.88 4v8.36c-.04.6-.08.84-.24 1.04-.28.36-1.08.52-2.8.56h-.16v1.44h10.12v-1.44h-.16c-2.64-.08-3-.28-3-1.72v-8.04c0-2.88-.12-3.6-.84-4.96-1-1.92-3-3.08-5.4-3.08-2.6 0-4.56 1.2-6.32 3.84v-3.24m34.517 5.76c0-2.52-.44-3.8-1.6-4.76-1.32-1.08-3.28-1.6-5.84-1.6-4.52 0-7.8 2.12-7.8 5.04 0 1.48.92 2.44 2.32 2.44 1.28 0 2.16-.84 2.16-2.04 0-.52-.2-1.08-.6-1.64-.24-.28-.28-.36-.28-.56 0-.8 1.6-1.52 3.52-1.52 1.28 0 2.68.4 3.32 1 .76.64 1.04 1.6 1.04 3.4v1.56c-4.16.72-5.48 1.04-7.44 1.8-3.48 1.28-5.12 3.12-5.12 5.68 0 2.88 2.24 4.68 5.8 4.68 2.76 0 5.24-1.12 6.96-3.16.64 2.04 1.64 2.84 3.52 2.84 1.8 0 3.68-1.16 3.68-2.32 0-.28-.16-.48-.4-.48-.16 0-.32.04-.6.16-.56.24-.8.28-1.12.28-1.12 0-1.52-.72-1.52-2.76v-8.04m-3.76 4.88c0 2.4-.12 2.96-.8 4-1 1.48-2.8 2.48-4.56 2.48-1.84 0-3.16-1.32-3.16-3.12 0-1.68.84-2.88 2.6-3.72 1.24-.56 2.8-.96 5.92-1.48v1.84"/>
 <path class="Lyrics" d="m602.56 584.95c-1.28 2.88-2.64 4.04-4.72 4.04-3.2 0-5.2-2.92-5.2-7.6 0-4.88 1.96-8.08 4.92-8.08 1.2 0 2.24.56 2.24 1.2 0 .12-.04.24-.24.48-.64.76-.8 1.16-.8 1.84 0 1.32 1 2.24 2.4 2.24 1.44 0 2.44-1.12 2.44-2.72 0-2.72-2.68-4.76-6.24-4.76-5.2 0-8.92 4.24-8.92 10.24 0 5.68 3.4 9.6 8.36 9.6 3.56 0 5.6-1.64 7.32-5.88l-1.56-.6m12.303-13.36c-4.92 0-8.72 4.36-8.72 9.96 0 5.48 3.84 9.88 8.64 9.88s8.64-4.4 8.64-9.92c0-5.48-3.84-9.92-8.56-9.92m0 1.72c2.8 0 4.36 2.92 4.36 8.2 0 5.32-1.56 8.2-4.44 8.2s-4.44-2.88-4.44-8.16c0-5.44 1.52-8.24 4.52-8.24"/>
 <path class="Lyrics" d="m679.76 561.35-6.88.44v1.72h1.4c1.52.04 1.72.28 1.72 2v15.56c0 5.56-.24 8.6-.72 10.32h1.52l1.96-3.12c1.64 2.16 3.52 3.16 6 3.16 4.96 0 8.6-4.24 8.6-10.04 0-5.76-3.36-9.8-8.16-9.8-2.44 0-3.92.84-5.44 3.12v-13.36m4.72 12.28c3 0 4.68 2.92 4.68 8.16 0 5.08-1.64 7.92-4.56 7.92-3.16 0-5.04-2.92-5.04-7.84 0-5.36 1.72-8.24 4.92-8.24m28.4 4.32c0-2.52-.44-3.8-1.6-4.76-1.32-1.08-3.28-1.6-5.84-1.6-4.52 0-7.8 2.12-7.8 5.04 0 1.48.92 2.44 2.32 2.44 1.28 0 2.16-.84 2.16-2.04 0-.52-.2-1.08-.6-1.64-.24-.28-.28-.36-.28-.56 0-.8 1.6-1.52 3.52-1.52 1.28 0 2.68.4 3.32 1 .76.64 1.04 1.6 1.04 3.4v1.56c-4.16.72-5.48 1.04-7.44 1.8-3.48 1.28-5.12 3.12-5.12 5.68 0 2.88 2.24 4.68 5.8 4.68 2.76 0 5.24-1.12 6.96-3.16.64 2.04 1.64 2.84 3.52 2.84 1.8 0 3.68-1.16 3.68-2.32 0-.28-.16-.48-.4-.48-.16 0-.32.04-.6.16-.56.24-.8.28-1.12.28-1.12 0-1.52-.72-1.52-2.76v-8.04m-3.76 4.88c0 2.4-.12 2.96-.8 4-1 1.48-2.8 2.48-4.56 2.48-1.84 0-3.16-1.32-3.16-3.12 0-1.68.84-2.88 2.6-3.72 1.24-.56 2.8-.96 5.92-1.48v1.84m11.27 15.36c3.6-2.48 5.24-4.92 5.24-7.72 0-2.4-1.32-3.96-3.28-3.96-1.48 0-2.6 1.04-2.6 2.4 0 1.44 1.08 2.36 2.76 2.36.2 0 .48 0 .6-.04h.12c.2 0 .28.12.28.36 0 1.68-1.36 3.56-4.04 5.44l.92 1.16"/>
 <path class="Lyrics" d="m770.98 587.87c-2.2-.04-2.32-.08-2.8-.36-.28-.16-.48-.6-.48-1.04 0-1.2 1.08-1.72 3.76-1.8 3.76-.08 4.36-.16 5.72-.76 2.4-1.08 3.72-3.16 3.72-5.8 0-1.6-.36-2.6-1.44-3.92.68-.72 1.04-.96 1.36-.96.2 0 .32.12.4.56.16.96.8 1.48 1.8 1.48 1.04 0 1.8-.84 1.8-1.92 0-1.36-1.08-2.32-2.64-2.32-1.28 0-2 .4-3.84 2.08-1.68-1.12-2.96-1.52-4.96-1.52-4.76 0-7.88 2.64-7.88 6.64 0 2.36 1.28 4.36 3.36 5.36-2.68.6-3.8 1.8-3.8 4 0 1.76.8 2.8 2.68 3.44-2.48.92-3.68 2.16-3.68 3.8 0 1.2.8 2.32 2.08 3 1.56.8 3.48 1.12 6.36 1.12 6.68 0 10-2.12 10-6.32 0-2-.92-3.6-2.36-4.2-1.08-.4-2.36-.56-5.08-.56h-4.08m2.36-14.56c2.48 0 3.88 1.72 3.88 4.84s-1.52 5-4.04 5c-2.48 0-4.04-1.88-4.04-4.88 0-3.16 1.52-4.96 4.2-4.96m-.36 18c3.32 0 3.56 0 4.12.08 1.64.16 2.6 1.04 2.6 2.32 0 2.28-2.6 3.6-7.04 3.6-3.4 0-5.28-1-5.28-2.8 0-1.32.72-2.2 2.64-3.2h2.96m29.79-9.48c.04-6-3.36-10.24-8.24-10.24-5.12 0-8.96 4.44-8.96 10.44 0 5.64 3.64 9.4 9.04 9.4 3.84 0 6.52-1.88 8.16-5.68l-1.4-.76c-1.64 3.08-3.32 4.28-6 4.28-2.04 0-3.52-.84-4.56-2.64-.72-1.2-1.04-2.6-1-4.8h12.96m-12.92-1.72c0-1.24.16-2.12.56-3.24.84-2.4 2.12-3.56 4.08-3.56 2.4 0 4 2.12 4 5.36 0 1.12-.36 1.44-1.64 1.44h-7"/>
 <path class="Lyrics" d="m840.61 572.19-6.92.44v1.72h1.44c1.52.04 1.72.28 1.72 2v11.44c-.04.6-.08.84-.24 1.04-.28.36-1.04.52-2.76.56h-.16v1.44h10.12v-1.44h-.16c-2.68-.08-3.04-.28-3.04-1.72v-5.92c0-1.96.28-3.76.72-4.68.84-1.8 2.64-3.04 4.36-3.04 1.04 0 2.24.56 2.84 1.4.6.88.88 2.08.88 4v8.36c-.04.6-.08.84-.24 1.04-.28.36-1.08.52-2.8.56h-.16v1.44h10.12v-1.44h-.16c-2.64-.08-3-.28-3-1.72v-8.04c0-2.88-.12-3.6-.84-4.96-1-1.92-3-3.08-5.4-3.08-2.6 0-4.56 1.2-6.32 3.84v-3.24m35.03 9.64c.04-6-3.36-10.24-8.24-10.24-5.12 0-8.96 4.44-8.96 10.44 0 5.64 3.64 9.4 9.04 9.4 3.84 0 6.52-1.88 8.16-5.68l-1.4-.76c-1.64 3.08-3.32 4.28-6 4.28-2.04 0-3.52-.84-4.56-2.64-.72-1.2-1.04-2.6-1-4.8h12.96m-12.92-1.72c0-1.24.16-2.12.56-3.24.84-2.4 2.12-3.56 4.08-3.56 2.4 0 4 2.12 4 5.36 0 1.12-.36 1.44-1.64 1.44h-7"/>
 <path class="Lyrics" d="m982.89 572.19-7.12.44v1.72h1.64c1.52.04 1.72.28 1.72 2v11.44c-.04.6-.08.84-.24 1.04-.28.36-1.04.52-2.76.56h-.16v1.44h10.08v-1.44h-.16c-2.64-.08-3-.28-3-1.76v-7.4c0-3.56 1.96-6.2 4.56-6.2 2.28 0 3.44 1.64 3.44 4.88v8.92c-.04.52-.08.8-.28 1-.24.36-1.04.52-2.76.56h-.16v1.44h10.12v-1.44h-.16c-2.64-.08-3-.28-3-1.72v-7.08c0-4 1.8-6.56 4.6-6.56 2.28 0 3.4 1.72 3.4 5.32v8.44c-.04.56-.08.84-.28 1.04-.24.36-1.04.52-2.76.56h-.16v1.44h10.12v-1.44h-.16c-2.64-.08-3-.28-3-1.76v-9.08c0-2.48-.24-3.32-1.28-4.68-1.16-1.48-2.8-2.28-4.72-2.28-2.6 0-4.52 1.24-6.24 4-.68-2.4-2.84-4-5.52-4-2.44 0-4.2 1.16-5.76 3.68v-3.08m46.1 9.64c.04-6-3.36-10.24-8.24-10.24-5.12 0-8.96 4.44-8.96 10.44 0 5.64 3.64 9.4 9.04 9.4 3.84 0 6.52-1.88 8.16-5.68l-1.4-.76c-1.64 3.08-3.32 4.28-6 4.28-2.04 0-3.52-.84-4.56-2.64-.72-1.2-1.04-2.6-1-4.8h12.96m-12.92-1.72c0-1.24.16-2.12.56-3.24.84-2.4 2.12-3.56 4.08-3.56 2.4 0 4 2.12 4 5.36 0 1.12-.36 1.44-1.64 1.44h-7m17.6 18.08c3.6-2.48 5.24-4.92 5.24-7.72 0-2.4-1.32-3.96-3.28-3.96-1.48 0-2.6 1.04-2.6 2.4 0 1.44 1.08 2.36 2.76 2.36.2 0 .48 0 .6-.04h.12c.2 0 .28.12.28.36 0 1.68-1.36 3.56-4.04 5.44l.92 1.16"/>
 <path class="Lyrics" d="m1092.7 587.87c-2.2-.04-2.32-.08-2.8-.36-.28-.16-.48-.6-.48-1.04 0-1.2 1.08-1.72 3.76-1.8 3.76-.08 4.36-.16 5.72-.76 2.4-1.08 3.72-3.16 3.72-5.8 0-1.6-.36-2.6-1.44-3.92.68-.72 1.04-.96 1.36-.96.2 0 .32.12.4.56.16.96.8 1.48 1.8 1.48 1.04 0 1.8-.84 1.8-1.92 0-1.36-1.08-2.32-2.64-2.32-1.28 0-2 .4-3.84 2.08-1.68-1.12-2.96-1.52-4.96-1.52-4.76 0-7.88 2.64-7.88 6.64 0 2.36 1.28 4.36 3.36 5.36-2.68.6-3.8 1.8-3.8 4 0 1.76.8 2.8 2.68 3.44-2.48.92-3.68 2.16-3.68 3.8 0 1.2.8 2.32 2.08 3 1.56.8 3.48 1.12 6.36 1.12 6.68 0 10-2.12 10-6.32 0-2-.92-3.6-2.36-4.2-1.08-.4-2.36-.56-5.08-.56h-4.08m2.36-14.56c2.48 0 3.88 1.72 3.88 4.84s-1.52 5-4.04 5c-2.48 0-4.04-1.88-4.04-4.88 0-3.16 1.52-4.96 4.2-4.96m-.36 18c3.32 0 3.56 0 4.12.08 1.64.16 2.6 1.04 2.6 2.32 0 2.28-2.6 3.6-7.04 3.6-3.4 0-5.28-1-5.28-2.8 0-1.32.72-2.2 2.64-3.2h2.96m29.79-9.48c.04-6-3.36-10.24-8.24-10.24-5.12 0-8.96 4.44-8.96 10.44 0 5.64 3.64 9.4 9.04 9.4 3.84 0 6.52-1.88 8.16-5.68l-1.4-.76c-1.64 3.08-3.32 4.28-6 4.28-2.04 0-3.52-.84-4.56-2.64-.72-1.2-1.04-2.6-1-4.8h12.96m-12.92-1.72c0-1.24.16-2.12.56-3.24.84-2.4 2.12-3.56 4.08-3.56 2.4 0 4 2.12 4 5.36 0 1.12-.36 1.44-1.64 1.44h-7"/>
 <path class="Lyrics" d="m1157.2 572.19-6.92.44v1.72h1.44c1.52.04 1.72.28 1.72 2v11.44c-.04.6-.08.84-.24 1.04-.28.36-1.04.52-2.76.56h-.16v1.44h10.12v-1.44h-.16c-2.68-.08-3.04-.28-3.04-1.72v-5.92c0-1.96.28-3.76.72-4.68.84-1.8 2.64-3.04 4.36-3.04 1.04 0 2.24.56 2.84 1.4.6.88.88 2.08.88 4v8.36c-.04.6-.08.84-.24 1.04-.28.36-1.08.52-2.8.56h-.16v1.44h10.12v-1.44h-.16c-2.64-.08-3-.28-3-1.72v-8.04c0-2.88-.12-3.6-.84-4.96-1-1.92-3-3.08-5.4-3.08-2.6 0-4.56 1.2-6.32 3.84v-3.24m35.04 9.64c.04-6-3.36-10.24-8.24-10.24-5.12 0-8.96 4.44-8.96 10.44 0 5.64 3.64 9.4 9.04 9.4 3.84 0 6.52-1.88 8.16-5.68l-1.4-.76c-1.64 3.08-3.32 4.28-6 4.28-2.04 0-3.52-.84-4.56-2.64-.72-1.2-1.04-2.6-1-4.8h12.96m-12.92-1.72c0-1.24.16-2.12.56-3.24.84-2.4 2.12-3.56 4.08-3.56 2.4 0 4 2.12 4 5.36 0 1.12-.36 1.44-1.64 1.44h-7"/>
 <path class="Lyrics" d="m1217.5 572.19-7.12.44v1.72h1.64c1.52.04 1.72.28 1.72 2v11.44c-.04.6-.08.84-.24 1.04-.28.36-1.04.52-2.76.56h-.16v1.44h10.08v-1.44h-.16c-2.64-.08-3-.28-3-1.76v-7.4c0-3.56 1.96-6.2 4.56-6.2 2.28 0 3.44 1.64 3.44 4.88v8.92c-.04.52-.08.8-.28 1-.24.36-1.04.52-2.76.56h-.16v1.44h10.12v-1.44h-.16c-2.64-.08-3-.28-3-1.72v-7.08c0-4 1.8-6.56 4.6-6.56 2.28 0 3.4 1.72 3.4 5.32v8.44c-.04.56-.08.84-.28 1.04-.24.36-1.04.52-2.76.56h-.16v1.44h10.12v-1.44h-.16c-2.64-.08-3-.28-3-1.76v-9.08c0-2.48-.24-3.32-1.28-4.68-1.16-1.48-2.8-2.28-4.72-2.28-2.6 0-4.52 1.24-6.24 4-.68-2.4-2.84-4-5.52-4-2.44 0-4.2 1.16-5.76 3.68v-3.08m46.11 9.64c.04-6-3.36-10.24-8.24-10.24-5.12 0-8.96 4.44-8.96 10.44 0 5.64 3.64 9.4 9.04 9.4 3.84 0 6.52-1.88 8.16-5.68l-1.4-.76c-1.64 3.08-3.32 4.28-6 4.28-2.04 0-3.52-.84-4.56-2.64-.72-1.2-1.04-2.6-1-4.8h12.96m-12.92-1.72c0-1.24.16-2.12.56-3.24.84-2.4 2.12-3.56 4.08-3.56 2.4 0 4 2.12 4 5.36 0 1.12-.36 1.44-1.64 1.44h-7m20.23 3.08c.04-7.08.2-9.04.96-12.8.56-2.76.72-4 .72-5.2 0-2.56-.8-3.8-2.44-3.8s-2.48 1.28-2.48 3.76c0 1.2.16 2.44.72 5.24.76 3.76.88 5.64.96 12.8h1.56m-.76 3.2c-1.4 0-2.52 1.12-2.52 2.48 0 1.4 1.12 2.52 2.48 2.52 1.4 0 2.52-1.12 2.52-2.52 0-1.36-1.12-2.48-2.48-2.48"/>
 <path class="Lyrics" d="m253.58 894.7v1.88h.72c2.28.04 3.04.16 3.36.56.24.36.24.44.24 2.48v19.04c0 2.04 0 2.12-.24 2.48-.32.4-1.08.56-3.36.56h-.72v1.88h14.52c6.92 0 11.08-2.92 11.08-7.84 0-4-2.52-6.28-8-7.24 1.92-.4 2.8-.76 3.84-1.52 1.64-1.24 2.64-3.2 2.64-5.2 0-2.6-1.6-5.12-3.92-6.12-1.44-.64-3.44-.96-5.8-.96h-14.36m8.8 13v-9.12c0-1.56.52-1.96 2.64-2h1.6c1.84 0 3.36.32 4.2.84 1.44.88 2.2 2.56 2.2 4.8 0 3.96-1.92 5.48-7.08 5.48h-3.56m0 1.88h3.52c6.12 0 8.36 1.64 8.36 6.04 0 2.56-.88 4.4-2.44 5.16-1.24.64-2.92.92-5.44.92h-1.68c-2 0-2.4-.4-2.32-2.52v-9.6m37.475 5c.04-6-3.36-10.24-8.24-10.24-5.12 0-8.96 4.44-8.96 10.44 0 5.64 3.64 9.4 9.04 9.4 3.84 0 6.52-1.88 8.16-5.68l-1.4-.76c-1.64 3.08-3.32 4.28-6 4.28-2.04 0-3.52-.84-4.56-2.64-.72-1.2-1.04-2.6-1-4.8h12.96m-12.92-1.72c0-1.24.16-2.12.56-3.24.84-2.4 2.12-3.56 4.08-3.56 2.4 0 4 2.12 4 5.36 0 1.12-.36 1.44-1.64 1.44h-7m22.32-7.92-6.92.44v1.72h1.44c1.52.04 1.72.28 1.72 2v11.44c-.04.6-.08.84-.24 1.04-.28.36-1.04.52-2.76.56h-.16v1.44h10.12v-1.44h-.16c-2.68-.08-3.04-.28-3.04-1.72v-5.92c0-1.96.28-3.76.72-4.68.84-1.8 2.64-3.04 4.36-3.04 1.04 0 2.24.56 2.84 1.4.6.88.88 2.08.88 4v8.36c-.04.6-.08.84-.24 1.04-.28.36-1.08.52-2.8.56h-.16v1.44h10.12v-1.44h-.16c-2.64-.08-3-.28-3-1.72v-8.04c0-2.88-.12-3.6-.84-4.96-1-1.92-3-3.08-5.4-3.08-2.6 0-4.56 1.2-6.32 3.84v-3.24m42.747 18.92 6.96-.28v-1.72h-.72c-2.28-.12-2.48-.36-2.48-2.92v-24.84l-7.84.44v1.72h2.36c1.52.04 1.72.28 1.72 2v9.04c-1.48-2.04-3.2-2.96-5.52-2.96-4.52 0-7.96 4.36-7.96 10.12 0 5.68 3.32 9.72 7.96 9.72 2.52 0 4.24-1.08 5.52-3.48v3.16m-4.72-17.36c1.64 0 3.2 1.2 3.92 3.04.52 1.2.76 2.84.76 4.8 0 4.68-1.84 7.68-4.72 7.68-2.84 0-4.52-2.64-4.52-7.08 0-2.4.24-4.2.76-5.52.68-1.8 2.16-2.92 3.8-2.92m14.353-.92c1.48-1.08 2.36-1.76 2.64-2 1.56-1.4 2.6-3.72 2.6-5.84 0-2.24-1.36-3.8-3.28-3.8-1.48 0-2.6 1.04-2.6 2.4 0 1.48 1.04 2.36 2.88 2.36.24 0 .32 0 .48-.04h.12c.2 0 .28.12.28.32 0 1.92-1.36 3.8-4.04 5.48l.92 1.12"/>
 <path class="Lyrics" d="m442.78 904.94-6.92.44v1.72h1.44c1.52.04 1.72.28 1.72 2v11.44c-.04.6-.08.84-.24 1.04-.28.36-1.04.52-2.76.56h-.16v1.44h10.12v-1.44h-.16c-2.68-.08-3.04-.28-3.04-1.72v-5.92c0-1.96.28-3.76.72-4.68.84-1.8 2.64-3.04 4.36-3.04 1.04 0 2.24.56 2.84 1.4.6.88.88 2.08.88 4v8.36c-.04.6-.08.84-.24 1.04-.28.36-1.08.52-2.8.56h-.16v1.44h10.12v-1.44h-.16c-2.64-.08-3-.28-3-1.72v-8.04c0-2.88-.12-3.6-.84-4.96-1-1.92-3-3.08-5.4-3.08-2.6 0-4.56 1.2-6.32 3.84v-3.24m32.917 18.92 7.28-.28v-1.72h-1c-2.32-.08-2.52-.32-2.52-2.92v-14l-7.52.44v1.72h2.04c1.52.04 1.72.28 1.72 2v4.92c0 2.28-.24 3.64-.84 4.92-.84 1.8-2.44 2.8-4.4 2.8-1.24 0-2.28-.44-2.8-1.24-.52-.76-.6-1.16-.6-3.36v-12.2l-7 .44v1.72h1.52c1.52.04 1.72.28 1.72 2v8.64c0 2.04.16 2.96.76 3.88 1.08 1.64 3 2.56 5.4 2.56 2.64 0 4.48-1.08 6.24-3.64v3.32"/>
 <path class="Lyrics" d="m524.68 894.1-7.4.44v1.72h1.96c1.48.04 1.68.28 1.68 2v22.28c-.04.6-.08.84-.24 1.04-.28.36-1.04.52-2.76.56h-.28v1.44h10.36v-1.44h-.28c-2.68-.08-3.04-.28-3.04-1.72v-26.32m12.674 10.84-7.52.44v1.72h2.04c1.52.04 1.72.28 1.72 2v11.44c-.04.6-.08.84-.24 1.04-.28.36-1.04.52-2.76.56h-.28v1.44h10.36v-1.44h-.28c-2.68-.08-3.04-.28-3.04-1.72v-15.48m-1.88-9.96c-1.28 0-2.32 1.04-2.32 2.32s1.04 2.32 2.28 2.32c1.32 0 2.36-1.04 2.36-2.32s-1.04-2.32-2.32-2.32m9.714 35.96c3.6-2.48 5.24-4.92 5.24-7.72 0-2.4-1.32-3.96-3.28-3.96-1.48 0-2.6 1.04-2.6 2.4 0 1.44 1.08 2.36 2.76 2.36.2 0 .48 0 .6-.04h.12c.2 0 .28.12.28.36 0 1.68-1.36 3.56-4.04 5.44l.92 1.16"/>
 <path class="Lyrics" d="m582.18 904.94-6.92.44v1.72h1.44c1.52.04 1.72.28 1.72 2v11.44c-.04.6-.08.84-.24 1.04-.28.36-1.04.52-2.76.56h-.16v1.44h10.12v-1.44h-.16c-2.68-.08-3.04-.28-3.04-1.72v-5.92c0-1.96.28-3.76.72-4.68.84-1.8 2.64-3.04 4.36-3.04 1.04 0 2.24.56 2.84 1.4.6.88.88 2.08.88 4v8.36c-.04.6-.08.84-.24 1.04-.28.36-1.08.52-2.8.56h-.16v1.44h10.12v-1.44h-.16c-2.64-.08-3-.28-3-1.72v-8.04c0-2.88-.12-3.6-.84-4.96-1-1.92-3-3.08-5.4-3.08-2.6 0-4.56 1.2-6.32 3.84v-3.24m32.917 18.92 7.28-.28v-1.72h-1c-2.32-.08-2.52-.32-2.52-2.92v-14l-7.52.44v1.72h2.04c1.52.04 1.72.28 1.72 2v4.92c0 2.28-.24 3.64-.84 4.92-.84 1.8-2.44 2.8-4.4 2.8-1.24 0-2.28-.44-2.8-1.24-.52-.76-.6-1.16-.6-3.36v-12.2l-7 .44v1.72h1.52c1.52.04 1.72.28 1.72 2v8.64c0 2.04.16 2.96.76 3.88 1.08 1.64 3 2.56 5.4 2.56 2.64 0 4.48-1.08 6.24-3.64v3.32"/>
 <path class="Lyrics" d="m664.08 894.1-7.402.44v1.72h1.96c1.48.04 1.68.28 1.68 2v22.28c-.04.6-.08.84-.24 1.04-.28.36-1.04.52-2.76.56h-.28v1.44h10.362v-1.44h-.28c-2.68-.08-3.04-.28-3.04-1.72v-26.32m12.67 10.84-7.52.44v1.72h2.04c1.52.04 1.72.28 1.72 2v11.44c-.04.6-.08.84-.24 1.04-.28.36-1.04.52-2.76.56h-.28v1.44h10.36v-1.44h-.28c-2.68-.08-3.04-.28-3.04-1.72v-15.48m-1.88-9.96c-1.28 0-2.32 1.04-2.32 2.32s1.04 2.32 2.28 2.32c1.32 0 2.36-1.04 2.36-2.32s-1.04-2.32-2.32-2.32m9.72 35.96c3.6-2.48 5.24-4.92 5.24-7.72 0-2.4-1.32-3.96-3.28-3.96-1.48 0-2.6 1.04-2.6 2.4 0 1.44 1.08 2.36 2.76 2.36.2 0 .48 0 .6-.04h.12c.2 0 .28.12.28.36 0 1.68-1.36 3.56-4.04 5.44l.92 1.16"/>
 <path class="Lyrics" d="m721.58 904.94-6.92.44v1.72h1.44c1.52.04 1.72.28 1.72 2v11.44c-.04.6-.08.84-.24 1.04-.28.36-1.04.52-2.76.56h-.16v1.44h10.12v-1.44h-.16c-2.68-.08-3.04-.28-3.04-1.72v-5.92c0-1.96.28-3.76.72-4.68.84-1.8 2.64-3.04 4.36-3.04 1.04 0 2.24.56 2.84 1.4.6.88.88 2.08.88 4v8.36c-.04.6-.08.84-.24 1.04-.28.36-1.08.52-2.8.56h-.16v1.44h10.12v-1.44h-.16c-2.64-.08-3-.28-3-1.72v-8.04c0-2.88-.12-3.6-.84-4.96-1-1.92-3-3.08-5.4-3.08-2.6 0-4.56 1.2-6.32 3.84v-3.24m32.92 18.92 7.28-.28v-1.72h-1c-2.32-.08-2.52-.32-2.52-2.92v-14l-7.52.44v1.72h2.04c1.52.04 1.72.28 1.72 2v4.92c0 2.28-.24 3.64-.84 4.92-.84 1.8-2.44 2.8-4.4 2.8-1.24 0-2.28-.44-2.8-1.24-.52-.76-.6-1.16-.6-3.36v-12.2l-7 .44v1.72h1.52c1.52.04 1.72.28 1.72 2v8.64c0 2.04.16 2.96.76 3.88 1.08 1.64 3 2.56 5.4 2.56 2.64 0 4.48-1.08 6.24-3.64v3.32"/>
 <path class="Lyrics" d="m803.48 894.1-7.4.44v1.72h1.96c1.48.04 1.68.28 1.68 2v22.28c-.04.6-.08.84-.24 1.04-.28.36-1.04.52-2.76.56h-.28v1.44h10.36v-1.44h-.28c-2.68-.08-3.04-.28-3.04-1.72v-26.32m12.68 10.84-7.52.44v1.72h2.04c1.52.04 1.72.28 1.72 2v11.44c-.04.6-.08.84-.24 1.04-.28.36-1.04.52-2.76.56h-.28v1.44h10.36v-1.44h-.28c-2.68-.08-3.04-.28-3.04-1.72v-15.48m-1.88-9.96c-1.28 0-2.32 1.04-2.32 2.32s1.04 2.32 2.28 2.32c1.32 0 2.36-1.04 2.36-2.32s-1.04-2.32-2.32-2.32m9.71 35.96c3.6-2.48 5.24-4.92 5.24-7.72 0-2.4-1.32-3.96-3.28-3.96-1.48 0-2.6 1.04-2.6 2.4 0 1.44 1.08 2.36 2.76 2.36.2 0 .48 0 .6-.04h.12c.2 0 .28.12.28.36 0 1.68-1.36 3.56-4.04 5.44l.92 1.16"/>
 <path class="Lyrics" d="m860.98 904.94-6.92.44v1.72h1.44c1.52.04 1.72.28 1.72 2v11.44c-.04.6-.08.84-.24 1.04-.28.36-1.04.52-2.76.56h-.16v1.44h10.12v-1.44h-.16c-2.68-.08-3.04-.28-3.04-1.72v-5.92c0-1.96.28-3.76.72-4.68.84-1.8 2.64-3.04 4.36-3.04 1.04 0 2.24.56 2.84 1.4.6.88.88 2.08.88 4v8.36c-.04.6-.08.84-.24 1.04-.28.36-1.08.52-2.8.56h-.16v1.44h10.12v-1.44h-.16c-2.64-.08-3-.28-3-1.72v-8.04c0-2.88-.12-3.6-.84-4.96-1-1.92-3-3.08-5.4-3.08-2.6 0-4.56 1.2-6.32 3.84v-3.24m32.92 18.92 7.28-.28v-1.72h-1c-2.32-.08-2.52-.32-2.52-2.92v-14l-7.52.44v1.72h2.04c1.52.04 1.72.28 1.72 2v4.92c0 2.28-.24 3.64-.84 4.92-.84 1.8-2.44 2.8-4.4 2.8-1.24 0-2.28-.44-2.8-1.24-.52-.76-.6-1.16-.6-3.36v-12.2l-7 .44v1.72h1.52c1.52.04 1.72.28 1.72 2v8.64c0 2.04.16 2.96.76 3.88 1.08 1.64 3 2.56 5.4 2.56 2.64 0 4.48-1.08 6.24-3.64v3.32"/>
 <path class="Lyrics" d="m942.88 894.1-7.4.44v1.72h1.96c1.48.04 1.68.28 1.68 2v22.28c-.04.6-.08.84-.24 1.04-.28.36-1.04.52-2.76.56h-.28v1.44h10.36v-1.44h-.28c-2.68-.08-3.04-.28-3.04-1.72v-26.32m12.68 10.84-7.52.44v1.72h2.04c1.52.04 1.72.28 1.72 2v11.44c-.04.6-.08.84-.24 1.04-.28.36-1.04.52-2.76.56h-.28v1.44h10.36v-1.44h-.28c-2.68-.08-3.04-.28-3.04-1.72v-15.48m-1.88-9.96c-1.28 0-2.32 1.04-2.32 2.32s1.04 2.32 2.28 2.32c1.32 0 2.36-1.04 2.36-2.32s-1.04-2.32-2.32-2.32m9.71 35.96c3.6-2.48 5.24-4.92 5.24-7.72 0-2.4-1.32-3.96-3.28-3.96-1.48 0-2.6 1.04-2.6 2.4 0 1.44 1.08 2.36 2.76 2.36.2 0 .48 0 .6-.04h.12c.2 0 .28.12.28.36 0 1.68-1.36 3.56-4.04 5.44l.92 1.16"/>
 <path class="Lyrics" d="m991.09 894.1-6.88.44v1.72h1.4c1.52.04 1.72.28 1.72 2v15.56c0 5.56-.24 8.6-.72 10.32h1.52l1.96-3.12c1.64 2.16 3.52 3.16 6 3.16 4.96 0 8.6-4.24 8.6-10.04 0-5.76-3.36-9.8-8.16-9.8-2.44 0-3.92.84-5.44 3.12v-13.36m4.72 12.28c3 0 4.68 2.92 4.68 8.16 0 5.08-1.64 7.92-4.56 7.92-3.16 0-5.04-2.92-5.04-7.84 0-5.36 1.72-8.24 4.92-8.24m28.91 8.2c.04-6-3.36-10.24-8.24-10.24-5.12 0-8.96 4.44-8.96 10.44 0 5.64 3.64 9.4 9.04 9.4 3.84 0 6.52-1.88 8.16-5.68l-1.4-.76c-1.64 3.08-3.32 4.28-6 4.28-2.04 0-3.52-.84-4.56-2.64-.72-1.2-1.04-2.6-1-4.8h12.96m-12.92-1.72c0-1.24.16-2.12.56-3.24.84-2.4 2.12-3.56 4.08-3.56 2.4 0 4 2.12 4 5.36 0 1.12-.36 1.44-1.64 1.44h-7m22.32-7.92-6.92.44v1.72h1.44c1.52.04 1.72.28 1.72 2v11.44c-.04.6-.08.84-.24 1.04-.28.36-1.04.52-2.76.56h-.16v1.44h10.12v-1.44h-.16c-2.68-.08-3.04-.28-3.04-1.72v-5.92c0-1.96.28-3.76.72-4.68.84-1.8 2.64-3.04 4.36-3.04 1.04 0 2.24.56 2.84 1.4.6.88.88 2.08.88 4v8.36c-.04.6-.08.84-.24 1.04-.28.36-1.08.52-2.8.56h-.16v1.44h10.12v-1.44h-.16c-2.64-.08-3-.28-3-1.72v-8.04c0-2.88-.12-3.6-.84-4.96-1-1.92-3-3.08-5.4-3.08-2.6 0-4.56 1.2-6.32 3.84v-3.24"/>
 <path class="Lyrics" d="m1156.7 923.86 6.96-.28v-1.72h-.72c-2.28-.12-2.48-.36-2.48-2.92v-24.84l-7.84.44v1.72h2.36c1.52.04 1.72.28 1.72 2v9.04c-1.48-2.04-3.2-2.96-5.52-2.96-4.52 0-7.96 4.36-7.96 10.12 0 5.68 3.32 9.72 7.96 9.72 2.52 0 4.24-1.08 5.52-3.48v3.16m-4.72-17.36c1.64 0 3.2 1.2 3.92 3.04.52 1.2.76 2.84.76 4.8 0 4.68-1.84 7.68-4.72 7.68-2.84 0-4.52-2.64-4.52-7.08 0-2.4.24-4.2.76-5.52.68-1.8 2.16-2.92 3.8-2.92m14.36-.92c1.48-1.08 2.36-1.76 2.64-2 1.56-1.4 2.6-3.72 2.6-5.84 0-2.24-1.36-3.8-3.28-3.8-1.48 0-2.6 1.04-2.6 2.4 0 1.48 1.04 2.36 2.88 2.36.24 0 .32 0 .48-.04h.12c.2 0 .28.12.28.32 0 1.92-1.36 3.8-4.04 5.48l.92 1.12"/>
 <path class="Lyrics" d="m1259.2 894.1-7.4.44v1.72h1.96c1.48.04 1.68.28 1.68 2v22.28c-.04.6-.08.84-.24 1.04-.28.36-1.04.52-2.76.56h-.28v1.44h10.36v-1.44h-.28c-2.68-.08-3.04-.28-3.04-1.72v-26.32m23.03 20.48c.04-6-3.36-10.24-8.24-10.24-5.12 0-8.96 4.44-8.96 10.44 0 5.64 3.64 9.4 9.04 9.4 3.84 0 6.52-1.88 8.16-5.68l-1.4-.76c-1.64 3.08-3.32 4.28-6 4.28-2.04 0-3.52-.84-4.56-2.64-.72-1.2-1.04-2.6-1-4.8h12.96m-12.92-1.72c0-1.24.16-2.12.56-3.24.84-2.4 2.12-3.56 4.08-3.56 2.4 0 4 2.12 4 5.36 0 1.12-.36 1.44-1.64 1.44h-7"/>
 <polyline class="LyricsLineSegment" points="1147.2 233.32 1167.1 233.32" fill="none" stroke="#000" stroke-linejoin="bevel" stroke-width="3.73"/>
 <polyline class="LyricsLineSegment" points="674.69 233.32 694.56 233.32" fill="none" stroke="#000" stroke-linejoin="bevel" stroke-width="3.73"/>
 <polyline class="LyricsLineSegment" points="508.38 233.32 528.25 233.32" fill="none" stroke="#000" stroke-linejoin="bevel" stroke-width="3.73"/>
 <polyline class="LyricsLineSegment" points="837.83 233.32 857.71 233.32" fill="none" stroke="#000" stroke-linejoin="bevel" stroke-width="3.73"/>
 <polyline class="LyricsLineSegment" points="462.36 581.08 482.23 581.08" fill="none" stroke="#000" stroke-linejoin="bevel" stroke-width="3.73"/>
 <polyline class="LyricsLineSegment" points="638.22 581.08 658.09 581.08" fill="none" stroke="#000" stroke-linejoin="bevel" stroke-width="3.73"/>
 <polyline class="LyricsLineSegment" points="808.52 581.08 828.39 581.08" fill="none" stroke="#000" stroke-linejoin="bevel" stroke-width="3.73"/>
 <polyline class="LyricsLineSegment" points="1127.7 581.08 1147.6 581.08" fill="none" stroke="#000" stroke-linejoin="bevel" stroke-width="3.73"/>
 <polyline class="LyricsLineSegment" points="490.17 913.83 510.04 913.83" fill="none" stroke="#000" stroke-linejoin="bevel" stroke-width="3.73"/>
 <polyline class="LyricsLineSegment" points="629.57 913.83 649.44 913.83" fill="none" stroke="#000" stroke-linejoin="bevel" stroke-width="3.73"/>
 <polyline class="LyricsLineSegment" points="768.97 913.83 788.84 913.83" fill="none" stroke="#000" stroke-linejoin="bevel" stroke-width="3.73"/>
 <polyline class="LyricsLineSegment" points="908.38 913.83 928.25 913.83" fill="none" stroke="#000" stroke-linejoin="bevel" stroke-width="3.73"/>
 <path class="NoteDot" d="m1045.6 843.28c0 2.7438 2.2242 4.968 4.968 4.968s4.968-2.2242 4.968-4.968c0-2.7438-2.2242-4.968-4.968-4.968s-4.968 2.2242-4.968 4.968" stroke-width=".9936"/>
</svg>
