<?xml version="1.0" encoding="utf-8"?>
<svg xmlns="http://www.w3.org/2000/svg" version="1.2" viewBox="0 0 1431 536">
 <title>Two lines of musical notation representing a brief melody.</title>
 <polyline class="StaffLines" points="0 38.452 1431 38.452" fill="none" stroke="#000" stroke-linejoin="bevel" stroke-width="2.73"/>
 <polyline class="StaffLines" points="0 63.292 1431 63.292" fill="none" stroke="#000" stroke-linejoin="bevel" stroke-width="2.73"/>
 <polyline class="StaffLines" points="0 88.132 1431 88.132" fill="none" stroke="#000" stroke-linejoin="bevel" stroke-width="2.73"/>
 <polyline class="StaffLines" points="0 112.97 1431 112.97" fill="none" stroke="#000" stroke-linejoin="bevel" stroke-width="2.73"/>
 <polyline class="StaffLines" points="0 137.81 1431 137.81" fill="none" stroke="#000" stroke-linejoin="bevel" stroke-width="2.73"/>
 <polyline class="StaffLines" points="0 386.21 1431 386.21" fill="none" stroke="#000" stroke-linejoin="bevel" stroke-width="2.73"/>
 <polyline class="StaffLines" points="0 411.05 1431 411.05" fill="none" stroke="#000" stroke-linejoin="bevel" stroke-width="2.73"/>
 <polyline class="StaffLines" points="0 435.89 1431 435.89" fill="none" stroke="#000" stroke-linejoin="bevel" stroke-width="2.73"/>
 <polyline class="StaffLines" points="0 460.73 1431 460.73" fill="none" stroke="#000" stroke-linejoin="bevel" stroke-width="2.73"/>
 <polyline class="StaffLines" points="0 485.57 1431 485.57" fill="none" stroke="#000" stroke-linejoin="bevel" stroke-width="2.73"/>
 <polyline class="BarLine" points="382.74 37.086 382.74 139.18" fill="none" stroke="#000" stroke-linejoin="bevel" stroke-width="4.47"/>
 <polyline class="BarLine" points="671.99 37.086 671.99 139.18" fill="none" stroke="#000" stroke-linejoin="bevel" stroke-width="4.47"/>
 <polyline class="BarLine" points="933.87 37.086 933.87 139.18" fill="none" stroke="#000" stroke-linejoin="bevel" stroke-width="4.47"/>
 <polyline class="BarLine" points="1205.1 37.086 1205.1 139.18" fill="none" stroke="#000" stroke-linejoin="bevel" stroke-width="4.47"/>
 <polyline class="BarLine" points="1428.8 37.086 1428.8 139.18" fill="none" stroke="#000" stroke-linejoin="bevel" stroke-width="4.47"/>
 <polyline class="BarLine" points="450.46 384.85 450.46 486.94" fill="none" stroke="#000" stroke-linejoin="bevel" stroke-width="4.47"/>
 <polyline class="BarLine" points="815.22 384.85 815.22 486.94" fill="none" stroke="#000" stroke-linejoin="bevel" stroke-width="4.47"/>
 <polyline class="BarLine" points="1031.3 384.85 1031.3 486.94" fill="none" stroke="#000" stroke-linejoin="bevel" stroke-width="4.47"/>
 <polyline class="BarLine" points="1247.4 384.85 1247.4 486.94" fill="none" stroke="#000" stroke-linejoin="bevel" stroke-width="4.47"/>
 <polyline class="LedgerLine" points="244.61 162.65 294.28 162.65" fill="none" stroke="#000" stroke-linejoin="bevel" stroke-width="3.97"/>
 <polyline class="LedgerLine" points="417.26 162.65 466.93 162.65" fill="none" stroke="#000" stroke-linejoin="bevel" stroke-width="3.97"/>
 <polyline class="LedgerLine" points="562.81 162.65 612.48 162.65" fill="none" stroke="#000" stroke-linejoin="bevel" stroke-width="3.97"/>
 <polyline class="LedgerLine" points="1095.9 162.65 1145.6 162.65" fill="none" stroke="#000" stroke-linejoin="bevel" stroke-width="3.97"/>
 <polyline class="LedgerLine" points="1239.6 162.65 1289.3 162.65" fill="none" stroke="#000" stroke-linejoin="bevel" stroke-width="3.97"/>
 <polyline class="LedgerLine" points="194.63 510.41 244.3 510.41" fill="none" stroke="#000" stroke-linejoin="bevel" stroke-width="3.97"/>
 <polyline class="LedgerLine" points="341.28 510.41 390.95 510.41" fill="none" stroke="#000" stroke-linejoin="bevel" stroke-width="3.97"/>
 <polyline class="Stem" points="284.22 171.89 284.22 88.132" fill="none" stroke="#000" stroke-linejoin="bevel" stroke-width="2.73"/>
 <polyline class="Stem" points="456.87 171.89 456.87 88.132" fill="none" stroke="#000" stroke-linejoin="bevel" stroke-width="2.73"/>
 <polyline class="Stem" points="602.42 159.47 602.42 75.712" fill="none" stroke="#000" stroke-linejoin="bevel" stroke-width="2.73"/>
 <polyline class="Stem" points="737.44 147.05 737.44 63.292" fill="none" stroke="#000" stroke-linejoin="bevel" stroke-width="2.73"/>
 <polyline class="Stem" points="864.29 134.63 864.29 50.872" fill="none" stroke="#000" stroke-linejoin="bevel" stroke-width="2.73"/>
 <polyline class="Stem" points="999.31 147.05 999.31 63.292" fill="none" stroke="#000" stroke-linejoin="bevel" stroke-width="2.73"/>
 <polyline class="Stem" points="1135.5 171.89 1135.5 88.132" fill="none" stroke="#000" stroke-linejoin="bevel" stroke-width="2.73"/>
 <polyline class="Stem" points="1279.2 171.89 1279.2 88.132" fill="none" stroke="#000" stroke-linejoin="bevel" stroke-width="2.73"/>
 <polyline class="Stem" points="234.24 519.65 234.24 435.89" fill="none" stroke="#000" stroke-linejoin="bevel" stroke-width="2.73"/>
 <polyline class="Stem" points="380.89 507.23 380.89 423.47" fill="none" stroke="#000" stroke-linejoin="bevel" stroke-width="2.73"/>
 <polyline class="Stem" points="515.91 494.81 515.91 411.05" fill="none" stroke="#000" stroke-linejoin="bevel" stroke-width="2.73"/>
 <polyline class="Stem" points="625.24 494.81 625.24 411.05" fill="none" stroke="#000" stroke-linejoin="bevel" stroke-width="2.73"/>
 <polyline class="Stem" points="734.57 482.39 734.57 398.63" fill="none" stroke="#000" stroke-linejoin="bevel" stroke-width="2.73"/>
 <polyline class="Stem" points="880.67 494.81 880.67 411.05" fill="none" stroke="#000" stroke-linejoin="bevel" stroke-width="2.73"/>
 <polyline class="Stem" points="1096.8 494.81 1096.8 411.05" fill="none" stroke="#000" stroke-linejoin="bevel" stroke-width="2.73"/>
 <polyline class="Stem" points="1312.8 494.81 1312.8 411.05" fill="none" stroke="#000" stroke-linejoin="bevel" stroke-width="2.73"/>
 <polyline class="Stem" points="284.22 147.05 284.22 63.292" fill="none" stroke="#000" stroke-linejoin="bevel" stroke-width="2.73"/>
 <polyline class="Stem" points="456.87 109.79 456.87 29.137" fill="none" stroke="#000" stroke-linejoin="bevel" stroke-width="2.73"/>
 <polyline class="Stem" points="602.42 97.372 602.42 19.822" fill="none" stroke="#000" stroke-linejoin="bevel" stroke-width="2.73"/>
 <polyline class="Stem" points="737.44 84.952 737.44 10.507" fill="none" stroke="#000" stroke-linejoin="bevel" stroke-width="2.73"/>
 <polyline class="Stem" points="864.29 72.532 864.29 1.192" fill="none" stroke="#000" stroke-linejoin="bevel" stroke-width="2.73"/>
 <polyline class="Stem" points="999.31 84.952 999.31 10.507" fill="none" stroke="#000" stroke-linejoin="bevel" stroke-width="2.73"/>
 <polyline class="Stem" points="1135.5 97.372 1135.5 19.822" fill="none" stroke="#000" stroke-linejoin="bevel" stroke-width="2.73"/>
 <polyline class="Stem" points="1279.2 109.79 1279.2 29.137" fill="none" stroke="#000" stroke-linejoin="bevel" stroke-width="2.73"/>
 <polyline class="Stem" points="234.24 457.55 234.24 376.9" fill="none" stroke="#000" stroke-linejoin="bevel" stroke-width="2.73"/>
 <polyline class="Stem" points="380.89 445.13 380.89 367.58" fill="none" stroke="#000" stroke-linejoin="bevel" stroke-width="2.73"/>
 <polyline class="Stem" points="515.91 432.71 515.91 358.27" fill="none" stroke="#000" stroke-linejoin="bevel" stroke-width="2.73"/>
 <polyline class="Stem" points="625.24 432.71 625.24 358.27" fill="none" stroke="#000" stroke-linejoin="bevel" stroke-width="2.73"/>
 <polyline class="Stem" points="734.57 420.29 734.57 348.95" fill="none" stroke="#000" stroke-linejoin="bevel" stroke-width="2.73"/>
 <polyline class="Stem" points="880.67 432.71 880.67 358.27" fill="none" stroke="#000" stroke-linejoin="bevel" stroke-width="2.73"/>
 <polyline class="Stem" points="1096.8 445.13 1096.8 367.58" fill="none" stroke="#000" stroke-linejoin="bevel" stroke-width="2.73"/>
 <polyline class="Stem" points="1312.8 457.55 1312.8 376.9" fill="none" stroke="#000" stroke-linejoin="bevel" stroke-width="2.73"/>
 <path class="Note" d="m284.6 167.02c-1.7885-3.2789-5.5642-5.0674-10.135-5.0674-3.3782 0-7.0546.9936-10.632 2.8814-6.5578 3.4776-10.532 9.3398-10.532 14.407 0 1.391.29808 2.7821.9936 4.0738 1.7885 3.2789 5.5642 4.968 10.135 4.968 3.3782 0 7.0546-.89424 10.632-2.7821 6.5578-3.4776 10.532-9.3398 10.532-14.407 0-1.391-.29808-2.7821-.9936-4.0738" stroke-width=".9936"/>
 <path class="Note" d="m457.25 167.02c-1.7885-3.2789-5.5642-5.0674-10.135-5.0674-3.3782 0-7.0546.9936-10.632 2.8814-6.5578 3.4776-10.532 9.3398-10.532 14.407 0 1.391.29808 2.7821.9936 4.0738 1.7885 3.2789 5.5642 4.968 10.135 4.968 3.3782 0 7.0546-.89424 10.632-2.7821 6.5578-3.4776 10.532-9.3398 10.532-14.407 0-1.391-.29808-2.7821-.9936-4.0738" stroke-width=".9936"/>
 <path class="Note" d="m602.8 154.6c-1.7885-3.2789-5.5642-5.0674-10.135-5.0674-3.3782 0-7.0546.9936-10.632 2.8814-6.5578 3.4776-10.532 9.3398-10.532 14.407 0 1.391.29808 2.7821.9936 4.0738 1.7885 3.2789 5.5642 4.968 10.135 4.968 3.3782 0 7.0546-.89424 10.632-2.7821 6.5578-3.4776 10.532-9.3398 10.532-14.407 0-1.391-.29808-2.7821-.9936-4.0738" stroke-width=".9936"/>
 <path class="Note" d="m737.82 142.18c-1.7885-3.2789-5.5642-5.0674-10.135-5.0674-3.3782 0-7.0546.9936-10.632 2.8814-6.5578 3.4776-10.532 9.3398-10.532 14.407 0 1.391.29808 2.7821.9936 4.0738 1.7885 3.2789 5.5642 4.968 10.135 4.968 3.3782 0 7.0546-.89424 10.632-2.7821 6.5578-3.4776 10.532-9.3398 10.532-14.407 0-1.391-.29808-2.7821-.9936-4.0738" stroke-width=".9936"/>
 <path class="Note" d="m864.67 129.76c-1.7885-3.2789-5.5642-5.0674-10.135-5.0674-3.3782 0-7.0546.9936-10.632 2.8814-6.5578 3.4776-10.532 9.3398-10.532 14.407 0 1.391.29808 2.7821.9936 4.0738 1.7885 3.2789 5.5642 4.968 10.135 4.968 3.3782 0 7.0546-.89424 10.632-2.7821 6.5578-3.4776 10.532-9.3398 10.532-14.407 0-1.391-.29808-2.7821-.9936-4.0738" stroke-width=".9936"/>
 <path class="Note" d="m999.69 142.18c-1.7885-3.2789-5.5642-5.0674-10.135-5.0674-3.3782 0-7.0546.9936-10.632 2.8814-6.5578 3.4776-10.532 9.3398-10.532 14.407 0 1.391.29808 2.7821.9936 4.0738 1.7885 3.2789 5.5642 4.968 10.135 4.968 3.3782 0 7.0546-.89424 10.632-2.7821 6.5578-3.4776 10.532-9.3398 10.532-14.407 0-1.391-.2981-2.7821-.9936-4.0738" stroke-width=".9936"/>
 <path class="Note" d="m1135.9 167.02c-1.7885-3.2789-5.5642-5.0674-10.135-5.0674-3.3783 0-7.0546.9936-10.632 2.8814-6.5578 3.4776-10.532 9.3398-10.532 14.407 0 1.391.2981 2.7821.9936 4.0738 1.7885 3.2789 5.5642 4.968 10.135 4.968 3.3783 0 7.0546-.89424 10.632-2.7821 6.5578-3.4776 10.532-9.3398 10.532-14.407 0-1.391-.2981-2.7821-.9936-4.0738" stroke-width=".9936"/>
 <path class="Note" d="m1279.6 167.02c-1.7885-3.2789-5.5642-5.0674-10.135-5.0674-3.3783 0-7.0546.9936-10.632 2.8814-6.5578 3.4776-10.532 9.3398-10.532 14.407 0 1.391.2981 2.7821.9936 4.0738 1.7885 3.2789 5.5642 4.968 10.135 4.968 3.3783 0 7.0546-.89424 10.632-2.7821 6.5578-3.4776 10.532-9.3398 10.532-14.407 0-1.391-.2981-2.7821-.9936-4.0738" stroke-width=".9936"/>
 <path class="Note" d="m234.62 514.78c-1.7885-3.2789-5.5642-5.0674-10.135-5.0674-3.3782 0-7.0546.9936-10.632 2.8814-6.5578 3.4776-10.532 9.3398-10.532 14.407 0 1.391.29808 2.7821.9936 4.0738 1.7885 3.2789 5.5642 4.968 10.135 4.968 3.3782 0 7.0546-.89424 10.632-2.7821 6.5578-3.4776 10.532-9.3398 10.532-14.407 0-1.391-.29808-2.7821-.9936-4.0738" stroke-width=".9936"/>
 <path class="Note" d="m381.27 502.36c-1.7885-3.2789-5.5642-5.0674-10.135-5.0674-3.3782 0-7.0546.9936-10.632 2.8814-6.5578 3.4776-10.532 9.3398-10.532 14.407 0 1.391.29808 2.7821.9936 4.0738 1.7885 3.2789 5.5642 4.968 10.135 4.968 3.3782 0 7.0546-.89424 10.632-2.7821 6.5578-3.4776 10.532-9.3398 10.532-14.407 0-1.391-.29808-2.7821-.9936-4.0738" stroke-width=".9936"/>
 <path class="Note" d="m516.29 489.94c-1.7885-3.2789-5.5642-5.0674-10.135-5.0674-3.3782 0-7.0546.9936-10.632 2.8814-6.5578 3.4776-10.532 9.3398-10.532 14.407 0 1.391.29808 2.7821.9936 4.0738 1.7885 3.2789 5.5642 4.968 10.135 4.968 3.3782 0 7.0546-.89424 10.632-2.7821 6.5578-3.4776 10.532-9.3398 10.532-14.407 0-1.391-.29808-2.7821-.9936-4.0738" stroke-width=".9936"/>
 <path class="Note" d="m625.62 489.94c-1.7885-3.2789-5.5642-5.0674-10.135-5.0674-3.3782 0-7.0546.9936-10.632 2.8814-6.5578 3.4776-10.532 9.3398-10.532 14.407 0 1.391.29808 2.7821.9936 4.0738 1.7885 3.2789 5.5642 4.968 10.135 4.968 3.3782 0 7.0546-.89424 10.632-2.7821 6.5578-3.4776 10.532-9.3398 10.532-14.407 0-1.391-.29808-2.7821-.9936-4.0738" stroke-width=".9936"/>
 <path class="Note" d="m734.95 477.52c-1.7885-3.2789-5.5642-5.0674-10.135-5.0674-3.3782 0-7.0546.9936-10.632 2.8814-6.5578 3.4776-10.532 9.3398-10.532 14.407 0 1.391.29808 2.7821.9936 4.0738 1.7885 3.2789 5.5642 4.968 10.135 4.968 3.3782 0 7.0546-.89424 10.632-2.7821 6.5578-3.4776 10.532-9.3398 10.532-14.407 0-1.391-.29808-2.7821-.9936-4.0738" stroke-width=".9936"/>
 <path class="Note" d="m881.05 489.94c-1.7885-3.2789-5.5642-5.0674-10.135-5.0674-3.3782 0-7.0546.9936-10.632 2.8814-6.5578 3.4776-10.532 9.3398-10.532 14.407 0 1.391.29808 2.7821.9936 4.0738 1.7885 3.2789 5.5642 4.968 10.135 4.968 3.3782 0 7.0546-.89424 10.632-2.7821 6.5578-3.4776 10.532-9.3398 10.532-14.407 0-1.391-.29808-2.7821-.9936-4.0738" stroke-width=".9936"/>
 <path class="Note" d="m1097.1 489.94c-1.7885-3.2789-5.5642-5.0674-10.135-5.0674-3.3783 0-7.0546.9936-10.632 2.8814-6.5578 3.4776-10.532 9.3398-10.532 14.407 0 1.391.2981 2.7821.9936 4.0738 1.7885 3.2789 5.5642 4.968 10.135 4.968 3.3783 0 7.0546-.89424 10.632-2.7821 6.5578-3.4776 10.532-9.3398 10.532-14.407 0-1.391-.2981-2.7821-.9936-4.0738" stroke-width=".9936"/>
 <path class="Note" d="m1313.2 489.94c-1.7885-3.2789-5.5642-5.0674-10.135-5.0674-3.3783 0-7.0546.9936-10.632 2.8814-6.5578 3.4776-10.532 9.3398-10.532 14.407 0 1.391.2981 2.7821.9936 4.0738 1.7885 3.2789 5.5642 4.968 10.135 4.968 3.3783 0 7.0546-.89424 10.632-2.7821 6.5578-3.4776 10.532-9.3398 10.532-14.407 0-1.391-.2981-2.7821-.9936-4.0738" stroke-width=".9936"/>
 <path class="Note" d="m284.6 142.18c-1.7885-3.2789-5.5642-5.0674-10.135-5.0674-3.3782 0-7.0546.9936-10.632 2.8814-6.5578 3.4776-10.532 9.3398-10.532 14.407 0 1.391.29808 2.7821.9936 4.0738 1.7885 3.2789 5.5642 4.968 10.135 4.968 3.3782 0 7.0546-.89424 10.632-2.7821 6.5578-3.4776 10.532-9.3398 10.532-14.407 0-1.391-.29808-2.7821-.9936-4.0738" stroke-width=".9936"/>
 <path class="Note" d="m457.25 104.92c-1.7885-3.2789-5.5642-5.0674-10.135-5.0674-3.3782 0-7.0546.9936-10.632 2.8814-6.5578 3.4776-10.532 9.3398-10.532 14.407 0 1.391.29808 2.7821.9936 4.0738 1.7885 3.2789 5.5642 4.968 10.135 4.968 3.3782 0 7.0546-.89424 10.632-2.7821 6.5578-3.4776 10.532-9.3398 10.532-14.407 0-1.391-.29808-2.7821-.9936-4.0738" stroke-width=".9936"/>
 <path class="Note" d="m602.8 92.504c-1.7885-3.2789-5.5642-5.0674-10.135-5.0674-3.3782 0-7.0546.9936-10.632 2.8814-6.5578 3.4776-10.532 9.3398-10.532 14.407 0 1.391.29808 2.7821.9936 4.0738 1.7885 3.2789 5.5642 4.968 10.135 4.968 3.3782 0 7.0546-.89424 10.632-2.7821 6.5578-3.4776 10.532-9.3398 10.532-14.407 0-1.391-.29808-2.7821-.9936-4.0738" stroke-width=".9936"/>
 <path class="Note" d="m737.82 80.084c-1.7885-3.2789-5.5642-5.0674-10.135-5.0674-3.3782 0-7.0546.9936-10.632 2.8814-6.5578 3.4776-10.532 9.3398-10.532 14.407 0 1.391.29808 2.7821.9936 4.0738 1.7885 3.2789 5.5642 4.968 10.135 4.968 3.3782 0 7.0546-.89424 10.632-2.7821 6.5578-3.4776 10.532-9.3398 10.532-14.407 0-1.391-.29808-2.7821-.9936-4.0738" stroke-width=".9936"/>
 <path class="Note" d="m864.67 67.664c-1.7885-3.2789-5.5642-5.0674-10.135-5.0674-3.3782 0-7.0546.9936-10.632 2.8814-6.5578 3.4776-10.532 9.3398-10.532 14.407 0 1.391.29808 2.7821.9936 4.0738 1.7885 3.2789 5.5642 4.968 10.135 4.968 3.3782 0 7.0546-.89424 10.632-2.7821 6.5578-3.4776 10.532-9.3398 10.532-14.407 0-1.391-.29808-2.7821-.9936-4.0738" stroke-width=".9936"/>
 <path class="Note" d="m999.69 80.084c-1.7885-3.2789-5.5642-5.0674-10.135-5.0674-3.3782 0-7.0546.9936-10.632 2.8814-6.5578 3.4776-10.532 9.3398-10.532 14.407 0 1.391.29808 2.7821.9936 4.0738 1.7885 3.2789 5.5642 4.968 10.135 4.968 3.3782 0 7.0546-.89424 10.632-2.7821 6.5578-3.4776 10.532-9.3398 10.532-14.407 0-1.391-.2981-2.7821-.9936-4.0738" stroke-width=".9936"/>
 <path class="Note" d="m1135.9 92.504c-1.7885-3.2789-5.5642-5.0674-10.135-5.0674-3.3783 0-7.0546.9936-10.632 2.8814-6.5578 3.4776-10.532 9.3398-10.532 14.407 0 1.391.2981 2.7821.9936 4.0738 1.7885 3.2789 5.5642 4.968 10.135 4.968 3.3783 0 7.0546-.89424 10.632-2.7821 6.5578-3.4776 10.532-9.3398 10.532-14.407 0-1.391-.2981-2.7821-.9936-4.0738" stroke-width=".9936"/>
 <path class="Note" d="m1279.6 104.92c-1.7885-3.2789-5.5642-5.0674-10.135-5.0674-3.3783 0-7.0546.9936-10.632 2.8814-6.5578 3.4776-10.532 9.3398-10.532 14.407 0 1.391.2981 2.7821.9936 4.0738 1.7885 3.2789 5.5642 4.968 10.135 4.968 3.3783 0 7.0546-.89424 10.632-2.7821 6.5578-3.4776 10.532-9.3398 10.532-14.407 0-1.391-.2981-2.7821-.9936-4.0738" stroke-width=".9936"/>
 <path class="Note" d="m234.62 452.68c-1.7885-3.2789-5.5642-5.0674-10.135-5.0674-3.3782 0-7.0546.9936-10.632 2.8814-6.5578 3.4776-10.532 9.3398-10.532 14.407 0 1.391.29808 2.7821.9936 4.0738 1.7885 3.2789 5.5642 4.968 10.135 4.968 3.3782 0 7.0546-.89424 10.632-2.7821 6.5578-3.4776 10.532-9.3398 10.532-14.407 0-1.391-.29808-2.7821-.9936-4.0738" stroke-width=".9936"/>
 <path class="Note" d="m381.27 440.26c-1.7885-3.2789-5.5642-5.0674-10.135-5.0674-3.3782 0-7.0546.9936-10.632 2.8814-6.5578 3.4776-10.532 9.3398-10.532 14.407 0 1.391.29808 2.7821.9936 4.0738 1.7885 3.2789 5.5642 4.968 10.135 4.968 3.3782 0 7.0546-.89424 10.632-2.7821 6.5578-3.4776 10.532-9.3398 10.532-14.407 0-1.391-.29808-2.7821-.9936-4.0738" stroke-width=".9936"/>
 <path class="Note" d="m516.29 427.84c-1.7885-3.2789-5.5642-5.0674-10.135-5.0674-3.3782 0-7.0546.9936-10.632 2.8814-6.5578 3.4776-10.532 9.3398-10.532 14.407 0 1.391.29808 2.7821.9936 4.0738 1.7885 3.2789 5.5642 4.968 10.135 4.968 3.3782 0 7.0546-.89424 10.632-2.7821 6.5578-3.4776 10.532-9.3398 10.532-14.407 0-1.391-.29808-2.7821-.9936-4.0738" stroke-width=".9936"/>
 <path class="Note" d="m625.62 427.84c-1.7885-3.2789-5.5642-5.0674-10.135-5.0674-3.3782 0-7.0546.9936-10.632 2.8814-6.5578 3.4776-10.532 9.3398-10.532 14.407 0 1.391.29808 2.7821.9936 4.0738 1.7885 3.2789 5.5642 4.968 10.135 4.968 3.3782 0 7.0546-.89424 10.632-2.7821 6.5578-3.4776 10.532-9.3398 10.532-14.407 0-1.391-.29808-2.7821-.9936-4.0738" stroke-width=".9936"/>
 <path class="Note" d="m734.95 415.42c-1.7885-3.2789-5.5642-5.0674-10.135-5.0674-3.3782 0-7.0546.9936-10.632 2.8814-6.5578 3.4776-10.532 9.3398-10.532 14.407 0 1.391.29808 2.7821.9936 4.0738 1.7885 3.2789 5.5642 4.968 10.135 4.968 3.3782 0 7.0546-.89424 10.632-2.7821 6.5578-3.4776 10.532-9.3398 10.532-14.407 0-1.391-.29808-2.7821-.9936-4.0738" stroke-width=".9936"/>
 <path class="Note" d="m881.05 427.84c-1.7885-3.2789-5.5642-5.0674-10.135-5.0674-3.3782 0-7.0546.9936-10.632 2.8814-6.5578 3.4776-10.532 9.3398-10.532 14.407 0 1.391.29808 2.7821.9936 4.0738 1.7885 3.2789 5.5642 4.968 10.135 4.968 3.3782 0 7.0546-.89424 10.632-2.7821 6.5578-3.4776 10.532-9.3398 10.532-14.407 0-1.391-.29808-2.7821-.9936-4.0738" stroke-width=".9936"/>
 <path class="Note" d="m1097.1 440.26c-1.7885-3.2789-5.5642-5.0674-10.135-5.0674-3.3783 0-7.0546.9936-10.632 2.8814-6.5578 3.4776-10.532 9.3398-10.532 14.407 0 1.391.2981 2.7821.9936 4.0738 1.7885 3.2789 5.5642 4.968 10.135 4.968 3.3783 0 7.0546-.89424 10.632-2.7821 6.5578-3.4776 10.532-9.3398 10.532-14.407 0-1.391-.2981-2.7821-.9936-4.0738" stroke-width=".9936"/>
 <path class="Note" d="m1313.2 452.68c-1.7885-3.2789-5.5642-5.0674-10.135-5.0674-3.3783 0-7.0546.9936-10.632 2.8814-6.5578 3.4776-10.532 9.3398-10.532 14.407 0 1.391.2981 2.7821.9936 4.0738 1.7885 3.2789 5.5642 4.968 10.135 4.968 3.3783 0 7.0546-.89424 10.632-2.7821 6.5578-3.4776 10.532-9.3398 10.532-14.407 0-1.391-.2981-2.7821-.9936-4.0738" stroke-width=".9936"/>
 <path class="Clef" d="m82.817 107.14c-1.2221-5.3953-3.8452-9.1908-4.6202-10.224-3.1696-4.2427-7.1539-7.0744-11.814-8.4158-3.0901-.8842-6.0709-.9936-8.4754-.81475-1.0333-5.9715-2.0269-11.814-2.9311-17.229 5.4151-6.1306 9.012-11.893 11.277-16.166 3.4478-6.5378 4.5904-11.088 4.6401-11.287 1.709-5.1768 2.0667-12.827.97373-20.985-1.0035-7.5017-3.0802-14.169-5.4151-17.398-1.0234-1.4208-2.0667-2.1462-3.1-2.1462-1.2122 0-3.7061 1.2321-6.5776 3.9843-2.2853 2.1859-5.5344 6.051-8.078 12.023-2.9808 7.0149-3.1895 16.444-2.8417 23.121.37757 7.2235 1.4805 12.877 1.4904 12.927.01987.08933.27821 1.5797.72533 4.1333-.22853.22853-.46699.44712-.71539.68568-1.0333.9936-2.2157 2.1262-3.5869 3.4974-.8545.8546-1.7984 1.7587-2.792 2.7225-8.3959 8.088-21.104 20.329-21.104 39.356 0 4.6699.89424 9.0616 2.6628 13.046 1.5799 3.577 3.8651 6.836 6.7764 9.6876 7.6805 7.5017 18.203 10.691 25.218 10.532 2.9311-.0695 5.5443-.30812 7.919-.75524 1.8183 9.5386 2.951 16.524 2.9907 21.829.03974 6.4683-1.5997 10.413-5.4747 13.165-2.4144 1.7189-5.2065 2.6628-8.2866 2.8119-2.5734.11923-4.819-.34776-6.2398-.75503h-.0099s-.28814-.0795-.29808-.27821c-.0099-.17895.33782-.22863.34776-.22863h.01987c1.9077-.43708 5.4549-1.6592 7.7998-4.9381 1.7885-2.5039 2.6529-7.0944.82469-11.009-1.1029-2.3746-3.5968-5.3057-9.1809-5.7528-2.4741-.19872-4.7295.30791-6.7167 1.5002-1.7984 1.0731-3.2888 2.7026-4.3321 4.6898-2.4443 4.6699-1.9872 10.363 1.1228 14.179 2.9411 3.5968 7.5315 5.8919 12.927 6.4682.84456.0895 1.6891.12917 2.5337.12917 4.4016 0 8.7735-1.1923 12.321-3.3882 3.6366-2.5536 5.743-6.5081 6.4187-12.102.55642-4.6104.16891-10.482-1.2221-18.501-.3577-2.0766-.89424-5.0872-1.55-8.8231 5.7132-1.9078 9.8466-5.455 13.592-11.268 3.2689-5.7032 4.2029-11.764 2.7821-18.024m-33.991 26.022c-4.6103-1.2122-9.012-3.6962-12.748-7.1738-1.3016-1.2221-3.1596-3.3782-4.6202-6.7465-1.3612-3.1398-2.017-6.5479-1.9673-10.115.06957-4.66 1.3712-9.4492 3.8651-14.208 2.9013-5.5444 7.4321-11.039 13.453-16.335 1.4407-1.2717 2.802-2.5435 4.0837-3.8154.75514 4.2328 1.5798 8.8927 2.4542 13.742-3.8254 1.2618-8.545 4.3916-11.635 10.005-3.5173 6.528-3.3782 12.013-2.6529 15.47.93398 4.4315 3.4478 8.1674 6.8856 10.244.92405.55631 5.0276 2.6727 6.8558 2.0964.36763-.11923.6359-.33782.77501-.66571.50674-1.1625-.50674-1.7983-2.0568-2.7523-.59616-.36755-1.2619-.78488-1.9872-1.3115-3.2988-2.4741-4.7395-6.8956-3.6763-11.248.57629-2.3846 1.8481-4.5309 3.6763-6.22 1.6593-1.5401 3.6863-2.633 6.051-3.2688 2.0269 11.168 4.0738 22.247 5.7033 30.553.12917.68548.26827 1.3512.39744 2.0169-4.352.92405-8.6741.83473-12.857-.26827m11.248-32.968c10.284-.46699 14.526 6.9255 15.411 11.725.46699 2.5138.45706 6.9254-1.0731 11.108-1.1625 3.1596-3.6068 7.2036-8.7039 9.2505-.06955-.41731-.14904-.84456-.22853-1.2719-1.5301-8.7138-3.4577-19.634-5.4052-30.812m-7.2732-70.486c1.7686-5.7032 4.4911-8.9324 6.4683-10.651 1.7388-1.5103 3.3782-2.2158 4.2924-2.2158.1391 0 .25834.01987.3577.04968.45706.1391.98366.70556 1.4507 1.57 2.2952 4.2624 1.56 10.93.22853 15.341-1.6196 5.3654-4.5209 10.949-13.265 20.498-.16891-1.1029-.32789-2.1462-.47693-3.1198-1.242-8.237-.92405-15.461.94392-21.472" stroke-width=".9936"/>
 <path class="Clef" d="m82.817 454.9c-1.2221-5.3953-3.8452-9.1908-4.6202-10.224-3.1696-4.2427-7.1539-7.0744-11.814-8.4158-3.0901-.8842-6.0709-.9936-8.4754-.81475-1.0333-5.9715-2.0269-11.814-2.9311-17.229 5.4151-6.1306 9.012-11.894 11.277-16.166 3.4478-6.5378 4.5904-11.088 4.6401-11.287 1.709-5.1768 2.0667-12.827.97373-20.985-1.0035-7.5017-3.0802-14.169-5.4151-17.398-1.0234-1.4208-2.0667-2.1462-3.1-2.1462-1.2122 0-3.7061 1.2321-6.5776 3.9843-2.2853 2.1859-5.5344 6.051-8.078 12.023-2.9808 7.0149-3.1895 16.444-2.8417 23.121.37757 7.2235 1.4805 12.877 1.4904 12.927.01987.0893.27821 1.5797.72533 4.1333-.22853.22853-.46699.44712-.71539.68569-1.0333.9936-2.2157 2.1262-3.5869 3.4974-.8545.8546-1.7984 1.7587-2.792 2.7225-8.3959 8.088-21.104 20.329-21.104 39.356 0 4.6699.89424 9.0616 2.6628 13.046 1.5799 3.577 3.8651 6.836 6.7764 9.6876 7.6805 7.5017 18.203 10.691 25.218 10.532 2.9311-.0695 5.5443-.30812 7.919-.75524 1.8183 9.5386 2.951 16.524 2.9907 21.829.03974 6.4683-1.5997 10.413-5.4747 13.165-2.4144 1.7189-5.2065 2.6628-8.2866 2.8119-2.5734.11923-4.819-.34776-6.2398-.75503h-.0099s-.28814-.0795-.29808-.27821c-.0099-.17895.33782-.22863.34776-.22863h.01987c1.9077-.43708 5.4549-1.6592 7.7998-4.9381 1.7885-2.5039 2.6529-7.0944.82469-11.009-1.1029-2.3746-3.5968-5.3057-9.1809-5.7528-2.4741-.19872-4.7295.30791-6.7167 1.5002-1.7984 1.0731-3.2888 2.7026-4.3321 4.6898-2.4443 4.6699-1.9872 10.363 1.1228 14.179 2.9411 3.5968 7.5315 5.8919 12.927 6.4682.84456.0895 1.6891.12917 2.5337.12917 4.4016 0 8.7735-1.1923 12.321-3.3882 3.6366-2.5536 5.743-6.5081 6.4187-12.102.55642-4.6104.16891-10.482-1.2221-18.501-.3577-2.0766-.89424-5.0872-1.55-8.8231 5.7132-1.9078 9.8466-5.455 13.592-11.268 3.2689-5.7032 4.2029-11.764 2.7821-18.024m-33.991 26.022c-4.6103-1.2122-9.012-3.6962-12.748-7.1738-1.3016-1.2221-3.1596-3.3782-4.6202-6.7465-1.3612-3.1398-2.017-6.5479-1.9673-10.115.06957-4.66 1.3712-9.4492 3.8651-14.208 2.9013-5.5444 7.4321-11.039 13.453-16.335 1.4407-1.2717 2.802-2.5435 4.0837-3.8154.75514 4.2328 1.5798 8.8927 2.4542 13.742-3.8254 1.2618-8.545 4.3916-11.635 10.005-3.5173 6.528-3.3782 12.013-2.6529 15.47.93398 4.4315 3.4478 8.1674 6.8856 10.244.92405.55631 5.0276 2.6727 6.8558 2.0964.36763-.11923.6359-.33782.77501-.66571.50674-1.1625-.50674-1.7983-2.0568-2.7523-.59616-.36755-1.2619-.78488-1.9872-1.3115-3.2988-2.4741-4.7395-6.8956-3.6763-11.248.57629-2.3846 1.8481-4.5309 3.6763-6.22 1.6593-1.5401 3.6863-2.633 6.051-3.2688 2.0269 11.168 4.0738 22.247 5.7033 30.553.12917.68548.26827 1.3512.39744 2.0169-4.352.92405-8.6741.83473-12.857-.26827m11.248-32.968c10.284-.46699 14.526 6.9255 15.411 11.725.46699 2.5138.45706 6.9254-1.0731 11.108-1.1625 3.1596-3.6068 7.2036-8.7039 9.2505-.06955-.41731-.14904-.84456-.22853-1.2719-1.5301-8.7138-3.4577-19.634-5.4052-30.812m-7.2732-70.486c1.7686-5.7032 4.4911-8.9324 6.4683-10.651 1.7388-1.5103 3.3782-2.2158 4.2924-2.2158.1391 0 .25834.0199.3577.0497.45706.1391.98366.70556 1.4507 1.57 2.2952 4.2624 1.56 10.93.22853 15.341-1.6196 5.3654-4.5209 10.949-13.265 20.498-.16891-1.1029-.32789-2.1462-.47693-3.1198-1.242-8.237-.92405-15.461.94392-21.472" stroke-width=".9936"/>
 <path class="KeySig" d="m131.44 27.92c.59616-.09936 1.093-.79488 1.093-1.391v-5.8622c0-.79488-.59616-1.391-1.391-1.391h-.19872l-3.2789.69552v-14.805h-2.7821v15.401l-8.843 1.7885v-14.01h-2.7821v14.606l-3.875.79488c-.59616.09936-1.093.79488-1.093 1.391v5.9616-.19872c0 .79488.59616 1.391 1.391 1.391h.29808l3.2789-.69552v16.394l-3.875.79488c-.59616.09936-1.093.79488-1.093 1.391v5.7629c0 .79488.59616 1.391 1.391 1.391h.29808l3.2789-.69552v14.805h2.7821v-15.401l8.843-1.7885v14.01h2.7821v-14.606l3.7757-.69552c.59616-.09936 1.093-.79488 1.093-1.391v-5.8622c0-.79488-.59616-1.391-1.391-1.391h-.19872l-3.2789.69552v-16.394l3.7757-.69552m-15.401 19.574v-16.494l8.843-1.7885v16.394l-8.843 1.8878" stroke-width=".9936"/>
 <path class="KeySig" d="m131.44 375.68c.59616-.0994 1.093-.79488 1.093-1.391v-5.8622c0-.79488-.59616-1.391-1.391-1.391h-.19872l-3.2789.69552v-14.805h-2.7821v15.401l-8.843 1.7885v-14.01h-2.7821v14.606l-3.875.79488c-.59616.0994-1.093.79488-1.093 1.391v5.9616-.19872c0 .79488.59616 1.391 1.391 1.391h.29808l3.2789-.69552v16.394l-3.875.79488c-.59616.0994-1.093.79488-1.093 1.391v5.7629c0 .79488.59616 1.391 1.391 1.391h.29808l3.2789-.69552v14.805h2.7821v-15.401l8.843-1.7885v14.01h2.7821v-14.606l3.7757-.69552c.59616-.0994 1.093-.79488 1.093-1.391v-5.8622c0-.79488-.59616-1.391-1.391-1.391h-.19872l-3.2789.69552v-16.394l3.7757-.69552m-15.401 19.574v-16.494l8.843-1.7885v16.394l-8.843 1.8878" stroke-width=".9936"/>
 <path class="TimeSig" d="m184.16 62.2h.19872c7.9488-3.0802 8.4456-8.2469 8.4456-10.035v-.4968c0-.89424-.29808-12.122-17.388-12.122-17.09 0-16.593 12.122-16.593 12.122h.0994l-.0994.19872c0 3.577 2.8814 6.359 6.4584 6.359 3.577 0 6.359-2.7821 6.359-6.359 0-2.8814-2.1859-5.6635-4.968-6.2597l.29808-.29808c1.391-.9936 3.2789-1.4904 5.1667-1.4904 4.1731 0 8.6443 2.484 8.6443 7.8494 0 6.2597-4.6699 7.1539-5.8622 7.3526s-6.7565.59616-7.9488.59616c-1.1923 0-1.2917 1.391-1.2917 1.391v1.9872s.19872 1.093 1.2917 1.1923c1.6891.09936 3.9744.09936 7.1539.59616 4.3718.59616 6.6571 3.577 6.6571 10.532 0 6.6571-4.4712 8.4456-8.6443 8.4456-2.7821 0-5.3654-.79488-6.4584-1.5898 3.2789-.19872 5.9616-3.0802 5.9616-6.359 0-3.577-2.7821-6.4584-6.359-6.4584-3.577 0-6.4584 2.8814-6.4584 6.4584 0 0-.4968 4.4712 3.875 8.545 3.875 3.577 8.7437 3.6763 10.93 3.6763 9.5386 0 19.872-3.2789 19.872-14.109 0-7.2533-4.968-10.333-9.3398-11.724" stroke-width=".9936"/>
 <path class="TimeSig" d="m188.06 110.76c3.3087-2.4939 5.6038-5.6635 5.6038-9.6478 0-7.1937-7.8394-13.016-17.507-13.016-9.6677 0-17.507 5.8324-17.507 13.016 0 3.9843.9936 7.5613 5.6933 10.502-4.5309 2.6529-6.9652 6.2895-6.9652 11.029 0 8.0283 8.4059 14.536 18.779 14.536 10.373 0 18.779-6.5081 18.779-14.536-.01-4.7395-1.7288-9.2604-6.8756-11.883m-11.913 20.836c-6.3192 0-11.814-3.4577-11.814-9.002 0-6.6571 5.1369-8.2568 5.1369-8.2568 6.7565 2.2555 16.434 5.6635 16.434 11.089 0 2.7125-3.438 6.1703-9.7573 6.1703m6.3492-23.568c-6.7665-2.0965-14.199-5.3852-14.199-9.8962 0-3.9048 3.577-5.4549 7.8494-5.4549 6.1206 0 10.343 2.8715 10.343 7.4421 0 4.7693-2.2057 7.0347-3.9942 7.909" stroke-width=".9936"/>
 <path class="Hook" d="m286.34 66.77c-.0994-.29808-.9936-3.7757-.9936-3.9744-.0994-.39744-.69552-.69552-1.1923-.69552-.69552 0-1.2917.59616-1.2917 1.2917v22.455c0 .4968.39744.89424.79488 1.093 4.1731 1.2917 12.817 6.7565 19.276 17.785 1.7885 3.0802 4.6699 7.2533 4.6699 15.6 0 7.1539-1.093 14.705-2.8814 21.66-.29808 1.093-.59616 2.0866.4968 2.484s1.4904-.39744 1.8878-1.391c3.577-8.7437 4.4712-17.885 4.4712-24.045v-1.8878c-.4968-12.817-7.8494-22.257-7.8494-22.257.29808 0-9.1411-12.221-11.824-16.394-3.6763-5.6635-5.4648-11.327-5.5642-11.724" stroke-width=".9936"/>
 <path class="Hook" d="m604.53 23.3c-.0994-.29808-.9936-3.7757-.9936-3.9744-.0994-.39744-.69552-.69552-1.1923-.69552-.69552 0-1.2917.59616-1.2917 1.2917v22.455c0 .4968.39744.89424.79488 1.093 4.1731 1.2917 12.817 6.7565 19.276 17.785 1.7885 3.0802 4.6699 7.2533 4.6699 15.6 0 7.1539-1.093 14.705-2.8814 21.66-.29808 1.093-.59616 2.0866.4968 2.484s1.4904-.39744 1.8878-1.391c3.577-8.7437 4.4712-17.885 4.4712-24.045v-1.8878c-.4968-12.817-7.8494-22.257-7.8494-22.257.29808 0-9.1411-12.221-11.824-16.394-3.6763-5.6635-5.4648-11.327-5.5642-11.724" stroke-width=".9936"/>
 <path class="Hook" d="m866.41 4.6699c-.09936-.29808-.9936-3.7757-.9936-3.9744-.09936-.39744-.69552-.69552-1.1923-.69552-.69552 0-1.2917.59616-1.2917 1.2917v22.455c0 .4968.39744.89424.79488 1.093 4.1731 1.2917 12.817 6.7565 19.276 17.785 1.7885 3.0802 4.6699 7.2533 4.6699 15.6 0 7.1539-1.093 14.705-2.8814 21.66-.29808 1.093-.59616 2.0866.4968 2.484s1.4904-.39744 1.8878-1.391c3.577-8.7437 4.4712-17.885 4.4712-24.045v-1.8878c-.4968-12.817-7.8494-22.257-7.8494-22.257.29808 0-9.1411-12.221-11.824-16.394-3.6763-5.6635-5.4648-11.327-5.5642-11.724" stroke-width=".9936"/>
 <path class="Hook" d="m1137.6 23.3c-.099-.29808-.9936-3.7757-.9936-3.9744-.099-.39744-.6955-.69552-1.1923-.69552-.6955 0-1.2917.59616-1.2917 1.2917v22.455c0 .4968.3974.89424.7949 1.093 4.1731 1.2917 12.817 6.7565 19.276 17.785 1.7885 3.0802 4.6699 7.2533 4.6699 15.6 0 7.1539-1.0929 14.705-2.8814 21.66-.2981 1.093-.5962 2.0866.4968 2.484s1.4904-.39744 1.8878-1.391c3.577-8.7437 4.4712-17.885 4.4712-24.045v-1.8878c-.4968-12.817-7.8494-22.257-7.8494-22.257.2981 0-9.1411-12.221-11.824-16.394-3.6764-5.6635-5.4648-11.327-5.5642-11.724" stroke-width=".9936"/>
 <path class="Hook" d="m383 371.06c-.0994-.29808-.9936-3.7757-.9936-3.9744-.0994-.39744-.69552-.69552-1.1923-.69552-.69552 0-1.2917.59616-1.2917 1.2917v22.455c0 .4968.39744.89424.79488 1.093 4.1731 1.2917 12.817 6.7565 19.276 17.785 1.7885 3.0802 4.6699 7.2533 4.6699 15.6 0 7.1539-1.093 14.705-2.8814 21.66-.29808 1.093-.59616 2.0866.4968 2.484s1.4904-.39744 1.8878-1.391c3.577-8.7437 4.4712-17.885 4.4712-24.045v-1.8878c-.4968-12.817-7.8494-22.257-7.8494-22.257.29808 0-9.1411-12.221-11.824-16.394-3.6763-5.6635-5.4648-11.327-5.5642-11.724" stroke-width=".9936"/>
 <path class="Hook" d="m518.02 361.74c-.0994-.29808-.9936-3.7757-.9936-3.9744-.0994-.39744-.69552-.69552-1.1923-.69552-.69552 0-1.2917.59616-1.2917 1.2917v22.455c0 .4968.39744.89424.79488 1.093 4.1731 1.2917 12.817 6.7565 19.276 17.785 1.7885 3.0802 4.6699 7.2533 4.6699 15.6 0 7.1539-1.093 14.705-2.8814 21.66-.29808 1.093-.59616 2.0866.4968 2.484s1.4904-.39744 1.8878-1.391c3.577-8.7437 4.4712-17.885 4.4712-24.045v-1.8878c-.4968-12.817-7.8494-22.257-7.8494-22.257.29808 0-9.1411-12.221-11.824-16.394-3.6763-5.6635-5.4648-11.327-5.5642-11.724" stroke-width=".9936"/>
 <path class="Hook" d="m627.35 361.74c-.0994-.29808-.9936-3.7757-.9936-3.9744-.0994-.39744-.69552-.69552-1.1923-.69552-.69552 0-1.2917.59616-1.2917 1.2917v22.455c0 .4968.39744.89424.79488 1.093 4.1731 1.2917 12.817 6.7565 19.276 17.785 1.7885 3.0802 4.6699 7.2533 4.6699 15.6 0 7.1539-1.093 14.705-2.8814 21.66-.29808 1.093-.59616 2.0866.4968 2.484s1.4904-.39744 1.8878-1.391c3.577-8.7437 4.4712-17.885 4.4712-24.045v-1.8878c-.4968-12.817-7.8494-22.257-7.8494-22.257.29808 0-9.1411-12.221-11.824-16.394-3.6763-5.6635-5.4648-11.327-5.5642-11.724" stroke-width=".9936"/>
 <path class="Hook" d="m736.69 352.43c-.0994-.29808-.9936-3.7757-.9936-3.9744-.0994-.39744-.69552-.69552-1.1923-.69552-.69552 0-1.2917.59616-1.2917 1.2917v22.455c0 .4968.39744.89424.79488 1.093 4.1731 1.2917 12.817 6.7565 19.276 17.785 1.7885 3.0802 4.6699 7.2533 4.6699 15.6 0 7.1539-1.093 14.705-2.8814 21.66-.29808 1.093-.59616 2.0866.4968 2.484s1.4904-.39744 1.8878-1.391c3.577-8.7437 4.4712-17.885 4.4712-24.045v-1.8878c-.4968-12.817-7.8494-22.257-7.8494-22.257.29808 0-9.1411-12.221-11.824-16.394-3.6763-5.6635-5.4648-11.327-5.5642-11.724" stroke-width=".9936"/>
 <path class="NoteDot" d="m1293 175.07c0 2.7438 2.2242 4.968 4.968 4.968s4.968-2.2242 4.968-4.968-2.2242-4.968-4.968-4.968-4.968 2.2242-4.968 4.968" stroke-width=".9936"/>
 <path class="NoteDot" d="m894.45 497.99c0 2.7438 2.2242 4.968 4.968 4.968s4.968-2.2242 4.968-4.968-2.2242-4.968-4.968-4.968-4.968 2.2242-4.968 4.968" stroke-width=".9936"/>
 <path class="NoteDot" d="m1110.5 497.99c0 2.7438 2.2242 4.968 4.968 4.968s4.968-2.2242 4.968-4.968-2.2242-4.968-4.968-4.968-4.968 2.2242-4.968 4.968" stroke-width=".9936"/>
 <path class="NoteDot" d="m1293 100.55c0 2.7438 2.2242 4.968 4.968 4.968s4.968-2.2242 4.968-4.968c0-2.7438-2.2242-4.968-4.968-4.968s-4.968 2.2242-4.968 4.968" stroke-width=".9936"/>
 <path class="NoteDot" d="m894.45 423.47c0 2.7438 2.2242 4.968 4.968 4.968s4.968-2.2242 4.968-4.968-2.2242-4.968-4.968-4.968-4.968 2.2242-4.968 4.968" stroke-width=".9936"/>
 <path class="NoteDot" d="m1110.5 448.31c0 2.7438 2.2242 4.968 4.968 4.968s4.968-2.2242 4.968-4.968-2.2242-4.968-4.968-4.968-4.968 2.2242-4.968 4.968" stroke-width=".9936"/>
</svg>
