<?xml version="1.0" encoding="utf-8"?>
<svg xmlns="http://www.w3.org/2000/svg" version="1.2" viewBox="0 0 1431 564">
	<title>Two lines of musical notation representing a brief melody.</title>
	<polyline class="StaffLines" fill="none" points="0 75.712 1431 75.712" stroke="#000" stroke-linejoin="bevel" stroke-width="2.73"/>
	<polyline class="StaffLines" fill="none" points="0 100.55 1431 100.55" stroke="#000" stroke-linejoin="bevel" stroke-width="2.73"/>
	<polyline class="StaffLines" fill="none" points="0 125.39 1431 125.39" stroke="#000" stroke-linejoin="bevel" stroke-width="2.73"/>
	<polyline class="StaffLines" fill="none" points="0 150.23 1431 150.23" stroke="#000" stroke-linejoin="bevel" stroke-width="2.73"/>
	<polyline class="StaffLines" fill="none" points="0 175.07 1431 175.07" stroke="#000" stroke-linejoin="bevel" stroke-width="2.73"/>
	<polyline class="StaffLines" fill="none" points="0 423.47 1431 423.47" stroke="#000" stroke-linejoin="bevel" stroke-width="2.73"/>
	<polyline class="StaffLines" fill="none" points="0 448.31 1431 448.31" stroke="#000" stroke-linejoin="bevel" stroke-width="2.73"/>
	<polyline class="StaffLines" fill="none" points="0 473.15 1431 473.15" stroke="#000" stroke-linejoin="bevel" stroke-width="2.73"/>
	<polyline class="StaffLines" fill="none" points="0 497.99 1431 497.99" stroke="#000" stroke-linejoin="bevel" stroke-width="2.73"/>
	<polyline class="StaffLines" fill="none" points="0 522.83 1431 522.83" stroke="#000" stroke-linejoin="bevel" stroke-width="2.73"/>
	<path class="SlurSegment" d="m1073.4 110.49c-14.61 23.687 277.32 45.186 266.71 24.84 9.96 27.272-281.97 5.772-266.71-24.84" fill-rule="evenodd" stroke="#000" stroke-linecap="round" stroke-linejoin="round" stroke-width="1.74"/>
	<path class="SlurSegment" d="m585.31 413.54c14.363-27.52 51.299-33.73 73.872-12.42-21.42-14.451-58.356-8.241-73.872 12.42" fill-rule="evenodd" stroke="#000" stroke-linecap="round" stroke-linejoin="round" stroke-width="1.74"/>
	<path class="SlurSegment" d="m577.87 513.84c17.905 9.092 47.244 1.676 58.679-14.831-9.73 23.251-39.07 30.666-58.679 14.831" fill-rule="evenodd" stroke="#000" stroke-linecap="round" stroke-linejoin="round" stroke-width="1.74"/>
	<path class="SlurSegment" d="m1272.6 507.93c10.56 21.479 43.26 33.899 65.42 24.84-24.62 15.561-57.33 3.141-65.42-24.84" fill-rule="evenodd" stroke="#000" stroke-linecap="round" stroke-linejoin="round" stroke-width="1.74"/>
	<path class="SlurSegment" d="m1272.6 507.93c10.56 21.479 43.26 33.899 65.42 24.84-24.62 15.561-57.33 3.141-65.42-24.84" fill-rule="evenodd" stroke="#000" stroke-linecap="round" stroke-linejoin="round" stroke-width="1.74"/>
	<path class="SlurSegment" d="m1291.8 418.85c1.93-23.697 16.15-50.478 49.34-32.655-29.35-12.023-43.57 14.758-49.34 32.655" fill-rule="evenodd" stroke="#000" stroke-linecap="round" stroke-linejoin="round" stroke-width="1.74"/>
	<polyline class="BarLine" points="479.39 74.346 479.39 176.44" stroke="#000" stroke-linejoin="bevel" stroke-width="4.47"/>
	<polyline class="BarLine" points="1007 74.346 1007 176.44" stroke="#000" stroke-linejoin="bevel" stroke-width="4.47"/>
	<polyline class="BarLine" points="1428.8 74.346 1428.8 176.44" stroke="#000" stroke-linejoin="bevel" stroke-width="4.47"/>
	<polyline class="BarLine" points="534.64 422.11 534.64 524.2" stroke="#000" stroke-linejoin="bevel" stroke-width="4.47"/>
	<polyline class="BarLine" points="789.4 422.11 789.4 524.2" stroke="#000" stroke-linejoin="bevel" stroke-width="4.47"/>
	<polyline class="BarLine" points="1221.9 422.11 1221.9 524.2" stroke="#000" stroke-linejoin="bevel" stroke-width="4.47"/>
	<polyline class="StemSlash" points="1317.2 59.566 1285.6 79.438" stroke="#000" stroke-linejoin="bevel" stroke-width="2.73"/>
	<path class="Accidental" d="m265.49 80.283c-.59616-3.875-2.9808-7.5514-8.0482-7.5514-4.968 0-7.8494 3.0802-8.3462 3.6763l.39744-31.895c0-.79488-.59616-1.391-1.391-1.391h-1.1923c-.79488 0-1.391.59616-1.391 1.391l.4968 59.715c0 .79488.59616 1.391 1.391 1.391.19872 0 .59616-.0994.79488-.19872.39744-.19872 6.8558-3.3782 12.221-9.4392 3.7757-4.2725 5.2661-9.1411 5.2661-13.215 0-.89424-.0994-1.6891-.19872-2.484m-6.8558 3.875c0 1.4904-.39744 6.061-2.8814 9.8366-1.6891 2.5834-5.0674 5.2661-6.9552 6.7565l.29808-19.375c.19872-.89424 1.6891-3.7757 5.6635-3.7757 3.577 0 3.875 3.3782 3.875 5.4648v1.093" stroke-width=".9936"/>
	<path class="Accidental" d="m523.2 80.283c-.59616-3.875-2.9808-7.5514-8.0482-7.5514-4.968 0-7.8494 3.0802-8.3462 3.6763l.39744-31.895c0-.79488-.59616-1.391-1.391-1.391h-1.1923c-.79488 0-1.391.59616-1.391 1.391l.4968 59.715c0 .79488.59616 1.391 1.391 1.391.19872 0 .59616-.0994.79488-.19872.39744-.19872 6.8558-3.3782 12.221-9.4392 3.7757-4.2725 5.2661-9.1411 5.2661-13.215 0-.89424-.0994-1.6891-.19872-2.484m-6.8558 3.875c0 1.4904-.39744 6.061-2.8814 9.8366-1.6891 2.5834-5.0674 5.2661-6.9552 6.7565l.29808-19.375c.19872-.89424 1.6891-3.7757 5.6635-3.7757 3.577 0 3.875 3.3782 3.875 5.4648v1.093" stroke-width=".9936"/>
	<path class="Accidental" d="m1050.8 80.283c-.5962-3.875-2.9808-7.5514-8.0482-7.5514-4.968 0-7.8494 3.0802-8.3462 3.6763l.3974-31.895c0-.79488-.5962-1.391-1.391-1.391h-1.1924c-.7948 0-1.391.59616-1.391 1.391l.4968 59.715c0 .79488.5962 1.391 1.391 1.391.1988 0 .5962-.0994.7949-.19872.3975-.19872 6.8559-3.3782 12.221-9.4392 3.7757-4.2725 5.2661-9.1411 5.2661-13.215 0-.89424-.099-1.6891-.1987-2.484m-6.8559 3.875c0 1.4904-.3974 6.061-2.8814 9.8366-1.6891 2.5834-5.0674 5.2661-6.9552 6.7565l.2981-19.375c.1987-.89424 1.6891-3.7757 5.6635-3.7757 3.5769 0 3.875 3.3782 3.875 5.4648v1.093" stroke-width=".9936"/>
	<polyline class="Stem" points="302.81 84.952 302.81 1.192" stroke="#000" stroke-linejoin="bevel" stroke-width="2.73"/>
	<polyline class="Stem" points="410.71 109.79 410.71 26.032" stroke="#000" stroke-linejoin="bevel" stroke-width="2.73"/>
	<polyline class="Stem" points="560.53 84.952 560.53 19.822" stroke="#000" stroke-linejoin="bevel" stroke-width="2.73"/>
	<polyline class="Stem" points="717.6 109.79 717.6 38.452" stroke="#000" stroke-linejoin="bevel" stroke-width="2.73"/>
	<polyline class="Stem" points="798.11 84.952 798.11 13.612" stroke="#000" stroke-linejoin="bevel" stroke-width="2.73"/>
	<polyline class="Stem" points="878.62 84.952 878.62 19.822" stroke="#000" stroke-linejoin="bevel" stroke-width="2.73"/>
	<polyline class="Stem" points="1088.2 84.952 1088.2 19.822" stroke="#000" stroke-linejoin="bevel" stroke-width="2.73"/>
	<polyline class="Stem" points="1190.7 84.952 1190.7 19.822" stroke="#000" stroke-linejoin="bevel" stroke-width="2.73"/>
	<polyline class="Stem" points="1354.9 109.79 1354.9 38.452" stroke="#000" stroke-linejoin="bevel" stroke-width="2.73"/>
	<polyline class="Stem" points="1297.9 98.326 1297.9 39.694" stroke="#000" stroke-linejoin="bevel" stroke-width="1.91"/>
	<polyline class="Stem" points="221.47 507.23 221.47 376.9" stroke="#000" stroke-linejoin="bevel" stroke-width="2.73"/>
	<polyline class="Stem" points="307.17 507.23 307.17 376.9" stroke="#000" stroke-linejoin="bevel" stroke-width="2.73"/>
	<polyline class="Stem" points="392.87 507.23 392.87 373.79" stroke="#000" stroke-linejoin="bevel" stroke-width="2.73"/>
	<polyline class="Stem" points="458.83 507.23 458.83 376.9" stroke="#000" stroke-linejoin="bevel" stroke-width="2.73"/>
	<polyline class="Stem" points="570.54 439.23 570.54 550.78" stroke="#000" stroke-linejoin="bevel" stroke-width="2.73"/>
	<polyline class="Stem" points="644.41 426.81 644.41 560.09" stroke="#000" stroke-linejoin="bevel" stroke-width="2.73"/>
	<polyline class="Stem" points="854.85 519.65 854.85 386.21" stroke="#000" stroke-linejoin="bevel" stroke-width="2.73"/>
	<polyline class="Stem" points="951.34 519.65 951.34 386.21" stroke="#000" stroke-linejoin="bevel" stroke-width="2.73"/>
	<polyline class="Stem" points="1047.8 507.23 1047.8 386.21" stroke="#000" stroke-linejoin="bevel" stroke-width="2.73"/>
	<polyline class="Stem" points="1129.2 494.81 1129.2 386.21" stroke="#000" stroke-linejoin="bevel" stroke-width="2.73"/>
	<polyline class="Stem" points="1287.4 482.39 1287.4 386.21" stroke="#000" stroke-linejoin="bevel" stroke-width="2.73"/>
	<polyline class="Stem" points="1352.8 507.23 1352.8 358.27" stroke="#000" stroke-linejoin="bevel" stroke-width="2.73"/>
	<path class="Note" d="m303.2 80.084c-1.7885-3.2789-5.5642-5.0674-10.135-5.0674-3.3782 0-7.0546.9936-10.632 2.8814-6.5578 3.4776-10.532 9.3398-10.532 14.407 0 1.391.29808 2.7821.9936 4.0738 1.7885 3.2789 5.5642 4.968 10.135 4.968 3.3782 0 7.0546-.89424 10.632-2.7821 6.5578-3.4776 10.532-9.3398 10.532-14.407 0-1.391-.29808-2.7821-.9936-4.0738" stroke-width=".9936"/>
	<path class="Note" d="m411.09 104.92c-1.7885-3.2789-5.5642-5.0674-10.135-5.0674-3.3782 0-7.0546.9936-10.632 2.8814-6.5578 3.4776-10.532 9.3398-10.532 14.407 0 1.391.29808 2.7821.9936 4.0738 1.7885 3.2789 5.5642 4.968 10.135 4.968 3.3782 0 7.0546-.89424 10.632-2.7821 6.5578-3.4776 10.532-9.3398 10.532-14.407 0-1.391-.29808-2.7821-.9936-4.0738" stroke-width=".9936"/>
	<path class="Note" d="m560.91 80.084c-1.7885-3.2789-5.5642-5.0674-10.135-5.0674-3.3782 0-7.0546.9936-10.632 2.8814-6.5578 3.4776-10.532 9.3398-10.532 14.407 0 1.391.29808 2.7821.9936 4.0738 1.7885 3.2789 5.5642 4.968 10.135 4.968 3.3782 0 7.0546-.89424 10.632-2.7821 6.5578-3.4776 10.532-9.3398 10.532-14.407 0-1.391-.29808-2.7821-.9936-4.0738" stroke-width=".9936"/>
	<path class="Note" d="m717.98 104.92c-1.7885-3.2789-5.5642-5.0674-10.135-5.0674-3.3782 0-7.0546.9936-10.632 2.8814-6.5578 3.4776-10.532 9.3398-10.532 14.407 0 1.391.29808 2.7821.9936 4.0738 1.7885 3.2789 5.5642 4.968 10.135 4.968 3.3782 0 7.0546-.89424 10.632-2.7821 6.5578-3.4776 10.532-9.3398 10.532-14.407 0-1.391-.29808-2.7821-.9936-4.0738" stroke-width=".9936"/>
	<path class="Note" d="m798.49 80.084c-1.7885-3.2789-5.5642-5.0674-10.135-5.0674-3.3782 0-7.0546.9936-10.632 2.8814-6.5578 3.4776-10.532 9.3398-10.532 14.407 0 1.391.29808 2.7821.9936 4.0738 1.7885 3.2789 5.5642 4.968 10.135 4.968 3.3782 0 7.0546-.89424 10.632-2.7821 6.5578-3.4776 10.532-9.3398 10.532-14.407 0-1.391-.29808-2.7821-.9936-4.0738" stroke-width=".9936"/>
	<path class="Note" d="m879 80.084c-1.7885-3.2789-5.5642-5.0674-10.135-5.0674-3.3782 0-7.0546.9936-10.632 2.8814-6.5578 3.4776-10.532 9.3398-10.532 14.407 0 1.391.29808 2.7821.9936 4.0738 1.7885 3.2789 5.5642 4.968 10.135 4.968 3.3782 0 7.0546-.89424 10.632-2.7821 6.5578-3.4776 10.532-9.3398 10.532-14.407 0-1.391-.29808-2.7821-.9936-4.0738" stroke-width=".9936"/>
	<path class="Note" d="m1088.5 80.084c-1.7885-3.2789-5.5642-5.0674-10.135-5.0674-3.3783 0-7.0546.9936-10.632 2.8814-6.5578 3.4776-10.532 9.3398-10.532 14.407 0 1.391.2981 2.7821.9936 4.0738 1.7885 3.2789 5.5642 4.968 10.135 4.968 3.3783 0 7.0546-.89424 10.632-2.7821 6.5578-3.4776 10.532-9.3398 10.532-14.407 0-1.391-.2981-2.7821-.9936-4.0738" stroke-width=".9936"/>
	<path class="Note" d="m1191.1 80.084c-1.7885-3.2789-5.5642-5.0674-10.135-5.0674-3.3783 0-7.0546.9936-10.632 2.8814-6.5578 3.4776-10.532 9.3398-10.532 14.407 0 1.391.2981 2.7821.9936 4.0738 1.7885 3.2789 5.5642 4.968 10.135 4.968 3.3783 0 7.0546-.89424 10.632-2.7821 6.5578-3.4776 10.532-9.3398 10.532-14.407 0-1.391-.2981-2.7821-.9936-4.0738m-4.2725 6.7565c-1.6891 1.6891-5.0673 3.7757-8.6443 5.7629s-7.1539 3.4776-9.5386 3.9744c-.4968.09936-.9936.19872-1.4904.19872-1.5897 0-2.782-.59616-3.4776-1.8878-.298-.4968-.4968-1.093-.4968-1.6891 0-1.093.6956-2.3846 1.7885-3.4776 1.6891-1.6891 4.968-3.7757 8.545-5.7629 3.5769-1.9872 7.1539-3.4776 9.5385-3.9744.4968-.09936.9936-.19872 1.4904-.19872 1.5898 0 2.8815.59616 3.577 1.8878.2981.4968.3974 1.093.3974 1.6891 0 1.093-.5961 2.2853-1.6891 3.4776" stroke-width=".9936"/>
	<path class="Note" d="m1355.2 104.92c-1.7885-3.2789-5.5642-5.0674-10.135-5.0674-3.3783 0-7.0546.9936-10.632 2.8814-6.5578 3.4776-10.532 9.3398-10.532 14.407 0 1.391.2981 2.7821.9936 4.0738 1.7885 3.2789 5.5642 4.968 10.135 4.968 3.3783 0 7.0546-.89424 10.632-2.7821 6.5578-3.4776 10.532-9.3398 10.532-14.407 0-1.391-.2981-2.7821-.9936-4.0738" stroke-width=".9936"/>
	<path class="Note" d="m1298.2 94.919c-1.252-2.2952-3.8949-3.5472-7.0943-3.5472-2.3648 0-4.9382.69552-7.4421 2.017-4.5904 2.4343-7.3725 6.5379-7.3725 10.085 0 .97373.2087 1.9475.6955 2.8516 1.252 2.2952 3.8949 3.4776 7.0943 3.4776 2.3648 0 4.9382-.62597 7.4421-1.9475 4.5904-2.4343 7.3725-6.5379 7.3725-10.085 0-.97373-.2087-1.9475-.6955-2.8516" stroke-width=".69552"/>
	<path class="Note" d="m221.85 502.36c-1.7885-3.2789-5.5642-5.0674-10.135-5.0674-3.3782 0-7.0546.9936-10.632 2.8814-6.5578 3.4776-10.532 9.3398-10.532 14.407 0 1.391.29808 2.7821.9936 4.0738 1.7885 3.2789 5.5642 4.968 10.135 4.968 3.3782 0 7.0546-.89424 10.632-2.7821 6.5578-3.4776 10.532-9.3398 10.532-14.407 0-1.391-.29808-2.7821-.9936-4.0738" stroke-width=".9936"/>
	<path class="Note" d="m221.85 465.1c-1.7885-3.2789-5.5642-5.0674-10.135-5.0674-3.3782 0-7.0546.9936-10.632 2.8814-6.5578 3.4776-10.532 9.3398-10.532 14.407 0 1.391.29808 2.7821.9936 4.0738 1.7885 3.2789 5.5642 4.968 10.135 4.968 3.3782 0 7.0546-.89424 10.632-2.7821 6.5578-3.4776 10.532-9.3398 10.532-14.407 0-1.391-.29808-2.7821-.9936-4.0738" stroke-width=".9936"/>
	<path class="Note" d="m221.85 440.26c-1.7885-3.2789-5.5642-5.0674-10.135-5.0674-3.3782 0-7.0546.9936-10.632 2.8814-6.5578 3.4776-10.532 9.3398-10.532 14.407 0 1.391.29808 2.7821.9936 4.0738 1.7885 3.2789 5.5642 4.968 10.135 4.968 3.3782 0 7.0546-.89424 10.632-2.7821 6.5578-3.4776 10.532-9.3398 10.532-14.407 0-1.391-.29808-2.7821-.9936-4.0738" stroke-width=".9936"/>
	<path class="Note" d="m307.55 502.36c-1.7885-3.2789-5.5642-5.0674-10.135-5.0674-3.3782 0-7.0546.9936-10.632 2.8814-6.5578 3.4776-10.532 9.3398-10.532 14.407 0 1.391.29808 2.7821.9936 4.0738 1.7885 3.2789 5.5642 4.968 10.135 4.968 3.3782 0 7.0546-.89424 10.632-2.7821 6.5578-3.4776 10.532-9.3398 10.532-14.407 0-1.391-.29808-2.7821-.9936-4.0738" stroke-width=".9936"/>
	<path class="Note" d="m307.55 465.1c-1.7885-3.2789-5.5642-5.0674-10.135-5.0674-3.3782 0-7.0546.9936-10.632 2.8814-6.5578 3.4776-10.532 9.3398-10.532 14.407 0 1.391.29808 2.7821.9936 4.0738 1.7885 3.2789 5.5642 4.968 10.135 4.968 3.3782 0 7.0546-.89424 10.632-2.7821 6.5578-3.4776 10.532-9.3398 10.532-14.407 0-1.391-.29808-2.7821-.9936-4.0738" stroke-width=".9936"/>
	<path class="Note" d="m307.55 440.26c-1.7885-3.2789-5.5642-5.0674-10.135-5.0674-3.3782 0-7.0546.9936-10.632 2.8814-6.5578 3.4776-10.532 9.3398-10.532 14.407 0 1.391.29808 2.7821.9936 4.0738 1.7885 3.2789 5.5642 4.968 10.135 4.968 3.3782 0 7.0546-.89424 10.632-2.7821 6.5578-3.4776 10.532-9.3398 10.532-14.407 0-1.391-.29808-2.7821-.9936-4.0738" stroke-width=".9936"/>
	<path class="Note" d="m393.25 502.36c-1.7885-3.2789-5.5642-5.0674-10.135-5.0674-3.3782 0-7.0546.9936-10.632 2.8814-6.5578 3.4776-10.532 9.3398-10.532 14.407 0 1.391.29808 2.7821.9936 4.0738 1.7885 3.2789 5.5642 4.968 10.135 4.968 3.3782 0 7.0546-.89424 10.632-2.7821 6.5578-3.4776 10.532-9.3398 10.532-14.407 0-1.391-.29808-2.7821-.9936-4.0738" stroke-width=".9936"/>
	<path class="Note" d="m393.25 465.1c-1.7885-3.2789-5.5642-5.0674-10.135-5.0674-3.3782 0-7.0546.9936-10.632 2.8814-6.5578 3.4776-10.532 9.3398-10.532 14.407 0 1.391.29808 2.7821.9936 4.0738 1.7885 3.2789 5.5642 4.968 10.135 4.968 3.3782 0 7.0546-.89424 10.632-2.7821 6.5578-3.4776 10.532-9.3398 10.532-14.407 0-1.391-.29808-2.7821-.9936-4.0738" stroke-width=".9936"/>
	<path class="Note" d="m393.25 440.26c-1.7885-3.2789-5.5642-5.0674-10.135-5.0674-3.3782 0-7.0546.9936-10.632 2.8814-6.5578 3.4776-10.532 9.3398-10.532 14.407 0 1.391.29808 2.7821.9936 4.0738 1.7885 3.2789 5.5642 4.968 10.135 4.968 3.3782 0 7.0546-.89424 10.632-2.7821 6.5578-3.4776 10.532-9.3398 10.532-14.407 0-1.391-.29808-2.7821-.9936-4.0738" stroke-width=".9936"/>
	<path class="Note" d="m459.21 502.36c-1.7885-3.2789-5.5642-5.0674-10.135-5.0674-3.3782 0-7.0546.9936-10.632 2.8814-6.5578 3.4776-10.532 9.3398-10.532 14.407 0 1.391.29808 2.7821.9936 4.0738 1.7885 3.2789 5.5642 4.968 10.135 4.968 3.3782 0 7.0546-.89424 10.632-2.7821 6.5578-3.4776 10.532-9.3398 10.532-14.407 0-1.391-.29808-2.7821-.9936-4.0738" stroke-width=".9936"/>
	<path class="Note" d="m459.21 465.1c-1.7885-3.2789-5.5642-5.0674-10.135-5.0674-3.3782 0-7.0546.9936-10.632 2.8814-6.5578 3.4776-10.532 9.3398-10.532 14.407 0 1.391.29808 2.7821.9936 4.0738 1.7885 3.2789 5.5642 4.968 10.135 4.968 3.3782 0 7.0546-.89424 10.632-2.7821 6.5578-3.4776 10.532-9.3398 10.532-14.407 0-1.391-.29808-2.7821-.9936-4.0738" stroke-width=".9936"/>
	<path class="Note" d="m459.21 440.26c-1.7885-3.2789-5.5642-5.0674-10.135-5.0674-3.3782 0-7.0546.9936-10.632 2.8814-6.5578 3.4776-10.532 9.3398-10.532 14.407 0 1.391.29808 2.7821.9936 4.0738 1.7885 3.2789 5.5642 4.968 10.135 4.968 3.3782 0 7.0546-.89424 10.632-2.7821 6.5578-3.4776 10.532-9.3398 10.532-14.407 0-1.391-.29808-2.7821-.9936-4.0738" stroke-width=".9936"/>
	<path class="Note" d="m600.47 465.1c-1.7885-3.2789-5.5642-5.0674-10.135-5.0674-3.3782 0-7.0546.9936-10.632 2.8814-6.5578 3.4776-10.532 9.3398-10.532 14.407 0 1.391.29808 2.7821.9936 4.0738 1.7885 3.2789 5.5642 4.968 10.135 4.968 3.3782 0 7.0546-.89424 10.632-2.7821 6.5578-3.4776 10.532-9.3398 10.532-14.407 0-1.391-.29808-2.7821-.9936-4.0738" stroke-width=".9936"/>
	<path class="Note" d="m600.47 427.84c-1.7885-3.2789-5.5642-5.0674-10.135-5.0674-3.3782 0-7.0546.9936-10.632 2.8814-6.5578 3.4776-10.532 9.3398-10.532 14.407 0 1.391.29808 2.7821.9936 4.0738 1.7885 3.2789 5.5642 4.968 10.135 4.968 3.3782 0 7.0546-.89424 10.632-2.7821 6.5578-3.4776 10.532-9.3398 10.532-14.407 0-1.391-.29808-2.7821-.9936-4.0738" stroke-width=".9936"/>
	<path class="Note" d="m674.34 477.52c-1.7885-3.2789-5.5642-5.0674-10.135-5.0674-3.3782 0-7.0546.9936-10.632 2.8814-6.5578 3.4776-10.532 9.3398-10.532 14.407 0 1.391.29808 2.7821.9936 4.0738 1.7885 3.2789 5.5642 4.968 10.135 4.968 3.3782 0 7.0546-.89424 10.632-2.7821 6.5578-3.4776 10.532-9.3398 10.532-14.407 0-1.391-.29808-2.7821-.9936-4.0738m-4.2725 6.7565c-1.6891 1.6891-5.0674 3.7757-8.6443 5.7629s-7.1539 3.4776-9.5386 3.9744c-.4968.0994-.9936.19872-1.4904.19872-1.5898 0-2.7821-.59616-3.4776-1.8878-.29808-.4968-.4968-1.093-.4968-1.6891 0-1.093.69552-2.3846 1.7885-3.4776 1.6891-1.6891 4.968-3.7757 8.545-5.7629s7.1539-3.4776 9.5386-3.9744c.4968-.0994.9936-.19872 1.4904-.19872 1.5898 0 2.8814.59616 3.577 1.8878.29808.4968.39744 1.093.39744 1.6891 0 1.093-.59616 2.2853-1.6891 3.4776" stroke-width=".9936"/>
	<path class="Note" d="m674.34 415.42c-1.7885-3.2789-5.5642-5.0674-10.135-5.0674-3.3782 0-7.0546.9936-10.632 2.8814-6.5578 3.4776-10.532 9.3398-10.532 14.407 0 1.391.29808 2.7821.9936 4.0738 1.7885 3.2789 5.5642 4.968 10.135 4.968 3.3782 0 7.0546-.89424 10.632-2.7821 6.5578-3.4776 10.532-9.3398 10.532-14.407 0-1.391-.29808-2.7821-.9936-4.0738m-4.2725 6.7565c-1.6891 1.6891-5.0674 3.7757-8.6443 5.7629s-7.1539 3.4776-9.5386 3.9744c-.4968.0994-.9936.19872-1.4904.19872-1.5898 0-2.7821-.59616-3.4776-1.8878-.29808-.4968-.4968-1.093-.4968-1.6891 0-1.093.69552-2.3846 1.7885-3.4776 1.6891-1.6891 4.968-3.7757 8.545-5.7629s7.1539-3.4776 9.5386-3.9744c.4968-.0994.9936-.19872 1.4904-.19872 1.5898 0 2.8814.59616 3.577 1.8878.29808.4968.39744 1.093.39744 1.6891 0 1.093-.59616 2.2853-1.6891 3.4776" stroke-width=".9936"/>
	<path class="Note" d="m855.23 514.78c-1.7885-3.2789-5.5642-5.0674-10.135-5.0674-3.3782 0-7.0546.9936-10.632 2.8814-6.5578 3.4776-10.532 9.3398-10.532 14.407 0 1.391.29808 2.7821.9936 4.0738 1.7885 3.2789 5.5642 4.968 10.135 4.968 3.3782 0 7.0546-.89424 10.632-2.7821 6.5578-3.4776 10.532-9.3398 10.532-14.407 0-1.391-.29808-2.7821-.9936-4.0738" stroke-width=".9936"/>
	<path class="Note" d="m855.23 489.94c-1.7885-3.2789-5.5642-5.0674-10.135-5.0674-3.3782 0-7.0546.9936-10.632 2.8814-6.5578 3.4776-10.532 9.3398-10.532 14.407 0 1.391.29808 2.7821.9936 4.0738 1.7885 3.2789 5.5642 4.968 10.135 4.968 3.3782 0 7.0546-.89424 10.632-2.7821 6.5578-3.4776 10.532-9.3398 10.532-14.407 0-1.391-.29808-2.7821-.9936-4.0738" stroke-width=".9936"/>
	<path class="Note" d="m855.23 452.68c-1.7885-3.2789-5.5642-5.0674-10.135-5.0674-3.3782 0-7.0546.9936-10.632 2.8814-6.5578 3.4776-10.532 9.3398-10.532 14.407 0 1.391.29808 2.7821.9936 4.0738 1.7885 3.2789 5.5642 4.968 10.135 4.968 3.3782 0 7.0546-.89424 10.632-2.7821 6.5578-3.4776 10.532-9.3398 10.532-14.407 0-1.391-.29808-2.7821-.9936-4.0738" stroke-width=".9936"/>
	<path class="Note" d="m951.72 514.78c-1.7885-3.2789-5.5642-5.0674-10.135-5.0674-3.3782 0-7.0546.9936-10.632 2.8814-6.5578 3.4776-10.532 9.3398-10.532 14.407 0 1.391.29808 2.7821.9936 4.0738 1.7885 3.2789 5.5642 4.968 10.135 4.968 3.3782 0 7.0546-.89424 10.632-2.7821 6.5578-3.4776 10.532-9.3398 10.532-14.407 0-1.391-.29808-2.7821-.9936-4.0738" stroke-width=".9936"/>
	<path class="Note" d="m951.72 489.94c-1.7885-3.2789-5.5642-5.0674-10.135-5.0674-3.3782 0-7.0546.9936-10.632 2.8814-6.5578 3.4776-10.532 9.3398-10.532 14.407 0 1.391.29808 2.7821.9936 4.0738 1.7885 3.2789 5.5642 4.968 10.135 4.968 3.3782 0 7.0546-.89424 10.632-2.7821 6.5578-3.4776 10.532-9.3398 10.532-14.407 0-1.391-.29808-2.7821-.9936-4.0738" stroke-width=".9936"/>
	<path class="Note" d="m951.72 452.68c-1.7885-3.2789-5.5642-5.0674-10.135-5.0674-3.3782 0-7.0546.9936-10.632 2.8814-6.5578 3.4776-10.532 9.3398-10.532 14.407 0 1.391.29808 2.7821.9936 4.0738 1.7885 3.2789 5.5642 4.968 10.135 4.968 3.3782 0 7.0546-.89424 10.632-2.7821 6.5578-3.4776 10.532-9.3398 10.532-14.407 0-1.391-.29808-2.7821-.9936-4.0738" stroke-width=".9936"/>
	<path class="Note" d="m1048.2 502.36c-1.7885-3.2789-5.5642-5.0674-10.135-5.0674-3.3783 0-7.0546.9936-10.632 2.8814-6.5578 3.4776-10.532 9.3398-10.532 14.407 0 1.391.2981 2.7821.9936 4.0738 1.7885 3.2789 5.5642 4.968 10.135 4.968 3.3783 0 7.0546-.89424 10.632-2.7821 6.5578-3.4776 10.532-9.3398 10.532-14.407 0-1.391-.2981-2.7821-.9936-4.0738" stroke-width=".9936"/>
	<path class="Note" d="m1048.2 477.52c-1.7885-3.2789-5.5642-5.0674-10.135-5.0674-3.3783 0-7.0546.9936-10.632 2.8814-6.5578 3.4776-10.532 9.3398-10.532 14.407 0 1.391.2981 2.7821.9936 4.0738 1.7885 3.2789 5.5642 4.968 10.135 4.968 3.3783 0 7.0546-.89424 10.632-2.7821 6.5578-3.4776 10.532-9.3398 10.532-14.407 0-1.391-.2981-2.7821-.9936-4.0738" stroke-width=".9936"/>
	<path class="Note" d="m1048.2 452.68c-1.7885-3.2789-5.5642-5.0674-10.135-5.0674-3.3783 0-7.0546.9936-10.632 2.8814-6.5578 3.4776-10.532 9.3398-10.532 14.407 0 1.391.2981 2.7821.9936 4.0738 1.7885 3.2789 5.5642 4.968 10.135 4.968 3.3783 0 7.0546-.89424 10.632-2.7821 6.5578-3.4776 10.532-9.3398 10.532-14.407 0-1.391-.2981-2.7821-.9936-4.0738" stroke-width=".9936"/>
	<path class="Note" d="m1129.5 489.94c-1.7885-3.2789-5.5642-5.0674-10.135-5.0674-3.3783 0-7.0546.9936-10.632 2.8814-6.5578 3.4776-10.532 9.3398-10.532 14.407 0 1.391.2981 2.7821.9936 4.0738 1.7885 3.2789 5.5642 4.968 10.135 4.968 3.3783 0 7.0546-.89424 10.632-2.7821 6.5578-3.4776 10.532-9.3398 10.532-14.407 0-1.391-.2981-2.7821-.9936-4.0738" stroke-width=".9936"/>
	<path class="Note" d="m1159.1 465.1c-1.7885-3.2789-5.5642-5.0674-10.135-5.0674-3.3783 0-7.0546.9936-10.632 2.8814-6.5578 3.4776-10.532 9.3398-10.532 14.407 0 1.391.2981 2.7821.9936 4.0738 1.7885 3.2789 5.5642 4.968 10.135 4.968 3.3783 0 7.0546-.89424 10.632-2.7821 6.5578-3.4776 10.532-9.3398 10.532-14.407 0-1.391-.2981-2.7821-.9936-4.0738" stroke-width=".9936"/>
	<path class="Note" d="m1129.5 452.68c-1.7885-3.2789-5.5642-5.0674-10.135-5.0674-3.3783 0-7.0546.9936-10.632 2.8814-6.5578 3.4776-10.532 9.3398-10.532 14.407 0 1.391.2981 2.7821.9936 4.0738 1.7885 3.2789 5.5642 4.968 10.135 4.968 3.3783 0 7.0546-.89424 10.632-2.7821 6.5578-3.4776 10.532-9.3398 10.532-14.407 0-1.391-.2981-2.7821-.9936-4.0738" stroke-width=".9936"/>
	<path class="Note" d="m1287.7 477.52c-1.7885-3.2789-5.5642-5.0674-10.135-5.0674-3.3783 0-7.0546.9936-10.632 2.8814-6.5578 3.4776-10.532 9.3398-10.532 14.407 0 1.391.2981 2.7821.9936 4.0738 1.7885 3.2789 5.5642 4.968 10.135 4.968 3.3783 0 7.0546-.89424 10.632-2.7821 6.5578-3.4776 10.532-9.3398 10.532-14.407 0-1.391-.2981-2.7821-.9936-4.0738" stroke-width=".9936"/>
	<path class="Note" d="m1287.7 452.68c-1.7885-3.2789-5.5642-5.0674-10.135-5.0674-3.3783 0-7.0546.9936-10.632 2.8814-6.5578 3.4776-10.532 9.3398-10.532 14.407 0 1.391.2981 2.7821.9936 4.0738 1.7885 3.2789 5.5642 4.968 10.135 4.968 3.3783 0 7.0546-.89424 10.632-2.7821 6.5578-3.4776 10.532-9.3398 10.532-14.407 0-1.391-.2981-2.7821-.9936-4.0738" stroke-width=".9936"/>
	<path class="Note" d="m1353.2 502.36c-1.7885-3.2789-5.5642-5.0674-10.135-5.0674-3.3783 0-7.0546.9936-10.632 2.8814-6.5578 3.4776-10.532 9.3398-10.532 14.407 0 1.391.2981 2.7821.9936 4.0738 1.7885 3.2789 5.5642 4.968 10.135 4.968 3.3783 0 7.0546-.89424 10.632-2.7821 6.5578-3.4776 10.532-9.3398 10.532-14.407 0-1.391-.2981-2.7821-.9936-4.0738m-4.2725 6.7565c-1.6891 1.6891-5.0673 3.7757-8.6443 5.7629s-7.1539 3.4776-9.5386 3.9744c-.4968.0994-.9936.19872-1.4904.19872-1.5897 0-2.782-.59616-3.4776-1.8878-.298-.4968-.4968-1.093-.4968-1.6891 0-1.093.6956-2.3846 1.7885-3.4776 1.6891-1.6891 4.968-3.7757 8.545-5.7629 3.5769-1.9872 7.1539-3.4776 9.5385-3.9744.4968-.0994.9936-.19872 1.4904-.19872 1.5898 0 2.8815.59616 3.577 1.8878.2981.4968.3974 1.093.3974 1.6891 0 1.093-.5961 2.2853-1.6891 3.4776" stroke-width=".9936"/>
	<path class="Note" d="m1353.2 477.52c-1.7885-3.2789-5.5642-5.0674-10.135-5.0674-3.3783 0-7.0546.9936-10.632 2.8814-6.5578 3.4776-10.532 9.3398-10.532 14.407 0 1.391.2981 2.7821.9936 4.0738 1.7885 3.2789 5.5642 4.968 10.135 4.968 3.3783 0 7.0546-.89424 10.632-2.7821 6.5578-3.4776 10.532-9.3398 10.532-14.407 0-1.391-.2981-2.7821-.9936-4.0738m-4.2725 6.7565c-1.6891 1.6891-5.0673 3.7757-8.6443 5.7629s-7.1539 3.4776-9.5386 3.9744c-.4968.0994-.9936.19872-1.4904.19872-1.5897 0-2.782-.59616-3.4776-1.8878-.298-.4968-.4968-1.093-.4968-1.6891 0-1.093.6956-2.3846 1.7885-3.4776 1.6891-1.6891 4.968-3.7757 8.545-5.7629 3.5769-1.9872 7.1539-3.4776 9.5385-3.9744.4968-.0994.9936-.19872 1.4904-.19872 1.5898 0 2.8815.59616 3.577 1.8878.2981.4968.3974 1.093.3974 1.6891 0 1.093-.5961 2.2853-1.6891 3.4776" stroke-width=".9936"/>
	<path class="Note" d="m1353.2 415.42c-1.7885-3.2789-5.5642-5.0674-10.135-5.0674-3.3783 0-7.0546.9936-10.632 2.8814-6.5578 3.4776-10.532 9.3398-10.532 14.407 0 1.391.2981 2.7821.9936 4.0738 1.7885 3.2789 5.5642 4.968 10.135 4.968 3.3783 0 7.0546-.89424 10.632-2.7821 6.5578-3.4776 10.532-9.3398 10.532-14.407 0-1.391-.2981-2.7821-.9936-4.0738m-4.2725 6.7565c-1.6891 1.6891-5.0673 3.7757-8.6443 5.7629s-7.1539 3.4776-9.5386 3.9744c-.4968.0994-.9936.19872-1.4904.19872-1.5897 0-2.782-.59616-3.4776-1.8878-.298-.4968-.4968-1.093-.4968-1.6891 0-1.093.6956-2.3846 1.7885-3.4776 1.6891-1.6891 4.968-3.7757 8.545-5.7629 3.5769-1.9872 7.1539-3.4776 9.5385-3.9744.4968-.0994.9936-.19872 1.4904-.19872 1.5898 0 2.8815.59616 3.577 1.8878.2981.4968.3974 1.093.3974 1.6891 0 1.093-.5961 2.2853-1.6891 3.4776" stroke-width=".9936"/>
	<path class="Clef" d="m82.817 144.4c-1.2221-5.3953-3.8452-9.1908-4.6202-10.224-3.1696-4.2427-7.1539-7.0744-11.814-8.4158-3.0901-.8842-6.0709-.9936-8.4754-.81475-1.0333-5.9715-2.0269-11.814-2.9311-17.229 5.4151-6.1306 9.012-11.893 11.277-16.166 3.4478-6.5378 4.5904-11.088 4.6401-11.287 1.709-5.1768 2.0667-12.827.97373-20.985-1.0035-7.5017-3.0802-14.169-5.4151-17.398-1.0234-1.4208-2.0667-2.1462-3.1-2.1462-1.2122 0-3.7061 1.2321-6.5776 3.9843-2.2853 2.1859-5.5344 6.051-8.078 12.023-2.9808 7.0149-3.1895 16.444-2.8417 23.121.37757 7.2235 1.4805 12.877 1.4904 12.927.01987.08933.27821 1.5797.72533 4.1333-.22853.22853-.46699.44712-.71539.68568-1.0333.9936-2.2157 2.1262-3.5869 3.4974-.8545.8546-1.7984 1.7587-2.792 2.7225-8.3959 8.088-21.104 20.329-21.104 39.356 0 4.6699.89424 9.0616 2.6628 13.046 1.5799 3.577 3.8651 6.836 6.7764 9.6876 7.6805 7.5017 18.203 10.691 25.218 10.532 2.9311-.0696 5.5443-.30812 7.919-.75524 1.8183 9.5386 2.951 16.524 2.9907 21.829.03974 6.4683-1.5997 10.413-5.4747 13.165-2.4144 1.7189-5.2065 2.6628-8.2866 2.8119-2.5734.11923-4.819-.34776-6.2398-.75503h-.0099s-.28814-.0795-.29808-.27821c-.0099-.17895.33782-.22863.34776-.22863h.01987c1.9077-.43708 5.4549-1.6592 7.7998-4.9381 1.7885-2.5039 2.6529-7.0944.82469-11.009-1.1029-2.3746-3.5968-5.3057-9.1809-5.7528-2.4741-.19872-4.7295.30791-6.7167 1.5002-1.7984 1.0731-3.2888 2.7026-4.3321 4.6898-2.4443 4.6699-1.9872 10.363 1.1228 14.179 2.9411 3.5968 7.5315 5.8919 12.927 6.4682.84456.0895 1.6891.12917 2.5337.12917 4.4016 0 8.7735-1.1923 12.321-3.3882 3.6366-2.5536 5.743-6.5081 6.4187-12.102.55642-4.6104.16891-10.482-1.2221-18.501-.3577-2.0766-.89424-5.0872-1.55-8.8231 5.7132-1.9078 9.8466-5.455 13.592-11.268 3.2689-5.7032 4.2029-11.764 2.7821-18.024m-33.991 26.022c-4.6103-1.2122-9.012-3.6962-12.748-7.1738-1.3016-1.2221-3.1596-3.3782-4.6202-6.7465-1.3612-3.1398-2.017-6.5479-1.9673-10.115.06957-4.66 1.3712-9.4492 3.8651-14.208 2.9013-5.5444 7.4321-11.039 13.453-16.335 1.4407-1.2717 2.802-2.5435 4.0837-3.8154.75514 4.2328 1.5798 8.8927 2.4542 13.742-3.8254 1.2618-8.545 4.3916-11.635 10.005-3.5173 6.528-3.3782 12.013-2.6529 15.47.93398 4.4315 3.4478 8.1674 6.8856 10.244.92405.55631 5.0276 2.6727 6.8558 2.0964.36763-.11923.6359-.33782.77501-.66571.50674-1.1625-.50674-1.7983-2.0568-2.7523-.59616-.36755-1.2619-.78488-1.9872-1.3115-3.2988-2.4741-4.7395-6.8956-3.6763-11.248.57629-2.3846 1.8481-4.5309 3.6763-6.22 1.6593-1.5401 3.6863-2.633 6.051-3.2688 2.0269 11.168 4.0738 22.247 5.7033 30.553.12917.68548.26827 1.3512.39744 2.0169-4.352.92405-8.6741.83473-12.857-.26827m11.248-32.968c10.284-.46699 14.526 6.9255 15.411 11.725.46699 2.5138.45706 6.9254-1.0731 11.108-1.1625 3.1596-3.6068 7.2036-8.7039 9.2505-.06955-.41731-.14904-.84456-.22853-1.2719-1.5301-8.7138-3.4577-19.634-5.4052-30.812m-7.2732-70.486c1.7686-5.7032 4.4911-8.9324 6.4683-10.651 1.7388-1.5103 3.3782-2.2158 4.2924-2.2158.1391 0 .25834.01987.3577.04968.45706.1391.98366.70556 1.4507 1.57 2.2952 4.2624 1.56 10.93.22853 15.341-1.6196 5.3654-4.5209 10.949-13.265 20.498-.16891-1.1029-.32789-2.1462-.47693-3.1198-1.242-8.237-.92405-15.461.94392-21.472" stroke-width=".9936"/>
	<path class="Clef" d="m82.817 492.16c-1.2221-5.3953-3.8452-9.1908-4.6202-10.224-3.1696-4.2427-7.1539-7.0744-11.814-8.4158-3.0901-.8842-6.0709-.9936-8.4754-.81475-1.0333-5.9715-2.0269-11.814-2.9311-17.229 5.4151-6.1306 9.012-11.894 11.277-16.166 3.4478-6.5378 4.5904-11.088 4.6401-11.287 1.709-5.1768 2.0667-12.827.97373-20.985-1.0035-7.5017-3.0802-14.169-5.4151-17.398-1.0234-1.4208-2.0667-2.1462-3.1-2.1462-1.2122 0-3.7061 1.2321-6.5776 3.9843-2.2853 2.1859-5.5344 6.051-8.078 12.023-2.9808 7.0149-3.1895 16.444-2.8417 23.121.37757 7.2235 1.4805 12.877 1.4904 12.927.01987.0893.27821 1.5797.72533 4.1333-.22853.22853-.46699.44712-.71539.68569-1.0333.9936-2.2157 2.1262-3.5869 3.4974-.8545.8546-1.7984 1.7587-2.792 2.7225-8.3959 8.088-21.104 20.329-21.104 39.356 0 4.6699.89424 9.0616 2.6628 13.046 1.5799 3.577 3.8651 6.836 6.7764 9.6876 7.6805 7.5017 18.203 10.691 25.218 10.532 2.9311-.0695 5.5443-.30812 7.919-.75524 1.8183 9.5386 2.951 16.524 2.9907 21.829.03974 6.4683-1.5997 10.413-5.4747 13.165-2.4144 1.7189-5.2065 2.6628-8.2866 2.8119-2.5734.11923-4.819-.34776-6.2398-.75503h-.0099s-.28814-.0795-.29808-.27821c-.0099-.17895.33782-.22863.34776-.22863h.01987c1.9077-.43708 5.4549-1.6592 7.7998-4.9381 1.7885-2.5039 2.6529-7.0944.82469-11.009-1.1029-2.3746-3.5968-5.3057-9.1809-5.7528-2.4741-.19872-4.7295.30791-6.7167 1.5002-1.7984 1.0731-3.2888 2.7026-4.3321 4.6898-2.4443 4.6699-1.9872 10.363 1.1228 14.179 2.9411 3.5968 7.5315 5.8919 12.927 6.4682.84456.0895 1.6891.12917 2.5337.12917 4.4016 0 8.7735-1.1923 12.321-3.3882 3.6366-2.5536 5.743-6.5081 6.4187-12.102.55642-4.6104.16891-10.482-1.2221-18.501-.3577-2.0766-.89424-5.0872-1.55-8.8231 5.7132-1.9078 9.8466-5.455 13.592-11.268 3.2689-5.7032 4.2029-11.764 2.7821-18.024m-33.991 26.022c-4.6103-1.2122-9.012-3.6962-12.748-7.1738-1.3016-1.2221-3.1596-3.3782-4.6202-6.7465-1.3612-3.1398-2.017-6.5479-1.9673-10.115.06957-4.66 1.3712-9.4492 3.8651-14.208 2.9013-5.5444 7.4321-11.039 13.453-16.335 1.4407-1.2717 2.802-2.5435 4.0837-3.8154.75514 4.2328 1.5798 8.8927 2.4542 13.742-3.8254 1.2618-8.545 4.3916-11.635 10.005-3.5173 6.528-3.3782 12.013-2.6529 15.47.93398 4.4315 3.4478 8.1674 6.8856 10.244.92405.55631 5.0276 2.6727 6.8558 2.0964.36763-.11923.6359-.33782.77501-.66571.50674-1.1625-.50674-1.7983-2.0568-2.7523-.59616-.36755-1.2619-.78488-1.9872-1.3115-3.2988-2.4741-4.7395-6.8956-3.6763-11.248.57629-2.3846 1.8481-4.5309 3.6763-6.22 1.6593-1.5401 3.6863-2.633 6.051-3.2688 2.0269 11.168 4.0738 22.247 5.7033 30.553.12917.68548.26827 1.3512.39744 2.0169-4.352.92405-8.6741.83473-12.857-.26827m11.248-32.968c10.284-.46699 14.526 6.9255 15.411 11.725.46699 2.5138.45706 6.9254-1.0731 11.108-1.1625 3.1596-3.6068 7.2036-8.7039 9.2505-.06955-.41731-.14904-.84456-.22853-1.2719-1.5301-8.7138-3.4577-19.634-5.4052-30.812m-7.2732-70.486c1.7686-5.7032 4.4911-8.9324 6.4683-10.651 1.7388-1.5103 3.3782-2.2158 4.2924-2.2158.1391 0 .25834.0199.3577.0497.45706.1391.98366.70556 1.4507 1.57 2.2952 4.2624 1.56 10.93.22853 15.341-1.6196 5.3654-4.5209 10.949-13.265 20.498-.16891-1.1029-.32789-2.1462-.47693-3.1198-1.242-8.237-.92405-15.461.94392-21.472" stroke-width=".9936"/>
	<path class="KeySig" d="m128.26 117.54c-.59616-3.875-2.9808-7.5514-8.0482-7.5514-4.968 0-7.8494 3.0802-8.3462 3.6763l.39744-31.895c0-.79488-.59616-1.391-1.391-1.391h-1.1923c-.79488 0-1.391.59616-1.391 1.391l.4968 59.715c0 .79488.59616 1.391 1.391 1.391.19872 0 .59616-.0994.79488-.19872.39744-.19872 6.8558-3.3782 12.221-9.4392 3.7757-4.2725 5.2661-9.1411 5.2661-13.215 0-.89424-.0994-1.6891-.19872-2.484m-6.8558 3.875c0 1.4904-.39744 6.061-2.8814 9.8366-1.6891 2.5834-5.0674 5.2661-6.9552 6.7565l.29808-19.375c.19872-.89424 1.6891-3.7757 5.6635-3.7757 3.577 0 3.875 3.3782 3.875 5.4648v1.093" stroke-width=".9936"/>
	<path class="KeySig" d="m128.26 465.3c-.59616-3.875-2.9808-7.5514-8.0482-7.5514-4.968 0-7.8494 3.0802-8.3462 3.6763l.39744-31.895c0-.79488-.59616-1.391-1.391-1.391h-1.1923c-.79488 0-1.391.59616-1.391 1.391l.4968 59.715c0 .79488.59616 1.391 1.391 1.391.19872 0 .59616-.0994.79488-.19872.39744-.19872 6.8558-3.3782 12.221-9.4392 3.7757-4.2725 5.2661-9.1411 5.2661-13.215 0-.89424-.0994-1.6891-.19872-2.484m-6.8558 3.875c0 1.4904-.39744 6.061-2.8814 9.8366-1.6891 2.5834-5.0674 5.2661-6.9552 6.7565l.29808-19.375c.19872-.89424 1.6891-3.7757 5.6635-3.7757 3.577 0 3.875 3.3782 3.875 5.4648v1.093" stroke-width=".9936"/>
	<path class="TimeSig" d="m155.5 113.25h17.07v7.3725h-8.1773c-.7749 0-1.4009.62597-1.4009 1.401v1.8978c0 .77501.62597 1.401 1.4009 1.401h30.056c.77501 0 1.401-.62597 1.401-1.401v-1.8978c0-.77501-.62597-1.401-1.401-1.401h-8.8828v-7.3725h8.8828c.77501 0 1.401-.62597 1.401-1.401v-1.8978c0-.77499-.62597-1.4009-1.401-1.4009h-8.8828v-15.858c0-.53648-.29808-1.0134-.77501-1.2519l-1.2022-.59616c-.52661-.25834-1.1527-.16891-1.5799.22851l-8.9921 8.2668c-.28804.26829-.45695.63594-.45695 1.0334v8.1773h-11.436s11.049-11.953 22.813-27.622c.86443-1.1426.36763-2.1859.17874-2.3747l-2.1561-2.1959c-.26827-.25834-.62597-.40738-.9936-.40738-.59616 0-14.059.01987-14.775 0-.71529-.01987-1.2519.59616-1.3215 1.2122 0 0-.53644 7.3129-3.1198 15.391-2.5834 8.068-5.5046 13.016-8.1475 16.623 0 0-.53659.9837-.17893 1.7189.34776.7452.97381 1.8282.97381 1.8282s.25829.52661 1.1028.52661" stroke-width=".9936"/>
	<path class="TimeSig" d="m155.5 162.67h17.07v7.3725h-8.1773c-.7749 0-1.4009.62597-1.4009 1.401v1.8978c0 .77501.62597 1.401 1.4009 1.401h30.056c.77501 0 1.401-.62597 1.401-1.401v-1.8978c0-.77501-.62597-1.401-1.401-1.401h-8.8828v-7.3725h8.8828c.77501 0 1.401-.62597 1.401-1.401v-1.8978c0-.77499-.62597-1.4009-1.401-1.4009h-8.8828v-15.858c0-.53649-.29808-1.0134-.77501-1.2519l-1.2022-.59616c-.52661-.25834-1.1527-.16891-1.5799.22851l-8.9921 8.2668c-.28804.26829-.45695.63594-.45695 1.0334v8.1773h-11.436s11.049-11.953 22.813-27.622c.86443-1.1426.36763-2.1859.17874-2.3747l-2.1561-2.1959c-.26827-.25833-.62597-.40737-.9936-.40737-.59616 0-14.059.0199-14.775 0-.71529-.0199-1.2519.59616-1.3215 1.2122 0 0-.53644 7.3129-3.1198 15.391-2.5834 8.068-5.5046 13.016-8.1475 16.623 0 0-.53659.9837-.17893 1.7189.34776.7452.97381 1.8282.97381 1.8282s.25829.52661 1.1028.52661" stroke-width=".9936"/>
	<path class="Rest" d="m294.95 191.86-.19872-.29808c-.0994-.0994-.29808-.29808-.59616-.69552l-11.426-14.109c-.29808-.29808-.19872-1.093 0-1.4904l10.135-15.301c.0994-.19872.19872-.4968.19872-.69552v-.89424c0-.29808-.0994-.59616-.29808-.79488l-16.096-21.76s-.79488-1.1923-1.7885-.29808c-.9936.79488-.19872 2.0866-.19872 2.0866l7.5514 10.333c.39744.59616.39744 1.7885 0 2.3846l-10.035 15.301c-.0994.19872-.19872.59616-.19872.79488v.89424c0 .29808.0994.59616.29808.79488l11.128 13.811c-.39744-.0994-1.2917-.29808-2.484-.29808-1.6891 0-3.875.39744-5.6635 1.9872-2.1859 1.9872-3.3782 4.7693-3.3782 7.2533 0 1.391.29808 2.7821 1.093 3.875 2.0866 3.1795 9.5386 12.619 9.5386 12.619s.89424 1.093 1.7885.39744.69552-1.5898.39744-2.0866-3.4776-6.2597-3.4776-6.2597-.69552-1.391-.69552-3.1795c0-1.2917.39744-2.8814 1.6891-4.1731 1.1923-1.1923 2.5834-1.5898 3.875-1.5898s2.3846.39744 3.1795.89424l3.875 2.484s1.1923.59616 1.7885-.29808c.4968-.79488.29808-1.1923 0-1.6891" stroke-width=".9936"/>
	<path class="Rest" d="m757.96 174.58h-29.51c-.79488 0-1.391.59616-1.391 1.391v10.731c0 .79488.59616 1.391 1.391 1.391h29.51c.79488 0 1.391-.59616 1.391-1.391v-10.731c0-.79488-.59616-1.391-1.391-1.391" stroke-width=".9936"/>
	<path class="Rest" d="m1237.2 174.58h-29.51c-.7948 0-1.391.59616-1.391 1.391v10.731c0 .79488.5962 1.391 1.391 1.391h29.51c.7948 0 1.391-.59616 1.391-1.391v-10.731c0-.79488-.5962-1.391-1.391-1.391" stroke-width=".9936"/>
	<path class="Hook" d="m304.93 4.6699c-.09936-.29808-.9936-3.7757-.9936-3.9744-.09936-.39744-.69552-.69552-1.1923-.69552-.69552 0-1.2917.59616-1.2917 1.2917v22.455c0 .4968.39744.89424.79488 1.093 4.1731 1.2917 12.817 6.7565 19.276 17.785 1.7885 3.0802 4.6699 7.2533 4.6699 15.6 0 7.1539-1.093 14.705-2.8814 21.66-.29808 1.093-.59616 2.0866.4968 2.484s1.4904-.39744 1.8878-1.391c3.577-8.7437 4.4712-17.885 4.4712-24.045v-1.8878c-.4968-12.817-7.8494-22.257-7.8494-22.257.29808 0-9.1411-12.221-11.824-16.394-3.6763-5.6635-5.4648-11.327-5.5642-11.724" stroke-width=".9936"/>
	<path class="Hook" d="m437.17 71.241c-.0994-5.1667-1.2917-10.532-4.7693-15.003-4.7693-6.1603-11.029-9.2405-14.805-14.705s-5.3654-16.096-5.3654-16.096c-.0994-.69552-.29808-1.1923-1.4904-1.1923s-1.391.4968-1.391 1.1923v38.055c0 .19872.69552.79488 1.391.9936 2.5834.9936 10.433 5.8622 16.394 14.705 3.577 5.4648 4.1731 9.1411 4.1731 12.718v1.093c-.0994 2.484-.69552 7.5514-2.1859 11.526-.29808.89424-.79488 2.1859.19872 2.6827s1.5898-.59616 2.0866-1.2917c1.7885-2.8814 4.3718-8.1475 4.3718-13.811 0-2.7821-.19872-5.2661-.4968-7.3526.9936-3.577 1.8878-8.0482 1.8878-12.718v-.79488m-7.0546 1.391c-2.6827-3.4776-5.6635-6.6571-10.532-11.526-3.875-3.875-5.6635-7.2533-6.359-9.8366-.0994-.19872-.0994-.59616-.19872-.89424l.0994.39744c4.4712.39744 10.532 4.8686 14.308 9.4392 4.4712 5.3654 5.3654 9.5386 5.3654 13.414 0 .9936 0 1.8878-.0994 2.8814-.59616-1.093-1.7885-2.8814-2.5834-3.875" stroke-width=".9936"/>
	<path class="Hook" d="m719.72 41.93c-.0994-.29808-.9936-3.7757-.9936-3.9744-.0994-.39744-.69552-.69552-1.1923-.69552-.69552 0-1.2917.59616-1.2917 1.2917v22.455c0 .4968.39744.89424.79488 1.093 4.1731 1.2917 12.817 6.7565 19.276 17.785 1.7885 3.0802 4.6699 7.2533 4.6699 15.6 0 7.1539-1.093 14.705-2.8814 21.66-.29808 1.093-.59616 2.0866.4968 2.484s1.4904-.39744 1.8878-1.391c3.577-8.7437 4.4712-17.885 4.4712-24.045v-1.8878c-.4968-12.817-7.8494-22.257-7.8494-22.257.29808 0-9.1411-12.221-11.824-16.394-3.6763-5.6635-5.4648-11.327-5.5642-11.724" stroke-width=".9936"/>
	<path class="Hook" d="m800.23 17.09c-.0994-.29808-.9936-3.7757-.9936-3.9744-.0994-.39744-.69552-.69552-1.1923-.69552-.69552 0-1.2917.59616-1.2917 1.2917v22.455c0 .4968.39744.89424.79488 1.093 4.1731 1.2917 12.817 6.7565 19.276 17.785 1.7885 3.0802 4.6699 7.2533 4.6699 15.6 0 7.1539-1.093 14.705-2.8814 21.66-.29808 1.093-.59616 2.0866.4968 2.484s1.4904-.39744 1.8878-1.391c3.577-8.7437 4.4712-17.885 4.4712-24.045v-1.8878c-.4968-12.817-7.8494-22.257-7.8494-22.257.29808 0-9.1411-12.221-11.824-16.394-3.6763-5.6635-5.4648-11.327-5.5642-11.724" stroke-width=".9936"/>
	<path class="Hook" d="m1299.4 42.129c-.069-.20866-.6955-2.643-.6955-2.7821-.07-.27821-.4869-.48686-.8346-.48686-.4869 0-.9042.41731-.9042.90418v15.719c0 .34776.2782.62597.5564.76507 2.9212.90418 8.9722 4.7295 13.493 12.45 1.2519 2.1561 3.2689 5.0773 3.2689 10.92 0 5.0077-.765 10.294-2.017 15.162-.2086.76507-.4173 1.4606.3478 1.7388s1.0433-.27821 1.3215-.97373c2.5039-6.1206 3.1298-12.519 3.1298-16.832v-1.3215c-.3477-8.9722-5.4946-15.58-5.4946-15.58.2087 0-6.3988-8.5549-8.2767-11.476-2.5734-3.9645-3.8253-7.9289-3.8949-8.2071" stroke-width=".69552"/>
	<path class="Hook" d="m394.98 377.27c-.0994-.29808-.9936-3.7757-.9936-3.9744-.0994-.39744-.69552-.69552-1.1923-.69552-.69552 0-1.2917.59616-1.2917 1.2917v22.455c0 .4968.39744.89424.79488 1.093 4.1731 1.2917 12.817 6.7565 19.276 17.785 1.7885 3.0802 4.6699 7.2533 4.6699 15.6 0 7.1539-1.093 14.705-2.8814 21.66-.29808 1.093-.59616 2.0866.4968 2.484s1.4904-.39744 1.8878-1.391c3.577-8.7437 4.4712-17.885 4.4712-24.045v-1.8878c-.4968-12.817-7.8494-22.257-7.8494-22.257.29808 0-9.1411-12.221-11.824-16.394-3.6763-5.6635-5.4648-11.327-5.5642-11.724" stroke-width=".9936"/>
	<path class="Hook" d="m1049.9 389.69c-.099-.29808-.9936-3.7757-.9936-3.9744-.099-.39744-.6955-.69552-1.1923-.69552-.6955 0-1.2917.59616-1.2917 1.2917v22.455c0 .4968.3974.89424.7949 1.093 4.1731 1.2917 12.817 6.7565 19.276 17.785 1.7885 3.0802 4.6699 7.2533 4.6699 15.6 0 7.1539-1.0929 14.705-2.8814 21.66-.2981 1.093-.5962 2.0866.4968 2.484s1.4904-.39744 1.8878-1.391c3.577-8.7437 4.4712-17.885 4.4712-24.045v-1.8878c-.4968-12.817-7.8494-22.257-7.8494-22.257.2981 0-9.1411-12.221-11.824-16.394-3.6764-5.6635-5.4648-11.327-5.5642-11.724" stroke-width=".9936"/>
	<path class="NoteDot" d="m316.6 88.131c0 2.7438 2.2242 4.968 4.968 4.968s4.968-2.2242 4.968-4.968c0-2.7438-2.2242-4.968-4.968-4.968s-4.968 2.2242-4.968 4.968" stroke-width=".9936"/>
	<path class="NoteDot" d="m574.31 88.131c0 2.7438 2.2242 4.968 4.968 4.968s4.968-2.2242 4.968-4.968c0-2.7438-2.2242-4.968-4.968-4.968s-4.968 2.2242-4.968 4.968" stroke-width=".9936"/>
	<path class="NoteDot" d="m892.41 88.131c0 2.7438 2.2242 4.968 4.968 4.968s4.968-2.2242 4.968-4.968c0-2.7438-2.2242-4.968-4.968-4.968s-4.968 2.2242-4.968 4.968" stroke-width=".9936"/>
	<path class="NoteDot" d="m472.62 510.41c0 2.7438 2.2242 4.968 4.968 4.968s4.968-2.2242 4.968-4.968-2.2242-4.968-4.968-4.968-4.968 2.2242-4.968 4.968" stroke-width=".9936"/>
	<path class="NoteDot" d="m472.62 485.57c0 2.7438 2.2242 4.968 4.968 4.968s4.968-2.2242 4.968-4.968-2.2242-4.968-4.968-4.968-4.968 2.2242-4.968 4.968" stroke-width=".9936"/>
	<path class="NoteDot" d="m472.62 460.73c0 2.7438 2.2242 4.968 4.968 4.968s4.968-2.2242 4.968-4.968-2.2242-4.968-4.968-4.968-4.968 2.2242-4.968 4.968" stroke-width=".9936"/>
	<path class="NoteDot" d="m687.75 485.57c0 2.7438 2.2242 4.968 4.968 4.968s4.968-2.2242 4.968-4.968-2.2242-4.968-4.968-4.968-4.968 2.2242-4.968 4.968" stroke-width=".9936"/>
	<path class="NoteDot" d="m687.75 411.05c0 2.7438 2.2242 4.968 4.968 4.968s4.968-2.2242 4.968-4.968-2.2242-4.968-4.968-4.968-4.968 2.2242-4.968 4.968" stroke-width=".9936"/>
	<path class="NoteDot" d="m1172.5 485.57c0 2.7438 2.2242 4.968 4.968 4.968s4.968-2.2242 4.968-4.968-2.2242-4.968-4.968-4.968-4.968 2.2242-4.968 4.968" stroke-width=".9936"/>
	<path class="NoteDot" d="m1172.5 510.41c0 2.7438 2.2242 4.968 4.968 4.968s4.968-2.2242 4.968-4.968-2.2242-4.968-4.968-4.968-4.968 2.2242-4.968 4.968" stroke-width=".9936"/>
	<path class="NoteDot" d="m1172.5 460.73c0 2.7438 2.2242 4.968 4.968 4.968s4.968-2.2242 4.968-4.968-2.2242-4.968-4.968-4.968-4.968 2.2242-4.968 4.968" stroke-width=".9936"/>
</svg>
