<?xml version="1.0" encoding="UTF-8"?>
<svg version="1.2" viewBox="0 0 1431 218.1" xmlns="http://www.w3.org/2000/svg" xmlns:cc="http://creativecommons.org/ns#" xmlns:dc="http://purl.org/dc/elements/1.1/" xmlns:rdf="http://www.w3.org/1999/02/22-rdf-syntax-ns#">
 <metadata>
  <rdf:RDF>
   <cc:Work rdf:about="">
    <dc:format>image/svg+xml</dc:format>
    <dc:type rdf:resource="http://purl.org/dc/dcmitype/StillImage"/>
    <dc:title>du_bois_16_forgotten</dc:title>
   </cc:Work>
  </rdf:RDF>
 </metadata>
 <title>du_bois_16_forgotten</title>
 <desc>Generated by MuseScore 3.6.2</desc>
 <polyline class="StaffLines" points="0 35.978 1431 35.978" fill="none" stroke="#000" stroke-linejoin="bevel" stroke-width="2.73"/>
 <polyline class="StaffLines" points="0 60.818 1431 60.818" fill="none" stroke="#000" stroke-linejoin="bevel" stroke-width="2.73"/>
 <polyline class="StaffLines" points="0 85.658 1431 85.658" fill="none" stroke="#000" stroke-linejoin="bevel" stroke-width="2.73"/>
 <polyline class="StaffLines" points="0 110.5 1431 110.5" fill="none" stroke="#000" stroke-linejoin="bevel" stroke-width="2.73"/>
 <polyline class="StaffLines" points="0 135.34 1431 135.34" fill="none" stroke="#000" stroke-linejoin="bevel" stroke-width="2.73"/>
 <polyline class="BarLine" points="404.02 34.612 404.02 136.7" fill="none" stroke="#000" stroke-linejoin="bevel" stroke-width="4.47"/>
 <polyline class="BarLine" points="921.12 34.612 921.12 136.7" fill="none" stroke="#000" stroke-linejoin="bevel" stroke-width="4.47"/>
 <polyline class="Stem" points="345.98 132.16 345.98 48.398" fill="none" stroke="#000" stroke-linejoin="bevel" stroke-width="2.73"/>
 <polyline class="Stem" points="469.46 94.898 469.46 17.348" fill="none" stroke="#000" stroke-linejoin="bevel" stroke-width="2.73"/>
 <polyline class="Stem" points="606.7 94.898 606.7 17.348" fill="none" stroke="#000" stroke-linejoin="bevel" stroke-width="2.73"/>
 <polyline class="Stem" points="692.48 94.898 692.48 17.348" fill="none" stroke="#000" stroke-linejoin="bevel" stroke-width="2.73"/>
 <polyline class="Stem" points="778.25 82.478 778.25 8.033" fill="none" stroke="#000" stroke-linejoin="bevel" stroke-width="2.73"/>
 <polyline class="Stem" points="834.47 76.576 834.47 160.18" fill="none" stroke="#000" stroke-linejoin="bevel" stroke-width="2.73"/>
 <polyline class="Stem" points="1009.8 94.898 1009.8 17.348" fill="none" stroke="#000" stroke-linejoin="bevel" stroke-width="2.73"/>
 <polyline class="Stem" points="1180.3 94.898 1180.3 17.348" fill="none" stroke="#000" stroke-linejoin="bevel" stroke-width="2.73"/>
 <polyline class="Stem" points="1286.9 132.16 1286.9 48.398" fill="none" stroke="#000" stroke-linejoin="bevel" stroke-width="2.73"/>
 <path class="Note" d="m346.36 127.29c-1.7885-3.2789-5.5642-5.0674-10.135-5.0674-3.3782 0-7.0546.9936-10.632 2.8814-6.5578 3.4776-10.532 9.3398-10.532 14.407 0 1.391.29808 2.7821.9936 4.0738 1.7885 3.2789 5.5642 4.968 10.135 4.968 3.3782 0 7.0546-.89424 10.632-2.7821 6.5578-3.4776 10.532-9.3398 10.532-14.407 0-1.391-.29808-2.7821-.9936-4.0738" stroke-width=".9936"/>
 <path class="Note" d="m469.84 90.03c-1.7885-3.2789-5.5642-5.0674-10.135-5.0674-3.3782 0-7.0546.9936-10.632 2.8814-6.5578 3.4776-10.532 9.3398-10.532 14.407 0 1.391.29808 2.7821.9936 4.0738 1.7885 3.2789 5.5642 4.968 10.135 4.968 3.3782 0 7.0546-.89424 10.632-2.7821 6.5578-3.4776 10.532-9.3398 10.532-14.407 0-1.391-.29808-2.7821-.9936-4.0738" stroke-width=".9936"/>
 <path class="Note" d="m607.08 90.03c-1.7885-3.2789-5.5642-5.0674-10.135-5.0674-3.3782 0-7.0546.9936-10.632 2.8814-6.5578 3.4776-10.532 9.3398-10.532 14.407 0 1.391.29808 2.7821.9936 4.0738 1.7885 3.2789 5.5642 4.968 10.135 4.968 3.3782 0 7.0546-.89424 10.632-2.7821 6.5578-3.4776 10.532-9.3398 10.532-14.407 0-1.391-.29808-2.7821-.9936-4.0738" stroke-width=".9936"/>
 <path class="Note" d="m692.86 90.03c-1.7885-3.2789-5.5642-5.0674-10.135-5.0674-3.3782 0-7.0546.9936-10.632 2.8814-6.5578 3.4776-10.532 9.3398-10.532 14.407 0 1.391.29808 2.7821.9936 4.0738 1.7885 3.2789 5.5642 4.968 10.135 4.968 3.3782 0 7.0546-.89424 10.632-2.7821 6.5578-3.4776 10.532-9.3398 10.532-14.407 0-1.391-.29808-2.7821-.9936-4.0738" stroke-width=".9936"/>
 <path class="Note" d="m778.63 77.61c-1.7885-3.2789-5.5642-5.0674-10.135-5.0674-3.3782 0-7.0546.9936-10.632 2.8814-6.5578 3.4776-10.532 9.3398-10.532 14.407 0 1.391.29808 2.7821.9936 4.0738 1.7885 3.2789 5.5642 4.968 10.135 4.968 3.3782 0 7.0546-.89424 10.632-2.7821 6.5578-3.4776 10.532-9.3398 10.532-14.407 0-1.391-.29808-2.7821-.9936-4.0738" stroke-width=".9936"/>
 <path class="Note" d="m864.41 65.19c-1.7885-3.2789-5.5642-5.0674-10.135-5.0674-3.3782 0-7.0546.9936-10.632 2.8814-6.5578 3.4776-10.532 9.3398-10.532 14.407 0 1.391.29808 2.7821.9936 4.0738 1.7885 3.2789 5.5642 4.968 10.135 4.968 3.3782 0 7.0546-.89424 10.632-2.7821 6.5578-3.4776 10.532-9.3398 10.532-14.407 0-1.391-.29808-2.7821-.9936-4.0738" stroke-width=".9936"/>
 <path class="Note" d="m1010.1 90.03c-1.7885-3.2789-5.5642-5.0674-10.135-5.0674-3.3783 0-7.0546.9936-10.632 2.8814-6.5578 3.4776-10.532 9.3398-10.532 14.407 0 1.391.29808 2.7821.9936 4.0738 1.7885 3.2789 5.5642 4.968 10.135 4.968 3.3782 0 7.0546-.89424 10.631-2.7821 6.5578-3.4776 10.532-9.3398 10.532-14.407 0-1.391-.2981-2.7821-.9936-4.0738" stroke-width=".9936"/>
 <path class="Note" d="m1180.7 90.03c-1.7885-3.2789-5.5642-5.0674-10.135-5.0674-3.3783 0-7.0546.9936-10.632 2.8814-6.5578 3.4776-10.532 9.3398-10.532 14.407 0 1.391.2981 2.7821.9936 4.0738 1.7885 3.2789 5.5642 4.968 10.135 4.968 3.3783 0 7.0546-.89424 10.632-2.7821 6.5578-3.4776 10.532-9.3398 10.532-14.407 0-1.391-.2981-2.7821-.9936-4.0738" stroke-width=".9936"/>
 <path class="Note" d="m1287.3 127.29c-1.7885-3.2789-5.5642-5.0674-10.135-5.0674-3.3783 0-7.0546.9936-10.632 2.8814-6.5578 3.4776-10.532 9.3398-10.532 14.407 0 1.391.2981 2.7821.9936 4.0738 1.7885 3.2789 5.5642 4.968 10.135 4.968 3.3783 0 7.0546-.89424 10.632-2.7821 6.5578-3.4776 10.532-9.3398 10.532-14.407 0-1.391-.2981-2.7821-.9936-4.0738" stroke-width=".9936"/>
 <path class="Clef" d="m82.817 104.67c-1.2221-5.3953-3.8452-9.1908-4.6202-10.224-3.1696-4.2427-7.1539-7.0744-11.814-8.4158-3.0901-.8842-6.0709-.9936-8.4754-.81475-1.0333-5.9715-2.0269-11.814-2.9311-17.229 5.4151-6.1306 9.012-11.893 11.277-16.166 3.4478-6.5378 4.5904-11.088 4.6401-11.287 1.709-5.1768 2.0667-12.827.97373-20.985-1.0035-7.5017-3.0802-14.169-5.4151-17.398-1.0234-1.4208-2.0667-2.1462-3.1-2.1462-1.2122 0-3.7061 1.2321-6.5776 3.9843-2.2853 2.1859-5.5344 6.051-8.078 12.023-2.9808 7.0149-3.1895 16.444-2.8417 23.121.37757 7.2235 1.4805 12.877 1.4904 12.927.01987.08933.27821 1.5797.72533 4.1333-.22853.22853-.46699.44712-.71539.68568-1.0333.9936-2.2157 2.1262-3.5869 3.4974-.8545.8546-1.7984 1.7587-2.792 2.7225-8.3959 8.088-21.104 20.329-21.104 39.356 0 4.6699.89424 9.0616 2.6628 13.046 1.5799 3.577 3.8651 6.836 6.7764 9.6876 7.6805 7.5017 18.203 10.691 25.218 10.532 2.9311-.0696 5.5443-.30811 7.919-.75523 1.8183 9.5386 2.951 16.524 2.9907 21.829.03974 6.4683-1.5997 10.413-5.4747 13.165-2.4144 1.7189-5.2065 2.6628-8.2866 2.8119-2.5734.11923-4.819-.34776-6.2398-.75504h-.0099s-.28814-.0795-.29808-.27821c-.0099-.17894.33782-.22862.34776-.22862h.01987c1.9077-.43709 5.4549-1.6592 7.7998-4.9381 1.7885-2.5039 2.6529-7.0944.82469-11.009-1.1029-2.3746-3.5968-5.3057-9.1809-5.7528-2.4741-.19872-4.7295.30792-6.7167 1.5002-1.7984 1.0731-3.2888 2.7026-4.3321 4.6898-2.4443 4.6699-1.9872 10.363 1.1228 14.179 2.9411 3.5968 7.5315 5.892 12.927 6.4682.84456.0895 1.6891.12917 2.5337.12917 4.4016 0 8.7735-1.1923 12.321-3.3882 3.6366-2.5536 5.743-6.5081 6.4187-12.102.55642-4.6104.16891-10.482-1.2221-18.501-.3577-2.0766-.89424-5.0872-1.55-8.8231 5.7132-1.9078 9.8466-5.455 13.592-11.268 3.2689-5.7032 4.2029-11.764 2.7821-18.024m-33.991 26.022c-4.6103-1.2122-9.012-3.6962-12.748-7.1738-1.3016-1.2221-3.1596-3.3782-4.6202-6.7465-1.3612-3.1398-2.017-6.5479-1.9673-10.115.06957-4.66 1.3712-9.4492 3.8651-14.208 2.9013-5.5444 7.4321-11.039 13.453-16.335 1.4407-1.2717 2.802-2.5435 4.0837-3.8154.75514 4.2328 1.5798 8.8927 2.4542 13.742-3.8254 1.2618-8.545 4.3916-11.635 10.005-3.5173 6.528-3.3782 12.013-2.6529 15.47.93398 4.4315 3.4478 8.1674 6.8856 10.244.92405.55632 5.0276 2.6727 6.8558 2.0964.36763-.11923.6359-.33782.77501-.66571.50674-1.1625-.50674-1.7983-2.0568-2.7523-.59616-.36756-1.2619-.78489-1.9872-1.3115-3.2988-2.4741-4.7395-6.8956-3.6763-11.248.57629-2.3846 1.8481-4.5309 3.6763-6.22 1.6593-1.5401 3.6863-2.633 6.051-3.2688 2.0269 11.168 4.0738 22.247 5.7033 30.553.12917.68549.26827 1.3512.39744 2.0169-4.352.92405-8.6741.83472-12.857-.26827m11.248-32.968c10.284-.46699 14.526 6.9254 15.411 11.725.46699 2.5138.45706 6.9254-1.0731 11.108-1.1625 3.1596-3.6068 7.2036-8.7039 9.2505-.06955-.41731-.14904-.84456-.22853-1.2719-1.5301-8.7138-3.4577-19.634-5.4052-30.812m-7.2732-70.486c1.7686-5.7032 4.4911-8.9324 6.4683-10.651 1.7388-1.5103 3.3782-2.2158 4.2924-2.2158.1391 0 .25834.01987.3577.04968.45706.1391.98366.70556 1.4507 1.57 2.2952 4.2624 1.56 10.93.22853 15.341-1.6196 5.3654-4.5209 10.949-13.265 20.498-.16891-1.1029-.32789-2.1462-.47693-3.1198-1.242-8.237-.92405-15.461.94392-21.472" stroke-width=".9936"/>
 <path class="KeySig" d="m202.78 52.969c-.59616-3.875-2.9808-7.5514-8.0482-7.5514-4.968 0-7.8494 3.0802-8.3462 3.6763l.39744-31.895c0-.79488-.59616-1.391-1.391-1.391h-1.1923c-.79488 0-1.391.59616-1.391 1.391l.4968 59.715c0 .79488.59616 1.391 1.391 1.391.19872 0 .59616-.09936.79488-.19872.39744-.19872 6.8558-3.3782 12.221-9.4392 3.7757-4.2725 5.2661-9.1411 5.2661-13.215 0-.89424-.0994-1.6891-.19872-2.484m-6.8558 3.875c0 1.4904-.39744 6.061-2.8814 9.8366-1.6891 2.5834-5.0674 5.2661-6.9552 6.7565l.29808-19.375c.19872-.89424 1.6891-3.7757 5.6635-3.7757 3.577 0 3.875 3.3782 3.875 5.4648v1.093" stroke-width=".9936"/>
 <path class="KeySig" d="m177.94 90.229c-.59616-3.875-2.9808-7.5514-8.0482-7.5514-4.968 0-7.8494 3.0802-8.3462 3.6763l.39744-31.895c0-.79488-.59616-1.391-1.391-1.391h-1.1923c-.79488 0-1.391.59616-1.391 1.391l.4968 59.715c0 .79488.59616 1.391 1.391 1.391.19872 0 .59616-.0994.79488-.19872.39744-.19872 6.8558-3.3782 12.221-9.4392 3.7757-4.2725 5.2661-9.1411 5.2661-13.215 0-.89424-.0994-1.6891-.19872-2.484m-6.8558 3.875c0 1.4904-.39744 6.061-2.8814 9.8366-1.6891 2.5834-5.0674 5.2661-6.9552 6.7565l.29808-19.375c.19872-.89424 1.6891-3.7757 5.6635-3.7757 3.577 0 3.875 3.3782 3.875 5.4648v1.093" stroke-width=".9936"/>
 <path class="KeySig" d="m153.1 40.549c-.59616-3.875-2.9808-7.5514-8.0482-7.5514-4.968 0-7.8494 3.0802-8.3462 3.6763l.39744-31.895c0-.79488-.59616-1.391-1.391-1.391h-1.1923c-.79488 0-1.391.59616-1.391 1.391l.4968 59.715c0 .79488.59616 1.391 1.391 1.391.19872 0 .59616-.09936.79488-.19872.39744-.19872 6.8558-3.3782 12.221-9.4392 3.7757-4.2725 5.2661-9.1411 5.2661-13.215 0-.89424-.0994-1.6891-.19872-2.484m-6.8558 3.875c0 1.4904-.39744 6.061-2.8814 9.8366-1.6891 2.5834-5.0674 5.2661-6.9552 6.7565l.29808-19.375c.19872-.89424 1.6891-3.7757 5.6635-3.7757 3.577 0 3.875 3.3782 3.875 5.4648v1.093" stroke-width=".9936"/>
 <path class="KeySig" d="m128.26 77.809c-.59616-3.875-2.9808-7.5514-8.0482-7.5514-4.968 0-7.8494 3.0802-8.3462 3.6763l.39744-31.895c0-.79488-.59616-1.391-1.391-1.391h-1.1923c-.79488 0-1.391.59616-1.391 1.391l.4968 59.715c0 .79488.59616 1.391 1.391 1.391.19872 0 .59616-.0994.79488-.19872.39744-.19872 6.8558-3.3782 12.221-9.4392 3.7757-4.2725 5.2661-9.1411 5.2661-13.215 0-.89424-.0994-1.6891-.19872-2.484m-6.8558 3.875c0 1.4904-.39744 6.061-2.8814 9.8366-1.6891 2.5834-5.0674 5.2661-6.9552 6.7565l.29808-19.375c.19872-.89424 1.6891-3.7757 5.6635-3.7757 3.577 0 3.875 3.3782 3.875 5.4648v1.093" stroke-width=".9936"/>
 <path class="TimeSig" d="m251.17 56.546c-6.061 0-8.2469 1.7885-9.6379 3.2789-.29808-2.0866-.4968-3.6763-.4968-5.2661s.19872-2.9808.4968-4.7693c.59616-3.6763 3.0802-8.2469 8.4456-8.2469 2.484 0 3.9744.79488 4.968 1.8878-2.0866.89424-3.7757 3.577-3.7757 5.8622 0 3.577 2.7821 6.359 6.359 6.359s6.4584-2.7821 6.4584-6.359v-.29808c0-.89424-.19872-2.3846-.59616-3.1795-1.2917-3.577-5.4648-8.843-15.401-8.843-8.9424 0-15.401 8.545-17.388 13.116-.9936 2.3846-2.484 7.2533-2.484 12.817 0 6.061 1.6891 12.917 7.5514 18.084 5.7629 4.3718 9.4392 4.5706 12.917 4.5706s16.494-4.0738 16.494-15.6c0-9.7373-7.6507-13.414-13.91-13.414m-3.6763 24.84c-3.2789 0-5.9616-4.4712-5.9616-10.035s2.6827-10.135 5.9616-10.135 6.061 4.5706 6.061 10.135-2.7821 10.035-6.061 10.035" stroke-width=".9936"/>
 <path class="TimeSig" d="m258.5 108.28c3.3087-2.4939 5.6038-5.6635 5.6038-9.6478 0-7.1937-7.8394-13.016-17.507-13.016-9.6677 0-17.507 5.8324-17.507 13.016 0 3.9843.9936 7.5613 5.6933 10.502-4.5309 2.6529-6.9652 6.2895-6.9652 11.029 0 8.0283 8.4059 14.536 18.779 14.536 10.373 0 18.779-6.5081 18.779-14.536-.01-4.7395-1.7288-9.2604-6.8756-11.884m-11.913 20.836c-6.3192 0-11.814-3.4577-11.814-9.002 0-6.6571 5.1369-8.2569 5.1369-8.2569 6.7565 2.2555 16.434 5.6635 16.434 11.089 0 2.7125-3.438 6.1702-9.7573 6.1702m6.3492-23.568c-6.7665-2.0964-14.199-5.3852-14.199-9.8962 0-3.9048 3.577-5.4549 7.8494-5.4549 6.1206 0 10.343 2.8715 10.343 7.4421 0 4.7693-2.2057 7.0347-3.9942 7.909" stroke-width=".9936"/>
 <path class="Hook" d="m348.09 51.876c-.0994-.29808-.9936-3.7757-.9936-3.9744-.0994-.39744-.69552-.69552-1.1923-.69552-.69552 0-1.2917.59616-1.2917 1.2917v22.455c0 .4968.39744.89424.79488 1.093 4.1731 1.2917 12.817 6.7565 19.276 17.785 1.7885 3.0802 4.6699 7.2533 4.6699 15.6 0 7.1539-1.093 14.705-2.8814 21.66-.29808 1.093-.59616 2.0866.4968 2.484s1.4904-.39744 1.8878-1.391c3.577-8.7437 4.4712-17.885 4.4712-24.045v-1.8878c-.4968-12.817-7.8494-22.257-7.8494-22.257.29808 0-9.1411-12.221-11.824-16.394-3.6763-5.6635-5.4648-11.327-5.5642-11.724" stroke-width=".9936"/>
 <path class="Hook" d="m608.81 20.826c-.0994-.29808-.9936-3.7757-.9936-3.9744-.0994-.39744-.69552-.69552-1.1923-.69552-.69552 0-1.2917.59616-1.2917 1.2917v22.455c0 .4968.39744.89424.79488 1.093 4.1731 1.2917 12.817 6.7565 19.276 17.785 1.7885 3.0802 4.6699 7.2533 4.6699 15.6 0 7.1539-1.093 14.705-2.8814 21.66-.29808 1.093-.59616 2.0866.4968 2.484s1.4904-.39744 1.8878-1.391c3.577-8.7437 4.4712-17.885 4.4712-24.045v-1.8878c-.4968-12.817-7.8494-22.257-7.8494-22.257.29808 0-9.1411-12.221-11.824-16.394-3.6763-5.6635-5.4648-11.327-5.5642-11.724" stroke-width=".9936"/>
 <path class="Hook" d="m694.59 20.826c-.0994-.29808-.9936-3.7757-.9936-3.9744-.0994-.39744-.69552-.69552-1.1923-.69552-.69552 0-1.2917.59616-1.2917 1.2917v22.455c0 .4968.39744.89424.79488 1.093 4.1731 1.2917 12.817 6.7565 19.276 17.785 1.7885 3.0802 4.6699 7.2533 4.6699 15.6 0 7.1539-1.093 14.705-2.8814 21.66-.29808 1.093-.59616 2.0866.4968 2.484s1.4904-.39744 1.8878-1.391c3.577-8.7437 4.4712-17.885 4.4712-24.045v-1.8878c-.4968-12.817-7.8494-22.257-7.8494-22.257.29808 0-9.1411-12.221-11.824-16.394-3.6763-5.6635-5.4648-11.327-5.5642-11.724" stroke-width=".9936"/>
 <path class="Hook" d="m780.37 11.511c-.0994-.29808-.9936-3.7757-.9936-3.9744-.0994-.39744-.69552-.69552-1.1923-.69552-.69552 0-1.2917.59616-1.2917 1.2917v22.455c0 .4968.39744.89424.79488 1.093 4.1731 1.2917 12.817 6.7565 19.276 17.785 1.7885 3.0802 4.6699 7.2533 4.6699 15.6 0 7.1539-1.093 14.705-2.8814 21.66-.29808 1.093-.59616 2.0866.4968 2.484s1.4904-.39744 1.8878-1.391c3.577-8.7437 4.4712-17.885 4.4712-24.045v-1.8878c-.4968-12.817-7.8494-22.257-7.8494-22.257.29808 0-9.1411-12.221-11.824-16.394-3.6763-5.6635-5.4648-11.327-5.5642-11.724" stroke-width=".9936"/>
 <path class="Hook" d="m835.59 160.58c0-.19872.89424-3.577.9936-3.875.0994-.39744 1.8878-6.061 5.5642-11.724 2.6827-4.1731 12.122-16.394 11.824-16.394 0 0 7.3526-9.4392 7.8494-22.257v-2.2853c0-6.061-.79488-14.606-4.2725-23.25-.39744-.9936-.79488-1.9872-1.8878-1.5898s-.79488 1.5898-.4968 2.6827c1.7885 6.9552 2.7821 14.109 2.7821 21.263 0 8.3462-2.9808 12.519-4.7693 15.6-6.5578 11.029-15.103 16.394-19.276 17.785-.4968.19872-.79488.59616-.79488 1.093v22.455c0 .69552.59616 1.2917 1.2917 1.2917.4968 0 1.093-.39744 1.1923-.79488" stroke-width=".9936"/>
 <path class="Hook" d="m1182.4 20.826c-.099-.29808-.9936-3.7757-.9936-3.9744-.099-.39744-.6955-.69552-1.1923-.69552-.6955 0-1.2917.59616-1.2917 1.2917v22.455c0 .4968.3974.89424.7949 1.093 4.1731 1.2917 12.817 6.7565 19.276 17.785 1.7885 3.0802 4.6699 7.2533 4.6699 15.6 0 7.1539-1.0929 14.705-2.8814 21.66-.2981 1.093-.5962 2.0866.4968 2.484s1.4904-.39744 1.8878-1.391c3.577-8.7437 4.4712-17.885 4.4712-24.045v-1.8878c-.4968-12.817-7.8494-22.257-7.8494-22.257.2981 0-9.1411-12.221-11.824-16.394-3.6764-5.6635-5.4648-11.327-5.5642-11.724" stroke-width=".9936"/>
 <path class="Lyrics" d="m312.76 180.98h-10.32v1.88h.76c2.28.04 3.04.16 3.32.56.28.36.28.4.28 2.48v15.32c0 5.44-.76 6.56-4.64 6.76v1.88h11.4v-1.88c-3.84-.2-4.6-1.32-4.6-6.76v-17.68l9.52 26.32h1.6l8.92-26.32v21.4c0 2.04 0 2.12-.24 2.52-.32.4-1.08.52-3.36.52h-.72v1.88h13.12v-1.88h-.72c-2.28 0-3.04-.12-3.36-.52-.24-.4-.24-.44-.24-2.52v-19.04c0-2.04 0-2.12.24-2.48.32-.4 1.08-.52 3.36-.56h.72v-1.88h-10.04l-7.32 21.32-7.68-21.32m36.785 23.8-4.4-10.28c-.16-.4-.24-.6-.24-.8 0-.76.48-1.04 1.84-1.04h.84v-1.44h-9.52v1.44h.44c1.36.04 1.88.44 2.72 2.16l6.52 14.76-.68 1.4c-1.44 3.04-3.32 5.16-4.6 5.16-.36 0-.64-.16-.64-.4 0-.08.04-.2.08-.36.12-.36.2-.72.2-1.04 0-1.04-.84-1.8-2.04-1.8-1.4 0-2.4 1.04-2.4 2.48 0 1.8 1.52 3.08 3.64 3.08s3.92-1.04 5.52-3.2c1.24-1.64 2.04-3.32 3.8-7.68l4.56-11.32c.92-2.32 1.8-3.2 3.36-3.24h.24v-1.44h-8v1.44h.64c1.52 0 2.16.44 2.16 1.48 0 .44-.12.92-.4 1.6l-3.64 9.04"/>
 <path class="Lyrics" d="m434.83 190.78h-1.4l-1.16 1.44c-1.44-1.12-2.88-1.6-4.88-1.6-3.52 0-5.84 2.28-5.84 5.8 0 1.56.52 2.88 1.4 3.68.92.84 1.84 1.24 4.24 1.8l2.12.48c3.16.76 4.28 1.56 4.28 3.16 0 1.88-1.64 3.2-3.96 3.2-3.4 0-5.8-2.16-6.76-6.16h-1.6v7.56h1.4l1.4-1.64c1.64 1.32 3.44 1.96 5.48 1.96 3.92 0 6.52-2.44 6.52-6.16 0-1.76-.56-3.12-1.68-4.04-.96-.84-1.76-1.16-4.2-1.68l-2-.44c-2.2-.48-2.2-.48-2.92-.88-.88-.4-1.4-1.24-1.4-2.12 0-1.64 1.52-2.76 3.72-2.76 1.52 0 2.76.52 3.88 1.6.88.88 1.32 1.68 1.96 3.52h1.4v-6.72m12.995-.16c-4.92 0-8.72 4.36-8.72 9.96 0 5.48 3.84 9.88 8.64 9.88s8.64-4.4 8.64-9.92c0-5.48-3.84-9.92-8.56-9.92m0 1.72c2.8 0 4.36 2.92 4.36 8.2 0 5.32-1.56 8.2-4.44 8.2s-4.44-2.88-4.44-8.16c0-5.44 1.52-8.24 4.52-8.24m26.4 17.8 7.28-.28v-1.72h-1c-2.32-.08-2.52-.32-2.52-2.92v-14l-7.52.44v1.72h2.04c1.52.04 1.72.28 1.72 2v4.92c0 2.28-.24 3.64-.84 4.92-.84 1.8-2.44 2.8-4.4 2.8-1.24 0-2.28-.44-2.8-1.24-.52-.76-.6-1.16-.6-3.36v-12.2l-7 .44v1.72h1.52c1.52.04 1.72.28 1.72 2v8.64c0 2.04.16 2.96.76 3.88 1.08 1.64 3 2.56 5.4 2.56 2.64 0 4.48-1.08 6.24-3.64v3.32m16.118-29.76-7.4.44v1.72h1.96c1.48.04 1.68.28 1.68 2v22.28c-.04.6-.08.84-.24 1.04-.28.36-1.04.52-2.76.56h-.28v1.44h10.36v-1.44h-.28c-2.68-.08-3.04-.28-3.04-1.72v-26.32m37.423 24.32-3.92-10.28c-.12-.28-.16-.52-.16-.84 0-.72.36-.92 1.68-.92h.96v-1.44h-8.96v1.44h.68c1.28.04 1.8.36 2.12 1.48l.32 1.04-3.52 9.32-3.88-10.04c-.08-.28-.16-.64-.16-.88 0-.68.44-.92 1.64-.92h.72v-1.44h-8.8v1.44h.72c1.12.04 1.64.52 2.08 1.96l6 15.84h1.4l4.76-12.64 4.88 12.64h1.24l5.6-14.76c.88-2.36 1.48-3 2.96-3.04h.28v-1.44h-7.56v1.44h.68c1.4 0 1.96.4 1.96 1.48 0 .4-.12.92-.32 1.44l-3.4 9.12m26.512-7.72c0-2.52-.44-3.8-1.6-4.76-1.32-1.08-3.28-1.6-5.84-1.6-4.52 0-7.8 2.12-7.8 5.04 0 1.48.92 2.44 2.32 2.44 1.28 0 2.16-.84 2.16-2.04 0-.52-.2-1.08-.6-1.64-.24-.28-.28-.36-.28-.56 0-.8 1.6-1.52 3.52-1.52 1.28 0 2.68.4 3.32 1 .76.64 1.04 1.6 1.04 3.4v1.56c-4.16.72-5.48 1.04-7.44 1.8-3.48 1.28-5.12 3.12-5.12 5.68 0 2.88 2.24 4.68 5.8 4.68 2.76 0 5.24-1.12 6.96-3.16.64 2.04 1.64 2.84 3.52 2.84 1.8 0 3.68-1.16 3.68-2.32 0-.28-.16-.48-.4-.48-.16 0-.32.04-.6.16-.56.24-.8.28-1.12.28-1.12 0-1.52-.72-1.52-2.76v-8.04m-3.76 4.88c0 2.4-.12 2.96-.8 4-1 1.48-2.8 2.48-4.56 2.48-1.84 0-3.16-1.32-3.16-3.12 0-1.68.84-2.88 2.6-3.72 1.24-.56 2.8-.96 5.92-1.48v1.84m15.915-10.64-6.92.44v1.72h1.44c1.52.04 1.72.28 1.72 2v11.44c-.04.6-.08.84-.24 1.04-.28.36-1.04.52-2.76.56h-.16v1.44h10.12v-1.44h-.16c-2.68-.08-3.04-.28-3.04-1.72v-5.92c0-1.96.28-3.76.72-4.68.84-1.8 2.64-3.04 4.36-3.04 1.04 0 2.24.56 2.84 1.4.6.88.88 2.08.88 4v8.36c-.04.6-.08.84-.24 1.04-.28.36-1.08.52-2.8.56h-.16v1.44h10.12v-1.44h-.16c-2.64-.08-3-.28-3-1.72v-8.04c0-2.88-.12-3.6-.84-4.96-1-1.92-3-3.08-5.4-3.08-2.6 0-4.56 1.2-6.32 3.84v-3.24m24.197 0v-7.92h-1.64c-.4 5.2-2.16 7.84-5.4 8.08v1.56h3.28v10.2c0 2.8.08 3.8.48 4.72.64 1.68 2.24 2.6 4.56 2.6 3.6 0 5.92-2.72 5.92-6.96 0-.24 0-.52-.04-.92h-1.68c-.12 3.6-1.16 5.44-3.12 5.44-.92 0-1.72-.48-2-1.16-.24-.56-.36-1.56-.36-3v-10.92h5.88v-1.72h-5.88m23.387-.44h-1.4l-1.16 1.44c-1.44-1.12-2.88-1.6-4.88-1.6-3.52 0-5.84 2.28-5.84 5.8 0 1.56.52 2.88 1.4 3.68.92.84 1.84 1.24 4.24 1.8l2.12.48c3.16.76 4.28 1.56 4.28 3.16 0 1.88-1.64 3.2-3.96 3.2-3.4 0-5.8-2.16-6.76-6.16h-1.6v7.56h1.4l1.4-1.64c1.64 1.32 3.44 1.96 5.48 1.96 3.92 0 6.52-2.44 6.52-6.16 0-1.76-.56-3.12-1.68-4.04-.96-.84-1.76-1.16-4.2-1.68l-2-.44c-2.2-.48-2.2-.48-2.92-.88-.88-.4-1.4-1.24-1.4-2.12 0-1.64 1.52-2.76 3.72-2.76 1.52 0 2.76.52 3.88 1.6.88.88 1.32 1.68 1.96 3.52h1.4v-6.72m29.625 0h-1.4l-1.16 1.44c-1.44-1.12-2.88-1.6-4.88-1.6-3.52 0-5.84 2.28-5.84 5.8 0 1.56.52 2.88 1.4 3.68.92.84 1.84 1.24 4.24 1.8l2.12.48c3.16.76 4.28 1.56 4.28 3.16 0 1.88-1.64 3.2-3.96 3.2-3.4 0-5.8-2.16-6.76-6.16h-1.6v7.56h1.4l1.4-1.64c1.64 1.32 3.44 1.96 5.48 1.96 3.92 0 6.52-2.44 6.52-6.16 0-1.76-.56-3.12-1.68-4.04-.96-.84-1.76-1.16-4.2-1.68l-2-.44c-2.2-.48-2.2-.48-2.92-.88-.88-.4-1.4-1.24-1.4-2.12 0-1.64 1.52-2.76 3.72-2.76 1.52 0 2.76.52 3.88 1.6.88.88 1.32 1.68 1.96 3.52h1.4v-6.72m12.996-.16c-4.92 0-8.72 4.36-8.72 9.96 0 5.48 3.84 9.88 8.64 9.88s8.64-4.4 8.64-9.92c0-5.48-3.84-9.92-8.56-9.92m0 1.72c2.8 0 4.36 2.92 4.36 8.2 0 5.32-1.56 8.2-4.44 8.2s-4.44-2.88-4.44-8.16c0-5.44 1.52-8.24 4.52-8.24m17.96-1.12-7.12.44v1.72h1.64c1.52.04 1.72.28 1.72 2v11.44c-.04.6-.08.84-.24 1.04-.28.36-1.04.52-2.76.56h-.16v1.44h10.08v-1.44h-.16c-2.64-.08-3-.28-3-1.76v-7.4c0-3.56 1.96-6.2 4.56-6.2 2.28 0 3.44 1.64 3.44 4.88v8.92c-.04.52-.08.8-.28 1-.24.36-1.04.52-2.76.56h-.16v1.44h10.12v-1.44h-.16c-2.64-.08-3-.28-3-1.72v-7.08c0-4 1.8-6.56 4.6-6.56 2.28 0 3.4 1.72 3.4 5.32v8.44c-.04.56-.08.84-.28 1.04-.24.36-1.04.52-2.76.56h-.16v1.44h10.12v-1.44h-.16c-2.64-.08-3-.28-3-1.76v-9.08c0-2.48-.24-3.32-1.28-4.68-1.16-1.48-2.8-2.28-4.72-2.28-2.6 0-4.52 1.24-6.24 4-.68-2.4-2.84-4-5.52-4-2.44 0-4.2 1.16-5.76 3.68v-3.08m46.11 9.64c.04-6-3.36-10.24-8.24-10.24-5.12 0-8.96 4.44-8.96 10.44 0 5.64 3.64 9.4 9.04 9.4 3.84 0 6.52-1.88 8.16-5.68l-1.4-.76c-1.64 3.08-3.32 4.28-6 4.28-2.04 0-3.52-.84-4.56-2.64-.72-1.2-1.04-2.6-1-4.8h12.96m-12.92-1.72c0-1.24.16-2.12.56-3.24.84-2.4 2.12-3.56 4.08-3.56 2.4 0 4 2.12 4 5.36 0 1.12-.36 1.44-1.64 1.44h-7m21.28-7.92v-7.92h-1.64c-.4 5.2-2.16 7.84-5.4 8.08v1.56h3.28v10.2c0 2.8.08 3.8.48 4.72.64 1.68 2.24 2.6 4.56 2.6 3.6 0 5.92-2.72 5.92-6.96 0-.24 0-.52-.04-.92h-1.68c-.12 3.6-1.16 5.44-3.12 5.44-.92 0-1.72-.48-2-1.16-.24-.56-.36-1.56-.36-3v-10.92h5.88v-1.72h-5.88m15.74-10.84-7.4.44v1.72h1.92c1.52.04 1.72.28 1.72 2v22.32c-.04.56-.08.8-.24 1-.28.36-1.04.52-2.76.56h-.16v1.44h10.12v-1.44h-.16c-2.68-.08-3.04-.28-3.04-1.72v-5.92c0-1.96.28-3.76.72-4.68.88-1.8 2.64-3.04 4.36-3.04 1.04 0 2.24.6 2.8 1.4.64.88.92 2.08.92 4.04v8.36c-.04.56-.08.8-.24 1-.28.36-1.08.52-2.8.56h-.16v1.44h10.12v-1.44h-.16c-2.64-.08-3-.28-3-1.72v-8.04c0-2.88-.12-3.6-.84-4.96-1-1.96-3-3.08-5.4-3.08-2.6 0-4.52 1.16-6.32 3.84v-14.08m24.68 10.84-7.52.44v1.72h2.04c1.52.04 1.72.28 1.72 2v11.44c-.04.6-.08.84-.24 1.04-.28.36-1.04.52-2.76.56h-.28v1.44h10.36v-1.44h-.28c-2.68-.08-3.04-.28-3.04-1.72v-15.48m-1.88-9.96c-1.28 0-2.32 1.04-2.32 2.32s1.04 2.32 2.28 2.32c1.32 0 2.36-1.04 2.36-2.32s-1.04-2.32-2.32-2.32m14.23 9.96-6.92.44v1.72h1.44c1.52.04 1.72.28 1.72 2v11.44c-.04.6-.08.84-.24 1.04-.28.36-1.04.52-2.76.56h-.16v1.44h10.12v-1.44h-.16c-2.68-.08-3.04-.28-3.04-1.72v-5.92c0-1.96.28-3.76.72-4.68.84-1.8 2.64-3.04 4.36-3.04 1.04 0 2.24.56 2.84 1.4.6.88.88 2.08.88 4v8.36c-.04.6-.08.84-.24 1.04-.28.36-1.08.52-2.8.56h-.16v1.44h10.12v-1.44h-.16c-2.64-.08-3-.28-3-1.72v-8.04c0-2.88-.12-3.6-.84-4.96-1-1.92-3-3.08-5.4-3.08-2.6 0-4.56 1.2-6.32 3.84v-3.24m24.15 15.68c-2.2-.04-2.32-.08-2.8-.36-.28-.16-.48-.6-.48-1.04 0-1.2 1.08-1.72 3.76-1.8 3.76-.08 4.36-.16 5.72-.76 2.4-1.08 3.72-3.16 3.72-5.8 0-1.6-.36-2.6-1.44-3.92.68-.72 1.04-.96 1.36-.96.2 0 .32.12.4.56.16.96.8 1.48 1.8 1.48 1.04 0 1.8-.84 1.8-1.92 0-1.36-1.08-2.32-2.64-2.32-1.28 0-2 .4-3.84 2.08-1.68-1.12-2.96-1.52-4.96-1.52-4.76 0-7.88 2.64-7.88 6.64 0 2.36 1.28 4.36 3.36 5.36-2.68.6-3.8 1.8-3.8 4 0 1.76.8 2.8 2.68 3.44-2.48.92-3.68 2.16-3.68 3.8 0 1.2.8 2.32 2.08 3 1.56.8 3.48 1.12 6.36 1.12 6.68 0 10-2.12 10-6.32 0-2-.92-3.6-2.36-4.2-1.08-.4-2.36-.56-5.08-.56h-4.08m2.36-14.56c2.48 0 3.88 1.72 3.88 4.84s-1.52 5-4.04 5c-2.48 0-4.04-1.88-4.04-4.88 0-3.16 1.52-4.96 4.2-4.96m-.36 18c3.32 0 3.56 0 4.12.08 1.64.16 2.6 1.04 2.6 2.32 0 2.28-2.6 3.6-7.04 3.6-3.4 0-5.28-1-5.28-2.8 0-1.32.72-2.2 2.64-3.2h2.96m30.5-19.12v-7.92h-1.64c-.4 5.2-2.16 7.84-5.4 8.08v1.56h3.28v10.2c0 2.8.08 3.8.48 4.72.64 1.68 2.24 2.6 4.56 2.6 3.6 0 5.92-2.72 5.92-6.96 0-.24 0-.52-.04-.92h-1.68c-.12 3.6-1.16 5.44-3.12 5.44-.92 0-1.72-.48-2-1.16-.24-.56-.36-1.56-.36-3v-10.92h5.88v-1.72h-5.88m15.74-10.84-7.4.44v1.72h1.92c1.52.04 1.72.28 1.72 2v22.32c-.04.56-.08.8-.24 1-.28.36-1.04.52-2.76.56h-.16v1.44h10.12v-1.44h-.16c-2.68-.08-3.04-.28-3.04-1.72v-5.92c0-1.96.28-3.76.72-4.68.88-1.8 2.64-3.04 4.36-3.04 1.04 0 2.24.6 2.8 1.4.64.88.92 2.08.92 4.04v8.36c-.04.56-.08.8-.24 1-.28.36-1.08.52-2.8.56h-.16v1.44h10.12v-1.44h-.16c-2.64-.08-3-.28-3-1.72v-8.04c0-2.88-.12-3.6-.84-4.96-1-1.96-3-3.08-5.4-3.08-2.6 0-4.52 1.16-6.32 3.84v-14.08m34.52 16.6c0-2.52-.44-3.8-1.6-4.76-1.32-1.08-3.28-1.6-5.84-1.6-4.52 0-7.8 2.12-7.8 5.04 0 1.48.92 2.44 2.32 2.44 1.28 0 2.16-.84 2.16-2.04 0-.52-.2-1.08-.6-1.64-.24-.28-.28-.36-.28-.56 0-.8 1.6-1.52 3.52-1.52 1.28 0 2.68.4 3.32 1 .76.64 1.04 1.6 1.04 3.4v1.56c-4.16.72-5.48 1.04-7.44 1.8-3.48 1.28-5.12 3.12-5.12 5.68 0 2.88 2.24 4.68 5.8 4.68 2.76 0 5.24-1.12 6.96-3.16.64 2.04 1.64 2.84 3.52 2.84 1.8 0 3.68-1.16 3.68-2.32 0-.28-.16-.48-.4-.48-.16 0-.32.04-.6.16-.56.24-.8.28-1.12.28-1.12 0-1.52-.72-1.52-2.76v-8.04m-3.76 4.88c0 2.4-.12 2.96-.8 4-1 1.48-2.8 2.48-4.56 2.48-1.84 0-3.16-1.32-3.16-3.12 0-1.68.84-2.88 2.6-3.72 1.24-.56 2.8-.96 5.92-1.48v1.84m14.63-10.64v-7.92h-1.64c-.4 5.2-2.16 7.84-5.4 8.08v1.56h3.28v10.2c0 2.8.08 3.8.48 4.72.64 1.68 2.24 2.6 4.56 2.6 3.6 0 5.92-2.72 5.92-6.96 0-.24 0-.52-.04-.92h-1.68c-.12 3.6-1.16 5.44-3.12 5.44-.92 0-1.72-.48-2-1.16-.24-.56-.36-1.56-.36-3v-10.92h5.88v-1.72h-5.88m9.79.64c1.48-1.08 2.36-1.76 2.64-2 1.56-1.4 2.6-3.72 2.6-5.84 0-2.24-1.36-3.8-3.28-3.8-1.48 0-2.6 1.04-2.6 2.4 0 1.48 1.04 2.36 2.88 2.36.24 0 .32 0 .48-.04h.12c.2 0 .28.12.28.32 0 1.92-1.36 3.8-4.04 5.48l.92 1.12m21.64-1.08h-1.4l-1.16 1.44c-1.44-1.12-2.88-1.6-4.88-1.6-3.52 0-5.84 2.28-5.84 5.8 0 1.56.52 2.88 1.4 3.68.92.84 1.84 1.24 4.24 1.8l2.12.48c3.16.76 4.28 1.56 4.28 3.16 0 1.88-1.64 3.2-3.96 3.2-3.4 0-5.8-2.16-6.76-6.16h-1.6v7.56h1.4l1.4-1.64c1.64 1.32 3.44 1.96 5.48 1.96 3.92 0 6.52-2.44 6.52-6.16 0-1.76-.56-3.12-1.68-4.04-.96-.84-1.76-1.16-4.2-1.68l-2-.44c-2.2-.48-2.2-.48-2.92-.88-.88-.4-1.4-1.24-1.4-2.12 0-1.64 1.52-2.76 3.72-2.76 1.52 0 2.76.52 3.88 1.6.88.88 1.32 1.68 1.96 3.52h1.4v-6.72"/>
 <path class="Lyrics" d="m965.68 191.22-6.92.44v1.72h1.44c1.52.04 1.72.28 1.72 2v11.44c-.04.6-.08.84-.24 1.04-.28.36-1.04.52-2.76.56h-.16v1.44h10.12v-1.44h-.16c-2.68-.08-3.04-.28-3.04-1.72v-5.92c0-1.96.28-3.76.72-4.68.84-1.8 2.64-3.04 4.36-3.04 1.04 0 2.24.56 2.84 1.4.6.88.88 2.08.88 4v8.36c-.04.6-.08.84-.24 1.04-.28.36-1.08.52-2.8.56h-.16v1.44h10.12v-1.44h-.16c-2.64-.08-3-.28-3-1.72v-8.04c0-2.88-.12-3.6-.84-4.96-1-1.92-3-3.08-5.4-3.08-2.6 0-4.56 1.2-6.32 3.84v-3.24m35.04 9.64c.04-6-3.36-10.24-8.24-10.24-5.12 0-8.96 4.44-8.96 10.44 0 5.64 3.64 9.4 9.04 9.4 3.84 0 6.52-1.88 8.16-5.68l-1.4-.76c-1.64 3.08-3.32 4.28-6 4.28-2.04 0-3.52-.84-4.56-2.64-.72-1.2-1.04-2.6-1-4.8h12.96m-12.92-1.72c0-1.24.16-2.12.56-3.24.84-2.4 2.12-3.56 4.08-3.56 2.4 0 4 2.12 4 5.36 0 1.12-.36 1.44-1.64 1.44h-7m35.28 5.56-3.92-10.28c-.12-.28-.16-.52-.16-.84 0-.72.36-.92 1.68-.92h.96v-1.44h-8.96v1.44h.68c1.28.04 1.8.36 2.12 1.48l.32 1.04-3.52 9.32-3.88-10.04c-.08-.28-.16-.64-.16-.88 0-.68.44-.92 1.64-.92h.72v-1.44h-8.8v1.44h.72c1.12.04 1.64.52 2.08 1.96l6 15.84h1.4l4.76-12.64 4.88 12.64h1.24l5.6-14.76c.88-2.36 1.48-3 2.96-3.04h.28v-1.44h-7.56v1.44h.68c1.4 0 1.96.4 1.96 1.48 0 .4-.12.92-.32 1.44l-3.4 9.12m9.91 12.52c3.6-2.48 5.24-4.92 5.24-7.72 0-2.4-1.32-3.96-3.28-3.96-1.48 0-2.6 1.04-2.6 2.4 0 1.44 1.08 2.36 2.76 2.36.2 0 .48 0 .6-.04h.12c.2 0 .28.12.28.36 0 1.68-1.36 3.56-4.04 5.44l.92 1.16"/>
 <path class="Lyrics" d="m1121.6 191.22v-7.92h-1.64c-.4 5.2-2.16 7.84-5.4 8.08v1.56h3.28v10.2c0 2.8.08 3.8.48 4.72.64 1.68 2.24 2.6 4.56 2.6 3.6 0 5.92-2.72 5.92-6.96 0-.24 0-.52-.04-.92h-1.68c-.12 3.6-1.16 5.44-3.12 5.44-.92 0-1.72-.48-2-1.16-.24-.56-.36-1.56-.36-3v-10.92h5.88v-1.72h-5.88m15.74-10.84-7.4.44v1.72h1.92c1.52.04 1.72.28 1.72 2v22.32c-.04.56-.08.8-.24 1-.28.36-1.04.52-2.76.56h-.16v1.44h10.12v-1.44h-.16c-2.68-.08-3.04-.28-3.04-1.72v-5.92c0-1.96.28-3.76.72-4.68.88-1.8 2.64-3.04 4.36-3.04 1.04 0 2.24.6 2.8 1.4.64.88.92 2.08.92 4.04v8.36c-.04.56-.08.8-.24 1-.28.36-1.08.52-2.8.56h-.16v1.44h10.12v-1.44h-.16c-2.64-.08-3-.28-3-1.72v-8.04c0-2.88-.12-3.6-.84-4.96-1-1.96-3-3.08-5.4-3.08-2.6 0-4.52 1.16-6.32 3.84v-14.08m34.52 16.6c0-2.52-.44-3.8-1.6-4.76-1.32-1.08-3.28-1.6-5.84-1.6-4.52 0-7.8 2.12-7.8 5.04 0 1.48.92 2.44 2.32 2.44 1.28 0 2.16-.84 2.16-2.04 0-.52-.2-1.08-.6-1.64-.24-.28-.28-.36-.28-.56 0-.8 1.6-1.52 3.52-1.52 1.28 0 2.68.4 3.32 1 .76.64 1.04 1.6 1.04 3.4v1.56c-4.16.72-5.48 1.04-7.44 1.8-3.48 1.28-5.12 3.12-5.12 5.68 0 2.88 2.24 4.68 5.8 4.68 2.76 0 5.24-1.12 6.96-3.16.64 2.04 1.64 2.84 3.52 2.84 1.8 0 3.68-1.16 3.68-2.32 0-.28-.16-.48-.4-.48-.16 0-.32.04-.6.16-.56.24-.8.28-1.12.28-1.12 0-1.52-.72-1.52-2.76v-8.04m-3.76 4.88c0 2.4-.12 2.96-.8 4-1 1.48-2.8 2.48-4.56 2.48-1.84 0-3.16-1.32-3.16-3.12 0-1.68.84-2.88 2.6-3.72 1.24-.56 2.8-.96 5.92-1.48v1.84m14.62-10.64v-7.92h-1.64c-.4 5.2-2.16 7.84-5.4 8.08v1.56h3.28v10.2c0 2.8.08 3.8.48 4.72.64 1.68 2.24 2.6 4.56 2.6 3.6 0 5.92-2.72 5.92-6.96 0-.24 0-.52-.04-.92h-1.68c-.12 3.6-1.16 5.44-3.12 5.44-.92 0-1.72-.48-2-1.16-.24-.56-.36-1.56-.36-3v-10.92h5.88v-1.72h-5.88m9.79.64c1.48-1.08 2.36-1.76 2.64-2 1.56-1.4 2.6-3.72 2.6-5.84 0-2.24-1.36-3.8-3.28-3.8-1.48 0-2.6 1.04-2.6 2.4 0 1.48 1.04 2.36 2.88 2.36.24 0 .32 0 .48-.04h.12c.2 0 .28.12.28.32 0 1.92-1.36 3.8-4.04 5.48l.92 1.12m21.65-1.08h-1.4l-1.16 1.44c-1.44-1.12-2.88-1.6-4.88-1.6-3.52 0-5.84 2.28-5.84 5.8 0 1.56.52 2.88 1.4 3.68.92.84 1.84 1.24 4.24 1.8l2.12.48c3.16.76 4.28 1.56 4.28 3.16 0 1.88-1.64 3.2-3.96 3.2-3.4 0-5.8-2.16-6.76-6.16h-1.6v7.56h1.4l1.4-1.64c1.64 1.32 3.44 1.96 5.48 1.96 3.92 0 6.52-2.44 6.52-6.16 0-1.76-.56-3.12-1.68-4.04-.96-.84-1.76-1.16-4.2-1.68l-2-.44c-2.2-.48-2.2-.48-2.92-.88-.88-.4-1.4-1.24-1.4-2.12 0-1.64 1.52-2.76 3.72-2.76 1.52 0 2.76.52 3.88 1.6.88.88 1.32 1.68 1.96 3.52h1.4v-6.72"/>
 <path class="Lyrics" d="m1242.1 191.22-6.92.44v1.72h1.44c1.52.04 1.72.28 1.72 2v11.44c-.04.6-.08.84-.24 1.04-.28.36-1.04.52-2.76.56h-.16v1.44h10.12v-1.44h-.16c-2.68-.08-3.04-.28-3.04-1.72v-5.92c0-1.96.28-3.76.72-4.68.84-1.8 2.64-3.04 4.36-3.04 1.04 0 2.24.56 2.84 1.4.6.88.88 2.08.88 4v8.36c-.04.6-.08.84-.24 1.04-.28.36-1.08.52-2.8.56h-.16v1.44h10.12v-1.44h-.16c-2.64-.08-3-.28-3-1.72v-8.04c0-2.88-.12-3.6-.84-4.96-1-1.92-3-3.08-5.4-3.08-2.6 0-4.56 1.2-6.32 3.84v-3.24m35.04 9.64c.04-6-3.36-10.24-8.24-10.24-5.12 0-8.96 4.44-8.96 10.44 0 5.64 3.64 9.4 9.04 9.4 3.84 0 6.52-1.88 8.16-5.68l-1.4-.76c-1.64 3.08-3.32 4.28-6 4.28-2.04 0-3.52-.84-4.56-2.64-.72-1.2-1.04-2.6-1-4.8h12.96m-12.92-1.72c0-1.24.16-2.12.56-3.24.84-2.4 2.12-3.56 4.08-3.56 2.4 0 4 2.12 4 5.36 0 1.12-.36 1.44-1.64 1.44h-7m35.28 5.56-3.92-10.28c-.12-.28-.16-.52-.16-.84 0-.72.36-.92 1.68-.92h.96v-1.44h-8.96v1.44h.68c1.28.04 1.8.36 2.12 1.48l.32 1.04-3.52 9.32-3.88-10.04c-.08-.28-.16-.64-.16-.88 0-.68.44-.92 1.64-.92h.72v-1.44h-8.8v1.44h.72c1.12.04 1.64.52 2.08 1.96l6 15.84h1.4l4.76-12.64 4.88 12.64h1.24l5.6-14.76c.88-2.36 1.48-3 2.96-3.04h.28v-1.44h-7.56v1.44h.68c1.4 0 1.96.4 1.96 1.48 0 .4-.12.92-.32 1.44l-3.4 9.12"/>
</svg>
