<?xml version="1.0" encoding="utf-8"?>
<svg xmlns="http://www.w3.org/2000/svg" version="1.2" viewBox="0 0 1431 619">
	<title>Two lines of musical notation representing a truncated fragment of melody.</title>
	<polyline class="StaffLines" fill="none" points="0 66.124 1431 66.124" stroke="#000" stroke-linejoin="bevel" stroke-width="2.73"/>
	<polyline class="StaffLines" fill="none" points="0 90.964 1431 90.964" stroke="#000" stroke-linejoin="bevel" stroke-width="2.73"/>
	<polyline class="StaffLines" fill="none" points="0 115.8 1431 115.8" stroke="#000" stroke-linejoin="bevel" stroke-width="2.73"/>
	<polyline class="StaffLines" fill="none" points="0 140.64 1431 140.64" stroke="#000" stroke-linejoin="bevel" stroke-width="2.73"/>
	<polyline class="StaffLines" fill="none" points="0 165.48 1431 165.48" stroke="#000" stroke-linejoin="bevel" stroke-width="2.73"/>
	<polyline class="StaffLines" fill="none" points="8.4e-6 413.88 1200 413.88" stroke="#000" stroke-linejoin="bevel" stroke-width="2.73"/>
	<polyline class="StaffLines" fill="none" points="8.4e-6 438.61 1200 438.61" stroke="#000" stroke-linejoin="bevel" stroke-width="2.73"/>
	<polyline class="StaffLines" fill="none" points="8.4e-6 463.53 1200 463.53" stroke="#000" stroke-linejoin="bevel" stroke-width="2.73"/>
	<polyline class="StaffLines" fill="none" points="8.4e-6 488.45 1200 488.45" stroke="#000" stroke-linejoin="bevel" stroke-width="2.73"/>
	<polyline class="StaffLines" fill="none" points="8.4e-6 513.36 1200 513.36" stroke="#000" stroke-linejoin="bevel" stroke-width="2.73"/>
	<polyline class="BarLine" fill="none" points="486.89 64.758 486.89 166.85" stroke="#000" stroke-linejoin="bevel" stroke-width="4.47"/>
	<polyline class="BarLine" fill="none" points="836.92 64.758 836.92 166.85" stroke="#000" stroke-linejoin="bevel" stroke-width="4.47"/>
	<polyline class="BarLine" fill="none" points="1428.8 64.758 1428.8 166.85" stroke="#000" stroke-linejoin="bevel" stroke-width="4.47"/>
	<polyline class="BarLine" fill="none" points="378.64 412.52 378.64 514.61" stroke="#000" stroke-linejoin="bevel" stroke-width="4.47"/>
	<polyline class="BarLine" fill="none" points="746.38 412.52 746.38 514.61" stroke="#000" stroke-linejoin="bevel" stroke-width="4.47"/>
	<polyline class="LedgerLine" fill="none" points="727.21 190.32 776.88 190.32" stroke="#000" stroke-linejoin="bevel" stroke-width="3.97"/>
	<polyline class="LedgerLine" fill="none" points="727.21 190.32 776.88 190.32" stroke="#000" stroke-linejoin="bevel" stroke-width="3.97"/>
	<polyline class="LedgerLine" fill="none" points="1043.4 538.08 1093.1 538.08" stroke="#000" stroke-linejoin="bevel" stroke-width="3.97"/>
	<polyline class="LedgerLine" fill="none" points="1043.4 538.08 1093.1 538.08" stroke="#000" stroke-linejoin="bevel" stroke-width="3.97"/>
	<polyline class="Stem" fill="none" points="246.89 131.56 246.89 215.16" stroke="#000" stroke-linejoin="bevel" stroke-width="2.73"/>
	<polyline class="Stem" fill="none" points="312.85 156.4 312.85 221.37" stroke="#000" stroke-linejoin="bevel" stroke-width="2.73"/>
	<polyline class="Stem" fill="none" points="387.76 131.56 387.76 215.16" stroke="#000" stroke-linejoin="bevel" stroke-width="2.73"/>
	<polyline class="Stem" fill="none" points="522.78 156.4 522.78 240" stroke="#000" stroke-linejoin="bevel" stroke-width="2.73"/>
	<polyline class="Stem" fill="none" points="621.57 156.4 621.57 240" stroke="#000" stroke-linejoin="bevel" stroke-width="2.73"/>
	<polyline class="Stem" fill="none" points="686.63 181.24 686.63 258.63" stroke="#000" stroke-linejoin="bevel" stroke-width="2.73"/>
	<polyline class="Stem" fill="none" points="737.27 193.66 737.27 264.84" stroke="#000" stroke-linejoin="bevel" stroke-width="2.73"/>
	<polyline class="Stem" fill="none" points="872.87 156.4 872.87 240" stroke="#000" stroke-linejoin="bevel" stroke-width="2.73"/>
	<polyline class="Stem" fill="none" points="945.9 156.4 945.9 240" stroke="#000" stroke-linejoin="bevel" stroke-width="2.73"/>
	<polyline class="Stem" fill="none" points="1018.9 156.4 1018.9 240" stroke="#000" stroke-linejoin="bevel" stroke-width="2.73"/>
	<polyline class="Stem" fill="none" points="1092 156.4 1092 240" stroke="#000" stroke-linejoin="bevel" stroke-width="2.73"/>
	<polyline class="Stem" fill="none" points="1194.5 149.88 1194.5 66.124" stroke="#000" stroke-linejoin="bevel" stroke-width="2.73"/>
	<polyline class="Stem" fill="none" points="1267.6 125.04 1267.6 41.284" stroke="#000" stroke-linejoin="bevel" stroke-width="2.73"/>
	<polyline class="Stem" fill="none" points="1340.6 125.04 1340.6 47.494" stroke="#000" stroke-linejoin="bevel" stroke-width="2.73"/>
	<polyline class="Stem" fill="none" points="221.47 472.8 221.47 395.25" stroke="#000" stroke-linejoin="bevel" stroke-width="2.73"/>
	<polyline class="Stem" fill="none" points="414.54 454.48 414.54 538.08" stroke="#000" stroke-linejoin="bevel" stroke-width="2.73"/>
	<polyline class="Stem" fill="none" points="504.04 479.32 504.04 550.5" stroke="#000" stroke-linejoin="bevel" stroke-width="2.73"/>
	<polyline class="Stem" fill="none" points="647.26 454.48 647.26 538.08" stroke="#000" stroke-linejoin="bevel" stroke-width="2.73"/>
	<polyline class="Stem" fill="none" points="782.28 504.16 782.28 587.76" stroke="#000" stroke-linejoin="bevel" stroke-width="2.73"/>
	<polyline class="Stem" fill="none" points="916.19 504.16 916.19 587.76" stroke="#000" stroke-linejoin="bevel" stroke-width="2.73"/>
	<polyline class="Stem" fill="none" points="984.83 529 984.83 606.39" stroke="#000" stroke-linejoin="bevel" stroke-width="2.73"/>
	<polyline class="Stem" fill="none" points="1053.5 541.42 1053.5 612.6" stroke="#000" stroke-linejoin="bevel" stroke-width="2.73"/>
	<polyline class="Stem" fill="none" points="276.44 125.04 276.44 47.494" stroke="#000" stroke-linejoin="bevel" stroke-width="2.73"/>
	<polyline class="Stem" fill="none" points="342.4 149.88 342.4 66.124" stroke="#000" stroke-linejoin="bevel" stroke-width="2.73"/>
	<polyline class="Stem" fill="none" points="417.31 125.04 417.31 47.494" stroke="#000" stroke-linejoin="bevel" stroke-width="2.73"/>
	<polyline class="Stem" fill="none" points="552.34 149.88 552.34 66.124" stroke="#000" stroke-linejoin="bevel" stroke-width="2.73"/>
	<polyline class="Stem" fill="none" points="651.12 149.88 651.12 66.124" stroke="#000" stroke-linejoin="bevel" stroke-width="2.73"/>
	<polyline class="Stem" fill="none" points="716.19 174.72 716.19 90.964" stroke="#000" stroke-linejoin="bevel" stroke-width="2.73"/>
	<polyline class="Stem" fill="none" points="766.82 187.14 766.82 97.174" stroke="#000" stroke-linejoin="bevel" stroke-width="2.73"/>
	<polyline class="Stem" fill="none" points="902.42 149.88 902.42 66.124" stroke="#000" stroke-linejoin="bevel" stroke-width="2.73"/>
	<polyline class="Stem" fill="none" points="975.45 149.88 975.45 66.124" stroke="#000" stroke-linejoin="bevel" stroke-width="2.73"/>
	<polyline class="Stem" fill="none" points="1048.5 149.88 1048.5 66.124" stroke="#000" stroke-linejoin="bevel" stroke-width="2.73"/>
	<polyline class="Stem" fill="none" points="1121.5 149.88 1121.5 66.124" stroke="#000" stroke-linejoin="bevel" stroke-width="2.73"/>
	<polyline class="Stem" fill="none" points="1194.5 125.04 1194.5 41.284" stroke="#000" stroke-linejoin="bevel" stroke-width="2.73"/>
	<polyline class="Stem" fill="none" points="1267.6 100.2 1267.6 16.444" stroke="#000" stroke-linejoin="bevel" stroke-width="2.73"/>
	<polyline class="Stem" fill="none" points="1340.6 100.2 1340.6 28.864" stroke="#000" stroke-linejoin="bevel" stroke-width="2.73"/>
	<polyline class="Stem" fill="none" points="221.47 447.96 221.47 376.62" stroke="#000" stroke-linejoin="bevel" stroke-width="2.73"/>
	<polyline class="Stem" fill="none" points="444.09 447.96 444.09 376.62" stroke="#000" stroke-linejoin="bevel" stroke-width="2.73"/>
	<polyline class="Stem" fill="none" points="533.6 472.8 533.6 395.25" stroke="#000" stroke-linejoin="bevel" stroke-width="2.73"/>
	<polyline class="Stem" fill="none" points="676.81 447.96 676.81 376.62" stroke="#000" stroke-linejoin="bevel" stroke-width="2.73"/>
	<polyline class="Stem" fill="none" points="811.83 497.64 811.83 413.88" stroke="#000" stroke-linejoin="bevel" stroke-width="2.73"/>
	<polyline class="Stem" fill="none" points="945.74 497.64 945.74 413.88" stroke="#000" stroke-linejoin="bevel" stroke-width="2.73"/>
	<polyline class="Stem" fill="none" points="1014.4 522.48 1014.4 438.72" stroke="#000" stroke-linejoin="bevel" stroke-width="2.73"/>
	<polyline class="Stem" fill="none" points="1083 534.9 1083 444.93" stroke="#000" stroke-linejoin="bevel" stroke-width="2.73"/>
	<path class="Note" d="m276.82 120.18c-1.7885-3.2789-5.5642-5.0674-10.135-5.0674-3.3782 0-7.0546.9936-10.632 2.8814-6.5578 3.4776-10.532 9.3398-10.532 14.407 0 1.391.29808 2.7821.9936 4.0738 1.7885 3.2789 5.5642 4.968 10.135 4.968 3.3782 0 7.0546-.89424 10.632-2.7821 6.5578-3.4776 10.532-9.3398 10.532-14.407 0-1.391-.29808-2.7821-.9936-4.0738" stroke-width=".9936"/>
	<path class="Note" d="m342.78 145.02c-1.7885-3.2789-5.5642-5.0674-10.135-5.0674-3.3782 0-7.0546.9936-10.632 2.8814-6.5578 3.4776-10.532 9.3398-10.532 14.407 0 1.391.29808 2.7821.9936 4.0738 1.7885 3.2789 5.5642 4.968 10.135 4.968 3.3782 0 7.0546-.89424 10.632-2.7821 6.5578-3.4776 10.532-9.3398 10.532-14.407 0-1.391-.29808-2.7821-.9936-4.0738" stroke-width=".9936"/>
	<path class="Note" d="m417.7 120.18c-1.7885-3.2789-5.5642-5.0674-10.135-5.0674-3.3782 0-7.0546.9936-10.632 2.8814-6.5578 3.4776-10.532 9.3398-10.532 14.407 0 1.391.29808 2.7821.9936 4.0738 1.7885 3.2789 5.5642 4.968 10.135 4.968 3.3782 0 7.0546-.89424 10.632-2.7821 6.5578-3.4776 10.532-9.3398 10.532-14.407 0-1.391-.29808-2.7821-.9936-4.0738" stroke-width=".9936"/>
	<path class="Note" d="m552.72 145.02c-1.7885-3.2789-5.5642-5.0674-10.135-5.0674-3.3782 0-7.0546.9936-10.632 2.8814-6.5578 3.4776-10.532 9.3398-10.532 14.407 0 1.391.29808 2.7821.9936 4.0738 1.7885 3.2789 5.5642 4.968 10.135 4.968 3.3782 0 7.0546-.89424 10.632-2.7821 6.5578-3.4776 10.532-9.3398 10.532-14.407 0-1.391-.29808-2.7821-.9936-4.0738" stroke-width=".9936"/>
	<path class="Note" d="m651.5 145.02c-1.7885-3.2789-5.5642-5.0674-10.135-5.0674-3.3782 0-7.0546.9936-10.632 2.8814-6.5578 3.4776-10.532 9.3398-10.532 14.407 0 1.391.29808 2.7821.9936 4.0738 1.7885 3.2789 5.5642 4.968 10.135 4.968 3.3782 0 7.0546-.89424 10.632-2.7821 6.5578-3.4776 10.532-9.3398 10.532-14.407 0-1.391-.29808-2.7821-.9936-4.0738" stroke-width=".9936"/>
	<path class="Note" d="m716.57 169.86c-1.7885-3.2789-5.5642-5.0674-10.135-5.0674-3.3782 0-7.0546.9936-10.632 2.8814-6.5578 3.4776-10.532 9.3398-10.532 14.407 0 1.391.29808 2.7821.9936 4.0738 1.7885 3.2789 5.5642 4.968 10.135 4.968 3.3782 0 7.0546-.89424 10.632-2.7821 6.5578-3.4776 10.532-9.3398 10.532-14.407 0-1.391-.29808-2.7821-.9936-4.0738" stroke-width=".9936"/>
	<path class="Note" d="m767.2 182.28c-1.7885-3.2789-5.5642-5.0674-10.135-5.0674-3.3782 0-7.0546.9936-10.632 2.8814-6.5578 3.4776-10.532 9.3398-10.532 14.407 0 1.391.29808 2.7821.9936 4.0738 1.7885 3.2789 5.5642 4.968 10.135 4.968 3.3782 0 7.0546-.89424 10.632-2.7821 6.5578-3.4776 10.532-9.3398 10.532-14.407 0-1.391-.29808-2.7821-.9936-4.0738" stroke-width=".9936"/>
	<path class="Note" d="m902.8 145.02c-1.7885-3.2789-5.5642-5.0674-10.135-5.0674-3.3782 0-7.0546.9936-10.632 2.8814-6.5578 3.4776-10.532 9.3398-10.532 14.407 0 1.391.29808 2.7821.9936 4.0738 1.7885 3.2789 5.5642 4.968 10.135 4.968 3.3782 0 7.0546-.89424 10.632-2.7821 6.5578-3.4776 10.532-9.3398 10.532-14.407 0-1.391-.29808-2.7821-.9936-4.0738" stroke-width=".9936"/>
	<path class="Note" d="m975.83 145.02c-1.7885-3.2789-5.5642-5.0674-10.135-5.0674-3.3782 0-7.0546.9936-10.632 2.8814-6.5578 3.4776-10.532 9.3398-10.532 14.407 0 1.391.29808 2.7821.9936 4.0738 1.7885 3.2789 5.5642 4.968 10.135 4.968 3.3782 0 7.0546-.89424 10.632-2.7821 6.5578-3.4776 10.532-9.3398 10.532-14.407 0-1.391-.29808-2.7821-.9936-4.0738" stroke-width=".9936"/>
	<path class="Note" d="m1048.9 145.02c-1.7885-3.2789-5.5642-5.0674-10.135-5.0674-3.3783 0-7.0546.9936-10.632 2.8814-6.5578 3.4776-10.532 9.3398-10.532 14.407 0 1.391.2981 2.7821.9936 4.0738 1.7885 3.2789 5.5642 4.968 10.135 4.968 3.3783 0 7.0546-.89424 10.632-2.7821 6.5578-3.4776 10.532-9.3398 10.532-14.407 0-1.391-.2981-2.7821-.9936-4.0738" stroke-width=".9936"/>
	<path class="Note" d="m1121.9 145.02c-1.7885-3.2789-5.5642-5.0674-10.135-5.0674-3.3783 0-7.0546.9936-10.632 2.8814-6.5578 3.4776-10.532 9.3398-10.532 14.407 0 1.391.2981 2.7821.9936 4.0738 1.7885 3.2789 5.5642 4.968 10.135 4.968 3.3783 0 7.0546-.89424 10.632-2.7821 6.5578-3.4776 10.532-9.3398 10.532-14.407 0-1.391-.2981-2.7821-.9936-4.0738" stroke-width=".9936"/>
	<path class="Note" d="m1194.9 145.02c-1.7885-3.2789-5.5642-5.0674-10.135-5.0674-3.3783 0-7.0546.9936-10.632 2.8814-6.5578 3.4776-10.532 9.3398-10.532 14.407 0 1.391.2981 2.7821.9936 4.0738 1.7885 3.2789 5.5642 4.968 10.135 4.968 3.3783 0 7.0546-.89424 10.632-2.7821 6.5578-3.4776 10.532-9.3398 10.532-14.407 0-1.391-.2981-2.7821-.9936-4.0738" stroke-width=".9936"/>
	<path class="Note" d="m1267.9 120.18c-1.7885-3.2789-5.5642-5.0674-10.135-5.0674-3.3783 0-7.0546.9936-10.632 2.8814-6.5578 3.4776-10.532 9.3398-10.532 14.407 0 1.391.2981 2.7821.9936 4.0738 1.7885 3.2789 5.5642 4.968 10.135 4.968 3.3783 0 7.0546-.89424 10.632-2.7821 6.5578-3.4776 10.532-9.3398 10.532-14.407 0-1.391-.2981-2.7821-.9936-4.0738" stroke-width=".9936"/>
	<path class="Note" d="m1341 120.18c-1.7885-3.2789-5.5642-5.0674-10.135-5.0674-3.3783 0-7.0546.9936-10.632 2.8814-6.5578 3.4776-10.532 9.3398-10.532 14.407 0 1.391.2981 2.7821.9936 4.0738 1.7885 3.2789 5.5642 4.968 10.135 4.968 3.3783 0 7.0546-.89424 10.632-2.7821 6.5578-3.4776 10.532-9.3398 10.532-14.407 0-1.391-.2981-2.7821-.9936-4.0738" stroke-width=".9936"/>
	<path class="Note" d="m221.85 467.94c-1.7885-3.2789-5.5642-5.0674-10.135-5.0674-3.3782 0-7.0546.9936-10.632 2.8814-6.5578 3.4776-10.532 9.3398-10.532 14.407 0 1.391.29808 2.7821.9936 4.0738 1.7885 3.2789 5.5642 4.968 10.135 4.968 3.3782 0 7.0546-.89424 10.632-2.7821 6.5578-3.4776 10.532-9.3398 10.532-14.407 0-1.391-.29808-2.7821-.9936-4.0738m-4.2725 6.7565c-1.6891 1.6891-5.0674 3.7757-8.6443 5.7629s-7.1539 3.4776-9.5386 3.9744c-.4968.0994-.9936.19872-1.4904.19872-1.5898 0-2.7821-.59616-3.4776-1.8878-.29808-.4968-.4968-1.093-.4968-1.6891 0-1.093.69552-2.3846 1.7885-3.4776 1.6891-1.6891 4.968-3.7757 8.545-5.7629s7.1539-3.4776 9.5386-3.9744c.4968-.0994.9936-.19872 1.4904-.19872 1.5898 0 2.8814.59616 3.577 1.8878.29808.4968.39744 1.093.39744 1.6891 0 1.093-.59616 2.2853-1.6891 3.4776" stroke-width=".9936"/>
	<path class="Note" d="m444.47 443.1c-1.7885-3.2789-5.5642-5.0674-10.135-5.0674-3.3782 0-7.0546.9936-10.632 2.8814-6.5578 3.4776-10.532 9.3398-10.532 14.407 0 1.391.29808 2.7821.9936 4.0738 1.7885 3.2789 5.5642 4.968 10.135 4.968 3.3782 0 7.0546-.89424 10.632-2.7821 6.5578-3.4776 10.532-9.3398 10.532-14.407 0-1.391-.29808-2.7821-.9936-4.0738" stroke-width=".9936"/>
	<path class="Note" d="m533.98 467.94c-1.7885-3.2789-5.5642-5.0674-10.135-5.0674-3.3782 0-7.0546.9936-10.632 2.8814-6.5578 3.4776-10.532 9.3398-10.532 14.407 0 1.391.29808 2.7821.9936 4.0738 1.7885 3.2789 5.5642 4.968 10.135 4.968 3.3782 0 7.0546-.89424 10.632-2.7821 6.5578-3.4776 10.532-9.3398 10.532-14.407 0-1.391-.29808-2.7821-.9936-4.0738" stroke-width=".9936"/>
	<path class="Note" d="m677.19 443.1c-1.7885-3.2789-5.5642-5.0674-10.135-5.0674-3.3782 0-7.0546.9936-10.632 2.8814-6.5578 3.4776-10.532 9.3398-10.532 14.407 0 1.391.29808 2.7821.9936 4.0738 1.7885 3.2789 5.5642 4.968 10.135 4.968 3.3782 0 7.0546-.89424 10.632-2.7821 6.5578-3.4776 10.532-9.3398 10.532-14.407 0-1.391-.29808-2.7821-.9936-4.0738" stroke-width=".9936"/>
	<path class="Note" d="m812.21 492.78c-1.7885-3.2789-5.5642-5.0674-10.135-5.0674-3.3782 0-7.0546.9936-10.632 2.8814-6.5578 3.4776-10.532 9.3398-10.532 14.407 0 1.391.29808 2.7821.9936 4.0738 1.7885 3.2789 5.5642 4.968 10.135 4.968 3.3782 0 7.0546-.89424 10.632-2.7821 6.5578-3.4776 10.532-9.3398 10.532-14.407 0-1.391-.29808-2.7821-.9936-4.0738" stroke-width=".9936"/>
	<path class="Note" d="m946.13 492.78c-1.7885-3.2789-5.5642-5.0674-10.135-5.0674-3.3782 0-7.0546.9936-10.632 2.8814-6.5578 3.4776-10.532 9.3398-10.532 14.407 0 1.391.29808 2.7821.9936 4.0738 1.7885 3.2789 5.5642 4.968 10.135 4.968 3.3782 0 7.0546-.89424 10.632-2.7821 6.5578-3.4776 10.532-9.3398 10.532-14.407 0-1.391-.29808-2.7821-.9936-4.0738" stroke-width=".9936"/>
	<path class="Note" d="m1014.8 517.62c-1.7885-3.2789-5.5642-5.0674-10.135-5.0674-3.3783 0-7.0546.9936-10.632 2.8814-6.5578 3.4776-10.532 9.3398-10.532 14.407 0 1.391.29808 2.7821.9936 4.0738 1.7885 3.2789 5.5642 4.968 10.135 4.968 3.3782 0 7.0546-.89424 10.631-2.7821 6.5578-3.4776 10.532-9.3398 10.532-14.407 0-1.391-.2981-2.7821-.9936-4.0738" stroke-width=".9936"/>
	<path class="Note" d="m1083.4 530.04c-1.7885-3.2789-5.5642-5.0674-10.135-5.0674-3.3783 0-7.0546.9936-10.632 2.8814-6.5578 3.4776-10.532 9.3398-10.532 14.407 0 1.391.2981 2.7821.9936 4.0738 1.7885 3.2789 5.5642 4.968 10.135 4.968 3.3783 0 7.0546-.89424 10.632-2.7821 6.5578-3.4776 10.532-9.3398 10.532-14.407 0-1.391-.2981-2.7821-.9936-4.0738" stroke-width=".9936"/>
	<path class="Note" d="m276.82 120.18c-1.7885-3.2789-5.5642-5.0674-10.135-5.0674-3.3782 0-7.0546.9936-10.632 2.8814-6.5578 3.4776-10.532 9.3398-10.532 14.407 0 1.391.29808 2.7821.9936 4.0738 1.7885 3.2789 5.5642 4.968 10.135 4.968 3.3782 0 7.0546-.89424 10.632-2.7821 6.5578-3.4776 10.532-9.3398 10.532-14.407 0-1.391-.29808-2.7821-.9936-4.0738" stroke-width=".9936"/>
	<path class="Note" d="m342.78 145.02c-1.7885-3.2789-5.5642-5.0674-10.135-5.0674-3.3782 0-7.0546.9936-10.632 2.8814-6.5578 3.4776-10.532 9.3398-10.532 14.407 0 1.391.29808 2.7821.9936 4.0738 1.7885 3.2789 5.5642 4.968 10.135 4.968 3.3782 0 7.0546-.89424 10.632-2.7821 6.5578-3.4776 10.532-9.3398 10.532-14.407 0-1.391-.29808-2.7821-.9936-4.0738" stroke-width=".9936"/>
	<path class="Note" d="m417.7 120.18c-1.7885-3.2789-5.5642-5.0674-10.135-5.0674-3.3782 0-7.0546.9936-10.632 2.8814-6.5578 3.4776-10.532 9.3398-10.532 14.407 0 1.391.29808 2.7821.9936 4.0738 1.7885 3.2789 5.5642 4.968 10.135 4.968 3.3782 0 7.0546-.89424 10.632-2.7821 6.5578-3.4776 10.532-9.3398 10.532-14.407 0-1.391-.29808-2.7821-.9936-4.0738" stroke-width=".9936"/>
	<path class="Note" d="m552.72 145.02c-1.7885-3.2789-5.5642-5.0674-10.135-5.0674-3.3782 0-7.0546.9936-10.632 2.8814-6.5578 3.4776-10.532 9.3398-10.532 14.407 0 1.391.29808 2.7821.9936 4.0738 1.7885 3.2789 5.5642 4.968 10.135 4.968 3.3782 0 7.0546-.89424 10.632-2.7821 6.5578-3.4776 10.532-9.3398 10.532-14.407 0-1.391-.29808-2.7821-.9936-4.0738" stroke-width=".9936"/>
	<path class="Note" d="m651.5 145.02c-1.7885-3.2789-5.5642-5.0674-10.135-5.0674-3.3782 0-7.0546.9936-10.632 2.8814-6.5578 3.4776-10.532 9.3398-10.532 14.407 0 1.391.29808 2.7821.9936 4.0738 1.7885 3.2789 5.5642 4.968 10.135 4.968 3.3782 0 7.0546-.89424 10.632-2.7821 6.5578-3.4776 10.532-9.3398 10.532-14.407 0-1.391-.29808-2.7821-.9936-4.0738" stroke-width=".9936"/>
	<path class="Note" d="m716.57 169.86c-1.7885-3.2789-5.5642-5.0674-10.135-5.0674-3.3782 0-7.0546.9936-10.632 2.8814-6.5578 3.4776-10.532 9.3398-10.532 14.407 0 1.391.29808 2.7821.9936 4.0738 1.7885 3.2789 5.5642 4.968 10.135 4.968 3.3782 0 7.0546-.89424 10.632-2.7821 6.5578-3.4776 10.532-9.3398 10.532-14.407 0-1.391-.29808-2.7821-.9936-4.0738" stroke-width=".9936"/>
	<path class="Note" d="m767.2 182.28c-1.7885-3.2789-5.5642-5.0674-10.135-5.0674-3.3782 0-7.0546.9936-10.632 2.8814-6.5578 3.4776-10.532 9.3398-10.532 14.407 0 1.391.29808 2.7821.9936 4.0738 1.7885 3.2789 5.5642 4.968 10.135 4.968 3.3782 0 7.0546-.89424 10.632-2.7821 6.5578-3.4776 10.532-9.3398 10.532-14.407 0-1.391-.29808-2.7821-.9936-4.0738" stroke-width=".9936"/>
	<path class="Note" d="m902.8 145.02c-1.7885-3.2789-5.5642-5.0674-10.135-5.0674-3.3782 0-7.0546.9936-10.632 2.8814-6.5578 3.4776-10.532 9.3398-10.532 14.407 0 1.391.29808 2.7821.9936 4.0738 1.7885 3.2789 5.5642 4.968 10.135 4.968 3.3782 0 7.0546-.89424 10.632-2.7821 6.5578-3.4776 10.532-9.3398 10.532-14.407 0-1.391-.29808-2.7821-.9936-4.0738" stroke-width=".9936"/>
	<path class="Note" d="m975.83 145.02c-1.7885-3.2789-5.5642-5.0674-10.135-5.0674-3.3782 0-7.0546.9936-10.632 2.8814-6.5578 3.4776-10.532 9.3398-10.532 14.407 0 1.391.29808 2.7821.9936 4.0738 1.7885 3.2789 5.5642 4.968 10.135 4.968 3.3782 0 7.0546-.89424 10.632-2.7821 6.5578-3.4776 10.532-9.3398 10.532-14.407 0-1.391-.29808-2.7821-.9936-4.0738" stroke-width=".9936"/>
	<path class="Note" d="m1048.9 145.02c-1.7885-3.2789-5.5642-5.0674-10.135-5.0674-3.3783 0-7.0546.9936-10.632 2.8814-6.5578 3.4776-10.532 9.3398-10.532 14.407 0 1.391.2981 2.7821.9936 4.0738 1.7885 3.2789 5.5642 4.968 10.135 4.968 3.3783 0 7.0546-.89424 10.632-2.7821 6.5578-3.4776 10.532-9.3398 10.532-14.407 0-1.391-.2981-2.7821-.9936-4.0738" stroke-width=".9936"/>
	<path class="Note" d="m1121.9 145.02c-1.7885-3.2789-5.5642-5.0674-10.135-5.0674-3.3783 0-7.0546.9936-10.632 2.8814-6.5578 3.4776-10.532 9.3398-10.532 14.407 0 1.391.2981 2.7821.9936 4.0738 1.7885 3.2789 5.5642 4.968 10.135 4.968 3.3783 0 7.0546-.89424 10.632-2.7821 6.5578-3.4776 10.532-9.3398 10.532-14.407 0-1.391-.2981-2.7821-.9936-4.0738" stroke-width=".9936"/>
	<path class="Note" d="m1194.9 120.18c-1.7885-3.2789-5.5642-5.0674-10.135-5.0674-3.3783 0-7.0546.9936-10.632 2.8814-6.5578 3.4776-10.532 9.3398-10.532 14.407 0 1.391.2981 2.7821.9936 4.0738 1.7885 3.2789 5.5642 4.968 10.135 4.968 3.3783 0 7.0546-.89424 10.632-2.7821 6.5578-3.4776 10.532-9.3398 10.532-14.407 0-1.391-.2981-2.7821-.9936-4.0738" stroke-width=".9936"/>
	<path class="Note" d="m1267.9 95.336c-1.7885-3.2789-5.5642-5.0674-10.135-5.0674-3.3783 0-7.0546.9936-10.632 2.8814-6.5578 3.4776-10.532 9.3398-10.532 14.407 0 1.391.2981 2.7821.9936 4.0738 1.7885 3.2789 5.5642 4.968 10.135 4.968 3.3783 0 7.0546-.89424 10.632-2.7821 6.5578-3.4776 10.532-9.3398 10.532-14.407 0-1.391-.2981-2.7821-.9936-4.0738" stroke-width=".9936"/>
	<path class="Note" d="m1341 95.336c-1.7885-3.2789-5.5642-5.0674-10.135-5.0674-3.3783 0-7.0546.9936-10.632 2.8814-6.5578 3.4776-10.532 9.3398-10.532 14.407 0 1.391.2981 2.7821.9936 4.0738 1.7885 3.2789 5.5642 4.968 10.135 4.968 3.3783 0 7.0546-.89424 10.632-2.7821 6.5578-3.4776 10.532-9.3398 10.532-14.407 0-1.391-.2981-2.7821-.9936-4.0738" stroke-width=".9936"/>
	<path class="Note" d="m221.85 443.1c-1.7885-3.2789-5.5642-5.0674-10.135-5.0674-3.3782 0-7.0546.9936-10.632 2.8814-6.5578 3.4776-10.532 9.3398-10.532 14.407 0 1.391.29808 2.7821.9936 4.0738 1.7885 3.2789 5.5642 4.968 10.135 4.968 3.3782 0 7.0546-.89424 10.632-2.7821 6.5578-3.4776 10.532-9.3398 10.532-14.407 0-1.391-.29808-2.7821-.9936-4.0738m-4.2725 6.7565c-1.6891 1.6891-5.0674 3.7757-8.6443 5.7629s-7.1539 3.4776-9.5386 3.9744c-.4968.0994-.9936.19872-1.4904.19872-1.5898 0-2.7821-.59616-3.4776-1.8878-.29808-.4968-.4968-1.093-.4968-1.6891 0-1.093.69552-2.3846 1.7885-3.4776 1.6891-1.6891 4.968-3.7757 8.545-5.7629s7.1539-3.4776 9.5386-3.9744c.4968-.0994.9936-.19872 1.4904-.19872 1.5898 0 2.8814.59616 3.577 1.8878.29808.4968.39744 1.093.39744 1.6891 0 1.093-.59616 2.2853-1.6891 3.4776" stroke-width=".9936"/>
	<path class="Note" d="m444.47 443.1c-1.7885-3.2789-5.5642-5.0674-10.135-5.0674-3.3782 0-7.0546.9936-10.632 2.8814-6.5578 3.4776-10.532 9.3398-10.532 14.407 0 1.391.29808 2.7821.9936 4.0738 1.7885 3.2789 5.5642 4.968 10.135 4.968 3.3782 0 7.0546-.89424 10.632-2.7821 6.5578-3.4776 10.532-9.3398 10.532-14.407 0-1.391-.29808-2.7821-.9936-4.0738" stroke-width=".9936"/>
	<path class="Note" d="m533.98 467.94c-1.7885-3.2789-5.5642-5.0674-10.135-5.0674-3.3782 0-7.0546.9936-10.632 2.8814-6.5578 3.4776-10.532 9.3398-10.532 14.407 0 1.391.29808 2.7821.9936 4.0738 1.7885 3.2789 5.5642 4.968 10.135 4.968 3.3782 0 7.0546-.89424 10.632-2.7821 6.5578-3.4776 10.532-9.3398 10.532-14.407 0-1.391-.29808-2.7821-.9936-4.0738" stroke-width=".9936"/>
	<path class="Note" d="m677.19 443.1c-1.7885-3.2789-5.5642-5.0674-10.135-5.0674-3.3782 0-7.0546.9936-10.632 2.8814-6.5578 3.4776-10.532 9.3398-10.532 14.407 0 1.391.29808 2.7821.9936 4.0738 1.7885 3.2789 5.5642 4.968 10.135 4.968 3.3782 0 7.0546-.89424 10.632-2.7821 6.5578-3.4776 10.532-9.3398 10.532-14.407 0-1.391-.29808-2.7821-.9936-4.0738" stroke-width=".9936"/>
	<path class="Note" d="m812.21 492.78c-1.7885-3.2789-5.5642-5.0674-10.135-5.0674-3.3782 0-7.0546.9936-10.632 2.8814-6.5578 3.4776-10.532 9.3398-10.532 14.407 0 1.391.29808 2.7821.9936 4.0738 1.7885 3.2789 5.5642 4.968 10.135 4.968 3.3782 0 7.0546-.89424 10.632-2.7821 6.5578-3.4776 10.532-9.3398 10.532-14.407 0-1.391-.29808-2.7821-.9936-4.0738" stroke-width=".9936"/>
	<path class="Note" d="m946.13 492.78c-1.7885-3.2789-5.5642-5.0674-10.135-5.0674-3.3782 0-7.0546.9936-10.632 2.8814-6.5578 3.4776-10.532 9.3398-10.532 14.407 0 1.391.29808 2.7821.9936 4.0738 1.7885 3.2789 5.5642 4.968 10.135 4.968 3.3782 0 7.0546-.89424 10.632-2.7821 6.5578-3.4776 10.532-9.3398 10.532-14.407 0-1.391-.29808-2.7821-.9936-4.0738" stroke-width=".9936"/>
	<path class="Note" d="m1014.8 517.62c-1.7885-3.2789-5.5642-5.0674-10.135-5.0674-3.3783 0-7.0546.9936-10.632 2.8814-6.5578 3.4776-10.532 9.3398-10.532 14.407 0 1.391.29808 2.7821.9936 4.0738 1.7885 3.2789 5.5642 4.968 10.135 4.968 3.3782 0 7.0546-.89424 10.631-2.7821 6.5578-3.4776 10.532-9.3398 10.532-14.407 0-1.391-.2981-2.7821-.9936-4.0738" stroke-width=".9936"/>
	<path class="Note" d="m1083.4 530.04c-1.7885-3.2789-5.5642-5.0674-10.135-5.0674-3.3783 0-7.0546.9936-10.632 2.8814-6.5578 3.4776-10.532 9.3398-10.532 14.407 0 1.391.2981 2.7821.9936 4.0738 1.7885 3.2789 5.5642 4.968 10.135 4.968 3.3783 0 7.0546-.89424 10.632-2.7821 6.5578-3.4776 10.532-9.3398 10.532-14.407 0-1.391-.2981-2.7821-.9936-4.0738" stroke-width=".9936"/>
	<path class="Clef" d="m82.817 134.81c-1.2221-5.3953-3.8452-9.1908-4.6202-10.224-3.1696-4.2427-7.1539-7.0744-11.814-8.4158-3.0901-.8842-6.0709-.9936-8.4754-.81475-1.0333-5.9715-2.0269-11.814-2.9311-17.229 5.4151-6.1306 9.012-11.893 11.277-16.166 3.4478-6.5378 4.5904-11.088 4.6401-11.287 1.709-5.1768 2.0667-12.827.97373-20.985-1.0035-7.5017-3.0802-14.169-5.4151-17.398-1.0234-1.4208-2.0667-2.1462-3.1-2.1462-1.2122 0-3.7061 1.2321-6.5776 3.9843-2.2853 2.1859-5.5344 6.051-8.078 12.023-2.9808 7.0149-3.1895 16.444-2.8417 23.121.37757 7.2235 1.4805 12.877 1.4904 12.927.01987.08933.27821 1.5797.72533 4.1333-.22853.22853-.46699.44712-.71539.68568-1.0333.9936-2.2157 2.1262-3.5869 3.4974-.8545.8546-1.7984 1.7587-2.792 2.7225-8.3959 8.088-21.104 20.329-21.104 39.356 0 4.6699.89424 9.0616 2.6628 13.046 1.5799 3.577 3.8651 6.836 6.7764 9.6876 7.6805 7.5017 18.203 10.691 25.218 10.532 2.9311-.0696 5.5443-.30812 7.919-.75524 1.8183 9.5386 2.951 16.524 2.9907 21.829.03974 6.4683-1.5997 10.413-5.4747 13.165-2.4144 1.7189-5.2065 2.6628-8.2866 2.8119-2.5734.11923-4.819-.34776-6.2398-.75503h-.0099s-.28814-.0795-.29808-.27821c-.0099-.17895.33782-.22863.34776-.22863h.01987c1.9077-.43708 5.4549-1.6592 7.7998-4.9381 1.7885-2.5039 2.6529-7.0944.82469-11.009-1.1029-2.3746-3.5968-5.3057-9.1809-5.7528-2.4741-.19872-4.7295.30791-6.7167 1.5002-1.7984 1.0731-3.2888 2.7026-4.3321 4.6898-2.4443 4.6699-1.9872 10.363 1.1228 14.179 2.9411 3.5968 7.5315 5.8919 12.927 6.4682.84456.0895 1.6891.12917 2.5337.12917 4.4016 0 8.7735-1.1923 12.321-3.3882 3.6366-2.5536 5.743-6.5081 6.4187-12.102.55642-4.6104.16891-10.482-1.2221-18.501-.3577-2.0766-.89424-5.0872-1.55-8.8231 5.7132-1.9078 9.8466-5.455 13.592-11.268 3.2689-5.7032 4.2029-11.764 2.7821-18.024m-33.991 26.022c-4.6103-1.2122-9.012-3.6962-12.748-7.1738-1.3016-1.2221-3.1596-3.3782-4.6202-6.7465-1.3612-3.1398-2.017-6.5479-1.9673-10.115.06957-4.66 1.3712-9.4492 3.8651-14.208 2.9013-5.5444 7.4321-11.039 13.453-16.335 1.4407-1.2717 2.802-2.5435 4.0837-3.8154.75514 4.2328 1.5798 8.8927 2.4542 13.742-3.8254 1.2618-8.545 4.3916-11.635 10.005-3.5173 6.528-3.3782 12.013-2.6529 15.47.93398 4.4315 3.4478 8.1674 6.8856 10.244.92405.55631 5.0276 2.6727 6.8558 2.0964.36763-.11923.6359-.33782.77501-.66571.50674-1.1625-.50674-1.7983-2.0568-2.7523-.59616-.36755-1.2619-.78488-1.9872-1.3115-3.2988-2.4741-4.7395-6.8956-3.6763-11.248.57629-2.3846 1.8481-4.5309 3.6763-6.22 1.6593-1.5401 3.6863-2.633 6.051-3.2688 2.0269 11.168 4.0738 22.247 5.7033 30.553.12917.68548.26827 1.3512.39744 2.0169-4.352.92405-8.6741.83473-12.857-.26827m11.248-32.968c10.284-.46699 14.526 6.9255 15.411 11.725.46699 2.5138.45706 6.9254-1.0731 11.108-1.1625 3.1596-3.6068 7.2036-8.7039 9.2505-.06955-.41731-.14904-.84456-.22853-1.2719-1.5301-8.7138-3.4577-19.634-5.4052-30.812m-7.2732-70.486c1.7686-5.7032 4.4911-8.9324 6.4683-10.651 1.7388-1.5103 3.3782-2.2158 4.2924-2.2158.1391 0 .25834.01987.3577.04968.45706.1391.98366.70556 1.4507 1.57 2.2952 4.2624 1.56 10.93.22853 15.341-1.6196 5.3654-4.5209 10.949-13.265 20.498-.16891-1.1029-.32789-2.1462-.47693-3.1198-1.242-8.237-.92405-15.461.94392-21.472" stroke-width=".9936"/>
	<path class="Clef" d="m82.817 482.57c-1.2221-5.3953-3.8452-9.1908-4.6202-10.224-3.1696-4.2427-7.1539-7.0744-11.814-8.4158-3.0901-.8842-6.0709-.9936-8.4754-.81475-1.0333-5.9715-2.0269-11.814-2.9311-17.229 5.4151-6.1306 9.012-11.894 11.277-16.166 3.4478-6.5378 4.5904-11.088 4.6401-11.287 1.709-5.1768 2.0667-12.827.97373-20.985-1.0035-7.5017-3.0802-14.169-5.4151-17.398-1.0234-1.4208-2.0667-2.1462-3.1-2.1462-1.2122 0-3.7061 1.2321-6.5776 3.9843-2.2853 2.1859-5.5344 6.051-8.078 12.023-2.9808 7.0149-3.1895 16.444-2.8417 23.121.37757 7.2235 1.4805 12.877 1.4904 12.927.01987.0893.27821 1.5797.72533 4.1333-.22853.22853-.46699.44712-.71539.68569-1.0333.9936-2.2157 2.1262-3.5869 3.4974-.8545.8546-1.7984 1.7587-2.792 2.7225-8.3959 8.088-21.104 20.329-21.104 39.356 0 4.6699.89424 9.0616 2.6628 13.046 1.5799 3.577 3.8651 6.836 6.7764 9.6876 7.6805 7.5017 18.203 10.691 25.218 10.532 2.9311-.0696 5.5443-.30812 7.919-.75524 1.8183 9.5386 2.951 16.524 2.9907 21.829.03974 6.4683-1.5997 10.413-5.4747 13.165-2.4144 1.7189-5.2065 2.6628-8.2866 2.8119-2.5734.11923-4.819-.34776-6.2398-.75503h-.0099s-.28814-.0795-.29808-.27821c-.0099-.17895.33782-.22863.34776-.22863h.01987c1.9077-.43708 5.4549-1.6592 7.7998-4.9381 1.7885-2.5039 2.6529-7.0944.82469-11.009-1.1029-2.3746-3.5968-5.3057-9.1809-5.7528-2.4741-.19872-4.7295.30791-6.7167 1.5002-1.7984 1.0731-3.2888 2.7026-4.3321 4.6898-2.4443 4.6699-1.9872 10.363 1.1228 14.179 2.9411 3.5968 7.5315 5.8919 12.927 6.4682.84456.0895 1.6891.12917 2.5337.12917 4.4016 0 8.7735-1.1923 12.321-3.3882 3.6366-2.5536 5.743-6.5081 6.4187-12.102.55642-4.6104.16891-10.482-1.2221-18.501-.3577-2.0766-.89424-5.0872-1.55-8.8231 5.7132-1.9078 9.8466-5.455 13.592-11.268 3.2689-5.7032 4.2029-11.764 2.7821-18.024m-33.991 26.022c-4.6103-1.2122-9.012-3.6962-12.748-7.1738-1.3016-1.2221-3.1596-3.3782-4.6202-6.7465-1.3612-3.1398-2.017-6.5479-1.9673-10.115.06957-4.66 1.3712-9.4492 3.8651-14.208 2.9013-5.5444 7.4321-11.039 13.453-16.335 1.4407-1.2717 2.802-2.5435 4.0837-3.8154.75514 4.2328 1.5798 8.8927 2.4542 13.742-3.8254 1.2618-8.545 4.3916-11.635 10.005-3.5173 6.528-3.3782 12.013-2.6529 15.47.93398 4.4315 3.4478 8.1674 6.8856 10.244.92405.55631 5.0276 2.6727 6.8558 2.0964.36763-.11923.6359-.33782.77501-.66571.50674-1.1625-.50674-1.7983-2.0568-2.7523-.59616-.36755-1.2619-.78488-1.9872-1.3115-3.2988-2.4741-4.7395-6.8956-3.6763-11.248.57629-2.3846 1.8481-4.5309 3.6763-6.22 1.6593-1.5401 3.6863-2.633 6.051-3.2688 2.0269 11.168 4.0738 22.247 5.7033 30.553.12917.68548.26827 1.3512.39744 2.0169-4.352.92405-8.6741.83473-12.857-.26827m11.248-32.968c10.284-.46699 14.526 6.9255 15.411 11.725.46699 2.5138.45706 6.9254-1.0731 11.108-1.1625 3.1596-3.6068 7.2036-8.7039 9.2505-.06955-.41731-.14904-.84456-.22853-1.2719-1.5301-8.7138-3.4577-19.634-5.4052-30.812m-7.2732-70.486c1.7686-5.7032 4.4911-8.9324 6.4683-10.651 1.7388-1.5103 3.3782-2.2158 4.2924-2.2158.1391 0 .25834.0199.3577.0497.45706.1391.98366.70556 1.4507 1.57 2.2952 4.2624 1.56 10.93.22853 15.341-1.6196 5.3654-4.5209 10.949-13.265 20.498-.16891-1.1029-.32789-2.1462-.47693-3.1198-1.242-8.237-.92405-15.461.94392-21.472" stroke-width=".9936"/>
	<path class="KeySig" d="m128.26 107.96c-.59616-3.875-2.9808-7.5514-8.0482-7.5514-4.968 0-7.8494 3.0802-8.3462 3.6763l.39744-31.895c0-.79488-.59616-1.391-1.391-1.391h-1.1923c-.79488 0-1.391.59616-1.391 1.391l.4968 59.715c0 .79488.59616 1.391 1.391 1.391.19872 0 .59616-.0994.79488-.19872.39744-.19872 6.8558-3.3782 12.221-9.4392 3.7757-4.2725 5.2661-9.1411 5.2661-13.215 0-.89424-.0994-1.6891-.19872-2.484m-6.8558 3.875c0 1.4904-.39744 6.061-2.8814 9.8366-1.6891 2.5834-5.0674 5.2661-6.9552 6.7565l.29808-19.375c.19872-.89424 1.6891-3.7757 5.6635-3.7757 3.577 0 3.875 3.3782 3.875 5.4648v1.093" stroke-width=".9936"/>
	<path class="KeySig" d="m128.26 455.72c-.59616-3.875-2.9808-7.5514-8.0482-7.5514-4.968 0-7.8494 3.0802-8.3462 3.6763l.39744-31.895c0-.79488-.59616-1.391-1.391-1.391h-1.1923c-.79488 0-1.391.59616-1.391 1.391l.4968 59.715c0 .79488.59616 1.391 1.391 1.391.19872 0 .59616-.0994.79488-.19872.39744-.19872 6.8558-3.3782 12.221-9.4392 3.7757-4.2725 5.2661-9.1411 5.2661-13.215 0-.89424-.0994-1.6891-.19872-2.484m-6.8558 3.875c0 1.4904-.39744 6.061-2.8814 9.8366-1.6891 2.5834-5.0674 5.2661-6.9552 6.7565l.29808-19.375c.19872-.89424 1.6891-3.7757 5.6635-3.7757 3.577 0 3.875 3.3782 3.875 5.4648v1.093" stroke-width=".9936"/>
	<path class="TimeSig" d="m189.18 95.337c-.79488 2.1859-2.7821 9.3398-7.6507 9.3398-6.4584 0-7.8494-3.9744-13.215-3.9744-.79488 0-1.5898.0994-2.5834.29808 0 0 2.484-3.7757 13.016-7.0546s13.215-8.4456 13.215-14.407c0-4.1731-1.8878-12.42-16.891-12.42s-17.785 9.0418-17.785 13.612c0 4.0738 3.3782 7.3526 7.452 7.3526s7.3526-3.2789 7.3526-7.3526c0-2.7821-1.9872-5.8622-4.5706-6.8558-.29808-.09936-.69552-.59616-.69552-1.093 0-.59616.4968-1.2917 2.2853-1.7885.4968-.19872 1.8878-.4968 3.3782-.4968 1.391 0 2.9808.29808 4.1731 1.093 1.8878 1.1923 2.5834 2.9808 2.5834 7.452 0 11.625-13.811 14.109-19.574 22.753 0 0-2.9808 4.1731-2.9808 8.843s2.3846 4.968 3.577 4.968c1.5898 0 3.2789-1.2917 3.2789-3.0802 0-.39744-.0994-.79488-.29808-1.2917-.59616-1.391-.79488-2.484-.79488-3.2789 0-.29808 0-.59616.0994-.89424.0994-.59616.89424-1.5898 3.2789-1.5898 2.8814 0 3.9744 3.3782 5.7629 5.9616s4.5706 4.1731 7.7501 4.1731 7.452-2.2853 9.2405-5.9616 4.0738-11.128 4.0738-13.811c0-1.2917-.79488-1.8878-1.6891-1.8878-.69552 0-1.391.39744-1.7885 1.391" stroke-width=".9936"/>
	<path class="TimeSig" d="m155.5 153.08h17.07v7.3725h-8.1773c-.7749 0-1.4009.62597-1.4009 1.401v1.8978c0 .77501.62597 1.401 1.4009 1.401h30.056c.77501 0 1.401-.62597 1.401-1.401v-1.8978c0-.77501-.62597-1.401-1.401-1.401h-8.8828v-7.3725h8.8828c.77501 0 1.401-.62597 1.401-1.401v-1.8978c0-.77499-.62597-1.4009-1.401-1.4009h-8.8828v-15.858c0-.53649-.29808-1.0134-.77501-1.2519l-1.2022-.59616c-.52661-.25834-1.1527-.16891-1.5799.22851l-8.9921 8.2668c-.28804.26829-.45695.63594-.45695 1.0334v8.1773h-11.436s11.049-11.953 22.813-27.622c.86443-1.1426.36763-2.1859.17874-2.3747l-2.1561-2.1959c-.26827-.25833-.62597-.40737-.9936-.40737-.59616 0-14.059.0199-14.775 0-.71529-.0199-1.2519.59616-1.3215 1.2122 0 0-.53644 7.3129-3.1198 15.391-2.5834 8.068-5.5046 13.016-8.1475 16.623 0 0-.53659.9837-.17893 1.7189.34776.7452.97381 1.8282.97381 1.8282s.25829.52661 1.1028.52661" stroke-width=".9936"/>
	<path class="Fermata" d="m350.39 258.51c4.8686-5.2661 8.1475-15.997 8.1475-21.362 0-1.9872-.39744-3.1795-1.391-3.1795-2.7821 0-1.391 8.545-9.7373 16.991-7.3526 7.3526-17.189 7.452-19.574 7.452h-.39744c-2.3846 0-12.221-.0994-19.574-7.452-8.3462-8.4456-6.9552-16.991-9.7373-16.991-.9936 0-1.391 1.2917-1.391 3.1795 0 5.3654 3.3782 15.997 8.2469 21.362 9.3398 10.135 17.487 10.731 22.654 10.731s13.414-.59616 22.753-10.731m-29.609-18.978c0 3.7757 3.0802 6.8558 6.8558 6.8558s6.8558-3.0802 6.8558-6.8558-3.0802-6.8558-6.8558-6.8558-6.8558 3.0802-6.8558 6.8558" stroke-width=".9936"/>
	<path class="Fermata" d="m541.58 587.64c4.8686-5.2661 8.1475-15.997 8.1475-21.362 0-1.9872-.39744-3.1795-1.391-3.1795-2.7821 0-1.391 8.545-9.7373 16.991-7.3526 7.3526-17.189 7.452-19.574 7.452h-.39744c-2.3846 0-12.221-.0994-19.574-7.452-8.3462-8.4456-6.9552-16.991-9.7373-16.991-.9936 0-1.391 1.2917-1.391 3.1795 0 5.3654 3.3782 15.997 8.2469 21.362 9.3398 10.135 17.487 10.731 22.654 10.731s13.414-.59616 22.753-10.731m-29.609-18.978c0 3.7757 3.0802 6.8558 6.8558 6.8558s6.8558-3.0802 6.8558-6.8558-3.0802-6.8558-6.8558-6.8558-6.8558 3.0802-6.8558 6.8558" stroke-width=".9936"/>
	<path class="Fermata" d="m350.39 10.731c-9.3398-10.135-17.587-10.731-22.753-10.731s-13.314.59616-22.654 10.731c-4.8686 5.3654-8.2469 15.997-8.2469 21.362 0 1.8878.39744 3.1795 1.391 3.1795 2.7821 0 1.391-8.545 9.7373-16.991 7.3526-7.3526 17.189-7.452 19.574-7.452h.39744c2.3846 0 12.221.09936 19.574 7.452 8.3462 8.4456 6.9552 16.991 9.7373 16.991.9936 0 1.391-1.1923 1.391-3.1795 0-5.3654-3.2789-16.096-8.1475-21.362m-29.609 18.978c0 3.7757 3.0802 6.8558 6.8558 6.8558s6.8558-3.0802 6.8558-6.8558-3.0802-6.8558-6.8558-6.8558-6.8558 3.0802-6.8558 6.8558" stroke-width=".9936"/>
	<path class="Fermata" d="m541.58 358.12c-9.3398-10.135-17.587-10.731-22.753-10.731s-13.314.59616-22.654 10.731c-4.8686 5.3654-8.2469 15.997-8.2469 21.362 0 1.8878.39744 3.1795 1.391 3.1795 2.7821 0 1.391-8.545 9.7373-16.991 7.3526-7.3526 17.189-7.452 19.574-7.452h.39744c2.3846 0 12.221.0994 19.574 7.452 8.3462 8.4456 6.9552 16.991 9.7373 16.991.9936 0 1.391-1.1923 1.391-3.1795 0-5.3654-3.2789-16.096-8.1475-21.362m-29.609 18.978c0 3.7757 3.0802 6.8558 6.8558 6.8558s6.8558-3.0802 6.8558-6.8558-3.0802-6.8558-6.8558-6.8558-6.8558 3.0802-6.8558 6.8558" stroke-width=".9936"/>
	<path class="Beam" d="m685.27 252.38 53.36 6.546v12.513l-53.36-6.545v-12.514" fill-rule="evenodd"/>
	<path class="Beam" d="m685.27 233.75 32.29 3.961v12.513l-32.29-3.96v-12.514" fill-rule="evenodd"/>
	<path class="Beam" d="m983.47 600.16 71.37 6.457v12.471l-71.37-6.458v-12.47" fill-rule="evenodd"/>
	<path class="Beam" d="m983.47 581.53 32.29 2.921v12.471l-32.29-2.922v-12.47" fill-rule="evenodd"/>
	<path class="Beam" d="m714.82 84.372 53.37 6.545v12.514l-53.37-6.546v-12.513" fill-rule="evenodd"/>
	<path class="Beam" d="m714.82 103 32.29 3.961v12.513l-32.29-3.961v-12.513" fill-rule="evenodd"/>
	<path class="Beam" d="m1013 432.24 71.37 6.458v12.47l-71.37-6.457v-12.471" fill-rule="evenodd"/>
	<path class="Beam" d="m1013 450.87 32.29 2.922v12.471l-32.29-2.922v-12.471" fill-rule="evenodd"/>
	<path class="Hook" d="m248 215.56c0-.19872.89424-3.577.9936-3.875.0994-.39744 1.8878-6.061 5.5642-11.724 2.6827-4.1731 12.122-16.394 11.824-16.394 0 0 7.3526-9.4392 7.8494-22.257v-2.2853c0-6.061-.79488-14.606-4.2725-23.25-.39744-.9936-.79488-1.9872-1.8878-1.5898s-.79488 1.5898-.4968 2.6827c1.7885 6.9552 2.7821 14.109 2.7821 21.263 0 8.3462-2.9808 12.519-4.7693 15.6-6.5578 11.029-15.103 16.394-19.276 17.785-.4968.19872-.79488.59616-.79488 1.093v22.455c0 .69552.59616 1.2917 1.2917 1.2917.4968 0 1.093-.39744 1.1923-.79488" stroke-width=".9936"/>
	<path class="Hook" d="m388.88 215.56c0-.19872.89424-3.577.9936-3.875.0994-.39744 1.8878-6.061 5.5642-11.724 2.6827-4.1731 12.122-16.394 11.824-16.394 0 0 7.3526-9.4392 7.8494-22.257v-2.2853c0-6.061-.79488-14.606-4.2725-23.25-.39744-.9936-.79488-1.9872-1.8878-1.5898s-.79488 1.5898-.4968 2.6827c1.7885 6.9552 2.7821 14.109 2.7821 21.263 0 8.3462-2.9808 12.519-4.7693 15.6-6.5578 11.029-15.103 16.394-19.276 17.785-.4968.19872-.79488.59616-.79488 1.093v22.455c0 .69552.59616 1.2917 1.2917 1.2917.4968 0 1.093-.39744 1.1923-.79488" stroke-width=".9936"/>
	<path class="Hook" d="m523.9 240.4c0-.19872.89424-3.577.9936-3.875.0994-.39744 1.8878-6.061 5.5642-11.724 2.6827-4.1731 12.122-16.394 11.824-16.394 0 0 7.3526-9.4392 7.8494-22.257v-2.2853c0-6.061-.79488-14.606-4.2725-23.25-.39744-.9936-.79488-1.9872-1.8878-1.5898s-.79488 1.5898-.4968 2.6827c1.7885 6.9552 2.7821 14.109 2.7821 21.263 0 8.3462-2.9808 12.519-4.7693 15.6-6.5578 11.029-15.103 16.394-19.276 17.785-.4968.19872-.79488.59616-.79488 1.093v22.455c0 .69552.59616 1.2917 1.2917 1.2917.4968 0 1.093-.39744 1.1923-.79488" stroke-width=".9936"/>
	<path class="Hook" d="m620.15 240.77c0 .6766.32098 1.2301 1.4676 1.2301 1.1466 0 1.3533-.50476 1.4675-1.2301 0 0 1.548-10.555 5.3466-16.066 3.7985-5.5105 9.9598-8.6443 14.766-14.767 3.4827-4.4344 4.7285-9.7601 4.8229-14.947.0894-4.9412-.87139-9.7264-1.9364-13.525.33187-2.1025.52949-4.5199.52949-7.3526 0-5.6258-2.5714-10.999-4.3977-13.847-.47097-.73328-.97373-1.7885-2.02-1.248-1.0462.54041-.58026 1.7467-.24343 2.6827 1.4487 4.0011 2.1273 9.0418 2.2069 11.517.12708 3.9615-.17288 7.8286-4.1573 13.777-5.9436 8.8728-13.811 13.811-16.384 14.762-.67369.2324-1.4676.70545-1.4676.95087v38.062m23.35-51.14c.35074 4.7842.41433 9.5624-5.1984 16.371-3.7757 4.5776-9.8467 9.0905-14.302 9.4471l-.0994.40847c.0626-.32997.12517-.62805.18678-.86542.65186-2.5318 2.477-5.9894 6.367-9.8963 4.8816-4.9025 7.8375-8.0482 10.524-11.544.79339-1.0204 1.9249-2.7774 2.5257-3.9217h-.004" stroke-width=".9936"/>
	<path class="Hook" d="m871.45 240.77c0 .6766.32098 1.2301 1.4676 1.2301 1.1466 0 1.3533-.50476 1.4675-1.2301 0 0 1.548-10.555 5.3466-16.066 3.7985-5.5105 9.9598-8.6443 14.766-14.767 3.4827-4.4344 4.7285-9.7601 4.8229-14.947.0894-4.9412-.87139-9.7264-1.9364-13.525.33187-2.1025.52949-4.5199.52949-7.3526 0-5.6258-2.5714-10.999-4.3977-13.847-.47097-.73328-.97373-1.7885-2.02-1.248-1.0462.54041-.58026 1.7467-.24343 2.6827 1.4487 4.0011 2.1273 9.0418 2.2069 11.517.12708 3.9615-.17288 7.8286-4.1573 13.777-5.9436 8.8728-13.811 13.811-16.384 14.762-.67369.2324-1.4676.70545-1.4676.95087v38.062m23.35-51.14c.35074 4.7842.41433 9.5624-5.1984 16.371-3.7757 4.5776-9.8467 9.0905-14.302 9.4471l-.0994.40847c.0626-.32997.12517-.62805.18678-.86542.65186-2.5318 2.477-5.9894 6.367-9.8963 4.8816-4.9025 7.8375-8.0482 10.524-11.544.79339-1.0204 1.9249-2.7774 2.5257-3.9217h-.004" stroke-width=".9936"/>
	<path class="Hook" d="m944.48 240.77c0 .6766.32098 1.2301 1.4676 1.2301 1.1466 0 1.3533-.50476 1.4675-1.2301 0 0 1.548-10.555 5.3466-16.066 3.7985-5.5105 9.9598-8.6443 14.766-14.767 3.4827-4.4344 4.7285-9.7601 4.8229-14.947.0894-4.9412-.87139-9.7264-1.9364-13.525.33187-2.1025.52949-4.5199.52949-7.3526 0-5.6258-2.5714-10.999-4.3977-13.847-.47097-.73328-.97373-1.7885-2.02-1.248-1.0462.54041-.58026 1.7467-.24343 2.6827 1.4487 4.0011 2.1273 9.0418 2.2069 11.517.12708 3.9615-.17288 7.8286-4.1573 13.777-5.9436 8.8728-13.811 13.811-16.384 14.762-.67369.2324-1.4676.70545-1.4676.95087v38.062m23.35-51.14c.35074 4.7842.41433 9.5624-5.1984 16.371-3.7757 4.5776-9.8467 9.0905-14.302 9.4471l-.0994.40847c.0626-.32997.12517-.62805.18678-.86542.65186-2.5318 2.477-5.9894 6.367-9.8963 4.8816-4.9025 7.8375-8.0482 10.524-11.544.79339-1.0204 1.9249-2.7774 2.5257-3.9217h-.004" stroke-width=".9936"/>
	<path class="Hook" d="m1017.5 240.77c0 .6766.321 1.2301 1.4676 1.2301s1.3533-.50476 1.4675-1.2301c0 0 1.5481-10.555 5.3466-16.066 3.7985-5.5105 9.9598-8.6443 14.766-14.767 3.4826-4.4344 4.7285-9.7601 4.8229-14.947.089-4.9412-.8714-9.7264-1.9364-13.525.3318-2.1025.5295-4.5199.5295-7.3526 0-5.6258-2.5715-10.999-4.3977-13.847-.471-.73328-.9737-1.7885-2.02-1.248-1.0462.54041-.5803 1.7467-.2434 2.6827 1.4486 4.0011 2.1273 9.0418 2.2069 11.517.127 3.9615-.1729 7.8286-4.1574 13.777-5.9436 8.8728-13.811 13.811-16.384 14.762-.6737.2324-1.4676.70545-1.4676.95087v38.062m23.35-51.14c.3508 4.7842.4144 9.5624-5.1984 16.371-3.7757 4.5776-9.8467 9.0905-14.302 9.4471l-.099.40847c.063-.32997.1252-.62805.1868-.86542.6518-2.5318 2.477-5.9894 6.367-9.8963 4.8815-4.9025 7.8375-8.0482 10.524-11.544.7934-1.0204 1.9249-2.7774 2.5257-3.9217" stroke-width=".9936"/>
	<path class="Hook" d="m1090.5 240.77c0 .6766.321 1.2301 1.4676 1.2301s1.3533-.50476 1.4675-1.2301c0 0 1.5481-10.555 5.3466-16.066 3.7985-5.5105 9.9598-8.6443 14.766-14.767 3.4826-4.4344 4.7285-9.7601 4.8229-14.947.089-4.9412-.8714-9.7264-1.9364-13.525.3318-2.1025.5295-4.5199.5295-7.3526 0-5.6258-2.5715-10.999-4.3977-13.847-.471-.73328-.9737-1.7885-2.02-1.248-1.0462.54041-.5803 1.7467-.2434 2.6827 1.4486 4.0011 2.1273 9.0418 2.2069 11.517.127 3.9615-.1729 7.8286-4.1574 13.777-5.9436 8.8728-13.811 13.811-16.384 14.762-.6737.2324-1.4676.70545-1.4676.95087v38.062m23.35-51.14c.3508 4.7842.4144 9.5624-5.1984 16.371-3.7757 4.5776-9.8467 9.0905-14.302 9.4471l-.099.40847c.063-.32997.1252-.62805.1868-.86542.6518-2.5318 2.477-5.9894 6.367-9.8963 4.8815-4.9025 7.8375-8.0482 10.524-11.544.7934-1.0204 1.9249-2.7774 2.5257-3.9217" stroke-width=".9936"/>
	<path class="Hook" d="m415.65 538.48c0-.19872.89424-3.577.9936-3.875.0994-.39744 1.8878-6.061 5.5642-11.724 2.6827-4.1731 12.122-16.394 11.824-16.394 0 0 7.3526-9.4392 7.8494-22.257v-2.2853c0-6.061-.79488-14.606-4.2725-23.25-.39744-.9936-.79488-1.9872-1.8878-1.5898s-.79488 1.5898-.4968 2.6827c1.7885 6.9552 2.7821 14.109 2.7821 21.263 0 8.3462-2.9808 12.519-4.7693 15.6-6.5578 11.029-15.103 16.394-19.276 17.785-.4968.19872-.79488.59616-.79488 1.093v22.455c0 .69552.59616 1.2917 1.2917 1.2917.4968 0 1.093-.39744 1.1923-.79488" stroke-width=".9936"/>
	<path class="Hook" d="m648.37 538.48c0-.19872.89424-3.577.9936-3.875.0994-.39744 1.8878-6.061 5.5642-11.724 2.6827-4.1731 12.122-16.394 11.824-16.394 0 0 7.3526-9.4392 7.8494-22.257v-2.2853c0-6.061-.79488-14.606-4.2725-23.25-.39744-.9936-.79488-1.9872-1.8878-1.5898s-.79488 1.5898-.4968 2.6827c1.7885 6.9552 2.7821 14.109 2.7821 21.263 0 8.3462-2.9808 12.519-4.7693 15.6-6.5578 11.029-15.103 16.394-19.276 17.785-.4968.19872-.79488.59616-.79488 1.093v22.455c0 .69552.59616 1.2917 1.2917 1.2917.4968 0 1.093-.39744 1.1923-.79488" stroke-width=".9936"/>
	<path class="Hook" d="m783.39 588.16c0-.19872.89424-3.577.9936-3.875.0994-.39744 1.8878-6.061 5.5642-11.724 2.6827-4.1731 12.122-16.394 11.824-16.394 0 0 7.3526-9.4392 7.8494-22.257v-2.2853c0-6.061-.79488-14.606-4.2725-23.25-.39744-.9936-.79488-1.9872-1.8878-1.5898s-.79488 1.5898-.4968 2.6827c1.7885 6.9552 2.7821 14.109 2.7821 21.263 0 8.3462-2.9808 12.519-4.7693 15.6-6.5578 11.029-15.103 16.394-19.276 17.785-.4968.19872-.79488.59616-.79488 1.093v22.455c0 .69552.59616 1.2917 1.2917 1.2917.4968 0 1.093-.39744 1.1923-.79488" stroke-width=".9936"/>
	<path class="Hook" d="m914.78 588.53c0 .6766.32098 1.2301 1.4676 1.2301 1.1466 0 1.3533-.50476 1.4675-1.2301 0 0 1.548-10.555 5.3466-16.066 3.7985-5.5105 9.9598-8.6443 14.766-14.767 3.4827-4.4344 4.7285-9.7601 4.8229-14.947.0894-4.9412-.87139-9.7264-1.9364-13.525.33187-2.1025.52949-4.5199.52949-7.3526 0-5.6258-2.5714-10.999-4.3977-13.847-.47097-.73328-.97373-1.7885-2.02-1.248-1.0462.54041-.58026 1.7467-.24343 2.6827 1.4487 4.0011 2.1273 9.0418 2.2069 11.517.12708 3.9615-.17288 7.8286-4.1573 13.777-5.9436 8.8728-13.811 13.811-16.384 14.762-.67369.2324-1.4676.70545-1.4676.95087v38.062m23.35-51.14c.35074 4.7842.41433 9.5624-5.1984 16.371-3.7757 4.5776-9.8467 9.0905-14.302 9.4471l-.0994.40847c.0626-.32997.12517-.62805.18678-.86542.65186-2.5318 2.477-5.9894 6.367-9.8963 4.8816-4.9025 7.8375-8.0482 10.524-11.544.79339-1.0204 1.9249-2.7774 2.5257-3.9217h-.004" stroke-width=".9936"/>
	<path class="Hook" d="m278.55 50.972c-.0994-.29808-.9936-3.7757-.9936-3.9744-.0994-.39744-.69552-.69552-1.1923-.69552-.69552 0-1.2917.59616-1.2917 1.2917v22.455c0 .4968.39744.89424.79488 1.093 4.1731 1.2917 12.817 6.7565 19.276 17.785 1.7885 3.0802 4.6699 7.2533 4.6699 15.6 0 7.1539-1.093 14.705-2.8814 21.66-.29808 1.093-.59616 2.0866.4968 2.484s1.4904-.39744 1.8878-1.391c3.577-8.7437 4.4712-17.885 4.4712-24.045v-1.8878c-.4968-12.817-7.8494-22.257-7.8494-22.257.29808 0-9.1411-12.221-11.824-16.394-3.6763-5.6635-5.4648-11.327-5.5642-11.724" stroke-width=".9936"/>
	<path class="Hook" d="m419.43 50.972c-.0994-.29808-.9936-3.7757-.9936-3.9744-.0994-.39744-.69552-.69552-1.1923-.69552-.69552 0-1.2917.59616-1.2917 1.2917v22.455c0 .4968.39744.89424.79488 1.093 4.1731 1.2917 12.817 6.7565 19.276 17.785 1.7885 3.0802 4.6699 7.2533 4.6699 15.6 0 7.1539-1.093 14.705-2.8814 21.66-.29808 1.093-.59616 2.0866.4968 2.484s1.4904-.39744 1.8878-1.391c3.577-8.7437 4.4712-17.885 4.4712-24.045v-1.8878c-.4968-12.817-7.8494-22.257-7.8494-22.257.29808 0-9.1411-12.221-11.824-16.394-3.6763-5.6635-5.4648-11.327-5.5642-11.724" stroke-width=".9936"/>
	<path class="Hook" d="m554.45 69.602c-.0994-.29808-.9936-3.7757-.9936-3.9744-.0994-.39744-.69552-.69552-1.1923-.69552-.69552 0-1.2917.59616-1.2917 1.2917v22.455c0 .4968.39744.89424.79488 1.093 4.1731 1.2917 12.817 6.7565 19.276 17.785 1.7885 3.0802 4.6699 7.2533 4.6699 15.6 0 7.1539-1.093 14.705-2.8814 21.66-.29808 1.093-.59616 2.0866.4968 2.484s1.4904-.39744 1.8878-1.391c3.577-8.7437 4.4712-17.885 4.4712-24.045v-1.8878c-.4968-12.817-7.8494-22.257-7.8494-22.257.29808 0-9.1411-12.221-11.824-16.394-3.6763-5.6635-5.4648-11.327-5.5642-11.724" stroke-width=".9936"/>
	<path class="Hook" d="m677.57 111.33c-.0994-5.1667-1.2917-10.532-4.7693-15.003-4.7693-6.1603-11.029-9.2405-14.805-14.705s-5.3654-16.096-5.3654-16.096c-.0994-.69552-.29808-1.1923-1.4904-1.1923s-1.391.4968-1.391 1.1923v38.055c0 .19872.69552.79488 1.391.9936 2.5834.9936 10.433 5.8622 16.394 14.705 3.577 5.4648 4.1731 9.1411 4.1731 12.718v1.093c-.0994 2.484-.69552 7.5514-2.1859 11.526-.29808.89424-.79488 2.1859.19872 2.6827s1.5898-.59616 2.0866-1.2917c1.7885-2.8814 4.3718-8.1475 4.3718-13.811 0-2.7821-.19872-5.2661-.4968-7.3526.9936-3.577 1.8878-8.0482 1.8878-12.718v-.79488m-7.0546 1.391c-2.6827-3.4776-5.6635-6.6571-10.532-11.526-3.875-3.875-5.6635-7.2533-6.359-9.8366-.0994-.19872-.0994-.59616-.19872-.89424l.0994.39744c4.4712.39744 10.532 4.8686 14.308 9.4392 4.4712 5.3654 5.3654 9.5386 5.3654 13.414 0 .9936 0 1.8878-.0994 2.8814-.59616-1.093-1.7885-2.8814-2.5834-3.875" stroke-width=".9936"/>
	<path class="Hook" d="m928.88 111.33c-.0994-5.1667-1.2917-10.532-4.7693-15.003-4.7693-6.1603-11.029-9.2405-14.805-14.705s-5.3654-16.096-5.3654-16.096c-.0994-.69552-.29808-1.1923-1.4904-1.1923s-1.391.4968-1.391 1.1923v38.055c0 .19872.69552.79488 1.391.9936 2.5834.9936 10.433 5.8622 16.394 14.705 3.577 5.4648 4.1731 9.1411 4.1731 12.718v1.093c-.0994 2.484-.69552 7.5514-2.1859 11.526-.29808.89424-.79488 2.1859.19872 2.6827s1.5898-.59616 2.0866-1.2917c1.7885-2.8814 4.3718-8.1475 4.3718-13.811 0-2.7821-.19872-5.2661-.4968-7.3526.9936-3.577 1.8878-8.0482 1.8878-12.718v-.79488m-7.0546 1.391c-2.6827-3.4776-5.6635-6.6571-10.532-11.526-3.875-3.875-5.6635-7.2533-6.359-9.8366-.0994-.19872-.0994-.59616-.19872-.89424l.0994.39744c4.4712.39744 10.532 4.8686 14.308 9.4392 4.4712 5.3654 5.3654 9.5386 5.3654 13.414 0 .9936 0 1.8878-.0994 2.8814-.59616-1.093-1.7885-2.8814-2.5834-3.875" stroke-width=".9936"/>
	<path class="Hook" d="m1001.9 111.33c-.099-5.1667-1.2917-10.532-4.7693-15.003-4.7693-6.1603-11.029-9.2405-14.805-14.705s-5.3654-16.096-5.3654-16.096c-.0994-.69552-.29808-1.1923-1.4904-1.1923s-1.391.4968-1.391 1.1923v38.055c0 .19872.69552.79488 1.391.9936 2.5834.9936 10.433 5.8622 16.394 14.705 3.577 5.4648 4.1731 9.1411 4.1731 12.718v1.093c-.0994 2.484-.69552 7.5514-2.1859 11.526-.29808.89424-.79488 2.1859.19872 2.6827s1.5898-.59616 2.0866-1.2917c1.7885-2.8814 4.3719-8.1475 4.3719-13.811 0-2.7821-.1988-5.2661-.4968-7.3526.9936-3.577 1.8878-8.0482 1.8878-12.718v-.79488m-7.0546 1.391c-2.6827-3.4776-5.6635-6.6571-10.532-11.526-3.875-3.875-5.6635-7.2533-6.359-9.8366-.0994-.19872-.0994-.59616-.19872-.89424l.0994.39744c4.4712.39744 10.532 4.8686 14.308 9.4392 4.4712 5.3654 5.3654 9.5386 5.3654 13.414 0 .9936 0 1.8878-.0994 2.8814-.59616-1.093-1.7885-2.8814-2.5834-3.875" stroke-width=".9936"/>
	<path class="Hook" d="m1074.9 111.33c-.099-5.1667-1.2917-10.532-4.7693-15.003-4.7693-6.1603-11.029-9.2405-14.805-14.705s-5.3655-16.096-5.3655-16.096c-.099-.69552-.298-1.1923-1.4904-1.1923-1.1923 0-1.391.4968-1.391 1.1923v38.055c0 .19872.6955.79488 1.391.9936 2.5834.9936 10.433 5.8622 16.394 14.705 3.577 5.4648 4.1732 9.1411 4.1732 12.718v1.093c-.099 2.484-.6956 7.5514-2.186 11.526-.298.89424-.7948 2.1859.1988 2.6827s1.5897-.59616 2.0865-1.2917c1.7885-2.8814 4.3719-8.1475 4.3719-13.811 0-2.7821-.1988-5.2661-.4968-7.3526.9936-3.577 1.8878-8.0482 1.8878-12.718v-.79488m-7.0546 1.391c-2.6827-3.4776-5.6635-6.6571-10.532-11.526-3.8751-3.875-5.6635-7.2533-6.3591-9.8366-.099-.19872-.099-.59616-.1987-.89424l.099.39744c4.4712.39744 10.532 4.8686 14.308 9.4392 4.4712 5.3654 5.3655 9.5386 5.3655 13.414 0 .9936 0 1.8878-.099 2.8814-.5962-1.093-1.7885-2.8814-2.5834-3.875" stroke-width=".9936"/>
	<path class="Hook" d="m1148 111.33c-.099-5.1667-1.2917-10.532-4.7693-15.003-4.7693-6.1603-11.029-9.2405-14.805-14.705s-5.3655-16.096-5.3655-16.096c-.099-.69552-.298-1.1923-1.4904-1.1923-1.1923 0-1.391.4968-1.391 1.1923v38.055c0 .19872.6955.79488 1.391.9936 2.5834.9936 10.433 5.8622 16.394 14.705 3.577 5.4648 4.1732 9.1411 4.1732 12.718v1.093c-.099 2.484-.6956 7.5514-2.186 11.526-.298.89424-.7948 2.1859.1988 2.6827s1.5897-.59616 2.0865-1.2917c1.7885-2.8814 4.3719-8.1475 4.3719-13.811 0-2.7821-.1988-5.2661-.4968-7.3526.9936-3.577 1.8878-8.0482 1.8878-12.718v-.79488m-7.0546 1.391c-2.6827-3.4776-5.6635-6.6571-10.532-11.526-3.8751-3.875-5.6635-7.2533-6.3591-9.8366-.099-.19872-.099-.59616-.1987-.89424l.099.39744c4.4712.39744 10.532 4.8686 14.308 9.4392 4.4712 5.3654 5.3655 9.5386 5.3655 13.414 0 .9936 0 1.8878-.099 2.8814-.5962-1.093-1.7885-2.8814-2.5834-3.875" stroke-width=".9936"/>
	<path class="Hook" d="m1221 86.493c-.099-5.1667-1.2917-10.532-4.7693-15.003-4.7693-6.1603-11.029-9.2405-14.805-14.705s-5.3655-16.096-5.3655-16.096c-.099-.69552-.298-1.1923-1.4904-1.1923-1.1923 0-1.391.4968-1.391 1.1923v38.055c0 .19872.6955.79488 1.391.9936 2.5834.9936 10.433 5.8622 16.394 14.705 3.577 5.4648 4.1732 9.1411 4.1732 12.718v1.093c-.099 2.484-.6956 7.5514-2.186 11.526-.298.89424-.7948 2.1859.1988 2.6827s1.5897-.59616 2.0865-1.2917c1.7885-2.8814 4.3719-8.1475 4.3719-13.811 0-2.7821-.1988-5.2661-.4968-7.3526.9936-3.577 1.8878-8.0482 1.8878-12.718v-.79488m-7.0546 1.391c-2.6827-3.4776-5.6635-6.6571-10.532-11.526-3.8751-3.875-5.6635-7.2533-6.3591-9.8366-.099-.19872-.099-.59616-.1987-.89424l.099.39744c4.4712.39744 10.532 4.8686 14.308 9.4392 4.4712 5.3654 5.3655 9.5386 5.3655 13.414 0 .9936 0 1.8878-.099 2.8814-.5962-1.093-1.7885-2.8814-2.5834-3.875" stroke-width=".9936"/>
	<path class="Hook" d="m1294 61.653c-.099-5.1667-1.2917-10.532-4.7693-15.003-4.7693-6.1603-11.029-9.2405-14.805-14.705s-5.3655-16.096-5.3655-16.096c-.099-.69552-.298-1.1923-1.4904-1.1923-1.1923 0-1.391.4968-1.391 1.1923v38.055c0 .19872.6955.79488 1.391.9936 2.5834.9936 10.433 5.8622 16.394 14.705 3.577 5.4648 4.1732 9.1411 4.1732 12.718v1.093c-.099 2.484-.6956 7.5514-2.186 11.526-.298.89424-.7948 2.1859.1988 2.6827s1.5897-.59616 2.0865-1.2917c1.7885-2.8814 4.3719-8.1475 4.3719-13.811 0-2.7821-.1988-5.2661-.4968-7.3526.9936-3.577 1.8878-8.0482 1.8878-12.718v-.79488m-7.0546 1.391c-2.6827-3.4776-5.6635-6.6571-10.532-11.526-3.8751-3.875-5.6635-7.2533-6.3591-9.8366-.099-.19872-.099-.59616-.1987-.89424l.099.39744c4.4712.39744 10.532 4.8686 14.308 9.4392 4.4712 5.3654 5.3655 9.5386 5.3655 13.414 0 .9936 0 1.8878-.099 2.8814-.5962-1.093-1.7885-2.8814-2.5834-3.875" stroke-width=".9936"/>
	<path class="Hook" d="m1342.7 32.342c-.099-.29808-.9936-3.7757-.9936-3.9744-.099-.39744-.6955-.69552-1.1923-.69552-.6955 0-1.2917.59616-1.2917 1.2917v22.455c0 .4968.3974.89424.7949 1.093 4.1731 1.2917 12.817 6.7565 19.276 17.785 1.7885 3.0802 4.6699 7.2533 4.6699 15.6 0 7.1539-1.0929 14.705-2.8814 21.66-.2981 1.093-.5962 2.0866.4968 2.484s1.4904-.39744 1.8878-1.391c3.577-8.7437 4.4712-17.885 4.4712-24.045v-1.8878c-.4968-12.817-7.8494-22.257-7.8494-22.257.2981 0-9.1411-12.221-11.824-16.394-3.6764-5.6635-5.4648-11.327-5.5642-11.724" stroke-width=".9936"/>
	<path class="Hook" d="m446.2 380.1c-.0994-.29808-.9936-3.7757-.9936-3.9744-.0994-.39744-.69552-.69552-1.1923-.69552-.69552 0-1.2917.59616-1.2917 1.2917v22.455c0 .4968.39744.89424.79488 1.093 4.1731 1.2917 12.817 6.7565 19.276 17.785 1.7885 3.0802 4.6699 7.2533 4.6699 15.6 0 7.1539-1.093 14.705-2.8814 21.66-.29808 1.093-.59616 2.0866.4968 2.484s1.4904-.39744 1.8878-1.391c3.577-8.7437 4.4712-17.885 4.4712-24.045v-1.8878c-.4968-12.817-7.8494-22.257-7.8494-22.257.29808 0-9.1411-12.221-11.824-16.394-3.6763-5.6635-5.4648-11.327-5.5642-11.724" stroke-width=".9936"/>
	<path class="Hook" d="m678.92 380.1c-.0994-.29808-.9936-3.7757-.9936-3.9744-.0994-.39744-.69552-.69552-1.1923-.69552-.69552 0-1.2917.59616-1.2917 1.2917v22.455c0 .4968.39744.89424.79488 1.093 4.1731 1.2917 12.817 6.7565 19.276 17.785 1.7885 3.0802 4.6699 7.2533 4.6699 15.6 0 7.1539-1.093 14.705-2.8814 21.66-.29808 1.093-.59616 2.0866.4968 2.484s1.4904-.39744 1.8878-1.391c3.577-8.7437 4.4712-17.885 4.4712-24.045v-1.8878c-.4968-12.817-7.8494-22.257-7.8494-22.257.29808 0-9.1411-12.221-11.824-16.394-3.6763-5.6635-5.4648-11.327-5.5642-11.724" stroke-width=".9936"/>
	<path class="Hook" d="m813.94 417.36c-.0994-.29808-.9936-3.7757-.9936-3.9744-.0994-.39744-.69552-.69552-1.1923-.69552-.69552 0-1.2917.59616-1.2917 1.2917v22.455c0 .4968.39744.89424.79488 1.093 4.1731 1.2917 12.817 6.7565 19.276 17.785 1.7885 3.0802 4.6699 7.2533 4.6699 15.6 0 7.1539-1.093 14.705-2.8814 21.66-.29808 1.093-.59616 2.0866.4968 2.484s1.4904-.39744 1.8878-1.391c3.577-8.7437 4.4712-17.885 4.4712-24.045v-1.8878c-.4968-12.817-7.8494-22.257-7.8494-22.257.29808 0-9.1411-12.221-11.824-16.394-3.6763-5.6635-5.4648-11.327-5.5642-11.724" stroke-width=".9936"/>
	<path class="Hook" d="m972.2 459.09c-.0994-5.1667-1.2917-10.532-4.7693-15.003-4.7693-6.1603-11.029-9.2405-14.805-14.705s-5.3654-16.096-5.3654-16.096c-.0994-.69552-.29808-1.1923-1.4904-1.1923s-1.391.4968-1.391 1.1923v38.055c0 .19872.69552.79488 1.391.9936 2.5834.9936 10.433 5.8622 16.394 14.705 3.577 5.4648 4.1731 9.1411 4.1731 12.718v1.093c-.0994 2.484-.69552 7.5514-2.1859 11.526-.29808.89424-.79488 2.1859.19872 2.6827s1.5898-.59616 2.0866-1.2917c1.7885-2.8814 4.3718-8.1475 4.3718-13.811 0-2.7821-.19872-5.2661-.4968-7.3526.9936-3.577 1.8878-8.0482 1.8878-12.718v-.79488m-7.0546 1.391c-2.6827-3.4776-5.6635-6.6571-10.532-11.526-3.875-3.875-5.6635-7.2533-6.359-9.8366-.0994-.19872-.0994-.59616-.19872-.89424l.0994.39744c4.4712.39744 10.532 4.8686 14.308 9.4392 4.4712 5.3654 5.3654 9.5386 5.3654 13.414 0 .9936 0 1.8878-.0994 2.8814-.59616-1.093-1.7885-2.8814-2.5834-3.875" stroke-width=".9936"/>
	<path class="NoteDot" d="m566.12 153.06c0 2.7438 2.2242 4.968 4.968 4.968s4.968-2.2242 4.968-4.968-2.2242-4.968-4.968-4.968-4.968 2.2242-4.968 4.968" stroke-width=".9936"/>
	<path class="NoteDot" d="m825.61 500.82c0 2.7438 2.2242 4.968 4.968 4.968s4.968-2.2242 4.968-4.968-2.2242-4.968-4.968-4.968-4.968 2.2242-4.968 4.968" stroke-width=".9936"/>
	<path class="NoteDot" d="m780.61 177.9c0 2.7438 2.2242 4.968 4.968 4.968s4.968-2.2242 4.968-4.968-2.2242-4.968-4.968-4.968-4.968 2.2242-4.968 4.968" stroke-width=".9936"/>
	<path class="NoteDot" d="m1096.8 525.66c0 2.7438 2.2242 4.968 4.968 4.968s4.968-2.2242 4.968-4.968-2.2242-4.968-4.968-4.968-4.968 2.2242-4.968 4.968" stroke-width=".9936"/>
</svg>
