<?xml version="1.0" encoding="utf-8"?>
<!DOCTYPE score-partwise PUBLIC "-//Recordare//DTD MusicXML 3.1 Partwise//EN" "http://www.musicxml.org/dtds/partwise.dtd">
<score-partwise version="3.1">
	<work>
		<work-title>Du_Bois_7</work-title>
	</work>
	<identification>
		<encoding>
			<software>MuseScore 3.6.2</software>
			<encoding-date>2021-04-17</encoding-date>
			<supports element="accidental" type="yes"/>
			<supports element="beam" type="yes"/>
			<supports attribute="new-page" element="print" type="yes" value="yes"/>
			<supports attribute="new-system" element="print" type="yes" value="yes"/>
			<supports element="stem" type="yes"/>
		</encoding>
	</identification>
	<defaults>
		<scaling>
			<millimeters>7.0104</millimeters>
			<tenths>40</tenths>
		</scaling>
		<page-layout>
			<page-height>1694.2</page-height>
			<page-width>797.101</page-width>
			<page-margins type="even">
				<left-margin>85.5072</left-margin>
				<right-margin>85.5072</right-margin>
				<top-margin>85.5072</top-margin>
				<bottom-margin>85.5072</bottom-margin>
			</page-margins>
			<page-margins type="odd">
				<left-margin>85.5072</left-margin>
				<right-margin>85.5072</right-margin>
				<top-margin>85.5072</top-margin>
				<bottom-margin>85.5072</bottom-margin>
			</page-margins>
		</page-layout>
		<word-font font-family="Edwin" font-size="10"/>
		<lyric-font font-family="Edwin" font-size="10"/>
	</defaults>
	<part-list>
		<part-group number="1" type="start">
			<group-symbol>brace</group-symbol>
		</part-group>
		<score-part id="P1">
			<part-name>Piano</part-name>
			<part-abbreviation>Pno.</part-abbreviation>
			<score-instrument id="P1-I1">
				<instrument-name>Piano</instrument-name>
			</score-instrument>
			<midi-device id="P1-I1" port="1"/>
			<midi-instrument id="P1-I1">
				<midi-channel>1</midi-channel>
				<midi-program>1</midi-program>
				<volume>78.7402</volume>
				<pan>0</pan>
			</midi-instrument>
		</score-part>
	</part-list>
	<part id="P1">
		<measure number="1" width="190.25">
			<print>
				<system-layout>
					<system-margins>
						<left-margin>50.00</left-margin>
						<right-margin>0.00</right-margin>
					</system-margins>
					<top-system-distance>70.00</top-system-distance>
				</system-layout>
			</print>
			<attributes>
				<divisions>2</divisions>
				<key>
					<fifths>-1</fifths>
				</key>
				<time>
					<beats>2</beats>
					<beat-type>2</beat-type>
				</time>
				<clef>
					<sign>G</sign>
					<line>2</line>
				</clef>
			</attributes>
			<note default-x="99.69" default-y="-60.00">
				<pitch>
					<step>A</step>
					<octave>3</octave>
				</pitch>
				<duration>3</duration>
				<voice>1</voice>
				<type>quarter</type>
				<dot/>
				<stem>up</stem>
				<notations>
					<slur number="1" placement="below" type="start"/>
				</notations>
			</note>
			<note default-x="148.89" default-y="-55.00">
				<pitch>
					<step>B</step>
					<alter>-1</alter>
					<octave>3</octave>
				</pitch>
				<duration>1</duration>
				<voice>1</voice>
				<type>eighth</type>
				<stem>up</stem>
				<notations>
					<slur number="1" type="stop"/>
				</notations>
			</note>
		</measure>
		<measure number="2" width="192.92">
			<note default-x="16.50" default-y="-50.00">
				<pitch>
					<step>C</step>
					<octave>4</octave>
				</pitch>
				<duration>3</duration>
				<voice>1</voice>
				<type>quarter</type>
				<dot/>
				<stem>up</stem>
			</note>
			<note default-x="70.26" default-y="-45.00">
				<pitch>
					<step>D</step>
					<octave>4</octave>
				</pitch>
				<duration>1</duration>
				<voice>1</voice>
				<type>eighth</type>
				<stem>up</stem>
			</note>
			<note default-x="97.81" default-y="-50.00">
				<pitch>
					<step>C</step>
					<octave>4</octave>
				</pitch>
				<duration>3</duration>
				<voice>1</voice>
				<type>quarter</type>
				<dot/>
				<stem>up</stem>
			</note>
			<note default-x="151.56" default-y="-45.00">
				<pitch>
					<step>D</step>
					<octave>4</octave>
				</pitch>
				<duration>1</duration>
				<voice>1</voice>
				<type>eighth</type>
				<stem>up</stem>
			</note>
			<backup>
				<duration>8</duration>
			</backup>
			<note default-x="16.50" default-y="-50.00">
				<pitch>
					<step>C</step>
					<octave>4</octave>
				</pitch>
				<duration>3</duration>
				<voice>2</voice>
				<type>quarter</type>
				<dot/>
				<stem>down</stem>
			</note>
			<note default-x="70.26" default-y="-45.00">
				<pitch>
					<step>D</step>
					<octave>4</octave>
				</pitch>
				<duration>1</duration>
				<voice>2</voice>
				<type>eighth</type>
				<stem>down</stem>
			</note>
			<note default-x="97.81" default-y="-50.00">
				<pitch>
					<step>C</step>
					<octave>4</octave>
				</pitch>
				<duration>3</duration>
				<voice>2</voice>
				<type>quarter</type>
				<dot/>
				<stem>down</stem>
			</note>
			<note default-x="151.56" default-y="-45.00">
				<pitch>
					<step>D</step>
					<octave>4</octave>
				</pitch>
				<duration>1</duration>
				<voice>2</voice>
				<type>eighth</type>
				<stem>down</stem>
			</note>
		</measure>
		<measure number="3" width="192.92">
			<note default-x="16.50" default-y="-50.00">
				<pitch>
					<step>C</step>
					<octave>4</octave>
				</pitch>
				<duration>3</duration>
				<voice>1</voice>
				<type>quarter</type>
				<dot/>
				<stem>up</stem>
			</note>
			<note default-x="70.26" default-y="-40.00">
				<pitch>
					<step>E</step>
					<octave>4</octave>
				</pitch>
				<duration>1</duration>
				<voice>1</voice>
				<type>eighth</type>
				<stem>up</stem>
			</note>
			<note default-x="97.81" default-y="-35.00">
				<pitch>
					<step>F</step>
					<octave>4</octave>
				</pitch>
				<duration>3</duration>
				<voice>1</voice>
				<type>quarter</type>
				<dot/>
				<stem>up</stem>
			</note>
			<note default-x="151.56" default-y="-30.00">
				<pitch>
					<step>G</step>
					<octave>4</octave>
				</pitch>
				<duration>1</duration>
				<voice>1</voice>
				<type>eighth</type>
				<stem>up</stem>
			</note>
			<backup>
				<duration>8</duration>
			</backup>
			<note default-x="16.50" default-y="-50.00">
				<pitch>
					<step>C</step>
					<octave>4</octave>
				</pitch>
				<duration>3</duration>
				<voice>2</voice>
				<type>quarter</type>
				<dot/>
				<stem>down</stem>
			</note>
			<note default-x="70.26" default-y="-40.00">
				<pitch>
					<step>E</step>
					<octave>4</octave>
				</pitch>
				<duration>1</duration>
				<voice>2</voice>
				<type>eighth</type>
				<stem>down</stem>
			</note>
			<note default-x="97.81" default-y="-35.00">
				<pitch>
					<step>F</step>
					<octave>4</octave>
				</pitch>
				<duration>3</duration>
				<voice>2</voice>
				<type>quarter</type>
				<dot/>
				<stem>down</stem>
			</note>
			<note default-x="151.56" default-y="-50.00">
				<pitch>
					<step>C</step>
					<octave>4</octave>
				</pitch>
				<duration>1</duration>
				<voice>2</voice>
				<type>eighth</type>
				<stem>up</stem>
			</note>
		</measure>
		<measure number="1" width="197.41">
			<print new-system="yes">
				<system-layout>
					<system-margins>
						<left-margin>50.00</left-margin>
						<right-margin>0.00</right-margin>
					</system-margins>
					<system-distance>100.00</system-distance>
				</system-layout>
			</print>
			<attributes>
				<divisions>2</divisions>
			</attributes>
			<note default-x="80.21" default-y="-25.00">
				<pitch>
					<step>A</step>
					<octave>4</octave>
				</pitch>
				<duration>8</duration>
				<voice>1</voice>
				<type>whole</type>
				<notations>
					<slur number="1" placement="above" type="start"/>
				</notations>
			</note>
			<backup>
				<duration>8</duration>
			</backup>
			<note default-x="80.21" default-y="-50.00">
				<pitch>
					<step>C</step>
					<octave>4</octave>
				</pitch>
				<duration>8</duration>
				<voice>2</voice>
				<type>whole</type>
				<notations>
					<slur number="2" placement="below" type="start"/>
				</notations>
			</note>
		</measure>
		<measure number="2" width="148.43">
			<note default-x="16.50" default-y="-25.00">
				<pitch>
					<step>A</step>
					<octave>4</octave>
				</pitch>
				<duration>4</duration>
				<voice>1</voice>
				<type>half</type>
				<stem>up</stem>
				<notations>
					<slur number="1" type="stop"/>
				</notations>
			</note>
			<note default-x="81.56" default-y="-25.00">
				<pitch>
					<step>A</step>
					<octave>4</octave>
				</pitch>
				<duration>4</duration>
				<voice>1</voice>
				<type>half</type>
				<stem>up</stem>
			</note>
			<backup>
				<duration>8</duration>
			</backup>
			<note default-x="16.50" default-y="-50.00">
				<pitch>
					<step>C</step>
					<octave>4</octave>
				</pitch>
				<duration>4</duration>
				<voice>2</voice>
				<type>half</type>
				<stem>up</stem>
				<notations>
					<slur number="2" type="stop"/>
				</notations>
			</note>
			<note default-x="81.56" default-y="-35.00">
				<pitch>
					<step>F</step>
					<octave>4</octave>
				</pitch>
				<duration>4</duration>
				<voice>2</voice>
				<type>half</type>
				<stem>up</stem>
			</note>
		</measure>
		<measure number="3" width="230.25">
			<note default-x="13.00" default-y="-30.00">
				<pitch>
					<step>G</step>
					<octave>4</octave>
				</pitch>
				<duration>3</duration>
				<voice>1</voice>
				<type>quarter</type>
				<dot/>
				<stem>up</stem>
			</note>
			<note default-x="83.01" default-y="-30.00">
				<pitch>
					<step>G</step>
					<octave>4</octave>
				</pitch>
				<duration>1</duration>
				<voice>1</voice>
				<type>eighth</type>
				<stem>up</stem>
			</note>
			<note default-x="118.89" default-y="-30.00">
				<pitch>
					<step>G</step>
					<octave>4</octave>
				</pitch>
				<duration>3</duration>
				<voice>1</voice>
				<type>quarter</type>
				<dot/>
				<stem>up</stem>
			</note>
			<note default-x="188.90" default-y="-30.00">
				<pitch>
					<step>G</step>
					<octave>4</octave>
				</pitch>
				<duration>1</duration>
				<voice>1</voice>
				<type>eighth</type>
				<stem>up</stem>
			</note>
			<backup>
				<duration>8</duration>
			</backup>
			<note default-x="13.00" default-y="-40.00">
				<pitch>
					<step>E</step>
					<octave>4</octave>
				</pitch>
				<duration>3</duration>
				<voice>2</voice>
				<type>quarter</type>
				<dot/>
				<stem>up</stem>
			</note>
			<note default-x="83.01" default-y="-40.00">
				<pitch>
					<step>E</step>
					<octave>4</octave>
				</pitch>
				<duration>1</duration>
				<voice>2</voice>
				<type>eighth</type>
				<stem>up</stem>
			</note>
			<note default-x="118.89" default-y="-40.00">
				<pitch>
					<step>E</step>
					<octave>4</octave>
				</pitch>
				<duration>3</duration>
				<voice>2</voice>
				<type>quarter</type>
				<dot/>
				<stem>up</stem>
			</note>
			<note default-x="188.90" default-y="-40.00">
				<pitch>
					<step>E</step>
					<octave>4</octave>
				</pitch>
				<duration>1</duration>
				<voice>2</voice>
				<type>eighth</type>
				<stem>up</stem>
			</note>
		</measure>
		<measure number="1" width="312.95">
			<print new-system="yes">
				<system-layout>
					<system-margins>
						<left-margin>50.00</left-margin>
						<right-margin>0.00</right-margin>
					</system-margins>
					<system-distance>100.00</system-distance>
				</system-layout>
			</print>
			<attributes>
				<divisions>2</divisions>
			</attributes>
			<note default-x="76.71" default-y="-35.00">
				<pitch>
					<step>F</step>
					<octave>4</octave>
				</pitch>
				<duration>2</duration>
				<voice>1</voice>
				<type>quarter</type>
				<stem>up</stem>
			</note>
			<note default-x="137.25" default-y="-30.00">
				<pitch>
					<step>G</step>
					<octave>4</octave>
				</pitch>
				<duration>2</duration>
				<voice>1</voice>
				<type>quarter</type>
				<stem>up</stem>
			</note>
			<note default-x="197.78" default-y="-25.00">
				<pitch>
					<step>A</step>
					<octave>4</octave>
				</pitch>
				<duration>3</duration>
				<voice>1</voice>
				<type>quarter</type>
				<dot/>
				<stem>up</stem>
			</note>
			<note default-x="271.59" default-y="-30.00">
				<pitch>
					<step>G</step>
					<octave>4</octave>
				</pitch>
				<duration>1</duration>
				<voice>1</voice>
				<type>eighth</type>
				<stem>up</stem>
			</note>
			<backup>
				<duration>8</duration>
			</backup>
			<note default-x="76.71" default-y="-35.00">
				<pitch>
					<step>F</step>
					<octave>4</octave>
				</pitch>
				<duration>2</duration>
				<voice>2</voice>
				<type>quarter</type>
				<stem>down</stem>
			</note>
			<note default-x="149.14" default-y="-35.00">
				<pitch>
					<step>F</step>
					<octave>4</octave>
				</pitch>
				<duration>2</duration>
				<voice>2</voice>
				<type>quarter</type>
				<stem>down</stem>
			</note>
			<note default-x="197.78" default-y="-35.00">
				<pitch>
					<step>F</step>
					<octave>4</octave>
				</pitch>
				<duration>3</duration>
				<voice>2</voice>
				<type>quarter</type>
				<dot/>
				<stem>up</stem>
			</note>
			<note default-x="271.59" default-y="-50.00">
				<pitch>
					<step>C</step>
					<octave>4</octave>
				</pitch>
				<duration>1</duration>
				<voice>2</voice>
				<type>eighth</type>
				<stem>up</stem>
			</note>
		</measure>
		<measure number="2" width="163.52">
			<note default-x="16.50" default-y="-35.00">
				<pitch>
					<step>F</step>
					<octave>4</octave>
				</pitch>
				<duration>4</duration>
				<voice>1</voice>
				<type>half</type>
				<stem>up</stem>
				<notations>
					<slur number="1" placement="above" type="start"/>
				</notations>
			</note>
			<note default-x="89.11" default-y="-30.00">
				<pitch>
					<step>G</step>
					<octave>4</octave>
				</pitch>
				<duration>4</duration>
				<voice>1</voice>
				<type>half</type>
				<stem>up</stem>
			</note>
			<backup>
				<duration>8</duration>
			</backup>
			<note default-x="16.50" default-y="-50.00">
				<pitch>
					<step>C</step>
					<octave>4</octave>
				</pitch>
				<duration>4</duration>
				<voice>2</voice>
				<type>half</type>
				<stem>up</stem>
				<notations>
					<slur number="2" placement="above" type="start"/>
				</notations>
			</note>
			<note default-x="89.11" default-y="-40.00">
				<pitch>
					<step>E</step>
					<octave>4</octave>
				</pitch>
				<duration>4</duration>
				<voice>2</voice>
				<type>half</type>
				<stem>up</stem>
			</note>
		</measure>
		<measure number="3" width="99.62">
			<note default-x="13.00" default-y="-25.00">
				<pitch>
					<step>A</step>
					<octave>4</octave>
				</pitch>
				<duration>4</duration>
				<voice>1</voice>
				<type>half</type>
				<stem>up</stem>
				<notations>
					<slur number="1" type="stop"/>
				</notations>
			</note>
			<backup>
				<duration>4</duration>
			</backup>
			<note default-x="13.00" default-y="-35.00">
				<pitch>
					<step>F</step>
					<octave>4</octave>
				</pitch>
				<duration>4</duration>
				<voice>2</voice>
				<type>half</type>
				<stem>up</stem>
				<notations>
					<slur number="2" type="stop"/>
				</notations>
			</note>
			<barline location="right">
				<bar-style>none</bar-style>
			</barline>
		</measure>
	</part>
</score-partwise>
