<?xml version="1.0" encoding="utf-8"?>
<!DOCTYPE score-partwise PUBLIC "-//Recordare//DTD MusicXML 3.1 Partwise//EN" "http://www.musicxml.org/dtds/partwise.dtd">
<score-partwise version="3.1">
	<identification>
		<encoding>
			<software>MuseScore 3.6.2</software>
			<encoding-date>2021-04-17</encoding-date>
			<supports element="accidental" type="yes"/>
			<supports element="beam" type="yes"/>
			<supports attribute="new-page" element="print" type="yes" value="yes"/>
			<supports attribute="new-system" element="print" type="yes" value="yes"/>
			<supports element="stem" type="yes"/>
		</encoding>
	</identification>
	<defaults>
		<scaling>
			<millimeters>7.0104</millimeters>
			<tenths>40</tenths>
		</scaling>
		<page-layout>
			<page-height>1694.2</page-height>
			<page-width>797.101</page-width>
			<page-margins type="even">
				<left-margin>85.5072</left-margin>
				<right-margin>42.029</right-margin>
				<top-margin>85.5072</top-margin>
				<bottom-margin>85.5072</bottom-margin>
			</page-margins>
			<page-margins type="odd">
				<left-margin>42.029</left-margin>
				<right-margin>85.5072</right-margin>
				<top-margin>85.5072</top-margin>
				<bottom-margin>85.5072</bottom-margin>
			</page-margins>
		</page-layout>
		<word-font font-family="Edwin" font-size="10"/>
		<lyric-font font-family="Edwin" font-size="10"/>
	</defaults>
	<part-list>
		<part-group number="1" type="start">
			<group-symbol>bracket</group-symbol>
		</part-group>
		<score-part id="P1">
			<part-name>Piano</part-name>
			<part-abbreviation>Pno.</part-abbreviation>
			<score-instrument id="P1-I1">
				<instrument-name>Piano</instrument-name>
			</score-instrument>
			<midi-device id="P1-I1" port="1"/>
			<midi-instrument id="P1-I1">
				<midi-channel>1</midi-channel>
				<midi-program>1</midi-program>
				<volume>78.7402</volume>
				<pan>0</pan>
			</midi-instrument>
		</score-part>
		<part-group number="1" type="stop"/>
	</part-list>
	<part id="P1">
		<measure implicit="yes" number="0" width="178.26">
			<print>
				<system-layout>
					<system-margins>
						<left-margin>58.23</left-margin>
						<right-margin>0.00</right-margin>
					</system-margins>
					<top-system-distance>70.00</top-system-distance>
				</system-layout>
				<staff-layout number="2">
					<staff-distance>94.79</staff-distance>
				</staff-layout>
			</print>
			<attributes>
				<divisions>2</divisions>
				<key>
					<fifths>0</fifths>
				</key>
				<time>
					<beats>4</beats>
					<beat-type>4</beat-type>
				</time>
				<staves>2</staves>
				<clef number="1">
					<sign>G</sign>
					<line>2</line>
				</clef>
				<clef number="2">
					<sign>F</sign>
					<line>4</line>
				</clef>
			</attributes>
			<note default-x="98.57" default-y="-40.00">
				<pitch>
					<step>E</step>
					<octave>4</octave>
				</pitch>
				<duration>2</duration>
				<voice>1</voice>
				<type>quarter</type>
				<stem>up</stem>
				<staff>1</staff>
				<lyric default-x="6.50" default-y="-58.42" number="1" relative-y="-30.00">
					<syllabic>single</syllabic>
					<text font-size="8">Let</text>
				</lyric>
			</note>
			<note default-x="137.51" default-y="-35.00">
				<pitch>
					<step>F</step>
					<octave>4</octave>
				</pitch>
				<duration>2</duration>
				<voice>1</voice>
				<type>quarter</type>
				<stem>up</stem>
				<staff>1</staff>
				<lyric default-x="6.50" default-y="-58.42" number="1" relative-y="-30.00">
					<syllabic>single</syllabic>
					<text font-size="8">us</text>
				</lyric>
			</note>
			<backup>
				<duration>4</duration>
			</backup>
			<note default-x="98.57" default-y="-40.00">
				<pitch>
					<step>E</step>
					<octave>4</octave>
				</pitch>
				<duration>2</duration>
				<voice>2</voice>
				<type>quarter</type>
				<stem>down</stem>
				<staff>1</staff>
			</note>
			<note default-x="137.51" default-y="-35.00">
				<pitch>
					<step>F</step>
					<octave>4</octave>
				</pitch>
				<duration>2</duration>
				<voice>2</voice>
				<type>quarter</type>
				<stem>down</stem>
				<staff>1</staff>
			</note>
			<backup>
				<duration>4</duration>
			</backup>
			<note default-x="98.57" default-y="-149.79">
				<pitch>
					<step>E</step>
					<octave>3</octave>
				</pitch>
				<duration>2</duration>
				<voice>5</voice>
				<type>quarter</type>
				<stem>up</stem>
				<staff>2</staff>
			</note>
			<note default-x="137.51" default-y="-144.79">
				<pitch>
					<step>F</step>
					<octave>3</octave>
				</pitch>
				<duration>2</duration>
				<voice>5</voice>
				<type>quarter</type>
				<stem>up</stem>
				<staff>2</staff>
			</note>
			<backup>
				<duration>4</duration>
			</backup>
			<note default-x="98.57" default-y="-149.79">
				<pitch>
					<step>E</step>
					<octave>3</octave>
				</pitch>
				<duration>2</duration>
				<voice>6</voice>
				<type>quarter</type>
				<stem>down</stem>
				<staff>2</staff>
			</note>
			<note default-x="137.51" default-y="-144.79">
				<pitch>
					<step>F</step>
					<octave>3</octave>
				</pitch>
				<duration>2</duration>
				<voice>6</voice>
				<type>quarter</type>
				<stem>down</stem>
				<staff>2</staff>
			</note>
		</measure>
		<measure number="1" width="214.47">
			<note default-x="27.52" default-y="-30.00">
				<pitch>
					<step>G</step>
					<octave>4</octave>
				</pitch>
				<duration>3</duration>
				<voice>1</voice>
				<type>quarter</type>
				<dot/>
				<stem>up</stem>
				<staff>1</staff>
				<lyric default-x="6.50" default-y="-58.42" number="1" relative-y="-30.00">
					<syllabic>single</syllabic>
					<text font-size="8">cheer</text>
				</lyric>
			</note>
			<note default-x="86.02" default-y="-30.00">
				<pitch>
					<step>G</step>
					<octave>4</octave>
				</pitch>
				<duration>1</duration>
				<voice>1</voice>
				<type>eighth</type>
				<stem>up</stem>
				<staff>1</staff>
				<lyric default-x="6.50" default-y="-58.42" number="1" relative-y="-30.00">
					<syllabic>single</syllabic>
					<text font-size="8">the</text>
				</lyric>
			</note>
			<note default-x="116.71" default-y="-5.00">
				<pitch>
					<step>E</step>
					<octave>5</octave>
				</pitch>
				<duration>2</duration>
				<voice>1</voice>
				<type>quarter</type>
				<stem>up</stem>
				<staff>1</staff>
				<lyric default-x="6.50" default-y="-58.42" number="1" relative-y="-30.00">
					<syllabic>begin</syllabic>
					<text font-size="8">wea</text>
				</lyric>
			</note>
			<note default-x="164.69" default-y="-5.00">
				<pitch>
					<step>E</step>
					<octave>5</octave>
				</pitch>
				<duration>2</duration>
				<voice>1</voice>
				<type>quarter</type>
				<stem>up</stem>
				<staff>1</staff>
				<lyric default-x="6.50" default-y="-58.42" number="1" relative-y="-30.00">
					<syllabic>end</syllabic>
					<text font-size="8">ry</text>
				</lyric>
			</note>
			<backup>
				<duration>8</duration>
			</backup>
			<note default-x="27.52" default-y="-30.00">
				<pitch>
					<step>G</step>
					<octave>4</octave>
				</pitch>
				<duration>3</duration>
				<voice>2</voice>
				<type>quarter</type>
				<dot/>
				<stem>down</stem>
				<staff>1</staff>
			</note>
			<note default-x="86.02" default-y="-30.00">
				<pitch>
					<step>G</step>
					<octave>4</octave>
				</pitch>
				<duration>1</duration>
				<voice>2</voice>
				<type>eighth</type>
				<stem>down</stem>
				<staff>1</staff>
			</note>
			<note default-x="116.71" default-y="-5.00">
				<pitch>
					<step>E</step>
					<octave>5</octave>
				</pitch>
				<duration>2</duration>
				<voice>2</voice>
				<type>quarter</type>
				<stem>down</stem>
				<staff>1</staff>
			</note>
			<note default-x="164.69" default-y="-5.00">
				<pitch>
					<step>E</step>
					<octave>5</octave>
				</pitch>
				<duration>2</duration>
				<voice>2</voice>
				<type>quarter</type>
				<stem>down</stem>
				<staff>1</staff>
			</note>
			<backup>
				<duration>8</duration>
			</backup>
			<note default-x="27.52" default-y="-139.79">
				<pitch>
					<step>G</step>
					<octave>3</octave>
				</pitch>
				<duration>3</duration>
				<voice>5</voice>
				<type>quarter</type>
				<dot/>
				<stem>up</stem>
				<staff>2</staff>
			</note>
			<note default-x="86.02" default-y="-139.79">
				<pitch>
					<step>G</step>
					<octave>3</octave>
				</pitch>
				<duration>1</duration>
				<voice>5</voice>
				<type>eighth</type>
				<stem>up</stem>
				<staff>2</staff>
			</note>
			<note default-x="116.71" default-y="-114.79">
				<pitch>
					<step>E</step>
					<octave>4</octave>
				</pitch>
				<duration>2</duration>
				<voice>5</voice>
				<type>quarter</type>
				<stem>up</stem>
				<staff>2</staff>
			</note>
			<note default-x="164.69" default-y="-114.79">
				<pitch>
					<step>E</step>
					<octave>4</octave>
				</pitch>
				<duration>2</duration>
				<voice>5</voice>
				<type>quarter</type>
				<stem>up</stem>
				<staff>2</staff>
			</note>
			<backup>
				<duration>8</duration>
			</backup>
			<note default-x="27.52" default-y="-139.79">
				<pitch>
					<step>G</step>
					<octave>3</octave>
				</pitch>
				<duration>3</duration>
				<voice>6</voice>
				<type>quarter</type>
				<dot/>
				<stem>down</stem>
				<staff>2</staff>
			</note>
			<note default-x="86.02" default-y="-139.79">
				<pitch>
					<step>G</step>
					<octave>3</octave>
				</pitch>
				<duration>1</duration>
				<voice>6</voice>
				<type>eighth</type>
				<stem>down</stem>
				<staff>2</staff>
			</note>
			<note default-x="116.71" default-y="-114.79">
				<pitch>
					<step>E</step>
					<octave>4</octave>
				</pitch>
				<duration>2</duration>
				<voice>6</voice>
				<type>quarter</type>
				<stem>down</stem>
				<staff>2</staff>
			</note>
			<note default-x="164.69" default-y="-114.79">
				<pitch>
					<step>E</step>
					<octave>4</octave>
				</pitch>
				<duration>2</duration>
				<voice>6</voice>
				<type>quarter</type>
				<stem>down</stem>
				<staff>2</staff>
			</note>
		</measure>
		<measure number="2" width="218.61">
			<note default-x="23.03" default-y="-15.00">
				<pitch>
					<step>C</step>
					<octave>5</octave>
				</pitch>
				<duration>1</duration>
				<voice>1</voice>
				<type>eighth</type>
				<stem>up</stem>
				<staff>1</staff>
				<lyric default-x="6.50" default-y="-58.42" number="1" relative-y="-30.00">
					<syllabic>begin</syllabic>
					<text font-size="8">trav</text>
				</lyric>
			</note>
			<note default-x="52.61" default-y="-30.00">
				<pitch>
					<step>G</step>
					<octave>4</octave>
				</pitch>
				<duration>1</duration>
				<voice>1</voice>
				<type>eighth</type>
				<stem>up</stem>
				<staff>1</staff>
				<lyric default-x="6.50" default-y="-58.42" number="1" relative-y="-30.00">
					<syllabic>middle</syllabic>
					<text font-size="8">el</text>
				</lyric>
			</note>
			<note default-x="82.19" default-y="-30.00">
				<pitch>
					<step>G</step>
					<octave>4</octave>
				</pitch>
				<duration>3</duration>
				<voice>1</voice>
				<type>quarter</type>
				<dot/>
				<stem>up</stem>
				<staff>1</staff>
				<notations>
					<slur number="1" placement="above" type="start"/>
				</notations>
				<lyric default-x="8.40" default-y="-58.42" number="1" relative-y="-30.00">
					<syllabic>end</syllabic>
					<text font-size="8">ler,</text>
				</lyric>
			</note>
			<note default-x="139.90" default-y="-35.00">
				<pitch>
					<step>F</step>
					<octave>4</octave>
				</pitch>
				<duration>1</duration>
				<voice>1</voice>
				<type>eighth</type>
				<stem>up</stem>
				<staff>1</staff>
				<lyric default-x="6.50" default-y="-58.42" number="1" relative-y="-30.00">
					<syllabic>single</syllabic>
					<text font-size="8">.</text>
				</lyric>
			</note>
			<note default-x="169.48" default-y="-40.00">
				<pitch>
					<step>E</step>
					<octave>4</octave>
				</pitch>
				<duration>2</duration>
				<voice>1</voice>
				<type>quarter</type>
				<stem>up</stem>
				<staff>1</staff>
				<notations>
					<slur number="1" type="stop"/>
				</notations>
				<lyric default-x="6.50" default-y="-58.42" number="1" relative-y="-30.00">
					<syllabic>single</syllabic>
					<text font-size="8">.</text>
				</lyric>
			</note>
			<backup>
				<duration>8</duration>
			</backup>
			<note default-x="23.03" default-y="-15.00">
				<pitch>
					<step>C</step>
					<octave>5</octave>
				</pitch>
				<duration>1</duration>
				<voice>2</voice>
				<type>eighth</type>
				<stem>down</stem>
				<staff>1</staff>
			</note>
			<note default-x="52.61" default-y="-30.00">
				<pitch>
					<step>G</step>
					<octave>4</octave>
				</pitch>
				<duration>1</duration>
				<voice>2</voice>
				<type>eighth</type>
				<stem>down</stem>
				<staff>1</staff>
			</note>
			<note default-x="82.19" default-y="-30.00">
				<pitch>
					<step>G</step>
					<octave>4</octave>
				</pitch>
				<duration>3</duration>
				<voice>2</voice>
				<type>quarter</type>
				<dot/>
				<stem>down</stem>
				<staff>1</staff>
			</note>
			<note default-x="139.90" default-y="-35.00">
				<pitch>
					<step>F</step>
					<octave>4</octave>
				</pitch>
				<duration>1</duration>
				<voice>2</voice>
				<type>eighth</type>
				<stem>down</stem>
				<staff>1</staff>
			</note>
			<note default-x="169.48" default-y="-40.00">
				<pitch>
					<step>E</step>
					<octave>4</octave>
				</pitch>
				<duration>2</duration>
				<voice>2</voice>
				<type>quarter</type>
				<stem>down</stem>
				<staff>1</staff>
			</note>
			<backup>
				<duration>8</duration>
			</backup>
			<note default-x="23.03" default-y="-124.79">
				<pitch>
					<step>C</step>
					<octave>4</octave>
				</pitch>
				<duration>1</duration>
				<voice>5</voice>
				<type>eighth</type>
				<stem>up</stem>
				<staff>2</staff>
			</note>
			<note default-x="52.61" default-y="-139.79">
				<pitch>
					<step>G</step>
					<octave>3</octave>
				</pitch>
				<duration>1</duration>
				<voice>5</voice>
				<type>eighth</type>
				<stem>up</stem>
				<staff>2</staff>
			</note>
			<note default-x="82.19" default-y="-139.79">
				<pitch>
					<step>G</step>
					<octave>3</octave>
				</pitch>
				<duration>3</duration>
				<voice>5</voice>
				<type>quarter</type>
				<dot/>
				<stem>up</stem>
				<staff>2</staff>
			</note>
			<note default-x="139.90" default-y="-144.79">
				<pitch>
					<step>F</step>
					<octave>3</octave>
				</pitch>
				<duration>1</duration>
				<voice>5</voice>
				<type>eighth</type>
				<stem>up</stem>
				<staff>2</staff>
			</note>
			<note default-x="169.48" default-y="-149.79">
				<pitch>
					<step>E</step>
					<octave>3</octave>
				</pitch>
				<duration>2</duration>
				<voice>5</voice>
				<type>quarter</type>
				<stem>up</stem>
				<staff>2</staff>
			</note>
			<backup>
				<duration>8</duration>
			</backup>
			<note default-x="23.03" default-y="-124.79">
				<pitch>
					<step>C</step>
					<octave>4</octave>
				</pitch>
				<duration>1</duration>
				<voice>6</voice>
				<type>eighth</type>
				<stem>down</stem>
				<staff>2</staff>
			</note>
			<note default-x="52.61" default-y="-139.79">
				<pitch>
					<step>G</step>
					<octave>3</octave>
				</pitch>
				<duration>1</duration>
				<voice>6</voice>
				<type>eighth</type>
				<stem>down</stem>
				<staff>2</staff>
			</note>
			<note default-x="82.19" default-y="-139.79">
				<pitch>
					<step>G</step>
					<octave>3</octave>
				</pitch>
				<duration>3</duration>
				<voice>6</voice>
				<type>quarter</type>
				<dot/>
				<stem>down</stem>
				<staff>2</staff>
				<notations>
					<slur number="1" placement="below" type="start"/>
				</notations>
			</note>
			<note default-x="139.90" default-y="-144.79">
				<pitch>
					<step>F</step>
					<octave>3</octave>
				</pitch>
				<duration>1</duration>
				<voice>6</voice>
				<type>eighth</type>
				<stem>down</stem>
				<staff>2</staff>
			</note>
			<note default-x="169.48" default-y="-149.79">
				<pitch>
					<step>E</step>
					<octave>3</octave>
				</pitch>
				<duration>2</duration>
				<voice>6</voice>
				<type>quarter</type>
				<stem>down</stem>
				<staff>2</staff>
				<notations>
					<slur number="1" type="stop"/>
				</notations>
			</note>
		</measure>
		<measure number="1" width="324.92">
			<print new-system="yes">
				<system-layout>
					<system-margins>
						<left-margin>58.23</left-margin>
						<right-margin>0.00</right-margin>
					</system-margins>
					<system-distance>55.00</system-distance>
				</system-layout>
				<staff-layout number="2">
					<staff-distance>89.45</staff-distance>
				</staff-layout>
			</print>
			<attributes>
				<divisions>2</divisions>
				<staves>2</staves>
			</attributes>
			<note default-x="76.44" default-y="-30.00">
				<pitch>
					<step>G</step>
					<octave>4</octave>
				</pitch>
				<duration>3</duration>
				<voice>1</voice>
				<type>quarter</type>
				<dot/>
				<stem>up</stem>
				<staff>1</staff>
				<lyric default-x="6.50" default-y="-72.41" number="1" relative-y="-30.00">
					<syllabic>single</syllabic>
					<text font-size="8">Cheer</text>
				</lyric>
			</note>
			<note default-x="154.68" default-y="-45.00">
				<pitch>
					<step>D</step>
					<octave>4</octave>
				</pitch>
				<duration>1</duration>
				<voice>1</voice>
				<type>eighth</type>
				<stem>up</stem>
				<staff>1</staff>
				<lyric default-x="6.50" default-y="-72.41" number="1" relative-y="-30.00">
					<syllabic>single</syllabic>
					<text font-size="8">the</text>
				</lyric>
			</note>
			<note default-x="194.79" default-y="-30.00">
				<pitch>
					<step>G</step>
					<octave>4</octave>
				</pitch>
				<duration>2</duration>
				<voice>1</voice>
				<type>quarter</type>
				<stem>up</stem>
				<staff>1</staff>
				<lyric default-x="6.50" default-y="-72.41" number="1" relative-y="-30.00">
					<syllabic>begin</syllabic>
					<text font-size="8">wea</text>
				</lyric>
			</note>
			<note default-x="258.96" default-y="-30.00">
				<pitch>
					<step>G</step>
					<octave>4</octave>
				</pitch>
				<duration>2</duration>
				<voice>1</voice>
				<type>quarter</type>
				<stem>up</stem>
				<staff>1</staff>
				<lyric default-x="6.50" default-y="-72.41" number="1" relative-y="-30.00">
					<syllabic>single</syllabic>
					<text font-size="8">ry</text>
				</lyric>
			</note>
			<backup>
				<duration>8</duration>
			</backup>
			<note default-x="76.44" default-y="-30.00">
				<pitch>
					<step>G</step>
					<octave>4</octave>
				</pitch>
				<duration>3</duration>
				<voice>2</voice>
				<type>quarter</type>
				<dot/>
				<stem>down</stem>
				<staff>1</staff>
			</note>
			<note default-x="154.68" default-y="-45.00">
				<pitch>
					<step>D</step>
					<octave>4</octave>
				</pitch>
				<duration>1</duration>
				<voice>2</voice>
				<type>eighth</type>
				<stem>down</stem>
				<staff>1</staff>
			</note>
			<note default-x="194.79" default-y="-30.00">
				<pitch>
					<step>G</step>
					<octave>4</octave>
				</pitch>
				<duration>2</duration>
				<voice>2</voice>
				<type>quarter</type>
				<stem>down</stem>
				<staff>1</staff>
			</note>
			<note default-x="258.96" default-y="-30.00">
				<pitch>
					<step>G</step>
					<octave>4</octave>
				</pitch>
				<duration>2</duration>
				<voice>2</voice>
				<type>quarter</type>
				<stem>down</stem>
				<staff>1</staff>
			</note>
			<backup>
				<duration>8</duration>
			</backup>
			<note default-x="76.44" default-y="-129.45">
				<pitch>
					<step>A</step>
					<octave>3</octave>
				</pitch>
				<duration>3</duration>
				<voice>5</voice>
				<type>quarter</type>
				<dot/>
				<stem>up</stem>
				<staff>2</staff>
			</note>
			<note default-x="154.68" default-y="-149.45">
				<pitch>
					<step>D</step>
					<octave>3</octave>
				</pitch>
				<duration>1</duration>
				<voice>5</voice>
				<type>eighth</type>
				<stem>up</stem>
				<staff>2</staff>
			</note>
			<note default-x="194.79" default-y="-134.45">
				<pitch>
					<step>G</step>
					<octave>3</octave>
				</pitch>
				<duration>2</duration>
				<voice>5</voice>
				<type>quarter</type>
				<stem>up</stem>
				<staff>2</staff>
			</note>
			<note default-x="258.96" default-y="-134.45">
				<pitch>
					<step>G</step>
					<octave>3</octave>
				</pitch>
				<duration>2</duration>
				<voice>5</voice>
				<type>quarter</type>
				<stem>up</stem>
				<staff>2</staff>
			</note>
			<backup>
				<duration>8</duration>
			</backup>
			<note default-x="76.44" default-y="-129.45">
				<pitch>
					<step>A</step>
					<octave>3</octave>
				</pitch>
				<duration>3</duration>
				<voice>6</voice>
				<type>quarter</type>
				<dot/>
				<stem>down</stem>
				<staff>2</staff>
			</note>
			<note default-x="154.68" default-y="-149.45">
				<pitch>
					<step>D</step>
					<octave>3</octave>
				</pitch>
				<duration>1</duration>
				<voice>6</voice>
				<type>eighth</type>
				<stem>down</stem>
				<staff>2</staff>
			</note>
			<note default-x="194.79" default-y="-134.45">
				<pitch>
					<step>G</step>
					<octave>3</octave>
				</pitch>
				<duration>2</duration>
				<voice>6</voice>
				<type>quarter</type>
				<stem>down</stem>
				<staff>2</staff>
			</note>
			<note default-x="258.96" default-y="-134.45">
				<pitch>
					<step>G</step>
					<octave>3</octave>
				</pitch>
				<duration>2</duration>
				<voice>6</voice>
				<type>quarter</type>
				<stem>down</stem>
				<staff>2</staff>
			</note>
		</measure>
		<measure number="2" width="286.41">
			<note default-x="23.03" default-y="-40.00">
				<pitch>
					<step>E</step>
					<octave>4</octave>
				</pitch>
				<duration>1</duration>
				<voice>1</voice>
				<type>eighth</type>
				<stem>up</stem>
				<staff>1</staff>
				<lyric default-x="6.50" default-y="-72.41" number="1" relative-y="-30.00">
					<syllabic>begin</syllabic>
					<text font-size="8">trav</text>
				</lyric>
			</note>
			<note default-x="61.50" default-y="-45.00">
				<pitch>
					<step>D</step>
					<octave>4</octave>
				</pitch>
				<duration>1</duration>
				<voice>1</voice>
				<type>eighth</type>
				<stem>up</stem>
				<staff>1</staff>
				<lyric default-x="6.50" default-y="-72.41" number="1" relative-y="-30.00">
					<syllabic>middle</syllabic>
					<text font-size="8">el</text>
				</lyric>
			</note>
			<note default-x="99.97" default-y="-50.00">
				<pitch>
					<step>C</step>
					<octave>4</octave>
				</pitch>
				<duration>2</duration>
				<voice>1</voice>
				<type>quarter</type>
				<stem>up</stem>
				<staff>1</staff>
				<lyric default-x="8.40" default-y="-72.41" number="1" relative-y="-30.00">
					<syllabic>end</syllabic>
					<text font-size="8">ler,</text>
				</lyric>
			</note>
			<note default-x="161.51" default-y="-40.00">
				<pitch>
					<step>E</step>
					<octave>4</octave>
				</pitch>
				<duration>2</duration>
				<voice>1</voice>
				<type>quarter</type>
				<stem>up</stem>
				<staff>1</staff>
				<lyric default-x="6.50" default-y="-72.41" number="1" relative-y="-30.00">
					<syllabic>single</syllabic>
					<text font-size="8">Let</text>
				</lyric>
			</note>
			<note default-x="223.06" default-y="-35.00">
				<pitch>
					<step>F</step>
					<octave>4</octave>
				</pitch>
				<duration>2</duration>
				<voice>1</voice>
				<type>quarter</type>
				<stem>up</stem>
				<staff>1</staff>
				<lyric default-x="6.50" default-y="-72.41" number="1" relative-y="-30.00">
					<syllabic>single</syllabic>
					<text font-size="8">us</text>
				</lyric>
			</note>
			<backup>
				<duration>8</duration>
			</backup>
			<note default-x="23.03" default-y="-40.00">
				<pitch>
					<step>E</step>
					<octave>4</octave>
				</pitch>
				<duration>1</duration>
				<voice>2</voice>
				<type>eighth</type>
				<stem>down</stem>
				<staff>1</staff>
			</note>
			<note default-x="61.50" default-y="-45.00">
				<pitch>
					<step>D</step>
					<octave>4</octave>
				</pitch>
				<duration>1</duration>
				<voice>2</voice>
				<type>eighth</type>
				<stem>down</stem>
				<staff>1</staff>
			</note>
			<note default-x="99.97" default-y="-50.00">
				<pitch>
					<step>C</step>
					<octave>4</octave>
				</pitch>
				<duration>2</duration>
				<voice>2</voice>
				<type>quarter</type>
				<stem>down</stem>
				<staff>1</staff>
			</note>
			<note default-x="161.51" default-y="-40.00">
				<pitch>
					<step>E</step>
					<octave>4</octave>
				</pitch>
				<duration>2</duration>
				<voice>2</voice>
				<type>quarter</type>
				<stem>down</stem>
				<staff>1</staff>
			</note>
			<note default-x="223.06" default-y="-35.00">
				<pitch>
					<step>F</step>
					<octave>4</octave>
				</pitch>
				<duration>2</duration>
				<voice>2</voice>
				<type>quarter</type>
				<stem>down</stem>
				<staff>1</staff>
			</note>
			<backup>
				<duration>8</duration>
			</backup>
			<note default-x="23.03" default-y="-144.45">
				<pitch>
					<step>E</step>
					<octave>3</octave>
				</pitch>
				<duration>1</duration>
				<voice>5</voice>
				<type>eighth</type>
				<stem>up</stem>
				<staff>2</staff>
			</note>
			<note default-x="61.50" default-y="-149.45">
				<pitch>
					<step>D</step>
					<octave>3</octave>
				</pitch>
				<duration>1</duration>
				<voice>5</voice>
				<type>eighth</type>
				<stem>up</stem>
				<staff>2</staff>
			</note>
			<note default-x="99.97" default-y="-154.45">
				<pitch>
					<step>C</step>
					<octave>3</octave>
				</pitch>
				<duration>2</duration>
				<voice>5</voice>
				<type>quarter</type>
				<stem>up</stem>
				<staff>2</staff>
			</note>
			<note default-x="161.51" default-y="-144.45">
				<pitch>
					<step>E</step>
					<octave>3</octave>
				</pitch>
				<duration>2</duration>
				<voice>5</voice>
				<type>quarter</type>
				<stem>up</stem>
				<staff>2</staff>
			</note>
			<note default-x="223.06" default-y="-139.45">
				<pitch>
					<step>F</step>
					<octave>3</octave>
				</pitch>
				<duration>2</duration>
				<voice>5</voice>
				<type>quarter</type>
				<stem>up</stem>
				<staff>2</staff>
			</note>
			<backup>
				<duration>8</duration>
			</backup>
			<note default-x="23.03" default-y="-144.45">
				<pitch>
					<step>E</step>
					<octave>3</octave>
				</pitch>
				<duration>1</duration>
				<voice>6</voice>
				<type>eighth</type>
				<stem>down</stem>
				<staff>2</staff>
			</note>
			<note default-x="61.50" default-y="-149.45">
				<pitch>
					<step>D</step>
					<octave>3</octave>
				</pitch>
				<duration>1</duration>
				<voice>6</voice>
				<type>eighth</type>
				<stem>down</stem>
				<staff>2</staff>
			</note>
			<note default-x="99.97" default-y="-154.45">
				<pitch>
					<step>C</step>
					<octave>3</octave>
				</pitch>
				<duration>2</duration>
				<voice>6</voice>
				<type>quarter</type>
				<stem>down</stem>
				<staff>2</staff>
			</note>
			<note default-x="161.51" default-y="-144.45">
				<pitch>
					<step>E</step>
					<octave>3</octave>
				</pitch>
				<duration>2</duration>
				<voice>6</voice>
				<type>quarter</type>
				<stem>down</stem>
				<staff>2</staff>
			</note>
			<note default-x="223.06" default-y="-139.45">
				<pitch>
					<step>F</step>
					<octave>3</octave>
				</pitch>
				<duration>2</duration>
				<voice>6</voice>
				<type>quarter</type>
				<stem>down</stem>
				<staff>2</staff>
			</note>
		</measure>
		<measure number="1" width="344.10">
			<print new-system="yes">
				<system-layout>
					<system-margins>
						<left-margin>58.23</left-margin>
						<right-margin>0.00</right-margin>
					</system-margins>
					<system-distance>55.00</system-distance>
				</system-layout>
				<staff-layout number="2">
					<staff-distance>93.78</staff-distance>
				</staff-layout>
			</print>
			<attributes>
				<divisions>2</divisions>
				<staves>2</staves>
			</attributes>
			<note default-x="76.44" default-y="-30.00">
				<pitch>
					<step>G</step>
					<octave>4</octave>
				</pitch>
				<duration>3</duration>
				<voice>1</voice>
				<type>quarter</type>
				<dot/>
				<stem>up</stem>
				<staff>1</staff>
				<lyric default-x="6.50" default-y="-57.41" number="1" relative-y="-30.00">
					<syllabic>single</syllabic>
					<text font-size="8">cheer</text>
				</lyric>
			</note>
			<note default-x="160.76" default-y="-30.00">
				<pitch>
					<step>G</step>
					<octave>4</octave>
				</pitch>
				<duration>1</duration>
				<voice>1</voice>
				<type>eighth</type>
				<stem>up</stem>
				<staff>1</staff>
				<lyric default-x="6.50" default-y="-57.41" number="1" relative-y="-30.00">
					<syllabic>single</syllabic>
					<text font-size="8">the</text>
				</lyric>
			</note>
			<note default-x="203.99" default-y="-5.00">
				<pitch>
					<step>E</step>
					<octave>5</octave>
				</pitch>
				<duration>2</duration>
				<voice>1</voice>
				<type>quarter</type>
				<stem>up</stem>
				<staff>1</staff>
				<lyric default-x="6.50" default-y="-57.41" number="1" relative-y="-30.00">
					<syllabic>begin</syllabic>
					<text font-size="8">wea</text>
				</lyric>
			</note>
			<note default-x="273.14" default-y="-5.00">
				<pitch>
					<step>E</step>
					<octave>5</octave>
				</pitch>
				<duration>2</duration>
				<voice>1</voice>
				<type>quarter</type>
				<stem>up</stem>
				<staff>1</staff>
				<lyric default-x="6.50" default-y="-57.41" number="1" relative-y="-30.00">
					<syllabic>end</syllabic>
					<text font-size="8">ry</text>
				</lyric>
			</note>
			<backup>
				<duration>8</duration>
			</backup>
			<note default-x="76.44" default-y="-30.00">
				<pitch>
					<step>G</step>
					<octave>4</octave>
				</pitch>
				<duration>3</duration>
				<voice>2</voice>
				<type>quarter</type>
				<dot/>
				<stem>down</stem>
				<staff>1</staff>
			</note>
			<note default-x="160.76" default-y="-30.00">
				<pitch>
					<step>G</step>
					<octave>4</octave>
				</pitch>
				<duration>1</duration>
				<voice>2</voice>
				<type>eighth</type>
				<stem>down</stem>
				<staff>1</staff>
			</note>
			<note default-x="203.99" default-y="-5.00">
				<pitch>
					<step>E</step>
					<octave>5</octave>
				</pitch>
				<duration>2</duration>
				<voice>2</voice>
				<type>quarter</type>
				<stem>down</stem>
				<staff>1</staff>
			</note>
			<note default-x="273.14" default-y="-5.00">
				<pitch>
					<step>E</step>
					<octave>5</octave>
				</pitch>
				<duration>2</duration>
				<voice>2</voice>
				<type>quarter</type>
				<stem>down</stem>
				<staff>1</staff>
			</note>
			<backup>
				<duration>8</duration>
			</backup>
			<note default-x="76.44" default-y="-138.78">
				<pitch>
					<step>G</step>
					<octave>3</octave>
				</pitch>
				<duration>3</duration>
				<voice>5</voice>
				<type>quarter</type>
				<dot/>
				<stem>up</stem>
				<staff>2</staff>
			</note>
			<note default-x="160.76" default-y="-138.78">
				<pitch>
					<step>G</step>
					<octave>3</octave>
				</pitch>
				<duration>1</duration>
				<voice>5</voice>
				<type>eighth</type>
				<stem>up</stem>
				<staff>2</staff>
			</note>
			<note default-x="203.99" default-y="-113.78">
				<pitch>
					<step>E</step>
					<octave>4</octave>
				</pitch>
				<duration>2</duration>
				<voice>5</voice>
				<type>quarter</type>
				<stem>up</stem>
				<staff>2</staff>
			</note>
			<note default-x="273.14" default-y="-113.78">
				<pitch>
					<step>E</step>
					<octave>4</octave>
				</pitch>
				<duration>2</duration>
				<voice>5</voice>
				<type>quarter</type>
				<stem>up</stem>
				<staff>2</staff>
			</note>
			<backup>
				<duration>8</duration>
			</backup>
			<note default-x="76.44" default-y="-138.78">
				<pitch>
					<step>G</step>
					<octave>3</octave>
				</pitch>
				<duration>3</duration>
				<voice>6</voice>
				<type>quarter</type>
				<dot/>
				<stem>down</stem>
				<staff>2</staff>
			</note>
			<note default-x="160.76" default-y="-138.78">
				<pitch>
					<step>G</step>
					<octave>3</octave>
				</pitch>
				<duration>1</duration>
				<voice>6</voice>
				<type>eighth</type>
				<stem>down</stem>
				<staff>2</staff>
			</note>
			<note default-x="203.99" default-y="-113.78">
				<pitch>
					<step>E</step>
					<octave>4</octave>
				</pitch>
				<duration>2</duration>
				<voice>6</voice>
				<type>quarter</type>
				<stem>down</stem>
				<staff>2</staff>
			</note>
			<note default-x="273.14" default-y="-113.78">
				<pitch>
					<step>E</step>
					<octave>4</octave>
				</pitch>
				<duration>2</duration>
				<voice>6</voice>
				<type>quarter</type>
				<stem>down</stem>
				<staff>2</staff>
			</note>
		</measure>
		<measure number="2" width="267.23">
			<note default-x="23.03" default-y="-15.00">
				<pitch>
					<step>C</step>
					<octave>5</octave>
				</pitch>
				<duration>1</duration>
				<voice>1</voice>
				<type>eighth</type>
				<stem>up</stem>
				<staff>1</staff>
				<lyric default-x="6.50" default-y="-57.41" number="1" relative-y="-30.00">
					<syllabic>begin</syllabic>
					<text font-size="8">trav</text>
				</lyric>
			</note>
			<note default-x="64.83" default-y="-30.00">
				<pitch>
					<step>G</step>
					<octave>4</octave>
				</pitch>
				<duration>1</duration>
				<voice>1</voice>
				<type>eighth</type>
				<stem>up</stem>
				<staff>1</staff>
				<lyric default-x="6.50" default-y="-57.41" number="1" relative-y="-30.00">
					<syllabic>middle</syllabic>
					<text font-size="8">el</text>
				</lyric>
			</note>
			<note default-x="106.62" default-y="-30.00">
				<pitch>
					<step>G</step>
					<octave>4</octave>
				</pitch>
				<duration>4</duration>
				<voice>1</voice>
				<type>half</type>
				<stem>up</stem>
				<staff>1</staff>
				<lyric default-x="6.50" default-y="-57.41" number="1" relative-y="-30.00">
					<syllabic>end</syllabic>
					<text font-size="8">ler</text>
				</lyric>
			</note>
			<note default-x="198.56" default-y="-20.00">
				<pitch>
					<step>B</step>
					<octave>4</octave>
				</pitch>
				<duration>2</duration>
				<voice>1</voice>
				<type>quarter</type>
				<stem>up</stem>
				<staff>1</staff>
				<lyric default-x="6.50" default-y="-57.41" number="1" relative-y="-30.00">
					<syllabic>begin</syllabic>
					<text font-size="8">A</text>
				</lyric>
			</note>
			<backup>
				<duration>8</duration>
			</backup>
			<note default-x="23.03" default-y="-15.00">
				<pitch>
					<step>C</step>
					<octave>5</octave>
				</pitch>
				<duration>1</duration>
				<voice>2</voice>
				<type>eighth</type>
				<stem>down</stem>
				<staff>1</staff>
			</note>
			<note default-x="64.83" default-y="-30.00">
				<pitch>
					<step>G</step>
					<octave>4</octave>
				</pitch>
				<duration>1</duration>
				<voice>2</voice>
				<type>eighth</type>
				<stem>down</stem>
				<staff>1</staff>
			</note>
			<note default-x="106.62" default-y="-30.00">
				<pitch>
					<step>G</step>
					<octave>4</octave>
				</pitch>
				<duration>4</duration>
				<voice>2</voice>
				<type>half</type>
				<stem>down</stem>
				<staff>1</staff>
			</note>
			<note default-x="198.56" default-y="-35.00">
				<pitch>
					<step>F</step>
					<octave>4</octave>
				</pitch>
				<duration>2</duration>
				<voice>2</voice>
				<type>quarter</type>
				<stem>up</stem>
				<staff>1</staff>
			</note>
			<backup>
				<duration>8</duration>
			</backup>
			<note default-x="23.03" default-y="-123.78">
				<pitch>
					<step>C</step>
					<octave>4</octave>
				</pitch>
				<duration>1</duration>
				<voice>5</voice>
				<type>eighth</type>
				<stem>up</stem>
				<staff>2</staff>
			</note>
			<note default-x="64.83" default-y="-138.78">
				<pitch>
					<step>G</step>
					<octave>3</octave>
				</pitch>
				<duration>1</duration>
				<voice>5</voice>
				<type>eighth</type>
				<stem>up</stem>
				<staff>2</staff>
			</note>
			<note default-x="106.62" default-y="-138.78">
				<pitch>
					<step>G</step>
					<octave>3</octave>
				</pitch>
				<duration>4</duration>
				<voice>5</voice>
				<type>half</type>
				<stem>up</stem>
				<staff>2</staff>
			</note>
			<note default-x="198.56" default-y="-138.78">
				<pitch>
					<step>G</step>
					<octave>3</octave>
				</pitch>
				<duration>2</duration>
				<voice>5</voice>
				<type>quarter</type>
				<stem>up</stem>
				<staff>2</staff>
			</note>
			<backup>
				<duration>8</duration>
			</backup>
			<note default-x="23.03" default-y="-123.78">
				<pitch>
					<step>C</step>
					<octave>4</octave>
				</pitch>
				<duration>1</duration>
				<voice>6</voice>
				<type>eighth</type>
				<stem>down</stem>
				<staff>2</staff>
			</note>
			<note default-x="64.83" default-y="-138.78">
				<pitch>
					<step>G</step>
					<octave>3</octave>
				</pitch>
				<duration>1</duration>
				<voice>6</voice>
				<type>eighth</type>
				<stem>down</stem>
				<staff>2</staff>
			</note>
			<note default-x="106.62" default-y="-138.78">
				<pitch>
					<step>G</step>
					<octave>3</octave>
				</pitch>
				<duration>4</duration>
				<voice>6</voice>
				<type>half</type>
				<stem>down</stem>
				<staff>2</staff>
			</note>
			<note default-x="198.56" default-y="-138.78">
				<pitch>
					<step>G</step>
					<octave>3</octave>
				</pitch>
				<duration>2</duration>
				<voice>6</voice>
				<type>quarter</type>
				<stem>down</stem>
				<staff>2</staff>
			</note>
		</measure>
		<measure number="1" width="442.08">
			<print new-system="yes">
				<system-layout>
					<system-margins>
						<left-margin>58.23</left-margin>
						<right-margin>0.00</right-margin>
					</system-margins>
					<system-distance>55.00</system-distance>
				</system-layout>
				<staff-layout number="2">
					<staff-distance>65.00</staff-distance>
				</staff-layout>
			</print>
			<attributes>
				<divisions>2</divisions>
				<staves>2</staves>
			</attributes>
			<note default-x="76.44" default-y="-15.00">
				<pitch>
					<step>C</step>
					<octave>5</octave>
				</pitch>
				<duration>3</duration>
				<voice>1</voice>
				<type>quarter</type>
				<dot/>
				<stem>up</stem>
				<staff>1</staff>
				<lyric default-x="6.50" default-y="-40.00" number="1" relative-y="-30.00">
					<syllabic>end</syllabic>
					<text font-size="8">long</text>
				</lyric>
			</note>
			<note default-x="184.79" default-y="-15.00">
				<pitch>
					<step>C</step>
					<octave>5</octave>
				</pitch>
				<duration>1</duration>
				<voice>1</voice>
				<type>eighth</type>
				<stem>up</stem>
				<staff>1</staff>
				<lyric default-x="6.50" default-y="-40.00" number="1" relative-y="-30.00">
					<syllabic>single</syllabic>
					<text font-size="8">the</text>
				</lyric>
			</note>
			<note default-x="240.33" default-y="-10.00">
				<pitch>
					<step>D</step>
					<octave>5</octave>
				</pitch>
				<duration>1</duration>
				<voice>1</voice>
				<type>eighth</type>
				<stem>up</stem>
				<staff>1</staff>
				<lyric default-x="6.50" default-y="-40.00" number="1" relative-y="-30.00">
					<syllabic>begin</syllabic>
					<text font-size="8">heav</text>
				</lyric>
			</note>
			<note default-x="295.87" default-y="-15.00">
				<pitch>
					<step>C</step>
					<octave>5</octave>
				</pitch>
				<duration>1</duration>
				<voice>1</voice>
				<type>eighth</type>
				<stem>up</stem>
				<staff>1</staff>
				<lyric default-x="6.50" default-y="-40.00" number="1" relative-y="-30.00">
					<syllabic>middle</syllabic>
					<text font-size="8">en</text>
				</lyric>
			</note>
			<note default-x="351.41" default-y="-10.00">
				<pitch>
					<step>D</step>
					<octave>5</octave>
				</pitch>
				<duration>2</duration>
				<voice>1</voice>
				<type>quarter</type>
				<stem>up</stem>
				<staff>1</staff>
				<lyric default-x="6.50" default-y="-40.00" number="1" relative-y="-30.00">
					<syllabic>end</syllabic>
					<text font-size="8">ly</text>
				</lyric>
			</note>
			<backup>
				<duration>8</duration>
			</backup>
			<note default-x="76.44" default-y="-40.00">
				<pitch>
					<step>E</step>
					<octave>4</octave>
				</pitch>
				<duration>3</duration>
				<voice>2</voice>
				<type>quarter</type>
				<dot/>
				<stem>up</stem>
				<staff>1</staff>
			</note>
			<note default-x="184.79" default-y="-40.00">
				<pitch>
					<step>E</step>
					<octave>4</octave>
				</pitch>
				<duration>1</duration>
				<voice>2</voice>
				<type>eighth</type>
				<stem>up</stem>
				<staff>1</staff>
			</note>
			<note default-x="240.33" default-y="-35.00">
				<pitch>
					<step>F</step>
					<octave>4</octave>
				</pitch>
				<duration>1</duration>
				<voice>2</voice>
				<type>eighth</type>
				<stem>up</stem>
				<staff>1</staff>
			</note>
			<note default-x="295.87" default-y="-40.00">
				<pitch>
					<step>E</step>
					<octave>4</octave>
				</pitch>
				<duration>1</duration>
				<voice>2</voice>
				<type>eighth</type>
				<stem>up</stem>
				<staff>1</staff>
			</note>
			<note default-x="351.41" default-y="-35.00">
				<pitch>
					<step>F</step>
					<octave>4</octave>
				</pitch>
				<duration>2</duration>
				<voice>2</voice>
				<type>quarter</type>
				<stem>up</stem>
				<staff>1</staff>
			</note>
			<backup>
				<duration>8</duration>
			</backup>
			<note default-x="76.44" default-y="-110.00">
				<pitch>
					<step>G</step>
					<octave>3</octave>
				</pitch>
				<duration>3</duration>
				<voice>5</voice>
				<type>quarter</type>
				<dot/>
				<stem>down</stem>
				<staff>2</staff>
			</note>
			<note default-x="184.79" default-y="-110.00">
				<pitch>
					<step>G</step>
					<octave>3</octave>
				</pitch>
				<duration>1</duration>
				<voice>5</voice>
				<type>eighth</type>
				<stem>down</stem>
				<staff>2</staff>
			</note>
			<note default-x="240.33" default-y="-110.00">
				<pitch>
					<step>G</step>
					<octave>3</octave>
				</pitch>
				<duration>1</duration>
				<voice>5</voice>
				<type>eighth</type>
				<stem>down</stem>
				<staff>2</staff>
			</note>
			<note default-x="295.87" default-y="-110.00">
				<pitch>
					<step>G</step>
					<octave>3</octave>
				</pitch>
				<duration>1</duration>
				<voice>5</voice>
				<type>eighth</type>
				<stem>down</stem>
				<staff>2</staff>
			</note>
			<note default-x="351.41" default-y="-110.00">
				<pitch>
					<step>G</step>
					<octave>3</octave>
				</pitch>
				<duration>2</duration>
				<voice>5</voice>
				<type>quarter</type>
				<stem>down</stem>
				<staff>2</staff>
			</note>
			<backup>
				<duration>8</duration>
			</backup>
			<note default-x="76.44" default-y="-145.00">
				<pitch>
					<step>G</step>
					<octave>2</octave>
				</pitch>
				<duration>3</duration>
				<voice>6</voice>
				<type>quarter</type>
				<dot/>
				<stem>down</stem>
				<staff>2</staff>
			</note>
			<note default-x="184.79" default-y="-145.00">
				<pitch>
					<step>G</step>
					<octave>2</octave>
				</pitch>
				<duration>1</duration>
				<voice>6</voice>
				<type>eighth</type>
				<stem>down</stem>
				<staff>2</staff>
			</note>
			<note default-x="240.33" default-y="-145.00">
				<pitch>
					<step>G</step>
					<octave>2</octave>
				</pitch>
				<duration>1</duration>
				<voice>6</voice>
				<type>eighth</type>
				<stem>down</stem>
				<staff>2</staff>
			</note>
			<note default-x="295.87" default-y="-145.00">
				<pitch>
					<step>G</step>
					<octave>2</octave>
				</pitch>
				<duration>1</duration>
				<voice>6</voice>
				<type>eighth</type>
				<stem>down</stem>
				<staff>2</staff>
			</note>
			<note default-x="351.41" default-y="-145.00">
				<pitch>
					<step>G</step>
					<octave>2</octave>
				</pitch>
				<duration>2</duration>
				<voice>6</voice>
				<type>quarter</type>
				<stem>down</stem>
				<staff>2</staff>
			</note>
		</measure>
		<measure number="2" width="169.26">
			<note default-x="22.09" default-y="-15.00">
				<pitch>
					<step>C</step>
					<octave>5</octave>
				</pitch>
				<duration>4</duration>
				<voice>1</voice>
				<type>half</type>
				<stem>up</stem>
				<staff>1</staff>
				<lyric default-x="8.70" default-y="-40.00" number="1" relative-y="-30.00">
					<syllabic>single</syllabic>
					<text font-size="8">way.</text>
				</lyric>
			</note>
			<backup>
				<duration>4</duration>
			</backup>
			<note default-x="22.09" default-y="-40.00">
				<pitch>
					<step>E</step>
					<octave>4</octave>
				</pitch>
				<duration>4</duration>
				<voice>2</voice>
				<type>half</type>
				<stem>up</stem>
				<staff>1</staff>
			</note>
			<backup>
				<duration>4</duration>
			</backup>
			<note default-x="22.09" default-y="-110.00">
				<pitch>
					<step>G</step>
					<octave>3</octave>
				</pitch>
				<duration>4</duration>
				<voice>5</voice>
				<type>half</type>
				<stem>down</stem>
				<staff>2</staff>
			</note>
			<backup>
				<duration>4</duration>
			</backup>
			<note default-x="22.09" default-y="-130.00">
				<pitch>
					<step>C</step>
					<octave>3</octave>
				</pitch>
				<duration>4</duration>
				<voice>6</voice>
				<type>half</type>
				<stem>down</stem>
				<staff>2</staff>
			</note>
			<barline location="right">
				<bar-style>heavy-heavy</bar-style>
			</barline>
		</measure>
	</part>
</score-partwise>
